%TF.GenerationSoftware,KiCad,Pcbnew,(5.1.8-0-10_14)*%
%TF.CreationDate,2021-02-06T16:24:54+01:00*%
%TF.ProjectId,PoundingSystem_BottomPlate,506f756e-6469-46e6-9753-797374656d5f,rev?*%
%TF.SameCoordinates,Original*%
%TF.FileFunction,Legend,Top*%
%TF.FilePolarity,Positive*%
%FSLAX46Y46*%
G04 Gerber Fmt 4.6, Leading zero omitted, Abs format (unit mm)*
G04 Created by KiCad (PCBNEW (5.1.8-0-10_14)) date 2021-02-06 16:24:54*
%MOMM*%
%LPD*%
G01*
G04 APERTURE LIST*
%ADD10C,0.100000*%
%ADD11C,0.150000*%
G04 APERTURE END LIST*
D10*
%TO.C,mouse-bite-2mm-slot*%
X137260000Y-44900000D02*
G75*
G03*
X137260000Y-46900000I0J-1000000D01*
G01*
X133260000Y-46900000D02*
G75*
G03*
X133260000Y-44900000I0J1000000D01*
G01*
X208980000Y-44900000D02*
G75*
G03*
X208980000Y-46900000I0J-1000000D01*
G01*
X204980000Y-46900000D02*
G75*
G03*
X204980000Y-44900000I0J1000000D01*
G01*
X67500000Y-44910000D02*
G75*
G03*
X67500000Y-46910000I0J-1000000D01*
G01*
X63500000Y-46910000D02*
G75*
G03*
X63500000Y-44910000I0J1000000D01*
G01*
%TO.C,H4*%
D11*
X46113095Y-225362380D02*
X46113095Y-224362380D01*
X46113095Y-224838571D02*
X46684523Y-224838571D01*
X46684523Y-225362380D02*
X46684523Y-224362380D01*
X47589285Y-224695714D02*
X47589285Y-225362380D01*
X47351190Y-224314761D02*
X47113095Y-225029047D01*
X47732142Y-225029047D01*
X46113095Y-46912380D02*
X46113095Y-45912380D01*
X46113095Y-46388571D02*
X46684523Y-46388571D01*
X46684523Y-46912380D02*
X46684523Y-45912380D01*
X47589285Y-46245714D02*
X47589285Y-46912380D01*
X47351190Y-45864761D02*
X47113095Y-46579047D01*
X47732142Y-46579047D01*
X46113095Y-39452380D02*
X46113095Y-38452380D01*
X46113095Y-38928571D02*
X46684523Y-38928571D01*
X46684523Y-39452380D02*
X46684523Y-38452380D01*
X47589285Y-38785714D02*
X47589285Y-39452380D01*
X47351190Y-38404761D02*
X47113095Y-39119047D01*
X47732142Y-39119047D01*
%TD*%
M02*
