%TF.GenerationSoftware,KiCad,Pcbnew,(5.1.8-0-10_14)*%
%TF.CreationDate,2021-02-06T16:24:54+01:00*%
%TF.ProjectId,PoundingSystem_BottomPlate,506f756e-6469-46e6-9753-797374656d5f,rev?*%
%TF.SameCoordinates,Original*%
%TF.FileFunction,Profile,NP*%
%FSLAX46Y46*%
G04 Gerber Fmt 4.6, Leading zero omitted, Abs format (unit mm)*
G04 Created by KiCad (PCBNEW (5.1.8-0-10_14)) date 2021-02-06 16:24:54*
%MOMM*%
%LPD*%
G01*
G04 APERTURE LIST*
%TA.AperFunction,Profile*%
%ADD10C,0.050000*%
%TD*%
G04 APERTURE END LIST*
D10*
X133280000Y-46900000D02*
X67500000Y-46900000D01*
X133280000Y-44900000D02*
X67500000Y-44900000D01*
X137270000Y-46900000D02*
G75*
G02*
X137270000Y-44900000I0J1000000D01*
G01*
X133280000Y-44900000D02*
G75*
G02*
X133280000Y-46900000I0J-1000000D01*
G01*
X225530000Y-46890000D02*
X208990000Y-46900000D01*
X205000000Y-46900000D02*
X137270000Y-46900000D01*
X205000000Y-44900000D02*
X137270000Y-44900000D01*
X208990000Y-46900000D02*
G75*
G02*
X208990000Y-44900000I0J1000000D01*
G01*
X205000000Y-44900000D02*
G75*
G02*
X205000000Y-46900000I0J-1000000D01*
G01*
X46800000Y-230890000D02*
G75*
G02*
X44100000Y-228159833I0J2700167D01*
G01*
X228230000Y-228190000D02*
G75*
G02*
X225530000Y-230890000I-2700000J0D01*
G01*
X46800000Y-230890000D02*
X225530000Y-230890000D01*
X228230000Y-49590000D02*
X228230000Y-228190000D01*
X225530000Y-46890000D02*
G75*
G02*
X228230000Y-49590000I0J-2700000D01*
G01*
X44100000Y-228159833D02*
X44100000Y-49600000D01*
X44099981Y-49600000D02*
G75*
G02*
X46790000Y-46900000I2700019J0D01*
G01*
X63510000Y-46900000D02*
X46790000Y-46900000D01*
X63510000Y-44900000D02*
X46800000Y-44900000D01*
X67500000Y-46900000D02*
G75*
G02*
X67500000Y-44900000I0J1000000D01*
G01*
X63510000Y-44900000D02*
G75*
G02*
X63510000Y-46900000I0J-1000000D01*
G01*
X46800000Y-44900000D02*
G75*
G02*
X44100000Y-42200000I0J2700000D01*
G01*
X44100000Y-9850000D02*
G75*
G02*
X46800000Y-7150000I2700000J0D01*
G01*
X225550000Y-7150000D02*
G75*
G02*
X228250000Y-9850000I0J-2700000D01*
G01*
X228250000Y-42200000D02*
G75*
G02*
X225550000Y-44900000I-2700000J0D01*
G01*
X225550000Y-44900000D02*
X208990000Y-44900000D01*
X228250000Y-9850000D02*
X228250000Y-42200000D01*
X46800000Y-7150000D02*
X225550000Y-7150000D01*
X44100000Y-42200000D02*
X44100000Y-9850000D01*
M02*
