M48
; DRILL file {KiCad (5.1.8-0-10_14)} date Saturday, February 06, 2021 at 04:24:57 PM
; FORMAT={-:-/ absolute / inch / decimal}
; #@! TF.CreationDate,2021-02-06T16:24:57+01:00
; #@! TF.GenerationSoftware,Kicad,Pcbnew,(5.1.8-0-10_14)
FMAT,2
INCH
T1C0.0157
T2C0.0354
T3C0.0866
T4C0.0197
%
G90
G05
T1
X1.7805Y-1.6614
X1.7995Y-1.6155
X1.7995Y-1.7074
X1.8455Y-1.5965
X1.8455Y-1.7264
X1.8914Y-1.6155
X1.8914Y-1.7074
X1.9104Y-1.6614
X1.7805Y-8.9807
X1.7995Y-8.9348
X1.7995Y-9.0266
X1.8455Y-8.9157
X1.8455Y-9.0457
X1.8914Y-8.9348
X1.8914Y-9.0266
X1.9104Y-8.9807
X8.812Y-1.9551
X8.831Y-1.9092
X8.831Y-2.0011
X8.877Y-1.8902
X8.877Y-2.0201
X8.9229Y-1.9092
X8.9229Y-2.0011
X8.9419Y-1.9551
X8.812Y-0.3898
X8.831Y-0.3438
X8.831Y-0.4357
X8.877Y-0.3248
X8.877Y-0.4547
X8.9229Y-0.3438
X8.9229Y-0.4357
X8.9419Y-0.3898
X8.812Y-8.9807
X8.831Y-8.9348
X8.831Y-9.0266
X8.877Y-8.9157
X8.877Y-9.0457
X8.9229Y-8.9348
X8.9229Y-9.0266
X8.9419Y-8.9807
X1.7805Y-1.9551
X1.7995Y-1.9092
X1.7995Y-2.0011
X1.8455Y-1.8902
X1.8455Y-2.0201
X1.8914Y-1.9092
X1.8914Y-2.0011
X1.9104Y-1.9551
X8.812Y-1.6614
X8.831Y-1.6155
X8.831Y-1.7074
X8.877Y-1.5965
X8.877Y-1.7264
X8.9229Y-1.6155
X8.9229Y-1.7074
X8.9419Y-1.6614
X1.7805Y-0.3888
X1.7995Y-0.3428
X1.7995Y-0.4347
X1.8455Y-0.3238
X1.8455Y-0.4537
X1.8914Y-0.3428
X1.8914Y-0.4347
X1.9104Y-0.3888
T2
X5.2843Y-5.4512
X5.3843Y-5.4512
T3
X1.8455Y-8.9807
X8.877Y-1.9551
X8.877Y-0.3898
X8.877Y-8.9807
X1.8455Y-1.9551
X8.877Y-1.6614
X1.8455Y-0.3888
X1.8455Y-1.6614
T4
X5.2957Y-1.7776
X5.2957Y-1.8366
X5.3252Y-1.7776
X5.3252Y-1.8366
X5.3547Y-1.7776
X5.3547Y-1.8366
X8.1193Y-1.7776
X8.1193Y-1.8366
X8.1488Y-1.7776
X8.1488Y-1.8366
X8.1783Y-1.7776
X8.1783Y-1.8366
X2.5492Y-1.778
X2.5492Y-1.837
X2.5787Y-1.778
X2.5787Y-1.837
X2.6083Y-1.778
X2.6083Y-1.837
T0
M30
