<svg xmlns="http://www.w3.org/2000/svg" viewBox="0 0 500 375"><defs><style>.cls-1{fill:#4a5a41;}.cls-2{fill:#d8d188;}.cls-3{fill:#8c9458;}</style></defs><g id="Layer_2" data-name="Layer 2"><g id="Layer_1-2" data-name="Layer 1"><path class="cls-1" d="M144,374.89H38.09c3.51-1.8,1.4-3.28-.17-5-5-5.43-5-6.83.35-10.39h1.6c3.06,2.22,6,4.72,9.23,6.58s6.19.22,7.32-2.76c1.22-3.2-2.41-2.6-4.05-3.5-.85-.47-1.79-.8-2.68-1.2a15.63,15.63,0,0,1,2.91-1.87c6.16-2.27,10-6,9.89-13.17,0-4.89,3.39-7.3,8.05-7.91,2.64-.35,5.29-.59,7.93-.85,6.91-.71,13.92-.68,20.68-2.58,1.91-.53,4.49-.81,4.47-3.19,0-2.73-2.74-3.07-4.85-3.21-5.64-.37-11.29-.42-16.93-.8-2.78-.19-6.2-.33-6.77-3.81s1.73-5.93,4.77-7.42A14.75,14.75,0,0,1,85,312.09c6-.44,11.83-.48,17.73,1.25,3.54,1,7.5,1.47,11.1-.58,1.73,4.06,5.23,5.34,9.21,5.78,5.69.63,11.31-.21,16.89-1.09a97.87,97.87,0,0,1,25.35-1.19c12.2,1.24,23,5.65,33.35,12.26,14.27,9.13,29.38,10.07,44.45,1.57,4.44-2.51,9.7-5.23,8.78-11.48-.89-6-6.57-6.87-11.33-8.29-4.34-1.29-9-2.46-11.77-6.1-3.07-4-6.8-4.94-11.32-4.68a43.85,43.85,0,0,1-5,.15A13.29,13.29,0,0,1,201.8,294c-2.29-3.29-3.68-6.7-1-10.55,1-1.53-.21-2.75-.94-4.06-2.16-3.95-1.19-6.73,3.16-7.26,7.23-.87,13-4.53,19-8.14,9.58-5.75,19.6-10.16,31.08-5.28,4.77,1.67,9.47,1.94,14-.72l16-2.87a19.61,19.61,0,0,0,2.43-.25c1.52-.33,3.75,1,4.48-.69.8-1.85-.48-3.83-2-5.15-1.31-1.15-2.46-2.16-1.59-4.08,2.15-.07,4.29-.21,6.43-.2,5.47,0,11,.41,16.39.06,5.18-.34,10-4.69,10.48-8.54.47-4-2.63-7.7-8.69-9.36-5.71-1.56-10.62-4.51-15.5-7.67-6.73-4.36-14.25-5.09-22-4.42-3,.26-5.47,1.52-5.61,5.12-2.65-.56-4.24-2.1-3.84-4.9.37-2.57,2.56-3.38,4.73-3.76,4.66-.82,9.3-.14,13.93.41,3.44.41,6.78.22,9.25-2.51,3.41-3.78,7.74-4.86,12.57-5.06,4.65-.2,9.33-.38,13.77-2.07,1.29-.49,2.54-1.24,2.46-2.78-.1-1.76-1.5-2.55-3.07-2.77-3.69-.54-7.3.32-10.9.89a38.15,38.15,0,0,1-10.43.7c-3.61-.43-6.41-2.36-7.19-6s2.23-5.33,5-6.55a22.21,22.21,0,0,1,7.17-2c5.46-.4,11-.17,16.45-.57,2.53-.19,6.73.73,6.93-2.73.22-4.11-4.07-4.53-7.33-5.17a6.83,6.83,0,0,0-1.5-.08c-9.14.32-18.3.46-27.43,1.06-5,.33-10.4,1.51-13.64,5.4-5.92,7.1-13.65,9.56-22.17,11.09-4.83.86-8.64,3.31-10.4,8.28-1.48,4.16-5.05,5.67-9,6.13s-7.64.37-11.46.46c-4.82.11-9.65-.75-14.45.16-1.6.3-3.69.5-3.73,2.62,0,2.5,2.35,2.89,4,2.68,4.83-.58,6.25,2.78,6.82,6.15s-3.15,3.12-5.15,4.26c-3.89.48-7.58-.68-11.33-1.38-8.15-1.51-16.36-4.26-24.64-1.88a25.38,25.38,0,0,1-17.43-1.17c-5.45-2.21-12.82-1.37-16.12,1.36-3.53,2.94-7.37,4.33-11,6.49a5.68,5.68,0,0,0-2.69,3.47c-2,7.71-7.66,9.84-14.82,9.75-6.66-.08-13.32-.06-19.91,1.11-4.6.82-9.19,1.75-12.9,4.91-1.4,1.2-2.87,2.53-2.31,4.63s2.42,2.77,4.23,3a97.66,97.66,0,0,0,10.94.69c18,0,35.94-.08,53.91-.38,8.71-.15,17.25,1.21,25.84,2.12,1.09.11,2.63-.13,2.78,1.44.13,1.4-1.31,1.79-2.31,2.29-2.46,1.24-5.15,1.32-7.81,1.25a30,30,0,0,0-17.09,4.46c-3.91,2.42-8.23,3.89-13.28,2.67-3.2-.78-7.48-.07-7.42,4.34.06,4-1.84,4.55-4.7,4.71-5.48.31-11,.4-16.45.8-2.37.17-5.93-.08-6.12,2.94-.22,3.42,3.5,3.45,6,3.85,4.42.71,8.93,1,13.37,1.58,3,.43,4.45-.47,5.17-3.67,1-4.48,6-7.84,9.36-5.51,5.25,3.59,10.33,2.79,15.78,2.43,1.54-.1,3.14.91,4.72,1.4-.7,3.74-2.73,6.7-5.28,9.43-6.21,6.65-14.5,7.59-22.82,8.39a52.46,52.46,0,0,0-12.79,3.14c-7.61,2.71-15.82,4.87-24.22,1.55-6.57-2.59-13.31-3.8-20.16-.3-5.07,2.58-10,1.22-14.59-1.59-2.27-1.38-4.51-2.83-6.87-4.05A31.24,31.24,0,0,0,29,294c-2.35.19-3.65.78-1.47,3.19,8.07,8.94,12.18,19.73,14.36,31.38.54,2.87.29,5.37-2.18,7.62-4.72,4.3-10.1,4.24-15.84,3.33-7.9-1.24-16-6.75-23.59.89l-.18-.47V262c2.81-.8,4.93.17,7.16,2,2.81,2.33,5.69,4.56,8.4,7,4.83,4.43,10.4,6,16.54,3,9.3-4.55,18.53-4.16,28.07-.68a61.65,61.65,0,0,0,26.53,3.6c5.42-.46,8.9-3.23,8.26-6.78-1-5.67-5.62-4.49-9.14-3.76-7.65,1.6-14.09,0-19.78-5.39-4.35-4.13-9.55-5-15.32-3.33A29.91,29.91,0,0,1,43,259c-3.38,0-4.6-2.6-2.82-5.47a8.46,8.46,0,0,1,5.33-3.43c2.25-.6,4.55-1,6.79-1.66,1.23-.35,2.79-.69,2.7-2.44s-1.56-2.08-2.83-2.37c-4.63-1.05-9.06-1.12-13.55,1.21-9.34,4.86-19.78,1.18-24.2-8.35a5.25,5.25,0,0,0-4.56-3.28c-3.3-.38-6.58-.47-9.75.79V208c.4-.11.88-.41,1.19-.28,4.2,1.69,6.81-1.45,7.75-4.09,1.22-3.41-2.85-3.51-5.1-4.61-1.25-.61-3.06,1.11-3.84-1V188c5.8,0,10.88,4,16.85,3a18.93,18.93,0,0,0,17.62-2.62c4.66-3.29,8.43-1.89,12.28.6,4.38,2.84,8.82,5.16,14.08,6,4.08.68,5.09,5,2.1,7.94-2.31,2.24-4.84,2.45-7.71.74-4.87-2.9-9.75-3.14-15.2-.81-8.41,3.6-16.91,6.81-24.47,12.21-5,3.57-5.26,3.16-1.23,7.86,2.37,2.76,4.25,7.08,7.17,7.93,3.36,1,6.51-3.18,9.87-4.89,7.84-4,15.56-5.5,23.57-.28,1.16.76,3,2.39,4.93.71-3.56-6-3.56-6,3.33-8.28,1.58-.52,3.16-1.06,4.74-1.56,6.21-2,12.68-3.69,19-3.42,4.89.21,9.33,1.31,14.23-1,5.79-2.71,12.07-1.48,18.13.08,1.16.3,2.63,1.38,3.48-.38.77-1.59-.09-2.84-1.33-3.9a20,20,0,0,0-6.13-3.25c-3.85-1.5-8.66-2-11.06-5.4-4.53-6.51-11.32-10.17-17-15.16-3.74-3.27-7.95-5.18-13.09-4.67-4.43.43-8.62.09-11.2-4.44a3.49,3.49,0,0,0-3.16-1.91c-.45,3.32-2.58,5.22-6,4.8-2.57-.33-5.26-.61-7.56-2.12-6.51-4.25-12.4-3.24-18.07,1.83-3.44,3.07-7.22,5.77-10.85,8.63-5.22-4-10.79-6.19-17.33-3.26v-65c4.81,2.33,10.36,1.23,12.09-2.39l1.63-.12,5.4.16c5.7,1.6,11.25,3.29,17.43,2.24,5.87-1,12.07-1.08,17.58,1.58,5.79,2.78,10.44,1.38,14.94-2.39l9.45,0a26.67,26.67,0,0,0,7.3,5.67,18.72,18.72,0,0,0,8.38,4l8,3.08c-.61-4.88,1.48-7.91,4.39-10.62a34.17,34.17,0,0,0,5.44-5.79c1.65-2.5,3.82-5.3.89-8.43-1-2.22-3.17-2.86-5.11-3.66C98.85,97.64,91.05,92.48,87,83c-.35-4.8-3.34-6.09-7.57-5.58-5.18.62-9.88-.9-14.37-3.21-2.06-1.06-4.4-2.32-4-5.11.4-3.12,3-4.29,5.71-4.8,4.62-.88,9.28-.34,13.91.29,6.09.82,12.16,1.85,18.27,2.37,4.22.36,8.34-3.37,8.16-6.9-.25-5.26-4.38-4.47-7.74-4.71a19.55,19.55,0,0,0-3.47.31c-4.79.52-9.58,1.15-14.38,1.54-3,.25-5.43-1-5.79-4.18-.4-3.52,1.89-5.89,4.46-7.87,5.24-4,11.29-3.53,17.22-2.51s11.54,3,17.62,2.4c-.18.43-.25,1-.57,1.28-1.46,1.18-4.22,1.65-3.37,4.23.81,2.43,3.47,2.33,5.57,2.48a61.15,61.15,0,0,0,15.94-.44c17.37-3.32,34-.63,50.57,4.92,16.35,5.47,33.17,8.61,50.58,6.66a38.27,38.27,0,0,0,14.71-4.48c2.44-1.36,5.35-2.82,5.11-6.15-.22-3-3-4.25-5.45-5.29-2.75-1.18-5.62-2-8.46-3a16.93,16.93,0,0,1-9.07-6.64c-2.6-3.86-5.85-4.56-9.72-2a36.59,36.59,0,0,0-5.19,4.63c-6.69,6.56-11.85,7.4-20.25,3.14-3.86-2-7.5-4.51-11.86-5.08-2.92-.39-5.35-1.68-7.87-2.91-1.86-.9-3.71-2-3.45-4.36.3-2.72,2.66-3.12,4.8-3.53A44.28,44.28,0,0,1,188.92,28c2.85.23,4.62-.46,5.93-3.2S198.07,19.26,202,20c5.67,1,11.59,1.82,15.35-3.69,2.51-3.69,5.82-4.64,9.62-4.93,4.3-.32,8.64-.4,13-.3,5,.12,11.7,5.9,12.7,10.77.83,4,3.69,5.89,7.31,7,8.2,2.46,8.43,3,4.29,10,2.12,1.21,4.5,1.25,6.79,1.28,10.67.17,21.21,1.17,31.15,5.37,4,1.69,7.54,1.07,11.28-.59a213.55,213.55,0,0,1,32-11c5.18-1.37,10.69-2.84,14.78-6.62C363.11,24.62,366.94,22,365,17c1.85-3.23,5.91-2.54,8.71-4.84-3.72-4-8.37-5.24-13.4-5.45-4.49-.2-6.29-2.1-4.38-6.53q69.78,0,139.57-.07c3.28,0,4.56.26,4.49,4.19-.32,16.28-.13,32.56-.13,48.85-2-.81-3.92-2.3-6.31-.6,1.64,2.5,3.36,4.4,6.31,4.59v14c-3.46.48-7.39-.73-10,2.8-.88,1.2-1.85,2.51-1.26,4s2.25.92,3.48,1.1l7.77,1.07v28c-9.06,1-18.3.28-27.23,2.3-4.18,1-10.08.14-11.06,6.3-.51,3.2,4.45,5.2,12.1,5.27,8.78.09,17.55,0,26.19-1.88v64c-1.26-1.11-1.91-3.37-4.32-2.33-.63.27-1.36.66-1.06,1.43.67,1.7,2.28,2.27,3.84,2.89a8.87,8.87,0,0,1,1.54,1v23c-1.82-2.17-.74-4.78-1.05-7.18-.17-1.29.11-3.15-1.49-3.33-7.41-.83-13.2-6.55-20.66-6.9A271.31,271.31,0,0,1,447.08,190a2.46,2.46,0,0,0-2.25-1.09l.19,0c-1.34-3.14-.07-5,2.91-6.1,6.07-2.27,12.8-3.8,18.46-1.1,5.89,2.81,7.72,0,10-3.87.25-.42.65-.76.9-1.19.82-1.39,3.21-2.27,2.55-3.94s-3.16-1.39-4.86-1.66c-9.5-1.51-19.44.72-28.65-3.69-2.09-1-4.35.24-4.8,2.93-.37,2.28-1.78,2.49-3.6,2.3a27,27,0,0,1-9.11-2.32c-4.6-2.17-9.27-4.21-13.9-6.3.34-1.25,1.43-1.76,2.36-2.43,1.89-1.36,4.35-2.78,2.92-5.5s-4.23-2.07-6.7-1.44c-3.39.86-5.81,3.68-9.53,4.22l4.17,5.38c-2.68,4.64-6.8,5-11.23,3.42-5.14-1.88-10.14-4.12-15.16-6.3-3.54-1.54-6.91-1.81-10.4.6,3.34,3.57,7.28,5.38,11.4,7.13,6.5,2.76,13.3,5.24,17.35,11.7-1.41,2.5-3.25.79-4.78.33a137.56,137.56,0,0,1-29.08-13c-3.81-2.19-6.88-2-10.52-.68.62,2,3.6,1.88,3,4-.54,1.77-2.66,1.79-4.24,2.14-3.9.85-7.86,1.42-11.73,2.37-3.12.75-6.36,1.85-6.65,5.74S338.82,187,342,188c-.82,4.14,2.28,6.18,5,7.58,2.93,1.51,3.23,2.89,1.68,5.34l-3.7,4v1.14l-.05-.24c-5,2.62-10.3,3.18-15.82,2.6a8,8,0,0,0-2.48.21c-1.45.3-3.19.47-3.31,2.4-.11,1.72,1.2,2.73,2.61,3.32a23.3,23.3,0,0,0,10.81,1.32,44.81,44.81,0,0,1,22.2,4.43c2.32,1.07,6.46,1.09,6.51,3.62.06,3.15-4.11,3.79-6.63,5.23-3,1.74-6.39,2.86-9,5.28-.59.56-1.27,1.16-1,2.11.32,1.13,1.31.75,2.07.77,8.08.15,15.28,3.19,21.78,7.55,11.11,7.45,23.1,10.75,36.41,9.57,3.82-.34,8.18-.79,11.22,1.44,7.81,5.77,16.26.58,24.22,2.19a2.17,2.17,0,0,0,2.33-1.55c3-6.88,9.18-6.54,15.08-6.66,5.68-.13,11.29-.47,16.71-2.4,4-1.42,5.88-4,5.44-8.35-.27-2.63-.11-5.3-.14-7.94,8.93-.11,13.69-3.61,14.83-10.88.23-1.42-.34-3.06,1.15-4.13v18c-8.37.54-13.2,5.05-14.95,15.2-1.42,8.25-4.45,15-11.6,20-6.05,4.27-5.33,9,1.16,12.87a5.62,5.62,0,0,0,7.31-1c2-2.38,4.77-5.21,3.2-8.78-2.66-6-1.23-9.61,5.11-9s9.4-.94,9.77-7.28V353.9c-6.32,1.56-9.7-2.67-12.53-7-2.54-3.86-5.84-5.67-10-4.94-5.51,1-10.88,2.7-16.29,4.19a5.3,5.3,0,0,0-2,1.41,2.54,2.54,0,0,0-.9,2.68c.47,1.31,1.66.65,2.55.61a19.36,19.36,0,0,1,9.65,2c5.65,2.89,6.52,7.48,2.05,11.87-1.13,1.11-2,1.81-.78,3.14,1.9,2.09,1.42,4.55,1.3,7H358.94c-.87-2.39,1.21-2.76,2.52-3.46a31,31,0,0,1,10-2.82c11.09-1.7,22.26-.75,33.4-1,10-.26,18.5-4.14,27.93-9.95-4,0-6.55.13-9.1,0-3.17-.19-7.35-.25-7.89-3.84-.95-6.3-5.18-7-9.93-7.59-3.12-.42-6.34-.56-9.05-2.47-1.25-.89-2.38-2-2.18-3.67s1.68-2.42,3.13-2.82a24.07,24.07,0,0,1,8.91-.65c7.61.74,15.23,1.54,22.87,2,7,.47,14-.27,20.45-3.41,2-1,4-2.08,4.07-4.6.05-2.81-2.25-3.89-4.39-4.85-4.49-2-9.31-2.38-14.14-2.65-4.17-.22-7.88-1.31-10.29-5.08-1.6-2.48-4-3.35-6.84-3.34-2,0-4,.06-5.82-1a26.91,26.91,0,0,0,2.83-2c1.74-1.56,5-2.7,3.45-5.71a6.47,6.47,0,0,0-7.16-3.28c-1,.16-1.94.42-2.9.63l-3.77.59-.27.08c-8.44-.14-15.23,2-18.6,11-3,8.07-9.95,11.23-18.11,11.85-4.3.34-8.64.33-13,.36-8.78.05-17.57-.67-26.21,1.86-5.33,1.56-6.73,5.36-3.11,9.64,1.32,1.56,3.79,2.46,3.1,5.22-.66-.09-1.57-.51-1.93-.23-4.55,3.6-9.9,3.09-15.18,3.29-4.42.16-7.48,1.65-7.19,7.22.22,4.34-3.24,6.07-9.18,5.7-4.05-.25-6-2-5.77-6.29a11.9,11.9,0,0,1,4.25-9.15,5.63,5.63,0,0,0,1.42-7.24c-1.57-3-4-.53-5.57.18a60.38,60.38,0,0,1-32.53,5c-8-1-9.74,2-6.69,9.28.45,1.07.76,2.21,1.29,3.24,1.8,3.45.34,5-3,6.16-5.58,1.9-11.17,1-16.79.67l-1.11-.07-1.92-.07a10.5,10.5,0,0,0-7-.1c-1.7.56-3.67-.1-5.21,1.18-5.71-2.78-16-1.55-20.17,2.51a4,4,0,0,0-.84,2.21c-.47,3.45-2.77,4.58-5.87,4.87-2.23.2-4.69,0-5.87,2.63H172c-1.75-1.84-4-2.12-6.35-2a22.53,22.53,0,0,1-9.31-1.21C149.63,368.94,148.62,369.23,144,374.89ZM367.8,293.76c2.95-5,2.55-9.89-1.06-12.87-2.86-2.36-6.89-1.6-10.95,2.05-2.61,0-4.37,1-4.86,3.75a21.51,21.51,0,0,0-3.77,1.09,42.39,42.39,0,0,1-13,4.11c-6.77,1-13.76,1.3-20,5-3.48,2.09-7.63.84-10.08-2.06-7-8.33-15.95-7.57-25.18-6.17a16,16,0,0,1-8.32-.58,9.75,9.75,0,0,1-6.25-7.11c-.57-3.15,2.74-5,5.47-6.27A46.47,46.47,0,0,1,285.23,271c11.77-1.06,23.55-1.91,35.31-3,3.29-.31,6.67-.87,9.44-2.92,2.4-1.78,2.59-3.41-.15-5.42-2.44-1.78-4.77-1-7.1-.54-8.29,1.75-16.5,4.26-25.11,2.07a2.85,2.85,0,0,0-2.75.84c-3.77,3.77-8.65,4-13.46,4.05-7.32.13-14.65-.07-22,0-7,.06-12.52,2.56-15.19,9.92,2.82.71,5.53,1.46,8.26,2.06,3.83.83,4.49,2.65,1.91,5.64a13.61,13.61,0,0,1-4.94,3.31c-2.42,1.1-4.9,2.11-7.2,3.43-1.56.9-3.38,2.26-2.84,4.28s2.8,1.18,4.33,1.25c11.68.53,22.66,2.73,31.45,11.42s20.65,6.8,28.16,2c8.28-5.29,17-7,26.25-7.17,8.51-.19,17-.44,25.31-2.3,6,.82,10.34-4.75,16.25-4.34ZM298.92,105.05c-11.77-2-23.1-1.62-33.08,6.12a2.56,2.56,0,0,1-1,.24c-6.41-.18-10.74,4.8-16.35,6.6l-.38-.11c-5.05,1-10.35,2.17-15.24.74-8.09-2.38-16.29-3-24.58-3.2-11-.24-21.79-1.15-32.34-4.5-4.64-1.47-10.19-2.71-14.2-.75-6,2.94-11.24,1.11-16.83.25-2.12-.33-4.21-.89-6.33-1.28-3.49-.64-6.07.3-7.72,3.79a24.3,24.3,0,0,1-8.57,9.55,13.61,13.61,0,0,0-6.11,9.89,23,23,0,0,0,3.89-.3c7.11-1.89,13.74-.75,20.29,2.47,4.22,2.07,8.93,2.53,13.64,2.57a59.57,59.57,0,0,1,9.46.34c4,.67,10.15,1.22,9.87,5.64-.32,4.83-6.45,4.46-10.7,4.62-3.65.13-7.36-.33-11,.13-4.95.65-5.82,3.44-2.67,7.36l0-.1c-3.34,3.08-7.45,3.8-11.78,3.93-3,.1-6-.36-8.91.66-1.18.42-3,.55-2.86,2.22s2,1.78,3.13,1.91a63.57,63.57,0,0,0,9.46.31c3.38-.12,5,1.4,3.77,4.47-1.77,4.4.69,4.46,3.68,4.19,8.48-.75,16.13,1.66,23.27,6C179.38,185.18,191,187,203,188.67c16.11,2.2,29.51-6.94,44.56-8.63a2.23,2.23,0,0,0,2.07-2.43,3.45,3.45,0,0,0-2.44-2.9c-2.92-1.13-5.9-.75-8.87-.32-6.79,1-13.2,3.39-19.77,5.17-3.58,1-10-2.59-9.69-5.58.47-4.23,4.21-4.4,7.48-4.82.82-.11,1.67,0,2.49-.08,1.91-.21,4.59.64,5.3-1.65.78-2.54-1.83-3.6-3.62-4.71-4.78-3-10.35-3.35-15.63-4.65s-10.78-1.94-15.06-6c-2.2-2.06-2.57-3.38.1-5.42a17.17,17.17,0,0,1,13.19-3.22c7.26.91,13.84,4,20.59,6.57,7.7,2.89,14.95,7.06,23.28,8.15,3.24,1.36,6.61,1.19,10,.77a61.09,61.09,0,0,0,6.91-.54c10.14-1.94,18.44-6.65,23.51-16.06,5.27.21,10.57-.5,15.83.42,5.74,3.2,11.37,3.9,16.77-.74,5.81.14,11.63.25,17.45.42a26.21,26.21,0,0,0,14-3.12c10.3-5.83,20.65-8.59,32.86-5.76,7,1.63,13.17,3.31,18.76,8,8.66,7.24,18.89,9.62,29.93,7.13a76.29,76.29,0,0,1,16.27-2.21c4.55,0,7.77-.26,8.72-6.17.57-3.49-.08-4-2.84-4.34a85.72,85.72,0,0,0-15.94-.37c-5.85.42-11.69.12-17-2.65-5.61-2.91-6.54-7-3.44-12.4,1.34-2.33,5.25-4.36,3.61-6.9-1.36-2.11-5.29-.6-8.08-.61-10.53-.06-21.69,1.94-27.42-10.81-1-2.26-5-3.78-6.33-.18-1.48,4.1-4.61,7.57-5.31,11.55-.94,5.44-3.37,8.36-8.45,9.55-3.81,0-7.63-.24-11.43,0-4.52.23-8.82-.54-12-3.74-3.95-4-8.48-4-13.38-3.16-1.8.31-3.57.78-5.38,1-3.26.37-6.15-.75-7.56-3.68s1.61-4,3.19-5.48c3.87-3.75,4.26-5.91.3-8.93-2.64-2-2.92-3.43,0-6-3.53,0-6.86-2-8.59.93C308.78,99.37,303.73,102,298.92,105.05ZM484.28,67.84c-2.92-2.67-6.34-2.46-9.34-2.78-7-.75-11.59-5.93-9.68-12.4,1.07-3.6-.58-4.17-3.13-4.37a66.66,66.66,0,0,0-7.48,0c-2.48.08-5.23-.41-6.11-2.59-2.09-5.15-6.23-4.63-10.39-4.78-5.38-.19-11.07,1-15.55-3.5-1-1-2-.15-2.9.8-5.52,5.72-12.86,8.38-20.12,10.53-4.37,1.29-7,4.25-10,6.83-2.09,1.77-1.11,3.55,1.27,4.51a13.7,13.7,0,0,0,6.4.69c6.14-.53,12.25-1.34,18.38-1.82,9.67-.77,18.84,1.45,27.69,5.17,1.67.7,3.49,1.71,3.4,3.88s-1.8,3.16-3.52,3.83a19.39,19.39,0,0,1-5.29,1.28c-4.65.41-9.31.56-14,.87-4.88.32-9.36,1.93-12,6.13-3.8,6-9.34,8.18-16,8.54-9.62.52-19.27,1.51-28.83-.57-2.54-.56-4.74-1.6-4.4-5,.79-7.64.51-8.09-7.18-9.33-7.44-1.2-12.08-2.84-10.78-12.63a8,8,0,0,0-.24-2.47c-.45-2.29-1.62-2.88-3.32-1.08-3,3.14-6.59,4-10.76,3.8-3.77-.22-6.57,1.32-7.08,5.4a7.21,7.21,0,0,0,6.28,8.2c2.45.43,5,.51,7.42,1,2.61.48,5.7,2.08,5,4.58-1.37,4.92,1.26,6.24,4.71,8,2.65,1.31,5.58,3.14,6,6.28.5,3.61-3.89,2.76-5.58,4.65,6.75,3,13.22,3.54,21.41,1,13.46-4.26,26.84-6,40.72-1.84,5.5,1.64,10.55-.16,13.86-5.37,2.87-4.52,7.25-6.14,12.36-6.25,3-.06,6.29.76,8.9-.25,8.78-3.4,17.8-4.18,27-3.58,4.47.29,5.88-3.28,4.73-5.53-3.12-6.07,1.41-6.47,4.78-8C482,69.06,483,68.52,484.28,67.84ZM289.07,81.57c-1.17-.2-1.8-.37-2.44-.41-18.07-1.1-36.17-1.89-54.21-3.4-9.76-.82-19.44-2.63-29.3-1.78-5.27.46-10.18,1.86-13.91,5.86-3.43,3.68-2.77,7.35,1.64,9.81,3.1,1.72,6.43,1.26,9.75.94,4.13-.39,8.32-1.08,12.06,1.57,10.05,7.1,20.41,6.59,31.16,1.6,13-6,26.39-10.86,40.83-12.17C286,83.46,287.68,83.6,289.07,81.57ZM455.84,319.35a13.86,13.86,0,0,0,4.62,10.87c6.71,6.65,9.64,6.27,14.43-1.84.83-1.4,1.27-2.64.07-4.07-2.67-3.17-4.77-6.81-8.29-9.26-2.34-1.63-4.57-2.69-7.35-1.15A6.53,6.53,0,0,0,455.84,319.35ZM409.78,17.2c5.21,2.73,10.37,4.45,15.9,4.49,3.68,0,7-1,8.48-4.82,1.24-3.11-.7-6.05-3.48-5.07A107.88,107.88,0,0,1,409.78,17.2Z"/><path class="cls-2" d="M115,45.08c-6.08.64-11.77-1.4-17.62-2.4s-12-1.53-17.22,2.51c-2.57,2-4.86,4.35-4.46,7.87.36,3.23,2.81,4.43,5.79,4.18,4.8-.39,9.59-1,14.38-1.54a19.55,19.55,0,0,1,3.47-.31c3.36.24,7.49-.55,7.74,4.71.18,3.53-3.94,7.26-8.16,6.9-6.11-.52-12.18-1.55-18.27-2.37C76,64,71.32,63.46,66.7,64.34,64,64.85,61.39,66,61,69.14c-.36,2.79,2,4,4,5.11,4.49,2.31,9.19,3.83,14.37,3.21C83.63,77,86.62,78.24,87,83c-2.47-.91-4.84-2.19-7.63-1.75-7.52,1.19-14.58-1.14-21.6-3.13a39,39,0,0,0-17.16-1.44A74.94,74.94,0,0,1,22.76,78c.51-.43,1-.87,1.51-1.28,1.87-1.48,5.4-1.58,5.35-4.57-.05-3.34-3.69-3.84-5.91-5.43a5.73,5.73,0,0,0-1.34-.65c-5.15-1.88-8.08-5.59-9-10.93,5.1,0,10.22.37,15.23-.91,1.59-.41,3.54-.9,3.29-3-.3-2.55-2.41-1.63-3.91-1.43-5.39.68-10.77,1.46-16.15,2.21C12,44.74,5.44,40.14,3.62,33c2.43.48,4,.9,5.64,1.09,4,.46,7.94.86,11.77-.83,2-.9,3.48-2.67,1.24-3.94-3.71-2.1-6.53-4.18-6.12-9,.06-.68-1.19-1.5-1.87-2.22-3.91-4.22-9-4.12-14.17-4v-6c.36.08.83.45.93-.28S.9,6.74.11,7.13v-2c1.44.51,1-.67,1-1.24S1,2.71.11,3.13C.16,1.47-.53-.11,2.62,0,12.1.35,21.6.13,31.1.13a6.88,6.88,0,0,0-.87.3.67.67,0,0,0,.08.47c6.61,7.78,13.73,15,24.41,16.59,5.88.89,11.16-2.6,16.88-3.2,11.38,1.82,22.73,3.39,33-4.11,1.84-1.35,5-2.42,5.65-.49,1.22,3.74,4.47,3.25,6.71,4.76-3.62.39-7.27.65-10.86,1.23-2.1.34-4.88,1.05-4.54,3.67s3.22,1.59,5,1.58c9.31-.07,18.58-4,28-.05,1.31.55,3.24-.36,4.88-.58,2.63-.36,5.26-.77,7.9-1,1.33-.13,3.28,0,3.32,1.45.12,5.16,3.41,3.27,5.84,2.76,5-1.07,9.84-3.28,15.13-2.42,2.06.33,4.77.41,5.08,3.1.26,2.32-2,3.53-3.81,4-5.64,1.56-10.76,4.32-16.13,6.51-10.61-.51-19.94,4.06-29.56,7.47Z"/><path class="cls-3" d="M412.63,313.64c1.8,1.09,3.82,1,5.82,1,2.84,0,5.24.86,6.84,3.34,2.41,3.77,6.12,4.86,10.29,5.08,4.83.27,9.65.64,14.14,2.65,2.14,1,4.44,2,4.39,4.85,0,2.52-2.1,3.64-4.07,4.6-6.48,3.14-13.41,3.88-20.45,3.41-7.64-.5-15.26-1.3-22.87-2a24.07,24.07,0,0,0-8.91.65c-1.45.4-2.91,1.06-3.13,2.82s.93,2.78,2.18,3.67c2.71,1.91,5.93,2.05,9.05,2.47,4.75.63,9,1.29,9.93,7.59.54,3.59,4.72,3.65,7.89,3.84,2.55.16,5.12,0,9.1,0-9.43,5.81-18,9.69-27.93,9.95-11.14.28-22.31-.67-33.4,1a31,31,0,0,0-10,2.82c-1.31.7-3.39,1.07-2.52,3.46h-16c2-7.09,1.82-7.56-5.13-9.75-6.64-2.1-13.31-4.06-20-6.09.29-.16.84-.36.82-.47-1.09-6.9,3.44-9.47,8.75-11.51,1.37-.53,3-1.18,1.5-3.17.69-2.76-1.78-3.66-3.1-5.22-3.62-4.28-2.22-8.08,3.11-9.64,8.64-2.53,17.43-1.81,26.21-1.86,4.32,0,8.66,0,13-.36,8.16-.62,15.08-3.78,18.11-11.85,3.37-8.94,10.16-11.13,18.6-11C408.69,306.17,408.82,311.39,412.63,313.64Z"/><path class="cls-2" d="M.11,339.91l.18.47c7.58-7.64,15.69-2.13,23.59-.89,5.74.91,11.12,1,15.84-3.33,2.47-2.25,2.72-4.75,2.18-7.62-2.18-11.65-6.29-22.44-14.36-31.38-2.18-2.41-.88-3,1.47-3.19a31.24,31.24,0,0,1,17.32,3.58c2.36,1.22,4.6,2.67,6.87,4.05,4.63,2.81,9.52,4.17,14.59,1.59,6.85-3.5,13.59-2.29,20.16.3,8.4,3.32,16.61,1.16,24.22-1.55A52.46,52.46,0,0,1,125,298.8c8.32-.8,16.61-1.74,22.82-8.39,2.55-2.73,4.58-5.69,5.28-9.43,6.58,3.24,13.1,2.3,19.68-.14a12.31,12.31,0,0,1,4.87-.6c2.29.14,4.39,1.19,4.57,3.73.2,2.72-2.23,2.85-4.16,3.25-1.13.24-2.28.39-3.42.58-4,.65-5.45,2.57-3.21,6.36-2.43.76-5,1.29-6.47,3.72-.67,2.58-2.12,2.62-4.46,1.91-4.36-1.34-9.16-2.2-12.67,1.46-4.79,5-10.27,5.45-16.45,4.13a74.12,74.12,0,0,0-7.85-1.25c-7.39-.76-9.43,1.1-9.69,8.63-3.6,2.05-7.56,1.62-11.1.58-5.9-1.73-11.78-1.69-17.73-1.25a14.75,14.75,0,0,0-5.13,1.72c-3,1.49-5.32,4-4.77,7.42s4,3.62,6.77,3.81c5.64.38,11.29.43,16.93.8,2.11.14,4.83.48,4.85,3.21,0,2.38-2.56,2.66-4.47,3.19-6.76,1.9-13.77,1.87-20.68,2.58-2.64.26-5.29.5-7.93.85-4.66.61-8.09,3-8.05,7.91.07,7.18-3.73,10.9-9.89,13.17a15.63,15.63,0,0,0-2.91,1.87c-3.23.83-6.63-.32-9.82.88h-1.6a84.08,84.08,0,0,0-28.57.37c-1.6.33-3.45.95-3.72,2.82-.3,2.17,1.77,2.52,3.25,3.12,2.29.93,4.66,1.68,7,2.62,3.62,1.5,7.67,2.2,10.27,5.57l-.35.88h-24c-.64-.69-.16-2.51-2-2v-19c3.93-.32,6-1.69,6.09-4,.06-2.49-3.37-5.88-6.09-6Z"/><path class="cls-3" d="M156.7,34.71c5.37-2.19,10.49-4.95,16.13-6.51,1.84-.51,4.07-1.72,3.81-4-.31-2.69-3-2.77-5.08-3.1-5.29-.86-10.12,1.35-15.13,2.42-2.43.51-5.72,2.4-5.84-2.76,0-1.46-2-1.58-3.32-1.45-2.64.26-5.27.67-7.9,1-1.64.22-3.57,1.13-4.88.58-9.4-3.95-18.67,0-28,.05-1.78,0-4.65,1.14-5-1.58S104,16,106.05,15.68c3.59-.58,7.24-.84,10.86-1.23,8.09,2.22,16.25,2.91,24.37.33,2.07-.65,4.95-.95,5.44-3.66s-1.81-4.21-3.65-5.46a11.11,11.11,0,0,1-4-5.53h29c-.19.67.19.85.72.72.14,0,.19-.47.28-.72h6c.71,5.35,2.41,10.18,7.58,12.82,1.74.89,4,1.69,5.46-.35,1.32-1.82-.06-3.45-1.16-4.92-1.72-2.3-4.36-4.12-3.89-7.55h59a3.68,3.68,0,0,1,.45.21,1.79,1.79,0,0,1,.28.27c-4.56,4.22-10.14,5.83-16.17,6.25-4.39.3-9.28-1-12.86,2.34a81.6,81.6,0,0,1-9,6.93c-1.37.95-2.74,1.92-2.69,3.87-4-.74-5.83,2-7.18,4.82s-3.08,3.43-5.93,3.2a44.28,44.28,0,0,0-11.94.49c-2.14.41-4.5.81-4.8,3.53-.26,2.4,1.59,3.46,3.45,4.36,2.52,1.23,5,2.52,7.87,2.91,4.36.57,8,3.13,11.86,5.08,8.4,4.26,13.56,3.42,20.25-3.14a36.59,36.59,0,0,1,5.19-4.63c3.87-2.54,7.12-1.84,9.72,2a16.93,16.93,0,0,0,9.07,6.64c2.84,1,5.71,1.83,8.46,3,2.44,1,5.23,2.26,5.45,5.29.24,3.33-2.67,4.79-5.11,6.15a38.27,38.27,0,0,1-14.71,4.48c-17.41,2-34.23-1.19-50.58-6.66-16.57-5.55-33.2-8.24-50.57-4.92a61.15,61.15,0,0,1-15.94.44c-2.1-.15-4.76,0-5.57-2.48-.85-2.58,1.91-3.05,3.37-4.23.32-.26.39-.85.57-1.28l12.18-2.9c7.9,2.13,15.51.47,22.92-2.15C152.72,39.09,155.74,38,156.7,34.71Z"/><path class="cls-3" d="M499.87,216c-1.49,1.07-.92,2.71-1.15,4.13-1.14,7.27-5.9,10.77-14.83,10.88a41.26,41.26,0,0,1-14.68-7.17c-5.2-4.05-10.8-6.33-17.58-5.14a16.93,16.93,0,0,1-6.4-.4c-3.52-.79-4.26-2.48-1.67-5.54,4.94-5.85,3.84-9.48-3.46-12-5.69-2-11.69-2.41-17.61-3.2-13.9-1.84-26.83-.75-36.93,10.81-3,3.43-8.2,5.33-11.74,2.77-5.64-4.08-10.89-3.77-16.88-2.2a28.32,28.32,0,0,1-7.44.42c-2.29,0-4.3-.74-4.63-3.51l.05.24V205l3.7-4a16.56,16.56,0,0,0,11.23-5.41c1.14-1.28,3.38-2.25,2.68-4.35-.77-2.28-3.1-2.9-5.27-3-5.1-.17-10.21-.13-15.31-.17-3.13-1.05-6.15-2.4-5.85-6.38s3.53-5,6.65-5.74c3.87-1,7.83-1.52,11.73-2.37,1.58-.35,3.7-.37,4.24-2.14.64-2.09-2.34-2-3-4,3.64-1.35,6.71-1.51,10.52.68a137.56,137.56,0,0,0,29.08,13c1.53.46,3.37,2.17,4.78-.33,4.31,4,9.72,2.92,14.59,2.48a47.44,47.44,0,0,1,23.72,3.59c2.1.9,4.38,1.4,6.57,2.09l-.19,0,2.25,1.09a271.31,271.31,0,0,0,29.59,2.56c7.46.35,13.25,6.07,20.66,6.9,1.6.18,1.32,2,1.49,3.33.31,2.4-.77,5,1.05,7.18Z"/><path class="cls-2" d="M202,20c-.05-1.95,1.32-2.92,2.69-3.87a81.6,81.6,0,0,0,9-6.93c3.58-3.3,8.47-2,12.86-2.34,6-.42,11.61-2,16.17-6.25a1.79,1.79,0,0,0-.28-.27A3.68,3.68,0,0,0,242,.13h46c-.08.36-.46.84.29.93s1.1-.14.71-.93h3c2,1.76,4,1.91,6,0h5c-.4,3.15-2.2,4.43-5.31,5.23a25,25,0,0,1-6.27.7c-7.4.07-14.88-.88-22,2.18-3.52,1.51-5.44,4.16-4.5,7.8.81,3.16,2.54,6.51,6.66,6,9-1.09,17.36.19,25.2,5.25,5.95,3.84,12.81,4.63,18.84.55a33.67,33.67,0,0,1,26.94-5.44c6.3,1.29,11.42-.91,15.19-6.16,2.39.61,5-.63,7.29.69,1.93,5-1.9,7.67-4.77,10.32-4.09,3.78-9.6,5.25-14.78,6.62a213.55,213.55,0,0,0-32,11c-3.74,1.66-7.3,2.28-11.28.59-9.94-4.2-20.48-5.2-31.15-5.37-2.29,0-4.67-.07-6.79-1.28,4.14-7,3.91-7.52-4.29-10-3.62-1.08-6.48-2.92-7.31-7C251.66,17,245,11.2,240,11.08c-4.32-.1-8.66,0-13,.3-3.8.29-7.11,1.24-9.62,4.93C213.62,21.82,207.7,21,202,20Z"/><path class="cls-3" d="M22.76,78a74.94,74.94,0,0,0,17.82-1.29,39,39,0,0,1,17.16,1.44c7,2,14.08,4.32,21.6,3.13,2.79-.44,5.16.84,7.63,1.75,4.08,9.44,11.88,14.6,21,18.35,1.94.8,4.12,1.44,5.11,3.66-.38,3.2-3.11,4.57-5.19,6.35-2.46,2.12-4.56,4.43-5.18,7.66-.9,4.71-3.74,7.15-8.36,7.75a18.72,18.72,0,0,1-8.38-4c-1.31-3.34-3.5-5.53-7.3-5.67l-9.45,0c-2.13-.31-4.29-.5-6.39-.94-6-1.23-7.34-4-4.5-9.26,1.24-2.29,1.19-4.32-1.22-5.46C50,98.1,43.23,94,34.68,98.79c-6,3.38-8.43,1.45-9.77-5.36,1.82-.09,3.65-.11,5.47-.27s3.78-.58,4.5-2.56c.82-2.26-.65-3.79-2.22-5.11-3.33-2.83-7.31-3.28-11.32-2.4A29.11,29.11,0,0,1,3.75,81.45C2.67,81,1.45,79.88.11,81.08v-10c5.65-1.24,10.28,1.13,15,3.89C17.41,76.36,20.18,77,22.76,78Z"/><path class="cls-2" d="M328.92,343.9c1.48,2-.13,2.64-1.5,3.17-5.31,2-9.84,4.61-8.75,11.51,0,.11-.53.31-.82.47a37.56,37.56,0,0,0-3.93-.46,11.71,11.71,0,0,0-10.09,5.33c-2.29,3.18-.49,5.47,1.62,7.81,1.76,2-1,2.08-1.49,3.16H257c.18-.69-.27-.76-.73-.66-.13,0-.18.43-.27.66h-9c1.08-5.47-.25-7.44-5.67-7.26-5.14.17-10.25,1.17-15.39,1.44-4.54.25-8.28-1.17-9.16-6.4,1.54-1.28,3.51-.62,5.21-1.18l7,.1,1.92.07,1.11.07c5.62.36,11.21,1.23,16.79-.67,3.34-1.14,4.8-2.71,3-6.16-.53-1-.84-2.17-1.29-3.24-3.05-7.24-1.26-10.26,6.69-9.28a60.38,60.38,0,0,0,32.53-5c1.61-.71,4-3.19,5.57-.18a5.63,5.63,0,0,1-1.42,7.24,11.9,11.9,0,0,0-4.25,9.15c-.22,4.29,1.72,6,5.77,6.29,5.94.37,9.4-1.36,9.18-5.7-.29-5.57,2.77-7.06,7.19-7.22,5.28-.2,10.63.31,15.18-3.29C327.35,343.39,328.26,343.81,328.92,343.9Z"/><path class="cls-3" d="M.11,234c3.17-1.26,6.45-1.17,9.75-.79a5.25,5.25,0,0,1,4.56,3.28c4.42,9.53,14.86,13.21,24.2,8.35,4.49-2.33,8.92-2.26,13.55-1.21,1.27.29,2.75.71,2.83,2.37s-1.47,2.09-2.7,2.44c-2.24.65-4.54,1.06-6.79,1.66a8.46,8.46,0,0,0-5.33,3.43C38.4,256.38,39.62,259,43,259a29.91,29.91,0,0,0,7.83-1.3c5.77-1.67,11-.8,15.32,3.33,5.69,5.4,12.13,7,19.78,5.39,3.52-.73,8.12-1.91,9.14,3.76.64,3.55-2.84,6.32-8.26,6.78a61.65,61.65,0,0,1-26.53-3.6c-9.54-3.48-18.77-3.87-28.07.68-6.14,3-11.71,1.42-16.54-3-2.71-2.48-5.59-4.71-8.4-7C5,262.13,2.92,261.16.11,262Z"/><path class="cls-1" d="M357.72,16.26c-3.77,5.25-8.89,7.45-15.19,6.16a33.67,33.67,0,0,0-26.94,5.44c-6,4.08-12.89,3.29-18.84-.55-7.84-5.06-16.16-6.34-25.2-5.25-4.12.49-5.85-2.86-6.66-6-.94-3.64,1-6.29,4.5-7.8,7.11-3.06,14.59-2.11,22-2.18a25,25,0,0,0,6.27-.7c3.11-.8,4.91-2.08,5.31-5.23h34c-.06,2.29-2,1.79-3.25,2C327.52,3.32,321.41,4.91,315.05,5c-1.57,0-3.81-.2-3.87,2.07-.09,2.72,2.39,2.26,4.08,2.32,2.81.1,5.64,0,8.45-.09,9.9-.44,19.58.07,28.24,5.76A10.47,10.47,0,0,0,357.72,16.26Z"/><path class="cls-2" d="M24.91,93.43c1.34,6.81,3.8,8.74,9.77,5.36C43.23,94,50,98.1,57.07,101.47c2.41,1.14,2.46,3.17,1.22,5.46-2.84,5.26-1.49,8,4.5,9.26,2.1.44,4.26.63,6.39.94-4.5,3.77-9.15,5.17-14.94,2.39-5.51-2.66-11.71-2.57-17.58-1.58-6.18,1-11.73-.64-17.43-2.24a6.14,6.14,0,0,0-5.4-.16l-1.63.12A5.56,5.56,0,0,0,8,109.29,59.64,59.64,0,0,0,1.29,108c-.36-.66.62-2.14-1.18-1.92v-2c.37.08.84.46.94-.28s-.15-1.1-.94-.72v-4c2.58-1.2,5.36-1,8.08-1.17s6.59-.19,7.62-2.58C18.25,89.67,21.47,92,24.91,93.43Z"/><path class="cls-1" d="M139,.13a11.11,11.11,0,0,0,4,5.53c1.84,1.25,4.11,2.83,3.65,5.46s-3.37,3-5.44,3.66c-8.12,2.58-16.28,1.89-24.37-.33-2.24-1.51-5.49-1-6.71-4.76-.63-1.93-3.81-.86-5.65.49C94.33,17.68,83,16.11,71.6,14.29c5.71-3.06,12-1.8,18-2.2,3.81-.26,7.68-.1,11.08-2.26,1.65-1.06,3-2.46,1.88-4.52s-2.9-1.62-4.65-.54c-4.13,2.52-8.12,2.34-12-.62C84.1,2.83,82,2.43,79.81,2c-1.07-.2-2.94.31-2.74-1.89Z"/><path class="cls-2" d="M472.88,374.89c.12-2.43.6-4.89-1.3-7-1.2-1.33-.35-2,.78-3.14,4.47-4.39,3.6-9-2.05-11.87a19.36,19.36,0,0,0-9.65-2c-.89,0-2.08.7-2.55-.61a2.54,2.54,0,0,1,.9-2.68,5.3,5.3,0,0,1,2-1.41c5.41-1.49,10.78-3.22,16.29-4.19,4.18-.73,7.48,1.08,10,4.94,2.83,4.29,6.21,8.52,12.53,7v2c-2.18,4.68.09,9.76-1.48,15.06-5.24-3.28-11-2.52-16.68-2.07-3.41.27-6.54,1.43-5.83,6Z"/><path class="cls-3" d="M77.07.13c-.2,2.2,1.67,1.69,2.74,1.89,2.14.41,4.29.81,6,2.13,3.92,3,7.91,3.14,12,.62,1.75-1.08,3.48-1.64,4.65.54s-.23,3.46-1.88,4.52c-3.4,2.16-7.27,2-11.08,2.26-6,.4-12.27-.86-18,2.2-5.72.6-11,4.09-16.88,3.2C44,15.86,36.92,8.68,30.31.9a.67.67,0,0,1-.08-.47,6.88,6.88,0,0,1,.87-.3h13c-.87.85-.24,1.53.37,2A21.73,21.73,0,0,0,61.17,6.66c4.64-.58,9.67-2.25,12.91-6.53Z"/><path class="cls-3" d="M499.87,256c-.37,6.34-3.46,7.9-9.77,7.28s-7.77,3-5.11,9c1.57,3.57-1.2,6.4-3.2,8.78a5.62,5.62,0,0,1-7.31,1c-6.49-3.83-7.21-8.6-1.16-12.87,7.15-5.05,10.18-11.76,11.6-20,1.75-10.15,6.58-14.66,14.95-15.2v2a15.1,15.1,0,0,0,0,12Z"/><path class="cls-1" d="M304,374.89c.46-1.08,3.25-1.19,1.49-3.16-2.11-2.34-3.91-4.63-1.62-7.81a11.71,11.71,0,0,1,10.09-5.33,37.56,37.56,0,0,1,3.93.46c6.65,2,13.32,4,20,6.09,6.95,2.19,7.15,2.66,5.13,9.75Z"/><path class="cls-3" d="M216.77,362.67c.88,5.23,4.62,6.65,9.16,6.4,5.14-.27,10.25-1.27,15.39-1.44,5.42-.18,6.75,1.79,5.67,7.26H184c1.18-2.62,3.64-2.43,5.87-2.63,3.1-.29,5.4-1.42,5.87-4.87a4,4,0,0,1,.84-2.21C200.76,361.12,211.06,359.89,216.77,362.67Z"/><path class="cls-3" d="M357.72,16.26A10.47,10.47,0,0,1,352,15c-8.66-5.69-18.34-6.2-28.24-5.76-2.81.13-5.64.19-8.45.09-1.69-.06-4.17.4-4.08-2.32.06-2.27,2.3-2.07,3.87-2.07,6.36,0,12.47-1.63,18.65-2.79,1.25-.24,3.19.26,3.25-2h19c-1.91,4.43-.11,6.33,4.38,6.53,5,.21,9.68,1.43,13.4,5.45-2.8,2.3-6.86,1.61-8.71,4.84C362.68,15.63,360.11,16.87,357.72,16.26Z"/><path class="cls-1" d="M.11,14.12c5.14-.12,10.26-.22,14.17,4,.68.72,1.93,1.54,1.87,2.22-.41,4.78,2.41,6.86,6.12,9,2.24,1.27.8,3-1.24,3.94-3.83,1.69-7.8,1.29-11.77.83-1.62-.19-3.21-.61-5.64-1.09C5.44,40.14,12,44.74,11.79,52L.11,52.1Z"/><path class="cls-3" d="M499.87,120.05c-8.64,1.88-17.41,2-26.19,1.88-7.65-.07-12.61-2.07-12.1-5.27,1-6.16,6.88-5.35,11.06-6.3,8.93-2,18.17-1.26,27.23-2.3Z"/><path class="cls-1" d="M24.91,93.43c-3.44-1.46-6.66-3.76-9.1,1.89-1,2.39-4.82,2.37-7.62,2.58s-5.5,0-8.08,1.17v-3c-.28-2.57,2.4-.74,3-2,3.48.09,6.21-1.61,8.94-3.3C8.27,90,5.67,92,3.11,94.07c-1,0-2,1.45-3,0v-13c1.34-1.2,2.56-.06,3.64.37a29.11,29.11,0,0,0,17.59,1.64c4-.88,8-.43,11.32,2.4,1.57,1.32,3,2.85,2.22,5.11-.72,2-2.63,2.4-4.5,2.56S26.73,93.34,24.91,93.43Z"/><path class="cls-3" d="M26.45,374c-2.6-3.37-6.65-4.07-10.27-5.57-2.29-.94-4.66-1.69-6.95-2.62-1.48-.6-3.55-.95-3.25-3.12.27-1.87,2.12-2.49,3.72-2.82a84.08,84.08,0,0,1,28.57-.37c-5.3,3.56-5.38,5-.35,10.39,1.57,1.71,3.68,3.19.17,5h-6c-.34-.81-.67-.91-1,0h-3Z"/><path class="cls-1" d="M22.76,78c-2.58-1-5.35-1.65-7.7-3-4.67-2.76-9.3-5.13-14.95-3.89v-13a4,4,0,0,0,5.3.67c2.52-1.41,5.27-2.42,7.92-3.61,1,5.34,3.89,9.05,9,10.93a5.73,5.73,0,0,1,1.34.65c2.22,1.59,5.86,2.09,5.91,5.43.05,3-3.48,3.09-5.35,4.57C23.75,77.14,23.27,77.58,22.76,78Z"/><path class="cls-3" d="M13.33,55.15c-2.65,1.19-5.4,2.2-7.92,3.61a4,4,0,0,1-5.3-.67v-6L11.79,52c5.38-.75,10.76-1.53,16.15-2.21,1.5-.2,3.61-1.12,3.91,1.43.25,2.11-1.7,2.6-3.29,3C23.55,55.52,18.43,55.17,13.33,55.15Z"/><path class="cls-1" d="M475.88,374.89c-.71-4.57,2.42-5.73,5.83-6,5.67-.45,11.44-1.21,16.68,2.07,1.57-5.3-.7-10.38,1.48-15.06,0,5.5-.14,11,.06,16.49.08,2.16-.41,2.62-2.56,2.56C490.21,374.78,483,374.89,475.88,374.89Z"/><path class="cls-1" d="M74.08.13c-3.24,4.28-8.27,6-12.91,6.53A21.73,21.73,0,0,1,44.46,2.15c-.61-.49-1.24-1.17-.37-2Z"/><path class="cls-3" d="M.11,183c6.54-2.93,12.11-.75,17.33,3.26L17,191c-6,1-11-3-16.85-3Z"/><path class="cls-3" d="M1.29,108A59.64,59.64,0,0,1,8,109.29a5.56,5.56,0,0,1,4.21,6.37c-1.73,3.62-7.28,4.72-12.09,2.39v-8C1.54,110,1.05,108.76,1.29,108Z"/><path class="cls-1" d="M183,.13c-.47,3.43,2.17,5.25,3.89,7.55,1.1,1.47,2.48,3.1,1.16,4.92-1.49,2-3.72,1.24-5.46.35-5.17-2.64-6.87-7.47-7.58-12.82Z"/><path class="cls-3" d="M499.87,80.08,492.1,79c-1.23-.18-2.86.46-3.48-1.1s.38-2.83,1.26-4c2.6-3.53,6.53-2.32,10-2.8Z"/><path class="cls-3" d="M144,374.89c4.58-5.66,5.59-5.95,12.33-3.25a22.53,22.53,0,0,0,9.31,1.21c2.38-.08,4.6.2,6.35,2Z"/><path class="cls-3" d="M.11,198c.78,2.13,2.59.41,3.84,1,2.25,1.1,6.32,1.2,5.1,4.61-.94,2.64-3.55,5.78-7.75,4.09-.31-.13-.79.17-1.19.28Z"/><path class="cls-1" d="M.11,343.91c2.72.14,6.15,3.53,6.09,6-.06,2.28-2.16,3.65-6.09,4Z"/><path class="cls-3" d="M499.87,57.09c-2.95-.19-4.67-2.09-6.31-4.59,2.39-1.7,4.32-.21,6.31.6v2c-1,.34-.84.67,0,1Z"/><path class="cls-3" d="M499.87,187a8.87,8.87,0,0,0-1.54-1c-1.56-.62-3.17-1.19-3.84-2.89-.3-.77.43-1.16,1.06-1.43,2.41-1,3.06,1.22,4.32,2.33Z"/><path class="cls-1" d="M499.87,248a15.1,15.1,0,0,1,0-12Z"/><path class="cls-1" d="M298,.13c-2,1.91-4,1.76-6,0Z"/><path class="cls-3" d="M3.1,94.06c-.59,1.27-3.27-.56-3,2v-2c1,1.45,2,0,3,0Z"/><path class="cls-1" d="M1.29,108c-.24.78.25,2-1.18,2.08v-4C1.91,105.84.93,107.32,1.29,108Z"/><path class="cls-1" d="M.11,372.89c1.84-.51,1.36,1.31,2,2Q-.48,375.49.11,372.89Z"/><path class="cls-1" d="M.11,3.13c.84-.42,1.09.08,1,.76s.42,1.75-1,1.24Z"/><path class="cls-1" d="M26.45,374l1.65.88h-2Z"/><path class="cls-1" d="M.11,103.06c.79-.38,1,0,.94.72s-.57.36-.94.28Z"/><path class="cls-1" d="M499.87,56.09c-.84-.33-1-.66,0-1Z"/><path class="cls-1" d="M.11,7.13c.79-.39,1,0,.93.71s-.57.36-.93.28Z"/><path class="cls-1" d="M289,.13c.39.79,0,1-.71.93s-.37-.57-.29-.93Z"/><path class="cls-1" d="M169,.13c-.09.25-.14.69-.28.72-.53.13-.91,0-.72-.72Z"/><path class="cls-1" d="M31.1,374.89c.33-.91.66-.81,1,0Z"/><path class="cls-1" d="M256,374.89c.09-.23.14-.63.27-.66.46-.1.91,0,.73.66Z"/><path class="cls-3" d="M113.8,312.76c.26-7.53,2.3-9.39,9.69-8.63a74.12,74.12,0,0,1,7.85,1.25c6.18,1.32,11.66.86,16.45-4.13,3.51-3.66,8.31-2.8,12.67-1.46,2.34.71,3.79.67,4.46-1.91.18.8.11,1.84.59,2.37,2.81,3.06,6.41,1.71,9.76,1.42,1.31-.11,2.82-.91,2.31-2.56-.9-2.94-3.16-4.5-6.19-4.95-2.24-3.79-.79-5.71,3.21-6.36,1.14-.19,2.29-.34,3.42-.58,1.93-.4,4.36-.53,4.16-3.25-.18-2.54-2.28-3.59-4.57-3.73a12.31,12.31,0,0,0-4.87.6c-6.58,2.44-13.1,3.38-19.68.14-1.58-.49-3.18-1.5-4.72-1.4-5.45.36-10.53,1.16-15.78-2.43-3.39-2.33-8.36,1-9.36,5.51-.72,3.2-2.14,4.1-5.17,3.67-4.44-.62-9-.87-13.37-1.58-2.49-.4-6.21-.43-6-3.85.19-3,3.75-2.77,6.12-2.94,5.47-.4,11-.49,16.45-.8,2.86-.16,4.76-.71,4.7-4.71-.06-4.41,4.22-5.12,7.42-4.34,5,1.22,9.37-.25,13.28-2.67A30,30,0,0,1,163.73,261c2.66.07,5.35,0,7.81-1.25,1-.5,2.44-.89,2.31-2.29-.15-1.57-1.69-1.33-2.78-1.44-8.59-.91-17.13-2.27-25.84-2.12-18,.3-35.94.33-53.91.38a97.66,97.66,0,0,1-10.94-.69c-1.81-.2-3.69-.91-4.23-3s.91-3.43,2.31-4.63c3.71-3.16,8.3-4.09,12.9-4.91,6.59-1.17,13.25-1.19,19.91-1.11,7.16.09,12.79-2,14.82-9.75a5.68,5.68,0,0,1,2.69-3.47c3.64-2.16,7.48-3.55,11-6.49,3.3-2.73,10.67-3.57,16.12-1.36a25.38,25.38,0,0,0,17.43,1.17c8.28-2.38,16.49.37,24.64,1.88,3.75.7,7.44,1.86,11.33,1.38,3.39,1.88,6.88,1.3,10.05-.24a34.46,34.46,0,0,1,28.48-1.2c5.89,2.23,11.74,4.75,18,5.65,2,.28,4.7,1.27,5.89-1.05,1-1.95-1.58-3-2.56-4.41-.46-.68-.86-1.41-1.29-2.11.14-3.6,2.57-4.86,5.61-5.12,7.74-.67,15.26.06,22,4.42,4.88,3.16,9.79,6.11,15.5,7.67,6.06,1.66,9.16,5.32,8.69,9.36-.46,3.85-5.3,8.2-10.48,8.54-5.44.35-10.92,0-16.39-.06-2.14,0-4.28.13-6.43.2-1.7-.4-3.19.31-4.72.86-2.21.78-5.28.88-4.68,4.38.54,3.22,2.44,5.26,6.07,4.93l-16,2.87c-4.7-.38-9.55-3.6-14,.72-11.48-4.88-21.5-.47-31.08,5.28-6,3.61-11.78,7.27-19,8.14-4.35.53-5.32,3.31-3.16,7.26.73,1.31,2,2.53.94,4.06-2.68,3.85-1.29,7.26,1,10.55a13.29,13.29,0,0,0,10.62,5.68,43.85,43.85,0,0,0,5-.15c4.52-.26,8.25.64,11.32,4.68,2.76,3.64,7.43,4.81,11.77,6.1,4.76,1.42,10.44,2.29,11.33,8.29.92,6.25-4.34,9-8.78,11.48-15.07,8.5-30.18,7.56-44.45-1.57-10.33-6.61-21.15-11-33.35-12.26a97.87,97.87,0,0,0-25.35,1.19c-5.58.88-11.2,1.72-16.89,1.09C119,318.1,115.53,316.82,113.8,312.76Z"/><path class="cls-2" d="M149.05,155.22c-3.15-3.92-2.28-6.71,2.67-7.36,3.6-.46,7.31,0,11-.13,4.25-.16,10.38.21,10.7-4.62.28-4.42-5.87-5-9.87-5.64a59.57,59.57,0,0,0-9.46-.34c-4.71,0-9.42-.5-13.64-2.57-6.55-3.22-13.18-4.36-20.29-2.47a23,23,0,0,1-3.89.3,13.61,13.61,0,0,1,6.11-9.89,24.3,24.3,0,0,0,8.57-9.55c1.65-3.49,4.23-4.43,7.72-3.79,2.12.39,4.21,1,6.33,1.28,5.59.86,10.81,2.69,16.83-.25,4-2,9.56-.72,14.2.75,10.55,3.35,21.37,4.26,32.34,4.5,8.29.18,16.49.82,24.58,3.2,4.89,1.43,10.19.28,15.24-.74,1.15,5,5.41,6.87,9.37,8.84,5.83,2.91,12.14,4.5,18.41,6.18,5.24,1.4,9.33,4.25,11.48,9.44-5.07,9.41-13.37,14.12-23.51,16.06A61.09,61.09,0,0,1,257,159l-10-.77c-8.33-1.09-15.58-5.26-23.28-8.15-6.75-2.53-13.33-5.66-20.59-6.57a17.17,17.17,0,0,0-13.19,3.22c-2.67,2-2.3,3.36-.1,5.42,4.28,4,9.78,4.65,15.06,6s10.85,1.68,15.63,4.65c1.79,1.11,4.4,2.17,3.62,4.71-.71,2.29-3.39,1.44-5.3,1.65-.82.09-1.67,0-2.49.08-3.27.42-7,.59-7.48,4.82-.33,3,6.11,6.55,9.69,5.58,6.57-1.78,13-4.19,19.77-5.17,3-.43,5.95-.81,8.87.32a3.45,3.45,0,0,1,2.44,2.9,2.23,2.23,0,0,1-2.07,2.43c-15.05,1.69-28.45,10.83-44.56,8.63-12-1.64-23.64-3.49-34.16-9.87-7.14-4.33-14.79-6.74-23.27-6-3,.27-5.45.21-3.68-4.19,1.24-3.07-.39-4.59-3.77-4.47a63.57,63.57,0,0,1-9.46-.31c-1.1-.13-3-.33-3.13-1.91s1.68-1.8,2.86-2.22c2.89-1,5.93-.56,8.91-.66,4.33-.13,8.44-.85,11.78-3.93a.9.9,0,0,1-.18-.31s.12-.11.19-.17Z"/><path class="cls-2" d="M344.87,205.86c.33,2.77,2.34,3.47,4.63,3.51a28.32,28.32,0,0,0,7.44-.42c6-1.57,11.24-1.88,16.88,2.2,3.54,2.56,8.74.66,11.74-2.77,10.1-11.56,23-12.65,36.93-10.81,5.92.79,11.92,1.25,17.61,3.2,7.3,2.5,8.4,6.13,3.46,12-2.59,3.06-1.85,4.75,1.67,5.54a16.93,16.93,0,0,0,6.4.4c6.78-1.19,12.38,1.09,17.58,5.14A41.26,41.26,0,0,0,483.89,231c0,2.64-.13,5.31.14,7.94.44,4.34-1.45,6.93-5.44,8.35-5.42,1.93-11,2.27-16.71,2.4-5.9.12-12.1-.22-15.08,6.66a2.17,2.17,0,0,1-2.33,1.55c-8-1.61-16.41,3.58-24.22-2.19-3-2.23-7.4-1.78-11.22-1.44-13.31,1.18-25.3-2.12-36.41-9.57-6.5-4.36-13.7-7.4-21.78-7.55-.76,0-1.75.36-2.07-.77-.28-.95.4-1.55,1-2.11,2.61-2.42,6-3.54,9-5.28,2.52-1.44,6.69-2.08,6.63-5.23-.05-2.53-4.19-2.55-6.51-3.62a44.81,44.81,0,0,0-22.2-4.43,23.3,23.3,0,0,1-10.81-1.32c-1.41-.59-2.72-1.6-2.61-3.32.12-1.93,1.86-2.1,3.31-2.4a8,8,0,0,1,2.48-.21C334.57,209,339.89,208.48,344.87,205.86Z"/><path class="cls-2" d="M484.28,67.84c-1.32.68-2.3,1.22-3.32,1.69-3.37,1.58-7.9,2-4.78,8,1.15,2.25-.26,5.82-4.73,5.53-9.21-.6-18.23.18-27,3.58-2.61,1-5.92.19-8.9.25-5.11.11-9.49,1.73-12.36,6.25-3.31,5.21-8.36,7-13.86,5.37-13.88-4.14-27.26-2.42-40.72,1.84-8.19,2.58-14.66,2-21.41-1,1.69-1.89,6.08-1,5.58-4.65-.43-3.14-3.36-5-6-6.28-3.45-1.71-6.08-3-4.71-8,.69-2.5-2.4-4.1-5-4.58-2.45-.45-5-.53-7.42-1a7.21,7.21,0,0,1-6.28-8.2c.51-4.08,3.31-5.62,7.08-5.4,4.17.23,7.8-.66,10.76-3.8,1.7-1.8,2.87-1.21,3.32,1.08a8,8,0,0,1,.24,2.47c-1.3,9.79,3.34,11.43,10.78,12.63,7.69,1.24,8,1.69,7.18,9.33-.34,3.37,1.86,4.41,4.4,5,9.56,2.08,19.21,1.09,28.83.57,6.62-.36,12.16-2.55,16-8.54,2.67-4.2,7.15-5.81,12-6.13,4.65-.31,9.31-.46,14-.87a19.39,19.39,0,0,0,5.29-1.28c1.72-.67,3.43-1.76,3.52-3.83s-1.73-3.18-3.4-3.88c-8.85-3.72-18-5.94-27.69-5.17-6.13.48-12.24,1.29-18.38,1.82a13.7,13.7,0,0,1-6.4-.69c-2.38-1-3.36-2.74-1.27-4.51,3.07-2.58,5.66-5.54,10-6.83,7.26-2.15,14.6-4.81,20.12-10.53.92-.95,1.93-1.77,2.9-.8,4.48,4.51,10.17,3.31,15.55,3.5,4.16.15,8.3-.37,10.39,4.78.88,2.18,3.63,2.67,6.11,2.59a66.66,66.66,0,0,1,7.48,0c2.55.2,4.2.77,3.13,4.37-1.91,6.47,2.69,11.65,9.68,12.4C477.94,65.38,481.36,65.17,484.28,67.84Z"/><path class="cls-3" d="M287.41,142.36c-2.15-5.19-6.24-8-11.48-9.44-6.27-1.68-12.58-3.27-18.41-6.18-4-2-8.22-3.81-9.37-8.84l.38.11c6.3,2,14-1.12,16.35-6.6a2.56,2.56,0,0,0,1-.24c10-7.74,21.31-8.11,33.08-6.12a9.93,9.93,0,0,1,2.89.66c2.48,1.41,6.41,1.8,6.07,5.67-.29,3.43-3.56,4.59-6.45,5.46-2.38.72-4.92.91-7.31,1.6-2,.57-5,.68-4.88,3.37.1,2.93,3.13,3.11,5.38,3.36,4.3.47,8.62.7,12.95.93a17.26,17.26,0,0,1,10.87,4.41c7.28,6.37,25.39,7,33.21,1.07a58.36,58.36,0,0,1,15.08-8.42c5.08-1.19,7.51-4.11,8.45-9.55.7-4,3.83-7.45,5.31-11.55,1.29-3.6,5.31-2.08,6.33.18,5.73,12.75,16.89,10.75,27.42,10.81,2.79,0,6.72-1.5,8.08.61,1.64,2.54-2.27,4.57-3.61,6.9-3.1,5.4-2.17,9.49,3.44,12.4,5.34,2.77,11.18,3.07,17,2.65a85.72,85.72,0,0,1,15.94.37c2.76.32,3.41.85,2.84,4.34-.95,5.91-4.17,6.14-8.72,6.17A76.29,76.29,0,0,0,433,148.7c-11,2.49-21.27.11-29.93-7.13-5.59-4.68-11.75-6.36-18.76-8-12.21-2.83-22.56-.07-32.86,5.76a26.21,26.21,0,0,1-14,3.12c-5.82-.17-11.64-.28-17.45-.42-5.55,1.23-11.18.4-16.77.74C298,141.86,292.68,142.57,287.41,142.36Z"/><path class="cls-2" d="M17,191l.48-4.71c3.63-2.86,7.41-5.56,10.85-8.63,5.67-5.07,11.56-6.08,18.07-1.83,2.3,1.51,5,1.79,7.56,2.12,3.4.42,5.53-1.48,6-4.8A3.49,3.49,0,0,1,63.06,175c2.58,4.53,6.77,4.87,11.2,4.44,5.14-.51,9.35,1.4,13.09,4.67,5.72,5,12.51,8.65,17,15.16,2.4,3.45,7.21,3.9,11.06,5.4a20,20,0,0,1,6.13,3.25c1.24,1.06,2.1,2.31,1.33,3.9-.85,1.76-2.32.68-3.48.38-6.06-1.56-12.34-2.79-18.13-.08-4.9,2.29-9.34,1.19-14.23,1-6.35-.27-12.82,1.46-19,3.42-1.58.5-3.16,1-4.74,1.56-6.89,2.31-6.89,2.31-3.33,8.28-1.89,1.68-3.77,0-4.93-.71-8-5.22-15.73-3.7-23.57.28-3.36,1.71-6.51,5.87-9.87,4.89-2.92-.85-4.8-5.17-7.17-7.93-4-4.7-3.75-4.29,1.23-7.86,7.56-5.4,16.06-8.61,24.47-12.21,5.45-2.33,10.33-2.09,15.2.81,2.87,1.71,5.4,1.5,7.71-.74,3-2.9,2-7.26-2.1-7.94-5.26-.87-9.7-3.19-14.08-6-3.85-2.49-7.62-3.89-12.28-.6A18.93,18.93,0,0,1,17,191Z"/><path class="cls-2" d="M267.92,220c.43.7.83,1.43,1.29,2.11,1,1.45,3.55,2.46,2.56,4.41-1.19,2.32-3.88,1.33-5.89,1.05-6.3-.9-12.15-3.42-18-5.65a34.46,34.46,0,0,0-28.48,1.2c-3.17,1.54-6.66,2.12-10.05.24,2-1.14,5.73-.84,5.15-4.26s-2-6.73-6.82-6.15c-1.66.21-4-.18-4-2.68,0-2.12,2.13-2.32,3.73-2.62,4.8-.91,9.63,0,14.45-.16,3.82-.09,7.67,0,11.46-.46s7.5-2,9-6.13c1.76-5,5.57-7.42,10.4-8.28,8.52-1.53,16.25-4,22.17-11.09,3.24-3.89,8.62-5.07,13.64-5.4,9.13-.6,18.29-.74,27.43-1.06a6.83,6.83,0,0,1,1.5.08c3.26.64,7.55,1.06,7.33,5.17-.2,3.46-4.4,2.54-6.93,2.73-5.47.4-11,.17-16.45.57a22.21,22.21,0,0,0-7.17,2c-2.74,1.22-5.76,2.82-5,6.55s3.58,5.54,7.19,6a38.15,38.15,0,0,0,10.43-.7c3.6-.57,7.21-1.43,10.9-.89,1.57.22,3,1,3.07,2.77.08,1.54-1.17,2.29-2.46,2.78-4.44,1.69-9.12,1.87-13.77,2.07-4.83.2-9.16,1.28-12.57,5.06-2.47,2.73-5.81,2.92-9.25,2.51-4.63-.55-9.27-1.23-13.93-.41-2.17.38-4.36,1.19-4.73,3.76C263.68,217.85,265.27,219.39,267.92,220Z"/><path class="cls-2" d="M354.94,299.93c-8.34,1.86-16.8,2.11-25.31,2.3-9.28.21-18,1.88-26.25,7.17-7.51,4.78-19.4,6.62-28.16-2S255.45,296.49,243.77,296c-1.53-.07-3.76.9-4.33-1.25s1.28-3.38,2.84-4.28c2.3-1.32,4.78-2.33,7.2-3.43a13.61,13.61,0,0,0,4.94-3.31c2.58-3,1.92-4.81-1.91-5.64-2.73-.6-5.44-1.35-8.26-2.06,2.67-7.36,8.19-9.86,15.19-9.92,7.32-.07,14.65.13,22,0,4.81-.09,9.69-.28,13.46-4.05a2.85,2.85,0,0,1,2.75-.84c8.61,2.19,16.82-.32,25.11-2.07,2.33-.49,4.66-1.24,7.1.54,2.74,2,2.55,3.64.15,5.42-2.77,2.05-6.15,2.61-9.44,2.92-11.76,1.1-23.54,1.95-35.31,3a46.47,46.47,0,0,0-15.43,3.74c-2.73,1.25-6,3.12-5.47,6.27a9.75,9.75,0,0,0,6.25,7.11,16,16,0,0,0,8.32.58c9.23-1.4,18.16-2.16,25.18,6.17,2.45,2.9,6.6,4.15,10.08,2.06,6.25-3.74,13.24-4.06,20-5a42.39,42.39,0,0,0,13-4.11,21.51,21.51,0,0,1,3.77-1.09C350,291.8,354.66,295.2,354.94,299.93Z"/><path class="cls-3" d="M289.07,81.57c-1.39,2-3.05,1.89-4.42,2-14.44,1.31-27.83,6.14-40.83,12.17-10.75,5-21.11,5.5-31.16-1.6-3.74-2.65-7.93-2-12.06-1.57-3.32.32-6.65.78-9.75-.94-4.41-2.46-5.07-6.13-1.64-9.81,3.73-4,8.64-5.4,13.91-5.86,9.86-.85,19.54,1,29.3,1.78,18,1.51,36.14,2.3,54.21,3.4C287.27,81.2,287.9,81.37,289.07,81.57Z"/><path class="cls-2" d="M445,189c-2.19-.69-4.47-1.19-6.57-2.09a47.44,47.44,0,0,0-23.72-3.59c-4.87.44-10.28,1.5-14.59-2.48-4.05-6.46-10.85-8.94-17.35-11.7-4.12-1.75-8.06-3.56-11.4-7.13,3.49-2.41,6.86-2.14,10.4-.6,5,2.18,10,4.42,15.16,6.3,4.43,1.62,8.55,1.22,11.23-3.42L415,164c4.63,2.09,9.3,4.13,13.9,6.3a27,27,0,0,0,9.11,2.32c1.82.19,3.23,0,3.6-2.3.45-2.69,2.71-3.93,4.8-2.93,9.21,4.41,19.15,2.18,28.65,3.69,1.7.27,4.15-.13,4.86,1.66s-1.73,2.55-2.55,3.94c-.25.43-.65.77-.9,1.19-2.32,3.92-4.15,6.68-10,3.87-5.66-2.7-12.39-1.17-18.46,1.1C445,184,443.68,185.83,445,189Z"/><path class="cls-2" d="M366.73,123.16a58.36,58.36,0,0,0-15.08,8.42c-7.82,5.95-25.93,5.3-33.21-1.07a17.26,17.26,0,0,0-10.87-4.41c-4.33-.23-8.65-.46-12.95-.93-2.25-.25-5.28-.43-5.38-3.36-.1-2.69,2.91-2.8,4.88-3.37,2.39-.69,4.93-.88,7.31-1.6,2.89-.87,6.16-2,6.45-5.46.34-3.87-3.59-4.26-6.07-5.67a9.93,9.93,0,0,0-2.89-.66c4.81-3.07,9.86-5.68,13-11,1.73-3,5.06-.94,8.59-.93-2.92,2.56-2.64,4,0,6,4,3,3.57,5.18-.3,8.93-1.58,1.52-4.53,2.68-3.19,5.48s4.3,4,7.56,3.68c1.81-.2,3.58-.67,5.38-1,4.9-.84,9.43-.81,13.38,3.16,3.18,3.2,7.48,4,12,3.74C359.1,122.92,362.92,123.13,366.73,123.16Z"/><path class="cls-2" d="M455.84,319.35a6.53,6.53,0,0,1,3.48-5.45c2.78-1.54,5-.48,7.35,1.15,3.52,2.45,5.62,6.09,8.29,9.26,1.2,1.43.76,2.67-.07,4.07-4.79,8.11-7.72,8.49-14.43,1.84A13.86,13.86,0,0,1,455.84,319.35Z"/><path class="cls-3" d="M354.94,299.93c-.28-4.73-5-8.13-4-13.24.49-2.71,2.25-3.78,4.86-3.75,3.49-.4,4.3,1.78,5.11,4.64.92,3.29,1.58,7.53,6.9,6.18l3.39,1.83C365.28,295.18,361,300.75,354.94,299.93Z"/><path class="cls-2" d="M342,188c5.1,0,10.21,0,15.31.17,2.17.08,4.5.7,5.27,3,.7,2.1-1.54,3.07-2.68,4.35a16.56,16.56,0,0,1-11.23,5.41c1.55-2.44,1.25-3.82-1.68-5.33C344.23,194.2,341.13,192.16,342,188Z"/><path class="cls-3" d="M409.78,17.2a107.88,107.88,0,0,0,20.9-5.4c2.78-1,4.72,2,3.48,5.07-1.51,3.78-4.8,4.85-8.48,4.82C420.15,21.65,415,19.93,409.78,17.2Z"/><path class="cls-2" d="M367.8,293.76c-5.32,1.35-6-2.89-6.9-6.18-.81-2.86-1.62-5-5.11-4.64,4.06-3.65,8.09-4.41,10.95-2.05C370.35,283.87,370.75,288.79,367.8,293.76Z"/><path class="cls-3" d="M415,164l-6.78.23L404,158.88c3.72-.54,6.14-3.36,9.53-4.22,2.47-.63,5.27-1.25,6.7,1.44s-1,4.14-2.92,5.5C416.39,162.27,415.3,162.78,415,164Z"/><path class="cls-2" d="M94.31,126.81c4.62-.6,7.46-3,8.36-7.75.62-3.23,2.72-5.54,5.18-7.66,2.08-1.78,4.81-3.15,5.19-6.35,2.93,3.13.76,5.93-.89,8.43a34.17,34.17,0,0,1-5.44,5.79c-2.91,2.71-5,5.74-4.39,10.62Z"/><path class="cls-2" d="M283.08,255.13c-3.63.33-5.53-1.71-6.07-4.93-.6-3.5,2.47-3.6,4.68-4.38,1.53-.55,3-1.26,4.72-.86-.87,1.92.28,2.93,1.59,4.08,1.51,1.32,2.79,3.3,2,5.15-.73,1.69-3,.36-4.48.69A19.61,19.61,0,0,1,283.08,255.13Z"/><path class="cls-2" d="M412.63,313.64c-3.81-2.25-3.94-7.47-7.82-9.66l.27-.07,3.77-.6c1-.21,1.92-.47,2.9-.63a6.47,6.47,0,0,1,7.16,3.28c1.53,3-1.71,4.15-3.45,5.71A26.91,26.91,0,0,1,412.63,313.64Z"/><path class="cls-3" d="M39.87,359.5c3.19-1.2,6.59-.05,9.82-.88.89.4,1.83.73,2.68,1.2,1.64.9,5.27.3,4.05,3.5-1.13,3-4.15,4.56-7.32,2.76S42.93,361.72,39.87,359.5Z"/><path class="cls-2" d="M264.88,111.41c-2.31,5.48-10,8.6-16.35,6.6C254.14,116.21,258.47,111.23,264.88,111.41Z"/><path class="cls-2" d="M253.11,258.72c4.46-4.32,9.31-1.1,14-.72C262.58,260.66,257.88,260.39,253.11,258.72Z"/><path class="cls-2" d="M303.24,142.78c5.59-.34,11.22.49,16.77-.74C314.61,146.68,309,146,303.24,142.78Z"/><path class="cls-2" d="M78.63,117.1c3.8.14,6,2.33,7.3,5.67A26.67,26.67,0,0,1,78.63,117.1Z"/><path class="cls-3" d="M247,158.19l10,.77C253.61,159.38,250.24,159.55,247,158.19Z"/><path class="cls-3" d="M229,361.59l-7-.1A10.5,10.5,0,0,1,229,361.59Z"/><path class="cls-3" d="M13.83,115.54a6.14,6.14,0,0,1,5.4.16Z"/><path class="cls-3" d="M408.85,303.31l-3.77.6Z"/><path class="cls-2" d="M447.08,190l-2.25-1.09A2.46,2.46,0,0,1,447.08,190Z"/><path class="cls-2" d="M344.92,205v0Z"/><path class="cls-3" d="M232.05,361.73l-1.11-.07Z"/><path class="cls-1" d="M156.7,34.71c-1,3.32-4,4.38-6.64,5.32-7.41,2.62-15,4.28-22.92,2.15C136.76,38.77,146.09,34.2,156.7,34.71Z"/><path class="cls-1" d="M171.39,294.16c3,.45,5.29,2,6.19,4.95.51,1.65-1,2.45-2.31,2.56-3.35.29-7,1.64-9.76-1.42-.48-.53-.41-1.57-.59-2.37C166.39,295.45,169,294.92,171.39,294.16Z"/><path class="cls-3" d="M3.11,94.07C5.67,92,8.27,90,12,90.76c-2.73,1.69-5.46,3.39-8.94,3.3Z"/><path class="cls-1" d="M149.05,155.22l.06-.58c-.07.06-.2.13-.19.17a.9.9,0,0,0,.18.31Z"/></g></g></svg>