%TF.GenerationSoftware,KiCad,Pcbnew,(5.1.8-0-10_14)*%
%TF.CreationDate,2021-02-06T10:55:23+01:00*%
%TF.ProjectId,PoundingSystem,506f756e-6469-46e6-9753-797374656d2e,rev?*%
%TF.SameCoordinates,Original*%
%TF.FileFunction,Copper,L4,Bot*%
%TF.FilePolarity,Positive*%
%FSLAX46Y46*%
G04 Gerber Fmt 4.6, Leading zero omitted, Abs format (unit mm)*
G04 Created by KiCad (PCBNEW (5.1.8-0-10_14)) date 2021-02-06 10:55:23*
%MOMM*%
%LPD*%
G01*
G04 APERTURE LIST*
%TA.AperFunction,ComponentPad*%
%ADD10R,2.000000X2.000000*%
%TD*%
%TA.AperFunction,ComponentPad*%
%ADD11C,2.000000*%
%TD*%
%TA.AperFunction,ComponentPad*%
%ADD12R,2.500000X3.000000*%
%TD*%
%TA.AperFunction,ComponentPad*%
%ADD13C,4.400000*%
%TD*%
%TA.AperFunction,ComponentPad*%
%ADD14C,0.700000*%
%TD*%
%TA.AperFunction,ComponentPad*%
%ADD15R,2.000000X3.200000*%
%TD*%
%TA.AperFunction,ComponentPad*%
%ADD16C,1.800000*%
%TD*%
%TA.AperFunction,ComponentPad*%
%ADD17O,0.900000X1.800000*%
%TD*%
%TA.AperFunction,SMDPad,CuDef*%
%ADD18R,1.200000X1.000000*%
%TD*%
%TA.AperFunction,SMDPad,CuDef*%
%ADD19R,0.800000X1.200000*%
%TD*%
%TA.AperFunction,SMDPad,CuDef*%
%ADD20R,0.600000X3.000000*%
%TD*%
%TA.AperFunction,ComponentPad*%
%ADD21C,2.800000*%
%TD*%
%TA.AperFunction,ComponentPad*%
%ADD22R,1.700000X1.700000*%
%TD*%
%TA.AperFunction,ComponentPad*%
%ADD23O,1.700000X1.700000*%
%TD*%
%TA.AperFunction,SMDPad,CuDef*%
%ADD24R,1.200000X1.900000*%
%TD*%
%TA.AperFunction,ComponentPad*%
%ADD25O,1.200000X1.900000*%
%TD*%
%TA.AperFunction,SMDPad,CuDef*%
%ADD26R,1.500000X1.900000*%
%TD*%
%TA.AperFunction,ComponentPad*%
%ADD27C,1.450000*%
%TD*%
%TA.AperFunction,SMDPad,CuDef*%
%ADD28R,0.400000X1.350000*%
%TD*%
%TA.AperFunction,ViaPad*%
%ADD29C,0.600000*%
%TD*%
%TA.AperFunction,ViaPad*%
%ADD30C,0.800000*%
%TD*%
%TA.AperFunction,Conductor*%
%ADD31C,0.400000*%
%TD*%
%TA.AperFunction,Conductor*%
%ADD32C,0.250000*%
%TD*%
%TA.AperFunction,Conductor*%
%ADD33C,0.300000*%
%TD*%
%TA.AperFunction,Conductor*%
%ADD34C,0.200000*%
%TD*%
%TA.AperFunction,Conductor*%
%ADD35C,0.261112*%
%TD*%
G04 APERTURE END LIST*
%TO.P,D8,2*%
%TO.N,Net-(D8-Pad2)*%
%TA.AperFunction,SMDPad,CuDef*%
G36*
G01*
X204250000Y-79918750D02*
X204250000Y-80831250D01*
G75*
G02*
X204006250Y-81075000I-243750J0D01*
G01*
X203518750Y-81075000D01*
G75*
G02*
X203275000Y-80831250I0J243750D01*
G01*
X203275000Y-79918750D01*
G75*
G02*
X203518750Y-79675000I243750J0D01*
G01*
X204006250Y-79675000D01*
G75*
G02*
X204250000Y-79918750I0J-243750D01*
G01*
G37*
%TD.AperFunction*%
%TO.P,D8,1*%
%TO.N,GND*%
%TA.AperFunction,SMDPad,CuDef*%
G36*
G01*
X206125000Y-79918750D02*
X206125000Y-80831250D01*
G75*
G02*
X205881250Y-81075000I-243750J0D01*
G01*
X205393750Y-81075000D01*
G75*
G02*
X205150000Y-80831250I0J243750D01*
G01*
X205150000Y-79918750D01*
G75*
G02*
X205393750Y-79675000I243750J0D01*
G01*
X205881250Y-79675000D01*
G75*
G02*
X206125000Y-79918750I0J-243750D01*
G01*
G37*
%TD.AperFunction*%
%TD*%
D10*
%TO.P,SW4,A*%
%TO.N,Net-(C43-Pad2)*%
X95317920Y-105435000D03*
D11*
%TO.P,SW4,C*%
%TO.N,GND*%
X92817920Y-105435000D03*
%TO.P,SW4,B*%
%TO.N,Net-(C41-Pad2)*%
X90317920Y-105435000D03*
D12*
%TO.P,SW4,MP*%
%TO.N,N/C*%
X98417920Y-97935000D03*
X87217920Y-97935000D03*
%TD*%
D10*
%TO.P,SW3,A*%
%TO.N,Net-(C44-Pad2)*%
X116970280Y-105435000D03*
D11*
%TO.P,SW3,C*%
%TO.N,GND*%
X114470280Y-105435000D03*
%TO.P,SW3,B*%
%TO.N,Net-(C42-Pad2)*%
X111970280Y-105435000D03*
D12*
%TO.P,SW3,MP*%
%TO.N,N/C*%
X120070280Y-97935000D03*
X108870280Y-97935000D03*
%TD*%
D13*
%TO.P,H2,1*%
%TO.N,Net-(H2-Pad1)*%
X36375000Y-76625000D03*
D14*
X38025000Y-76625000D03*
X37541726Y-77791726D03*
X36375000Y-78275000D03*
X35208274Y-77791726D03*
X34725000Y-76625000D03*
X35208274Y-75458274D03*
X36375000Y-74975000D03*
X37541726Y-75458274D03*
%TD*%
D10*
%TO.P,SW1,A*%
%TO.N,Net-(C51-Pad2)*%
X207225000Y-101625000D03*
D11*
%TO.P,SW1,C*%
%TO.N,GND*%
X204725000Y-101625000D03*
%TO.P,SW1,B*%
%TO.N,Net-(C52-Pad2)*%
X202225000Y-101625000D03*
D15*
%TO.P,SW1,MP*%
%TO.N,N/C*%
X210325000Y-94125000D03*
X199125000Y-94125000D03*
D11*
%TO.P,SW1,S2*%
%TO.N,Net-(C49-Pad2)*%
X207225000Y-87125000D03*
%TO.P,SW1,S1*%
%TO.N,GND*%
X202225000Y-87125000D03*
%TD*%
%TO.P,SW7,1*%
%TO.N,GND*%
X51500000Y-85000000D03*
%TO.P,SW7,2*%
%TO.N,Net-(C46-Pad2)*%
X51500000Y-80500000D03*
%TO.P,SW7,1*%
%TO.N,GND*%
X45000000Y-85000000D03*
%TO.P,SW7,2*%
%TO.N,Net-(C46-Pad2)*%
X45000000Y-80500000D03*
%TD*%
D16*
%TO.P,J5,*%
%TO.N,*%
X99357500Y-84970000D03*
X99357500Y-78870000D03*
D17*
%TO.P,J5,T*%
%TO.N,Net-(FB3-Pad1)*%
X101757500Y-85970000D03*
%TO.P,J5,S*%
%TO.N,GND*%
X101757500Y-78914000D03*
%TO.P,J5,R*%
%TO.N,Net-(FB4-Pad1)*%
X96960500Y-80847000D03*
%TD*%
D18*
%TO.P,SW9,0*%
%TO.N,N/C*%
X131960000Y-76780000D03*
X131960000Y-74480000D03*
X139360000Y-76780000D03*
X139360000Y-74480000D03*
D19*
%TO.P,SW9,1*%
%TO.N,Net-(SW9-Pad1)*%
X137860000Y-77480000D03*
%TO.P,SW9,2*%
%TO.N,Net-(D2-Pad2)*%
X136360000Y-77480000D03*
%TO.P,SW9,3*%
%TO.N,+5V*%
X133460000Y-77480000D03*
%TD*%
%TO.P,D7,2*%
%TO.N,Net-(D7-Pad2)*%
%TA.AperFunction,SMDPad,CuDef*%
G36*
G01*
X153156250Y-101250000D02*
X152243750Y-101250000D01*
G75*
G02*
X152000000Y-101006250I0J243750D01*
G01*
X152000000Y-100518750D01*
G75*
G02*
X152243750Y-100275000I243750J0D01*
G01*
X153156250Y-100275000D01*
G75*
G02*
X153400000Y-100518750I0J-243750D01*
G01*
X153400000Y-101006250D01*
G75*
G02*
X153156250Y-101250000I-243750J0D01*
G01*
G37*
%TD.AperFunction*%
%TO.P,D7,1*%
%TO.N,GND*%
%TA.AperFunction,SMDPad,CuDef*%
G36*
G01*
X153156250Y-103125000D02*
X152243750Y-103125000D01*
G75*
G02*
X152000000Y-102881250I0J243750D01*
G01*
X152000000Y-102393750D01*
G75*
G02*
X152243750Y-102150000I243750J0D01*
G01*
X153156250Y-102150000D01*
G75*
G02*
X153400000Y-102393750I0J-243750D01*
G01*
X153400000Y-102881250D01*
G75*
G02*
X153156250Y-103125000I-243750J0D01*
G01*
G37*
%TD.AperFunction*%
%TD*%
%TO.P,D6,2*%
%TO.N,Net-(D6-Pad2)*%
%TA.AperFunction,SMDPad,CuDef*%
G36*
G01*
X189643750Y-102150000D02*
X190556250Y-102150000D01*
G75*
G02*
X190800000Y-102393750I0J-243750D01*
G01*
X190800000Y-102881250D01*
G75*
G02*
X190556250Y-103125000I-243750J0D01*
G01*
X189643750Y-103125000D01*
G75*
G02*
X189400000Y-102881250I0J243750D01*
G01*
X189400000Y-102393750D01*
G75*
G02*
X189643750Y-102150000I243750J0D01*
G01*
G37*
%TD.AperFunction*%
%TO.P,D6,1*%
%TO.N,GND*%
%TA.AperFunction,SMDPad,CuDef*%
G36*
G01*
X189643750Y-100275000D02*
X190556250Y-100275000D01*
G75*
G02*
X190800000Y-100518750I0J-243750D01*
G01*
X190800000Y-101006250D01*
G75*
G02*
X190556250Y-101250000I-243750J0D01*
G01*
X189643750Y-101250000D01*
G75*
G02*
X189400000Y-101006250I0J243750D01*
G01*
X189400000Y-100518750D01*
G75*
G02*
X189643750Y-100275000I243750J0D01*
G01*
G37*
%TD.AperFunction*%
%TD*%
%TO.P,D5,2*%
%TO.N,Net-(D5-Pad2)*%
%TA.AperFunction,SMDPad,CuDef*%
G36*
G01*
X189743750Y-88950000D02*
X190656250Y-88950000D01*
G75*
G02*
X190900000Y-89193750I0J-243750D01*
G01*
X190900000Y-89681250D01*
G75*
G02*
X190656250Y-89925000I-243750J0D01*
G01*
X189743750Y-89925000D01*
G75*
G02*
X189500000Y-89681250I0J243750D01*
G01*
X189500000Y-89193750D01*
G75*
G02*
X189743750Y-88950000I243750J0D01*
G01*
G37*
%TD.AperFunction*%
%TO.P,D5,1*%
%TO.N,GND*%
%TA.AperFunction,SMDPad,CuDef*%
G36*
G01*
X189743750Y-87075000D02*
X190656250Y-87075000D01*
G75*
G02*
X190900000Y-87318750I0J-243750D01*
G01*
X190900000Y-87806250D01*
G75*
G02*
X190656250Y-88050000I-243750J0D01*
G01*
X189743750Y-88050000D01*
G75*
G02*
X189500000Y-87806250I0J243750D01*
G01*
X189500000Y-87318750D01*
G75*
G02*
X189743750Y-87075000I243750J0D01*
G01*
G37*
%TD.AperFunction*%
%TD*%
%TO.P,D4,1*%
%TO.N,GND*%
%TA.AperFunction,SMDPad,CuDef*%
G36*
G01*
X153256250Y-89987500D02*
X152343750Y-89987500D01*
G75*
G02*
X152100000Y-89743750I0J243750D01*
G01*
X152100000Y-89256250D01*
G75*
G02*
X152343750Y-89012500I243750J0D01*
G01*
X153256250Y-89012500D01*
G75*
G02*
X153500000Y-89256250I0J-243750D01*
G01*
X153500000Y-89743750D01*
G75*
G02*
X153256250Y-89987500I-243750J0D01*
G01*
G37*
%TD.AperFunction*%
%TO.P,D4,2*%
%TO.N,Net-(D4-Pad2)*%
%TA.AperFunction,SMDPad,CuDef*%
G36*
G01*
X153256250Y-88112500D02*
X152343750Y-88112500D01*
G75*
G02*
X152100000Y-87868750I0J243750D01*
G01*
X152100000Y-87381250D01*
G75*
G02*
X152343750Y-87137500I243750J0D01*
G01*
X153256250Y-87137500D01*
G75*
G02*
X153500000Y-87381250I0J-243750D01*
G01*
X153500000Y-87868750D01*
G75*
G02*
X153256250Y-88112500I-243750J0D01*
G01*
G37*
%TD.AperFunction*%
%TD*%
D11*
%TO.P,SW5,2*%
%TO.N,Net-(C47-Pad2)*%
X51512000Y-103052000D03*
%TO.P,SW5,1*%
%TO.N,GND*%
X54262000Y-98922000D03*
%TD*%
%TO.P,U5,*%
%TO.N,*%
X188700000Y-81600000D03*
D20*
%TO.P,U5,3*%
%TO.N,GND*%
X173450000Y-78100000D03*
%TO.P,U5,4*%
%TO.N,+3V3*%
X172450000Y-78100000D03*
%TO.P,U5,5*%
%TO.N,LCD_CS*%
X171450000Y-78100000D03*
%TO.P,U5,2*%
%TO.N,Net-(C23-Pad1)*%
X174450000Y-78100000D03*
%TO.P,U5,1*%
%TO.N,NRST*%
X175450000Y-78100000D03*
%TO.P,U5,6*%
%TO.N,LCD_DC*%
X170450000Y-78100000D03*
%TO.P,U5,7*%
%TO.N,SPI3_MOSI*%
X169450000Y-78100000D03*
%TO.P,U5,8*%
%TO.N,SPI3_SCK*%
X168450000Y-78100000D03*
%TO.P,U5,9*%
%TO.N,+3V3*%
X167450000Y-78100000D03*
D11*
%TO.P,U5,*%
%TO.N,*%
X154200000Y-108100000D03*
%TD*%
D10*
%TO.P,SW8,A*%
%TO.N,Net-(C35-Pad2)*%
X73665560Y-105435000D03*
D11*
%TO.P,SW8,C*%
%TO.N,GND*%
X71165560Y-105435000D03*
%TO.P,SW8,B*%
%TO.N,Net-(C34-Pad2)*%
X68665560Y-105435000D03*
D21*
%TO.P,SW8,MP*%
%TO.N,N/C*%
X76765560Y-97935000D03*
X65565560Y-97935000D03*
%TD*%
D14*
%TO.P,H4,1*%
%TO.N,Net-(H4-Pad1)*%
X37541726Y-107783274D03*
X36375000Y-107300000D03*
X35208274Y-107783274D03*
X34725000Y-108950000D03*
X35208274Y-110116726D03*
X36375000Y-110600000D03*
X37541726Y-110116726D03*
X38025000Y-108950000D03*
D13*
X36375000Y-108950000D03*
%TD*%
D14*
%TO.P,H3,1*%
%TO.N,Net-(H3-Pad1)*%
X216141726Y-75483274D03*
X214975000Y-75000000D03*
X213808274Y-75483274D03*
X213325000Y-76650000D03*
X213808274Y-77816726D03*
X214975000Y-78300000D03*
X216141726Y-77816726D03*
X216625000Y-76650000D03*
D13*
X214975000Y-76650000D03*
%TD*%
D14*
%TO.P,H2,1*%
%TO.N,Net-(H2-Pad1)*%
X37541726Y-75458274D03*
X36375000Y-74975000D03*
X35208274Y-75458274D03*
X34725000Y-76625000D03*
X35208274Y-77791726D03*
X36375000Y-78275000D03*
X37541726Y-77791726D03*
X38025000Y-76625000D03*
D13*
X36375000Y-76625000D03*
%TD*%
D14*
%TO.P,H1,1*%
%TO.N,Net-(H1-Pad1)*%
X216141726Y-107783274D03*
X214975000Y-107300000D03*
X213808274Y-107783274D03*
X213325000Y-108950000D03*
X213808274Y-110116726D03*
X214975000Y-110600000D03*
X216141726Y-110116726D03*
X216625000Y-108950000D03*
D13*
X214975000Y-108950000D03*
%TD*%
D16*
%TO.P,J2,*%
%TO.N,*%
X89581667Y-84970000D03*
X89581667Y-78870000D03*
D17*
%TO.P,J2,T*%
%TO.N,Net-(FB5-Pad1)*%
X91981667Y-85970000D03*
%TO.P,J2,S*%
%TO.N,GND*%
X91981667Y-78914000D03*
%TO.P,J2,R*%
%TO.N,Net-(FB6-Pad1)*%
X87184667Y-80847000D03*
%TD*%
%TO.P,D3,2*%
%TO.N,Net-(D3-Pad2)*%
%TA.AperFunction,SMDPad,CuDef*%
G36*
G01*
X43575750Y-99237000D02*
X44088250Y-99237000D01*
G75*
G02*
X44307000Y-99455750I0J-218750D01*
G01*
X44307000Y-99893250D01*
G75*
G02*
X44088250Y-100112000I-218750J0D01*
G01*
X43575750Y-100112000D01*
G75*
G02*
X43357000Y-99893250I0J218750D01*
G01*
X43357000Y-99455750D01*
G75*
G02*
X43575750Y-99237000I218750J0D01*
G01*
G37*
%TD.AperFunction*%
%TO.P,D3,1*%
%TO.N,GND*%
%TA.AperFunction,SMDPad,CuDef*%
G36*
G01*
X43575750Y-97662000D02*
X44088250Y-97662000D01*
G75*
G02*
X44307000Y-97880750I0J-218750D01*
G01*
X44307000Y-98318250D01*
G75*
G02*
X44088250Y-98537000I-218750J0D01*
G01*
X43575750Y-98537000D01*
G75*
G02*
X43357000Y-98318250I0J218750D01*
G01*
X43357000Y-97880750D01*
G75*
G02*
X43575750Y-97662000I218750J0D01*
G01*
G37*
%TD.AperFunction*%
%TD*%
D22*
%TO.P,J6,1*%
%TO.N,VCC*%
X214600000Y-95630000D03*
D23*
%TO.P,J6,2*%
%TO.N,GND*%
X214600000Y-93090000D03*
%TO.P,J6,3*%
%TO.N,SWDIO*%
X214600000Y-90550000D03*
%TO.P,J6,4*%
%TO.N,SWCLK*%
X214600000Y-88010000D03*
%TO.P,J6,5*%
%TO.N,SWO*%
X214600000Y-85470000D03*
%TD*%
D16*
%TO.P,J4,*%
%TO.N,*%
X70030000Y-84970000D03*
X70030000Y-78870000D03*
D17*
%TO.P,J4,T*%
%TO.N,Net-(J4-PadT)*%
X72430000Y-85970000D03*
%TO.P,J4,S*%
%TO.N,GND*%
X72430000Y-78914000D03*
%TO.P,J4,R*%
%TO.N,Net-(J4-PadR)*%
X67633000Y-80847000D03*
%TD*%
D10*
%TO.P,SW2,A*%
%TO.N,Net-(C38-Pad2)*%
X138472640Y-105435000D03*
D11*
%TO.P,SW2,C*%
%TO.N,GND*%
X135972640Y-105435000D03*
%TO.P,SW2,B*%
%TO.N,Net-(C37-Pad2)*%
X133472640Y-105435000D03*
D12*
%TO.P,SW2,MP*%
%TO.N,N/C*%
X141572640Y-97935000D03*
X130372640Y-97935000D03*
%TD*%
D16*
%TO.P,J3,*%
%TO.N,*%
X79805834Y-84970000D03*
X79805834Y-78870000D03*
D17*
%TO.P,J3,T*%
%TO.N,Net-(C20-Pad1)*%
X82205834Y-85970000D03*
%TO.P,J3,S*%
%TO.N,GND*%
X82205834Y-78914000D03*
%TO.P,J3,R*%
%TO.N,MIC_-*%
X77408834Y-80847000D03*
%TD*%
D24*
%TO.P,J1,6*%
%TO.N,Net-(J1-Pad6)*%
X119560000Y-75602500D03*
X125360000Y-75602500D03*
D25*
X125960000Y-75602500D03*
X118960000Y-75602500D03*
D26*
X121460000Y-75602500D03*
D27*
X124960000Y-78302500D03*
D28*
%TO.P,J1,3*%
%TO.N,USB_CONN_D+*%
X122460000Y-78302500D03*
%TO.P,J1,4*%
%TO.N,Net-(J1-Pad4)*%
X123110000Y-78302500D03*
%TO.P,J1,5*%
%TO.N,GND*%
X123760000Y-78302500D03*
%TO.P,J1,1*%
%TO.N,+5V*%
X121160000Y-78302500D03*
%TO.P,J1,2*%
%TO.N,USB_CONN_D-*%
X121810000Y-78302500D03*
D27*
%TO.P,J1,6*%
%TO.N,Net-(J1-Pad6)*%
X119960000Y-78302500D03*
D26*
X123460000Y-75602500D03*
%TD*%
D29*
%TO.N,GND*%
X126310000Y-80790000D03*
X93550000Y-79640000D03*
X103480000Y-78330000D03*
X72230000Y-92400000D03*
X73450000Y-91030000D03*
X66450000Y-82530000D03*
X73930000Y-82150000D03*
X104620000Y-87280000D03*
X103780000Y-92190000D03*
X103670000Y-91080000D03*
X202525000Y-105850000D03*
X207725000Y-105850000D03*
X199644000Y-87884000D03*
X53600000Y-100880000D03*
X56910000Y-94920000D03*
X56230000Y-98540000D03*
X140350000Y-107325000D03*
X128500000Y-104950000D03*
X106800000Y-104890000D03*
X117500000Y-107535000D03*
X97150000Y-107530000D03*
X75400000Y-107600000D03*
X64010000Y-105720000D03*
X190100000Y-87500000D03*
X104240000Y-83930000D03*
X110744000Y-85090000D03*
X43750000Y-96810000D03*
X138970000Y-85110000D03*
X84910000Y-91610000D03*
X140859000Y-76450000D03*
X112522000Y-81026000D03*
X106550000Y-80190000D03*
X93190000Y-91610000D03*
X38100000Y-104648000D03*
X117410000Y-83650000D03*
X117430000Y-86610000D03*
X108350000Y-81460000D03*
X85040000Y-105070000D03*
X188468000Y-99822000D03*
X129700000Y-82700000D03*
X161600000Y-79700000D03*
X181160000Y-75950000D03*
X154600000Y-101600000D03*
X161950000Y-104600000D03*
X162500000Y-108300000D03*
X164200000Y-76000000D03*
X174650000Y-75600000D03*
X164950000Y-78900000D03*
X165750000Y-77900000D03*
X162150000Y-82599998D03*
X153800000Y-90250000D03*
X154850000Y-89400000D03*
X158600000Y-100800000D03*
X154223633Y-95792358D03*
X165300000Y-108845000D03*
X178200000Y-106950000D03*
X182150000Y-103100000D03*
X188000000Y-98350000D03*
X189400000Y-90500000D03*
X178250000Y-109700000D03*
X154650000Y-78000000D03*
X172894982Y-80994982D03*
X186050000Y-100599996D03*
X203575000Y-89675000D03*
X184833051Y-85100010D03*
X181729454Y-82924990D03*
X206775000Y-80375000D03*
X200152000Y-80518000D03*
X182734102Y-79732000D03*
X193294000Y-75946000D03*
X194564000Y-85598000D03*
X157310000Y-85250000D03*
X177860000Y-76310000D03*
%TO.N,+3V3*%
X102130000Y-89770000D03*
X58550000Y-95020000D03*
X137090000Y-79960000D03*
X105380000Y-82990000D03*
X214300000Y-105600000D03*
X117420000Y-84630000D03*
X117440000Y-85650000D03*
D30*
X147214000Y-80520000D03*
D29*
X155400000Y-82700000D03*
X162800000Y-105850000D03*
X163050000Y-80150000D03*
X166599992Y-76000000D03*
X157910000Y-85880000D03*
X159350000Y-102250000D03*
X154309336Y-97240658D03*
X166200000Y-108100000D03*
X179600000Y-105350000D03*
X183950000Y-102050000D03*
X188850000Y-96500000D03*
X176650000Y-109200000D03*
X176200000Y-75475001D03*
X179700000Y-80600000D03*
X187800000Y-88800000D03*
X47500000Y-103850000D03*
X35875000Y-101500000D03*
X160175000Y-83800000D03*
X207350000Y-89950000D03*
X180429949Y-79279949D03*
X193802000Y-86614000D03*
X184890000Y-76760000D03*
X165487293Y-76925827D03*
X183250000Y-84595010D03*
X200152000Y-82984990D03*
%TO.N,I2C2_SCL*%
X135000000Y-84100000D03*
X159900000Y-82600000D03*
%TO.N,I2C2_SDA*%
X135000000Y-83000000D03*
X158868416Y-82679186D03*
%TO.N,NRST*%
X161200000Y-88600000D03*
%TO.N,HOLD_SW*%
X60910000Y-97550000D03*
X66400000Y-102300000D03*
X140200000Y-103100000D03*
X156000000Y-101400000D03*
%TO.N,SWDIO*%
X185300000Y-93300000D03*
%TO.N,SWCLK*%
X185762815Y-91953287D03*
%TO.N,SPI3_SCK*%
X168500000Y-76000000D03*
%TO.N,SPI3_MOSI*%
X169500000Y-80100004D03*
%TO.N,SWO*%
X178050000Y-85300000D03*
%TO.N,I2S2_WS*%
X149900000Y-94500000D03*
X154200000Y-98300000D03*
%TO.N,+5V*%
X129534001Y-77734001D03*
%TO.N,Net-(FB3-Pad1)*%
X101770000Y-81810000D03*
%TO.N,I2S2_SDI*%
X149100000Y-90300000D03*
X177800000Y-88200000D03*
%TO.N,I2S2_SDO*%
X149100000Y-88900000D03*
X179463621Y-87528587D03*
%TO.N,Net-(J1-Pad4)*%
X123190000Y-80772000D03*
%TO.N,USB_CONN_D+*%
X123283975Y-82216025D03*
%TO.N,USB_CONN_D-*%
X122716025Y-82783975D03*
%TO.N,USB_D+*%
X132183975Y-79119576D03*
X166216025Y-84983975D03*
%TO.N,USB_D-*%
X131616025Y-78551626D03*
X166783975Y-84416025D03*
X177600000Y-94900000D03*
X180450000Y-96900000D03*
%TO.N,Net-(D3-Pad2)*%
X42570000Y-99700000D03*
%TO.N,MICBIAS*%
X107188000Y-87884000D03*
X83566000Y-85598000D03*
%TO.N,TIM4_CH2*%
X173000000Y-106100000D03*
X160800000Y-108200000D03*
%TO.N,TIM3_CH1*%
X150300000Y-102300000D03*
X79250000Y-107225000D03*
%TO.N,TIM3_CH2*%
X147574000Y-101600000D03*
X81125000Y-103575000D03*
%TO.N,LCD_DC*%
X170450000Y-80150000D03*
%TO.N,LCD_CS*%
X171400000Y-80150000D03*
%TO.N,Net-(C23-Pad1)*%
X176950000Y-76200000D03*
%TO.N,Net-(D4-Pad2)*%
X150010000Y-86300000D03*
%TO.N,Net-(D5-Pad2)*%
X192800000Y-88000000D03*
%TO.N,Net-(D6-Pad2)*%
X190500000Y-103800000D03*
%TO.N,Net-(D7-Pad2)*%
X150400000Y-100800000D03*
%TO.N,Net-(D2-Pad2)*%
X136400000Y-78700000D03*
%TO.N,MIC_+*%
X107395479Y-88853479D03*
X83610000Y-88100000D03*
%TO.N,MIC_-*%
X107996521Y-89454521D03*
%TO.N,TIM5_CH2*%
X102850000Y-106640000D03*
X170500000Y-107400000D03*
%TO.N,TIM5_CH1*%
X171500000Y-108300000D03*
X102600000Y-108525000D03*
%TO.N,LCD_BL2*%
X146800000Y-86400000D03*
X146400000Y-99600000D03*
X154270626Y-93925000D03*
%TO.N,Net-(D8-Pad2)*%
X203600000Y-81725000D03*
%TD*%
D31*
%TO.N,GND*%
X123760000Y-78302500D02*
X123760000Y-79377500D01*
X123760000Y-79377500D02*
X124402500Y-80020000D01*
D32*
X43832000Y-96892000D02*
X43750000Y-96810000D01*
X43832000Y-98099500D02*
X43832000Y-96892000D01*
X190100000Y-100762500D02*
X189159500Y-99822000D01*
X189159500Y-99822000D02*
X188468000Y-99822000D01*
D31*
X125540000Y-80020000D02*
X126310000Y-80790000D01*
X124402500Y-80020000D02*
X125540000Y-80020000D01*
D32*
X153562500Y-102637500D02*
X154600000Y-101600000D01*
X152700000Y-102637500D02*
X153562500Y-102637500D01*
X152987500Y-89437500D02*
X153800000Y-90250000D01*
X152700000Y-89437500D02*
X152987500Y-89437500D01*
D31*
X173450000Y-78100000D02*
X173450000Y-80439964D01*
X173450000Y-80439964D02*
X172894982Y-80994982D01*
D32*
X205637500Y-80375000D02*
X206775000Y-80375000D01*
D33*
%TO.N,+3V3*%
X167430000Y-77660000D02*
X167430000Y-79460000D01*
X172450000Y-78100000D02*
X172450000Y-76669998D01*
D32*
X166600000Y-76000000D02*
X166599992Y-76000000D01*
X167450000Y-76850008D02*
X166599992Y-76000000D01*
X167450000Y-78100000D02*
X167450000Y-76850008D01*
D31*
X172450000Y-80450000D02*
X172450000Y-78100000D01*
X171850000Y-81050000D02*
X172450000Y-80450000D01*
X168650000Y-81050000D02*
X171850000Y-81050000D01*
X167450000Y-78100000D02*
X167450000Y-79850000D01*
X167450000Y-79850000D02*
X168650000Y-81050000D01*
D32*
%TO.N,I2C2_SCL*%
X158400000Y-84100000D02*
X159900000Y-82600000D01*
X135000000Y-84100000D02*
X158400000Y-84100000D01*
%TO.N,I2C2_SDA*%
X135000000Y-83000000D02*
X135325001Y-83325001D01*
X135325001Y-83325001D02*
X158222601Y-83325001D01*
X158222601Y-83325001D02*
X158868416Y-82679186D01*
%TO.N,NRST*%
X175450000Y-79485002D02*
X175450000Y-78100000D01*
X169326026Y-85608976D02*
X175450000Y-79485002D01*
X164191024Y-85608976D02*
X169326026Y-85608976D01*
X161200000Y-88600000D02*
X164191024Y-85608976D01*
%TO.N,HOLD_SW*%
X65660000Y-102300000D02*
X66400000Y-102300000D01*
X60910000Y-97550000D02*
X65660000Y-102300000D01*
X153600000Y-103800000D02*
X156000000Y-101400000D01*
X140900000Y-103800000D02*
X153600000Y-103800000D01*
X140200000Y-103100000D02*
X140900000Y-103800000D01*
%TO.N,SWDIO*%
X214600000Y-91050000D02*
X214600000Y-90550000D01*
X213850000Y-91800000D02*
X214600000Y-91050000D01*
X186800000Y-91800000D02*
X213850000Y-91800000D01*
X185300000Y-93300000D02*
X186800000Y-91800000D01*
%TO.N,SWCLK*%
X186541102Y-91175000D02*
X185762815Y-91953287D01*
X211435000Y-91175000D02*
X186541102Y-91175000D01*
X214600000Y-88010000D02*
X211435000Y-91175000D01*
%TO.N,SPI3_SCK*%
X168500000Y-78050000D02*
X168450000Y-78100000D01*
X168500000Y-76000000D02*
X168500000Y-78050000D01*
%TO.N,SPI3_MOSI*%
X169450000Y-79476998D02*
X169450000Y-78100000D01*
X169450000Y-80050004D02*
X169500000Y-80100004D01*
X169450000Y-78100000D02*
X169450000Y-80050004D01*
%TO.N,SWO*%
X213100000Y-83970000D02*
X214600000Y-85470000D01*
X179380000Y-83970000D02*
X213100000Y-83970000D01*
X178050000Y-85300000D02*
X179380000Y-83970000D01*
%TO.N,I2S2_WS*%
X150250008Y-101575010D02*
X149600001Y-100925003D01*
X149600001Y-94799999D02*
X149900000Y-94500000D01*
X154200000Y-98300000D02*
X154200000Y-100766850D01*
X154200000Y-100766850D02*
X153391840Y-101575010D01*
X149600001Y-100925003D02*
X149600001Y-94799999D01*
X153391840Y-101575010D02*
X150250008Y-101575010D01*
D31*
%TO.N,+5V*%
X121160000Y-78302500D02*
X121160000Y-77357498D01*
X121440000Y-77077498D02*
X121160000Y-77357498D01*
X121440000Y-77050000D02*
X121440000Y-77077498D01*
X121440000Y-77077498D02*
X128877498Y-77077498D01*
X133205999Y-77734001D02*
X133460000Y-77480000D01*
X129534001Y-77734001D02*
X133205999Y-77734001D01*
X128877498Y-77077498D02*
X129534001Y-77734001D01*
D32*
%TO.N,Net-(FB3-Pad1)*%
X102870000Y-84857500D02*
X101757500Y-85970000D01*
X102870000Y-82910000D02*
X102870000Y-84857500D01*
X101770000Y-81810000D02*
X102870000Y-82910000D01*
%TO.N,I2S2_SDI*%
X162362808Y-92950009D02*
X167112817Y-88200000D01*
X167112817Y-88200000D02*
X177800000Y-88200000D01*
X151750009Y-92950009D02*
X162362808Y-92950009D01*
X149100000Y-90300000D02*
X151750009Y-92950009D01*
%TO.N,I2S2_SDO*%
X149100000Y-88900000D02*
X152699999Y-92499999D01*
X158225003Y-92499999D02*
X163196415Y-87528587D01*
X163196415Y-87528587D02*
X179463621Y-87528587D01*
X152699999Y-92499999D02*
X158225003Y-92499999D01*
%TO.N,Net-(J1-Pad4)*%
X123110000Y-80692000D02*
X123190000Y-80772000D01*
X123110000Y-78302500D02*
X123110000Y-80692000D01*
D34*
%TO.N,USB_CONN_D+*%
X122460000Y-78302500D02*
X122555999Y-78302500D01*
D35*
X122460000Y-78302500D02*
X122525443Y-78302500D01*
X122367156Y-79407845D02*
X122367156Y-81538837D01*
X123044344Y-82216025D02*
X123283975Y-82216025D01*
X122367156Y-81538837D02*
X123044344Y-82216025D01*
X122460000Y-79315001D02*
X122367156Y-79407845D01*
X122460000Y-78302500D02*
X122460000Y-79315001D01*
D34*
%TO.N,USB_CONN_D-*%
X121810000Y-78302500D02*
X121905999Y-78398499D01*
D35*
X121810000Y-78302500D02*
X121875443Y-78367943D01*
X122716025Y-82544344D02*
X122716025Y-82783975D01*
X121810000Y-78302500D02*
X121810000Y-79315001D01*
X121902844Y-81731163D02*
X122716025Y-82544344D01*
X121810000Y-79315001D02*
X121902844Y-79407845D01*
X121902844Y-79407845D02*
X121902844Y-81731163D01*
%TO.N,USB_D+*%
X135096555Y-82032156D02*
X159534617Y-82032156D01*
X163201492Y-81969442D02*
X166216025Y-84983975D01*
X159597331Y-81969442D02*
X163201492Y-81969442D01*
X132183975Y-79119576D02*
X135096555Y-82032156D01*
X159534617Y-82032156D02*
X159597331Y-81969442D01*
D32*
%TO.N,USB_D-*%
X177600000Y-94900000D02*
X179600000Y-96900000D01*
X179600000Y-96900000D02*
X180450000Y-96900000D01*
D35*
X132779946Y-78551626D02*
X135796164Y-81567844D01*
X132549250Y-78551626D02*
X132779946Y-78551626D01*
X163876269Y-81508319D02*
X166783975Y-84416025D01*
X131616025Y-78551626D02*
X131818700Y-78551626D01*
X132486643Y-78489019D02*
X132549250Y-78551626D01*
X135796164Y-81567844D02*
X159346803Y-81567844D01*
X131881307Y-78489019D02*
X132486643Y-78489019D01*
X159406328Y-81508319D02*
X163876269Y-81508319D01*
X131818700Y-78551626D02*
X131881307Y-78489019D01*
X159346803Y-81567844D02*
X159406328Y-81508319D01*
D33*
%TO.N,Net-(D3-Pad2)*%
X43832000Y-99674500D02*
X43832000Y-99662000D01*
D32*
X42595500Y-99674500D02*
X42570000Y-99700000D01*
X43832000Y-99674500D02*
X42595500Y-99674500D01*
%TO.N,MICBIAS*%
X107188000Y-87884000D02*
X107012000Y-88060000D01*
X107012000Y-88060000D02*
X86028000Y-88060000D01*
X86028000Y-88060000D02*
X83566000Y-85598000D01*
%TO.N,TIM4_CH2*%
X162300000Y-106700000D02*
X160800000Y-108200000D01*
X172400000Y-106700000D02*
X162300000Y-106700000D01*
X173000000Y-106100000D02*
X172400000Y-106700000D01*
%TO.N,TIM3_CH1*%
X102005002Y-102300000D02*
X123698000Y-102300000D01*
X123700002Y-102300000D02*
X150300000Y-102300000D01*
X102108000Y-102300000D02*
X84175000Y-102300000D01*
X79549999Y-106925001D02*
X79250000Y-107225000D01*
X84175000Y-102300000D02*
X79549999Y-106925001D01*
%TO.N,TIM3_CH2*%
X147574000Y-101600000D02*
X83100000Y-101600000D01*
X83100000Y-101600000D02*
X81125000Y-103575000D01*
%TO.N,LCD_DC*%
X170450000Y-80150000D02*
X170450000Y-78100000D01*
%TO.N,LCD_CS*%
X171500000Y-78150000D02*
X171450000Y-78100000D01*
X171400000Y-78150000D02*
X171450000Y-78100000D01*
X171400000Y-80150000D02*
X171400000Y-78150000D01*
%TO.N,Net-(C23-Pad1)*%
X174450000Y-76714998D02*
X174450000Y-78100000D01*
X175064997Y-76100001D02*
X174450000Y-76714998D01*
X176850001Y-76100001D02*
X175064997Y-76100001D01*
X176950000Y-76200000D02*
X176850001Y-76100001D01*
%TO.N,Net-(D4-Pad2)*%
X151437500Y-86300000D02*
X150010000Y-86300000D01*
D33*
X152700000Y-87562500D02*
X151437500Y-86300000D01*
%TO.N,Net-(D5-Pad2)*%
X191362500Y-89437500D02*
X192800000Y-88000000D01*
X190200000Y-89437500D02*
X191362500Y-89437500D01*
D32*
%TO.N,Net-(D6-Pad2)*%
X190100000Y-103400000D02*
X190500000Y-103800000D01*
X190100000Y-102637500D02*
X190100000Y-103400000D01*
%TO.N,Net-(D7-Pad2)*%
X152662500Y-100800000D02*
X152700000Y-100762500D01*
X150400000Y-100800000D02*
X152662500Y-100800000D01*
D33*
%TO.N,Net-(C46-Pad2)*%
X51500000Y-80500000D02*
X45000000Y-80500000D01*
D31*
%TO.N,Net-(D2-Pad2)*%
X136360000Y-78660000D02*
X136400000Y-78700000D01*
X136360000Y-77480000D02*
X136360000Y-78660000D01*
D34*
%TO.N,MIC_+*%
X85390577Y-88100000D02*
X83610000Y-88100000D01*
X85829588Y-88539011D02*
X85390577Y-88100000D01*
X107395479Y-88853479D02*
X107081011Y-88539011D01*
X107081011Y-88539011D02*
X85829588Y-88539011D01*
%TO.N,MIC_-*%
X107996521Y-89454521D02*
X107696522Y-89754520D01*
X107696522Y-89754520D02*
X105354520Y-89754520D01*
X105354520Y-89754520D02*
X104593022Y-88993022D01*
X104593022Y-88993022D02*
X85641530Y-88993021D01*
X85412520Y-88764011D02*
X80141943Y-88764010D01*
X85641530Y-88993021D02*
X85412520Y-88764011D01*
X80141943Y-88764010D02*
X77408834Y-86030901D01*
X77408834Y-86030901D02*
X77408834Y-80847000D01*
D32*
%TO.N,TIM5_CH2*%
X105700000Y-109470000D02*
X168430000Y-109470000D01*
X105700000Y-109470000D02*
X102870000Y-106640000D01*
X102870000Y-106640000D02*
X102850000Y-106640000D01*
X168430000Y-109470000D02*
X170500000Y-107400000D01*
%TO.N,TIM5_CH1*%
X169499989Y-110300011D02*
X104375011Y-110300011D01*
X171500000Y-108300000D02*
X169499989Y-110300011D01*
X104375011Y-110300011D02*
X102600000Y-108525000D01*
%TO.N,LCD_BL2*%
X146800000Y-86400000D02*
X146400000Y-86800000D01*
X153745645Y-93400019D02*
X148500019Y-93400019D01*
X154270626Y-93925000D02*
X153745645Y-93400019D01*
X146400000Y-91300000D02*
X146400000Y-99600000D01*
X148500019Y-93400019D02*
X146400000Y-91300000D01*
X146400000Y-86800000D02*
X146400000Y-91300000D01*
%TO.N,Net-(D8-Pad2)*%
X203762500Y-80375000D02*
X203762500Y-81562500D01*
X203762500Y-81562500D02*
X203600000Y-81725000D01*
%TD*%
M02*
