M48
; DRILL file {KiCad (5.1.8-0-10_14)} date Friday, January 08, 2021 at 02:50:12 PM
; FORMAT={-:-/ absolute / inch / decimal}
; #@! TF.CreationDate,2021-01-08T14:50:12+01:00
; #@! TF.GenerationSoftware,Kicad,Pcbnew,(5.1.8-0-10_14)
; #@! TF.FileFunction,NonPlated,1,4,NPTH
FMAT,2
INCH
T1C0.0354
T2C0.0591
T3C0.0906
T4C0.2461
%
G90
G05
T1
X5.2839Y-2.9776
X5.398Y-2.9776
T2
X5.9528Y-3.0256
X5.9528Y-3.0453
X5.9528Y-3.0748
X5.9528Y-3.0945
X5.9528Y-3.124
X5.9528Y-3.813
X5.9528Y-3.8327
X5.9528Y-3.8622
X5.9528Y-3.8819
X5.9528Y-3.9114
X7.5472Y-3.0256
X7.5472Y-3.0453
X7.5472Y-3.0748
X7.5472Y-3.1043
X7.5472Y-3.124
X7.5472Y-3.813
X7.5472Y-3.8425
X7.5472Y-3.8622
X7.5472Y-3.8917
X7.5472Y-3.9114
T3
X2.0438Y-3.8946
T4
X1.8981Y-3.8946
T0
M30
