M48
; DRILL file {KiCad (5.1.8-0-10_14)} date Saturday, February 06, 2021 at 10:55:04 AM
; FORMAT={-:-/ absolute / inch / decimal}
; #@! TF.CreationDate,2021-02-06T10:55:04+01:00
; #@! TF.GenerationSoftware,Kicad,Pcbnew,(5.1.8-0-10_14)
FMAT,2
INCH
T1C0.0118
T2C0.0157
T3C0.0236
T4C0.0335
T5C0.0394
T6C0.0433
T7C0.0472
T8C0.0591
T9C0.0787
T10C0.0866
T11C0.0354
T12C0.0591
T13C0.0906
T14C0.2461
%
G90
G05
T1
X1.4124Y-3.9961
X1.5Y-4.12
X1.676Y-3.9252
X1.7224Y-3.8114
X1.8701Y-4.0886
X2.1102Y-3.9717
X2.2138Y-3.8795
X2.2406Y-3.737
X2.3051Y-3.7409
X2.398Y-3.8406
X2.5201Y-4.1622
X2.6142Y-4.0276
X2.6161Y-3.2492
X2.8437Y-3.6378
X2.8917Y-3.5839
X2.9106Y-3.2343
X2.9685Y-4.2362
X3.1201Y-4.2215
X3.1939Y-4.0778
X3.29Y-3.37
X3.2917Y-3.4685
X3.3429Y-3.6067
X3.348Y-4.1366
X3.6689Y-3.6067
X3.6831Y-3.1354
X3.8248Y-4.2335
X4.0067Y-3.2209
X4.0209Y-3.5343
X4.0394Y-4.2726
X4.0492Y-4.1984
X4.074Y-3.0839
X4.0815Y-3.5858
X4.0858Y-3.6295
X4.1039Y-3.3043
X4.1189Y-3.4362
X4.1488Y-3.2673
X4.1949Y-3.1571
X4.2047Y-4.1295
X4.22Y-3.46
X4.2282Y-3.4982
X4.2518Y-3.5218
X4.2657Y-3.2071
X4.36Y-3.35
X4.43Y-3.19
X4.6224Y-3.2933
X4.6228Y-3.3319
X4.6232Y-3.4098
X4.6236Y-3.372
X4.626Y-4.2337
X4.8313Y-3.2592
X4.85Y-3.18
X4.8537Y-3.2369
X4.9728Y-3.1807
X5.0591Y-4.1319
X5.0998Y-3.0604
X5.1063Y-3.2559
X5.1817Y-3.0926
X5.2041Y-3.1149
X5.315Y-3.2677
X5.315Y-3.311
X5.3701Y-3.0984
X5.3972Y-3.148
X5.4713Y-3.3508
X5.5197Y-4.0591
X5.5256Y-4.2254
X5.5456Y-3.0098
X5.7638Y-3.9213
X5.7795Y-3.4016
X5.81Y-4.0
X5.8701Y-3.5
X5.8701Y-3.5551
X5.9016Y-3.7205
X5.9059Y-3.3976
X5.9173Y-4.0276
X5.9213Y-3.9685
X6.0551Y-3.5531
X6.0709Y-3.8701
X6.0718Y-3.7714
X6.0736Y-3.6978
X6.0752Y-3.8284
X6.0866Y-4.0
X6.0886Y-3.0709
X6.0965Y-3.5197
X6.1181Y-3.2559
X6.1417Y-3.9921
X6.1933Y-3.3563
X6.2169Y-3.3811
X6.2441Y-3.9685
X6.2547Y-3.2551
X6.2736Y-4.0256
X6.2953Y-3.252
X6.3061Y-3.2992
X6.3307Y-4.2598
X6.3465Y-3.4882
X6.3622Y-3.1378
X6.376Y-4.1181
X6.3839Y-3.252
X6.3976Y-4.2638
X6.4094Y-4.1673
X6.4193Y-3.1555
X6.4646Y-2.9921
X6.4941Y-3.1063
X6.5079Y-4.2852
X6.5152Y-3.0286
X6.5256Y-3.0669
X6.5433Y-4.2559
X6.5439Y-3.3458
X6.5591Y-2.9921
X6.5663Y-3.3235
X6.6339Y-2.9921
X6.6732Y-3.1535
X6.7106Y-3.1555
X6.7126Y-4.2283
X6.748Y-3.1555
X6.752Y-4.2638
X6.8069Y-3.1888
X6.811Y-4.1772
X6.876Y-2.9764
X6.937Y-2.9715
X6.9547Y-4.2992
X6.9665Y-3.0
X6.9921Y-3.7362
X7.0Y-3.4724
X7.0024Y-3.0043
X7.0098Y-3.3583
X7.0157Y-4.2106
X7.0177Y-4.3189
X7.0655Y-3.446
X7.0709Y-4.1476
X7.0748Y-3.1732
X7.1035Y-3.1213
X7.1043Y-3.815
X7.1323Y-2.9902
X7.1547Y-3.2648
X7.1713Y-4.0591
X7.1943Y-3.1391
X7.2146Y-3.3305
X7.2421Y-4.0177
X7.2769Y-3.3504
X7.2791Y-3.022
X7.2953Y-3.6732
X7.3135Y-3.6202
X7.3248Y-3.9606
X7.3937Y-3.4961
X7.4016Y-3.872
X7.42Y-3.93
X7.435Y-3.7992
X7.4567Y-3.563
X7.4843Y-3.4449
X7.5Y-4.0866
X7.5906Y-3.4646
X7.61Y-2.99
X7.63Y-3.41
X7.66Y-3.37
X7.86Y-3.46
X7.88Y-3.17
X7.88Y-3.2671
X7.9734Y-4.1673
X8.0148Y-3.5305
X8.0157Y-3.2175
X8.1407Y-3.1644
X8.1634Y-3.5413
X8.1781Y-4.1673
X8.437Y-4.1575
T2
X5.7958Y-3.1701
X1.3671Y-3.0167
X1.3862Y-2.9708
X1.3862Y-3.0627
X1.4321Y-2.9518
X1.4321Y-3.0817
X1.478Y-2.9708
X1.478Y-3.0627
X1.497Y-3.0167
X8.3986Y-3.0177
X8.4176Y-2.9718
X8.4176Y-3.0637
X8.4636Y-2.9528
X8.4636Y-3.0827
X8.5095Y-2.9718
X8.5095Y-3.0637
X8.5285Y-3.0177
X1.3671Y-4.2894
X1.3862Y-4.2434
X1.3862Y-4.3353
X1.4321Y-4.2244
X1.4321Y-4.3543
X1.478Y-4.2434
X1.478Y-4.3353
X1.497Y-4.2894
X1.3671Y-3.0167
X1.3862Y-2.9708
X1.3862Y-3.0627
X1.4321Y-2.9518
X1.4321Y-3.0817
X1.478Y-2.9708
X1.478Y-3.0627
X1.497Y-3.0167
X8.3986Y-4.2894
X8.4176Y-4.2434
X8.4176Y-4.3353
X8.4636Y-4.2244
X8.4636Y-4.3543
X8.5095Y-4.2434
X8.5095Y-4.3353
X8.5285Y-4.2894
T4
X4.7228Y-3.0828
X4.9197Y-3.0828
T5
X3.5558Y-4.151
X3.6542Y-4.151
X3.7527Y-4.151
X2.7034Y-4.151
X2.8018Y-4.151
X2.9002Y-4.151
X8.4488Y-3.365
X8.4488Y-3.465
X8.4488Y-3.565
X8.4488Y-3.665
X8.4488Y-3.765
X7.9616Y-3.4301
X7.9616Y-4.001
X8.06Y-4.001
X8.1585Y-3.4301
X8.1585Y-4.001
X5.2548Y-4.151
X5.3533Y-4.151
X5.4517Y-4.151
X4.4083Y-4.151
X4.5067Y-4.151
X4.6051Y-4.151
T6
X1.7717Y-3.1693
X1.7717Y-3.3465
X2.0276Y-3.1693
X2.0276Y-3.3465
T7
X2.028Y-4.0572
X2.1363Y-3.8946
X3.5268Y-3.1051
X3.5268Y-3.3453
X3.9117Y-3.1051
X3.9117Y-3.3453
X3.142Y-3.1051
X3.142Y-3.3453
X2.7571Y-3.1051
X2.7571Y-3.3453
T9
X6.0709Y-4.2559
X7.4291Y-3.2126
T10
X1.4321Y-3.0167
X2.5813Y-3.8557
X3.0223Y-3.8557
X8.4636Y-4.2894
X1.4321Y-3.0167
X8.4636Y-3.0177
X1.4321Y-4.2894
T11
X5.2839Y-2.9776
X5.398Y-2.9776
T12
X5.9528Y-3.0256
X5.9528Y-3.0453
X5.9528Y-3.0748
X5.9528Y-3.0945
X5.9528Y-3.124
X5.9528Y-3.813
X5.9528Y-3.8327
X5.9528Y-3.8622
X5.9528Y-3.8819
X5.9528Y-3.9114
X7.5472Y-3.0256
X7.5472Y-3.0453
X7.5472Y-3.0748
X7.5472Y-3.1043
X7.5472Y-3.124
X7.5472Y-3.813
X7.5472Y-3.8425
X7.5472Y-3.8622
X7.5472Y-3.8917
X7.5472Y-3.9114
T13
X2.0438Y-3.8946
T14
X1.8981Y-3.8946
T3
G00X3.4325Y-3.1948
M15
G01X3.4325Y-3.1711
M16
G05
G00X3.6213Y-3.1187
M15
G01X3.6213Y-3.095
M16
G05
G00X3.6213Y-3.3965
M15
G01X3.6213Y-3.3728
M16
G05
G00X3.8173Y-3.1948
M15
G01X3.8173Y-3.1711
M16
G05
G00X4.0062Y-3.1187
M15
G01X4.0062Y-3.095
M16
G05
G00X4.0062Y-3.3965
M15
G01X4.0062Y-3.3728
M16
G05
G00X3.0476Y-3.1948
M15
G01X3.0476Y-3.1711
M16
G05
G00X3.2365Y-3.1187
M15
G01X3.2365Y-3.095
M16
G05
G00X3.2365Y-3.3965
M15
G01X3.2365Y-3.3728
M16
G05
G00X4.6835Y-2.9903
M15
G01X4.6835Y-2.9627
M16
G05
G00X4.9591Y-2.9627
M15
G01X4.9591Y-2.9903
M16
G05
G00X2.6627Y-3.1948
M15
G01X2.6627Y-3.1711
M16
G05
G00X2.8516Y-3.1187
M15
G01X2.8516Y-3.095
M16
G05
G00X2.8516Y-3.3965
M15
G01X2.8516Y-3.3728
M16
G05
T8
G00X7.8396Y-3.7313
M15
G01X7.8396Y-3.6801
M16
G05
G00X8.2805Y-3.7313
M15
G01X8.2805Y-3.6801
M16
G05
T9
G00X3.4338Y-3.8656
M15
G01X3.4338Y-3.8459
M16
G05
G00X3.8747Y-3.8656
M15
G01X3.8747Y-3.8459
M16
G05
G00X5.1328Y-3.8656
M15
G01X5.1328Y-3.8459
M16
G05
G00X5.5737Y-3.8656
M15
G01X5.5737Y-3.8459
M16
G05
G00X4.2862Y-3.8656
M15
G01X4.2862Y-3.8459
M16
G05
G00X4.7272Y-3.8656
M15
G01X4.7272Y-3.8459
M16
G05
T0
M30
