%TF.GenerationSoftware,KiCad,Pcbnew,(5.1.8-0-10_14)*%
%TF.CreationDate,2021-01-08T14:50:06+01:00*%
%TF.ProjectId,PoundingSystem,506f756e-6469-46e6-9753-797374656d2e,rev?*%
%TF.SameCoordinates,Original*%
%TF.FileFunction,Legend,Bot*%
%TF.FilePolarity,Positive*%
%FSLAX46Y46*%
G04 Gerber Fmt 4.6, Leading zero omitted, Abs format (unit mm)*
G04 Created by KiCad (PCBNEW (5.1.8-0-10_14)) date 2021-01-08 14:50:06*
%MOMM*%
%LPD*%
G01*
G04 APERTURE LIST*
%ADD10C,0.120000*%
%ADD11C,0.100000*%
%ADD12C,0.150000*%
G04 APERTURE END LIST*
D10*
%TO.C,SW1*%
X204700000Y-98435000D02*
X204700000Y-97435000D01*
X205200000Y-97935000D02*
X204200000Y-97935000D01*
X201200000Y-91835000D02*
X198800000Y-91835000D01*
X206000000Y-91835000D02*
X203400000Y-91835000D01*
X210600000Y-91835000D02*
X208200000Y-91835000D01*
X208800000Y-105135000D02*
X208500000Y-105435000D01*
X208800000Y-105735000D02*
X208800000Y-105135000D01*
X208500000Y-105435000D02*
X208800000Y-105735000D01*
X210600000Y-104035000D02*
X198800000Y-104035000D01*
X210600000Y-99935000D02*
X210600000Y-104035000D01*
X198800000Y-99935000D02*
X198800000Y-104035000D01*
X198800000Y-91835000D02*
X198800000Y-95935000D01*
X210600000Y-95935000D02*
X210600000Y-91835000D01*
X207700000Y-97935000D02*
G75*
G03*
X207700000Y-97935000I-3000000J0D01*
G01*
%TO.C,SW4*%
X92817920Y-98435000D02*
X92817920Y-97435000D01*
X93317920Y-97935000D02*
X92317920Y-97935000D01*
X96917920Y-105135000D02*
X96617920Y-105435000D01*
X96917920Y-105735000D02*
X96917920Y-105135000D01*
X96617920Y-105435000D02*
X96917920Y-105735000D01*
X99117920Y-104635000D02*
X96617920Y-104635000D01*
X99117920Y-99835000D02*
X99117920Y-104635000D01*
X86517920Y-104635000D02*
X89317920Y-104635000D01*
X86517920Y-99735000D02*
X86517920Y-104635000D01*
X86517920Y-91235000D02*
X86517920Y-96135000D01*
X99117920Y-91235000D02*
X86517920Y-91235000D01*
X99117920Y-96135000D02*
X99117920Y-91235000D01*
X95817920Y-97935000D02*
G75*
G03*
X95817920Y-97935000I-3000000J0D01*
G01*
%TO.C,SW3*%
X114470280Y-98435000D02*
X114470280Y-97435000D01*
X114970280Y-97935000D02*
X113970280Y-97935000D01*
X118570280Y-105135000D02*
X118270280Y-105435000D01*
X118570280Y-105735000D02*
X118570280Y-105135000D01*
X118270280Y-105435000D02*
X118570280Y-105735000D01*
X120770280Y-104635000D02*
X118270280Y-104635000D01*
X120770280Y-99835000D02*
X120770280Y-104635000D01*
X108170280Y-104635000D02*
X110970280Y-104635000D01*
X108170280Y-99735000D02*
X108170280Y-104635000D01*
X108170280Y-91235000D02*
X108170280Y-96135000D01*
X120770280Y-91235000D02*
X108170280Y-91235000D01*
X120770280Y-96135000D02*
X120770280Y-91235000D01*
X117470280Y-97935000D02*
G75*
G03*
X117470280Y-97935000I-3000000J0D01*
G01*
%TO.C,SW7*%
X46000000Y-79500000D02*
X50500000Y-79500000D01*
X44750000Y-83500000D02*
X44750000Y-82000000D01*
X50500000Y-86000000D02*
X46000000Y-86000000D01*
X51750000Y-82000000D02*
X51750000Y-83500000D01*
%TO.C,SW6*%
X202168000Y-79500000D02*
X206668000Y-79500000D01*
X200918000Y-83500000D02*
X200918000Y-82000000D01*
X206668000Y-86000000D02*
X202168000Y-86000000D01*
X207918000Y-82000000D02*
X207918000Y-83500000D01*
D11*
%TO.C,SW9*%
X139210000Y-76855000D02*
X138860000Y-77230000D01*
X138860000Y-77230000D02*
X138260000Y-77230000D01*
X138260000Y-77230000D02*
X138260000Y-77830000D01*
X138709999Y-74105000D02*
X139185001Y-74105000D01*
X139185001Y-74105000D02*
X139185000Y-74504999D01*
X132135000Y-76780000D02*
X132134999Y-77155000D01*
X132134999Y-77155000D02*
X132485000Y-77155000D01*
X132535000Y-74105000D02*
X132134999Y-74105000D01*
X132134999Y-74105000D02*
X132135000Y-74480000D01*
D10*
%TO.C,D7*%
X153660000Y-100700000D02*
X153660000Y-103385000D01*
X153660000Y-103385000D02*
X151740000Y-103385000D01*
X151740000Y-103385000D02*
X151740000Y-100700000D01*
%TO.C,D6*%
X189140000Y-102700000D02*
X189140000Y-100015000D01*
X189140000Y-100015000D02*
X191060000Y-100015000D01*
X191060000Y-100015000D02*
X191060000Y-102700000D01*
%TO.C,D5*%
X189240000Y-89500000D02*
X189240000Y-86815000D01*
X189240000Y-86815000D02*
X191160000Y-86815000D01*
X191160000Y-86815000D02*
X191160000Y-89500000D01*
%TO.C,D4*%
X153660000Y-87500000D02*
X153660000Y-90185000D01*
X153660000Y-90185000D02*
X151740000Y-90185000D01*
X151740000Y-90185000D02*
X151740000Y-87500000D01*
D12*
%TO.C,U5*%
X191450000Y-75600000D02*
X191450000Y-110350000D01*
X151450000Y-75600000D02*
X151450000Y-110350000D01*
X151450000Y-99600000D02*
X153950000Y-99600000D01*
X153950000Y-99600000D02*
X153950000Y-103600000D01*
X153950000Y-103600000D02*
X151450000Y-103600000D01*
X191450000Y-99600000D02*
X188950000Y-99600000D01*
X188950000Y-99600000D02*
X188950000Y-103600000D01*
X188950000Y-103600000D02*
X191450000Y-103600000D01*
X151450000Y-86600000D02*
X153950000Y-86600000D01*
X153950000Y-86600000D02*
X153950000Y-90600000D01*
X153950000Y-90600000D02*
X151450000Y-90600000D01*
X191450000Y-86600000D02*
X188950000Y-86600000D01*
X188950000Y-86600000D02*
X188950000Y-90600000D01*
X188950000Y-90600000D02*
X191450000Y-90600000D01*
X151450000Y-110350000D02*
X191450000Y-110350000D01*
X191450000Y-75600000D02*
X151450000Y-75600000D01*
D10*
%TO.C,SW8*%
X71165560Y-98435000D02*
X71165560Y-97435000D01*
X71665560Y-97935000D02*
X70665560Y-97935000D01*
X75265560Y-105135000D02*
X74965560Y-105435000D01*
X75265560Y-105735000D02*
X75265560Y-105135000D01*
X74965560Y-105435000D02*
X75265560Y-105735000D01*
X77465560Y-104635000D02*
X74965560Y-104635000D01*
X77465560Y-99835000D02*
X77465560Y-104635000D01*
X64865560Y-104635000D02*
X67665560Y-104635000D01*
X64865560Y-99735000D02*
X64865560Y-104635000D01*
X64865560Y-91235000D02*
X64865560Y-96135000D01*
X77465560Y-91235000D02*
X64865560Y-91235000D01*
X77465560Y-96135000D02*
X77465560Y-91235000D01*
X74165560Y-97935000D02*
G75*
G03*
X74165560Y-97935000I-3000000J0D01*
G01*
%TO.C,D3*%
X44567000Y-97402000D02*
X44567000Y-99687000D01*
X43097000Y-97402000D02*
X44567000Y-97402000D01*
X43097000Y-99687000D02*
X43097000Y-97402000D01*
%TO.C,J6*%
X209960000Y-108220000D02*
X209960000Y-110880000D01*
X199740000Y-108220000D02*
X209960000Y-108220000D01*
X199740000Y-110880000D02*
X209960000Y-110880000D01*
X199740000Y-108220000D02*
X199740000Y-110880000D01*
X198470000Y-108220000D02*
X197140000Y-108220000D01*
X197140000Y-108220000D02*
X197140000Y-109550000D01*
%TO.C,SW2*%
X138972640Y-97935000D02*
G75*
G03*
X138972640Y-97935000I-3000000J0D01*
G01*
X142272640Y-96135000D02*
X142272640Y-91235000D01*
X142272640Y-91235000D02*
X129672640Y-91235000D01*
X129672640Y-91235000D02*
X129672640Y-96135000D01*
X129672640Y-99735000D02*
X129672640Y-104635000D01*
X129672640Y-104635000D02*
X132472640Y-104635000D01*
X142272640Y-99835000D02*
X142272640Y-104635000D01*
X142272640Y-104635000D02*
X139772640Y-104635000D01*
X139772640Y-105435000D02*
X140072640Y-105735000D01*
X140072640Y-105735000D02*
X140072640Y-105135000D01*
X140072640Y-105135000D02*
X139772640Y-105435000D01*
X136472640Y-97935000D02*
X135472640Y-97935000D01*
X135972640Y-98435000D02*
X135972640Y-97435000D01*
%TO.C,J1*%
X118560000Y-78602500D02*
X119010000Y-78602500D01*
X118560000Y-76752500D02*
X118560000Y-78602500D01*
X126360000Y-74202500D02*
X126360000Y-74452500D01*
X118560000Y-74202500D02*
X118560000Y-74452500D01*
X126360000Y-76752500D02*
X126360000Y-78602500D01*
X126360000Y-78602500D02*
X125910000Y-78602500D01*
X120760000Y-79152500D02*
X121210000Y-79152500D01*
X120760000Y-79152500D02*
X120760000Y-78702500D01*
%TD*%
D11*
%TO.C,U5*%
X151900000Y-77350000D02*
G75*
G03*
X151900000Y-77350000I-700000J0D01*
G01*
X151900000Y-79350000D02*
G75*
G03*
X151900000Y-79350000I-700000J0D01*
G01*
X151900000Y-76850000D02*
G75*
G03*
X151900000Y-76850000I-700000J0D01*
G01*
X192650000Y-79350000D02*
X192650000Y-76850000D01*
X190750000Y-79350000D02*
X190750000Y-76850000D01*
X192650000Y-76850000D02*
G75*
G03*
X190750000Y-76850000I-950000J0D01*
G01*
X190750000Y-79350000D02*
G75*
G03*
X192650000Y-79350000I950000J0D01*
G01*
X152150000Y-79350000D02*
X152150000Y-76850000D01*
X150250000Y-79350000D02*
X150250000Y-76850000D01*
X152150000Y-76850000D02*
G75*
G03*
X150250000Y-76850000I-950000J0D01*
G01*
X150250000Y-79350000D02*
G75*
G03*
X152150000Y-79350000I950000J0D01*
G01*
X192650000Y-99350000D02*
X192650000Y-96850000D01*
X190750000Y-99350000D02*
X190750000Y-96850000D01*
X192650000Y-96850000D02*
G75*
G03*
X190750000Y-96850000I-950000J0D01*
G01*
X190750000Y-99350000D02*
G75*
G03*
X192650000Y-99350000I950000J0D01*
G01*
X152150000Y-99350000D02*
X152150000Y-96850000D01*
X150250000Y-99350000D02*
X150250000Y-96850000D01*
X152150000Y-96850000D02*
G75*
G03*
X150250000Y-96850000I-950000J0D01*
G01*
X150250000Y-99350000D02*
G75*
G03*
X152150000Y-99350000I950000J0D01*
G01*
X151900000Y-78600000D02*
G75*
G03*
X151900000Y-78600000I-700000J0D01*
G01*
X151900000Y-96850000D02*
G75*
G03*
X151900000Y-96850000I-700000J0D01*
G01*
X151900000Y-99350000D02*
G75*
G03*
X151900000Y-99350000I-700000J0D01*
G01*
X192400000Y-77350000D02*
G75*
G03*
X192400000Y-77350000I-700000J0D01*
G01*
X192400000Y-76850000D02*
G75*
G03*
X192400000Y-76850000I-700000J0D01*
G01*
X192400000Y-78850000D02*
G75*
G03*
X192400000Y-78850000I-700000J0D01*
G01*
X192400000Y-79350000D02*
G75*
G03*
X192400000Y-79350000I-700000J0D01*
G01*
X192400000Y-96850000D02*
G75*
G03*
X192400000Y-96850000I-700000J0D01*
G01*
X192400000Y-99350000D02*
G75*
G03*
X192400000Y-99350000I-700000J0D01*
G01*
X192400000Y-97600000D02*
G75*
G03*
X192400000Y-97600000I-700000J0D01*
G01*
X192400000Y-98850000D02*
G75*
G03*
X192400000Y-98850000I-700000J0D01*
G01*
X151900000Y-97350000D02*
G75*
G03*
X151900000Y-97350000I-700000J0D01*
G01*
X151900000Y-98600000D02*
G75*
G03*
X151900000Y-98600000I-700000J0D01*
G01*
%TD*%
%TO.C,SW1*%
D12*
X212304761Y-101301666D02*
X212352380Y-101444523D01*
X212352380Y-101682619D01*
X212304761Y-101777857D01*
X212257142Y-101825476D01*
X212161904Y-101873095D01*
X212066666Y-101873095D01*
X211971428Y-101825476D01*
X211923809Y-101777857D01*
X211876190Y-101682619D01*
X211828571Y-101492142D01*
X211780952Y-101396904D01*
X211733333Y-101349285D01*
X211638095Y-101301666D01*
X211542857Y-101301666D01*
X211447619Y-101349285D01*
X211400000Y-101396904D01*
X211352380Y-101492142D01*
X211352380Y-101730238D01*
X211400000Y-101873095D01*
X211352380Y-102206428D02*
X212352380Y-102444523D01*
X211638095Y-102635000D01*
X212352380Y-102825476D01*
X211352380Y-103063571D01*
X212352380Y-103968333D02*
X212352380Y-103396904D01*
X212352380Y-103682619D02*
X211352380Y-103682619D01*
X211495238Y-103587380D01*
X211590476Y-103492142D01*
X211638095Y-103396904D01*
%TO.C,SW4*%
X100422681Y-101301666D02*
X100470300Y-101444523D01*
X100470300Y-101682619D01*
X100422681Y-101777857D01*
X100375062Y-101825476D01*
X100279824Y-101873095D01*
X100184586Y-101873095D01*
X100089348Y-101825476D01*
X100041729Y-101777857D01*
X99994110Y-101682619D01*
X99946491Y-101492142D01*
X99898872Y-101396904D01*
X99851253Y-101349285D01*
X99756015Y-101301666D01*
X99660777Y-101301666D01*
X99565539Y-101349285D01*
X99517920Y-101396904D01*
X99470300Y-101492142D01*
X99470300Y-101730238D01*
X99517920Y-101873095D01*
X99470300Y-102206428D02*
X100470300Y-102444523D01*
X99756015Y-102635000D01*
X100470300Y-102825476D01*
X99470300Y-103063571D01*
X99803634Y-103873095D02*
X100470300Y-103873095D01*
X99422681Y-103635000D02*
X100136967Y-103396904D01*
X100136967Y-104015952D01*
%TO.C,SW3*%
X122075041Y-101301666D02*
X122122660Y-101444523D01*
X122122660Y-101682619D01*
X122075041Y-101777857D01*
X122027422Y-101825476D01*
X121932184Y-101873095D01*
X121836946Y-101873095D01*
X121741708Y-101825476D01*
X121694089Y-101777857D01*
X121646470Y-101682619D01*
X121598851Y-101492142D01*
X121551232Y-101396904D01*
X121503613Y-101349285D01*
X121408375Y-101301666D01*
X121313137Y-101301666D01*
X121217899Y-101349285D01*
X121170280Y-101396904D01*
X121122660Y-101492142D01*
X121122660Y-101730238D01*
X121170280Y-101873095D01*
X121122660Y-102206428D02*
X122122660Y-102444523D01*
X121408375Y-102635000D01*
X122122660Y-102825476D01*
X121122660Y-103063571D01*
X121122660Y-103349285D02*
X121122660Y-103968333D01*
X121503613Y-103635000D01*
X121503613Y-103777857D01*
X121551232Y-103873095D01*
X121598851Y-103920714D01*
X121694089Y-103968333D01*
X121932184Y-103968333D01*
X122027422Y-103920714D01*
X122075041Y-103873095D01*
X122122660Y-103777857D01*
X122122660Y-103492142D01*
X122075041Y-103396904D01*
X122027422Y-103349285D01*
%TO.C,J5*%
X95702380Y-78899333D02*
X94702380Y-78899333D01*
X95178571Y-78899333D02*
X95178571Y-79470761D01*
X95702380Y-79470761D02*
X94702380Y-79470761D01*
X95178571Y-79946952D02*
X95178571Y-80280285D01*
X95702380Y-80423142D02*
X95702380Y-79946952D01*
X94702380Y-79946952D01*
X94702380Y-80423142D01*
X95416666Y-80804095D02*
X95416666Y-81280285D01*
X95702380Y-80708857D02*
X94702380Y-81042190D01*
X95702380Y-81375523D01*
X95702380Y-81708857D02*
X94702380Y-81708857D01*
X94702380Y-81946952D01*
X94750000Y-82089809D01*
X94845238Y-82185047D01*
X94940476Y-82232666D01*
X95130952Y-82280285D01*
X95273809Y-82280285D01*
X95464285Y-82232666D01*
X95559523Y-82185047D01*
X95654761Y-82089809D01*
X95702380Y-81946952D01*
X95702380Y-81708857D01*
X95702380Y-82708857D02*
X94702380Y-82708857D01*
X94702380Y-83089809D01*
X94750000Y-83185047D01*
X94797619Y-83232666D01*
X94892857Y-83280285D01*
X95035714Y-83280285D01*
X95130952Y-83232666D01*
X95178571Y-83185047D01*
X95226190Y-83089809D01*
X95226190Y-82708857D01*
X95702380Y-83708857D02*
X94702380Y-83708857D01*
X95178571Y-83708857D02*
X95178571Y-84280285D01*
X95702380Y-84280285D02*
X94702380Y-84280285D01*
X94702380Y-84946952D02*
X94702380Y-85137428D01*
X94750000Y-85232666D01*
X94845238Y-85327904D01*
X95035714Y-85375523D01*
X95369047Y-85375523D01*
X95559523Y-85327904D01*
X95654761Y-85232666D01*
X95702380Y-85137428D01*
X95702380Y-84946952D01*
X95654761Y-84851714D01*
X95559523Y-84756476D01*
X95369047Y-84708857D01*
X95035714Y-84708857D01*
X94845238Y-84756476D01*
X94750000Y-84851714D01*
X94702380Y-84946952D01*
X95702380Y-85804095D02*
X94702380Y-85804095D01*
X95702380Y-86375523D01*
X94702380Y-86375523D01*
X95178571Y-86851714D02*
X95178571Y-87185047D01*
X95702380Y-87327904D02*
X95702380Y-86851714D01*
X94702380Y-86851714D01*
X94702380Y-87327904D01*
X95654761Y-87708857D02*
X95702380Y-87851714D01*
X95702380Y-88089809D01*
X95654761Y-88185047D01*
X95607142Y-88232666D01*
X95511904Y-88280285D01*
X95416666Y-88280285D01*
X95321428Y-88232666D01*
X95273809Y-88185047D01*
X95226190Y-88089809D01*
X95178571Y-87899333D01*
X95130952Y-87804095D01*
X95083333Y-87756476D01*
X94988095Y-87708857D01*
X94892857Y-87708857D01*
X94797619Y-87756476D01*
X94750000Y-87804095D01*
X94702380Y-87899333D01*
X94702380Y-88137428D01*
X94750000Y-88280285D01*
%TO.C,SW9*%
X136827904Y-74767045D02*
X136727904Y-74800378D01*
X136561237Y-74800378D01*
X136494571Y-74767045D01*
X136461237Y-74733712D01*
X136427904Y-74667045D01*
X136427904Y-74600378D01*
X136461237Y-74533712D01*
X136494571Y-74500378D01*
X136561237Y-74467045D01*
X136694571Y-74433712D01*
X136761237Y-74400378D01*
X136794571Y-74367045D01*
X136827904Y-74300378D01*
X136827904Y-74233712D01*
X136794571Y-74167045D01*
X136761237Y-74133712D01*
X136694571Y-74100378D01*
X136527904Y-74100378D01*
X136427904Y-74133712D01*
X136194571Y-74100378D02*
X136027904Y-74800378D01*
X135894571Y-74300378D01*
X135761237Y-74800378D01*
X135594571Y-74100378D01*
X135294571Y-74800378D02*
X135161237Y-74800378D01*
X135094571Y-74767045D01*
X135061237Y-74733712D01*
X134994571Y-74633712D01*
X134961237Y-74500378D01*
X134961237Y-74233712D01*
X134994571Y-74167045D01*
X135027904Y-74133712D01*
X135094571Y-74100378D01*
X135227904Y-74100378D01*
X135294571Y-74133712D01*
X135327904Y-74167045D01*
X135361237Y-74233712D01*
X135361237Y-74400378D01*
X135327904Y-74467045D01*
X135294571Y-74500378D01*
X135227904Y-74533712D01*
X135094571Y-74533712D01*
X135027904Y-74500378D01*
X134994571Y-74467045D01*
X134961237Y-74400378D01*
%TO.C,J2*%
X86050380Y-82121714D02*
X86050380Y-81645523D01*
X85050380Y-81645523D01*
X86050380Y-82455047D02*
X85050380Y-82455047D01*
X86050380Y-82931238D02*
X85050380Y-82931238D01*
X86050380Y-83502666D01*
X85050380Y-83502666D01*
X85526571Y-83978857D02*
X85526571Y-84312190D01*
X86050380Y-84455047D02*
X86050380Y-83978857D01*
X85050380Y-83978857D01*
X85050380Y-84455047D01*
X85050380Y-85836000D02*
X85050380Y-86026476D01*
X85098000Y-86121714D01*
X85193238Y-86216952D01*
X85383714Y-86264571D01*
X85717047Y-86264571D01*
X85907523Y-86216952D01*
X86002761Y-86121714D01*
X86050380Y-86026476D01*
X86050380Y-85836000D01*
X86002761Y-85740761D01*
X85907523Y-85645523D01*
X85717047Y-85597904D01*
X85383714Y-85597904D01*
X85193238Y-85645523D01*
X85098000Y-85740761D01*
X85050380Y-85836000D01*
X85050380Y-86693142D02*
X85859904Y-86693142D01*
X85955142Y-86740761D01*
X86002761Y-86788380D01*
X86050380Y-86883619D01*
X86050380Y-87074095D01*
X86002761Y-87169333D01*
X85955142Y-87216952D01*
X85859904Y-87264571D01*
X85050380Y-87264571D01*
X85050380Y-87597904D02*
X85050380Y-88169333D01*
X86050380Y-87883619D02*
X85050380Y-87883619D01*
%TO.C,J4*%
X66492380Y-83550380D02*
X66492380Y-83074190D01*
X65492380Y-83074190D01*
X66492380Y-83883714D02*
X65492380Y-83883714D01*
X66492380Y-84359904D02*
X65492380Y-84359904D01*
X66492380Y-84931333D01*
X65492380Y-84931333D01*
X65968571Y-85407523D02*
X65968571Y-85740857D01*
X66492380Y-85883714D02*
X66492380Y-85407523D01*
X65492380Y-85407523D01*
X65492380Y-85883714D01*
X66492380Y-87074190D02*
X65492380Y-87074190D01*
X66492380Y-87550380D02*
X65492380Y-87550380D01*
X66492380Y-88121809D01*
X65492380Y-88121809D01*
%TO.C,J3*%
X76144380Y-78946952D02*
X75144380Y-78946952D01*
X75858666Y-79280285D01*
X75144380Y-79613619D01*
X76144380Y-79613619D01*
X76144380Y-80089809D02*
X75144380Y-80089809D01*
X76049142Y-81137428D02*
X76096761Y-81089809D01*
X76144380Y-80946952D01*
X76144380Y-80851714D01*
X76096761Y-80708857D01*
X76001523Y-80613619D01*
X75906285Y-80566000D01*
X75715809Y-80518380D01*
X75572952Y-80518380D01*
X75382476Y-80566000D01*
X75287238Y-80613619D01*
X75192000Y-80708857D01*
X75144380Y-80851714D01*
X75144380Y-80946952D01*
X75192000Y-81089809D01*
X75239619Y-81137428D01*
X76144380Y-82137428D02*
X75668190Y-81804095D01*
X76144380Y-81566000D02*
X75144380Y-81566000D01*
X75144380Y-81946952D01*
X75192000Y-82042190D01*
X75239619Y-82089809D01*
X75334857Y-82137428D01*
X75477714Y-82137428D01*
X75572952Y-82089809D01*
X75620571Y-82042190D01*
X75668190Y-81946952D01*
X75668190Y-81566000D01*
X75144380Y-82756476D02*
X75144380Y-82946952D01*
X75192000Y-83042190D01*
X75287238Y-83137428D01*
X75477714Y-83185047D01*
X75811047Y-83185047D01*
X76001523Y-83137428D01*
X76096761Y-83042190D01*
X76144380Y-82946952D01*
X76144380Y-82756476D01*
X76096761Y-82661238D01*
X76001523Y-82566000D01*
X75811047Y-82518380D01*
X75477714Y-82518380D01*
X75287238Y-82566000D01*
X75192000Y-82661238D01*
X75144380Y-82756476D01*
X76144380Y-83613619D02*
X75144380Y-83613619D01*
X75144380Y-83994571D01*
X75192000Y-84089809D01*
X75239619Y-84137428D01*
X75334857Y-84185047D01*
X75477714Y-84185047D01*
X75572952Y-84137428D01*
X75620571Y-84089809D01*
X75668190Y-83994571D01*
X75668190Y-83613619D01*
X76144380Y-84613619D02*
X75144380Y-84613619D01*
X75620571Y-84613619D02*
X75620571Y-85185047D01*
X76144380Y-85185047D02*
X75144380Y-85185047D01*
X75144380Y-85851714D02*
X75144380Y-86042190D01*
X75192000Y-86137428D01*
X75287238Y-86232666D01*
X75477714Y-86280285D01*
X75811047Y-86280285D01*
X76001523Y-86232666D01*
X76096761Y-86137428D01*
X76144380Y-86042190D01*
X76144380Y-85851714D01*
X76096761Y-85756476D01*
X76001523Y-85661238D01*
X75811047Y-85613619D01*
X75477714Y-85613619D01*
X75287238Y-85661238D01*
X75192000Y-85756476D01*
X75144380Y-85851714D01*
X76144380Y-86708857D02*
X75144380Y-86708857D01*
X76144380Y-87280285D01*
X75144380Y-87280285D01*
X75620571Y-87756476D02*
X75620571Y-88089809D01*
X76144380Y-88232666D02*
X76144380Y-87756476D01*
X75144380Y-87756476D01*
X75144380Y-88232666D01*
%TD*%
M02*
