%TF.GenerationSoftware,KiCad,Pcbnew,(5.1.8-0-10_14)*%
%TF.CreationDate,2021-02-06T10:55:23+01:00*%
%TF.ProjectId,PoundingSystem,506f756e-6469-46e6-9753-797374656d2e,rev?*%
%TF.SameCoordinates,Original*%
%TF.FileFunction,Legend,Bot*%
%TF.FilePolarity,Positive*%
%FSLAX46Y46*%
G04 Gerber Fmt 4.6, Leading zero omitted, Abs format (unit mm)*
G04 Created by KiCad (PCBNEW (5.1.8-0-10_14)) date 2021-02-06 10:55:23*
%MOMM*%
%LPD*%
G01*
G04 APERTURE LIST*
%ADD10C,0.010000*%
%ADD11C,0.120000*%
%ADD12C,0.100000*%
%ADD13C,0.150000*%
G04 APERTURE END LIST*
D10*
%TO.C,G\u002A\u002A\u002A*%
G36*
X143282000Y-84959030D02*
G01*
X143285515Y-85302663D01*
X143305336Y-85524945D01*
X143355378Y-85673844D01*
X143449559Y-85797325D01*
X143554883Y-85899638D01*
X143771081Y-86077395D01*
X143974300Y-86206928D01*
X144020550Y-86227845D01*
X144170454Y-86344048D01*
X144213334Y-86461153D01*
X144263812Y-86639107D01*
X144382369Y-86836057D01*
X144537890Y-86979772D01*
X144752785Y-87054664D01*
X144975088Y-87080308D01*
X145398772Y-87109666D01*
X145398750Y-86559333D01*
X144980393Y-86559333D01*
X144681530Y-86559333D01*
X144481204Y-86545278D01*
X144398596Y-86474931D01*
X144382667Y-86311767D01*
X144362810Y-86162326D01*
X144279584Y-86045181D01*
X144097510Y-85923506D01*
X143917000Y-85828413D01*
X143451334Y-85592624D01*
X143451334Y-84351407D01*
X144933000Y-84400333D01*
X144956697Y-85479833D01*
X144980393Y-86559333D01*
X145398750Y-86559333D01*
X145398720Y-85860833D01*
X145396870Y-85306668D01*
X145379739Y-84899257D01*
X145329875Y-84616034D01*
X145229828Y-84434434D01*
X145062145Y-84331890D01*
X144809376Y-84285838D01*
X144454067Y-84273711D01*
X144171000Y-84273333D01*
X143282000Y-84273333D01*
X143282000Y-84959030D01*
G37*
X143282000Y-84959030D02*
X143285515Y-85302663D01*
X143305336Y-85524945D01*
X143355378Y-85673844D01*
X143449559Y-85797325D01*
X143554883Y-85899638D01*
X143771081Y-86077395D01*
X143974300Y-86206928D01*
X144020550Y-86227845D01*
X144170454Y-86344048D01*
X144213334Y-86461153D01*
X144263812Y-86639107D01*
X144382369Y-86836057D01*
X144537890Y-86979772D01*
X144752785Y-87054664D01*
X144975088Y-87080308D01*
X145398772Y-87109666D01*
X145398750Y-86559333D01*
X144980393Y-86559333D01*
X144681530Y-86559333D01*
X144481204Y-86545278D01*
X144398596Y-86474931D01*
X144382667Y-86311767D01*
X144362810Y-86162326D01*
X144279584Y-86045181D01*
X144097510Y-85923506D01*
X143917000Y-85828413D01*
X143451334Y-85592624D01*
X143451334Y-84351407D01*
X144933000Y-84400333D01*
X144956697Y-85479833D01*
X144980393Y-86559333D01*
X145398750Y-86559333D01*
X145398720Y-85860833D01*
X145396870Y-85306668D01*
X145379739Y-84899257D01*
X145329875Y-84616034D01*
X145229828Y-84434434D01*
X145062145Y-84331890D01*
X144809376Y-84285838D01*
X144454067Y-84273711D01*
X144171000Y-84273333D01*
X143282000Y-84273333D01*
X143282000Y-84959030D01*
G36*
X140996000Y-85453945D02*
G01*
X140997555Y-85925898D01*
X141005245Y-86260301D01*
X141023611Y-86488929D01*
X141057195Y-86643557D01*
X141110537Y-86755960D01*
X141188177Y-86857914D01*
X141198324Y-86869772D01*
X141297640Y-86976114D01*
X141400541Y-87044468D01*
X141545208Y-87083351D01*
X141769823Y-87101282D01*
X142112568Y-87106776D01*
X142263238Y-87107326D01*
X142627082Y-87105055D01*
X142922535Y-87097067D01*
X143112098Y-87084736D01*
X143161581Y-87074388D01*
X143184641Y-86968278D01*
X143197533Y-86731923D01*
X143201204Y-86404051D01*
X143196599Y-86023385D01*
X143184664Y-85628651D01*
X143166346Y-85258573D01*
X143142590Y-84951876D01*
X143114343Y-84747286D01*
X143103762Y-84707513D01*
X142993782Y-84495860D01*
X142941577Y-84442666D01*
X142689334Y-84442666D01*
X142689334Y-86559333D01*
X141165334Y-86559333D01*
X141165334Y-84442666D01*
X142689334Y-84442666D01*
X142941577Y-84442666D01*
X142858362Y-84357877D01*
X142855328Y-84356212D01*
X142707414Y-84320869D01*
X142435106Y-84293034D01*
X142083299Y-84276400D01*
X141848233Y-84273333D01*
X140996000Y-84273333D01*
X140996000Y-85453945D01*
G37*
X140996000Y-85453945D02*
X140997555Y-85925898D01*
X141005245Y-86260301D01*
X141023611Y-86488929D01*
X141057195Y-86643557D01*
X141110537Y-86755960D01*
X141188177Y-86857914D01*
X141198324Y-86869772D01*
X141297640Y-86976114D01*
X141400541Y-87044468D01*
X141545208Y-87083351D01*
X141769823Y-87101282D01*
X142112568Y-87106776D01*
X142263238Y-87107326D01*
X142627082Y-87105055D01*
X142922535Y-87097067D01*
X143112098Y-87084736D01*
X143161581Y-87074388D01*
X143184641Y-86968278D01*
X143197533Y-86731923D01*
X143201204Y-86404051D01*
X143196599Y-86023385D01*
X143184664Y-85628651D01*
X143166346Y-85258573D01*
X143142590Y-84951876D01*
X143114343Y-84747286D01*
X143103762Y-84707513D01*
X142993782Y-84495860D01*
X142941577Y-84442666D01*
X142689334Y-84442666D01*
X142689334Y-86559333D01*
X141165334Y-86559333D01*
X141165334Y-84442666D01*
X142689334Y-84442666D01*
X142941577Y-84442666D01*
X142858362Y-84357877D01*
X142855328Y-84356212D01*
X142707414Y-84320869D01*
X142435106Y-84293034D01*
X142083299Y-84276400D01*
X141848233Y-84273333D01*
X140996000Y-84273333D01*
X140996000Y-85453945D01*
G36*
X138710000Y-85504276D02*
G01*
X138711941Y-85989490D01*
X138720145Y-86334815D01*
X138738188Y-86569673D01*
X138769644Y-86723487D01*
X138818088Y-86825679D01*
X138879334Y-86898000D01*
X139039215Y-87025047D01*
X139154500Y-87073112D01*
X139440122Y-87084412D01*
X139780816Y-87091627D01*
X140134837Y-87094725D01*
X140460440Y-87093676D01*
X140715882Y-87088449D01*
X140859419Y-87079011D01*
X140875867Y-87074388D01*
X140889160Y-86981209D01*
X140900184Y-86751656D01*
X140907899Y-86418685D01*
X140911268Y-86015252D01*
X140911334Y-85948351D01*
X140900074Y-85369579D01*
X140863034Y-84939086D01*
X140795325Y-84637111D01*
X140701675Y-84461885D01*
X140403334Y-84461885D01*
X140403334Y-86559333D01*
X138879334Y-86559333D01*
X138879334Y-84461885D01*
X139133816Y-84424535D01*
X139326251Y-84410457D01*
X139430149Y-84429037D01*
X139448376Y-84526639D01*
X139462587Y-84753798D01*
X139470781Y-85070751D01*
X139472000Y-85261111D01*
X139474643Y-85631046D01*
X139487098Y-85863353D01*
X139516151Y-85989707D01*
X139568592Y-86041786D01*
X139641334Y-86051333D01*
X139720606Y-86038999D01*
X139770386Y-85980879D01*
X139797462Y-85845296D01*
X139808621Y-85600574D01*
X139810667Y-85261111D01*
X139814871Y-84912748D01*
X139826149Y-84633150D01*
X139842501Y-84462081D01*
X139852519Y-84429037D01*
X139957245Y-84410445D01*
X140148852Y-84424535D01*
X140403334Y-84461885D01*
X140701675Y-84461885D01*
X140692059Y-84443893D01*
X140548347Y-84339671D01*
X140510096Y-84326512D01*
X140363820Y-84307541D01*
X140093790Y-84292407D01*
X139745578Y-84283216D01*
X139535500Y-84281455D01*
X138710000Y-84279886D01*
X138710000Y-85504276D01*
G37*
X138710000Y-85504276D02*
X138711941Y-85989490D01*
X138720145Y-86334815D01*
X138738188Y-86569673D01*
X138769644Y-86723487D01*
X138818088Y-86825679D01*
X138879334Y-86898000D01*
X139039215Y-87025047D01*
X139154500Y-87073112D01*
X139440122Y-87084412D01*
X139780816Y-87091627D01*
X140134837Y-87094725D01*
X140460440Y-87093676D01*
X140715882Y-87088449D01*
X140859419Y-87079011D01*
X140875867Y-87074388D01*
X140889160Y-86981209D01*
X140900184Y-86751656D01*
X140907899Y-86418685D01*
X140911268Y-86015252D01*
X140911334Y-85948351D01*
X140900074Y-85369579D01*
X140863034Y-84939086D01*
X140795325Y-84637111D01*
X140701675Y-84461885D01*
X140403334Y-84461885D01*
X140403334Y-86559333D01*
X138879334Y-86559333D01*
X138879334Y-84461885D01*
X139133816Y-84424535D01*
X139326251Y-84410457D01*
X139430149Y-84429037D01*
X139448376Y-84526639D01*
X139462587Y-84753798D01*
X139470781Y-85070751D01*
X139472000Y-85261111D01*
X139474643Y-85631046D01*
X139487098Y-85863353D01*
X139516151Y-85989707D01*
X139568592Y-86041786D01*
X139641334Y-86051333D01*
X139720606Y-86038999D01*
X139770386Y-85980879D01*
X139797462Y-85845296D01*
X139808621Y-85600574D01*
X139810667Y-85261111D01*
X139814871Y-84912748D01*
X139826149Y-84633150D01*
X139842501Y-84462081D01*
X139852519Y-84429037D01*
X139957245Y-84410445D01*
X140148852Y-84424535D01*
X140403334Y-84461885D01*
X140701675Y-84461885D01*
X140692059Y-84443893D01*
X140548347Y-84339671D01*
X140510096Y-84326512D01*
X140363820Y-84307541D01*
X140093790Y-84292407D01*
X139745578Y-84283216D01*
X139535500Y-84281455D01*
X138710000Y-84279886D01*
X138710000Y-85504276D01*
G36*
X137659980Y-84322905D02*
G01*
X137520408Y-84450625D01*
X137425524Y-84627917D01*
X137236805Y-84450625D01*
X136977802Y-84307268D01*
X136693710Y-84273333D01*
X136339334Y-84273333D01*
X136339334Y-85530211D01*
X136343541Y-86079875D01*
X136363272Y-86482695D01*
X136409194Y-86761092D01*
X136491970Y-86937485D01*
X136622266Y-87034294D01*
X136810749Y-87073939D01*
X137068082Y-87078841D01*
X137075963Y-87078703D01*
X137383500Y-87074053D01*
X137608937Y-87074425D01*
X137837046Y-87081090D01*
X138138500Y-87094652D01*
X138540667Y-87113761D01*
X138540667Y-85862880D01*
X138539288Y-85498342D01*
X138117334Y-85498342D01*
X138117334Y-86559333D01*
X137524667Y-86559333D01*
X137524667Y-85419358D01*
X137311274Y-85733394D01*
X137163882Y-85991755D01*
X137061202Y-86245985D01*
X137046691Y-86303382D01*
X136988788Y-86479437D01*
X136871786Y-86548998D01*
X136707221Y-86559333D01*
X136418941Y-86559333D01*
X136442638Y-85485489D01*
X136466334Y-84411644D01*
X136762667Y-84412039D01*
X137059000Y-84412433D01*
X137068066Y-84895227D01*
X137079480Y-85164207D01*
X137099527Y-85356306D01*
X137117209Y-85418097D01*
X137171255Y-85371162D01*
X137268990Y-85208129D01*
X137355429Y-85035129D01*
X137565593Y-84654984D01*
X137764007Y-84434235D01*
X137946866Y-84376785D01*
X137987180Y-84387407D01*
X138042728Y-84435840D01*
X138080383Y-84548665D01*
X138103277Y-84752619D01*
X138114545Y-85074441D01*
X138117334Y-85498342D01*
X138539288Y-85498342D01*
X138538809Y-85371998D01*
X138530928Y-85021400D01*
X138513562Y-84782058D01*
X138483250Y-84624944D01*
X138436531Y-84521027D01*
X138371334Y-84442666D01*
X138151793Y-84309776D01*
X137893951Y-84270049D01*
X137659980Y-84322905D01*
G37*
X137659980Y-84322905D02*
X137520408Y-84450625D01*
X137425524Y-84627917D01*
X137236805Y-84450625D01*
X136977802Y-84307268D01*
X136693710Y-84273333D01*
X136339334Y-84273333D01*
X136339334Y-85530211D01*
X136343541Y-86079875D01*
X136363272Y-86482695D01*
X136409194Y-86761092D01*
X136491970Y-86937485D01*
X136622266Y-87034294D01*
X136810749Y-87073939D01*
X137068082Y-87078841D01*
X137075963Y-87078703D01*
X137383500Y-87074053D01*
X137608937Y-87074425D01*
X137837046Y-87081090D01*
X138138500Y-87094652D01*
X138540667Y-87113761D01*
X138540667Y-85862880D01*
X138539288Y-85498342D01*
X138117334Y-85498342D01*
X138117334Y-86559333D01*
X137524667Y-86559333D01*
X137524667Y-85419358D01*
X137311274Y-85733394D01*
X137163882Y-85991755D01*
X137061202Y-86245985D01*
X137046691Y-86303382D01*
X136988788Y-86479437D01*
X136871786Y-86548998D01*
X136707221Y-86559333D01*
X136418941Y-86559333D01*
X136442638Y-85485489D01*
X136466334Y-84411644D01*
X136762667Y-84412039D01*
X137059000Y-84412433D01*
X137068066Y-84895227D01*
X137079480Y-85164207D01*
X137099527Y-85356306D01*
X137117209Y-85418097D01*
X137171255Y-85371162D01*
X137268990Y-85208129D01*
X137355429Y-85035129D01*
X137565593Y-84654984D01*
X137764007Y-84434235D01*
X137946866Y-84376785D01*
X137987180Y-84387407D01*
X138042728Y-84435840D01*
X138080383Y-84548665D01*
X138103277Y-84752619D01*
X138114545Y-85074441D01*
X138117334Y-85498342D01*
X138539288Y-85498342D01*
X138538809Y-85371998D01*
X138530928Y-85021400D01*
X138513562Y-84782058D01*
X138483250Y-84624944D01*
X138436531Y-84521027D01*
X138371334Y-84442666D01*
X138151793Y-84309776D01*
X137893951Y-84270049D01*
X137659980Y-84322905D01*
G36*
X135198435Y-84288515D02*
G01*
X134881597Y-84317487D01*
X134670415Y-84371367D01*
X134501210Y-84475268D01*
X134335730Y-84628759D01*
X134031016Y-84933473D01*
X134043329Y-85851039D01*
X134054495Y-86327517D01*
X134089772Y-86660886D01*
X134174248Y-86877365D01*
X134333007Y-87003175D01*
X134591135Y-87064538D01*
X134973720Y-87087672D01*
X135231862Y-87093331D01*
X135596729Y-87096909D01*
X135893238Y-87093613D01*
X136084068Y-87084225D01*
X136134846Y-87074388D01*
X136147453Y-86981586D01*
X136158056Y-86750769D01*
X136162428Y-86559333D01*
X135751726Y-86559333D01*
X134138000Y-86559333D01*
X134138000Y-85803829D01*
X134142389Y-85432347D01*
X134162101Y-85184395D01*
X134206956Y-85014262D01*
X134286772Y-84876232D01*
X134355907Y-84789358D01*
X134662739Y-84542831D01*
X135054152Y-84395329D01*
X135451864Y-84371648D01*
X135704334Y-84400333D01*
X135751726Y-86559333D01*
X136162428Y-86559333D01*
X136165765Y-86413256D01*
X136169687Y-86000362D01*
X136170000Y-85840314D01*
X136168764Y-85366346D01*
X136162049Y-85031322D01*
X136145344Y-84804857D01*
X136114139Y-84656564D01*
X136063923Y-84556056D01*
X135990185Y-84472947D01*
X135963214Y-84447251D01*
X135829157Y-84341612D01*
X135679382Y-84288408D01*
X135459370Y-84276325D01*
X135198435Y-84288515D01*
G37*
X135198435Y-84288515D02*
X134881597Y-84317487D01*
X134670415Y-84371367D01*
X134501210Y-84475268D01*
X134335730Y-84628759D01*
X134031016Y-84933473D01*
X134043329Y-85851039D01*
X134054495Y-86327517D01*
X134089772Y-86660886D01*
X134174248Y-86877365D01*
X134333007Y-87003175D01*
X134591135Y-87064538D01*
X134973720Y-87087672D01*
X135231862Y-87093331D01*
X135596729Y-87096909D01*
X135893238Y-87093613D01*
X136084068Y-87084225D01*
X136134846Y-87074388D01*
X136147453Y-86981586D01*
X136158056Y-86750769D01*
X136162428Y-86559333D01*
X135751726Y-86559333D01*
X134138000Y-86559333D01*
X134138000Y-85803829D01*
X134142389Y-85432347D01*
X134162101Y-85184395D01*
X134206956Y-85014262D01*
X134286772Y-84876232D01*
X134355907Y-84789358D01*
X134662739Y-84542831D01*
X135054152Y-84395329D01*
X135451864Y-84371648D01*
X135704334Y-84400333D01*
X135751726Y-86559333D01*
X136162428Y-86559333D01*
X136165765Y-86413256D01*
X136169687Y-86000362D01*
X136170000Y-85840314D01*
X136168764Y-85366346D01*
X136162049Y-85031322D01*
X136145344Y-84804857D01*
X136114139Y-84656564D01*
X136063923Y-84556056D01*
X135990185Y-84472947D01*
X135963214Y-84447251D01*
X135829157Y-84341612D01*
X135679382Y-84288408D01*
X135459370Y-84276325D01*
X135198435Y-84288515D01*
G36*
X132698667Y-85501000D02*
G01*
X132700597Y-85986917D01*
X132708760Y-86332896D01*
X132726717Y-86568309D01*
X132758028Y-86722528D01*
X132806253Y-86824927D01*
X132868000Y-86898000D01*
X133028131Y-87026583D01*
X133143167Y-87077313D01*
X133419712Y-87095239D01*
X133664848Y-87097604D01*
X133822113Y-87084643D01*
X133848687Y-87074388D01*
X133861470Y-86981507D01*
X133872191Y-86750952D01*
X133879926Y-86414377D01*
X133883753Y-86003440D01*
X133884000Y-85864040D01*
X133882665Y-85395064D01*
X133875541Y-85064292D01*
X133857950Y-84840600D01*
X133825216Y-84692862D01*
X133772660Y-84589953D01*
X133695605Y-84500748D01*
X133676182Y-84481151D01*
X133623428Y-84442666D01*
X133460667Y-84442666D01*
X133460667Y-86559333D01*
X132868000Y-86559333D01*
X132868000Y-84442666D01*
X133460667Y-84442666D01*
X133623428Y-84442666D01*
X133477153Y-84335956D01*
X133224700Y-84278058D01*
X133083516Y-84273333D01*
X132698667Y-84273333D01*
X132698667Y-85501000D01*
G37*
X132698667Y-85501000D02*
X132700597Y-85986917D01*
X132708760Y-86332896D01*
X132726717Y-86568309D01*
X132758028Y-86722528D01*
X132806253Y-86824927D01*
X132868000Y-86898000D01*
X133028131Y-87026583D01*
X133143167Y-87077313D01*
X133419712Y-87095239D01*
X133664848Y-87097604D01*
X133822113Y-87084643D01*
X133848687Y-87074388D01*
X133861470Y-86981507D01*
X133872191Y-86750952D01*
X133879926Y-86414377D01*
X133883753Y-86003440D01*
X133884000Y-85864040D01*
X133882665Y-85395064D01*
X133875541Y-85064292D01*
X133857950Y-84840600D01*
X133825216Y-84692862D01*
X133772660Y-84589953D01*
X133695605Y-84500748D01*
X133676182Y-84481151D01*
X133623428Y-84442666D01*
X133460667Y-84442666D01*
X133460667Y-86559333D01*
X132868000Y-86559333D01*
X132868000Y-84442666D01*
X133460667Y-84442666D01*
X133623428Y-84442666D01*
X133477153Y-84335956D01*
X133224700Y-84278058D01*
X133083516Y-84273333D01*
X132698667Y-84273333D01*
X132698667Y-85501000D01*
G36*
X130243334Y-85453945D02*
G01*
X130245042Y-85926994D01*
X130253071Y-86262309D01*
X130271776Y-86491477D01*
X130305513Y-86646084D01*
X130358637Y-86757718D01*
X130435505Y-86857967D01*
X130437216Y-86859958D01*
X130700733Y-87045067D01*
X131042702Y-87113034D01*
X131410197Y-87053556D01*
X131417799Y-87050869D01*
X131630686Y-87026410D01*
X131723833Y-87066364D01*
X131860135Y-87110775D01*
X132081146Y-87129910D01*
X132310281Y-87122972D01*
X132470953Y-87089161D01*
X132493633Y-87074388D01*
X132506556Y-86981507D01*
X132517395Y-86750952D01*
X132525215Y-86414378D01*
X132529083Y-86003440D01*
X132529334Y-85864040D01*
X132528315Y-85505996D01*
X132106000Y-85505996D01*
X132106000Y-86559333D01*
X131521071Y-86559333D01*
X131496036Y-85987833D01*
X131471000Y-85416333D01*
X131238167Y-85804771D01*
X131104643Y-86060850D01*
X131020418Y-86286448D01*
X131005334Y-86376271D01*
X130976756Y-86501355D01*
X130859515Y-86552228D01*
X130709000Y-86559333D01*
X130412667Y-86559333D01*
X130412667Y-84358000D01*
X130997597Y-84358000D01*
X131047667Y-85501000D01*
X131342708Y-84971230D01*
X131571129Y-84612648D01*
X131770147Y-84414102D01*
X131946233Y-84370138D01*
X132020576Y-84399865D01*
X132055901Y-84503777D01*
X132083304Y-84749628D01*
X132100679Y-85110123D01*
X132106000Y-85505996D01*
X132528315Y-85505996D01*
X132527999Y-85395064D01*
X132520874Y-85064292D01*
X132503284Y-84840600D01*
X132470549Y-84692862D01*
X132417993Y-84589953D01*
X132340939Y-84500748D01*
X132321516Y-84481151D01*
X132074673Y-84319271D01*
X131809600Y-84275592D01*
X131578971Y-84352545D01*
X131488965Y-84442712D01*
X131370327Y-84612090D01*
X131217042Y-84442712D01*
X131048137Y-84325518D01*
X130790044Y-84277046D01*
X130653545Y-84273333D01*
X130243334Y-84273333D01*
X130243334Y-85453945D01*
G37*
X130243334Y-85453945D02*
X130245042Y-85926994D01*
X130253071Y-86262309D01*
X130271776Y-86491477D01*
X130305513Y-86646084D01*
X130358637Y-86757718D01*
X130435505Y-86857967D01*
X130437216Y-86859958D01*
X130700733Y-87045067D01*
X131042702Y-87113034D01*
X131410197Y-87053556D01*
X131417799Y-87050869D01*
X131630686Y-87026410D01*
X131723833Y-87066364D01*
X131860135Y-87110775D01*
X132081146Y-87129910D01*
X132310281Y-87122972D01*
X132470953Y-87089161D01*
X132493633Y-87074388D01*
X132506556Y-86981507D01*
X132517395Y-86750952D01*
X132525215Y-86414378D01*
X132529083Y-86003440D01*
X132529334Y-85864040D01*
X132528315Y-85505996D01*
X132106000Y-85505996D01*
X132106000Y-86559333D01*
X131521071Y-86559333D01*
X131496036Y-85987833D01*
X131471000Y-85416333D01*
X131238167Y-85804771D01*
X131104643Y-86060850D01*
X131020418Y-86286448D01*
X131005334Y-86376271D01*
X130976756Y-86501355D01*
X130859515Y-86552228D01*
X130709000Y-86559333D01*
X130412667Y-86559333D01*
X130412667Y-84358000D01*
X130997597Y-84358000D01*
X131047667Y-85501000D01*
X131342708Y-84971230D01*
X131571129Y-84612648D01*
X131770147Y-84414102D01*
X131946233Y-84370138D01*
X132020576Y-84399865D01*
X132055901Y-84503777D01*
X132083304Y-84749628D01*
X132100679Y-85110123D01*
X132106000Y-85505996D01*
X132528315Y-85505996D01*
X132527999Y-85395064D01*
X132520874Y-85064292D01*
X132503284Y-84840600D01*
X132470549Y-84692862D01*
X132417993Y-84589953D01*
X132340939Y-84500748D01*
X132321516Y-84481151D01*
X132074673Y-84319271D01*
X131809600Y-84275592D01*
X131578971Y-84352545D01*
X131488965Y-84442712D01*
X131370327Y-84612090D01*
X131217042Y-84442712D01*
X131048137Y-84325518D01*
X130790044Y-84277046D01*
X130653545Y-84273333D01*
X130243334Y-84273333D01*
X130243334Y-85453945D01*
G36*
X127957334Y-84593161D02*
G01*
X127990557Y-84856588D01*
X128071688Y-85074933D01*
X128083117Y-85092569D01*
X128163479Y-85229976D01*
X128134975Y-85296538D01*
X128083117Y-85320417D01*
X128016671Y-85387737D01*
X127977230Y-85547040D01*
X127959607Y-85828368D01*
X127957334Y-86048676D01*
X127964352Y-86408807D01*
X127991182Y-86643433D01*
X128046489Y-86796013D01*
X128126667Y-86898000D01*
X128303314Y-87028122D01*
X128444167Y-87077742D01*
X128691892Y-87089226D01*
X129014166Y-87096404D01*
X129359792Y-87099128D01*
X129677568Y-87097250D01*
X129916297Y-87090622D01*
X130013497Y-87082291D01*
X130071515Y-87054811D01*
X130111820Y-86980574D01*
X130137542Y-86833465D01*
X130151815Y-86587371D01*
X130157770Y-86216176D01*
X130158667Y-85871943D01*
X130157355Y-85401210D01*
X130150331Y-85068823D01*
X130132965Y-84843797D01*
X130100628Y-84695149D01*
X130048691Y-84591893D01*
X129972522Y-84503046D01*
X129950849Y-84481151D01*
X129907612Y-84442666D01*
X129650667Y-84442666D01*
X129650667Y-86655410D01*
X129460167Y-86593638D01*
X129278288Y-86563010D01*
X128992435Y-86544258D01*
X128698167Y-86541272D01*
X128126667Y-86550678D01*
X128126667Y-85458666D01*
X128465334Y-85458666D01*
X128710105Y-85489691D01*
X128806320Y-85594368D01*
X128764166Y-85790104D01*
X128716355Y-85887566D01*
X128674929Y-86007780D01*
X128756585Y-86048427D01*
X128843355Y-86051333D01*
X128958721Y-86042040D01*
X129022976Y-85988647D01*
X129051048Y-85852877D01*
X129057867Y-85596456D01*
X129058000Y-85501000D01*
X129052367Y-85202387D01*
X129028181Y-85035872D01*
X128974513Y-84964392D01*
X128895723Y-84950666D01*
X128747156Y-84990042D01*
X128704334Y-85037998D01*
X128610261Y-85080028D01*
X128400946Y-85029715D01*
X128207021Y-84933240D01*
X128133431Y-84792127D01*
X128126667Y-84688384D01*
X128126667Y-84442666D01*
X129650667Y-84442666D01*
X129907612Y-84442666D01*
X129846124Y-84387937D01*
X129730907Y-84327691D01*
X129567411Y-84293276D01*
X129317848Y-84277559D01*
X128944432Y-84273404D01*
X128850182Y-84273333D01*
X127957334Y-84273333D01*
X127957334Y-84593161D01*
G37*
X127957334Y-84593161D02*
X127990557Y-84856588D01*
X128071688Y-85074933D01*
X128083117Y-85092569D01*
X128163479Y-85229976D01*
X128134975Y-85296538D01*
X128083117Y-85320417D01*
X128016671Y-85387737D01*
X127977230Y-85547040D01*
X127959607Y-85828368D01*
X127957334Y-86048676D01*
X127964352Y-86408807D01*
X127991182Y-86643433D01*
X128046489Y-86796013D01*
X128126667Y-86898000D01*
X128303314Y-87028122D01*
X128444167Y-87077742D01*
X128691892Y-87089226D01*
X129014166Y-87096404D01*
X129359792Y-87099128D01*
X129677568Y-87097250D01*
X129916297Y-87090622D01*
X130013497Y-87082291D01*
X130071515Y-87054811D01*
X130111820Y-86980574D01*
X130137542Y-86833465D01*
X130151815Y-86587371D01*
X130157770Y-86216176D01*
X130158667Y-85871943D01*
X130157355Y-85401210D01*
X130150331Y-85068823D01*
X130132965Y-84843797D01*
X130100628Y-84695149D01*
X130048691Y-84591893D01*
X129972522Y-84503046D01*
X129950849Y-84481151D01*
X129907612Y-84442666D01*
X129650667Y-84442666D01*
X129650667Y-86655410D01*
X129460167Y-86593638D01*
X129278288Y-86563010D01*
X128992435Y-86544258D01*
X128698167Y-86541272D01*
X128126667Y-86550678D01*
X128126667Y-85458666D01*
X128465334Y-85458666D01*
X128710105Y-85489691D01*
X128806320Y-85594368D01*
X128764166Y-85790104D01*
X128716355Y-85887566D01*
X128674929Y-86007780D01*
X128756585Y-86048427D01*
X128843355Y-86051333D01*
X128958721Y-86042040D01*
X129022976Y-85988647D01*
X129051048Y-85852877D01*
X129057867Y-85596456D01*
X129058000Y-85501000D01*
X129052367Y-85202387D01*
X129028181Y-85035872D01*
X128974513Y-84964392D01*
X128895723Y-84950666D01*
X128747156Y-84990042D01*
X128704334Y-85037998D01*
X128610261Y-85080028D01*
X128400946Y-85029715D01*
X128207021Y-84933240D01*
X128133431Y-84792127D01*
X128126667Y-84688384D01*
X128126667Y-84442666D01*
X129650667Y-84442666D01*
X129907612Y-84442666D01*
X129846124Y-84387937D01*
X129730907Y-84327691D01*
X129567411Y-84293276D01*
X129317848Y-84277559D01*
X128944432Y-84273404D01*
X128850182Y-84273333D01*
X127957334Y-84273333D01*
X127957334Y-84593161D01*
G36*
X122284667Y-84814273D02*
G01*
X122299514Y-85150048D01*
X122356011Y-85387113D01*
X122472095Y-85594424D01*
X122496334Y-85628000D01*
X122677603Y-86001676D01*
X122709249Y-86258282D01*
X122740464Y-86627993D01*
X122848265Y-86866070D01*
X123058739Y-87002509D01*
X123397974Y-87067306D01*
X123414192Y-87068796D01*
X123683948Y-87086555D01*
X123877010Y-87087397D01*
X123941260Y-87075851D01*
X123963593Y-86976284D01*
X123976625Y-86768776D01*
X123978000Y-86666573D01*
X124030789Y-86304950D01*
X124195922Y-86008325D01*
X124321108Y-85813034D01*
X124389623Y-85602156D01*
X124418293Y-85312285D01*
X124422455Y-85154725D01*
X124416612Y-84863967D01*
X123978000Y-84863967D01*
X123947870Y-85178078D01*
X123833904Y-85434493D01*
X123724000Y-85585666D01*
X123533623Y-85893742D01*
X123470391Y-86202377D01*
X123470000Y-86232308D01*
X123459833Y-86444292D01*
X123400489Y-86536628D01*
X123248710Y-86558900D01*
X123184678Y-86559333D01*
X123009132Y-86548789D01*
X122918848Y-86486868D01*
X122875147Y-86328138D01*
X122855818Y-86173061D01*
X122791595Y-85889963D01*
X122683808Y-85653323D01*
X122644827Y-85601561D01*
X122451239Y-85272864D01*
X122403003Y-84869062D01*
X122422009Y-84693429D01*
X122466815Y-84495493D01*
X122551422Y-84420919D01*
X122732857Y-84424615D01*
X122758288Y-84427526D01*
X122930411Y-84456276D01*
X123015296Y-84521666D01*
X123043776Y-84671568D01*
X123046667Y-84875263D01*
X123055995Y-85125774D01*
X123095413Y-85249383D01*
X123182070Y-85288026D01*
X123216000Y-85289333D01*
X123318918Y-85266238D01*
X123369406Y-85168881D01*
X123384890Y-84955155D01*
X123385334Y-84880111D01*
X123393282Y-84632947D01*
X123413491Y-84465364D01*
X123427185Y-84429037D01*
X123531911Y-84410445D01*
X123723519Y-84424535D01*
X123877428Y-84459287D01*
X123952142Y-84536719D01*
X123976122Y-84705978D01*
X123978000Y-84863967D01*
X124416612Y-84863967D01*
X124415729Y-84820080D01*
X124367292Y-84584303D01*
X124252489Y-84430280D01*
X124046666Y-84340897D01*
X123725167Y-84299040D01*
X123263339Y-84287596D01*
X123173001Y-84287444D01*
X122284667Y-84287444D01*
X122284667Y-84814273D01*
G37*
X122284667Y-84814273D02*
X122299514Y-85150048D01*
X122356011Y-85387113D01*
X122472095Y-85594424D01*
X122496334Y-85628000D01*
X122677603Y-86001676D01*
X122709249Y-86258282D01*
X122740464Y-86627993D01*
X122848265Y-86866070D01*
X123058739Y-87002509D01*
X123397974Y-87067306D01*
X123414192Y-87068796D01*
X123683948Y-87086555D01*
X123877010Y-87087397D01*
X123941260Y-87075851D01*
X123963593Y-86976284D01*
X123976625Y-86768776D01*
X123978000Y-86666573D01*
X124030789Y-86304950D01*
X124195922Y-86008325D01*
X124321108Y-85813034D01*
X124389623Y-85602156D01*
X124418293Y-85312285D01*
X124422455Y-85154725D01*
X124416612Y-84863967D01*
X123978000Y-84863967D01*
X123947870Y-85178078D01*
X123833904Y-85434493D01*
X123724000Y-85585666D01*
X123533623Y-85893742D01*
X123470391Y-86202377D01*
X123470000Y-86232308D01*
X123459833Y-86444292D01*
X123400489Y-86536628D01*
X123248710Y-86558900D01*
X123184678Y-86559333D01*
X123009132Y-86548789D01*
X122918848Y-86486868D01*
X122875147Y-86328138D01*
X122855818Y-86173061D01*
X122791595Y-85889963D01*
X122683808Y-85653323D01*
X122644827Y-85601561D01*
X122451239Y-85272864D01*
X122403003Y-84869062D01*
X122422009Y-84693429D01*
X122466815Y-84495493D01*
X122551422Y-84420919D01*
X122732857Y-84424615D01*
X122758288Y-84427526D01*
X122930411Y-84456276D01*
X123015296Y-84521666D01*
X123043776Y-84671568D01*
X123046667Y-84875263D01*
X123055995Y-85125774D01*
X123095413Y-85249383D01*
X123182070Y-85288026D01*
X123216000Y-85289333D01*
X123318918Y-85266238D01*
X123369406Y-85168881D01*
X123384890Y-84955155D01*
X123385334Y-84880111D01*
X123393282Y-84632947D01*
X123413491Y-84465364D01*
X123427185Y-84429037D01*
X123531911Y-84410445D01*
X123723519Y-84424535D01*
X123877428Y-84459287D01*
X123952142Y-84536719D01*
X123976122Y-84705978D01*
X123978000Y-84863967D01*
X124416612Y-84863967D01*
X124415729Y-84820080D01*
X124367292Y-84584303D01*
X124252489Y-84430280D01*
X124046666Y-84340897D01*
X123725167Y-84299040D01*
X123263339Y-84287596D01*
X123173001Y-84287444D01*
X122284667Y-84287444D01*
X122284667Y-84814273D01*
G36*
X113302782Y-80793949D02*
G01*
X112909851Y-80906081D01*
X112834764Y-80939856D01*
X112590475Y-81086416D01*
X112487100Y-81206846D01*
X112529970Y-81287433D01*
X112689112Y-81314440D01*
X112929000Y-81318881D01*
X112738500Y-81451767D01*
X112573019Y-81595780D01*
X112567701Y-81685088D01*
X112722418Y-81719578D01*
X113020042Y-81701168D01*
X113458710Y-81688570D01*
X113837265Y-81751679D01*
X114120224Y-81880751D01*
X114262518Y-82042348D01*
X114289355Y-82276617D01*
X114153324Y-82509352D01*
X113852114Y-82743271D01*
X113514538Y-82921999D01*
X113157062Y-83098560D01*
X112790179Y-83294579D01*
X112541317Y-83438823D01*
X112123050Y-83696186D01*
X111656351Y-83502750D01*
X111372489Y-83395414D01*
X111175835Y-83357183D01*
X111002779Y-83380178D01*
X110910315Y-83410323D01*
X110703097Y-83478457D01*
X110567472Y-83510895D01*
X110559609Y-83511333D01*
X110450900Y-83449739D01*
X110265284Y-83285234D01*
X110030249Y-83048228D01*
X109773283Y-82769134D01*
X109521876Y-82478364D01*
X109303515Y-82206329D01*
X109145689Y-81983442D01*
X109092503Y-81888197D01*
X108931901Y-81599279D01*
X108737723Y-81330515D01*
X108684047Y-81270386D01*
X108514842Y-81125451D01*
X108427061Y-81124215D01*
X108421453Y-81261494D01*
X108498767Y-81532105D01*
X108606404Y-81807079D01*
X108717937Y-82087977D01*
X108796029Y-82315037D01*
X108822667Y-82431195D01*
X108754317Y-82537313D01*
X108583735Y-82667495D01*
X108516925Y-82706145D01*
X108286662Y-82870103D01*
X108035162Y-83107602D01*
X107907327Y-83254565D01*
X107733748Y-83473739D01*
X107602577Y-83639262D01*
X107553882Y-83700620D01*
X107468832Y-83683797D01*
X107296026Y-83578312D01*
X107095928Y-83425453D01*
X106870895Y-83248786D01*
X106693809Y-83126630D01*
X106612115Y-83088000D01*
X106534263Y-83139526D01*
X106580442Y-83285307D01*
X106743809Y-83512146D01*
X106948967Y-83737663D01*
X107184000Y-83989829D01*
X107389739Y-84229412D01*
X107511204Y-84389779D01*
X107645342Y-84541164D01*
X107858294Y-84689948D01*
X108174913Y-84849728D01*
X108620050Y-85034104D01*
X108845890Y-85120121D01*
X109194135Y-85261634D01*
X109384263Y-85381598D01*
X109418289Y-85503530D01*
X109298226Y-85650945D01*
X109026090Y-85847362D01*
X108914402Y-85919802D01*
X108560423Y-86171834D01*
X108359752Y-86384159D01*
X108305982Y-86573319D01*
X108392701Y-86755856D01*
X108537752Y-86891854D01*
X108754291Y-87022382D01*
X108971541Y-87049589D01*
X109229949Y-86968877D01*
X109569959Y-86775647D01*
X109572184Y-86774229D01*
X109843448Y-86613808D01*
X110029133Y-86542942D01*
X110176809Y-86546570D01*
X110233863Y-86564730D01*
X110525864Y-86637414D01*
X110804761Y-86610411D01*
X111113466Y-86472981D01*
X111423597Y-86266974D01*
X111791895Y-85983417D01*
X112113830Y-85706379D01*
X112364207Y-85460065D01*
X112517832Y-85268680D01*
X112554292Y-85180677D01*
X112580936Y-85026218D01*
X112330701Y-85026218D01*
X112308562Y-85131413D01*
X112177964Y-85268558D01*
X111984897Y-85400183D01*
X111775348Y-85488815D01*
X111757362Y-85493376D01*
X111598384Y-85547900D01*
X111582374Y-85620620D01*
X111619562Y-85673821D01*
X111659801Y-85751078D01*
X111591404Y-85787587D01*
X111385357Y-85797296D01*
X111362667Y-85797333D01*
X111144188Y-85803929D01*
X111065106Y-85835248D01*
X111095648Y-85908585D01*
X111119467Y-85938612D01*
X111181474Y-86031442D01*
X111129695Y-86053445D01*
X110970496Y-86027395D01*
X110735096Y-86006706D01*
X110639853Y-86061456D01*
X110692550Y-86186975D01*
X110696435Y-86191709D01*
X110730253Y-86283924D01*
X110650278Y-86313908D01*
X110497251Y-86288668D01*
X110311911Y-86215212D01*
X110134997Y-86100546D01*
X110127003Y-86093770D01*
X109955380Y-85957265D01*
X109839829Y-85885366D01*
X109826559Y-85882103D01*
X109737679Y-85819546D01*
X109749259Y-85648206D01*
X109856291Y-85391776D01*
X109971736Y-85195246D01*
X110123844Y-84942923D01*
X110228932Y-84737577D01*
X110262000Y-84636021D01*
X110213389Y-84534848D01*
X110082283Y-84558357D01*
X109890773Y-84698054D01*
X109761060Y-84828602D01*
X109580817Y-85007619D01*
X109460854Y-85067551D01*
X109366456Y-85029901D01*
X109275360Y-84874533D01*
X109246000Y-84700410D01*
X109221446Y-84480243D01*
X109136364Y-84414717D01*
X108973626Y-84494798D01*
X108925404Y-84531292D01*
X108771214Y-84638454D01*
X108685427Y-84671625D01*
X108683302Y-84670190D01*
X108697334Y-84583376D01*
X108759441Y-84376049D01*
X108857861Y-84086104D01*
X108907004Y-83949337D01*
X109025669Y-83617115D01*
X109087905Y-83412435D01*
X109097803Y-83304692D01*
X109059452Y-83263278D01*
X108999488Y-83257333D01*
X108867640Y-83319348D01*
X108667385Y-83485518D01*
X108433888Y-83726032D01*
X108396672Y-83768405D01*
X108187261Y-84002089D01*
X108022490Y-84170917D01*
X107930494Y-84246545D01*
X107921517Y-84247071D01*
X107920803Y-84139322D01*
X108001346Y-83947317D01*
X108136836Y-83717573D01*
X108300958Y-83496611D01*
X108413883Y-83376600D01*
X108731503Y-83104456D01*
X109023989Y-82895338D01*
X109256721Y-82772290D01*
X109356078Y-82749333D01*
X109467009Y-82815875D01*
X109623312Y-82988001D01*
X109749825Y-83166158D01*
X109917187Y-83412189D01*
X110066640Y-83606992D01*
X110139651Y-83684525D01*
X110245687Y-83852433D01*
X110262000Y-83945033D01*
X110315848Y-84076899D01*
X110444336Y-84089878D01*
X110597880Y-83980161D01*
X110605300Y-83971417D01*
X110758471Y-83838192D01*
X110963029Y-83710746D01*
X111181849Y-83629991D01*
X111383408Y-83656551D01*
X111456028Y-83684268D01*
X111626957Y-83775769D01*
X111701236Y-83856551D01*
X111701334Y-83858658D01*
X111629650Y-83933262D01*
X111466523Y-83987730D01*
X111289835Y-84003286D01*
X111198146Y-83979974D01*
X111123712Y-83984836D01*
X111110834Y-84105265D01*
X111153807Y-84301422D01*
X111246927Y-84533472D01*
X111288798Y-84613110D01*
X111522154Y-84928825D01*
X111773419Y-85081939D01*
X112037065Y-85069377D01*
X112078587Y-85052445D01*
X112245479Y-85004788D01*
X112330701Y-85026218D01*
X112580936Y-85026218D01*
X112619187Y-84804474D01*
X112767979Y-84548700D01*
X112823858Y-84496275D01*
X113013667Y-84338217D01*
X113056000Y-85524924D01*
X113080976Y-86072233D01*
X113118662Y-86472835D01*
X113180426Y-86749352D01*
X113277637Y-86924407D01*
X113421662Y-87020620D01*
X113623872Y-87060613D01*
X113831123Y-87067333D01*
X114241334Y-87067333D01*
X114241334Y-86559333D01*
X114252781Y-86291411D01*
X114282536Y-86107336D01*
X114316942Y-86051333D01*
X114413311Y-86127395D01*
X114478533Y-86321981D01*
X114495334Y-86514544D01*
X114570958Y-86794654D01*
X114772679Y-86995828D01*
X115062769Y-87081971D01*
X115089321Y-87082821D01*
X115325556Y-87088058D01*
X115490702Y-87080012D01*
X115596614Y-87033411D01*
X115655148Y-86922984D01*
X115678156Y-86723456D01*
X115677494Y-86409556D01*
X115665015Y-85956011D01*
X115662511Y-85860833D01*
X115648284Y-85458666D01*
X115172667Y-85458666D01*
X115172667Y-86559333D01*
X114580000Y-86559333D01*
X114580000Y-85087101D01*
X114375502Y-85364284D01*
X114171003Y-85641467D01*
X114015668Y-85317233D01*
X113860334Y-84993000D01*
X113835990Y-85776166D01*
X113811646Y-86559333D01*
X113225334Y-86559333D01*
X113225334Y-84383245D01*
X113458167Y-84399703D01*
X113645960Y-84416390D01*
X113759742Y-84458311D01*
X113851512Y-84564599D01*
X113973270Y-84774391D01*
X113985894Y-84796871D01*
X114184968Y-85151077D01*
X114318984Y-84956865D01*
X114587185Y-84618421D01*
X114827607Y-84414897D01*
X114999485Y-84358000D01*
X115070153Y-84366575D01*
X115118430Y-84410317D01*
X115148568Y-84516249D01*
X115164819Y-84711392D01*
X115171434Y-85022770D01*
X115172667Y-85458666D01*
X115648284Y-85458666D01*
X115646744Y-85415163D01*
X115624551Y-85021938D01*
X115598526Y-84716297D01*
X115571261Y-84533381D01*
X115562540Y-84506166D01*
X115542397Y-84386152D01*
X115629275Y-84358000D01*
X115725087Y-84408598D01*
X115763110Y-84581597D01*
X115765334Y-84670867D01*
X115832551Y-85000605D01*
X115975496Y-85203096D01*
X116139038Y-85436335D01*
X116239527Y-85691839D01*
X116240080Y-85694562D01*
X116264883Y-85880336D01*
X116208818Y-85953715D01*
X116031747Y-85966666D01*
X116029917Y-85966666D01*
X115851475Y-85982529D01*
X115778918Y-86064671D01*
X115765334Y-86259016D01*
X115809486Y-86603398D01*
X115928934Y-86868626D01*
X116104169Y-87014764D01*
X116139682Y-87025242D01*
X116304884Y-87046052D01*
X116585544Y-87066775D01*
X116927824Y-87083625D01*
X117014366Y-87086712D01*
X117713065Y-87109666D01*
X117717845Y-85966666D01*
X117722400Y-85505063D01*
X117732857Y-85194152D01*
X117751217Y-85015337D01*
X117779484Y-84950021D01*
X117819659Y-84979608D01*
X117823480Y-84985570D01*
X117965927Y-85180370D01*
X118072500Y-85303070D01*
X118159283Y-85445578D01*
X118205909Y-85670464D01*
X118220619Y-86019086D01*
X118220667Y-86046612D01*
X118251870Y-86492973D01*
X118355591Y-86800344D01*
X118546994Y-86989059D01*
X118841246Y-87079452D01*
X119001119Y-87093072D01*
X119400571Y-87109666D01*
X119424452Y-86263000D01*
X119448334Y-85416333D01*
X119723500Y-85389802D01*
X119998667Y-85363271D01*
X119998667Y-85772256D01*
X120011631Y-86010699D01*
X120068375Y-86199125D01*
X120195680Y-86396823D01*
X120380619Y-86617870D01*
X120762571Y-87054498D01*
X121440183Y-87082082D01*
X121783390Y-87091392D01*
X121993709Y-87080955D01*
X122107032Y-87044706D01*
X122159251Y-86976583D01*
X122165207Y-86959597D01*
X122179729Y-86748624D01*
X122139802Y-86477964D01*
X122062563Y-86240346D01*
X122018729Y-86167054D01*
X122006164Y-86063329D01*
X122070840Y-86021544D01*
X122169513Y-85893569D01*
X122194050Y-85651823D01*
X122176654Y-85392249D01*
X122140728Y-85265838D01*
X121692000Y-85265838D01*
X121692000Y-85628000D01*
X121226334Y-85628000D01*
X120959637Y-85633494D01*
X120820770Y-85662534D01*
X120768296Y-85733956D01*
X120760667Y-85839666D01*
X120772755Y-85960892D01*
X120836644Y-86024013D01*
X120993771Y-86047865D01*
X121226334Y-86051333D01*
X121492548Y-86055598D01*
X121631111Y-86083549D01*
X121683702Y-86157922D01*
X121692000Y-86301449D01*
X121692000Y-86559333D01*
X121106860Y-86559333D01*
X120791708Y-86553908D01*
X120592825Y-86526031D01*
X120457224Y-86458297D01*
X120331917Y-86333301D01*
X120298226Y-86293725D01*
X120141599Y-86055338D01*
X120095544Y-85801826D01*
X120100200Y-85679892D01*
X120125667Y-85331666D01*
X120612500Y-85306274D01*
X120887164Y-85286198D01*
X121032912Y-85249870D01*
X121090132Y-85177975D01*
X121099334Y-85073441D01*
X121082898Y-84945348D01*
X121003420Y-84884659D01*
X120815640Y-84866732D01*
X120718334Y-84866000D01*
X120484051Y-84858636D01*
X120373087Y-84816123D01*
X120339488Y-84707824D01*
X120337334Y-84612000D01*
X120345771Y-84464318D01*
X120399515Y-84389153D01*
X120541214Y-84362260D01*
X120781834Y-84359296D01*
X121051209Y-84371198D01*
X121253289Y-84400217D01*
X121315908Y-84422796D01*
X121524305Y-84657321D01*
X121658126Y-84989577D01*
X121692000Y-85265838D01*
X122140728Y-85265838D01*
X122118613Y-85188028D01*
X121994146Y-84986573D01*
X121777476Y-84735296D01*
X121708506Y-84661323D01*
X121344011Y-84273333D01*
X120147032Y-84273333D01*
X120185149Y-84732969D01*
X120199336Y-85004448D01*
X120177441Y-85152080D01*
X120109334Y-85219350D01*
X120068633Y-85233043D01*
X119966188Y-85232637D01*
X119921971Y-85133176D01*
X119914000Y-84957498D01*
X119856301Y-84646621D01*
X119475124Y-84646621D01*
X119472855Y-84800411D01*
X119381937Y-84858549D01*
X119242291Y-84866000D01*
X118982667Y-84866000D01*
X118982667Y-86559333D01*
X118396132Y-86559333D01*
X118371900Y-85733833D01*
X118358442Y-85354133D01*
X118339595Y-85111476D01*
X118307234Y-84973597D01*
X118253231Y-84908227D01*
X118169459Y-84883100D01*
X118157167Y-84881278D01*
X118010068Y-84813253D01*
X117966705Y-84638181D01*
X117966637Y-84627278D01*
X117966608Y-84400333D01*
X118707471Y-84413788D01*
X119062468Y-84422247D01*
X119282404Y-84438790D01*
X119401535Y-84473807D01*
X119454120Y-84537689D01*
X119474413Y-84640824D01*
X119475124Y-84646621D01*
X119856301Y-84646621D01*
X119856299Y-84646612D01*
X119718044Y-84457425D01*
X119610566Y-84372712D01*
X119480241Y-84318628D01*
X119288697Y-84288500D01*
X118997563Y-84275654D01*
X118659710Y-84273333D01*
X117797334Y-84273333D01*
X117797334Y-84721393D01*
X117589710Y-84497363D01*
X117529670Y-84442666D01*
X117289334Y-84442666D01*
X117289334Y-86559333D01*
X115934667Y-86559333D01*
X115934667Y-86305333D01*
X115945712Y-86149144D01*
X116009482Y-86075168D01*
X116171931Y-86052769D01*
X116315667Y-86051333D01*
X116550774Y-86042560D01*
X116662166Y-85999436D01*
X116695212Y-85896757D01*
X116696667Y-85839666D01*
X116656980Y-85673685D01*
X116527334Y-85628000D01*
X116388230Y-85579266D01*
X116369389Y-85473581D01*
X116469359Y-85371716D01*
X116534032Y-85347716D01*
X116668809Y-85256611D01*
X116682198Y-85105008D01*
X116636729Y-84976296D01*
X116515946Y-84910836D01*
X116294500Y-84882298D01*
X116066551Y-84854039D01*
X115961991Y-84793581D01*
X115934895Y-84671205D01*
X115934667Y-84649465D01*
X115942459Y-84546886D01*
X115988857Y-84485461D01*
X116108394Y-84454647D01*
X116335607Y-84443901D01*
X116612000Y-84442666D01*
X117289334Y-84442666D01*
X117529670Y-84442666D01*
X117451134Y-84371121D01*
X117296091Y-84303393D01*
X117067169Y-84276797D01*
X116849742Y-84273333D01*
X116317397Y-84273333D01*
X116557715Y-84050498D01*
X116727866Y-83812013D01*
X116741649Y-83574575D01*
X116349019Y-83574575D01*
X116342458Y-83656151D01*
X116255287Y-83852440D01*
X116041982Y-83963544D01*
X115690563Y-83994848D01*
X115596000Y-83991684D01*
X115372945Y-83948677D01*
X115299667Y-83857308D01*
X115373927Y-83762433D01*
X115566865Y-83651678D01*
X115723000Y-83588703D01*
X116042847Y-83482415D01*
X116234527Y-83442533D01*
X116326948Y-83472204D01*
X116349019Y-83574575D01*
X116741649Y-83574575D01*
X116743217Y-83547568D01*
X116688403Y-83430872D01*
X115074220Y-83430872D01*
X114982637Y-83532707D01*
X114965638Y-83540171D01*
X114890062Y-83611056D01*
X114897173Y-83764958D01*
X114923305Y-83866170D01*
X114984544Y-84097736D01*
X114980107Y-84216247D01*
X114889979Y-84271709D01*
X114748398Y-84303153D01*
X114500110Y-84425975D01*
X114396141Y-84567737D01*
X114314478Y-84723230D01*
X114264611Y-84781333D01*
X114193696Y-84723113D01*
X114060430Y-84578627D01*
X114020987Y-84532457D01*
X113754257Y-84318858D01*
X113539620Y-84253236D01*
X113400309Y-84233673D01*
X113362126Y-84203768D01*
X113440459Y-84144853D01*
X113650695Y-84038256D01*
X113760613Y-83985106D01*
X114022903Y-83844780D01*
X114218048Y-83714654D01*
X114298040Y-83631408D01*
X114405548Y-83513971D01*
X114604697Y-83386707D01*
X114824989Y-83288627D01*
X114974009Y-83257333D01*
X115072101Y-83313505D01*
X115074220Y-83430872D01*
X116688403Y-83430872D01*
X116601923Y-83246765D01*
X116557489Y-83193499D01*
X115857640Y-83193499D01*
X115825875Y-83247592D01*
X115636355Y-83336653D01*
X115411554Y-83260116D01*
X115281692Y-83155779D01*
X115138022Y-83042292D01*
X114995795Y-83011224D01*
X114781309Y-83050481D01*
X114726893Y-83064735D01*
X114422370Y-83118116D01*
X114258607Y-83079130D01*
X114236738Y-82948981D01*
X114357900Y-82728873D01*
X114381121Y-82697761D01*
X114521078Y-82465419D01*
X114596781Y-82244665D01*
X114601167Y-82196715D01*
X114617139Y-82053798D01*
X114682454Y-82054539D01*
X114722464Y-82084833D01*
X114833335Y-82213888D01*
X114981973Y-82431763D01*
X115067649Y-82573250D01*
X115259633Y-82869403D01*
X115420350Y-83047993D01*
X115535949Y-83098944D01*
X115592580Y-83012181D01*
X115596000Y-82957627D01*
X115533954Y-82715675D01*
X115359454Y-82392592D01*
X115089957Y-82015859D01*
X114742922Y-81612957D01*
X114739317Y-81609100D01*
X114491577Y-81321931D01*
X114368294Y-81132836D01*
X114363879Y-81050383D01*
X114472740Y-81083138D01*
X114689286Y-81239669D01*
X114874472Y-81401990D01*
X115147094Y-81691854D01*
X115398182Y-82027826D01*
X115611258Y-82377941D01*
X115769845Y-82710235D01*
X115857465Y-82992742D01*
X115857640Y-83193499D01*
X116557489Y-83193499D01*
X116364636Y-82962316D01*
X116148302Y-82698345D01*
X115922477Y-82360886D01*
X115771339Y-82090662D01*
X115444364Y-81535785D01*
X115089732Y-81120744D01*
X114719001Y-80858099D01*
X114588184Y-80804700D01*
X114215433Y-80737594D01*
X113762470Y-80735899D01*
X113302782Y-80793949D01*
G37*
X113302782Y-80793949D02*
X112909851Y-80906081D01*
X112834764Y-80939856D01*
X112590475Y-81086416D01*
X112487100Y-81206846D01*
X112529970Y-81287433D01*
X112689112Y-81314440D01*
X112929000Y-81318881D01*
X112738500Y-81451767D01*
X112573019Y-81595780D01*
X112567701Y-81685088D01*
X112722418Y-81719578D01*
X113020042Y-81701168D01*
X113458710Y-81688570D01*
X113837265Y-81751679D01*
X114120224Y-81880751D01*
X114262518Y-82042348D01*
X114289355Y-82276617D01*
X114153324Y-82509352D01*
X113852114Y-82743271D01*
X113514538Y-82921999D01*
X113157062Y-83098560D01*
X112790179Y-83294579D01*
X112541317Y-83438823D01*
X112123050Y-83696186D01*
X111656351Y-83502750D01*
X111372489Y-83395414D01*
X111175835Y-83357183D01*
X111002779Y-83380178D01*
X110910315Y-83410323D01*
X110703097Y-83478457D01*
X110567472Y-83510895D01*
X110559609Y-83511333D01*
X110450900Y-83449739D01*
X110265284Y-83285234D01*
X110030249Y-83048228D01*
X109773283Y-82769134D01*
X109521876Y-82478364D01*
X109303515Y-82206329D01*
X109145689Y-81983442D01*
X109092503Y-81888197D01*
X108931901Y-81599279D01*
X108737723Y-81330515D01*
X108684047Y-81270386D01*
X108514842Y-81125451D01*
X108427061Y-81124215D01*
X108421453Y-81261494D01*
X108498767Y-81532105D01*
X108606404Y-81807079D01*
X108717937Y-82087977D01*
X108796029Y-82315037D01*
X108822667Y-82431195D01*
X108754317Y-82537313D01*
X108583735Y-82667495D01*
X108516925Y-82706145D01*
X108286662Y-82870103D01*
X108035162Y-83107602D01*
X107907327Y-83254565D01*
X107733748Y-83473739D01*
X107602577Y-83639262D01*
X107553882Y-83700620D01*
X107468832Y-83683797D01*
X107296026Y-83578312D01*
X107095928Y-83425453D01*
X106870895Y-83248786D01*
X106693809Y-83126630D01*
X106612115Y-83088000D01*
X106534263Y-83139526D01*
X106580442Y-83285307D01*
X106743809Y-83512146D01*
X106948967Y-83737663D01*
X107184000Y-83989829D01*
X107389739Y-84229412D01*
X107511204Y-84389779D01*
X107645342Y-84541164D01*
X107858294Y-84689948D01*
X108174913Y-84849728D01*
X108620050Y-85034104D01*
X108845890Y-85120121D01*
X109194135Y-85261634D01*
X109384263Y-85381598D01*
X109418289Y-85503530D01*
X109298226Y-85650945D01*
X109026090Y-85847362D01*
X108914402Y-85919802D01*
X108560423Y-86171834D01*
X108359752Y-86384159D01*
X108305982Y-86573319D01*
X108392701Y-86755856D01*
X108537752Y-86891854D01*
X108754291Y-87022382D01*
X108971541Y-87049589D01*
X109229949Y-86968877D01*
X109569959Y-86775647D01*
X109572184Y-86774229D01*
X109843448Y-86613808D01*
X110029133Y-86542942D01*
X110176809Y-86546570D01*
X110233863Y-86564730D01*
X110525864Y-86637414D01*
X110804761Y-86610411D01*
X111113466Y-86472981D01*
X111423597Y-86266974D01*
X111791895Y-85983417D01*
X112113830Y-85706379D01*
X112364207Y-85460065D01*
X112517832Y-85268680D01*
X112554292Y-85180677D01*
X112580936Y-85026218D01*
X112330701Y-85026218D01*
X112308562Y-85131413D01*
X112177964Y-85268558D01*
X111984897Y-85400183D01*
X111775348Y-85488815D01*
X111757362Y-85493376D01*
X111598384Y-85547900D01*
X111582374Y-85620620D01*
X111619562Y-85673821D01*
X111659801Y-85751078D01*
X111591404Y-85787587D01*
X111385357Y-85797296D01*
X111362667Y-85797333D01*
X111144188Y-85803929D01*
X111065106Y-85835248D01*
X111095648Y-85908585D01*
X111119467Y-85938612D01*
X111181474Y-86031442D01*
X111129695Y-86053445D01*
X110970496Y-86027395D01*
X110735096Y-86006706D01*
X110639853Y-86061456D01*
X110692550Y-86186975D01*
X110696435Y-86191709D01*
X110730253Y-86283924D01*
X110650278Y-86313908D01*
X110497251Y-86288668D01*
X110311911Y-86215212D01*
X110134997Y-86100546D01*
X110127003Y-86093770D01*
X109955380Y-85957265D01*
X109839829Y-85885366D01*
X109826559Y-85882103D01*
X109737679Y-85819546D01*
X109749259Y-85648206D01*
X109856291Y-85391776D01*
X109971736Y-85195246D01*
X110123844Y-84942923D01*
X110228932Y-84737577D01*
X110262000Y-84636021D01*
X110213389Y-84534848D01*
X110082283Y-84558357D01*
X109890773Y-84698054D01*
X109761060Y-84828602D01*
X109580817Y-85007619D01*
X109460854Y-85067551D01*
X109366456Y-85029901D01*
X109275360Y-84874533D01*
X109246000Y-84700410D01*
X109221446Y-84480243D01*
X109136364Y-84414717D01*
X108973626Y-84494798D01*
X108925404Y-84531292D01*
X108771214Y-84638454D01*
X108685427Y-84671625D01*
X108683302Y-84670190D01*
X108697334Y-84583376D01*
X108759441Y-84376049D01*
X108857861Y-84086104D01*
X108907004Y-83949337D01*
X109025669Y-83617115D01*
X109087905Y-83412435D01*
X109097803Y-83304692D01*
X109059452Y-83263278D01*
X108999488Y-83257333D01*
X108867640Y-83319348D01*
X108667385Y-83485518D01*
X108433888Y-83726032D01*
X108396672Y-83768405D01*
X108187261Y-84002089D01*
X108022490Y-84170917D01*
X107930494Y-84246545D01*
X107921517Y-84247071D01*
X107920803Y-84139322D01*
X108001346Y-83947317D01*
X108136836Y-83717573D01*
X108300958Y-83496611D01*
X108413883Y-83376600D01*
X108731503Y-83104456D01*
X109023989Y-82895338D01*
X109256721Y-82772290D01*
X109356078Y-82749333D01*
X109467009Y-82815875D01*
X109623312Y-82988001D01*
X109749825Y-83166158D01*
X109917187Y-83412189D01*
X110066640Y-83606992D01*
X110139651Y-83684525D01*
X110245687Y-83852433D01*
X110262000Y-83945033D01*
X110315848Y-84076899D01*
X110444336Y-84089878D01*
X110597880Y-83980161D01*
X110605300Y-83971417D01*
X110758471Y-83838192D01*
X110963029Y-83710746D01*
X111181849Y-83629991D01*
X111383408Y-83656551D01*
X111456028Y-83684268D01*
X111626957Y-83775769D01*
X111701236Y-83856551D01*
X111701334Y-83858658D01*
X111629650Y-83933262D01*
X111466523Y-83987730D01*
X111289835Y-84003286D01*
X111198146Y-83979974D01*
X111123712Y-83984836D01*
X111110834Y-84105265D01*
X111153807Y-84301422D01*
X111246927Y-84533472D01*
X111288798Y-84613110D01*
X111522154Y-84928825D01*
X111773419Y-85081939D01*
X112037065Y-85069377D01*
X112078587Y-85052445D01*
X112245479Y-85004788D01*
X112330701Y-85026218D01*
X112580936Y-85026218D01*
X112619187Y-84804474D01*
X112767979Y-84548700D01*
X112823858Y-84496275D01*
X113013667Y-84338217D01*
X113056000Y-85524924D01*
X113080976Y-86072233D01*
X113118662Y-86472835D01*
X113180426Y-86749352D01*
X113277637Y-86924407D01*
X113421662Y-87020620D01*
X113623872Y-87060613D01*
X113831123Y-87067333D01*
X114241334Y-87067333D01*
X114241334Y-86559333D01*
X114252781Y-86291411D01*
X114282536Y-86107336D01*
X114316942Y-86051333D01*
X114413311Y-86127395D01*
X114478533Y-86321981D01*
X114495334Y-86514544D01*
X114570958Y-86794654D01*
X114772679Y-86995828D01*
X115062769Y-87081971D01*
X115089321Y-87082821D01*
X115325556Y-87088058D01*
X115490702Y-87080012D01*
X115596614Y-87033411D01*
X115655148Y-86922984D01*
X115678156Y-86723456D01*
X115677494Y-86409556D01*
X115665015Y-85956011D01*
X115662511Y-85860833D01*
X115648284Y-85458666D01*
X115172667Y-85458666D01*
X115172667Y-86559333D01*
X114580000Y-86559333D01*
X114580000Y-85087101D01*
X114375502Y-85364284D01*
X114171003Y-85641467D01*
X114015668Y-85317233D01*
X113860334Y-84993000D01*
X113835990Y-85776166D01*
X113811646Y-86559333D01*
X113225334Y-86559333D01*
X113225334Y-84383245D01*
X113458167Y-84399703D01*
X113645960Y-84416390D01*
X113759742Y-84458311D01*
X113851512Y-84564599D01*
X113973270Y-84774391D01*
X113985894Y-84796871D01*
X114184968Y-85151077D01*
X114318984Y-84956865D01*
X114587185Y-84618421D01*
X114827607Y-84414897D01*
X114999485Y-84358000D01*
X115070153Y-84366575D01*
X115118430Y-84410317D01*
X115148568Y-84516249D01*
X115164819Y-84711392D01*
X115171434Y-85022770D01*
X115172667Y-85458666D01*
X115648284Y-85458666D01*
X115646744Y-85415163D01*
X115624551Y-85021938D01*
X115598526Y-84716297D01*
X115571261Y-84533381D01*
X115562540Y-84506166D01*
X115542397Y-84386152D01*
X115629275Y-84358000D01*
X115725087Y-84408598D01*
X115763110Y-84581597D01*
X115765334Y-84670867D01*
X115832551Y-85000605D01*
X115975496Y-85203096D01*
X116139038Y-85436335D01*
X116239527Y-85691839D01*
X116240080Y-85694562D01*
X116264883Y-85880336D01*
X116208818Y-85953715D01*
X116031747Y-85966666D01*
X116029917Y-85966666D01*
X115851475Y-85982529D01*
X115778918Y-86064671D01*
X115765334Y-86259016D01*
X115809486Y-86603398D01*
X115928934Y-86868626D01*
X116104169Y-87014764D01*
X116139682Y-87025242D01*
X116304884Y-87046052D01*
X116585544Y-87066775D01*
X116927824Y-87083625D01*
X117014366Y-87086712D01*
X117713065Y-87109666D01*
X117717845Y-85966666D01*
X117722400Y-85505063D01*
X117732857Y-85194152D01*
X117751217Y-85015337D01*
X117779484Y-84950021D01*
X117819659Y-84979608D01*
X117823480Y-84985570D01*
X117965927Y-85180370D01*
X118072500Y-85303070D01*
X118159283Y-85445578D01*
X118205909Y-85670464D01*
X118220619Y-86019086D01*
X118220667Y-86046612D01*
X118251870Y-86492973D01*
X118355591Y-86800344D01*
X118546994Y-86989059D01*
X118841246Y-87079452D01*
X119001119Y-87093072D01*
X119400571Y-87109666D01*
X119424452Y-86263000D01*
X119448334Y-85416333D01*
X119723500Y-85389802D01*
X119998667Y-85363271D01*
X119998667Y-85772256D01*
X120011631Y-86010699D01*
X120068375Y-86199125D01*
X120195680Y-86396823D01*
X120380619Y-86617870D01*
X120762571Y-87054498D01*
X121440183Y-87082082D01*
X121783390Y-87091392D01*
X121993709Y-87080955D01*
X122107032Y-87044706D01*
X122159251Y-86976583D01*
X122165207Y-86959597D01*
X122179729Y-86748624D01*
X122139802Y-86477964D01*
X122062563Y-86240346D01*
X122018729Y-86167054D01*
X122006164Y-86063329D01*
X122070840Y-86021544D01*
X122169513Y-85893569D01*
X122194050Y-85651823D01*
X122176654Y-85392249D01*
X122140728Y-85265838D01*
X121692000Y-85265838D01*
X121692000Y-85628000D01*
X121226334Y-85628000D01*
X120959637Y-85633494D01*
X120820770Y-85662534D01*
X120768296Y-85733956D01*
X120760667Y-85839666D01*
X120772755Y-85960892D01*
X120836644Y-86024013D01*
X120993771Y-86047865D01*
X121226334Y-86051333D01*
X121492548Y-86055598D01*
X121631111Y-86083549D01*
X121683702Y-86157922D01*
X121692000Y-86301449D01*
X121692000Y-86559333D01*
X121106860Y-86559333D01*
X120791708Y-86553908D01*
X120592825Y-86526031D01*
X120457224Y-86458297D01*
X120331917Y-86333301D01*
X120298226Y-86293725D01*
X120141599Y-86055338D01*
X120095544Y-85801826D01*
X120100200Y-85679892D01*
X120125667Y-85331666D01*
X120612500Y-85306274D01*
X120887164Y-85286198D01*
X121032912Y-85249870D01*
X121090132Y-85177975D01*
X121099334Y-85073441D01*
X121082898Y-84945348D01*
X121003420Y-84884659D01*
X120815640Y-84866732D01*
X120718334Y-84866000D01*
X120484051Y-84858636D01*
X120373087Y-84816123D01*
X120339488Y-84707824D01*
X120337334Y-84612000D01*
X120345771Y-84464318D01*
X120399515Y-84389153D01*
X120541214Y-84362260D01*
X120781834Y-84359296D01*
X121051209Y-84371198D01*
X121253289Y-84400217D01*
X121315908Y-84422796D01*
X121524305Y-84657321D01*
X121658126Y-84989577D01*
X121692000Y-85265838D01*
X122140728Y-85265838D01*
X122118613Y-85188028D01*
X121994146Y-84986573D01*
X121777476Y-84735296D01*
X121708506Y-84661323D01*
X121344011Y-84273333D01*
X120147032Y-84273333D01*
X120185149Y-84732969D01*
X120199336Y-85004448D01*
X120177441Y-85152080D01*
X120109334Y-85219350D01*
X120068633Y-85233043D01*
X119966188Y-85232637D01*
X119921971Y-85133176D01*
X119914000Y-84957498D01*
X119856301Y-84646621D01*
X119475124Y-84646621D01*
X119472855Y-84800411D01*
X119381937Y-84858549D01*
X119242291Y-84866000D01*
X118982667Y-84866000D01*
X118982667Y-86559333D01*
X118396132Y-86559333D01*
X118371900Y-85733833D01*
X118358442Y-85354133D01*
X118339595Y-85111476D01*
X118307234Y-84973597D01*
X118253231Y-84908227D01*
X118169459Y-84883100D01*
X118157167Y-84881278D01*
X118010068Y-84813253D01*
X117966705Y-84638181D01*
X117966637Y-84627278D01*
X117966608Y-84400333D01*
X118707471Y-84413788D01*
X119062468Y-84422247D01*
X119282404Y-84438790D01*
X119401535Y-84473807D01*
X119454120Y-84537689D01*
X119474413Y-84640824D01*
X119475124Y-84646621D01*
X119856301Y-84646621D01*
X119856299Y-84646612D01*
X119718044Y-84457425D01*
X119610566Y-84372712D01*
X119480241Y-84318628D01*
X119288697Y-84288500D01*
X118997563Y-84275654D01*
X118659710Y-84273333D01*
X117797334Y-84273333D01*
X117797334Y-84721393D01*
X117589710Y-84497363D01*
X117529670Y-84442666D01*
X117289334Y-84442666D01*
X117289334Y-86559333D01*
X115934667Y-86559333D01*
X115934667Y-86305333D01*
X115945712Y-86149144D01*
X116009482Y-86075168D01*
X116171931Y-86052769D01*
X116315667Y-86051333D01*
X116550774Y-86042560D01*
X116662166Y-85999436D01*
X116695212Y-85896757D01*
X116696667Y-85839666D01*
X116656980Y-85673685D01*
X116527334Y-85628000D01*
X116388230Y-85579266D01*
X116369389Y-85473581D01*
X116469359Y-85371716D01*
X116534032Y-85347716D01*
X116668809Y-85256611D01*
X116682198Y-85105008D01*
X116636729Y-84976296D01*
X116515946Y-84910836D01*
X116294500Y-84882298D01*
X116066551Y-84854039D01*
X115961991Y-84793581D01*
X115934895Y-84671205D01*
X115934667Y-84649465D01*
X115942459Y-84546886D01*
X115988857Y-84485461D01*
X116108394Y-84454647D01*
X116335607Y-84443901D01*
X116612000Y-84442666D01*
X117289334Y-84442666D01*
X117529670Y-84442666D01*
X117451134Y-84371121D01*
X117296091Y-84303393D01*
X117067169Y-84276797D01*
X116849742Y-84273333D01*
X116317397Y-84273333D01*
X116557715Y-84050498D01*
X116727866Y-83812013D01*
X116741649Y-83574575D01*
X116349019Y-83574575D01*
X116342458Y-83656151D01*
X116255287Y-83852440D01*
X116041982Y-83963544D01*
X115690563Y-83994848D01*
X115596000Y-83991684D01*
X115372945Y-83948677D01*
X115299667Y-83857308D01*
X115373927Y-83762433D01*
X115566865Y-83651678D01*
X115723000Y-83588703D01*
X116042847Y-83482415D01*
X116234527Y-83442533D01*
X116326948Y-83472204D01*
X116349019Y-83574575D01*
X116741649Y-83574575D01*
X116743217Y-83547568D01*
X116688403Y-83430872D01*
X115074220Y-83430872D01*
X114982637Y-83532707D01*
X114965638Y-83540171D01*
X114890062Y-83611056D01*
X114897173Y-83764958D01*
X114923305Y-83866170D01*
X114984544Y-84097736D01*
X114980107Y-84216247D01*
X114889979Y-84271709D01*
X114748398Y-84303153D01*
X114500110Y-84425975D01*
X114396141Y-84567737D01*
X114314478Y-84723230D01*
X114264611Y-84781333D01*
X114193696Y-84723113D01*
X114060430Y-84578627D01*
X114020987Y-84532457D01*
X113754257Y-84318858D01*
X113539620Y-84253236D01*
X113400309Y-84233673D01*
X113362126Y-84203768D01*
X113440459Y-84144853D01*
X113650695Y-84038256D01*
X113760613Y-83985106D01*
X114022903Y-83844780D01*
X114218048Y-83714654D01*
X114298040Y-83631408D01*
X114405548Y-83513971D01*
X114604697Y-83386707D01*
X114824989Y-83288627D01*
X114974009Y-83257333D01*
X115072101Y-83313505D01*
X115074220Y-83430872D01*
X116688403Y-83430872D01*
X116601923Y-83246765D01*
X116557489Y-83193499D01*
X115857640Y-83193499D01*
X115825875Y-83247592D01*
X115636355Y-83336653D01*
X115411554Y-83260116D01*
X115281692Y-83155779D01*
X115138022Y-83042292D01*
X114995795Y-83011224D01*
X114781309Y-83050481D01*
X114726893Y-83064735D01*
X114422370Y-83118116D01*
X114258607Y-83079130D01*
X114236738Y-82948981D01*
X114357900Y-82728873D01*
X114381121Y-82697761D01*
X114521078Y-82465419D01*
X114596781Y-82244665D01*
X114601167Y-82196715D01*
X114617139Y-82053798D01*
X114682454Y-82054539D01*
X114722464Y-82084833D01*
X114833335Y-82213888D01*
X114981973Y-82431763D01*
X115067649Y-82573250D01*
X115259633Y-82869403D01*
X115420350Y-83047993D01*
X115535949Y-83098944D01*
X115592580Y-83012181D01*
X115596000Y-82957627D01*
X115533954Y-82715675D01*
X115359454Y-82392592D01*
X115089957Y-82015859D01*
X114742922Y-81612957D01*
X114739317Y-81609100D01*
X114491577Y-81321931D01*
X114368294Y-81132836D01*
X114363879Y-81050383D01*
X114472740Y-81083138D01*
X114689286Y-81239669D01*
X114874472Y-81401990D01*
X115147094Y-81691854D01*
X115398182Y-82027826D01*
X115611258Y-82377941D01*
X115769845Y-82710235D01*
X115857465Y-82992742D01*
X115857640Y-83193499D01*
X116557489Y-83193499D01*
X116364636Y-82962316D01*
X116148302Y-82698345D01*
X115922477Y-82360886D01*
X115771339Y-82090662D01*
X115444364Y-81535785D01*
X115089732Y-81120744D01*
X114719001Y-80858099D01*
X114588184Y-80804700D01*
X114215433Y-80737594D01*
X113762470Y-80735899D01*
X113302782Y-80793949D01*
G36*
X124757649Y-84739000D02*
G01*
X124770082Y-85021276D01*
X124744509Y-85166693D01*
X124683466Y-85204666D01*
X124613973Y-85262561D01*
X124578477Y-85450459D01*
X124571209Y-85691500D01*
X124581543Y-85969704D01*
X124629025Y-86174640D01*
X124739504Y-86373193D01*
X124931043Y-86622631D01*
X125290334Y-87066929D01*
X126687334Y-87067333D01*
X126687334Y-86703266D01*
X126663911Y-86450669D01*
X126605382Y-86261740D01*
X126581500Y-86227016D01*
X126518125Y-86126540D01*
X126581500Y-86076027D01*
X126650242Y-85966398D01*
X126684577Y-85717487D01*
X126687334Y-85598323D01*
X126676636Y-85349670D01*
X126647458Y-85238635D01*
X126264000Y-85238635D01*
X126264000Y-85628000D01*
X125798334Y-85628000D01*
X125531519Y-85633648D01*
X125392581Y-85662871D01*
X125340143Y-85734082D01*
X125332667Y-85835242D01*
X125347985Y-85957285D01*
X125422021Y-86023304D01*
X125596897Y-86055402D01*
X125776374Y-86068075D01*
X126051203Y-86097056D01*
X126196086Y-86153117D01*
X126249201Y-86246778D01*
X126261167Y-86427576D01*
X126193184Y-86532272D01*
X126017259Y-86576412D01*
X125705396Y-86575539D01*
X125661092Y-86573336D01*
X125331167Y-86542949D01*
X125109963Y-86481296D01*
X124937284Y-86369010D01*
X124888167Y-86324663D01*
X124736805Y-86145859D01*
X124668845Y-85941566D01*
X124655334Y-85696826D01*
X124655334Y-85289333D01*
X125163334Y-85289333D01*
X125444874Y-85284851D01*
X125596878Y-85260361D01*
X125659106Y-85199295D01*
X125671323Y-85085085D01*
X125671334Y-85077666D01*
X125657847Y-84952660D01*
X125588692Y-84889913D01*
X125420823Y-84868186D01*
X125242377Y-84866000D01*
X124990371Y-84860850D01*
X124867111Y-84829745D01*
X124832028Y-84749196D01*
X124840210Y-84633166D01*
X124870390Y-84494706D01*
X124950181Y-84421452D01*
X125125479Y-84387555D01*
X125298300Y-84375199D01*
X125577633Y-84373055D01*
X125767600Y-84424027D01*
X125945806Y-84553054D01*
X125996800Y-84599668D01*
X126171827Y-84794568D01*
X126248772Y-84995682D01*
X126264000Y-85238635D01*
X126647458Y-85238635D01*
X126627014Y-85160837D01*
X126512176Y-84971994D01*
X126305831Y-84723313D01*
X126299768Y-84716379D01*
X125912202Y-84273333D01*
X124719032Y-84273333D01*
X124757649Y-84739000D01*
G37*
X124757649Y-84739000D02*
X124770082Y-85021276D01*
X124744509Y-85166693D01*
X124683466Y-85204666D01*
X124613973Y-85262561D01*
X124578477Y-85450459D01*
X124571209Y-85691500D01*
X124581543Y-85969704D01*
X124629025Y-86174640D01*
X124739504Y-86373193D01*
X124931043Y-86622631D01*
X125290334Y-87066929D01*
X126687334Y-87067333D01*
X126687334Y-86703266D01*
X126663911Y-86450669D01*
X126605382Y-86261740D01*
X126581500Y-86227016D01*
X126518125Y-86126540D01*
X126581500Y-86076027D01*
X126650242Y-85966398D01*
X126684577Y-85717487D01*
X126687334Y-85598323D01*
X126676636Y-85349670D01*
X126647458Y-85238635D01*
X126264000Y-85238635D01*
X126264000Y-85628000D01*
X125798334Y-85628000D01*
X125531519Y-85633648D01*
X125392581Y-85662871D01*
X125340143Y-85734082D01*
X125332667Y-85835242D01*
X125347985Y-85957285D01*
X125422021Y-86023304D01*
X125596897Y-86055402D01*
X125776374Y-86068075D01*
X126051203Y-86097056D01*
X126196086Y-86153117D01*
X126249201Y-86246778D01*
X126261167Y-86427576D01*
X126193184Y-86532272D01*
X126017259Y-86576412D01*
X125705396Y-86575539D01*
X125661092Y-86573336D01*
X125331167Y-86542949D01*
X125109963Y-86481296D01*
X124937284Y-86369010D01*
X124888167Y-86324663D01*
X124736805Y-86145859D01*
X124668845Y-85941566D01*
X124655334Y-85696826D01*
X124655334Y-85289333D01*
X125163334Y-85289333D01*
X125444874Y-85284851D01*
X125596878Y-85260361D01*
X125659106Y-85199295D01*
X125671323Y-85085085D01*
X125671334Y-85077666D01*
X125657847Y-84952660D01*
X125588692Y-84889913D01*
X125420823Y-84868186D01*
X125242377Y-84866000D01*
X124990371Y-84860850D01*
X124867111Y-84829745D01*
X124832028Y-84749196D01*
X124840210Y-84633166D01*
X124870390Y-84494706D01*
X124950181Y-84421452D01*
X125125479Y-84387555D01*
X125298300Y-84375199D01*
X125577633Y-84373055D01*
X125767600Y-84424027D01*
X125945806Y-84553054D01*
X125996800Y-84599668D01*
X126171827Y-84794568D01*
X126248772Y-84995682D01*
X126264000Y-85238635D01*
X126647458Y-85238635D01*
X126627014Y-85160837D01*
X126512176Y-84971994D01*
X126305831Y-84723313D01*
X126299768Y-84716379D01*
X125912202Y-84273333D01*
X124719032Y-84273333D01*
X124757649Y-84739000D01*
G36*
X144060414Y-84932399D02*
G01*
X143986966Y-85086399D01*
X144016605Y-85260200D01*
X144092140Y-85346382D01*
X144263290Y-85444710D01*
X144352289Y-85408648D01*
X144381874Y-85223792D01*
X144382667Y-85162333D01*
X144363068Y-84957121D01*
X144288223Y-84874754D01*
X144219039Y-84866000D01*
X144060414Y-84932399D01*
G37*
X144060414Y-84932399D02*
X143986966Y-85086399D01*
X144016605Y-85260200D01*
X144092140Y-85346382D01*
X144263290Y-85444710D01*
X144352289Y-85408648D01*
X144381874Y-85223792D01*
X144382667Y-85162333D01*
X144363068Y-84957121D01*
X144288223Y-84874754D01*
X144219039Y-84866000D01*
X144060414Y-84932399D01*
G36*
X141838344Y-84881989D02*
G01*
X141787363Y-84954096D01*
X141764046Y-85118527D01*
X141758048Y-85411490D01*
X141758000Y-85458666D01*
X141762569Y-85770131D01*
X141783171Y-85948564D01*
X141830151Y-86030174D01*
X141913855Y-86051168D01*
X141927334Y-86051333D01*
X142016324Y-86035343D01*
X142067305Y-85963236D01*
X142090622Y-85798805D01*
X142096620Y-85505842D01*
X142096667Y-85458666D01*
X142092099Y-85147202D01*
X142071497Y-84968768D01*
X142024516Y-84887158D01*
X141940813Y-84866165D01*
X141927334Y-84866000D01*
X141838344Y-84881989D01*
G37*
X141838344Y-84881989D02*
X141787363Y-84954096D01*
X141764046Y-85118527D01*
X141758048Y-85411490D01*
X141758000Y-85458666D01*
X141762569Y-85770131D01*
X141783171Y-85948564D01*
X141830151Y-86030174D01*
X141913855Y-86051168D01*
X141927334Y-86051333D01*
X142016324Y-86035343D01*
X142067305Y-85963236D01*
X142090622Y-85798805D01*
X142096620Y-85505842D01*
X142096667Y-85458666D01*
X142092099Y-85147202D01*
X142071497Y-84968768D01*
X142024516Y-84887158D01*
X141940813Y-84866165D01*
X141927334Y-84866000D01*
X141838344Y-84881989D01*
G36*
X134939525Y-84943031D02*
G01*
X134824452Y-85143588D01*
X134749064Y-85421862D01*
X134730667Y-85646838D01*
X134738298Y-85890991D01*
X134776609Y-86010177D01*
X134868731Y-86048598D01*
X134942334Y-86051333D01*
X135052918Y-86042618D01*
X135116208Y-85991873D01*
X135145381Y-85862200D01*
X135153615Y-85616702D01*
X135154000Y-85458666D01*
X135143558Y-85166569D01*
X135116076Y-84954898D01*
X135077325Y-84866470D01*
X135074135Y-84866000D01*
X134939525Y-84943031D01*
G37*
X134939525Y-84943031D02*
X134824452Y-85143588D01*
X134749064Y-85421862D01*
X134730667Y-85646838D01*
X134738298Y-85890991D01*
X134776609Y-86010177D01*
X134868731Y-86048598D01*
X134942334Y-86051333D01*
X135052918Y-86042618D01*
X135116208Y-85991873D01*
X135145381Y-85862200D01*
X135153615Y-85616702D01*
X135154000Y-85458666D01*
X135143558Y-85166569D01*
X135116076Y-84954898D01*
X135077325Y-84866470D01*
X135074135Y-84866000D01*
X134939525Y-84943031D01*
D11*
%TO.C,D8*%
X203700000Y-79415000D02*
X206385000Y-79415000D01*
X206385000Y-79415000D02*
X206385000Y-81335000D01*
X206385000Y-81335000D02*
X203700000Y-81335000D01*
%TO.C,SW4*%
X95817920Y-97935000D02*
G75*
G03*
X95817920Y-97935000I-3000000J0D01*
G01*
X99117920Y-96135000D02*
X99117920Y-91235000D01*
X99117920Y-91235000D02*
X86517920Y-91235000D01*
X86517920Y-91235000D02*
X86517920Y-96135000D01*
X86517920Y-99735000D02*
X86517920Y-104635000D01*
X86517920Y-104635000D02*
X89317920Y-104635000D01*
X99117920Y-99835000D02*
X99117920Y-104635000D01*
X99117920Y-104635000D02*
X96617920Y-104635000D01*
X96617920Y-105435000D02*
X96917920Y-105735000D01*
X96917920Y-105735000D02*
X96917920Y-105135000D01*
X96917920Y-105135000D02*
X96617920Y-105435000D01*
X93317920Y-97935000D02*
X92317920Y-97935000D01*
X92817920Y-98435000D02*
X92817920Y-97435000D01*
%TO.C,SW3*%
X117470280Y-97935000D02*
G75*
G03*
X117470280Y-97935000I-3000000J0D01*
G01*
X120770280Y-96135000D02*
X120770280Y-91235000D01*
X120770280Y-91235000D02*
X108170280Y-91235000D01*
X108170280Y-91235000D02*
X108170280Y-96135000D01*
X108170280Y-99735000D02*
X108170280Y-104635000D01*
X108170280Y-104635000D02*
X110970280Y-104635000D01*
X120770280Y-99835000D02*
X120770280Y-104635000D01*
X120770280Y-104635000D02*
X118270280Y-104635000D01*
X118270280Y-105435000D02*
X118570280Y-105735000D01*
X118570280Y-105735000D02*
X118570280Y-105135000D01*
X118570280Y-105135000D02*
X118270280Y-105435000D01*
X114970280Y-97935000D02*
X113970280Y-97935000D01*
X114470280Y-98435000D02*
X114470280Y-97435000D01*
%TO.C,SW1*%
X207725000Y-94125000D02*
G75*
G03*
X207725000Y-94125000I-3000000J0D01*
G01*
X210625000Y-92125000D02*
X210625000Y-88025000D01*
X198825000Y-88025000D02*
X198825000Y-92125000D01*
X198825000Y-96125000D02*
X198825000Y-100225000D01*
X210625000Y-96125000D02*
X210625000Y-100225000D01*
X210625000Y-100225000D02*
X198825000Y-100225000D01*
X208525000Y-101625000D02*
X208825000Y-101925000D01*
X208825000Y-101925000D02*
X208825000Y-101325000D01*
X208825000Y-101325000D02*
X208525000Y-101625000D01*
X210625000Y-88025000D02*
X208225000Y-88025000D01*
X206025000Y-88025000D02*
X203425000Y-88025000D01*
X201225000Y-88025000D02*
X198825000Y-88025000D01*
X205225000Y-94125000D02*
X204225000Y-94125000D01*
X204725000Y-94625000D02*
X204725000Y-93625000D01*
%TO.C,SW7*%
X51750000Y-82000000D02*
X51750000Y-83500000D01*
X50500000Y-86000000D02*
X46000000Y-86000000D01*
X44750000Y-83500000D02*
X44750000Y-82000000D01*
X46000000Y-79500000D02*
X50500000Y-79500000D01*
D12*
%TO.C,SW9*%
X132134999Y-74105000D02*
X132135000Y-74480000D01*
X132535000Y-74105000D02*
X132134999Y-74105000D01*
X132134999Y-77155000D02*
X132485000Y-77155000D01*
X132135000Y-76780000D02*
X132134999Y-77155000D01*
X139185001Y-74105000D02*
X139185000Y-74504999D01*
X138709999Y-74105000D02*
X139185001Y-74105000D01*
X138260000Y-77230000D02*
X138260000Y-77830000D01*
X138860000Y-77230000D02*
X138260000Y-77230000D01*
X139210000Y-76855000D02*
X138860000Y-77230000D01*
D11*
%TO.C,D7*%
X151740000Y-103385000D02*
X151740000Y-100700000D01*
X153660000Y-103385000D02*
X151740000Y-103385000D01*
X153660000Y-100700000D02*
X153660000Y-103385000D01*
%TO.C,D6*%
X191060000Y-100015000D02*
X191060000Y-102700000D01*
X189140000Y-100015000D02*
X191060000Y-100015000D01*
X189140000Y-102700000D02*
X189140000Y-100015000D01*
%TO.C,D5*%
X191160000Y-86815000D02*
X191160000Y-89500000D01*
X189240000Y-86815000D02*
X191160000Y-86815000D01*
X189240000Y-89500000D02*
X189240000Y-86815000D01*
%TO.C,D4*%
X153760000Y-87562500D02*
X153760000Y-90247500D01*
X153760000Y-90247500D02*
X151840000Y-90247500D01*
X151840000Y-90247500D02*
X151840000Y-87562500D01*
D13*
%TO.C,U5*%
X191450000Y-75600000D02*
X151450000Y-75600000D01*
X151450000Y-110350000D02*
X191450000Y-110350000D01*
X188950000Y-90600000D02*
X191450000Y-90600000D01*
X188950000Y-86600000D02*
X188950000Y-90600000D01*
X191450000Y-86600000D02*
X188950000Y-86600000D01*
X153950000Y-90600000D02*
X151450000Y-90600000D01*
X153950000Y-86600000D02*
X153950000Y-90600000D01*
X151450000Y-86600000D02*
X153950000Y-86600000D01*
X188950000Y-103600000D02*
X191450000Y-103600000D01*
X188950000Y-99600000D02*
X188950000Y-103600000D01*
X191450000Y-99600000D02*
X188950000Y-99600000D01*
X153950000Y-103600000D02*
X151450000Y-103600000D01*
X153950000Y-99600000D02*
X153950000Y-103600000D01*
X151450000Y-99600000D02*
X153950000Y-99600000D01*
X151450000Y-75600000D02*
X151450000Y-110350000D01*
X191450000Y-75600000D02*
X191450000Y-110350000D01*
D11*
%TO.C,SW8*%
X74165560Y-97935000D02*
G75*
G03*
X74165560Y-97935000I-3000000J0D01*
G01*
X77465560Y-96135000D02*
X77465560Y-91235000D01*
X77465560Y-91235000D02*
X64865560Y-91235000D01*
X64865560Y-91235000D02*
X64865560Y-96135000D01*
X64865560Y-99735000D02*
X64865560Y-104635000D01*
X64865560Y-104635000D02*
X67665560Y-104635000D01*
X77465560Y-99835000D02*
X77465560Y-104635000D01*
X77465560Y-104635000D02*
X74965560Y-104635000D01*
X74965560Y-105435000D02*
X75265560Y-105735000D01*
X75265560Y-105735000D02*
X75265560Y-105135000D01*
X75265560Y-105135000D02*
X74965560Y-105435000D01*
X71665560Y-97935000D02*
X70665560Y-97935000D01*
X71165560Y-98435000D02*
X71165560Y-97435000D01*
%TO.C,D3*%
X43097000Y-99687000D02*
X43097000Y-97402000D01*
X43097000Y-97402000D02*
X44567000Y-97402000D01*
X44567000Y-97402000D02*
X44567000Y-99687000D01*
%TO.C,J6*%
X213270000Y-96960000D02*
X214600000Y-96960000D01*
X213270000Y-95630000D02*
X213270000Y-96960000D01*
X213270000Y-94360000D02*
X215930000Y-94360000D01*
X215930000Y-94360000D02*
X215930000Y-84140000D01*
X213270000Y-94360000D02*
X213270000Y-84140000D01*
X213270000Y-84140000D02*
X215930000Y-84140000D01*
%TO.C,SW2*%
X135972640Y-98435000D02*
X135972640Y-97435000D01*
X136472640Y-97935000D02*
X135472640Y-97935000D01*
X140072640Y-105135000D02*
X139772640Y-105435000D01*
X140072640Y-105735000D02*
X140072640Y-105135000D01*
X139772640Y-105435000D02*
X140072640Y-105735000D01*
X142272640Y-104635000D02*
X139772640Y-104635000D01*
X142272640Y-99835000D02*
X142272640Y-104635000D01*
X129672640Y-104635000D02*
X132472640Y-104635000D01*
X129672640Y-99735000D02*
X129672640Y-104635000D01*
X129672640Y-91235000D02*
X129672640Y-96135000D01*
X142272640Y-91235000D02*
X129672640Y-91235000D01*
X142272640Y-96135000D02*
X142272640Y-91235000D01*
X138972640Y-97935000D02*
G75*
G03*
X138972640Y-97935000I-3000000J0D01*
G01*
%TO.C,J1*%
X120760000Y-79152500D02*
X120760000Y-78702500D01*
X120760000Y-79152500D02*
X121210000Y-79152500D01*
X126360000Y-78602500D02*
X125910000Y-78602500D01*
X126360000Y-76752500D02*
X126360000Y-78602500D01*
X118560000Y-74202500D02*
X118560000Y-74452500D01*
X126360000Y-74202500D02*
X126360000Y-74452500D01*
X118560000Y-76752500D02*
X118560000Y-78602500D01*
X118560000Y-78602500D02*
X119010000Y-78602500D01*
%TD*%
D12*
%TO.C,U5*%
X151900000Y-77350000D02*
G75*
G03*
X151900000Y-77350000I-700000J0D01*
G01*
X151900000Y-79350000D02*
G75*
G03*
X151900000Y-79350000I-700000J0D01*
G01*
X151900000Y-76850000D02*
G75*
G03*
X151900000Y-76850000I-700000J0D01*
G01*
X192650000Y-79350000D02*
X192650000Y-76850000D01*
X190750000Y-79350000D02*
X190750000Y-76850000D01*
X192650000Y-76850000D02*
G75*
G03*
X190750000Y-76850000I-950000J0D01*
G01*
X190750000Y-79350000D02*
G75*
G03*
X192650000Y-79350000I950000J0D01*
G01*
X152150000Y-79350000D02*
X152150000Y-76850000D01*
X150250000Y-79350000D02*
X150250000Y-76850000D01*
X152150000Y-76850000D02*
G75*
G03*
X150250000Y-76850000I-950000J0D01*
G01*
X150250000Y-79350000D02*
G75*
G03*
X152150000Y-79350000I950000J0D01*
G01*
X192650000Y-99350000D02*
X192650000Y-96850000D01*
X190750000Y-99350000D02*
X190750000Y-96850000D01*
X192650000Y-96850000D02*
G75*
G03*
X190750000Y-96850000I-950000J0D01*
G01*
X190750000Y-99350000D02*
G75*
G03*
X192650000Y-99350000I950000J0D01*
G01*
X152150000Y-99350000D02*
X152150000Y-96850000D01*
X150250000Y-99350000D02*
X150250000Y-96850000D01*
X152150000Y-96850000D02*
G75*
G03*
X150250000Y-96850000I-950000J0D01*
G01*
X150250000Y-99350000D02*
G75*
G03*
X152150000Y-99350000I950000J0D01*
G01*
X151900000Y-78600000D02*
G75*
G03*
X151900000Y-78600000I-700000J0D01*
G01*
X151900000Y-96850000D02*
G75*
G03*
X151900000Y-96850000I-700000J0D01*
G01*
X151900000Y-99350000D02*
G75*
G03*
X151900000Y-99350000I-700000J0D01*
G01*
X192400000Y-77350000D02*
G75*
G03*
X192400000Y-77350000I-700000J0D01*
G01*
X192400000Y-76850000D02*
G75*
G03*
X192400000Y-76850000I-700000J0D01*
G01*
X192400000Y-78850000D02*
G75*
G03*
X192400000Y-78850000I-700000J0D01*
G01*
X192400000Y-79350000D02*
G75*
G03*
X192400000Y-79350000I-700000J0D01*
G01*
X192400000Y-96850000D02*
G75*
G03*
X192400000Y-96850000I-700000J0D01*
G01*
X192400000Y-99350000D02*
G75*
G03*
X192400000Y-99350000I-700000J0D01*
G01*
X192400000Y-97600000D02*
G75*
G03*
X192400000Y-97600000I-700000J0D01*
G01*
X192400000Y-98850000D02*
G75*
G03*
X192400000Y-98850000I-700000J0D01*
G01*
X151900000Y-97350000D02*
G75*
G03*
X151900000Y-97350000I-700000J0D01*
G01*
X151900000Y-98600000D02*
G75*
G03*
X151900000Y-98600000I-700000J0D01*
G01*
%TD*%
%TO.C,J5*%
D13*
X95702380Y-78899333D02*
X94702380Y-78899333D01*
X95178571Y-78899333D02*
X95178571Y-79470761D01*
X95702380Y-79470761D02*
X94702380Y-79470761D01*
X95178571Y-79946952D02*
X95178571Y-80280285D01*
X95702380Y-80423142D02*
X95702380Y-79946952D01*
X94702380Y-79946952D01*
X94702380Y-80423142D01*
X95416666Y-80804095D02*
X95416666Y-81280285D01*
X95702380Y-80708857D02*
X94702380Y-81042190D01*
X95702380Y-81375523D01*
X95702380Y-81708857D02*
X94702380Y-81708857D01*
X94702380Y-81946952D01*
X94750000Y-82089809D01*
X94845238Y-82185047D01*
X94940476Y-82232666D01*
X95130952Y-82280285D01*
X95273809Y-82280285D01*
X95464285Y-82232666D01*
X95559523Y-82185047D01*
X95654761Y-82089809D01*
X95702380Y-81946952D01*
X95702380Y-81708857D01*
X95702380Y-82708857D02*
X94702380Y-82708857D01*
X94702380Y-83089809D01*
X94750000Y-83185047D01*
X94797619Y-83232666D01*
X94892857Y-83280285D01*
X95035714Y-83280285D01*
X95130952Y-83232666D01*
X95178571Y-83185047D01*
X95226190Y-83089809D01*
X95226190Y-82708857D01*
X95702380Y-83708857D02*
X94702380Y-83708857D01*
X95178571Y-83708857D02*
X95178571Y-84280285D01*
X95702380Y-84280285D02*
X94702380Y-84280285D01*
X94702380Y-84946952D02*
X94702380Y-85137428D01*
X94750000Y-85232666D01*
X94845238Y-85327904D01*
X95035714Y-85375523D01*
X95369047Y-85375523D01*
X95559523Y-85327904D01*
X95654761Y-85232666D01*
X95702380Y-85137428D01*
X95702380Y-84946952D01*
X95654761Y-84851714D01*
X95559523Y-84756476D01*
X95369047Y-84708857D01*
X95035714Y-84708857D01*
X94845238Y-84756476D01*
X94750000Y-84851714D01*
X94702380Y-84946952D01*
X95702380Y-85804095D02*
X94702380Y-85804095D01*
X95702380Y-86375523D01*
X94702380Y-86375523D01*
X95178571Y-86851714D02*
X95178571Y-87185047D01*
X95702380Y-87327904D02*
X95702380Y-86851714D01*
X94702380Y-86851714D01*
X94702380Y-87327904D01*
X95654761Y-87708857D02*
X95702380Y-87851714D01*
X95702380Y-88089809D01*
X95654761Y-88185047D01*
X95607142Y-88232666D01*
X95511904Y-88280285D01*
X95416666Y-88280285D01*
X95321428Y-88232666D01*
X95273809Y-88185047D01*
X95226190Y-88089809D01*
X95178571Y-87899333D01*
X95130952Y-87804095D01*
X95083333Y-87756476D01*
X94988095Y-87708857D01*
X94892857Y-87708857D01*
X94797619Y-87756476D01*
X94750000Y-87804095D01*
X94702380Y-87899333D01*
X94702380Y-88137428D01*
X94750000Y-88280285D01*
%TO.C,SW9*%
X136827904Y-74767045D02*
X136727904Y-74800378D01*
X136561237Y-74800378D01*
X136494571Y-74767045D01*
X136461237Y-74733712D01*
X136427904Y-74667045D01*
X136427904Y-74600378D01*
X136461237Y-74533712D01*
X136494571Y-74500378D01*
X136561237Y-74467045D01*
X136694571Y-74433712D01*
X136761237Y-74400378D01*
X136794571Y-74367045D01*
X136827904Y-74300378D01*
X136827904Y-74233712D01*
X136794571Y-74167045D01*
X136761237Y-74133712D01*
X136694571Y-74100378D01*
X136527904Y-74100378D01*
X136427904Y-74133712D01*
X136194571Y-74100378D02*
X136027904Y-74800378D01*
X135894571Y-74300378D01*
X135761237Y-74800378D01*
X135594571Y-74100378D01*
X135294571Y-74800378D02*
X135161237Y-74800378D01*
X135094571Y-74767045D01*
X135061237Y-74733712D01*
X134994571Y-74633712D01*
X134961237Y-74500378D01*
X134961237Y-74233712D01*
X134994571Y-74167045D01*
X135027904Y-74133712D01*
X135094571Y-74100378D01*
X135227904Y-74100378D01*
X135294571Y-74133712D01*
X135327904Y-74167045D01*
X135361237Y-74233712D01*
X135361237Y-74400378D01*
X135327904Y-74467045D01*
X135294571Y-74500378D01*
X135227904Y-74533712D01*
X135094571Y-74533712D01*
X135027904Y-74500378D01*
X134994571Y-74467045D01*
X134961237Y-74400378D01*
%TO.C,J2*%
X86050380Y-82121714D02*
X86050380Y-81645523D01*
X85050380Y-81645523D01*
X86050380Y-82455047D02*
X85050380Y-82455047D01*
X86050380Y-82931238D02*
X85050380Y-82931238D01*
X86050380Y-83502666D01*
X85050380Y-83502666D01*
X85526571Y-83978857D02*
X85526571Y-84312190D01*
X86050380Y-84455047D02*
X86050380Y-83978857D01*
X85050380Y-83978857D01*
X85050380Y-84455047D01*
X85050380Y-85836000D02*
X85050380Y-86026476D01*
X85098000Y-86121714D01*
X85193238Y-86216952D01*
X85383714Y-86264571D01*
X85717047Y-86264571D01*
X85907523Y-86216952D01*
X86002761Y-86121714D01*
X86050380Y-86026476D01*
X86050380Y-85836000D01*
X86002761Y-85740761D01*
X85907523Y-85645523D01*
X85717047Y-85597904D01*
X85383714Y-85597904D01*
X85193238Y-85645523D01*
X85098000Y-85740761D01*
X85050380Y-85836000D01*
X85050380Y-86693142D02*
X85859904Y-86693142D01*
X85955142Y-86740761D01*
X86002761Y-86788380D01*
X86050380Y-86883619D01*
X86050380Y-87074095D01*
X86002761Y-87169333D01*
X85955142Y-87216952D01*
X85859904Y-87264571D01*
X85050380Y-87264571D01*
X85050380Y-87597904D02*
X85050380Y-88169333D01*
X86050380Y-87883619D02*
X85050380Y-87883619D01*
%TO.C,J4*%
X66492380Y-83550380D02*
X66492380Y-83074190D01*
X65492380Y-83074190D01*
X66492380Y-83883714D02*
X65492380Y-83883714D01*
X66492380Y-84359904D02*
X65492380Y-84359904D01*
X66492380Y-84931333D01*
X65492380Y-84931333D01*
X65968571Y-85407523D02*
X65968571Y-85740857D01*
X66492380Y-85883714D02*
X66492380Y-85407523D01*
X65492380Y-85407523D01*
X65492380Y-85883714D01*
X66492380Y-87074190D02*
X65492380Y-87074190D01*
X66492380Y-87550380D02*
X65492380Y-87550380D01*
X66492380Y-88121809D01*
X65492380Y-88121809D01*
%TO.C,J3*%
X76144380Y-78946952D02*
X75144380Y-78946952D01*
X75858666Y-79280285D01*
X75144380Y-79613619D01*
X76144380Y-79613619D01*
X76144380Y-80089809D02*
X75144380Y-80089809D01*
X76049142Y-81137428D02*
X76096761Y-81089809D01*
X76144380Y-80946952D01*
X76144380Y-80851714D01*
X76096761Y-80708857D01*
X76001523Y-80613619D01*
X75906285Y-80566000D01*
X75715809Y-80518380D01*
X75572952Y-80518380D01*
X75382476Y-80566000D01*
X75287238Y-80613619D01*
X75192000Y-80708857D01*
X75144380Y-80851714D01*
X75144380Y-80946952D01*
X75192000Y-81089809D01*
X75239619Y-81137428D01*
X76144380Y-82137428D02*
X75668190Y-81804095D01*
X76144380Y-81566000D02*
X75144380Y-81566000D01*
X75144380Y-81946952D01*
X75192000Y-82042190D01*
X75239619Y-82089809D01*
X75334857Y-82137428D01*
X75477714Y-82137428D01*
X75572952Y-82089809D01*
X75620571Y-82042190D01*
X75668190Y-81946952D01*
X75668190Y-81566000D01*
X75144380Y-82756476D02*
X75144380Y-82946952D01*
X75192000Y-83042190D01*
X75287238Y-83137428D01*
X75477714Y-83185047D01*
X75811047Y-83185047D01*
X76001523Y-83137428D01*
X76096761Y-83042190D01*
X76144380Y-82946952D01*
X76144380Y-82756476D01*
X76096761Y-82661238D01*
X76001523Y-82566000D01*
X75811047Y-82518380D01*
X75477714Y-82518380D01*
X75287238Y-82566000D01*
X75192000Y-82661238D01*
X75144380Y-82756476D01*
X76144380Y-83613619D02*
X75144380Y-83613619D01*
X75144380Y-83994571D01*
X75192000Y-84089809D01*
X75239619Y-84137428D01*
X75334857Y-84185047D01*
X75477714Y-84185047D01*
X75572952Y-84137428D01*
X75620571Y-84089809D01*
X75668190Y-83994571D01*
X75668190Y-83613619D01*
X76144380Y-84613619D02*
X75144380Y-84613619D01*
X75620571Y-84613619D02*
X75620571Y-85185047D01*
X76144380Y-85185047D02*
X75144380Y-85185047D01*
X75144380Y-85851714D02*
X75144380Y-86042190D01*
X75192000Y-86137428D01*
X75287238Y-86232666D01*
X75477714Y-86280285D01*
X75811047Y-86280285D01*
X76001523Y-86232666D01*
X76096761Y-86137428D01*
X76144380Y-86042190D01*
X76144380Y-85851714D01*
X76096761Y-85756476D01*
X76001523Y-85661238D01*
X75811047Y-85613619D01*
X75477714Y-85613619D01*
X75287238Y-85661238D01*
X75192000Y-85756476D01*
X75144380Y-85851714D01*
X76144380Y-86708857D02*
X75144380Y-86708857D01*
X76144380Y-87280285D01*
X75144380Y-87280285D01*
X75620571Y-87756476D02*
X75620571Y-88089809D01*
X76144380Y-88232666D02*
X76144380Y-87756476D01*
X75144380Y-87756476D01*
X75144380Y-88232666D01*
%TD*%
M02*
