%TF.GenerationSoftware,KiCad,Pcbnew,(5.1.8-0-10_14)*%
%TF.CreationDate,2021-01-08T14:50:06+01:00*%
%TF.ProjectId,PoundingSystem,506f756e-6469-46e6-9753-797374656d2e,rev?*%
%TF.SameCoordinates,Original*%
%TF.FileFunction,Copper,L1,Top*%
%TF.FilePolarity,Positive*%
%FSLAX46Y46*%
G04 Gerber Fmt 4.6, Leading zero omitted, Abs format (unit mm)*
G04 Created by KiCad (PCBNEW (5.1.8-0-10_14)) date 2021-01-08 14:50:06*
%MOMM*%
%LPD*%
G01*
G04 APERTURE LIST*
%TA.AperFunction,ComponentPad*%
%ADD10C,4.400000*%
%TD*%
%TA.AperFunction,ComponentPad*%
%ADD11C,0.700000*%
%TD*%
%TA.AperFunction,ComponentPad*%
%ADD12R,2.000000X2.000000*%
%TD*%
%TA.AperFunction,ComponentPad*%
%ADD13C,2.000000*%
%TD*%
%TA.AperFunction,ComponentPad*%
%ADD14R,2.000000X3.200000*%
%TD*%
%TA.AperFunction,ComponentPad*%
%ADD15R,2.500000X3.000000*%
%TD*%
%TA.AperFunction,SMDPad,CuDef*%
%ADD16R,3.606800X3.606800*%
%TD*%
%TA.AperFunction,SMDPad,CuDef*%
%ADD17R,0.807999X0.204000*%
%TD*%
%TA.AperFunction,SMDPad,CuDef*%
%ADD18R,0.204000X0.807999*%
%TD*%
%TA.AperFunction,ComponentPad*%
%ADD19C,1.800000*%
%TD*%
%TA.AperFunction,ComponentPad*%
%ADD20O,0.900000X1.800000*%
%TD*%
%TA.AperFunction,SMDPad,CuDef*%
%ADD21R,0.650000X1.060000*%
%TD*%
%TA.AperFunction,SMDPad,CuDef*%
%ADD22R,1.060000X0.650000*%
%TD*%
%TA.AperFunction,SMDPad,CuDef*%
%ADD23R,0.900000X1.200000*%
%TD*%
%TA.AperFunction,WasherPad*%
%ADD24O,2.000000X4.500000*%
%TD*%
%TA.AperFunction,SMDPad,CuDef*%
%ADD25R,1.500000X3.000000*%
%TD*%
%TA.AperFunction,ComponentPad*%
%ADD26C,2.800000*%
%TD*%
%TA.AperFunction,ComponentPad*%
%ADD27R,1.700000X1.700000*%
%TD*%
%TA.AperFunction,ComponentPad*%
%ADD28O,1.700000X1.700000*%
%TD*%
%TA.AperFunction,ComponentPad*%
%ADD29O,1.200000X1.900000*%
%TD*%
%TA.AperFunction,ComponentPad*%
%ADD30C,1.450000*%
%TD*%
%TA.AperFunction,SMDPad,CuDef*%
%ADD31R,1.200000X0.900000*%
%TD*%
%TA.AperFunction,SMDPad,CuDef*%
%ADD32C,0.100000*%
%TD*%
%TA.AperFunction,SMDPad,CuDef*%
%ADD33R,2.000000X1.500000*%
%TD*%
%TA.AperFunction,SMDPad,CuDef*%
%ADD34R,2.000000X3.800000*%
%TD*%
%TA.AperFunction,ViaPad*%
%ADD35C,0.600000*%
%TD*%
%TA.AperFunction,ViaPad*%
%ADD36C,0.800000*%
%TD*%
%TA.AperFunction,Conductor*%
%ADD37C,0.300000*%
%TD*%
%TA.AperFunction,Conductor*%
%ADD38C,0.500000*%
%TD*%
%TA.AperFunction,Conductor*%
%ADD39C,0.250000*%
%TD*%
%TA.AperFunction,Conductor*%
%ADD40C,0.400000*%
%TD*%
%TA.AperFunction,Conductor*%
%ADD41C,0.200000*%
%TD*%
%TA.AperFunction,Conductor*%
%ADD42C,0.261112*%
%TD*%
G04 APERTURE END LIST*
D10*
%TO.P,H2,1*%
%TO.N,Net-(H2-Pad1)*%
X36375000Y-76625000D03*
D11*
X38025000Y-76625000D03*
X37541726Y-77791726D03*
X36375000Y-78275000D03*
X35208274Y-77791726D03*
X34725000Y-76625000D03*
X35208274Y-75458274D03*
X36375000Y-74975000D03*
X37541726Y-75458274D03*
%TD*%
D12*
%TO.P,SW1,A*%
%TO.N,Net-(C51-Pad2)*%
X207200000Y-105435000D03*
D13*
%TO.P,SW1,C*%
%TO.N,GND*%
X204700000Y-105435000D03*
%TO.P,SW1,B*%
%TO.N,Net-(C52-Pad2)*%
X202200000Y-105435000D03*
D14*
%TO.P,SW1,MP*%
%TO.N,N/C*%
X210300000Y-97935000D03*
X199100000Y-97935000D03*
D13*
%TO.P,SW1,S2*%
%TO.N,Net-(C49-Pad2)*%
X207200000Y-90935000D03*
%TO.P,SW1,S1*%
%TO.N,GND*%
X202200000Y-90935000D03*
%TD*%
D12*
%TO.P,SW4,A*%
%TO.N,Net-(C43-Pad2)*%
X95317920Y-105435000D03*
D13*
%TO.P,SW4,C*%
%TO.N,GND*%
X92817920Y-105435000D03*
%TO.P,SW4,B*%
%TO.N,Net-(C41-Pad2)*%
X90317920Y-105435000D03*
D15*
%TO.P,SW4,MP*%
%TO.N,N/C*%
X98417920Y-97935000D03*
X87217920Y-97935000D03*
%TD*%
D12*
%TO.P,SW3,A*%
%TO.N,Net-(C44-Pad2)*%
X116970280Y-105435000D03*
D13*
%TO.P,SW3,C*%
%TO.N,GND*%
X114470280Y-105435000D03*
%TO.P,SW3,B*%
%TO.N,Net-(C42-Pad2)*%
X111970280Y-105435000D03*
D15*
%TO.P,SW3,MP*%
%TO.N,N/C*%
X120070280Y-97935000D03*
X108870280Y-97935000D03*
%TD*%
D13*
%TO.P,SW7,1*%
%TO.N,GND*%
X51500000Y-85000000D03*
%TO.P,SW7,2*%
%TO.N,Net-(C46-Pad2)*%
X51500000Y-80500000D03*
%TO.P,SW7,1*%
%TO.N,GND*%
X45000000Y-85000000D03*
%TO.P,SW7,2*%
%TO.N,Net-(C46-Pad2)*%
X45000000Y-80500000D03*
%TD*%
%TO.P,SW6,1*%
%TO.N,GND*%
X207668000Y-85000000D03*
%TO.P,SW6,2*%
%TO.N,Net-(C50-Pad2)*%
X207668000Y-80500000D03*
%TO.P,SW6,1*%
%TO.N,GND*%
X201168000Y-85000000D03*
%TO.P,SW6,2*%
%TO.N,Net-(C50-Pad2)*%
X201168000Y-80500000D03*
%TD*%
%TO.P,C1,2*%
%TO.N,Net-(C1-Pad2)*%
%TA.AperFunction,SMDPad,CuDef*%
G36*
G01*
X159100000Y-87075000D02*
X159100000Y-86125000D01*
G75*
G02*
X159350000Y-85875000I250000J0D01*
G01*
X159850000Y-85875000D01*
G75*
G02*
X160100000Y-86125000I0J-250000D01*
G01*
X160100000Y-87075000D01*
G75*
G02*
X159850000Y-87325000I-250000J0D01*
G01*
X159350000Y-87325000D01*
G75*
G02*
X159100000Y-87075000I0J250000D01*
G01*
G37*
%TD.AperFunction*%
%TO.P,C1,1*%
%TO.N,GND*%
%TA.AperFunction,SMDPad,CuDef*%
G36*
G01*
X157200000Y-87075000D02*
X157200000Y-86125000D01*
G75*
G02*
X157450000Y-85875000I250000J0D01*
G01*
X157950000Y-85875000D01*
G75*
G02*
X158200000Y-86125000I0J-250000D01*
G01*
X158200000Y-87075000D01*
G75*
G02*
X157950000Y-87325000I-250000J0D01*
G01*
X157450000Y-87325000D01*
G75*
G02*
X157200000Y-87075000I0J250000D01*
G01*
G37*
%TD.AperFunction*%
%TD*%
%TO.P,R16,2*%
%TO.N,LCD_BL*%
%TA.AperFunction,SMDPad,CuDef*%
G36*
G01*
X155825000Y-100175000D02*
X155825000Y-99625000D01*
G75*
G02*
X156025000Y-99425000I200000J0D01*
G01*
X156425000Y-99425000D01*
G75*
G02*
X156625000Y-99625000I0J-200000D01*
G01*
X156625000Y-100175000D01*
G75*
G02*
X156425000Y-100375000I-200000J0D01*
G01*
X156025000Y-100375000D01*
G75*
G02*
X155825000Y-100175000I0J200000D01*
G01*
G37*
%TD.AperFunction*%
%TO.P,R16,1*%
%TO.N,Net-(D7-Pad2)*%
%TA.AperFunction,SMDPad,CuDef*%
G36*
G01*
X154175000Y-100175000D02*
X154175000Y-99625000D01*
G75*
G02*
X154375000Y-99425000I200000J0D01*
G01*
X154775000Y-99425000D01*
G75*
G02*
X154975000Y-99625000I0J-200000D01*
G01*
X154975000Y-100175000D01*
G75*
G02*
X154775000Y-100375000I-200000J0D01*
G01*
X154375000Y-100375000D01*
G75*
G02*
X154175000Y-100175000I0J200000D01*
G01*
G37*
%TD.AperFunction*%
%TD*%
%TO.P,R15,2*%
%TO.N,LCD_BL*%
%TA.AperFunction,SMDPad,CuDef*%
G36*
G01*
X188575000Y-102075000D02*
X188025000Y-102075000D01*
G75*
G02*
X187825000Y-101875000I0J200000D01*
G01*
X187825000Y-101475000D01*
G75*
G02*
X188025000Y-101275000I200000J0D01*
G01*
X188575000Y-101275000D01*
G75*
G02*
X188775000Y-101475000I0J-200000D01*
G01*
X188775000Y-101875000D01*
G75*
G02*
X188575000Y-102075000I-200000J0D01*
G01*
G37*
%TD.AperFunction*%
%TO.P,R15,1*%
%TO.N,Net-(D6-Pad2)*%
%TA.AperFunction,SMDPad,CuDef*%
G36*
G01*
X188575000Y-103725000D02*
X188025000Y-103725000D01*
G75*
G02*
X187825000Y-103525000I0J200000D01*
G01*
X187825000Y-103125000D01*
G75*
G02*
X188025000Y-102925000I200000J0D01*
G01*
X188575000Y-102925000D01*
G75*
G02*
X188775000Y-103125000I0J-200000D01*
G01*
X188775000Y-103525000D01*
G75*
G02*
X188575000Y-103725000I-200000J0D01*
G01*
G37*
%TD.AperFunction*%
%TD*%
%TO.P,R4,2*%
%TO.N,LCD_BL*%
%TA.AperFunction,SMDPad,CuDef*%
G36*
G01*
X187219000Y-86951000D02*
X186669000Y-86951000D01*
G75*
G02*
X186469000Y-86751000I0J200000D01*
G01*
X186469000Y-86351000D01*
G75*
G02*
X186669000Y-86151000I200000J0D01*
G01*
X187219000Y-86151000D01*
G75*
G02*
X187419000Y-86351000I0J-200000D01*
G01*
X187419000Y-86751000D01*
G75*
G02*
X187219000Y-86951000I-200000J0D01*
G01*
G37*
%TD.AperFunction*%
%TO.P,R4,1*%
%TO.N,Net-(D5-Pad2)*%
%TA.AperFunction,SMDPad,CuDef*%
G36*
G01*
X187219000Y-88601000D02*
X186669000Y-88601000D01*
G75*
G02*
X186469000Y-88401000I0J200000D01*
G01*
X186469000Y-88001000D01*
G75*
G02*
X186669000Y-87801000I200000J0D01*
G01*
X187219000Y-87801000D01*
G75*
G02*
X187419000Y-88001000I0J-200000D01*
G01*
X187419000Y-88401000D01*
G75*
G02*
X187219000Y-88601000I-200000J0D01*
G01*
G37*
%TD.AperFunction*%
%TD*%
%TO.P,R3,2*%
%TO.N,LCD_BL*%
%TA.AperFunction,SMDPad,CuDef*%
G36*
G01*
X151575000Y-85345000D02*
X151575000Y-84795000D01*
G75*
G02*
X151775000Y-84595000I200000J0D01*
G01*
X152175000Y-84595000D01*
G75*
G02*
X152375000Y-84795000I0J-200000D01*
G01*
X152375000Y-85345000D01*
G75*
G02*
X152175000Y-85545000I-200000J0D01*
G01*
X151775000Y-85545000D01*
G75*
G02*
X151575000Y-85345000I0J200000D01*
G01*
G37*
%TD.AperFunction*%
%TO.P,R3,1*%
%TO.N,Net-(D4-Pad2)*%
%TA.AperFunction,SMDPad,CuDef*%
G36*
G01*
X149925000Y-85345000D02*
X149925000Y-84795000D01*
G75*
G02*
X150125000Y-84595000I200000J0D01*
G01*
X150525000Y-84595000D01*
G75*
G02*
X150725000Y-84795000I0J-200000D01*
G01*
X150725000Y-85345000D01*
G75*
G02*
X150525000Y-85545000I-200000J0D01*
G01*
X150125000Y-85545000D01*
G75*
G02*
X149925000Y-85345000I0J200000D01*
G01*
G37*
%TD.AperFunction*%
%TD*%
%TO.P,U2,64*%
%TO.N,+3V3*%
%TA.AperFunction,SMDPad,CuDef*%
G36*
G01*
X177177129Y-94465767D02*
X178167079Y-95455717D01*
G75*
G02*
X178167079Y-95561783I-53033J-53033D01*
G01*
X178061013Y-95667849D01*
G75*
G02*
X177954947Y-95667849I-53033J53033D01*
G01*
X176964997Y-94677899D01*
G75*
G02*
X176964997Y-94571833I53033J53033D01*
G01*
X177071063Y-94465767D01*
G75*
G02*
X177177129Y-94465767I53033J-53033D01*
G01*
G37*
%TD.AperFunction*%
%TO.P,U2,63*%
%TO.N,GND*%
%TA.AperFunction,SMDPad,CuDef*%
G36*
G01*
X176823576Y-94819320D02*
X177813526Y-95809270D01*
G75*
G02*
X177813526Y-95915336I-53033J-53033D01*
G01*
X177707460Y-96021402D01*
G75*
G02*
X177601394Y-96021402I-53033J53033D01*
G01*
X176611444Y-95031452D01*
G75*
G02*
X176611444Y-94925386I53033J53033D01*
G01*
X176717510Y-94819320D01*
G75*
G02*
X176823576Y-94819320I53033J-53033D01*
G01*
G37*
%TD.AperFunction*%
%TO.P,U2,62*%
%TO.N,Net-(U2-Pad62)*%
%TA.AperFunction,SMDPad,CuDef*%
G36*
G01*
X176470023Y-95172873D02*
X177459973Y-96162823D01*
G75*
G02*
X177459973Y-96268889I-53033J-53033D01*
G01*
X177353907Y-96374955D01*
G75*
G02*
X177247841Y-96374955I-53033J53033D01*
G01*
X176257891Y-95385005D01*
G75*
G02*
X176257891Y-95278939I53033J53033D01*
G01*
X176363957Y-95172873D01*
G75*
G02*
X176470023Y-95172873I53033J-53033D01*
G01*
G37*
%TD.AperFunction*%
%TO.P,U2,61*%
%TO.N,Net-(U2-Pad61)*%
%TA.AperFunction,SMDPad,CuDef*%
G36*
G01*
X176116469Y-95526427D02*
X177106419Y-96516377D01*
G75*
G02*
X177106419Y-96622443I-53033J-53033D01*
G01*
X177000353Y-96728509D01*
G75*
G02*
X176894287Y-96728509I-53033J53033D01*
G01*
X175904337Y-95738559D01*
G75*
G02*
X175904337Y-95632493I53033J53033D01*
G01*
X176010403Y-95526427D01*
G75*
G02*
X176116469Y-95526427I53033J-53033D01*
G01*
G37*
%TD.AperFunction*%
%TO.P,U2,60*%
%TO.N,BOOT0*%
%TA.AperFunction,SMDPad,CuDef*%
G36*
G01*
X175762916Y-95879980D02*
X176752866Y-96869930D01*
G75*
G02*
X176752866Y-96975996I-53033J-53033D01*
G01*
X176646800Y-97082062D01*
G75*
G02*
X176540734Y-97082062I-53033J53033D01*
G01*
X175550784Y-96092112D01*
G75*
G02*
X175550784Y-95986046I53033J53033D01*
G01*
X175656850Y-95879980D01*
G75*
G02*
X175762916Y-95879980I53033J-53033D01*
G01*
G37*
%TD.AperFunction*%
%TO.P,U2,59*%
%TO.N,TIM4_CH2*%
%TA.AperFunction,SMDPad,CuDef*%
G36*
G01*
X175409362Y-96233534D02*
X176399312Y-97223484D01*
G75*
G02*
X176399312Y-97329550I-53033J-53033D01*
G01*
X176293246Y-97435616D01*
G75*
G02*
X176187180Y-97435616I-53033J53033D01*
G01*
X175197230Y-96445666D01*
G75*
G02*
X175197230Y-96339600I53033J53033D01*
G01*
X175303296Y-96233534D01*
G75*
G02*
X175409362Y-96233534I53033J-53033D01*
G01*
G37*
%TD.AperFunction*%
%TO.P,U2,58*%
%TO.N,TIM4_CH1*%
%TA.AperFunction,SMDPad,CuDef*%
G36*
G01*
X175055809Y-96587087D02*
X176045759Y-97577037D01*
G75*
G02*
X176045759Y-97683103I-53033J-53033D01*
G01*
X175939693Y-97789169D01*
G75*
G02*
X175833627Y-97789169I-53033J53033D01*
G01*
X174843677Y-96799219D01*
G75*
G02*
X174843677Y-96693153I53033J53033D01*
G01*
X174949743Y-96587087D01*
G75*
G02*
X175055809Y-96587087I53033J-53033D01*
G01*
G37*
%TD.AperFunction*%
%TO.P,U2,57*%
%TO.N,BACK_BTN*%
%TA.AperFunction,SMDPad,CuDef*%
G36*
G01*
X174702256Y-96940640D02*
X175692206Y-97930590D01*
G75*
G02*
X175692206Y-98036656I-53033J-53033D01*
G01*
X175586140Y-98142722D01*
G75*
G02*
X175480074Y-98142722I-53033J53033D01*
G01*
X174490124Y-97152772D01*
G75*
G02*
X174490124Y-97046706I53033J53033D01*
G01*
X174596190Y-96940640D01*
G75*
G02*
X174702256Y-96940640I53033J-53033D01*
G01*
G37*
%TD.AperFunction*%
%TO.P,U2,56*%
%TO.N,Net-(U2-Pad56)*%
%TA.AperFunction,SMDPad,CuDef*%
G36*
G01*
X174348702Y-97294194D02*
X175338652Y-98284144D01*
G75*
G02*
X175338652Y-98390210I-53033J-53033D01*
G01*
X175232586Y-98496276D01*
G75*
G02*
X175126520Y-98496276I-53033J53033D01*
G01*
X174136570Y-97506326D01*
G75*
G02*
X174136570Y-97400260I53033J53033D01*
G01*
X174242636Y-97294194D01*
G75*
G02*
X174348702Y-97294194I53033J-53033D01*
G01*
G37*
%TD.AperFunction*%
%TO.P,U2,55*%
%TO.N,SWO*%
%TA.AperFunction,SMDPad,CuDef*%
G36*
G01*
X173995149Y-97647747D02*
X174985099Y-98637697D01*
G75*
G02*
X174985099Y-98743763I-53033J-53033D01*
G01*
X174879033Y-98849829D01*
G75*
G02*
X174772967Y-98849829I-53033J53033D01*
G01*
X173783017Y-97859879D01*
G75*
G02*
X173783017Y-97753813I53033J53033D01*
G01*
X173889083Y-97647747D01*
G75*
G02*
X173995149Y-97647747I53033J-53033D01*
G01*
G37*
%TD.AperFunction*%
%TO.P,U2,54*%
%TO.N,Net-(U2-Pad54)*%
%TA.AperFunction,SMDPad,CuDef*%
G36*
G01*
X173641596Y-98001300D02*
X174631546Y-98991250D01*
G75*
G02*
X174631546Y-99097316I-53033J-53033D01*
G01*
X174525480Y-99203382D01*
G75*
G02*
X174419414Y-99203382I-53033J53033D01*
G01*
X173429464Y-98213432D01*
G75*
G02*
X173429464Y-98107366I53033J53033D01*
G01*
X173535530Y-98001300D01*
G75*
G02*
X173641596Y-98001300I53033J-53033D01*
G01*
G37*
%TD.AperFunction*%
%TO.P,U2,53*%
%TO.N,SPI3_MOSI*%
%TA.AperFunction,SMDPad,CuDef*%
G36*
G01*
X173288042Y-98354854D02*
X174277992Y-99344804D01*
G75*
G02*
X174277992Y-99450870I-53033J-53033D01*
G01*
X174171926Y-99556936D01*
G75*
G02*
X174065860Y-99556936I-53033J53033D01*
G01*
X173075910Y-98566986D01*
G75*
G02*
X173075910Y-98460920I53033J53033D01*
G01*
X173181976Y-98354854D01*
G75*
G02*
X173288042Y-98354854I53033J-53033D01*
G01*
G37*
%TD.AperFunction*%
%TO.P,U2,52*%
%TO.N,Net-(U2-Pad52)*%
%TA.AperFunction,SMDPad,CuDef*%
G36*
G01*
X172934489Y-98708407D02*
X173924439Y-99698357D01*
G75*
G02*
X173924439Y-99804423I-53033J-53033D01*
G01*
X173818373Y-99910489D01*
G75*
G02*
X173712307Y-99910489I-53033J53033D01*
G01*
X172722357Y-98920539D01*
G75*
G02*
X172722357Y-98814473I53033J53033D01*
G01*
X172828423Y-98708407D01*
G75*
G02*
X172934489Y-98708407I53033J-53033D01*
G01*
G37*
%TD.AperFunction*%
%TO.P,U2,51*%
%TO.N,SPI3_SCK*%
%TA.AperFunction,SMDPad,CuDef*%
G36*
G01*
X172580935Y-99061961D02*
X173570885Y-100051911D01*
G75*
G02*
X173570885Y-100157977I-53033J-53033D01*
G01*
X173464819Y-100264043D01*
G75*
G02*
X173358753Y-100264043I-53033J53033D01*
G01*
X172368803Y-99274093D01*
G75*
G02*
X172368803Y-99168027I53033J53033D01*
G01*
X172474869Y-99061961D01*
G75*
G02*
X172580935Y-99061961I53033J-53033D01*
G01*
G37*
%TD.AperFunction*%
%TO.P,U2,50*%
%TO.N,Net-(U2-Pad50)*%
%TA.AperFunction,SMDPad,CuDef*%
G36*
G01*
X172227382Y-99415514D02*
X173217332Y-100405464D01*
G75*
G02*
X173217332Y-100511530I-53033J-53033D01*
G01*
X173111266Y-100617596D01*
G75*
G02*
X173005200Y-100617596I-53033J53033D01*
G01*
X172015250Y-99627646D01*
G75*
G02*
X172015250Y-99521580I53033J53033D01*
G01*
X172121316Y-99415514D01*
G75*
G02*
X172227382Y-99415514I53033J-53033D01*
G01*
G37*
%TD.AperFunction*%
%TO.P,U2,49*%
%TO.N,SWCLK*%
%TA.AperFunction,SMDPad,CuDef*%
G36*
G01*
X171873829Y-99769067D02*
X172863779Y-100759017D01*
G75*
G02*
X172863779Y-100865083I-53033J-53033D01*
G01*
X172757713Y-100971149D01*
G75*
G02*
X172651647Y-100971149I-53033J53033D01*
G01*
X171661697Y-99981199D01*
G75*
G02*
X171661697Y-99875133I53033J53033D01*
G01*
X171767763Y-99769067D01*
G75*
G02*
X171873829Y-99769067I53033J-53033D01*
G01*
G37*
%TD.AperFunction*%
%TO.P,U2,48*%
%TO.N,+3V3*%
%TA.AperFunction,SMDPad,CuDef*%
G36*
G01*
X170035351Y-99769067D02*
X170141417Y-99875133D01*
G75*
G02*
X170141417Y-99981199I-53033J-53033D01*
G01*
X169151467Y-100971149D01*
G75*
G02*
X169045401Y-100971149I-53033J53033D01*
G01*
X168939335Y-100865083D01*
G75*
G02*
X168939335Y-100759017I53033J53033D01*
G01*
X169929285Y-99769067D01*
G75*
G02*
X170035351Y-99769067I53033J-53033D01*
G01*
G37*
%TD.AperFunction*%
%TO.P,U2,47*%
%TO.N,Net-(C16-Pad2)*%
%TA.AperFunction,SMDPad,CuDef*%
G36*
G01*
X169681798Y-99415514D02*
X169787864Y-99521580D01*
G75*
G02*
X169787864Y-99627646I-53033J-53033D01*
G01*
X168797914Y-100617596D01*
G75*
G02*
X168691848Y-100617596I-53033J53033D01*
G01*
X168585782Y-100511530D01*
G75*
G02*
X168585782Y-100405464I53033J53033D01*
G01*
X169575732Y-99415514D01*
G75*
G02*
X169681798Y-99415514I53033J-53033D01*
G01*
G37*
%TD.AperFunction*%
%TO.P,U2,46*%
%TO.N,SWDIO*%
%TA.AperFunction,SMDPad,CuDef*%
G36*
G01*
X169328245Y-99061961D02*
X169434311Y-99168027D01*
G75*
G02*
X169434311Y-99274093I-53033J-53033D01*
G01*
X168444361Y-100264043D01*
G75*
G02*
X168338295Y-100264043I-53033J53033D01*
G01*
X168232229Y-100157977D01*
G75*
G02*
X168232229Y-100051911I53033J53033D01*
G01*
X169222179Y-99061961D01*
G75*
G02*
X169328245Y-99061961I53033J-53033D01*
G01*
G37*
%TD.AperFunction*%
%TO.P,U2,45*%
%TO.N,USB_D+*%
%TA.AperFunction,SMDPad,CuDef*%
G36*
G01*
X168974691Y-98708407D02*
X169080757Y-98814473D01*
G75*
G02*
X169080757Y-98920539I-53033J-53033D01*
G01*
X168090807Y-99910489D01*
G75*
G02*
X167984741Y-99910489I-53033J53033D01*
G01*
X167878675Y-99804423D01*
G75*
G02*
X167878675Y-99698357I53033J53033D01*
G01*
X168868625Y-98708407D01*
G75*
G02*
X168974691Y-98708407I53033J-53033D01*
G01*
G37*
%TD.AperFunction*%
%TO.P,U2,44*%
%TO.N,USB_D-*%
%TA.AperFunction,SMDPad,CuDef*%
G36*
G01*
X168621138Y-98354854D02*
X168727204Y-98460920D01*
G75*
G02*
X168727204Y-98566986I-53033J-53033D01*
G01*
X167737254Y-99556936D01*
G75*
G02*
X167631188Y-99556936I-53033J53033D01*
G01*
X167525122Y-99450870D01*
G75*
G02*
X167525122Y-99344804I53033J53033D01*
G01*
X168515072Y-98354854D01*
G75*
G02*
X168621138Y-98354854I53033J-53033D01*
G01*
G37*
%TD.AperFunction*%
%TO.P,U2,43*%
%TO.N,Net-(U2-Pad43)*%
%TA.AperFunction,SMDPad,CuDef*%
G36*
G01*
X168267584Y-98001300D02*
X168373650Y-98107366D01*
G75*
G02*
X168373650Y-98213432I-53033J-53033D01*
G01*
X167383700Y-99203382D01*
G75*
G02*
X167277634Y-99203382I-53033J53033D01*
G01*
X167171568Y-99097316D01*
G75*
G02*
X167171568Y-98991250I53033J53033D01*
G01*
X168161518Y-98001300D01*
G75*
G02*
X168267584Y-98001300I53033J-53033D01*
G01*
G37*
%TD.AperFunction*%
%TO.P,U2,42*%
%TO.N,TIM1_CH2*%
%TA.AperFunction,SMDPad,CuDef*%
G36*
G01*
X167914031Y-97647747D02*
X168020097Y-97753813D01*
G75*
G02*
X168020097Y-97859879I-53033J-53033D01*
G01*
X167030147Y-98849829D01*
G75*
G02*
X166924081Y-98849829I-53033J53033D01*
G01*
X166818015Y-98743763D01*
G75*
G02*
X166818015Y-98637697I53033J53033D01*
G01*
X167807965Y-97647747D01*
G75*
G02*
X167914031Y-97647747I53033J-53033D01*
G01*
G37*
%TD.AperFunction*%
%TO.P,U2,41*%
%TO.N,TIM1_CH1*%
%TA.AperFunction,SMDPad,CuDef*%
G36*
G01*
X167560478Y-97294194D02*
X167666544Y-97400260D01*
G75*
G02*
X167666544Y-97506326I-53033J-53033D01*
G01*
X166676594Y-98496276D01*
G75*
G02*
X166570528Y-98496276I-53033J53033D01*
G01*
X166464462Y-98390210D01*
G75*
G02*
X166464462Y-98284144I53033J53033D01*
G01*
X167454412Y-97294194D01*
G75*
G02*
X167560478Y-97294194I53033J-53033D01*
G01*
G37*
%TD.AperFunction*%
%TO.P,U2,40*%
%TO.N,Net-(U2-Pad40)*%
%TA.AperFunction,SMDPad,CuDef*%
G36*
G01*
X167206924Y-96940640D02*
X167312990Y-97046706D01*
G75*
G02*
X167312990Y-97152772I-53033J-53033D01*
G01*
X166323040Y-98142722D01*
G75*
G02*
X166216974Y-98142722I-53033J53033D01*
G01*
X166110908Y-98036656D01*
G75*
G02*
X166110908Y-97930590I53033J53033D01*
G01*
X167100858Y-96940640D01*
G75*
G02*
X167206924Y-96940640I53033J-53033D01*
G01*
G37*
%TD.AperFunction*%
%TO.P,U2,39*%
%TO.N,FIRE_LED*%
%TA.AperFunction,SMDPad,CuDef*%
G36*
G01*
X166853371Y-96587087D02*
X166959437Y-96693153D01*
G75*
G02*
X166959437Y-96799219I-53033J-53033D01*
G01*
X165969487Y-97789169D01*
G75*
G02*
X165863421Y-97789169I-53033J53033D01*
G01*
X165757355Y-97683103D01*
G75*
G02*
X165757355Y-97577037I53033J53033D01*
G01*
X166747305Y-96587087D01*
G75*
G02*
X166853371Y-96587087I53033J-53033D01*
G01*
G37*
%TD.AperFunction*%
%TO.P,U2,38*%
%TO.N,FIRE_BTN*%
%TA.AperFunction,SMDPad,CuDef*%
G36*
G01*
X166499818Y-96233534D02*
X166605884Y-96339600D01*
G75*
G02*
X166605884Y-96445666I-53033J-53033D01*
G01*
X165615934Y-97435616D01*
G75*
G02*
X165509868Y-97435616I-53033J53033D01*
G01*
X165403802Y-97329550D01*
G75*
G02*
X165403802Y-97223484I53033J53033D01*
G01*
X166393752Y-96233534D01*
G75*
G02*
X166499818Y-96233534I53033J-53033D01*
G01*
G37*
%TD.AperFunction*%
%TO.P,U2,37*%
%TO.N,I2S2_MCK*%
%TA.AperFunction,SMDPad,CuDef*%
G36*
G01*
X166146264Y-95879980D02*
X166252330Y-95986046D01*
G75*
G02*
X166252330Y-96092112I-53033J-53033D01*
G01*
X165262380Y-97082062D01*
G75*
G02*
X165156314Y-97082062I-53033J53033D01*
G01*
X165050248Y-96975996D01*
G75*
G02*
X165050248Y-96869930I53033J53033D01*
G01*
X166040198Y-95879980D01*
G75*
G02*
X166146264Y-95879980I53033J-53033D01*
G01*
G37*
%TD.AperFunction*%
%TO.P,U2,36*%
%TO.N,I2S2_SDO*%
%TA.AperFunction,SMDPad,CuDef*%
G36*
G01*
X165792711Y-95526427D02*
X165898777Y-95632493D01*
G75*
G02*
X165898777Y-95738559I-53033J-53033D01*
G01*
X164908827Y-96728509D01*
G75*
G02*
X164802761Y-96728509I-53033J53033D01*
G01*
X164696695Y-96622443D01*
G75*
G02*
X164696695Y-96516377I53033J53033D01*
G01*
X165686645Y-95526427D01*
G75*
G02*
X165792711Y-95526427I53033J-53033D01*
G01*
G37*
%TD.AperFunction*%
%TO.P,U2,35*%
%TO.N,I2S2_SDI*%
%TA.AperFunction,SMDPad,CuDef*%
G36*
G01*
X165439157Y-95172873D02*
X165545223Y-95278939D01*
G75*
G02*
X165545223Y-95385005I-53033J-53033D01*
G01*
X164555273Y-96374955D01*
G75*
G02*
X164449207Y-96374955I-53033J53033D01*
G01*
X164343141Y-96268889D01*
G75*
G02*
X164343141Y-96162823I53033J53033D01*
G01*
X165333091Y-95172873D01*
G75*
G02*
X165439157Y-95172873I53033J-53033D01*
G01*
G37*
%TD.AperFunction*%
%TO.P,U2,34*%
%TO.N,I2S2_SCLK*%
%TA.AperFunction,SMDPad,CuDef*%
G36*
G01*
X165085604Y-94819320D02*
X165191670Y-94925386D01*
G75*
G02*
X165191670Y-95031452I-53033J-53033D01*
G01*
X164201720Y-96021402D01*
G75*
G02*
X164095654Y-96021402I-53033J53033D01*
G01*
X163989588Y-95915336D01*
G75*
G02*
X163989588Y-95809270I53033J53033D01*
G01*
X164979538Y-94819320D01*
G75*
G02*
X165085604Y-94819320I53033J-53033D01*
G01*
G37*
%TD.AperFunction*%
%TO.P,U2,33*%
%TO.N,I2S2_WS*%
%TA.AperFunction,SMDPad,CuDef*%
G36*
G01*
X164732051Y-94465767D02*
X164838117Y-94571833D01*
G75*
G02*
X164838117Y-94677899I-53033J-53033D01*
G01*
X163848167Y-95667849D01*
G75*
G02*
X163742101Y-95667849I-53033J53033D01*
G01*
X163636035Y-95561783D01*
G75*
G02*
X163636035Y-95455717I53033J53033D01*
G01*
X164625985Y-94465767D01*
G75*
G02*
X164732051Y-94465767I53033J-53033D01*
G01*
G37*
%TD.AperFunction*%
%TO.P,U2,32*%
%TO.N,+3V3*%
%TA.AperFunction,SMDPad,CuDef*%
G36*
G01*
X163848167Y-91743405D02*
X164838117Y-92733355D01*
G75*
G02*
X164838117Y-92839421I-53033J-53033D01*
G01*
X164732051Y-92945487D01*
G75*
G02*
X164625985Y-92945487I-53033J53033D01*
G01*
X163636035Y-91955537D01*
G75*
G02*
X163636035Y-91849471I53033J53033D01*
G01*
X163742101Y-91743405D01*
G75*
G02*
X163848167Y-91743405I53033J-53033D01*
G01*
G37*
%TD.AperFunction*%
%TO.P,U2,31*%
%TO.N,Net-(C15-Pad2)*%
%TA.AperFunction,SMDPad,CuDef*%
G36*
G01*
X164201720Y-91389852D02*
X165191670Y-92379802D01*
G75*
G02*
X165191670Y-92485868I-53033J-53033D01*
G01*
X165085604Y-92591934D01*
G75*
G02*
X164979538Y-92591934I-53033J53033D01*
G01*
X163989588Y-91601984D01*
G75*
G02*
X163989588Y-91495918I53033J53033D01*
G01*
X164095654Y-91389852D01*
G75*
G02*
X164201720Y-91389852I53033J-53033D01*
G01*
G37*
%TD.AperFunction*%
%TO.P,U2,30*%
%TO.N,I2C2_SDA*%
%TA.AperFunction,SMDPad,CuDef*%
G36*
G01*
X164555273Y-91036299D02*
X165545223Y-92026249D01*
G75*
G02*
X165545223Y-92132315I-53033J-53033D01*
G01*
X165439157Y-92238381D01*
G75*
G02*
X165333091Y-92238381I-53033J53033D01*
G01*
X164343141Y-91248431D01*
G75*
G02*
X164343141Y-91142365I53033J53033D01*
G01*
X164449207Y-91036299D01*
G75*
G02*
X164555273Y-91036299I53033J-53033D01*
G01*
G37*
%TD.AperFunction*%
%TO.P,U2,29*%
%TO.N,I2C2_SCL*%
%TA.AperFunction,SMDPad,CuDef*%
G36*
G01*
X164908827Y-90682745D02*
X165898777Y-91672695D01*
G75*
G02*
X165898777Y-91778761I-53033J-53033D01*
G01*
X165792711Y-91884827D01*
G75*
G02*
X165686645Y-91884827I-53033J53033D01*
G01*
X164696695Y-90894877D01*
G75*
G02*
X164696695Y-90788811I53033J53033D01*
G01*
X164802761Y-90682745D01*
G75*
G02*
X164908827Y-90682745I53033J-53033D01*
G01*
G37*
%TD.AperFunction*%
%TO.P,U2,28*%
%TO.N,HOLD_SW*%
%TA.AperFunction,SMDPad,CuDef*%
G36*
G01*
X165262380Y-90329192D02*
X166252330Y-91319142D01*
G75*
G02*
X166252330Y-91425208I-53033J-53033D01*
G01*
X166146264Y-91531274D01*
G75*
G02*
X166040198Y-91531274I-53033J53033D01*
G01*
X165050248Y-90541324D01*
G75*
G02*
X165050248Y-90435258I53033J53033D01*
G01*
X165156314Y-90329192D01*
G75*
G02*
X165262380Y-90329192I53033J-53033D01*
G01*
G37*
%TD.AperFunction*%
%TO.P,U2,27*%
%TO.N,LCD_BL*%
%TA.AperFunction,SMDPad,CuDef*%
G36*
G01*
X165615934Y-89975638D02*
X166605884Y-90965588D01*
G75*
G02*
X166605884Y-91071654I-53033J-53033D01*
G01*
X166499818Y-91177720D01*
G75*
G02*
X166393752Y-91177720I-53033J53033D01*
G01*
X165403802Y-90187770D01*
G75*
G02*
X165403802Y-90081704I53033J53033D01*
G01*
X165509868Y-89975638D01*
G75*
G02*
X165615934Y-89975638I53033J-53033D01*
G01*
G37*
%TD.AperFunction*%
%TO.P,U2,26*%
%TO.N,Net-(U2-Pad26)*%
%TA.AperFunction,SMDPad,CuDef*%
G36*
G01*
X165969487Y-89622085D02*
X166959437Y-90612035D01*
G75*
G02*
X166959437Y-90718101I-53033J-53033D01*
G01*
X166853371Y-90824167D01*
G75*
G02*
X166747305Y-90824167I-53033J53033D01*
G01*
X165757355Y-89834217D01*
G75*
G02*
X165757355Y-89728151I53033J53033D01*
G01*
X165863421Y-89622085D01*
G75*
G02*
X165969487Y-89622085I53033J-53033D01*
G01*
G37*
%TD.AperFunction*%
%TO.P,U2,25*%
%TO.N,Net-(U2-Pad25)*%
%TA.AperFunction,SMDPad,CuDef*%
G36*
G01*
X166323040Y-89268532D02*
X167312990Y-90258482D01*
G75*
G02*
X167312990Y-90364548I-53033J-53033D01*
G01*
X167206924Y-90470614D01*
G75*
G02*
X167100858Y-90470614I-53033J53033D01*
G01*
X166110908Y-89480664D01*
G75*
G02*
X166110908Y-89374598I53033J53033D01*
G01*
X166216974Y-89268532D01*
G75*
G02*
X166323040Y-89268532I53033J-53033D01*
G01*
G37*
%TD.AperFunction*%
%TO.P,U2,24*%
%TO.N,Net-(U2-Pad24)*%
%TA.AperFunction,SMDPad,CuDef*%
G36*
G01*
X166676594Y-88914978D02*
X167666544Y-89904928D01*
G75*
G02*
X167666544Y-90010994I-53033J-53033D01*
G01*
X167560478Y-90117060D01*
G75*
G02*
X167454412Y-90117060I-53033J53033D01*
G01*
X166464462Y-89127110D01*
G75*
G02*
X166464462Y-89021044I53033J53033D01*
G01*
X166570528Y-88914978D01*
G75*
G02*
X166676594Y-88914978I53033J-53033D01*
G01*
G37*
%TD.AperFunction*%
%TO.P,U2,23*%
%TO.N,TIM3_CH2*%
%TA.AperFunction,SMDPad,CuDef*%
G36*
G01*
X167030147Y-88561425D02*
X168020097Y-89551375D01*
G75*
G02*
X168020097Y-89657441I-53033J-53033D01*
G01*
X167914031Y-89763507D01*
G75*
G02*
X167807965Y-89763507I-53033J53033D01*
G01*
X166818015Y-88773557D01*
G75*
G02*
X166818015Y-88667491I53033J53033D01*
G01*
X166924081Y-88561425D01*
G75*
G02*
X167030147Y-88561425I53033J-53033D01*
G01*
G37*
%TD.AperFunction*%
%TO.P,U2,22*%
%TO.N,TIM3_CH1*%
%TA.AperFunction,SMDPad,CuDef*%
G36*
G01*
X167383700Y-88207872D02*
X168373650Y-89197822D01*
G75*
G02*
X168373650Y-89303888I-53033J-53033D01*
G01*
X168267584Y-89409954D01*
G75*
G02*
X168161518Y-89409954I-53033J53033D01*
G01*
X167171568Y-88420004D01*
G75*
G02*
X167171568Y-88313938I53033J53033D01*
G01*
X167277634Y-88207872D01*
G75*
G02*
X167383700Y-88207872I53033J-53033D01*
G01*
G37*
%TD.AperFunction*%
%TO.P,U2,21*%
%TO.N,Net-(U2-Pad21)*%
%TA.AperFunction,SMDPad,CuDef*%
G36*
G01*
X167737254Y-87854318D02*
X168727204Y-88844268D01*
G75*
G02*
X168727204Y-88950334I-53033J-53033D01*
G01*
X168621138Y-89056400D01*
G75*
G02*
X168515072Y-89056400I-53033J53033D01*
G01*
X167525122Y-88066450D01*
G75*
G02*
X167525122Y-87960384I53033J53033D01*
G01*
X167631188Y-87854318D01*
G75*
G02*
X167737254Y-87854318I53033J-53033D01*
G01*
G37*
%TD.AperFunction*%
%TO.P,U2,20*%
%TO.N,Net-(U2-Pad20)*%
%TA.AperFunction,SMDPad,CuDef*%
G36*
G01*
X168090807Y-87500765D02*
X169080757Y-88490715D01*
G75*
G02*
X169080757Y-88596781I-53033J-53033D01*
G01*
X168974691Y-88702847D01*
G75*
G02*
X168868625Y-88702847I-53033J53033D01*
G01*
X167878675Y-87712897D01*
G75*
G02*
X167878675Y-87606831I53033J53033D01*
G01*
X167984741Y-87500765D01*
G75*
G02*
X168090807Y-87500765I53033J-53033D01*
G01*
G37*
%TD.AperFunction*%
%TO.P,U2,19*%
%TO.N,+3V3*%
%TA.AperFunction,SMDPad,CuDef*%
G36*
G01*
X168444361Y-87147211D02*
X169434311Y-88137161D01*
G75*
G02*
X169434311Y-88243227I-53033J-53033D01*
G01*
X169328245Y-88349293D01*
G75*
G02*
X169222179Y-88349293I-53033J53033D01*
G01*
X168232229Y-87359343D01*
G75*
G02*
X168232229Y-87253277I53033J53033D01*
G01*
X168338295Y-87147211D01*
G75*
G02*
X168444361Y-87147211I53033J-53033D01*
G01*
G37*
%TD.AperFunction*%
%TO.P,U2,18*%
%TO.N,GND*%
%TA.AperFunction,SMDPad,CuDef*%
G36*
G01*
X168797914Y-86793658D02*
X169787864Y-87783608D01*
G75*
G02*
X169787864Y-87889674I-53033J-53033D01*
G01*
X169681798Y-87995740D01*
G75*
G02*
X169575732Y-87995740I-53033J53033D01*
G01*
X168585782Y-87005790D01*
G75*
G02*
X168585782Y-86899724I53033J53033D01*
G01*
X168691848Y-86793658D01*
G75*
G02*
X168797914Y-86793658I53033J-53033D01*
G01*
G37*
%TD.AperFunction*%
%TO.P,U2,17*%
%TO.N,LCD_DC*%
%TA.AperFunction,SMDPad,CuDef*%
G36*
G01*
X169151467Y-86440105D02*
X170141417Y-87430055D01*
G75*
G02*
X170141417Y-87536121I-53033J-53033D01*
G01*
X170035351Y-87642187D01*
G75*
G02*
X169929285Y-87642187I-53033J53033D01*
G01*
X168939335Y-86652237D01*
G75*
G02*
X168939335Y-86546171I53033J53033D01*
G01*
X169045401Y-86440105D01*
G75*
G02*
X169151467Y-86440105I53033J-53033D01*
G01*
G37*
%TD.AperFunction*%
%TO.P,U2,16*%
%TO.N,LCD_CS*%
%TA.AperFunction,SMDPad,CuDef*%
G36*
G01*
X172757713Y-86440105D02*
X172863779Y-86546171D01*
G75*
G02*
X172863779Y-86652237I-53033J-53033D01*
G01*
X171873829Y-87642187D01*
G75*
G02*
X171767763Y-87642187I-53033J53033D01*
G01*
X171661697Y-87536121D01*
G75*
G02*
X171661697Y-87430055I53033J53033D01*
G01*
X172651647Y-86440105D01*
G75*
G02*
X172757713Y-86440105I53033J-53033D01*
G01*
G37*
%TD.AperFunction*%
%TO.P,U2,15*%
%TO.N,TIM2_CH2*%
%TA.AperFunction,SMDPad,CuDef*%
G36*
G01*
X173111266Y-86793658D02*
X173217332Y-86899724D01*
G75*
G02*
X173217332Y-87005790I-53033J-53033D01*
G01*
X172227382Y-87995740D01*
G75*
G02*
X172121316Y-87995740I-53033J53033D01*
G01*
X172015250Y-87889674D01*
G75*
G02*
X172015250Y-87783608I53033J53033D01*
G01*
X173005200Y-86793658D01*
G75*
G02*
X173111266Y-86793658I53033J-53033D01*
G01*
G37*
%TD.AperFunction*%
%TO.P,U2,14*%
%TO.N,TIM2_CH1*%
%TA.AperFunction,SMDPad,CuDef*%
G36*
G01*
X173464819Y-87147211D02*
X173570885Y-87253277D01*
G75*
G02*
X173570885Y-87359343I-53033J-53033D01*
G01*
X172580935Y-88349293D01*
G75*
G02*
X172474869Y-88349293I-53033J53033D01*
G01*
X172368803Y-88243227D01*
G75*
G02*
X172368803Y-88137161I53033J53033D01*
G01*
X173358753Y-87147211D01*
G75*
G02*
X173464819Y-87147211I53033J-53033D01*
G01*
G37*
%TD.AperFunction*%
%TO.P,U2,13*%
%TO.N,+3.3VA*%
%TA.AperFunction,SMDPad,CuDef*%
G36*
G01*
X173818373Y-87500765D02*
X173924439Y-87606831D01*
G75*
G02*
X173924439Y-87712897I-53033J-53033D01*
G01*
X172934489Y-88702847D01*
G75*
G02*
X172828423Y-88702847I-53033J53033D01*
G01*
X172722357Y-88596781D01*
G75*
G02*
X172722357Y-88490715I53033J53033D01*
G01*
X173712307Y-87500765D01*
G75*
G02*
X173818373Y-87500765I53033J-53033D01*
G01*
G37*
%TD.AperFunction*%
%TO.P,U2,12*%
%TO.N,GND*%
%TA.AperFunction,SMDPad,CuDef*%
G36*
G01*
X174171926Y-87854318D02*
X174277992Y-87960384D01*
G75*
G02*
X174277992Y-88066450I-53033J-53033D01*
G01*
X173288042Y-89056400D01*
G75*
G02*
X173181976Y-89056400I-53033J53033D01*
G01*
X173075910Y-88950334D01*
G75*
G02*
X173075910Y-88844268I53033J53033D01*
G01*
X174065860Y-87854318D01*
G75*
G02*
X174171926Y-87854318I53033J-53033D01*
G01*
G37*
%TD.AperFunction*%
%TO.P,U2,11*%
%TO.N,Net-(U2-Pad11)*%
%TA.AperFunction,SMDPad,CuDef*%
G36*
G01*
X174525480Y-88207872D02*
X174631546Y-88313938D01*
G75*
G02*
X174631546Y-88420004I-53033J-53033D01*
G01*
X173641596Y-89409954D01*
G75*
G02*
X173535530Y-89409954I-53033J53033D01*
G01*
X173429464Y-89303888D01*
G75*
G02*
X173429464Y-89197822I53033J53033D01*
G01*
X174419414Y-88207872D01*
G75*
G02*
X174525480Y-88207872I53033J-53033D01*
G01*
G37*
%TD.AperFunction*%
%TO.P,U2,10*%
%TO.N,Net-(U2-Pad10)*%
%TA.AperFunction,SMDPad,CuDef*%
G36*
G01*
X174879033Y-88561425D02*
X174985099Y-88667491D01*
G75*
G02*
X174985099Y-88773557I-53033J-53033D01*
G01*
X173995149Y-89763507D01*
G75*
G02*
X173889083Y-89763507I-53033J53033D01*
G01*
X173783017Y-89657441D01*
G75*
G02*
X173783017Y-89551375I53033J53033D01*
G01*
X174772967Y-88561425D01*
G75*
G02*
X174879033Y-88561425I53033J-53033D01*
G01*
G37*
%TD.AperFunction*%
%TO.P,U2,9*%
%TO.N,Net-(U2-Pad9)*%
%TA.AperFunction,SMDPad,CuDef*%
G36*
G01*
X175232586Y-88914978D02*
X175338652Y-89021044D01*
G75*
G02*
X175338652Y-89127110I-53033J-53033D01*
G01*
X174348702Y-90117060D01*
G75*
G02*
X174242636Y-90117060I-53033J53033D01*
G01*
X174136570Y-90010994D01*
G75*
G02*
X174136570Y-89904928I53033J53033D01*
G01*
X175126520Y-88914978D01*
G75*
G02*
X175232586Y-88914978I53033J-53033D01*
G01*
G37*
%TD.AperFunction*%
%TO.P,U2,8*%
%TO.N,Net-(U2-Pad8)*%
%TA.AperFunction,SMDPad,CuDef*%
G36*
G01*
X175586140Y-89268532D02*
X175692206Y-89374598D01*
G75*
G02*
X175692206Y-89480664I-53033J-53033D01*
G01*
X174702256Y-90470614D01*
G75*
G02*
X174596190Y-90470614I-53033J53033D01*
G01*
X174490124Y-90364548D01*
G75*
G02*
X174490124Y-90258482I53033J53033D01*
G01*
X175480074Y-89268532D01*
G75*
G02*
X175586140Y-89268532I53033J-53033D01*
G01*
G37*
%TD.AperFunction*%
%TO.P,U2,7*%
%TO.N,NRST*%
%TA.AperFunction,SMDPad,CuDef*%
G36*
G01*
X175939693Y-89622085D02*
X176045759Y-89728151D01*
G75*
G02*
X176045759Y-89834217I-53033J-53033D01*
G01*
X175055809Y-90824167D01*
G75*
G02*
X174949743Y-90824167I-53033J53033D01*
G01*
X174843677Y-90718101D01*
G75*
G02*
X174843677Y-90612035I53033J53033D01*
G01*
X175833627Y-89622085D01*
G75*
G02*
X175939693Y-89622085I53033J-53033D01*
G01*
G37*
%TD.AperFunction*%
%TO.P,U2,6*%
%TO.N,HSE_OUT*%
%TA.AperFunction,SMDPad,CuDef*%
G36*
G01*
X176293246Y-89975638D02*
X176399312Y-90081704D01*
G75*
G02*
X176399312Y-90187770I-53033J-53033D01*
G01*
X175409362Y-91177720D01*
G75*
G02*
X175303296Y-91177720I-53033J53033D01*
G01*
X175197230Y-91071654D01*
G75*
G02*
X175197230Y-90965588I53033J53033D01*
G01*
X176187180Y-89975638D01*
G75*
G02*
X176293246Y-89975638I53033J-53033D01*
G01*
G37*
%TD.AperFunction*%
%TO.P,U2,5*%
%TO.N,HSE_IN*%
%TA.AperFunction,SMDPad,CuDef*%
G36*
G01*
X176646800Y-90329192D02*
X176752866Y-90435258D01*
G75*
G02*
X176752866Y-90541324I-53033J-53033D01*
G01*
X175762916Y-91531274D01*
G75*
G02*
X175656850Y-91531274I-53033J53033D01*
G01*
X175550784Y-91425208D01*
G75*
G02*
X175550784Y-91319142I53033J53033D01*
G01*
X176540734Y-90329192D01*
G75*
G02*
X176646800Y-90329192I53033J-53033D01*
G01*
G37*
%TD.AperFunction*%
%TO.P,U2,4*%
%TO.N,SW1_BTN*%
%TA.AperFunction,SMDPad,CuDef*%
G36*
G01*
X177000353Y-90682745D02*
X177106419Y-90788811D01*
G75*
G02*
X177106419Y-90894877I-53033J-53033D01*
G01*
X176116469Y-91884827D01*
G75*
G02*
X176010403Y-91884827I-53033J53033D01*
G01*
X175904337Y-91778761D01*
G75*
G02*
X175904337Y-91672695I53033J53033D01*
G01*
X176894287Y-90682745D01*
G75*
G02*
X177000353Y-90682745I53033J-53033D01*
G01*
G37*
%TD.AperFunction*%
%TO.P,U2,3*%
%TO.N,SW1_A*%
%TA.AperFunction,SMDPad,CuDef*%
G36*
G01*
X177353907Y-91036299D02*
X177459973Y-91142365D01*
G75*
G02*
X177459973Y-91248431I-53033J-53033D01*
G01*
X176470023Y-92238381D01*
G75*
G02*
X176363957Y-92238381I-53033J53033D01*
G01*
X176257891Y-92132315D01*
G75*
G02*
X176257891Y-92026249I53033J53033D01*
G01*
X177247841Y-91036299D01*
G75*
G02*
X177353907Y-91036299I53033J-53033D01*
G01*
G37*
%TD.AperFunction*%
%TO.P,U2,2*%
%TO.N,SW1_B*%
%TA.AperFunction,SMDPad,CuDef*%
G36*
G01*
X177707460Y-91389852D02*
X177813526Y-91495918D01*
G75*
G02*
X177813526Y-91601984I-53033J-53033D01*
G01*
X176823576Y-92591934D01*
G75*
G02*
X176717510Y-92591934I-53033J53033D01*
G01*
X176611444Y-92485868D01*
G75*
G02*
X176611444Y-92379802I53033J53033D01*
G01*
X177601394Y-91389852D01*
G75*
G02*
X177707460Y-91389852I53033J-53033D01*
G01*
G37*
%TD.AperFunction*%
%TO.P,U2,1*%
%TO.N,+3V3*%
%TA.AperFunction,SMDPad,CuDef*%
G36*
G01*
X178061013Y-91743405D02*
X178167079Y-91849471D01*
G75*
G02*
X178167079Y-91955537I-53033J-53033D01*
G01*
X177177129Y-92945487D01*
G75*
G02*
X177071063Y-92945487I-53033J53033D01*
G01*
X176964997Y-92839421D01*
G75*
G02*
X176964997Y-92733355I53033J53033D01*
G01*
X177954947Y-91743405D01*
G75*
G02*
X178061013Y-91743405I53033J-53033D01*
G01*
G37*
%TD.AperFunction*%
%TD*%
D16*
%TO.P,U7,33*%
%TO.N,GND*%
X110650000Y-85100000D03*
D17*
%TO.P,U7,32*%
%TO.N,MICBIAS*%
X108252100Y-86850441D03*
%TO.P,U7,31*%
%TO.N,AVDD*%
X108252100Y-86350315D03*
%TO.P,U7,30*%
%TO.N,OUT_L*%
X108252100Y-85850189D03*
%TO.P,U7,29*%
%TO.N,OUT_R*%
X108252100Y-85350063D03*
%TO.P,U7,28*%
%TO.N,GND*%
X108252100Y-84849937D03*
%TO.P,U7,27*%
%TO.N,Net-(C33-Pad2)*%
X108252100Y-84349811D03*
%TO.P,U7,26*%
%TO.N,+3V3*%
X108252100Y-83849685D03*
%TO.P,U7,25*%
%TO.N,HP_L*%
X108252100Y-83349559D03*
D18*
%TO.P,U7,24*%
%TO.N,GND*%
X108899559Y-82702100D03*
%TO.P,U7,23*%
%TO.N,HP_R*%
X109399685Y-82702100D03*
%TO.P,U7,22*%
%TO.N,Net-(U7-Pad22)*%
X109899811Y-82702100D03*
%TO.P,U7,21*%
%TO.N,Net-(U7-Pad21)*%
X110399937Y-82702100D03*
%TO.P,U7,20*%
%TO.N,Net-(U7-Pad20)*%
X110900063Y-82702100D03*
%TO.P,U7,19*%
%TO.N,Net-(U7-Pad19)*%
X111400189Y-82702100D03*
%TO.P,U7,18*%
%TO.N,GND*%
X111900315Y-82702100D03*
%TO.P,U7,17*%
%TO.N,I2C2_SDA*%
X112400441Y-82702100D03*
D17*
%TO.P,U7,16*%
%TO.N,I2C2_SCL*%
X113047900Y-83349559D03*
%TO.P,U7,15*%
%TO.N,GND*%
X113047900Y-83849685D03*
%TO.P,U7,14*%
%TO.N,+3V3*%
X113047900Y-84349811D03*
%TO.P,U7,13*%
X113047900Y-84849937D03*
%TO.P,U7,12*%
%TO.N,GND*%
X113047900Y-85350063D03*
%TO.P,U7,11*%
%TO.N,I2S2_MCK*%
X113047900Y-85850189D03*
%TO.P,U7,10*%
%TO.N,I2S2_SDO*%
X113047900Y-86350315D03*
%TO.P,U7,9*%
%TO.N,I2S2_SDI*%
X113047900Y-86850441D03*
D18*
%TO.P,U7,8*%
%TO.N,I2S2_SCLK*%
X112400441Y-87497900D03*
%TO.P,U7,7*%
%TO.N,I2S2_WS*%
X111900315Y-87497900D03*
%TO.P,U7,6*%
%TO.N,IN_R*%
X111400189Y-87497900D03*
%TO.P,U7,5*%
%TO.N,Net-(U7-Pad5)*%
X110900063Y-87497900D03*
%TO.P,U7,4*%
%TO.N,Net-(U7-Pad4)*%
X110399937Y-87497900D03*
%TO.P,U7,3*%
%TO.N,IN_L*%
X109899811Y-87497900D03*
%TO.P,U7,2*%
%TO.N,MIC_-*%
X109399685Y-87497900D03*
%TO.P,U7,1*%
%TO.N,MIC_+*%
X108899559Y-87497900D03*
%TD*%
%TO.P,R33,2*%
%TO.N,Net-(J1-Pad4)*%
%TA.AperFunction,SMDPad,CuDef*%
G36*
G01*
X124498000Y-80617000D02*
X124498000Y-80987000D01*
G75*
G02*
X124363000Y-81122000I-135000J0D01*
G01*
X124093000Y-81122000D01*
G75*
G02*
X123958000Y-80987000I0J135000D01*
G01*
X123958000Y-80617000D01*
G75*
G02*
X124093000Y-80482000I135000J0D01*
G01*
X124363000Y-80482000D01*
G75*
G02*
X124498000Y-80617000I0J-135000D01*
G01*
G37*
%TD.AperFunction*%
%TO.P,R33,1*%
%TO.N,GND*%
%TA.AperFunction,SMDPad,CuDef*%
G36*
G01*
X125518000Y-80617000D02*
X125518000Y-80987000D01*
G75*
G02*
X125383000Y-81122000I-135000J0D01*
G01*
X125113000Y-81122000D01*
G75*
G02*
X124978000Y-80987000I0J135000D01*
G01*
X124978000Y-80617000D01*
G75*
G02*
X125113000Y-80482000I135000J0D01*
G01*
X125383000Y-80482000D01*
G75*
G02*
X125518000Y-80617000I0J-135000D01*
G01*
G37*
%TD.AperFunction*%
%TD*%
D19*
%TO.P,J5,*%
%TO.N,*%
X99357500Y-84970000D03*
X99357500Y-78870000D03*
D20*
%TO.P,J5,T*%
%TO.N,Net-(FB3-Pad1)*%
X101757500Y-85970000D03*
%TO.P,J5,S*%
%TO.N,GND*%
X101757500Y-78914000D03*
%TO.P,J5,R*%
%TO.N,Net-(FB4-Pad1)*%
X96960500Y-80847000D03*
%TD*%
%TO.P,R32,2*%
%TO.N,GND*%
%TA.AperFunction,SMDPad,CuDef*%
G36*
G01*
X71431998Y-90570000D02*
X72332002Y-90570000D01*
G75*
G02*
X72582000Y-90819998I0J-249998D01*
G01*
X72582000Y-91345002D01*
G75*
G02*
X72332002Y-91595000I-249998J0D01*
G01*
X71431998Y-91595000D01*
G75*
G02*
X71182000Y-91345002I0J249998D01*
G01*
X71182000Y-90819998D01*
G75*
G02*
X71431998Y-90570000I249998J0D01*
G01*
G37*
%TD.AperFunction*%
%TO.P,R32,1*%
%TO.N,Net-(C19-Pad2)*%
%TA.AperFunction,SMDPad,CuDef*%
G36*
G01*
X71431998Y-88745000D02*
X72332002Y-88745000D01*
G75*
G02*
X72582000Y-88994998I0J-249998D01*
G01*
X72582000Y-89520002D01*
G75*
G02*
X72332002Y-89770000I-249998J0D01*
G01*
X71431998Y-89770000D01*
G75*
G02*
X71182000Y-89520002I0J249998D01*
G01*
X71182000Y-88994998D01*
G75*
G02*
X71431998Y-88745000I249998J0D01*
G01*
G37*
%TD.AperFunction*%
%TD*%
%TO.P,R31,2*%
%TO.N,GND*%
%TA.AperFunction,SMDPad,CuDef*%
G36*
G01*
X73448500Y-84016002D02*
X73448500Y-83115998D01*
G75*
G02*
X73698498Y-82866000I249998J0D01*
G01*
X74223502Y-82866000D01*
G75*
G02*
X74473500Y-83115998I0J-249998D01*
G01*
X74473500Y-84016002D01*
G75*
G02*
X74223502Y-84266000I-249998J0D01*
G01*
X73698498Y-84266000D01*
G75*
G02*
X73448500Y-84016002I0J249998D01*
G01*
G37*
%TD.AperFunction*%
%TO.P,R31,1*%
%TO.N,Net-(C32-Pad2)*%
%TA.AperFunction,SMDPad,CuDef*%
G36*
G01*
X71623500Y-84016002D02*
X71623500Y-83115998D01*
G75*
G02*
X71873498Y-82866000I249998J0D01*
G01*
X72398502Y-82866000D01*
G75*
G02*
X72648500Y-83115998I0J-249998D01*
G01*
X72648500Y-84016002D01*
G75*
G02*
X72398502Y-84266000I-249998J0D01*
G01*
X71873498Y-84266000D01*
G75*
G02*
X71623500Y-84016002I0J249998D01*
G01*
G37*
%TD.AperFunction*%
%TD*%
%TO.P,R13,2*%
%TO.N,Net-(C32-Pad2)*%
%TA.AperFunction,SMDPad,CuDef*%
G36*
G01*
X71012000Y-81476002D02*
X71012000Y-80575998D01*
G75*
G02*
X71261998Y-80326000I249998J0D01*
G01*
X71787002Y-80326000D01*
G75*
G02*
X72037000Y-80575998I0J-249998D01*
G01*
X72037000Y-81476002D01*
G75*
G02*
X71787002Y-81726000I-249998J0D01*
G01*
X71261998Y-81726000D01*
G75*
G02*
X71012000Y-81476002I0J249998D01*
G01*
G37*
%TD.AperFunction*%
%TO.P,R13,1*%
%TO.N,Net-(J4-PadR)*%
%TA.AperFunction,SMDPad,CuDef*%
G36*
G01*
X69187000Y-81476002D02*
X69187000Y-80575998D01*
G75*
G02*
X69436998Y-80326000I249998J0D01*
G01*
X69962002Y-80326000D01*
G75*
G02*
X70212000Y-80575998I0J-249998D01*
G01*
X70212000Y-81476002D01*
G75*
G02*
X69962002Y-81726000I-249998J0D01*
G01*
X69436998Y-81726000D01*
G75*
G02*
X69187000Y-81476002I0J249998D01*
G01*
G37*
%TD.AperFunction*%
%TD*%
%TO.P,R12,2*%
%TO.N,Net-(J4-PadT)*%
%TA.AperFunction,SMDPad,CuDef*%
G36*
G01*
X69299500Y-86925998D02*
X69299500Y-87826002D01*
G75*
G02*
X69049502Y-88076000I-249998J0D01*
G01*
X68524498Y-88076000D01*
G75*
G02*
X68274500Y-87826002I0J249998D01*
G01*
X68274500Y-86925998D01*
G75*
G02*
X68524498Y-86676000I249998J0D01*
G01*
X69049502Y-86676000D01*
G75*
G02*
X69299500Y-86925998I0J-249998D01*
G01*
G37*
%TD.AperFunction*%
%TO.P,R12,1*%
%TO.N,Net-(C19-Pad2)*%
%TA.AperFunction,SMDPad,CuDef*%
G36*
G01*
X71124500Y-86925998D02*
X71124500Y-87826002D01*
G75*
G02*
X70874502Y-88076000I-249998J0D01*
G01*
X70349498Y-88076000D01*
G75*
G02*
X70099500Y-87826002I0J249998D01*
G01*
X70099500Y-86925998D01*
G75*
G02*
X70349498Y-86676000I249998J0D01*
G01*
X70874502Y-86676000D01*
G75*
G02*
X71124500Y-86925998I0J-249998D01*
G01*
G37*
%TD.AperFunction*%
%TD*%
%TO.P,C57,2*%
%TO.N,GND*%
%TA.AperFunction,SMDPad,CuDef*%
G36*
G01*
X73236000Y-89770000D02*
X73576000Y-89770000D01*
G75*
G02*
X73716000Y-89910000I0J-140000D01*
G01*
X73716000Y-90190000D01*
G75*
G02*
X73576000Y-90330000I-140000J0D01*
G01*
X73236000Y-90330000D01*
G75*
G02*
X73096000Y-90190000I0J140000D01*
G01*
X73096000Y-89910000D01*
G75*
G02*
X73236000Y-89770000I140000J0D01*
G01*
G37*
%TD.AperFunction*%
%TO.P,C57,1*%
%TO.N,Net-(C19-Pad2)*%
%TA.AperFunction,SMDPad,CuDef*%
G36*
G01*
X73236000Y-88810000D02*
X73576000Y-88810000D01*
G75*
G02*
X73716000Y-88950000I0J-140000D01*
G01*
X73716000Y-89230000D01*
G75*
G02*
X73576000Y-89370000I-140000J0D01*
G01*
X73236000Y-89370000D01*
G75*
G02*
X73096000Y-89230000I0J140000D01*
G01*
X73096000Y-88950000D01*
G75*
G02*
X73236000Y-88810000I140000J0D01*
G01*
G37*
%TD.AperFunction*%
%TD*%
%TO.P,C56,2*%
%TO.N,GND*%
%TA.AperFunction,SMDPad,CuDef*%
G36*
G01*
X67872000Y-82634000D02*
X67872000Y-82974000D01*
G75*
G02*
X67732000Y-83114000I-140000J0D01*
G01*
X67452000Y-83114000D01*
G75*
G02*
X67312000Y-82974000I0J140000D01*
G01*
X67312000Y-82634000D01*
G75*
G02*
X67452000Y-82494000I140000J0D01*
G01*
X67732000Y-82494000D01*
G75*
G02*
X67872000Y-82634000I0J-140000D01*
G01*
G37*
%TD.AperFunction*%
%TO.P,C56,1*%
%TO.N,Net-(C32-Pad2)*%
%TA.AperFunction,SMDPad,CuDef*%
G36*
G01*
X68832000Y-82634000D02*
X68832000Y-82974000D01*
G75*
G02*
X68692000Y-83114000I-140000J0D01*
G01*
X68412000Y-83114000D01*
G75*
G02*
X68272000Y-82974000I0J140000D01*
G01*
X68272000Y-82634000D01*
G75*
G02*
X68412000Y-82494000I140000J0D01*
G01*
X68692000Y-82494000D01*
G75*
G02*
X68832000Y-82634000I0J-140000D01*
G01*
G37*
%TD.AperFunction*%
%TD*%
%TO.P,C32,2*%
%TO.N,Net-(C32-Pad2)*%
%TA.AperFunction,SMDPad,CuDef*%
G36*
G01*
X68272000Y-83990000D02*
X68272000Y-83650000D01*
G75*
G02*
X68412000Y-83510000I140000J0D01*
G01*
X68692000Y-83510000D01*
G75*
G02*
X68832000Y-83650000I0J-140000D01*
G01*
X68832000Y-83990000D01*
G75*
G02*
X68692000Y-84130000I-140000J0D01*
G01*
X68412000Y-84130000D01*
G75*
G02*
X68272000Y-83990000I0J140000D01*
G01*
G37*
%TD.AperFunction*%
%TO.P,C32,1*%
%TO.N,IN_R*%
%TA.AperFunction,SMDPad,CuDef*%
G36*
G01*
X67312000Y-83990000D02*
X67312000Y-83650000D01*
G75*
G02*
X67452000Y-83510000I140000J0D01*
G01*
X67732000Y-83510000D01*
G75*
G02*
X67872000Y-83650000I0J-140000D01*
G01*
X67872000Y-83990000D01*
G75*
G02*
X67732000Y-84130000I-140000J0D01*
G01*
X67452000Y-84130000D01*
G75*
G02*
X67312000Y-83990000I0J140000D01*
G01*
G37*
%TD.AperFunction*%
%TD*%
%TO.P,C19,2*%
%TO.N,Net-(C19-Pad2)*%
%TA.AperFunction,SMDPad,CuDef*%
G36*
G01*
X74758000Y-88984000D02*
X74758000Y-89324000D01*
G75*
G02*
X74618000Y-89464000I-140000J0D01*
G01*
X74338000Y-89464000D01*
G75*
G02*
X74198000Y-89324000I0J140000D01*
G01*
X74198000Y-88984000D01*
G75*
G02*
X74338000Y-88844000I140000J0D01*
G01*
X74618000Y-88844000D01*
G75*
G02*
X74758000Y-88984000I0J-140000D01*
G01*
G37*
%TD.AperFunction*%
%TO.P,C19,1*%
%TO.N,IN_L*%
%TA.AperFunction,SMDPad,CuDef*%
G36*
G01*
X75718000Y-88984000D02*
X75718000Y-89324000D01*
G75*
G02*
X75578000Y-89464000I-140000J0D01*
G01*
X75298000Y-89464000D01*
G75*
G02*
X75158000Y-89324000I0J140000D01*
G01*
X75158000Y-88984000D01*
G75*
G02*
X75298000Y-88844000I140000J0D01*
G01*
X75578000Y-88844000D01*
G75*
G02*
X75718000Y-88984000I0J-140000D01*
G01*
G37*
%TD.AperFunction*%
%TD*%
%TO.P,FB7,2*%
%TO.N,+3V3*%
%TA.AperFunction,SMDPad,CuDef*%
G36*
G01*
X103782500Y-89268750D02*
X103782500Y-90031250D01*
G75*
G02*
X103563750Y-90250000I-218750J0D01*
G01*
X103126250Y-90250000D01*
G75*
G02*
X102907500Y-90031250I0J218750D01*
G01*
X102907500Y-89268750D01*
G75*
G02*
X103126250Y-89050000I218750J0D01*
G01*
X103563750Y-89050000D01*
G75*
G02*
X103782500Y-89268750I0J-218750D01*
G01*
G37*
%TD.AperFunction*%
%TO.P,FB7,1*%
%TO.N,AVDD*%
%TA.AperFunction,SMDPad,CuDef*%
G36*
G01*
X105907500Y-89268750D02*
X105907500Y-90031250D01*
G75*
G02*
X105688750Y-90250000I-218750J0D01*
G01*
X105251250Y-90250000D01*
G75*
G02*
X105032500Y-90031250I0J218750D01*
G01*
X105032500Y-89268750D01*
G75*
G02*
X105251250Y-89050000I218750J0D01*
G01*
X105688750Y-89050000D01*
G75*
G02*
X105907500Y-89268750I0J-218750D01*
G01*
G37*
%TD.AperFunction*%
%TD*%
%TO.P,C55,2*%
%TO.N,GND*%
%TA.AperFunction,SMDPad,CuDef*%
G36*
G01*
X104998000Y-91876000D02*
X104998000Y-92216000D01*
G75*
G02*
X104858000Y-92356000I-140000J0D01*
G01*
X104578000Y-92356000D01*
G75*
G02*
X104438000Y-92216000I0J140000D01*
G01*
X104438000Y-91876000D01*
G75*
G02*
X104578000Y-91736000I140000J0D01*
G01*
X104858000Y-91736000D01*
G75*
G02*
X104998000Y-91876000I0J-140000D01*
G01*
G37*
%TD.AperFunction*%
%TO.P,C55,1*%
%TO.N,AVDD*%
%TA.AperFunction,SMDPad,CuDef*%
G36*
G01*
X105958000Y-91876000D02*
X105958000Y-92216000D01*
G75*
G02*
X105818000Y-92356000I-140000J0D01*
G01*
X105538000Y-92356000D01*
G75*
G02*
X105398000Y-92216000I0J140000D01*
G01*
X105398000Y-91876000D01*
G75*
G02*
X105538000Y-91736000I140000J0D01*
G01*
X105818000Y-91736000D01*
G75*
G02*
X105958000Y-91876000I0J-140000D01*
G01*
G37*
%TD.AperFunction*%
%TD*%
%TO.P,C54,2*%
%TO.N,GND*%
%TA.AperFunction,SMDPad,CuDef*%
G36*
G01*
X104998000Y-90860000D02*
X104998000Y-91200000D01*
G75*
G02*
X104858000Y-91340000I-140000J0D01*
G01*
X104578000Y-91340000D01*
G75*
G02*
X104438000Y-91200000I0J140000D01*
G01*
X104438000Y-90860000D01*
G75*
G02*
X104578000Y-90720000I140000J0D01*
G01*
X104858000Y-90720000D01*
G75*
G02*
X104998000Y-90860000I0J-140000D01*
G01*
G37*
%TD.AperFunction*%
%TO.P,C54,1*%
%TO.N,AVDD*%
%TA.AperFunction,SMDPad,CuDef*%
G36*
G01*
X105958000Y-90860000D02*
X105958000Y-91200000D01*
G75*
G02*
X105818000Y-91340000I-140000J0D01*
G01*
X105538000Y-91340000D01*
G75*
G02*
X105398000Y-91200000I0J140000D01*
G01*
X105398000Y-90860000D01*
G75*
G02*
X105538000Y-90720000I140000J0D01*
G01*
X105818000Y-90720000D01*
G75*
G02*
X105958000Y-90860000I0J-140000D01*
G01*
G37*
%TD.AperFunction*%
%TD*%
D21*
%TO.P,U12,5*%
%TO.N,+3V3*%
X195326000Y-99992000D03*
%TO.P,U12,6*%
%TO.N,SW1_B*%
X194376000Y-99992000D03*
%TO.P,U12,4*%
%TO.N,SW1_A*%
X196276000Y-99992000D03*
%TO.P,U12,3*%
%TO.N,Net-(R29-Pad1)*%
X196276000Y-102192000D03*
%TO.P,U12,2*%
%TO.N,GND*%
X195326000Y-102192000D03*
%TO.P,U12,1*%
%TO.N,Net-(R30-Pad1)*%
X194376000Y-102192000D03*
%TD*%
%TO.P,R30,2*%
%TO.N,Net-(C52-Pad2)*%
%TA.AperFunction,SMDPad,CuDef*%
G36*
G01*
X193946000Y-104071000D02*
X193946000Y-103701000D01*
G75*
G02*
X194081000Y-103566000I135000J0D01*
G01*
X194351000Y-103566000D01*
G75*
G02*
X194486000Y-103701000I0J-135000D01*
G01*
X194486000Y-104071000D01*
G75*
G02*
X194351000Y-104206000I-135000J0D01*
G01*
X194081000Y-104206000D01*
G75*
G02*
X193946000Y-104071000I0J135000D01*
G01*
G37*
%TD.AperFunction*%
%TO.P,R30,1*%
%TO.N,Net-(R30-Pad1)*%
%TA.AperFunction,SMDPad,CuDef*%
G36*
G01*
X192926000Y-104071000D02*
X192926000Y-103701000D01*
G75*
G02*
X193061000Y-103566000I135000J0D01*
G01*
X193331000Y-103566000D01*
G75*
G02*
X193466000Y-103701000I0J-135000D01*
G01*
X193466000Y-104071000D01*
G75*
G02*
X193331000Y-104206000I-135000J0D01*
G01*
X193061000Y-104206000D01*
G75*
G02*
X192926000Y-104071000I0J135000D01*
G01*
G37*
%TD.AperFunction*%
%TD*%
%TO.P,R29,2*%
%TO.N,Net-(C51-Pad2)*%
%TA.AperFunction,SMDPad,CuDef*%
G36*
G01*
X196994000Y-104081000D02*
X196994000Y-103711000D01*
G75*
G02*
X197129000Y-103576000I135000J0D01*
G01*
X197399000Y-103576000D01*
G75*
G02*
X197534000Y-103711000I0J-135000D01*
G01*
X197534000Y-104081000D01*
G75*
G02*
X197399000Y-104216000I-135000J0D01*
G01*
X197129000Y-104216000D01*
G75*
G02*
X196994000Y-104081000I0J135000D01*
G01*
G37*
%TD.AperFunction*%
%TO.P,R29,1*%
%TO.N,Net-(R29-Pad1)*%
%TA.AperFunction,SMDPad,CuDef*%
G36*
G01*
X195974000Y-104081000D02*
X195974000Y-103711000D01*
G75*
G02*
X196109000Y-103576000I135000J0D01*
G01*
X196379000Y-103576000D01*
G75*
G02*
X196514000Y-103711000I0J-135000D01*
G01*
X196514000Y-104081000D01*
G75*
G02*
X196379000Y-104216000I-135000J0D01*
G01*
X196109000Y-104216000D01*
G75*
G02*
X195974000Y-104081000I0J135000D01*
G01*
G37*
%TD.AperFunction*%
%TD*%
%TO.P,C53,2*%
%TO.N,GND*%
%TA.AperFunction,SMDPad,CuDef*%
G36*
G01*
X195496000Y-97590000D02*
X195156000Y-97590000D01*
G75*
G02*
X195016000Y-97450000I0J140000D01*
G01*
X195016000Y-97170000D01*
G75*
G02*
X195156000Y-97030000I140000J0D01*
G01*
X195496000Y-97030000D01*
G75*
G02*
X195636000Y-97170000I0J-140000D01*
G01*
X195636000Y-97450000D01*
G75*
G02*
X195496000Y-97590000I-140000J0D01*
G01*
G37*
%TD.AperFunction*%
%TO.P,C53,1*%
%TO.N,+3V3*%
%TA.AperFunction,SMDPad,CuDef*%
G36*
G01*
X195496000Y-98550000D02*
X195156000Y-98550000D01*
G75*
G02*
X195016000Y-98410000I0J140000D01*
G01*
X195016000Y-98130000D01*
G75*
G02*
X195156000Y-97990000I140000J0D01*
G01*
X195496000Y-97990000D01*
G75*
G02*
X195636000Y-98130000I0J-140000D01*
G01*
X195636000Y-98410000D01*
G75*
G02*
X195496000Y-98550000I-140000J0D01*
G01*
G37*
%TD.AperFunction*%
%TD*%
%TO.P,C52,2*%
%TO.N,Net-(C52-Pad2)*%
%TA.AperFunction,SMDPad,CuDef*%
G36*
G01*
X193886000Y-105072000D02*
X193886000Y-104732000D01*
G75*
G02*
X194026000Y-104592000I140000J0D01*
G01*
X194306000Y-104592000D01*
G75*
G02*
X194446000Y-104732000I0J-140000D01*
G01*
X194446000Y-105072000D01*
G75*
G02*
X194306000Y-105212000I-140000J0D01*
G01*
X194026000Y-105212000D01*
G75*
G02*
X193886000Y-105072000I0J140000D01*
G01*
G37*
%TD.AperFunction*%
%TO.P,C52,1*%
%TO.N,GND*%
%TA.AperFunction,SMDPad,CuDef*%
G36*
G01*
X192926000Y-105072000D02*
X192926000Y-104732000D01*
G75*
G02*
X193066000Y-104592000I140000J0D01*
G01*
X193346000Y-104592000D01*
G75*
G02*
X193486000Y-104732000I0J-140000D01*
G01*
X193486000Y-105072000D01*
G75*
G02*
X193346000Y-105212000I-140000J0D01*
G01*
X193066000Y-105212000D01*
G75*
G02*
X192926000Y-105072000I0J140000D01*
G01*
G37*
%TD.AperFunction*%
%TD*%
%TO.P,C51,2*%
%TO.N,Net-(C51-Pad2)*%
%TA.AperFunction,SMDPad,CuDef*%
G36*
G01*
X197022000Y-105072000D02*
X197022000Y-104732000D01*
G75*
G02*
X197162000Y-104592000I140000J0D01*
G01*
X197442000Y-104592000D01*
G75*
G02*
X197582000Y-104732000I0J-140000D01*
G01*
X197582000Y-105072000D01*
G75*
G02*
X197442000Y-105212000I-140000J0D01*
G01*
X197162000Y-105212000D01*
G75*
G02*
X197022000Y-105072000I0J140000D01*
G01*
G37*
%TD.AperFunction*%
%TO.P,C51,1*%
%TO.N,GND*%
%TA.AperFunction,SMDPad,CuDef*%
G36*
G01*
X196062000Y-105072000D02*
X196062000Y-104732000D01*
G75*
G02*
X196202000Y-104592000I140000J0D01*
G01*
X196482000Y-104592000D01*
G75*
G02*
X196622000Y-104732000I0J-140000D01*
G01*
X196622000Y-105072000D01*
G75*
G02*
X196482000Y-105212000I-140000J0D01*
G01*
X196202000Y-105212000D01*
G75*
G02*
X196062000Y-105072000I0J140000D01*
G01*
G37*
%TD.AperFunction*%
%TD*%
D22*
%TO.P,U11,5*%
%TO.N,+3V3*%
X196004000Y-87884000D03*
%TO.P,U11,6*%
%TO.N,SW1_BTN*%
X196004000Y-88834000D03*
%TO.P,U11,4*%
%TO.N,BACK_BTN*%
X196004000Y-86934000D03*
%TO.P,U11,3*%
%TO.N,Net-(R28-Pad1)*%
X198204000Y-86934000D03*
%TO.P,U11,2*%
%TO.N,GND*%
X198204000Y-87884000D03*
%TO.P,U11,1*%
%TO.N,Net-(R27-Pad1)*%
X198204000Y-88834000D03*
%TD*%
%TO.P,R28,2*%
%TO.N,Net-(C50-Pad2)*%
%TA.AperFunction,SMDPad,CuDef*%
G36*
G01*
X204710000Y-83243000D02*
X204710000Y-82873000D01*
G75*
G02*
X204845000Y-82738000I135000J0D01*
G01*
X205115000Y-82738000D01*
G75*
G02*
X205250000Y-82873000I0J-135000D01*
G01*
X205250000Y-83243000D01*
G75*
G02*
X205115000Y-83378000I-135000J0D01*
G01*
X204845000Y-83378000D01*
G75*
G02*
X204710000Y-83243000I0J135000D01*
G01*
G37*
%TD.AperFunction*%
%TO.P,R28,1*%
%TO.N,Net-(R28-Pad1)*%
%TA.AperFunction,SMDPad,CuDef*%
G36*
G01*
X203690000Y-83243000D02*
X203690000Y-82873000D01*
G75*
G02*
X203825000Y-82738000I135000J0D01*
G01*
X204095000Y-82738000D01*
G75*
G02*
X204230000Y-82873000I0J-135000D01*
G01*
X204230000Y-83243000D01*
G75*
G02*
X204095000Y-83378000I-135000J0D01*
G01*
X203825000Y-83378000D01*
G75*
G02*
X203690000Y-83243000I0J135000D01*
G01*
G37*
%TD.AperFunction*%
%TD*%
%TO.P,R27,2*%
%TO.N,Net-(C49-Pad2)*%
%TA.AperFunction,SMDPad,CuDef*%
G36*
G01*
X200646000Y-89085000D02*
X200646000Y-88715000D01*
G75*
G02*
X200781000Y-88580000I135000J0D01*
G01*
X201051000Y-88580000D01*
G75*
G02*
X201186000Y-88715000I0J-135000D01*
G01*
X201186000Y-89085000D01*
G75*
G02*
X201051000Y-89220000I-135000J0D01*
G01*
X200781000Y-89220000D01*
G75*
G02*
X200646000Y-89085000I0J135000D01*
G01*
G37*
%TD.AperFunction*%
%TO.P,R27,1*%
%TO.N,Net-(R27-Pad1)*%
%TA.AperFunction,SMDPad,CuDef*%
G36*
G01*
X199626000Y-89085000D02*
X199626000Y-88715000D01*
G75*
G02*
X199761000Y-88580000I135000J0D01*
G01*
X200031000Y-88580000D01*
G75*
G02*
X200166000Y-88715000I0J-135000D01*
G01*
X200166000Y-89085000D01*
G75*
G02*
X200031000Y-89220000I-135000J0D01*
G01*
X199761000Y-89220000D01*
G75*
G02*
X199626000Y-89085000I0J135000D01*
G01*
G37*
%TD.AperFunction*%
%TD*%
%TO.P,C50,2*%
%TO.N,Net-(C50-Pad2)*%
%TA.AperFunction,SMDPad,CuDef*%
G36*
G01*
X204670000Y-82212000D02*
X204670000Y-81872000D01*
G75*
G02*
X204810000Y-81732000I140000J0D01*
G01*
X205090000Y-81732000D01*
G75*
G02*
X205230000Y-81872000I0J-140000D01*
G01*
X205230000Y-82212000D01*
G75*
G02*
X205090000Y-82352000I-140000J0D01*
G01*
X204810000Y-82352000D01*
G75*
G02*
X204670000Y-82212000I0J140000D01*
G01*
G37*
%TD.AperFunction*%
%TO.P,C50,1*%
%TO.N,GND*%
%TA.AperFunction,SMDPad,CuDef*%
G36*
G01*
X203710000Y-82212000D02*
X203710000Y-81872000D01*
G75*
G02*
X203850000Y-81732000I140000J0D01*
G01*
X204130000Y-81732000D01*
G75*
G02*
X204270000Y-81872000I0J-140000D01*
G01*
X204270000Y-82212000D01*
G75*
G02*
X204130000Y-82352000I-140000J0D01*
G01*
X203850000Y-82352000D01*
G75*
G02*
X203710000Y-82212000I0J140000D01*
G01*
G37*
%TD.AperFunction*%
%TD*%
%TO.P,C49,2*%
%TO.N,Net-(C49-Pad2)*%
%TA.AperFunction,SMDPad,CuDef*%
G36*
G01*
X202210000Y-88730000D02*
X202210000Y-89070000D01*
G75*
G02*
X202070000Y-89210000I-140000J0D01*
G01*
X201790000Y-89210000D01*
G75*
G02*
X201650000Y-89070000I0J140000D01*
G01*
X201650000Y-88730000D01*
G75*
G02*
X201790000Y-88590000I140000J0D01*
G01*
X202070000Y-88590000D01*
G75*
G02*
X202210000Y-88730000I0J-140000D01*
G01*
G37*
%TD.AperFunction*%
%TO.P,C49,1*%
%TO.N,GND*%
%TA.AperFunction,SMDPad,CuDef*%
G36*
G01*
X203170000Y-88730000D02*
X203170000Y-89070000D01*
G75*
G02*
X203030000Y-89210000I-140000J0D01*
G01*
X202750000Y-89210000D01*
G75*
G02*
X202610000Y-89070000I0J140000D01*
G01*
X202610000Y-88730000D01*
G75*
G02*
X202750000Y-88590000I140000J0D01*
G01*
X203030000Y-88590000D01*
G75*
G02*
X203170000Y-88730000I0J-140000D01*
G01*
G37*
%TD.AperFunction*%
%TD*%
%TO.P,C48,2*%
%TO.N,GND*%
%TA.AperFunction,SMDPad,CuDef*%
G36*
G01*
X196396000Y-85174000D02*
X196396000Y-85514000D01*
G75*
G02*
X196256000Y-85654000I-140000J0D01*
G01*
X195976000Y-85654000D01*
G75*
G02*
X195836000Y-85514000I0J140000D01*
G01*
X195836000Y-85174000D01*
G75*
G02*
X195976000Y-85034000I140000J0D01*
G01*
X196256000Y-85034000D01*
G75*
G02*
X196396000Y-85174000I0J-140000D01*
G01*
G37*
%TD.AperFunction*%
%TO.P,C48,1*%
%TO.N,+3V3*%
%TA.AperFunction,SMDPad,CuDef*%
G36*
G01*
X197356000Y-85174000D02*
X197356000Y-85514000D01*
G75*
G02*
X197216000Y-85654000I-140000J0D01*
G01*
X196936000Y-85654000D01*
G75*
G02*
X196796000Y-85514000I0J140000D01*
G01*
X196796000Y-85174000D01*
G75*
G02*
X196936000Y-85034000I140000J0D01*
G01*
X197216000Y-85034000D01*
G75*
G02*
X197356000Y-85174000I0J-140000D01*
G01*
G37*
%TD.AperFunction*%
%TD*%
%TO.P,U10,5*%
%TO.N,+3V3*%
X59604000Y-98552000D03*
%TO.P,U10,6*%
%TO.N,HOLD_SW*%
X59604000Y-97602000D03*
%TO.P,U10,4*%
%TO.N,FIRE_BTN*%
X59604000Y-99502000D03*
%TO.P,U10,3*%
%TO.N,Net-(R26-Pad1)*%
X57404000Y-99502000D03*
%TO.P,U10,2*%
%TO.N,GND*%
X57404000Y-98552000D03*
%TO.P,U10,1*%
%TO.N,Net-(R25-Pad1)*%
X57404000Y-97602000D03*
%TD*%
%TO.P,R26,2*%
%TO.N,Net-(C47-Pad2)*%
%TA.AperFunction,SMDPad,CuDef*%
G36*
G01*
X54425000Y-102602000D02*
X54795000Y-102602000D01*
G75*
G02*
X54930000Y-102737000I0J-135000D01*
G01*
X54930000Y-103007000D01*
G75*
G02*
X54795000Y-103142000I-135000J0D01*
G01*
X54425000Y-103142000D01*
G75*
G02*
X54290000Y-103007000I0J135000D01*
G01*
X54290000Y-102737000D01*
G75*
G02*
X54425000Y-102602000I135000J0D01*
G01*
G37*
%TD.AperFunction*%
%TO.P,R26,1*%
%TO.N,Net-(R26-Pad1)*%
%TA.AperFunction,SMDPad,CuDef*%
G36*
G01*
X54425000Y-101582000D02*
X54795000Y-101582000D01*
G75*
G02*
X54930000Y-101717000I0J-135000D01*
G01*
X54930000Y-101987000D01*
G75*
G02*
X54795000Y-102122000I-135000J0D01*
G01*
X54425000Y-102122000D01*
G75*
G02*
X54290000Y-101987000I0J135000D01*
G01*
X54290000Y-101717000D01*
G75*
G02*
X54425000Y-101582000I135000J0D01*
G01*
G37*
%TD.AperFunction*%
%TD*%
%TO.P,R25,2*%
%TO.N,Net-(C46-Pad2)*%
%TA.AperFunction,SMDPad,CuDef*%
G36*
G01*
X56319000Y-80784000D02*
X55949000Y-80784000D01*
G75*
G02*
X55814000Y-80649000I0J135000D01*
G01*
X55814000Y-80379000D01*
G75*
G02*
X55949000Y-80244000I135000J0D01*
G01*
X56319000Y-80244000D01*
G75*
G02*
X56454000Y-80379000I0J-135000D01*
G01*
X56454000Y-80649000D01*
G75*
G02*
X56319000Y-80784000I-135000J0D01*
G01*
G37*
%TD.AperFunction*%
%TO.P,R25,1*%
%TO.N,Net-(R25-Pad1)*%
%TA.AperFunction,SMDPad,CuDef*%
G36*
G01*
X56319000Y-81804000D02*
X55949000Y-81804000D01*
G75*
G02*
X55814000Y-81669000I0J135000D01*
G01*
X55814000Y-81399000D01*
G75*
G02*
X55949000Y-81264000I135000J0D01*
G01*
X56319000Y-81264000D01*
G75*
G02*
X56454000Y-81399000I0J-135000D01*
G01*
X56454000Y-81669000D01*
G75*
G02*
X56319000Y-81804000I-135000J0D01*
G01*
G37*
%TD.AperFunction*%
%TD*%
%TO.P,C47,2*%
%TO.N,Net-(C47-Pad2)*%
%TA.AperFunction,SMDPad,CuDef*%
G36*
G01*
X53452000Y-102562000D02*
X53792000Y-102562000D01*
G75*
G02*
X53932000Y-102702000I0J-140000D01*
G01*
X53932000Y-102982000D01*
G75*
G02*
X53792000Y-103122000I-140000J0D01*
G01*
X53452000Y-103122000D01*
G75*
G02*
X53312000Y-102982000I0J140000D01*
G01*
X53312000Y-102702000D01*
G75*
G02*
X53452000Y-102562000I140000J0D01*
G01*
G37*
%TD.AperFunction*%
%TO.P,C47,1*%
%TO.N,GND*%
%TA.AperFunction,SMDPad,CuDef*%
G36*
G01*
X53452000Y-101602000D02*
X53792000Y-101602000D01*
G75*
G02*
X53932000Y-101742000I0J-140000D01*
G01*
X53932000Y-102022000D01*
G75*
G02*
X53792000Y-102162000I-140000J0D01*
G01*
X53452000Y-102162000D01*
G75*
G02*
X53312000Y-102022000I0J140000D01*
G01*
X53312000Y-101742000D01*
G75*
G02*
X53452000Y-101602000I140000J0D01*
G01*
G37*
%TD.AperFunction*%
%TD*%
%TO.P,C46,2*%
%TO.N,Net-(C46-Pad2)*%
%TA.AperFunction,SMDPad,CuDef*%
G36*
G01*
X55288000Y-80854000D02*
X54948000Y-80854000D01*
G75*
G02*
X54808000Y-80714000I0J140000D01*
G01*
X54808000Y-80434000D01*
G75*
G02*
X54948000Y-80294000I140000J0D01*
G01*
X55288000Y-80294000D01*
G75*
G02*
X55428000Y-80434000I0J-140000D01*
G01*
X55428000Y-80714000D01*
G75*
G02*
X55288000Y-80854000I-140000J0D01*
G01*
G37*
%TD.AperFunction*%
%TO.P,C46,1*%
%TO.N,GND*%
%TA.AperFunction,SMDPad,CuDef*%
G36*
G01*
X55288000Y-81814000D02*
X54948000Y-81814000D01*
G75*
G02*
X54808000Y-81674000I0J140000D01*
G01*
X54808000Y-81394000D01*
G75*
G02*
X54948000Y-81254000I140000J0D01*
G01*
X55288000Y-81254000D01*
G75*
G02*
X55428000Y-81394000I0J-140000D01*
G01*
X55428000Y-81674000D01*
G75*
G02*
X55288000Y-81814000I-140000J0D01*
G01*
G37*
%TD.AperFunction*%
%TD*%
%TO.P,C45,2*%
%TO.N,GND*%
%TA.AperFunction,SMDPad,CuDef*%
G36*
G01*
X57232000Y-95842000D02*
X57232000Y-96182000D01*
G75*
G02*
X57092000Y-96322000I-140000J0D01*
G01*
X56812000Y-96322000D01*
G75*
G02*
X56672000Y-96182000I0J140000D01*
G01*
X56672000Y-95842000D01*
G75*
G02*
X56812000Y-95702000I140000J0D01*
G01*
X57092000Y-95702000D01*
G75*
G02*
X57232000Y-95842000I0J-140000D01*
G01*
G37*
%TD.AperFunction*%
%TO.P,C45,1*%
%TO.N,+3V3*%
%TA.AperFunction,SMDPad,CuDef*%
G36*
G01*
X58192000Y-95842000D02*
X58192000Y-96182000D01*
G75*
G02*
X58052000Y-96322000I-140000J0D01*
G01*
X57772000Y-96322000D01*
G75*
G02*
X57632000Y-96182000I0J140000D01*
G01*
X57632000Y-95842000D01*
G75*
G02*
X57772000Y-95702000I140000J0D01*
G01*
X58052000Y-95702000D01*
G75*
G02*
X58192000Y-95842000I0J-140000D01*
G01*
G37*
%TD.AperFunction*%
%TD*%
%TO.P,C38,2*%
%TO.N,Net-(C38-Pad2)*%
%TA.AperFunction,SMDPad,CuDef*%
G36*
G01*
X138275000Y-107155000D02*
X138275000Y-107495000D01*
G75*
G02*
X138135000Y-107635000I-140000J0D01*
G01*
X137855000Y-107635000D01*
G75*
G02*
X137715000Y-107495000I0J140000D01*
G01*
X137715000Y-107155000D01*
G75*
G02*
X137855000Y-107015000I140000J0D01*
G01*
X138135000Y-107015000D01*
G75*
G02*
X138275000Y-107155000I0J-140000D01*
G01*
G37*
%TD.AperFunction*%
%TO.P,C38,1*%
%TO.N,GND*%
%TA.AperFunction,SMDPad,CuDef*%
G36*
G01*
X139235000Y-107155000D02*
X139235000Y-107495000D01*
G75*
G02*
X139095000Y-107635000I-140000J0D01*
G01*
X138815000Y-107635000D01*
G75*
G02*
X138675000Y-107495000I0J140000D01*
G01*
X138675000Y-107155000D01*
G75*
G02*
X138815000Y-107015000I140000J0D01*
G01*
X139095000Y-107015000D01*
G75*
G02*
X139235000Y-107155000I0J-140000D01*
G01*
G37*
%TD.AperFunction*%
%TD*%
%TO.P,U9,5*%
%TO.N,+3V3*%
X123075000Y-106000000D03*
%TO.P,U9,6*%
%TO.N,TIM4_CH2*%
X123075000Y-105050000D03*
%TO.P,U9,4*%
%TO.N,TIM4_CH1*%
X123075000Y-106950000D03*
%TO.P,U9,3*%
%TO.N,Net-(R24-Pad1)*%
X120875000Y-106950000D03*
%TO.P,U9,2*%
%TO.N,GND*%
X120875000Y-106000000D03*
%TO.P,U9,1*%
%TO.N,Net-(R22-Pad1)*%
X120875000Y-105050000D03*
%TD*%
%TO.P,U8,5*%
%TO.N,+3V3*%
X101380000Y-106100000D03*
%TO.P,U8,6*%
%TO.N,TIM2_CH2*%
X101380000Y-105150000D03*
%TO.P,U8,4*%
%TO.N,TIM2_CH1*%
X101380000Y-107050000D03*
%TO.P,U8,3*%
%TO.N,Net-(R23-Pad1)*%
X99180000Y-107050000D03*
%TO.P,U8,2*%
%TO.N,GND*%
X99180000Y-106100000D03*
%TO.P,U8,1*%
%TO.N,Net-(R21-Pad1)*%
X99180000Y-105150000D03*
%TD*%
%TO.P,R24,2*%
%TO.N,Net-(C44-Pad2)*%
%TA.AperFunction,SMDPad,CuDef*%
G36*
G01*
X116810000Y-108400000D02*
X116810000Y-108770000D01*
G75*
G02*
X116675000Y-108905000I-135000J0D01*
G01*
X116405000Y-108905000D01*
G75*
G02*
X116270000Y-108770000I0J135000D01*
G01*
X116270000Y-108400000D01*
G75*
G02*
X116405000Y-108265000I135000J0D01*
G01*
X116675000Y-108265000D01*
G75*
G02*
X116810000Y-108400000I0J-135000D01*
G01*
G37*
%TD.AperFunction*%
%TO.P,R24,1*%
%TO.N,Net-(R24-Pad1)*%
%TA.AperFunction,SMDPad,CuDef*%
G36*
G01*
X117830000Y-108400000D02*
X117830000Y-108770000D01*
G75*
G02*
X117695000Y-108905000I-135000J0D01*
G01*
X117425000Y-108905000D01*
G75*
G02*
X117290000Y-108770000I0J135000D01*
G01*
X117290000Y-108400000D01*
G75*
G02*
X117425000Y-108265000I135000J0D01*
G01*
X117695000Y-108265000D01*
G75*
G02*
X117830000Y-108400000I0J-135000D01*
G01*
G37*
%TD.AperFunction*%
%TD*%
%TO.P,R23,2*%
%TO.N,Net-(C43-Pad2)*%
%TA.AperFunction,SMDPad,CuDef*%
G36*
G01*
X95350000Y-108345000D02*
X95350000Y-108715000D01*
G75*
G02*
X95215000Y-108850000I-135000J0D01*
G01*
X94945000Y-108850000D01*
G75*
G02*
X94810000Y-108715000I0J135000D01*
G01*
X94810000Y-108345000D01*
G75*
G02*
X94945000Y-108210000I135000J0D01*
G01*
X95215000Y-108210000D01*
G75*
G02*
X95350000Y-108345000I0J-135000D01*
G01*
G37*
%TD.AperFunction*%
%TO.P,R23,1*%
%TO.N,Net-(R23-Pad1)*%
%TA.AperFunction,SMDPad,CuDef*%
G36*
G01*
X96370000Y-108345000D02*
X96370000Y-108715000D01*
G75*
G02*
X96235000Y-108850000I-135000J0D01*
G01*
X95965000Y-108850000D01*
G75*
G02*
X95830000Y-108715000I0J135000D01*
G01*
X95830000Y-108345000D01*
G75*
G02*
X95965000Y-108210000I135000J0D01*
G01*
X96235000Y-108210000D01*
G75*
G02*
X96370000Y-108345000I0J-135000D01*
G01*
G37*
%TD.AperFunction*%
%TD*%
%TO.P,R22,2*%
%TO.N,Net-(C42-Pad2)*%
%TA.AperFunction,SMDPad,CuDef*%
G36*
G01*
X108890000Y-103510000D02*
X108890000Y-103880000D01*
G75*
G02*
X108755000Y-104015000I-135000J0D01*
G01*
X108485000Y-104015000D01*
G75*
G02*
X108350000Y-103880000I0J135000D01*
G01*
X108350000Y-103510000D01*
G75*
G02*
X108485000Y-103375000I135000J0D01*
G01*
X108755000Y-103375000D01*
G75*
G02*
X108890000Y-103510000I0J-135000D01*
G01*
G37*
%TD.AperFunction*%
%TO.P,R22,1*%
%TO.N,Net-(R22-Pad1)*%
%TA.AperFunction,SMDPad,CuDef*%
G36*
G01*
X109910000Y-103510000D02*
X109910000Y-103880000D01*
G75*
G02*
X109775000Y-104015000I-135000J0D01*
G01*
X109505000Y-104015000D01*
G75*
G02*
X109370000Y-103880000I0J135000D01*
G01*
X109370000Y-103510000D01*
G75*
G02*
X109505000Y-103375000I135000J0D01*
G01*
X109775000Y-103375000D01*
G75*
G02*
X109910000Y-103510000I0J-135000D01*
G01*
G37*
%TD.AperFunction*%
%TD*%
%TO.P,R21,2*%
%TO.N,Net-(C41-Pad2)*%
%TA.AperFunction,SMDPad,CuDef*%
G36*
G01*
X87320000Y-103625000D02*
X87320000Y-103995000D01*
G75*
G02*
X87185000Y-104130000I-135000J0D01*
G01*
X86915000Y-104130000D01*
G75*
G02*
X86780000Y-103995000I0J135000D01*
G01*
X86780000Y-103625000D01*
G75*
G02*
X86915000Y-103490000I135000J0D01*
G01*
X87185000Y-103490000D01*
G75*
G02*
X87320000Y-103625000I0J-135000D01*
G01*
G37*
%TD.AperFunction*%
%TO.P,R21,1*%
%TO.N,Net-(R21-Pad1)*%
%TA.AperFunction,SMDPad,CuDef*%
G36*
G01*
X88340000Y-103625000D02*
X88340000Y-103995000D01*
G75*
G02*
X88205000Y-104130000I-135000J0D01*
G01*
X87935000Y-104130000D01*
G75*
G02*
X87800000Y-103995000I0J135000D01*
G01*
X87800000Y-103625000D01*
G75*
G02*
X87935000Y-103490000I135000J0D01*
G01*
X88205000Y-103490000D01*
G75*
G02*
X88340000Y-103625000I0J-135000D01*
G01*
G37*
%TD.AperFunction*%
%TD*%
%TO.P,C44,2*%
%TO.N,Net-(C44-Pad2)*%
%TA.AperFunction,SMDPad,CuDef*%
G36*
G01*
X116850000Y-107365000D02*
X116850000Y-107705000D01*
G75*
G02*
X116710000Y-107845000I-140000J0D01*
G01*
X116430000Y-107845000D01*
G75*
G02*
X116290000Y-107705000I0J140000D01*
G01*
X116290000Y-107365000D01*
G75*
G02*
X116430000Y-107225000I140000J0D01*
G01*
X116710000Y-107225000D01*
G75*
G02*
X116850000Y-107365000I0J-140000D01*
G01*
G37*
%TD.AperFunction*%
%TO.P,C44,1*%
%TO.N,GND*%
%TA.AperFunction,SMDPad,CuDef*%
G36*
G01*
X117810000Y-107365000D02*
X117810000Y-107705000D01*
G75*
G02*
X117670000Y-107845000I-140000J0D01*
G01*
X117390000Y-107845000D01*
G75*
G02*
X117250000Y-107705000I0J140000D01*
G01*
X117250000Y-107365000D01*
G75*
G02*
X117390000Y-107225000I140000J0D01*
G01*
X117670000Y-107225000D01*
G75*
G02*
X117810000Y-107365000I0J-140000D01*
G01*
G37*
%TD.AperFunction*%
%TD*%
%TO.P,C43,2*%
%TO.N,Net-(C43-Pad2)*%
%TA.AperFunction,SMDPad,CuDef*%
G36*
G01*
X95390000Y-107360000D02*
X95390000Y-107700000D01*
G75*
G02*
X95250000Y-107840000I-140000J0D01*
G01*
X94970000Y-107840000D01*
G75*
G02*
X94830000Y-107700000I0J140000D01*
G01*
X94830000Y-107360000D01*
G75*
G02*
X94970000Y-107220000I140000J0D01*
G01*
X95250000Y-107220000D01*
G75*
G02*
X95390000Y-107360000I0J-140000D01*
G01*
G37*
%TD.AperFunction*%
%TO.P,C43,1*%
%TO.N,GND*%
%TA.AperFunction,SMDPad,CuDef*%
G36*
G01*
X96350000Y-107360000D02*
X96350000Y-107700000D01*
G75*
G02*
X96210000Y-107840000I-140000J0D01*
G01*
X95930000Y-107840000D01*
G75*
G02*
X95790000Y-107700000I0J140000D01*
G01*
X95790000Y-107360000D01*
G75*
G02*
X95930000Y-107220000I140000J0D01*
G01*
X96210000Y-107220000D01*
G75*
G02*
X96350000Y-107360000I0J-140000D01*
G01*
G37*
%TD.AperFunction*%
%TD*%
%TO.P,C42,2*%
%TO.N,Net-(C42-Pad2)*%
%TA.AperFunction,SMDPad,CuDef*%
G36*
G01*
X108280000Y-105060000D02*
X108280000Y-104720000D01*
G75*
G02*
X108420000Y-104580000I140000J0D01*
G01*
X108700000Y-104580000D01*
G75*
G02*
X108840000Y-104720000I0J-140000D01*
G01*
X108840000Y-105060000D01*
G75*
G02*
X108700000Y-105200000I-140000J0D01*
G01*
X108420000Y-105200000D01*
G75*
G02*
X108280000Y-105060000I0J140000D01*
G01*
G37*
%TD.AperFunction*%
%TO.P,C42,1*%
%TO.N,GND*%
%TA.AperFunction,SMDPad,CuDef*%
G36*
G01*
X107320000Y-105060000D02*
X107320000Y-104720000D01*
G75*
G02*
X107460000Y-104580000I140000J0D01*
G01*
X107740000Y-104580000D01*
G75*
G02*
X107880000Y-104720000I0J-140000D01*
G01*
X107880000Y-105060000D01*
G75*
G02*
X107740000Y-105200000I-140000J0D01*
G01*
X107460000Y-105200000D01*
G75*
G02*
X107320000Y-105060000I0J140000D01*
G01*
G37*
%TD.AperFunction*%
%TD*%
%TO.P,C41,1*%
%TO.N,GND*%
%TA.AperFunction,SMDPad,CuDef*%
G36*
G01*
X85870000Y-105290000D02*
X85870000Y-104950000D01*
G75*
G02*
X86010000Y-104810000I140000J0D01*
G01*
X86290000Y-104810000D01*
G75*
G02*
X86430000Y-104950000I0J-140000D01*
G01*
X86430000Y-105290000D01*
G75*
G02*
X86290000Y-105430000I-140000J0D01*
G01*
X86010000Y-105430000D01*
G75*
G02*
X85870000Y-105290000I0J140000D01*
G01*
G37*
%TD.AperFunction*%
%TO.P,C41,2*%
%TO.N,Net-(C41-Pad2)*%
%TA.AperFunction,SMDPad,CuDef*%
G36*
G01*
X86830000Y-105290000D02*
X86830000Y-104950000D01*
G75*
G02*
X86970000Y-104810000I140000J0D01*
G01*
X87250000Y-104810000D01*
G75*
G02*
X87390000Y-104950000I0J-140000D01*
G01*
X87390000Y-105290000D01*
G75*
G02*
X87250000Y-105430000I-140000J0D01*
G01*
X86970000Y-105430000D01*
G75*
G02*
X86830000Y-105290000I0J140000D01*
G01*
G37*
%TD.AperFunction*%
%TD*%
%TO.P,C40,2*%
%TO.N,GND*%
%TA.AperFunction,SMDPad,CuDef*%
G36*
G01*
X123730000Y-103530000D02*
X123730000Y-103190000D01*
G75*
G02*
X123870000Y-103050000I140000J0D01*
G01*
X124150000Y-103050000D01*
G75*
G02*
X124290000Y-103190000I0J-140000D01*
G01*
X124290000Y-103530000D01*
G75*
G02*
X124150000Y-103670000I-140000J0D01*
G01*
X123870000Y-103670000D01*
G75*
G02*
X123730000Y-103530000I0J140000D01*
G01*
G37*
%TD.AperFunction*%
%TO.P,C40,1*%
%TO.N,+3V3*%
%TA.AperFunction,SMDPad,CuDef*%
G36*
G01*
X122770000Y-103530000D02*
X122770000Y-103190000D01*
G75*
G02*
X122910000Y-103050000I140000J0D01*
G01*
X123190000Y-103050000D01*
G75*
G02*
X123330000Y-103190000I0J-140000D01*
G01*
X123330000Y-103530000D01*
G75*
G02*
X123190000Y-103670000I-140000J0D01*
G01*
X122910000Y-103670000D01*
G75*
G02*
X122770000Y-103530000I0J140000D01*
G01*
G37*
%TD.AperFunction*%
%TD*%
%TO.P,C39,2*%
%TO.N,GND*%
%TA.AperFunction,SMDPad,CuDef*%
G36*
G01*
X99490000Y-103370000D02*
X99490000Y-103710000D01*
G75*
G02*
X99350000Y-103850000I-140000J0D01*
G01*
X99070000Y-103850000D01*
G75*
G02*
X98930000Y-103710000I0J140000D01*
G01*
X98930000Y-103370000D01*
G75*
G02*
X99070000Y-103230000I140000J0D01*
G01*
X99350000Y-103230000D01*
G75*
G02*
X99490000Y-103370000I0J-140000D01*
G01*
G37*
%TD.AperFunction*%
%TO.P,C39,1*%
%TO.N,+3V3*%
%TA.AperFunction,SMDPad,CuDef*%
G36*
G01*
X100450000Y-103370000D02*
X100450000Y-103710000D01*
G75*
G02*
X100310000Y-103850000I-140000J0D01*
G01*
X100030000Y-103850000D01*
G75*
G02*
X99890000Y-103710000I0J140000D01*
G01*
X99890000Y-103370000D01*
G75*
G02*
X100030000Y-103230000I140000J0D01*
G01*
X100310000Y-103230000D01*
G75*
G02*
X100450000Y-103370000I0J-140000D01*
G01*
G37*
%TD.AperFunction*%
%TD*%
%TO.P,U6,5*%
%TO.N,+3V3*%
X145150000Y-106050000D03*
%TO.P,U6,6*%
%TO.N,TIM1_CH1*%
X145150000Y-105100000D03*
%TO.P,U6,4*%
%TO.N,TIM1_CH2*%
X145150000Y-107000000D03*
%TO.P,U6,3*%
%TO.N,Net-(R20-Pad1)*%
X142950000Y-107000000D03*
%TO.P,U6,2*%
%TO.N,GND*%
X142950000Y-106050000D03*
%TO.P,U6,1*%
%TO.N,Net-(R19-Pad1)*%
X142950000Y-105100000D03*
%TD*%
%TO.P,R20,2*%
%TO.N,Net-(C38-Pad2)*%
%TA.AperFunction,SMDPad,CuDef*%
G36*
G01*
X138235000Y-108165000D02*
X138235000Y-108535000D01*
G75*
G02*
X138100000Y-108670000I-135000J0D01*
G01*
X137830000Y-108670000D01*
G75*
G02*
X137695000Y-108535000I0J135000D01*
G01*
X137695000Y-108165000D01*
G75*
G02*
X137830000Y-108030000I135000J0D01*
G01*
X138100000Y-108030000D01*
G75*
G02*
X138235000Y-108165000I0J-135000D01*
G01*
G37*
%TD.AperFunction*%
%TO.P,R20,1*%
%TO.N,Net-(R20-Pad1)*%
%TA.AperFunction,SMDPad,CuDef*%
G36*
G01*
X139255000Y-108165000D02*
X139255000Y-108535000D01*
G75*
G02*
X139120000Y-108670000I-135000J0D01*
G01*
X138850000Y-108670000D01*
G75*
G02*
X138715000Y-108535000I0J135000D01*
G01*
X138715000Y-108165000D01*
G75*
G02*
X138850000Y-108030000I135000J0D01*
G01*
X139120000Y-108030000D01*
G75*
G02*
X139255000Y-108165000I0J-135000D01*
G01*
G37*
%TD.AperFunction*%
%TD*%
%TO.P,R19,2*%
%TO.N,Net-(C37-Pad2)*%
%TA.AperFunction,SMDPad,CuDef*%
G36*
G01*
X130800000Y-103690000D02*
X130800000Y-104060000D01*
G75*
G02*
X130665000Y-104195000I-135000J0D01*
G01*
X130395000Y-104195000D01*
G75*
G02*
X130260000Y-104060000I0J135000D01*
G01*
X130260000Y-103690000D01*
G75*
G02*
X130395000Y-103555000I135000J0D01*
G01*
X130665000Y-103555000D01*
G75*
G02*
X130800000Y-103690000I0J-135000D01*
G01*
G37*
%TD.AperFunction*%
%TO.P,R19,1*%
%TO.N,Net-(R19-Pad1)*%
%TA.AperFunction,SMDPad,CuDef*%
G36*
G01*
X131820000Y-103690000D02*
X131820000Y-104060000D01*
G75*
G02*
X131685000Y-104195000I-135000J0D01*
G01*
X131415000Y-104195000D01*
G75*
G02*
X131280000Y-104060000I0J135000D01*
G01*
X131280000Y-103690000D01*
G75*
G02*
X131415000Y-103555000I135000J0D01*
G01*
X131685000Y-103555000D01*
G75*
G02*
X131820000Y-103690000I0J-135000D01*
G01*
G37*
%TD.AperFunction*%
%TD*%
%TO.P,C37,2*%
%TO.N,Net-(C37-Pad2)*%
%TA.AperFunction,SMDPad,CuDef*%
G36*
G01*
X130170000Y-105130000D02*
X130170000Y-104790000D01*
G75*
G02*
X130310000Y-104650000I140000J0D01*
G01*
X130590000Y-104650000D01*
G75*
G02*
X130730000Y-104790000I0J-140000D01*
G01*
X130730000Y-105130000D01*
G75*
G02*
X130590000Y-105270000I-140000J0D01*
G01*
X130310000Y-105270000D01*
G75*
G02*
X130170000Y-105130000I0J140000D01*
G01*
G37*
%TD.AperFunction*%
%TO.P,C37,1*%
%TO.N,GND*%
%TA.AperFunction,SMDPad,CuDef*%
G36*
G01*
X129210000Y-105130000D02*
X129210000Y-104790000D01*
G75*
G02*
X129350000Y-104650000I140000J0D01*
G01*
X129630000Y-104650000D01*
G75*
G02*
X129770000Y-104790000I0J-140000D01*
G01*
X129770000Y-105130000D01*
G75*
G02*
X129630000Y-105270000I-140000J0D01*
G01*
X129350000Y-105270000D01*
G75*
G02*
X129210000Y-105130000I0J140000D01*
G01*
G37*
%TD.AperFunction*%
%TD*%
%TO.P,C36,2*%
%TO.N,GND*%
%TA.AperFunction,SMDPad,CuDef*%
G36*
G01*
X142875000Y-103505000D02*
X142875000Y-103845000D01*
G75*
G02*
X142735000Y-103985000I-140000J0D01*
G01*
X142455000Y-103985000D01*
G75*
G02*
X142315000Y-103845000I0J140000D01*
G01*
X142315000Y-103505000D01*
G75*
G02*
X142455000Y-103365000I140000J0D01*
G01*
X142735000Y-103365000D01*
G75*
G02*
X142875000Y-103505000I0J-140000D01*
G01*
G37*
%TD.AperFunction*%
%TO.P,C36,1*%
%TO.N,+3V3*%
%TA.AperFunction,SMDPad,CuDef*%
G36*
G01*
X143835000Y-103505000D02*
X143835000Y-103845000D01*
G75*
G02*
X143695000Y-103985000I-140000J0D01*
G01*
X143415000Y-103985000D01*
G75*
G02*
X143275000Y-103845000I0J140000D01*
G01*
X143275000Y-103505000D01*
G75*
G02*
X143415000Y-103365000I140000J0D01*
G01*
X143695000Y-103365000D01*
G75*
G02*
X143835000Y-103505000I0J-140000D01*
G01*
G37*
%TD.AperFunction*%
%TD*%
%TO.P,U4,5*%
%TO.N,+3V3*%
X79910000Y-106000000D03*
%TO.P,U4,6*%
%TO.N,TIM3_CH2*%
X79910000Y-105050000D03*
%TO.P,U4,4*%
%TO.N,TIM3_CH1*%
X79910000Y-106950000D03*
%TO.P,U4,3*%
%TO.N,Net-(R18-Pad1)*%
X77710000Y-106950000D03*
%TO.P,U4,2*%
%TO.N,GND*%
X77710000Y-106000000D03*
%TO.P,U4,1*%
%TO.N,Net-(R17-Pad1)*%
X77710000Y-105050000D03*
%TD*%
%TO.P,R18,2*%
%TO.N,Net-(C35-Pad2)*%
%TA.AperFunction,SMDPad,CuDef*%
G36*
G01*
X73600000Y-108415000D02*
X73600000Y-108785000D01*
G75*
G02*
X73465000Y-108920000I-135000J0D01*
G01*
X73195000Y-108920000D01*
G75*
G02*
X73060000Y-108785000I0J135000D01*
G01*
X73060000Y-108415000D01*
G75*
G02*
X73195000Y-108280000I135000J0D01*
G01*
X73465000Y-108280000D01*
G75*
G02*
X73600000Y-108415000I0J-135000D01*
G01*
G37*
%TD.AperFunction*%
%TO.P,R18,1*%
%TO.N,Net-(R18-Pad1)*%
%TA.AperFunction,SMDPad,CuDef*%
G36*
G01*
X74620000Y-108415000D02*
X74620000Y-108785000D01*
G75*
G02*
X74485000Y-108920000I-135000J0D01*
G01*
X74215000Y-108920000D01*
G75*
G02*
X74080000Y-108785000I0J135000D01*
G01*
X74080000Y-108415000D01*
G75*
G02*
X74215000Y-108280000I135000J0D01*
G01*
X74485000Y-108280000D01*
G75*
G02*
X74620000Y-108415000I0J-135000D01*
G01*
G37*
%TD.AperFunction*%
%TD*%
%TO.P,R17,2*%
%TO.N,Net-(C34-Pad2)*%
%TA.AperFunction,SMDPad,CuDef*%
G36*
G01*
X65772000Y-103359000D02*
X65772000Y-103729000D01*
G75*
G02*
X65637000Y-103864000I-135000J0D01*
G01*
X65367000Y-103864000D01*
G75*
G02*
X65232000Y-103729000I0J135000D01*
G01*
X65232000Y-103359000D01*
G75*
G02*
X65367000Y-103224000I135000J0D01*
G01*
X65637000Y-103224000D01*
G75*
G02*
X65772000Y-103359000I0J-135000D01*
G01*
G37*
%TD.AperFunction*%
%TO.P,R17,1*%
%TO.N,Net-(R17-Pad1)*%
%TA.AperFunction,SMDPad,CuDef*%
G36*
G01*
X66792000Y-103359000D02*
X66792000Y-103729000D01*
G75*
G02*
X66657000Y-103864000I-135000J0D01*
G01*
X66387000Y-103864000D01*
G75*
G02*
X66252000Y-103729000I0J135000D01*
G01*
X66252000Y-103359000D01*
G75*
G02*
X66387000Y-103224000I135000J0D01*
G01*
X66657000Y-103224000D01*
G75*
G02*
X66792000Y-103359000I0J-135000D01*
G01*
G37*
%TD.AperFunction*%
%TD*%
%TO.P,C35,2*%
%TO.N,Net-(C35-Pad2)*%
%TA.AperFunction,SMDPad,CuDef*%
G36*
G01*
X73630000Y-107430000D02*
X73630000Y-107770000D01*
G75*
G02*
X73490000Y-107910000I-140000J0D01*
G01*
X73210000Y-107910000D01*
G75*
G02*
X73070000Y-107770000I0J140000D01*
G01*
X73070000Y-107430000D01*
G75*
G02*
X73210000Y-107290000I140000J0D01*
G01*
X73490000Y-107290000D01*
G75*
G02*
X73630000Y-107430000I0J-140000D01*
G01*
G37*
%TD.AperFunction*%
%TO.P,C35,1*%
%TO.N,GND*%
%TA.AperFunction,SMDPad,CuDef*%
G36*
G01*
X74590000Y-107430000D02*
X74590000Y-107770000D01*
G75*
G02*
X74450000Y-107910000I-140000J0D01*
G01*
X74170000Y-107910000D01*
G75*
G02*
X74030000Y-107770000I0J140000D01*
G01*
X74030000Y-107430000D01*
G75*
G02*
X74170000Y-107290000I140000J0D01*
G01*
X74450000Y-107290000D01*
G75*
G02*
X74590000Y-107430000I0J-140000D01*
G01*
G37*
%TD.AperFunction*%
%TD*%
%TO.P,C34,2*%
%TO.N,Net-(C34-Pad2)*%
%TA.AperFunction,SMDPad,CuDef*%
G36*
G01*
X65190000Y-104840000D02*
X65190000Y-104500000D01*
G75*
G02*
X65330000Y-104360000I140000J0D01*
G01*
X65610000Y-104360000D01*
G75*
G02*
X65750000Y-104500000I0J-140000D01*
G01*
X65750000Y-104840000D01*
G75*
G02*
X65610000Y-104980000I-140000J0D01*
G01*
X65330000Y-104980000D01*
G75*
G02*
X65190000Y-104840000I0J140000D01*
G01*
G37*
%TD.AperFunction*%
%TO.P,C34,1*%
%TO.N,GND*%
%TA.AperFunction,SMDPad,CuDef*%
G36*
G01*
X64230000Y-104840000D02*
X64230000Y-104500000D01*
G75*
G02*
X64370000Y-104360000I140000J0D01*
G01*
X64650000Y-104360000D01*
G75*
G02*
X64790000Y-104500000I0J-140000D01*
G01*
X64790000Y-104840000D01*
G75*
G02*
X64650000Y-104980000I-140000J0D01*
G01*
X64370000Y-104980000D01*
G75*
G02*
X64230000Y-104840000I0J140000D01*
G01*
G37*
%TD.AperFunction*%
%TD*%
%TO.P,C28,2*%
%TO.N,GND*%
%TA.AperFunction,SMDPad,CuDef*%
G36*
G01*
X77630000Y-103260000D02*
X77630000Y-103600000D01*
G75*
G02*
X77490000Y-103740000I-140000J0D01*
G01*
X77210000Y-103740000D01*
G75*
G02*
X77070000Y-103600000I0J140000D01*
G01*
X77070000Y-103260000D01*
G75*
G02*
X77210000Y-103120000I140000J0D01*
G01*
X77490000Y-103120000D01*
G75*
G02*
X77630000Y-103260000I0J-140000D01*
G01*
G37*
%TD.AperFunction*%
%TO.P,C28,1*%
%TO.N,+3V3*%
%TA.AperFunction,SMDPad,CuDef*%
G36*
G01*
X78590000Y-103260000D02*
X78590000Y-103600000D01*
G75*
G02*
X78450000Y-103740000I-140000J0D01*
G01*
X78170000Y-103740000D01*
G75*
G02*
X78030000Y-103600000I0J140000D01*
G01*
X78030000Y-103260000D01*
G75*
G02*
X78170000Y-103120000I140000J0D01*
G01*
X78450000Y-103120000D01*
G75*
G02*
X78590000Y-103260000I0J-140000D01*
G01*
G37*
%TD.AperFunction*%
%TD*%
%TO.P,C23,1*%
%TO.N,Net-(C23-Pad1)*%
%TA.AperFunction,SMDPad,CuDef*%
G36*
G01*
X174650000Y-81580000D02*
X174650000Y-81920000D01*
G75*
G02*
X174510000Y-82060000I-140000J0D01*
G01*
X174230000Y-82060000D01*
G75*
G02*
X174090000Y-81920000I0J140000D01*
G01*
X174090000Y-81580000D01*
G75*
G02*
X174230000Y-81440000I140000J0D01*
G01*
X174510000Y-81440000D01*
G75*
G02*
X174650000Y-81580000I0J-140000D01*
G01*
G37*
%TD.AperFunction*%
%TO.P,C23,2*%
%TO.N,GND*%
%TA.AperFunction,SMDPad,CuDef*%
G36*
G01*
X173690000Y-81580000D02*
X173690000Y-81920000D01*
G75*
G02*
X173550000Y-82060000I-140000J0D01*
G01*
X173270000Y-82060000D01*
G75*
G02*
X173130000Y-81920000I0J140000D01*
G01*
X173130000Y-81580000D01*
G75*
G02*
X173270000Y-81440000I140000J0D01*
G01*
X173550000Y-81440000D01*
G75*
G02*
X173690000Y-81580000I0J-140000D01*
G01*
G37*
%TD.AperFunction*%
%TD*%
%TO.P,R14,2*%
%TO.N,Net-(C20-Pad1)*%
%TA.AperFunction,SMDPad,CuDef*%
G36*
G01*
X82150000Y-82099998D02*
X82150000Y-83000002D01*
G75*
G02*
X81900002Y-83250000I-249998J0D01*
G01*
X81374998Y-83250000D01*
G75*
G02*
X81125000Y-83000002I0J249998D01*
G01*
X81125000Y-82099998D01*
G75*
G02*
X81374998Y-81850000I249998J0D01*
G01*
X81900002Y-81850000D01*
G75*
G02*
X82150000Y-82099998I0J-249998D01*
G01*
G37*
%TD.AperFunction*%
%TO.P,R14,1*%
%TO.N,MICBIAS*%
%TA.AperFunction,SMDPad,CuDef*%
G36*
G01*
X83975000Y-82099998D02*
X83975000Y-83000002D01*
G75*
G02*
X83725002Y-83250000I-249998J0D01*
G01*
X83199998Y-83250000D01*
G75*
G02*
X82950000Y-83000002I0J249998D01*
G01*
X82950000Y-82099998D01*
G75*
G02*
X83199998Y-81850000I249998J0D01*
G01*
X83725002Y-81850000D01*
G75*
G02*
X83975000Y-82099998I0J-249998D01*
G01*
G37*
%TD.AperFunction*%
%TD*%
D23*
%TO.P,D1,2*%
%TO.N,VCC*%
X194950000Y-109550000D03*
%TO.P,D1,1*%
%TO.N,+3V3*%
X191650000Y-109550000D03*
%TD*%
%TO.P,C20,2*%
%TO.N,MIC_+*%
%TA.AperFunction,SMDPad,CuDef*%
G36*
G01*
X82016000Y-87800000D02*
X82016000Y-87460000D01*
G75*
G02*
X82156000Y-87320000I140000J0D01*
G01*
X82436000Y-87320000D01*
G75*
G02*
X82576000Y-87460000I0J-140000D01*
G01*
X82576000Y-87800000D01*
G75*
G02*
X82436000Y-87940000I-140000J0D01*
G01*
X82156000Y-87940000D01*
G75*
G02*
X82016000Y-87800000I0J140000D01*
G01*
G37*
%TD.AperFunction*%
%TO.P,C20,1*%
%TO.N,Net-(C20-Pad1)*%
%TA.AperFunction,SMDPad,CuDef*%
G36*
G01*
X81056000Y-87800000D02*
X81056000Y-87460000D01*
G75*
G02*
X81196000Y-87320000I140000J0D01*
G01*
X81476000Y-87320000D01*
G75*
G02*
X81616000Y-87460000I0J-140000D01*
G01*
X81616000Y-87800000D01*
G75*
G02*
X81476000Y-87940000I-140000J0D01*
G01*
X81196000Y-87940000D01*
G75*
G02*
X81056000Y-87800000I0J140000D01*
G01*
G37*
%TD.AperFunction*%
%TD*%
D13*
%TO.P,SW5,2*%
%TO.N,Net-(C47-Pad2)*%
X51512000Y-103052000D03*
%TO.P,SW5,1*%
%TO.N,GND*%
X54262000Y-98922000D03*
%TD*%
%TO.P,U5,*%
%TO.N,*%
X188700000Y-81600000D03*
D24*
X191700000Y-78100000D03*
X151200000Y-78100000D03*
X191700000Y-98100000D03*
X151200000Y-98100000D03*
D25*
X190450000Y-78100000D03*
X190450000Y-98100000D03*
X152450000Y-98100000D03*
X152450000Y-78100000D03*
D13*
X154200000Y-108100000D03*
%TD*%
%TO.P,C33,2*%
%TO.N,Net-(C33-Pad2)*%
%TA.AperFunction,SMDPad,CuDef*%
G36*
G01*
X105990000Y-84070000D02*
X105990000Y-83730000D01*
G75*
G02*
X106130000Y-83590000I140000J0D01*
G01*
X106410000Y-83590000D01*
G75*
G02*
X106550000Y-83730000I0J-140000D01*
G01*
X106550000Y-84070000D01*
G75*
G02*
X106410000Y-84210000I-140000J0D01*
G01*
X106130000Y-84210000D01*
G75*
G02*
X105990000Y-84070000I0J140000D01*
G01*
G37*
%TD.AperFunction*%
%TO.P,C33,1*%
%TO.N,GND*%
%TA.AperFunction,SMDPad,CuDef*%
G36*
G01*
X105030000Y-84070000D02*
X105030000Y-83730000D01*
G75*
G02*
X105170000Y-83590000I140000J0D01*
G01*
X105450000Y-83590000D01*
G75*
G02*
X105590000Y-83730000I0J-140000D01*
G01*
X105590000Y-84070000D01*
G75*
G02*
X105450000Y-84210000I-140000J0D01*
G01*
X105170000Y-84210000D01*
G75*
G02*
X105030000Y-84070000I0J140000D01*
G01*
G37*
%TD.AperFunction*%
%TD*%
%TO.P,C31,2*%
%TO.N,GND*%
%TA.AperFunction,SMDPad,CuDef*%
G36*
G01*
X116150000Y-86350000D02*
X116490000Y-86350000D01*
G75*
G02*
X116630000Y-86490000I0J-140000D01*
G01*
X116630000Y-86770000D01*
G75*
G02*
X116490000Y-86910000I-140000J0D01*
G01*
X116150000Y-86910000D01*
G75*
G02*
X116010000Y-86770000I0J140000D01*
G01*
X116010000Y-86490000D01*
G75*
G02*
X116150000Y-86350000I140000J0D01*
G01*
G37*
%TD.AperFunction*%
%TO.P,C31,1*%
%TO.N,+3V3*%
%TA.AperFunction,SMDPad,CuDef*%
G36*
G01*
X116150000Y-85390000D02*
X116490000Y-85390000D01*
G75*
G02*
X116630000Y-85530000I0J-140000D01*
G01*
X116630000Y-85810000D01*
G75*
G02*
X116490000Y-85950000I-140000J0D01*
G01*
X116150000Y-85950000D01*
G75*
G02*
X116010000Y-85810000I0J140000D01*
G01*
X116010000Y-85530000D01*
G75*
G02*
X116150000Y-85390000I140000J0D01*
G01*
G37*
%TD.AperFunction*%
%TD*%
%TO.P,C30,2*%
%TO.N,GND*%
%TA.AperFunction,SMDPad,CuDef*%
G36*
G01*
X106560000Y-81600000D02*
X106220000Y-81600000D01*
G75*
G02*
X106080000Y-81460000I0J140000D01*
G01*
X106080000Y-81180000D01*
G75*
G02*
X106220000Y-81040000I140000J0D01*
G01*
X106560000Y-81040000D01*
G75*
G02*
X106700000Y-81180000I0J-140000D01*
G01*
X106700000Y-81460000D01*
G75*
G02*
X106560000Y-81600000I-140000J0D01*
G01*
G37*
%TD.AperFunction*%
%TO.P,C30,1*%
%TO.N,+3V3*%
%TA.AperFunction,SMDPad,CuDef*%
G36*
G01*
X106560000Y-82560000D02*
X106220000Y-82560000D01*
G75*
G02*
X106080000Y-82420000I0J140000D01*
G01*
X106080000Y-82140000D01*
G75*
G02*
X106220000Y-82000000I140000J0D01*
G01*
X106560000Y-82000000D01*
G75*
G02*
X106700000Y-82140000I0J-140000D01*
G01*
X106700000Y-82420000D01*
G75*
G02*
X106560000Y-82560000I-140000J0D01*
G01*
G37*
%TD.AperFunction*%
%TD*%
%TO.P,C29,2*%
%TO.N,GND*%
%TA.AperFunction,SMDPad,CuDef*%
G36*
G01*
X116500000Y-83940000D02*
X116160000Y-83940000D01*
G75*
G02*
X116020000Y-83800000I0J140000D01*
G01*
X116020000Y-83520000D01*
G75*
G02*
X116160000Y-83380000I140000J0D01*
G01*
X116500000Y-83380000D01*
G75*
G02*
X116640000Y-83520000I0J-140000D01*
G01*
X116640000Y-83800000D01*
G75*
G02*
X116500000Y-83940000I-140000J0D01*
G01*
G37*
%TD.AperFunction*%
%TO.P,C29,1*%
%TO.N,+3V3*%
%TA.AperFunction,SMDPad,CuDef*%
G36*
G01*
X116500000Y-84900000D02*
X116160000Y-84900000D01*
G75*
G02*
X116020000Y-84760000I0J140000D01*
G01*
X116020000Y-84480000D01*
G75*
G02*
X116160000Y-84340000I140000J0D01*
G01*
X116500000Y-84340000D01*
G75*
G02*
X116640000Y-84480000I0J-140000D01*
G01*
X116640000Y-84760000D01*
G75*
G02*
X116500000Y-84900000I-140000J0D01*
G01*
G37*
%TD.AperFunction*%
%TD*%
%TO.P,C22,2*%
%TO.N,GND*%
%TA.AperFunction,SMDPad,CuDef*%
G36*
G01*
X105776000Y-86440000D02*
X105776000Y-86780000D01*
G75*
G02*
X105636000Y-86920000I-140000J0D01*
G01*
X105356000Y-86920000D01*
G75*
G02*
X105216000Y-86780000I0J140000D01*
G01*
X105216000Y-86440000D01*
G75*
G02*
X105356000Y-86300000I140000J0D01*
G01*
X105636000Y-86300000D01*
G75*
G02*
X105776000Y-86440000I0J-140000D01*
G01*
G37*
%TD.AperFunction*%
%TO.P,C22,1*%
%TO.N,AVDD*%
%TA.AperFunction,SMDPad,CuDef*%
G36*
G01*
X106736000Y-86440000D02*
X106736000Y-86780000D01*
G75*
G02*
X106596000Y-86920000I-140000J0D01*
G01*
X106316000Y-86920000D01*
G75*
G02*
X106176000Y-86780000I0J140000D01*
G01*
X106176000Y-86440000D01*
G75*
G02*
X106316000Y-86300000I140000J0D01*
G01*
X106596000Y-86300000D01*
G75*
G02*
X106736000Y-86440000I0J-140000D01*
G01*
G37*
%TD.AperFunction*%
%TD*%
D12*
%TO.P,SW8,A*%
%TO.N,Net-(C35-Pad2)*%
X73665560Y-105435000D03*
D13*
%TO.P,SW8,C*%
%TO.N,GND*%
X71165560Y-105435000D03*
%TO.P,SW8,B*%
%TO.N,Net-(C34-Pad2)*%
X68665560Y-105435000D03*
D26*
%TO.P,SW8,MP*%
%TO.N,N/C*%
X76765560Y-97935000D03*
X65565560Y-97935000D03*
%TD*%
D11*
%TO.P,H4,1*%
%TO.N,Net-(H4-Pad1)*%
X37541726Y-107783274D03*
X36375000Y-107300000D03*
X35208274Y-107783274D03*
X34725000Y-108950000D03*
X35208274Y-110116726D03*
X36375000Y-110600000D03*
X37541726Y-110116726D03*
X38025000Y-108950000D03*
D10*
X36375000Y-108950000D03*
%TD*%
D11*
%TO.P,H3,1*%
%TO.N,Net-(H3-Pad1)*%
X216141726Y-75483274D03*
X214975000Y-75000000D03*
X213808274Y-75483274D03*
X213325000Y-76650000D03*
X213808274Y-77816726D03*
X214975000Y-78300000D03*
X216141726Y-77816726D03*
X216625000Y-76650000D03*
D10*
X214975000Y-76650000D03*
%TD*%
D11*
%TO.P,H2,1*%
%TO.N,Net-(H2-Pad1)*%
X37541726Y-75458274D03*
X36375000Y-74975000D03*
X35208274Y-75458274D03*
X34725000Y-76625000D03*
X35208274Y-77791726D03*
X36375000Y-78275000D03*
X37541726Y-77791726D03*
X38025000Y-76625000D03*
D10*
X36375000Y-76625000D03*
%TD*%
D11*
%TO.P,H1,1*%
%TO.N,Net-(H1-Pad1)*%
X216141726Y-107783274D03*
X214975000Y-107300000D03*
X213808274Y-107783274D03*
X213325000Y-108950000D03*
X213808274Y-110116726D03*
X214975000Y-110600000D03*
X216141726Y-110116726D03*
X216625000Y-108950000D03*
D10*
X214975000Y-108950000D03*
%TD*%
D19*
%TO.P,J2,*%
%TO.N,*%
X89581667Y-84970000D03*
X89581667Y-78870000D03*
D20*
%TO.P,J2,T*%
%TO.N,Net-(FB5-Pad1)*%
X91981667Y-85970000D03*
%TO.P,J2,S*%
%TO.N,GND*%
X91981667Y-78914000D03*
%TO.P,J2,R*%
%TO.N,Net-(FB6-Pad1)*%
X87184667Y-80847000D03*
%TD*%
%TO.P,R11,2*%
%TO.N,Net-(D3-Pad2)*%
%TA.AperFunction,SMDPad,CuDef*%
G36*
G01*
X43985000Y-101670000D02*
X43615000Y-101670000D01*
G75*
G02*
X43480000Y-101535000I0J135000D01*
G01*
X43480000Y-101265000D01*
G75*
G02*
X43615000Y-101130000I135000J0D01*
G01*
X43985000Y-101130000D01*
G75*
G02*
X44120000Y-101265000I0J-135000D01*
G01*
X44120000Y-101535000D01*
G75*
G02*
X43985000Y-101670000I-135000J0D01*
G01*
G37*
%TD.AperFunction*%
%TO.P,R11,1*%
%TO.N,FIRE_LED*%
%TA.AperFunction,SMDPad,CuDef*%
G36*
G01*
X43985000Y-102690000D02*
X43615000Y-102690000D01*
G75*
G02*
X43480000Y-102555000I0J135000D01*
G01*
X43480000Y-102285000D01*
G75*
G02*
X43615000Y-102150000I135000J0D01*
G01*
X43985000Y-102150000D01*
G75*
G02*
X44120000Y-102285000I0J-135000D01*
G01*
X44120000Y-102555000D01*
G75*
G02*
X43985000Y-102690000I-135000J0D01*
G01*
G37*
%TD.AperFunction*%
%TD*%
D27*
%TO.P,J6,1*%
%TO.N,VCC*%
X198470000Y-109550000D03*
D28*
%TO.P,J6,2*%
%TO.N,GND*%
X201010000Y-109550000D03*
%TO.P,J6,3*%
%TO.N,SWDIO*%
X203550000Y-109550000D03*
%TO.P,J6,4*%
%TO.N,SWCLK*%
X206090000Y-109550000D03*
%TO.P,J6,5*%
%TO.N,SWO*%
X208630000Y-109550000D03*
%TD*%
%TO.P,C21,2*%
%TO.N,GND*%
%TA.AperFunction,SMDPad,CuDef*%
G36*
G01*
X165450000Y-76930000D02*
X165450000Y-77270000D01*
G75*
G02*
X165310000Y-77410000I-140000J0D01*
G01*
X165030000Y-77410000D01*
G75*
G02*
X164890000Y-77270000I0J140000D01*
G01*
X164890000Y-76930000D01*
G75*
G02*
X165030000Y-76790000I140000J0D01*
G01*
X165310000Y-76790000D01*
G75*
G02*
X165450000Y-76930000I0J-140000D01*
G01*
G37*
%TD.AperFunction*%
%TO.P,C21,1*%
%TO.N,+3V3*%
%TA.AperFunction,SMDPad,CuDef*%
G36*
G01*
X166410000Y-76930000D02*
X166410000Y-77270000D01*
G75*
G02*
X166270000Y-77410000I-140000J0D01*
G01*
X165990000Y-77410000D01*
G75*
G02*
X165850000Y-77270000I0J140000D01*
G01*
X165850000Y-76930000D01*
G75*
G02*
X165990000Y-76790000I140000J0D01*
G01*
X166270000Y-76790000D01*
G75*
G02*
X166410000Y-76930000I0J-140000D01*
G01*
G37*
%TD.AperFunction*%
%TD*%
D19*
%TO.P,J4,*%
%TO.N,*%
X70030000Y-84970000D03*
X70030000Y-78870000D03*
D20*
%TO.P,J4,T*%
%TO.N,Net-(J4-PadT)*%
X72430000Y-85970000D03*
%TO.P,J4,S*%
%TO.N,GND*%
X72430000Y-78914000D03*
%TO.P,J4,R*%
%TO.N,Net-(J4-PadR)*%
X67633000Y-80847000D03*
%TD*%
D12*
%TO.P,SW2,A*%
%TO.N,Net-(C38-Pad2)*%
X138472640Y-105435000D03*
D13*
%TO.P,SW2,C*%
%TO.N,GND*%
X135972640Y-105435000D03*
%TO.P,SW2,B*%
%TO.N,Net-(C37-Pad2)*%
X133472640Y-105435000D03*
D15*
%TO.P,SW2,MP*%
%TO.N,N/C*%
X141572640Y-97935000D03*
X130372640Y-97935000D03*
%TD*%
D19*
%TO.P,J3,*%
%TO.N,*%
X79805834Y-84970000D03*
X79805834Y-78870000D03*
D20*
%TO.P,J3,T*%
%TO.N,Net-(C20-Pad1)*%
X82205834Y-85970000D03*
%TO.P,J3,S*%
%TO.N,GND*%
X82205834Y-78914000D03*
%TO.P,J3,R*%
%TO.N,MIC_-*%
X77408834Y-80847000D03*
%TD*%
D29*
%TO.P,J1,6*%
%TO.N,Net-(J1-Pad6)*%
X125960000Y-75602500D03*
X118960000Y-75602500D03*
D30*
X124960000Y-78302500D03*
X119960000Y-78302500D03*
%TD*%
%TO.P,R10,2*%
%TO.N,GND*%
%TA.AperFunction,SMDPad,CuDef*%
G36*
G01*
X86720000Y-91109998D02*
X86720000Y-92010002D01*
G75*
G02*
X86470002Y-92260000I-249998J0D01*
G01*
X85944998Y-92260000D01*
G75*
G02*
X85695000Y-92010002I0J249998D01*
G01*
X85695000Y-91109998D01*
G75*
G02*
X85944998Y-90860000I249998J0D01*
G01*
X86470002Y-90860000D01*
G75*
G02*
X86720000Y-91109998I0J-249998D01*
G01*
G37*
%TD.AperFunction*%
%TO.P,R10,1*%
%TO.N,Net-(C26-Pad2)*%
%TA.AperFunction,SMDPad,CuDef*%
G36*
G01*
X88545000Y-91109998D02*
X88545000Y-92010002D01*
G75*
G02*
X88295002Y-92260000I-249998J0D01*
G01*
X87769998Y-92260000D01*
G75*
G02*
X87520000Y-92010002I0J249998D01*
G01*
X87520000Y-91109998D01*
G75*
G02*
X87769998Y-90860000I249998J0D01*
G01*
X88295002Y-90860000D01*
G75*
G02*
X88545000Y-91109998I0J-249998D01*
G01*
G37*
%TD.AperFunction*%
%TD*%
%TO.P,R9,2*%
%TO.N,GND*%
%TA.AperFunction,SMDPad,CuDef*%
G36*
G01*
X91420000Y-92010002D02*
X91420000Y-91109998D01*
G75*
G02*
X91669998Y-90860000I249998J0D01*
G01*
X92195002Y-90860000D01*
G75*
G02*
X92445000Y-91109998I0J-249998D01*
G01*
X92445000Y-92010002D01*
G75*
G02*
X92195002Y-92260000I-249998J0D01*
G01*
X91669998Y-92260000D01*
G75*
G02*
X91420000Y-92010002I0J249998D01*
G01*
G37*
%TD.AperFunction*%
%TO.P,R9,1*%
%TO.N,Net-(C27-Pad2)*%
%TA.AperFunction,SMDPad,CuDef*%
G36*
G01*
X89595000Y-92010002D02*
X89595000Y-91109998D01*
G75*
G02*
X89844998Y-90860000I249998J0D01*
G01*
X90370002Y-90860000D01*
G75*
G02*
X90620000Y-91109998I0J-249998D01*
G01*
X90620000Y-92010002D01*
G75*
G02*
X90370002Y-92260000I-249998J0D01*
G01*
X89844998Y-92260000D01*
G75*
G02*
X89595000Y-92010002I0J249998D01*
G01*
G37*
%TD.AperFunction*%
%TD*%
%TO.P,R8,2*%
%TO.N,GND*%
%TA.AperFunction,SMDPad,CuDef*%
G36*
G01*
X103994000Y-79305998D02*
X103994000Y-80206002D01*
G75*
G02*
X103744002Y-80456000I-249998J0D01*
G01*
X103218998Y-80456000D01*
G75*
G02*
X102969000Y-80206002I0J249998D01*
G01*
X102969000Y-79305998D01*
G75*
G02*
X103218998Y-79056000I249998J0D01*
G01*
X103744002Y-79056000D01*
G75*
G02*
X103994000Y-79305998I0J-249998D01*
G01*
G37*
%TD.AperFunction*%
%TO.P,R8,1*%
%TO.N,Net-(C24-Pad2)*%
%TA.AperFunction,SMDPad,CuDef*%
G36*
G01*
X105819000Y-79305998D02*
X105819000Y-80206002D01*
G75*
G02*
X105569002Y-80456000I-249998J0D01*
G01*
X105043998Y-80456000D01*
G75*
G02*
X104794000Y-80206002I0J249998D01*
G01*
X104794000Y-79305998D01*
G75*
G02*
X105043998Y-79056000I249998J0D01*
G01*
X105569002Y-79056000D01*
G75*
G02*
X105819000Y-79305998I0J-249998D01*
G01*
G37*
%TD.AperFunction*%
%TD*%
%TO.P,R7,1*%
%TO.N,Net-(C25-Pad2)*%
%TA.AperFunction,SMDPad,CuDef*%
G36*
G01*
X95913000Y-80575998D02*
X95913000Y-81476002D01*
G75*
G02*
X95663002Y-81726000I-249998J0D01*
G01*
X95137998Y-81726000D01*
G75*
G02*
X94888000Y-81476002I0J249998D01*
G01*
X94888000Y-80575998D01*
G75*
G02*
X95137998Y-80326000I249998J0D01*
G01*
X95663002Y-80326000D01*
G75*
G02*
X95913000Y-80575998I0J-249998D01*
G01*
G37*
%TD.AperFunction*%
%TO.P,R7,2*%
%TO.N,GND*%
%TA.AperFunction,SMDPad,CuDef*%
G36*
G01*
X94088000Y-80575998D02*
X94088000Y-81476002D01*
G75*
G02*
X93838002Y-81726000I-249998J0D01*
G01*
X93312998Y-81726000D01*
G75*
G02*
X93063000Y-81476002I0J249998D01*
G01*
X93063000Y-80575998D01*
G75*
G02*
X93312998Y-80326000I249998J0D01*
G01*
X93838002Y-80326000D01*
G75*
G02*
X94088000Y-80575998I0J-249998D01*
G01*
G37*
%TD.AperFunction*%
%TD*%
%TO.P,FB6,2*%
%TO.N,Net-(C27-Pad2)*%
%TA.AperFunction,SMDPad,CuDef*%
G36*
G01*
X90395000Y-89178750D02*
X90395000Y-89941250D01*
G75*
G02*
X90176250Y-90160000I-218750J0D01*
G01*
X89738750Y-90160000D01*
G75*
G02*
X89520000Y-89941250I0J218750D01*
G01*
X89520000Y-89178750D01*
G75*
G02*
X89738750Y-88960000I218750J0D01*
G01*
X90176250Y-88960000D01*
G75*
G02*
X90395000Y-89178750I0J-218750D01*
G01*
G37*
%TD.AperFunction*%
%TO.P,FB6,1*%
%TO.N,Net-(FB6-Pad1)*%
%TA.AperFunction,SMDPad,CuDef*%
G36*
G01*
X92520000Y-89178750D02*
X92520000Y-89941250D01*
G75*
G02*
X92301250Y-90160000I-218750J0D01*
G01*
X91863750Y-90160000D01*
G75*
G02*
X91645000Y-89941250I0J218750D01*
G01*
X91645000Y-89178750D01*
G75*
G02*
X91863750Y-88960000I218750J0D01*
G01*
X92301250Y-88960000D01*
G75*
G02*
X92520000Y-89178750I0J-218750D01*
G01*
G37*
%TD.AperFunction*%
%TD*%
%TO.P,FB5,2*%
%TO.N,Net-(C26-Pad2)*%
%TA.AperFunction,SMDPad,CuDef*%
G36*
G01*
X87745000Y-89941250D02*
X87745000Y-89178750D01*
G75*
G02*
X87963750Y-88960000I218750J0D01*
G01*
X88401250Y-88960000D01*
G75*
G02*
X88620000Y-89178750I0J-218750D01*
G01*
X88620000Y-89941250D01*
G75*
G02*
X88401250Y-90160000I-218750J0D01*
G01*
X87963750Y-90160000D01*
G75*
G02*
X87745000Y-89941250I0J218750D01*
G01*
G37*
%TD.AperFunction*%
%TO.P,FB5,1*%
%TO.N,Net-(FB5-Pad1)*%
%TA.AperFunction,SMDPad,CuDef*%
G36*
G01*
X85620000Y-89941250D02*
X85620000Y-89178750D01*
G75*
G02*
X85838750Y-88960000I218750J0D01*
G01*
X86276250Y-88960000D01*
G75*
G02*
X86495000Y-89178750I0J-218750D01*
G01*
X86495000Y-89941250D01*
G75*
G02*
X86276250Y-90160000I-218750J0D01*
G01*
X85838750Y-90160000D01*
G75*
G02*
X85620000Y-89941250I0J218750D01*
G01*
G37*
%TD.AperFunction*%
%TD*%
%TO.P,FB4,1*%
%TO.N,Net-(FB4-Pad1)*%
%TA.AperFunction,SMDPad,CuDef*%
G36*
G01*
X97766000Y-82676750D02*
X97766000Y-83439250D01*
G75*
G02*
X97547250Y-83658000I-218750J0D01*
G01*
X97109750Y-83658000D01*
G75*
G02*
X96891000Y-83439250I0J218750D01*
G01*
X96891000Y-82676750D01*
G75*
G02*
X97109750Y-82458000I218750J0D01*
G01*
X97547250Y-82458000D01*
G75*
G02*
X97766000Y-82676750I0J-218750D01*
G01*
G37*
%TD.AperFunction*%
%TO.P,FB4,2*%
%TO.N,Net-(C25-Pad2)*%
%TA.AperFunction,SMDPad,CuDef*%
G36*
G01*
X95641000Y-82676750D02*
X95641000Y-83439250D01*
G75*
G02*
X95422250Y-83658000I-218750J0D01*
G01*
X94984750Y-83658000D01*
G75*
G02*
X94766000Y-83439250I0J218750D01*
G01*
X94766000Y-82676750D01*
G75*
G02*
X94984750Y-82458000I218750J0D01*
G01*
X95422250Y-82458000D01*
G75*
G02*
X95641000Y-82676750I0J-218750D01*
G01*
G37*
%TD.AperFunction*%
%TD*%
%TO.P,FB3,2*%
%TO.N,Net-(C24-Pad2)*%
%TA.AperFunction,SMDPad,CuDef*%
G36*
G01*
X104464500Y-82169250D02*
X104464500Y-81406750D01*
G75*
G02*
X104683250Y-81188000I218750J0D01*
G01*
X105120750Y-81188000D01*
G75*
G02*
X105339500Y-81406750I0J-218750D01*
G01*
X105339500Y-82169250D01*
G75*
G02*
X105120750Y-82388000I-218750J0D01*
G01*
X104683250Y-82388000D01*
G75*
G02*
X104464500Y-82169250I0J218750D01*
G01*
G37*
%TD.AperFunction*%
%TO.P,FB3,1*%
%TO.N,Net-(FB3-Pad1)*%
%TA.AperFunction,SMDPad,CuDef*%
G36*
G01*
X102339500Y-82169250D02*
X102339500Y-81406750D01*
G75*
G02*
X102558250Y-81188000I218750J0D01*
G01*
X102995750Y-81188000D01*
G75*
G02*
X103214500Y-81406750I0J-218750D01*
G01*
X103214500Y-82169250D01*
G75*
G02*
X102995750Y-82388000I-218750J0D01*
G01*
X102558250Y-82388000D01*
G75*
G02*
X102339500Y-82169250I0J218750D01*
G01*
G37*
%TD.AperFunction*%
%TD*%
%TO.P,C27,2*%
%TO.N,Net-(C27-Pad2)*%
%TA.AperFunction,SMDPad,CuDef*%
G36*
G01*
X90820000Y-92890000D02*
X90820000Y-93230000D01*
G75*
G02*
X90680000Y-93370000I-140000J0D01*
G01*
X90400000Y-93370000D01*
G75*
G02*
X90260000Y-93230000I0J140000D01*
G01*
X90260000Y-92890000D01*
G75*
G02*
X90400000Y-92750000I140000J0D01*
G01*
X90680000Y-92750000D01*
G75*
G02*
X90820000Y-92890000I0J-140000D01*
G01*
G37*
%TD.AperFunction*%
%TO.P,C27,1*%
%TO.N,OUT_R*%
%TA.AperFunction,SMDPad,CuDef*%
G36*
G01*
X91780000Y-92890000D02*
X91780000Y-93230000D01*
G75*
G02*
X91640000Y-93370000I-140000J0D01*
G01*
X91360000Y-93370000D01*
G75*
G02*
X91220000Y-93230000I0J140000D01*
G01*
X91220000Y-92890000D01*
G75*
G02*
X91360000Y-92750000I140000J0D01*
G01*
X91640000Y-92750000D01*
G75*
G02*
X91780000Y-92890000I0J-140000D01*
G01*
G37*
%TD.AperFunction*%
%TD*%
%TO.P,C26,2*%
%TO.N,Net-(C26-Pad2)*%
%TA.AperFunction,SMDPad,CuDef*%
G36*
G01*
X87300000Y-93230000D02*
X87300000Y-92890000D01*
G75*
G02*
X87440000Y-92750000I140000J0D01*
G01*
X87720000Y-92750000D01*
G75*
G02*
X87860000Y-92890000I0J-140000D01*
G01*
X87860000Y-93230000D01*
G75*
G02*
X87720000Y-93370000I-140000J0D01*
G01*
X87440000Y-93370000D01*
G75*
G02*
X87300000Y-93230000I0J140000D01*
G01*
G37*
%TD.AperFunction*%
%TO.P,C26,1*%
%TO.N,OUT_L*%
%TA.AperFunction,SMDPad,CuDef*%
G36*
G01*
X86340000Y-93230000D02*
X86340000Y-92890000D01*
G75*
G02*
X86480000Y-92750000I140000J0D01*
G01*
X86760000Y-92750000D01*
G75*
G02*
X86900000Y-92890000I0J-140000D01*
G01*
X86900000Y-93230000D01*
G75*
G02*
X86760000Y-93370000I-140000J0D01*
G01*
X86480000Y-93370000D01*
G75*
G02*
X86340000Y-93230000I0J140000D01*
G01*
G37*
%TD.AperFunction*%
%TD*%
%TO.P,C25,2*%
%TO.N,Net-(C25-Pad2)*%
%TA.AperFunction,SMDPad,CuDef*%
G36*
G01*
X95080000Y-79194000D02*
X95420000Y-79194000D01*
G75*
G02*
X95560000Y-79334000I0J-140000D01*
G01*
X95560000Y-79614000D01*
G75*
G02*
X95420000Y-79754000I-140000J0D01*
G01*
X95080000Y-79754000D01*
G75*
G02*
X94940000Y-79614000I0J140000D01*
G01*
X94940000Y-79334000D01*
G75*
G02*
X95080000Y-79194000I140000J0D01*
G01*
G37*
%TD.AperFunction*%
%TO.P,C25,1*%
%TO.N,HP_R*%
%TA.AperFunction,SMDPad,CuDef*%
G36*
G01*
X95080000Y-78234000D02*
X95420000Y-78234000D01*
G75*
G02*
X95560000Y-78374000I0J-140000D01*
G01*
X95560000Y-78654000D01*
G75*
G02*
X95420000Y-78794000I-140000J0D01*
G01*
X95080000Y-78794000D01*
G75*
G02*
X94940000Y-78654000I0J140000D01*
G01*
X94940000Y-78374000D01*
G75*
G02*
X95080000Y-78234000I140000J0D01*
G01*
G37*
%TD.AperFunction*%
%TD*%
%TO.P,C24,2*%
%TO.N,Net-(C24-Pad2)*%
%TA.AperFunction,SMDPad,CuDef*%
G36*
G01*
X104984000Y-78062000D02*
X104984000Y-78402000D01*
G75*
G02*
X104844000Y-78542000I-140000J0D01*
G01*
X104564000Y-78542000D01*
G75*
G02*
X104424000Y-78402000I0J140000D01*
G01*
X104424000Y-78062000D01*
G75*
G02*
X104564000Y-77922000I140000J0D01*
G01*
X104844000Y-77922000D01*
G75*
G02*
X104984000Y-78062000I0J-140000D01*
G01*
G37*
%TD.AperFunction*%
%TO.P,C24,1*%
%TO.N,HP_L*%
%TA.AperFunction,SMDPad,CuDef*%
G36*
G01*
X105944000Y-78062000D02*
X105944000Y-78402000D01*
G75*
G02*
X105804000Y-78542000I-140000J0D01*
G01*
X105524000Y-78542000D01*
G75*
G02*
X105384000Y-78402000I0J140000D01*
G01*
X105384000Y-78062000D01*
G75*
G02*
X105524000Y-77922000I140000J0D01*
G01*
X105804000Y-77922000D01*
G75*
G02*
X105944000Y-78062000I0J-140000D01*
G01*
G37*
%TD.AperFunction*%
%TD*%
D22*
%TO.P,U3,5*%
%TO.N,+5V*%
X143850000Y-78970000D03*
%TO.P,U3,6*%
%TO.N,USB_D-*%
X143850000Y-78020000D03*
%TO.P,U3,4*%
%TO.N,USB_D+*%
X143850000Y-79920000D03*
%TO.P,U3,3*%
%TO.N,USB_CONN_D+*%
X141650000Y-79920000D03*
%TO.P,U3,2*%
%TO.N,GND*%
X141650000Y-78970000D03*
%TO.P,U3,1*%
%TO.N,USB_CONN_D-*%
X141650000Y-78020000D03*
%TD*%
D31*
%TO.P,D2,2*%
%TO.N,Net-(D2-Pad2)*%
X147800000Y-77580000D03*
%TO.P,D2,1*%
%TO.N,Net-(D2-Pad1)*%
X147800000Y-80880000D03*
%TD*%
%TO.P,C12,2*%
%TO.N,GND*%
%TA.AperFunction,SMDPad,CuDef*%
G36*
G01*
X178673770Y-92661777D02*
X178914186Y-92902193D01*
G75*
G02*
X178914186Y-93100183I-98995J-98995D01*
G01*
X178716196Y-93298173D01*
G75*
G02*
X178518206Y-93298173I-98995J98995D01*
G01*
X178277790Y-93057757D01*
G75*
G02*
X178277790Y-92859767I98995J98995D01*
G01*
X178475780Y-92661777D01*
G75*
G02*
X178673770Y-92661777I98995J-98995D01*
G01*
G37*
%TD.AperFunction*%
%TO.P,C12,1*%
%TO.N,+3V3*%
%TA.AperFunction,SMDPad,CuDef*%
G36*
G01*
X179352592Y-91982955D02*
X179593008Y-92223371D01*
G75*
G02*
X179593008Y-92421361I-98995J-98995D01*
G01*
X179395018Y-92619351D01*
G75*
G02*
X179197028Y-92619351I-98995J98995D01*
G01*
X178956612Y-92378935D01*
G75*
G02*
X178956612Y-92180945I98995J98995D01*
G01*
X179154602Y-91982955D01*
G75*
G02*
X179352592Y-91982955I98995J-98995D01*
G01*
G37*
%TD.AperFunction*%
%TD*%
%TO.P,C2,2*%
%TO.N,GND*%
%TA.AperFunction,SMDPad,CuDef*%
G36*
G01*
X156229000Y-79810000D02*
X155279000Y-79810000D01*
G75*
G02*
X155029000Y-79560000I0J250000D01*
G01*
X155029000Y-79060000D01*
G75*
G02*
X155279000Y-78810000I250000J0D01*
G01*
X156229000Y-78810000D01*
G75*
G02*
X156479000Y-79060000I0J-250000D01*
G01*
X156479000Y-79560000D01*
G75*
G02*
X156229000Y-79810000I-250000J0D01*
G01*
G37*
%TD.AperFunction*%
%TO.P,C2,1*%
%TO.N,+3V3*%
%TA.AperFunction,SMDPad,CuDef*%
G36*
G01*
X156229000Y-81710000D02*
X155279000Y-81710000D01*
G75*
G02*
X155029000Y-81460000I0J250000D01*
G01*
X155029000Y-80960000D01*
G75*
G02*
X155279000Y-80710000I250000J0D01*
G01*
X156229000Y-80710000D01*
G75*
G02*
X156479000Y-80960000I0J-250000D01*
G01*
X156479000Y-81460000D01*
G75*
G02*
X156229000Y-81710000I-250000J0D01*
G01*
G37*
%TD.AperFunction*%
%TD*%
%TO.P,C3,2*%
%TO.N,GND*%
%TA.AperFunction,SMDPad,CuDef*%
G36*
G01*
X181015679Y-95553168D02*
X181369233Y-95199614D01*
G75*
G02*
X181687431Y-95199614I159099J-159099D01*
G01*
X182005629Y-95517812D01*
G75*
G02*
X182005629Y-95836010I-159099J-159099D01*
G01*
X181652075Y-96189564D01*
G75*
G02*
X181333877Y-96189564I-159099J159099D01*
G01*
X181015679Y-95871366D01*
G75*
G02*
X181015679Y-95553168I159099J159099D01*
G01*
G37*
%TD.AperFunction*%
%TO.P,C3,1*%
%TO.N,+3V3*%
%TA.AperFunction,SMDPad,CuDef*%
G36*
G01*
X179919663Y-94457152D02*
X180273217Y-94103598D01*
G75*
G02*
X180591415Y-94103598I159099J-159099D01*
G01*
X180909613Y-94421796D01*
G75*
G02*
X180909613Y-94739994I-159099J-159099D01*
G01*
X180556059Y-95093548D01*
G75*
G02*
X180237861Y-95093548I-159099J159099D01*
G01*
X179919663Y-94775350D01*
G75*
G02*
X179919663Y-94457152I159099J159099D01*
G01*
G37*
%TD.AperFunction*%
%TD*%
%TO.P,C4,2*%
%TO.N,GND*%
%TA.AperFunction,SMDPad,CuDef*%
G36*
G01*
X168370114Y-85969879D02*
X168129698Y-85729463D01*
G75*
G02*
X168129698Y-85531473I98995J98995D01*
G01*
X168327688Y-85333483D01*
G75*
G02*
X168525678Y-85333483I98995J-98995D01*
G01*
X168766094Y-85573899D01*
G75*
G02*
X168766094Y-85771889I-98995J-98995D01*
G01*
X168568104Y-85969879D01*
G75*
G02*
X168370114Y-85969879I-98995J98995D01*
G01*
G37*
%TD.AperFunction*%
%TO.P,C4,1*%
%TO.N,+3V3*%
%TA.AperFunction,SMDPad,CuDef*%
G36*
G01*
X167691292Y-86648701D02*
X167450876Y-86408285D01*
G75*
G02*
X167450876Y-86210295I98995J98995D01*
G01*
X167648866Y-86012305D01*
G75*
G02*
X167846856Y-86012305I98995J-98995D01*
G01*
X168087272Y-86252721D01*
G75*
G02*
X168087272Y-86450711I-98995J-98995D01*
G01*
X167889282Y-86648701D01*
G75*
G02*
X167691292Y-86648701I-98995J98995D01*
G01*
G37*
%TD.AperFunction*%
%TD*%
%TO.P,C5,2*%
%TO.N,GND*%
%TA.AperFunction,SMDPad,CuDef*%
G36*
G01*
X167663008Y-85262772D02*
X167422592Y-85022356D01*
G75*
G02*
X167422592Y-84824366I98995J98995D01*
G01*
X167620582Y-84626376D01*
G75*
G02*
X167818572Y-84626376I98995J-98995D01*
G01*
X168058988Y-84866792D01*
G75*
G02*
X168058988Y-85064782I-98995J-98995D01*
G01*
X167860998Y-85262772D01*
G75*
G02*
X167663008Y-85262772I-98995J98995D01*
G01*
G37*
%TD.AperFunction*%
%TO.P,C5,1*%
%TO.N,+3V3*%
%TA.AperFunction,SMDPad,CuDef*%
G36*
G01*
X166984186Y-85941594D02*
X166743770Y-85701178D01*
G75*
G02*
X166743770Y-85503188I98995J98995D01*
G01*
X166941760Y-85305198D01*
G75*
G02*
X167139750Y-85305198I98995J-98995D01*
G01*
X167380166Y-85545614D01*
G75*
G02*
X167380166Y-85743604I-98995J-98995D01*
G01*
X167182176Y-85941594D01*
G75*
G02*
X166984186Y-85941594I-98995J98995D01*
G01*
G37*
%TD.AperFunction*%
%TD*%
%TO.P,C6,2*%
%TO.N,GND*%
%TA.AperFunction,SMDPad,CuDef*%
G36*
G01*
X162776901Y-93274292D02*
X163017317Y-93514708D01*
G75*
G02*
X163017317Y-93712698I-98995J-98995D01*
G01*
X162819327Y-93910688D01*
G75*
G02*
X162621337Y-93910688I-98995J98995D01*
G01*
X162380921Y-93670272D01*
G75*
G02*
X162380921Y-93472282I98995J98995D01*
G01*
X162578911Y-93274292D01*
G75*
G02*
X162776901Y-93274292I98995J-98995D01*
G01*
G37*
%TD.AperFunction*%
%TO.P,C6,1*%
%TO.N,+3V3*%
%TA.AperFunction,SMDPad,CuDef*%
G36*
G01*
X163455723Y-92595470D02*
X163696139Y-92835886D01*
G75*
G02*
X163696139Y-93033876I-98995J-98995D01*
G01*
X163498149Y-93231866D01*
G75*
G02*
X163300159Y-93231866I-98995J98995D01*
G01*
X163059743Y-92991450D01*
G75*
G02*
X163059743Y-92793460I98995J98995D01*
G01*
X163257733Y-92595470D01*
G75*
G02*
X163455723Y-92595470I98995J-98995D01*
G01*
G37*
%TD.AperFunction*%
%TD*%
%TO.P,C7,2*%
%TO.N,GND*%
%TA.AperFunction,SMDPad,CuDef*%
G36*
G01*
X162083936Y-92553043D02*
X162324352Y-92793459D01*
G75*
G02*
X162324352Y-92991449I-98995J-98995D01*
G01*
X162126362Y-93189439D01*
G75*
G02*
X161928372Y-93189439I-98995J98995D01*
G01*
X161687956Y-92949023D01*
G75*
G02*
X161687956Y-92751033I98995J98995D01*
G01*
X161885946Y-92553043D01*
G75*
G02*
X162083936Y-92553043I98995J-98995D01*
G01*
G37*
%TD.AperFunction*%
%TO.P,C7,1*%
%TO.N,+3V3*%
%TA.AperFunction,SMDPad,CuDef*%
G36*
G01*
X162762758Y-91874221D02*
X163003174Y-92114637D01*
G75*
G02*
X163003174Y-92312627I-98995J-98995D01*
G01*
X162805184Y-92510617D01*
G75*
G02*
X162607194Y-92510617I-98995J98995D01*
G01*
X162366778Y-92270201D01*
G75*
G02*
X162366778Y-92072211I98995J98995D01*
G01*
X162564768Y-91874221D01*
G75*
G02*
X162762758Y-91874221I98995J-98995D01*
G01*
G37*
%TD.AperFunction*%
%TD*%
%TO.P,C8,2*%
%TO.N,GND*%
%TA.AperFunction,SMDPad,CuDef*%
G36*
G01*
X170738364Y-102409552D02*
X170978780Y-102169136D01*
G75*
G02*
X171176770Y-102169136I98995J-98995D01*
G01*
X171374760Y-102367126D01*
G75*
G02*
X171374760Y-102565116I-98995J-98995D01*
G01*
X171134344Y-102805532D01*
G75*
G02*
X170936354Y-102805532I-98995J98995D01*
G01*
X170738364Y-102607542D01*
G75*
G02*
X170738364Y-102409552I98995J98995D01*
G01*
G37*
%TD.AperFunction*%
%TO.P,C8,1*%
%TO.N,+3V3*%
%TA.AperFunction,SMDPad,CuDef*%
G36*
G01*
X170059542Y-101730730D02*
X170299958Y-101490314D01*
G75*
G02*
X170497948Y-101490314I98995J-98995D01*
G01*
X170695938Y-101688304D01*
G75*
G02*
X170695938Y-101886294I-98995J-98995D01*
G01*
X170455522Y-102126710D01*
G75*
G02*
X170257532Y-102126710I-98995J98995D01*
G01*
X170059542Y-101928720D01*
G75*
G02*
X170059542Y-101730730I98995J98995D01*
G01*
G37*
%TD.AperFunction*%
%TD*%
%TO.P,C9,2*%
%TO.N,GND*%
%TA.AperFunction,SMDPad,CuDef*%
G36*
G01*
X170010802Y-103126218D02*
X170251218Y-102885802D01*
G75*
G02*
X170449208Y-102885802I98995J-98995D01*
G01*
X170647198Y-103083792D01*
G75*
G02*
X170647198Y-103281782I-98995J-98995D01*
G01*
X170406782Y-103522198D01*
G75*
G02*
X170208792Y-103522198I-98995J98995D01*
G01*
X170010802Y-103324208D01*
G75*
G02*
X170010802Y-103126218I98995J98995D01*
G01*
G37*
%TD.AperFunction*%
%TO.P,C9,1*%
%TO.N,+3V3*%
%TA.AperFunction,SMDPad,CuDef*%
G36*
G01*
X169331980Y-102447396D02*
X169572396Y-102206980D01*
G75*
G02*
X169770386Y-102206980I98995J-98995D01*
G01*
X169968376Y-102404970D01*
G75*
G02*
X169968376Y-102602960I-98995J-98995D01*
G01*
X169727960Y-102843376D01*
G75*
G02*
X169529970Y-102843376I-98995J98995D01*
G01*
X169331980Y-102645386D01*
G75*
G02*
X169331980Y-102447396I98995J98995D01*
G01*
G37*
%TD.AperFunction*%
%TD*%
%TO.P,C10,2*%
%TO.N,GND*%
%TA.AperFunction,SMDPad,CuDef*%
G36*
G01*
X178531240Y-96328993D02*
X178771656Y-96569409D01*
G75*
G02*
X178771656Y-96767399I-98995J-98995D01*
G01*
X178573666Y-96965389D01*
G75*
G02*
X178375676Y-96965389I-98995J98995D01*
G01*
X178135260Y-96724973D01*
G75*
G02*
X178135260Y-96526983I98995J98995D01*
G01*
X178333250Y-96328993D01*
G75*
G02*
X178531240Y-96328993I98995J-98995D01*
G01*
G37*
%TD.AperFunction*%
%TO.P,C10,1*%
%TO.N,+3V3*%
%TA.AperFunction,SMDPad,CuDef*%
G36*
G01*
X179210062Y-95650171D02*
X179450478Y-95890587D01*
G75*
G02*
X179450478Y-96088577I-98995J-98995D01*
G01*
X179252488Y-96286567D01*
G75*
G02*
X179054498Y-96286567I-98995J98995D01*
G01*
X178814082Y-96046151D01*
G75*
G02*
X178814082Y-95848161I98995J98995D01*
G01*
X179012072Y-95650171D01*
G75*
G02*
X179210062Y-95650171I98995J-98995D01*
G01*
G37*
%TD.AperFunction*%
%TD*%
%TO.P,C11,2*%
%TO.N,GND*%
%TA.AperFunction,SMDPad,CuDef*%
G36*
G01*
X179298371Y-97121213D02*
X179538787Y-97361629D01*
G75*
G02*
X179538787Y-97559619I-98995J-98995D01*
G01*
X179340797Y-97757609D01*
G75*
G02*
X179142807Y-97757609I-98995J98995D01*
G01*
X178902391Y-97517193D01*
G75*
G02*
X178902391Y-97319203I98995J98995D01*
G01*
X179100381Y-97121213D01*
G75*
G02*
X179298371Y-97121213I98995J-98995D01*
G01*
G37*
%TD.AperFunction*%
%TO.P,C11,1*%
%TO.N,+3V3*%
%TA.AperFunction,SMDPad,CuDef*%
G36*
G01*
X179977193Y-96442391D02*
X180217609Y-96682807D01*
G75*
G02*
X180217609Y-96880797I-98995J-98995D01*
G01*
X180019619Y-97078787D01*
G75*
G02*
X179821629Y-97078787I-98995J98995D01*
G01*
X179581213Y-96838371D01*
G75*
G02*
X179581213Y-96640381I98995J98995D01*
G01*
X179779203Y-96442391D01*
G75*
G02*
X179977193Y-96442391I98995J-98995D01*
G01*
G37*
%TD.AperFunction*%
%TD*%
%TO.P,C13,2*%
%TO.N,GND*%
%TA.AperFunction,SMDPad,CuDef*%
G36*
G01*
X175646243Y-86507838D02*
X175886659Y-86267422D01*
G75*
G02*
X176084649Y-86267422I98995J-98995D01*
G01*
X176282639Y-86465412D01*
G75*
G02*
X176282639Y-86663402I-98995J-98995D01*
G01*
X176042223Y-86903818D01*
G75*
G02*
X175844233Y-86903818I-98995J98995D01*
G01*
X175646243Y-86705828D01*
G75*
G02*
X175646243Y-86507838I98995J98995D01*
G01*
G37*
%TD.AperFunction*%
%TO.P,C13,1*%
%TO.N,+3.3VA*%
%TA.AperFunction,SMDPad,CuDef*%
G36*
G01*
X174967421Y-85829016D02*
X175207837Y-85588600D01*
G75*
G02*
X175405827Y-85588600I98995J-98995D01*
G01*
X175603817Y-85786590D01*
G75*
G02*
X175603817Y-85984580I-98995J-98995D01*
G01*
X175363401Y-86224996D01*
G75*
G02*
X175165411Y-86224996I-98995J98995D01*
G01*
X174967421Y-86027006D01*
G75*
G02*
X174967421Y-85829016I98995J98995D01*
G01*
G37*
%TD.AperFunction*%
%TD*%
%TO.P,C14,2*%
%TO.N,GND*%
%TA.AperFunction,SMDPad,CuDef*%
G36*
G01*
X174939137Y-87214945D02*
X175179553Y-86974529D01*
G75*
G02*
X175377543Y-86974529I98995J-98995D01*
G01*
X175575533Y-87172519D01*
G75*
G02*
X175575533Y-87370509I-98995J-98995D01*
G01*
X175335117Y-87610925D01*
G75*
G02*
X175137127Y-87610925I-98995J98995D01*
G01*
X174939137Y-87412935D01*
G75*
G02*
X174939137Y-87214945I98995J98995D01*
G01*
G37*
%TD.AperFunction*%
%TO.P,C14,1*%
%TO.N,+3.3VA*%
%TA.AperFunction,SMDPad,CuDef*%
G36*
G01*
X174260315Y-86536123D02*
X174500731Y-86295707D01*
G75*
G02*
X174698721Y-86295707I98995J-98995D01*
G01*
X174896711Y-86493697D01*
G75*
G02*
X174896711Y-86691687I-98995J-98995D01*
G01*
X174656295Y-86932103D01*
G75*
G02*
X174458305Y-86932103I-98995J98995D01*
G01*
X174260315Y-86734113D01*
G75*
G02*
X174260315Y-86536123I98995J98995D01*
G01*
G37*
%TD.AperFunction*%
%TD*%
%TO.P,C15,2*%
%TO.N,Net-(C15-Pad2)*%
%TA.AperFunction,SMDPad,CuDef*%
G36*
G01*
X162225358Y-91167114D02*
X161871804Y-90813560D01*
G75*
G02*
X161871804Y-90495362I159099J159099D01*
G01*
X162190002Y-90177164D01*
G75*
G02*
X162508200Y-90177164I159099J-159099D01*
G01*
X162861754Y-90530718D01*
G75*
G02*
X162861754Y-90848916I-159099J-159099D01*
G01*
X162543556Y-91167114D01*
G75*
G02*
X162225358Y-91167114I-159099J159099D01*
G01*
G37*
%TD.AperFunction*%
%TO.P,C15,1*%
%TO.N,GND*%
%TA.AperFunction,SMDPad,CuDef*%
G36*
G01*
X161129342Y-92263130D02*
X160775788Y-91909576D01*
G75*
G02*
X160775788Y-91591378I159099J159099D01*
G01*
X161093986Y-91273180D01*
G75*
G02*
X161412184Y-91273180I159099J-159099D01*
G01*
X161765738Y-91626734D01*
G75*
G02*
X161765738Y-91944932I-159099J-159099D01*
G01*
X161447540Y-92263130D01*
G75*
G02*
X161129342Y-92263130I-159099J159099D01*
G01*
G37*
%TD.AperFunction*%
%TD*%
%TO.P,C16,2*%
%TO.N,Net-(C16-Pad2)*%
%TA.AperFunction,SMDPad,CuDef*%
G36*
G01*
X167967065Y-102438396D02*
X167613511Y-102084842D01*
G75*
G02*
X167613511Y-101766644I159099J159099D01*
G01*
X167931709Y-101448446D01*
G75*
G02*
X168249907Y-101448446I159099J-159099D01*
G01*
X168603461Y-101802000D01*
G75*
G02*
X168603461Y-102120198I-159099J-159099D01*
G01*
X168285263Y-102438396D01*
G75*
G02*
X167967065Y-102438396I-159099J159099D01*
G01*
G37*
%TD.AperFunction*%
%TO.P,C16,1*%
%TO.N,GND*%
%TA.AperFunction,SMDPad,CuDef*%
G36*
G01*
X166871049Y-103534412D02*
X166517495Y-103180858D01*
G75*
G02*
X166517495Y-102862660I159099J159099D01*
G01*
X166835693Y-102544462D01*
G75*
G02*
X167153891Y-102544462I159099J-159099D01*
G01*
X167507445Y-102898016D01*
G75*
G02*
X167507445Y-103216214I-159099J-159099D01*
G01*
X167189247Y-103534412D01*
G75*
G02*
X166871049Y-103534412I-159099J159099D01*
G01*
G37*
%TD.AperFunction*%
%TD*%
%TO.P,C17,2*%
%TO.N,GND*%
%TA.AperFunction,SMDPad,CuDef*%
G36*
G01*
X181812215Y-89187214D02*
X182052631Y-89427630D01*
G75*
G02*
X182052631Y-89625620I-98995J-98995D01*
G01*
X181854641Y-89823610D01*
G75*
G02*
X181656651Y-89823610I-98995J98995D01*
G01*
X181416235Y-89583194D01*
G75*
G02*
X181416235Y-89385204I98995J98995D01*
G01*
X181614225Y-89187214D01*
G75*
G02*
X181812215Y-89187214I98995J-98995D01*
G01*
G37*
%TD.AperFunction*%
%TO.P,C17,1*%
%TO.N,HSE_IN*%
%TA.AperFunction,SMDPad,CuDef*%
G36*
G01*
X182491037Y-88508392D02*
X182731453Y-88748808D01*
G75*
G02*
X182731453Y-88946798I-98995J-98995D01*
G01*
X182533463Y-89144788D01*
G75*
G02*
X182335473Y-89144788I-98995J98995D01*
G01*
X182095057Y-88904372D01*
G75*
G02*
X182095057Y-88706382I98995J98995D01*
G01*
X182293047Y-88508392D01*
G75*
G02*
X182491037Y-88508392I98995J-98995D01*
G01*
G37*
%TD.AperFunction*%
%TD*%
%TO.P,C18,2*%
%TO.N,GND*%
%TA.AperFunction,SMDPad,CuDef*%
G36*
G01*
X178092833Y-84902148D02*
X177852417Y-84661732D01*
G75*
G02*
X177852417Y-84463742I98995J98995D01*
G01*
X178050407Y-84265752D01*
G75*
G02*
X178248397Y-84265752I98995J-98995D01*
G01*
X178488813Y-84506168D01*
G75*
G02*
X178488813Y-84704158I-98995J-98995D01*
G01*
X178290823Y-84902148D01*
G75*
G02*
X178092833Y-84902148I-98995J98995D01*
G01*
G37*
%TD.AperFunction*%
%TO.P,C18,1*%
%TO.N,Net-(C18-Pad1)*%
%TA.AperFunction,SMDPad,CuDef*%
G36*
G01*
X177414011Y-85580970D02*
X177173595Y-85340554D01*
G75*
G02*
X177173595Y-85142564I98995J98995D01*
G01*
X177371585Y-84944574D01*
G75*
G02*
X177569575Y-84944574I98995J-98995D01*
G01*
X177809991Y-85184990D01*
G75*
G02*
X177809991Y-85382980I-98995J-98995D01*
G01*
X177612001Y-85580970D01*
G75*
G02*
X177414011Y-85580970I-98995J98995D01*
G01*
G37*
%TD.AperFunction*%
%TD*%
%TO.P,F1,2*%
%TO.N,Net-(F1-Pad2)*%
%TA.AperFunction,SMDPad,CuDef*%
G36*
G01*
X154300250Y-83332500D02*
X153787750Y-83332500D01*
G75*
G02*
X153569000Y-83113750I0J218750D01*
G01*
X153569000Y-82676250D01*
G75*
G02*
X153787750Y-82457500I218750J0D01*
G01*
X154300250Y-82457500D01*
G75*
G02*
X154519000Y-82676250I0J-218750D01*
G01*
X154519000Y-83113750D01*
G75*
G02*
X154300250Y-83332500I-218750J0D01*
G01*
G37*
%TD.AperFunction*%
%TO.P,F1,1*%
%TO.N,Net-(D2-Pad1)*%
%TA.AperFunction,SMDPad,CuDef*%
G36*
G01*
X154300250Y-84907500D02*
X153787750Y-84907500D01*
G75*
G02*
X153569000Y-84688750I0J218750D01*
G01*
X153569000Y-84251250D01*
G75*
G02*
X153787750Y-84032500I218750J0D01*
G01*
X154300250Y-84032500D01*
G75*
G02*
X154519000Y-84251250I0J-218750D01*
G01*
X154519000Y-84688750D01*
G75*
G02*
X154300250Y-84907500I-218750J0D01*
G01*
G37*
%TD.AperFunction*%
%TD*%
%TO.P,FB1,2*%
%TO.N,Net-(F1-Pad2)*%
%TA.AperFunction,SMDPad,CuDef*%
G36*
G01*
X156185250Y-83175000D02*
X155422750Y-83175000D01*
G75*
G02*
X155204000Y-82956250I0J218750D01*
G01*
X155204000Y-82518750D01*
G75*
G02*
X155422750Y-82300000I218750J0D01*
G01*
X156185250Y-82300000D01*
G75*
G02*
X156404000Y-82518750I0J-218750D01*
G01*
X156404000Y-82956250D01*
G75*
G02*
X156185250Y-83175000I-218750J0D01*
G01*
G37*
%TD.AperFunction*%
%TO.P,FB1,1*%
%TO.N,Net-(C1-Pad2)*%
%TA.AperFunction,SMDPad,CuDef*%
G36*
G01*
X156185250Y-85300000D02*
X155422750Y-85300000D01*
G75*
G02*
X155204000Y-85081250I0J218750D01*
G01*
X155204000Y-84643750D01*
G75*
G02*
X155422750Y-84425000I218750J0D01*
G01*
X156185250Y-84425000D01*
G75*
G02*
X156404000Y-84643750I0J-218750D01*
G01*
X156404000Y-85081250D01*
G75*
G02*
X156185250Y-85300000I-218750J0D01*
G01*
G37*
%TD.AperFunction*%
%TD*%
%TO.P,FB2,2*%
%TO.N,+3V3*%
%TA.AperFunction,SMDPad,CuDef*%
G36*
G01*
X175511009Y-83978489D02*
X174971840Y-83439320D01*
G75*
G02*
X174971840Y-83129960I154680J154680D01*
G01*
X175281199Y-82820601D01*
G75*
G02*
X175590559Y-82820601I154680J-154680D01*
G01*
X176129728Y-83359770D01*
G75*
G02*
X176129728Y-83669130I-154680J-154680D01*
G01*
X175820369Y-83978489D01*
G75*
G02*
X175511009Y-83978489I-154680J154680D01*
G01*
G37*
%TD.AperFunction*%
%TO.P,FB2,1*%
%TO.N,+3.3VA*%
%TA.AperFunction,SMDPad,CuDef*%
G36*
G01*
X174008407Y-85481091D02*
X173469238Y-84941922D01*
G75*
G02*
X173469238Y-84632562I154680J154680D01*
G01*
X173778597Y-84323203D01*
G75*
G02*
X174087957Y-84323203I154680J-154680D01*
G01*
X174627126Y-84862372D01*
G75*
G02*
X174627126Y-85171732I-154680J-154680D01*
G01*
X174317767Y-85481091D01*
G75*
G02*
X174008407Y-85481091I-154680J154680D01*
G01*
G37*
%TD.AperFunction*%
%TD*%
%TA.AperFunction,SMDPad,CuDef*%
D32*
%TO.P,HSE1,4*%
%TO.N,GND*%
G36*
X181083895Y-88529605D02*
G01*
X180235367Y-89378133D01*
X179245417Y-88388183D01*
X180093945Y-87539655D01*
X181083895Y-88529605D01*
G37*
%TD.AperFunction*%
%TA.AperFunction,SMDPad,CuDef*%
%TO.P,HSE1,3*%
%TO.N,Net-(C18-Pad1)*%
G36*
X179528260Y-86973970D02*
G01*
X178679732Y-87822498D01*
X177689782Y-86832548D01*
X178538310Y-85984020D01*
X179528260Y-86973970D01*
G37*
%TD.AperFunction*%
%TA.AperFunction,SMDPad,CuDef*%
%TO.P,HSE1,2*%
%TO.N,GND*%
G36*
X180730341Y-85771889D02*
G01*
X179881813Y-86620417D01*
X178891863Y-85630467D01*
X179740391Y-84781939D01*
X180730341Y-85771889D01*
G37*
%TD.AperFunction*%
%TA.AperFunction,SMDPad,CuDef*%
%TO.P,HSE1,1*%
%TO.N,HSE_IN*%
G36*
X182285976Y-87327524D02*
G01*
X181437448Y-88176052D01*
X180447498Y-87186102D01*
X181296026Y-86337574D01*
X182285976Y-87327524D01*
G37*
%TD.AperFunction*%
%TD*%
%TO.P,R1,2*%
%TO.N,GND*%
%TA.AperFunction,SMDPad,CuDef*%
G36*
G01*
X178138795Y-98008371D02*
X178400424Y-97746742D01*
G75*
G02*
X178591342Y-97746742I95459J-95459D01*
G01*
X178782261Y-97937661D01*
G75*
G02*
X178782261Y-98128579I-95459J-95459D01*
G01*
X178520632Y-98390208D01*
G75*
G02*
X178329714Y-98390208I-95459J95459D01*
G01*
X178138795Y-98199289D01*
G75*
G02*
X178138795Y-98008371I95459J95459D01*
G01*
G37*
%TD.AperFunction*%
%TO.P,R1,1*%
%TO.N,BOOT0*%
%TA.AperFunction,SMDPad,CuDef*%
G36*
G01*
X177417547Y-97287123D02*
X177679176Y-97025494D01*
G75*
G02*
X177870094Y-97025494I95459J-95459D01*
G01*
X178061013Y-97216413D01*
G75*
G02*
X178061013Y-97407331I-95459J-95459D01*
G01*
X177799384Y-97668960D01*
G75*
G02*
X177608466Y-97668960I-95459J95459D01*
G01*
X177417547Y-97478041D01*
G75*
G02*
X177417547Y-97287123I95459J95459D01*
G01*
G37*
%TD.AperFunction*%
%TD*%
%TO.P,R2,2*%
%TO.N,Net-(C18-Pad1)*%
%TA.AperFunction,SMDPad,CuDef*%
G36*
G01*
X177970520Y-88651109D02*
X177708891Y-88389480D01*
G75*
G02*
X177708891Y-88198562I95459J95459D01*
G01*
X177899810Y-88007643D01*
G75*
G02*
X178090728Y-88007643I95459J-95459D01*
G01*
X178352357Y-88269272D01*
G75*
G02*
X178352357Y-88460190I-95459J-95459D01*
G01*
X178161438Y-88651109D01*
G75*
G02*
X177970520Y-88651109I-95459J95459D01*
G01*
G37*
%TD.AperFunction*%
%TO.P,R2,1*%
%TO.N,HSE_OUT*%
%TA.AperFunction,SMDPad,CuDef*%
G36*
G01*
X177249272Y-89372357D02*
X176987643Y-89110728D01*
G75*
G02*
X176987643Y-88919810I95459J95459D01*
G01*
X177178562Y-88728891D01*
G75*
G02*
X177369480Y-88728891I95459J-95459D01*
G01*
X177631109Y-88990520D01*
G75*
G02*
X177631109Y-89181438I-95459J-95459D01*
G01*
X177440190Y-89372357D01*
G75*
G02*
X177249272Y-89372357I-95459J95459D01*
G01*
G37*
%TD.AperFunction*%
%TD*%
%TO.P,R5,2*%
%TO.N,I2C2_SCL*%
%TA.AperFunction,SMDPad,CuDef*%
G36*
G01*
X162801649Y-88137161D02*
X163063278Y-88398790D01*
G75*
G02*
X163063278Y-88589708I-95459J-95459D01*
G01*
X162872359Y-88780627D01*
G75*
G02*
X162681441Y-88780627I-95459J95459D01*
G01*
X162419812Y-88518998D01*
G75*
G02*
X162419812Y-88328080I95459J95459D01*
G01*
X162610731Y-88137161D01*
G75*
G02*
X162801649Y-88137161I95459J-95459D01*
G01*
G37*
%TD.AperFunction*%
%TO.P,R5,1*%
%TO.N,+3V3*%
%TA.AperFunction,SMDPad,CuDef*%
G36*
G01*
X163522897Y-87415913D02*
X163784526Y-87677542D01*
G75*
G02*
X163784526Y-87868460I-95459J-95459D01*
G01*
X163593607Y-88059379D01*
G75*
G02*
X163402689Y-88059379I-95459J95459D01*
G01*
X163141060Y-87797750D01*
G75*
G02*
X163141060Y-87606832I95459J95459D01*
G01*
X163331979Y-87415913D01*
G75*
G02*
X163522897Y-87415913I95459J-95459D01*
G01*
G37*
%TD.AperFunction*%
%TD*%
%TO.P,R6,2*%
%TO.N,I2C2_SDA*%
%TA.AperFunction,SMDPad,CuDef*%
G36*
G01*
X162045044Y-89445308D02*
X161783415Y-89183679D01*
G75*
G02*
X161783415Y-88992761I95459J95459D01*
G01*
X161974334Y-88801842D01*
G75*
G02*
X162165252Y-88801842I95459J-95459D01*
G01*
X162426881Y-89063471D01*
G75*
G02*
X162426881Y-89254389I-95459J-95459D01*
G01*
X162235962Y-89445308D01*
G75*
G02*
X162045044Y-89445308I-95459J95459D01*
G01*
G37*
%TD.AperFunction*%
%TO.P,R6,1*%
%TO.N,+3V3*%
%TA.AperFunction,SMDPad,CuDef*%
G36*
G01*
X161323796Y-90166556D02*
X161062167Y-89904927D01*
G75*
G02*
X161062167Y-89714009I95459J95459D01*
G01*
X161253086Y-89523090D01*
G75*
G02*
X161444004Y-89523090I95459J-95459D01*
G01*
X161705633Y-89784719D01*
G75*
G02*
X161705633Y-89975637I-95459J-95459D01*
G01*
X161514714Y-90166556D01*
G75*
G02*
X161323796Y-90166556I-95459J95459D01*
G01*
G37*
%TD.AperFunction*%
%TD*%
D33*
%TO.P,U1,1*%
%TO.N,GND*%
X158114000Y-79420000D03*
%TO.P,U1,3*%
%TO.N,Net-(C1-Pad2)*%
X158114000Y-84020000D03*
%TO.P,U1,2*%
%TO.N,+3V3*%
X158114000Y-81720000D03*
D34*
X164414000Y-81720000D03*
%TD*%
D35*
%TO.N,GND*%
X179350000Y-99060000D03*
X126310000Y-80790000D03*
X93550000Y-79640000D03*
X103480000Y-78330000D03*
X72230000Y-92400000D03*
X73450000Y-91030000D03*
X66450000Y-82530000D03*
X73930000Y-82150000D03*
X104620000Y-87280000D03*
X103780000Y-92190000D03*
X103670000Y-91080000D03*
X192220000Y-104890000D03*
X195250000Y-104840000D03*
X195330000Y-96310000D03*
X195240000Y-103620000D03*
X203962000Y-88900000D03*
X203962000Y-81026000D03*
X195072000Y-85344000D03*
X199644000Y-87884000D03*
X53600000Y-100880000D03*
X56910000Y-94920000D03*
X56230000Y-98540000D03*
X141470000Y-106090000D03*
X140350000Y-107325000D03*
X128500000Y-104950000D03*
X124870000Y-103360000D03*
X106800000Y-104890000D03*
X117500000Y-107535000D03*
X120875000Y-105950000D03*
X97150000Y-107530000D03*
X97850000Y-106120000D03*
X98050000Y-103560000D03*
X75400000Y-107600000D03*
X64010000Y-105720000D03*
X76430000Y-106030000D03*
X76390000Y-103430000D03*
X176270000Y-93240000D03*
X190100000Y-87500000D03*
X152700000Y-102600000D03*
X154550000Y-89420000D03*
X104240000Y-83930000D03*
X166080000Y-103940000D03*
X110744000Y-85090000D03*
X43750000Y-96810000D03*
X156170000Y-86310000D03*
X182430000Y-96620000D03*
X84910000Y-91610000D03*
X159980000Y-91070000D03*
X183642000Y-89408000D03*
X181102000Y-84328000D03*
X158059000Y-77650000D03*
X112522000Y-81026000D03*
X173450000Y-75510000D03*
X106550000Y-80190000D03*
X93190000Y-91610000D03*
X172610000Y-81760000D03*
X141550000Y-103640000D03*
X38100000Y-104648000D03*
X117410000Y-83650000D03*
X117430000Y-86610000D03*
X108350000Y-81460000D03*
X180140000Y-98280000D03*
X154084000Y-77840000D03*
X163960000Y-76560000D03*
X167120000Y-84260000D03*
X85040000Y-105070000D03*
X170610000Y-104310000D03*
X172080000Y-102880000D03*
X188468000Y-99822000D03*
X176173680Y-85356479D03*
X176069875Y-87959875D03*
X140250856Y-79387737D03*
%TO.N,+3V3*%
X102130000Y-89770000D03*
X195326000Y-98298000D03*
X58550000Y-95020000D03*
X166140000Y-78010000D03*
X154290000Y-81160000D03*
X176360000Y-82580000D03*
X168850000Y-103210000D03*
X105380000Y-82990000D03*
X188500000Y-109250000D03*
X180500000Y-92100000D03*
X165540000Y-93490000D03*
X160660000Y-90440000D03*
X164020000Y-87140000D03*
X79420000Y-103360000D03*
X144890000Y-103480000D03*
X122174000Y-103378000D03*
X101390000Y-103530000D03*
X198120000Y-85344000D03*
X117420000Y-84630000D03*
X117440000Y-85650000D03*
X171620000Y-101390000D03*
X180550000Y-97280000D03*
X181490000Y-93790000D03*
X166390000Y-84970000D03*
%TO.N,I2C2_SDA*%
X119920000Y-83730000D03*
X119880000Y-82194990D03*
%TO.N,NRST*%
X177360002Y-87630000D03*
%TO.N,HOLD_SW*%
X148400000Y-90800000D03*
X158600000Y-90500000D03*
X162900000Y-86200000D03*
X60910000Y-97550000D03*
%TO.N,I2S2_MCK*%
X158730000Y-94320000D03*
X158725000Y-99250000D03*
%TO.N,SPI3_SCK*%
X170180000Y-92000000D03*
%TO.N,SPI3_MOSI*%
X171250000Y-92000000D03*
%TO.N,+5V*%
X145340000Y-78980000D03*
%TO.N,Net-(FB3-Pad1)*%
X101770000Y-81810000D03*
%TO.N,I2S2_SCLK*%
X154875000Y-96375000D03*
X154875000Y-94325010D03*
%TO.N,I2S2_SDI*%
X156210000Y-94310000D03*
X156200000Y-97375000D03*
%TO.N,I2S2_SDO*%
X157500000Y-94310000D03*
X157500000Y-98275000D03*
%TO.N,Net-(J1-Pad4)*%
X123190000Y-80772000D03*
%TO.N,USB_D+*%
X146633975Y-82906025D03*
X166247282Y-94208400D03*
%TO.N,USB_D-*%
X166247282Y-95011600D03*
X145949409Y-83484892D03*
%TO.N,Net-(D3-Pad2)*%
X42570000Y-99700000D03*
%TO.N,BACK_BTN*%
X189850000Y-93050000D03*
X193802000Y-86868000D03*
%TO.N,MICBIAS*%
X107188000Y-87884000D03*
X83566000Y-85598000D03*
%TO.N,TIM4_CH1*%
X172930000Y-106800000D03*
X178450000Y-101250000D03*
%TO.N,TIM4_CH2*%
X172050000Y-106200000D03*
X178200000Y-99300000D03*
%TO.N,TIM2_CH1*%
X175250000Y-94250000D03*
X102520000Y-108190000D03*
%TO.N,TIM2_CH2*%
X173475000Y-93725000D03*
X102850000Y-106640000D03*
%TO.N,TIM3_CH1*%
X81190000Y-106950000D03*
X169200000Y-96100000D03*
%TO.N,TIM3_CH2*%
X168300000Y-95200000D03*
X81030000Y-103910000D03*
%TO.N,LCD_DC*%
X170400000Y-81700000D03*
%TO.N,LCD_CS*%
X171500000Y-82700000D03*
%TO.N,Net-(C23-Pad1)*%
X174400000Y-80500000D03*
%TO.N,Net-(D4-Pad2)*%
X150010000Y-86300000D03*
%TO.N,Net-(D5-Pad2)*%
X185420000Y-88391998D03*
%TO.N,Net-(D6-Pad2)*%
X189410000Y-104340000D03*
%TO.N,Net-(D7-Pad2)*%
X154630000Y-98330000D03*
%TO.N,LCD_BL*%
X166897292Y-92756599D03*
X157760000Y-100180000D03*
X187198000Y-100330000D03*
X185674000Y-86614000D03*
X154380002Y-86800000D03*
%TO.N,GND*%
X159414999Y-91704999D03*
D36*
%TO.N,USB_CONN_D+*%
X135934685Y-81795315D03*
%TO.N,USB_CONN_D-*%
X135225315Y-82504685D03*
D35*
%TO.N,Net-(D2-Pad2)*%
X147780000Y-76180000D03*
%TO.N,MIC_+*%
X107395479Y-88853479D03*
X83610000Y-88100000D03*
%TO.N,MIC_-*%
X107996521Y-89454521D03*
%TD*%
D37*
%TO.N,GND*%
X178439315Y-96647191D02*
X178453458Y-96647191D01*
X177212485Y-95420361D02*
X178439315Y-96647191D01*
X179287844Y-85701178D02*
X179811103Y-85701178D01*
X178170615Y-84583949D02*
X179287844Y-85701178D01*
X180687915Y-88458895D02*
X180164656Y-88458895D01*
X181734433Y-89505413D02*
X180687915Y-88458895D01*
D38*
X162699119Y-93592490D02*
X162006154Y-92899525D01*
X158004000Y-79310000D02*
X158059000Y-79365000D01*
X155754000Y-79310000D02*
X158004000Y-79310000D01*
D37*
X173676951Y-88455359D02*
X174555192Y-87577118D01*
X91642000Y-91208000D02*
X91742000Y-91308000D01*
D39*
X111900315Y-81647685D02*
X112522000Y-81026000D01*
X111900315Y-82702100D02*
X111900315Y-81647685D01*
X115957384Y-86275010D02*
X115967384Y-86275010D01*
X115967384Y-86277384D02*
X116320000Y-86630000D01*
X115967384Y-86275010D02*
X115967384Y-86277384D01*
X115032437Y-85350063D02*
X115957384Y-86275010D01*
X113047900Y-85350063D02*
X115032437Y-85350063D01*
X114536374Y-83660000D02*
X116330000Y-83660000D01*
X114346689Y-83849685D02*
X114536374Y-83660000D01*
X113047900Y-83849685D02*
X114346689Y-83849685D01*
X170239563Y-103293437D02*
X170329000Y-103204000D01*
X170329000Y-103204000D02*
X170339896Y-103204000D01*
X106252311Y-84849937D02*
X105310000Y-83907626D01*
X105310000Y-83907626D02*
X105310000Y-83900000D01*
X108252100Y-84849937D02*
X106252311Y-84849937D01*
D37*
X91742000Y-91308000D02*
X92000000Y-91600000D01*
D39*
X162006154Y-92871241D02*
X162006154Y-92899525D01*
X51500000Y-85000000D02*
X45000000Y-85000000D01*
X45000000Y-85000000D02*
X43524000Y-85000000D01*
X38100000Y-90424000D02*
X38100000Y-104648000D01*
X43524000Y-85000000D02*
X38100000Y-90424000D01*
X54966000Y-81534000D02*
X55118000Y-81534000D01*
X51500000Y-85000000D02*
X54966000Y-81534000D01*
D40*
X105470000Y-86640000D02*
X105440000Y-86610000D01*
D39*
X105440000Y-86610000D02*
X105699685Y-86350315D01*
X175964441Y-86585620D02*
X175964442Y-86585620D01*
D37*
X175058882Y-87577118D02*
X175260000Y-87376000D01*
X174555192Y-87577118D02*
X175058882Y-87577118D01*
D39*
X104826000Y-87280000D02*
X105496000Y-86610000D01*
X104620000Y-87280000D02*
X104826000Y-87280000D01*
D37*
X154084000Y-77840000D02*
X154284000Y-77840000D01*
X154284000Y-77840000D02*
X155754000Y-79310000D01*
D39*
X164500000Y-77100000D02*
X163960000Y-76560000D01*
X165170000Y-77100000D02*
X164500000Y-77100000D01*
D38*
X178453458Y-96647191D02*
X179220589Y-97414322D01*
D41*
X108350000Y-82152541D02*
X108899559Y-82702100D01*
X108350000Y-81460000D02*
X108350000Y-82152541D01*
D37*
X169186823Y-87394699D02*
X168478288Y-86686164D01*
X168478288Y-86686164D02*
X168478288Y-85682072D01*
X168478288Y-85682072D02*
X168447897Y-85651681D01*
D38*
X168447897Y-85651681D02*
X167740790Y-84944574D01*
D39*
X93550000Y-81000500D02*
X93575500Y-81026000D01*
X93550000Y-79640000D02*
X93550000Y-81000500D01*
X67318000Y-82530000D02*
X67592000Y-82804000D01*
X66450000Y-82530000D02*
X67318000Y-82530000D01*
X53600000Y-101860000D02*
X53622000Y-101882000D01*
X53600000Y-100880000D02*
X53600000Y-101860000D01*
X57392000Y-98540000D02*
X57404000Y-98552000D01*
X56230000Y-98540000D02*
X57392000Y-98540000D01*
X56910000Y-95970000D02*
X56952000Y-96012000D01*
X56910000Y-94920000D02*
X56910000Y-95970000D01*
X64510000Y-105220000D02*
X64010000Y-105720000D01*
X64510000Y-104670000D02*
X64510000Y-105220000D01*
X76390000Y-103430000D02*
X77350000Y-103430000D01*
X77680000Y-106030000D02*
X77710000Y-106000000D01*
X76430000Y-106030000D02*
X77680000Y-106030000D01*
X75400000Y-107600000D02*
X74310000Y-107600000D01*
X85090000Y-105120000D02*
X85040000Y-105070000D01*
X86150000Y-105120000D02*
X85090000Y-105120000D01*
X98070000Y-103540000D02*
X98050000Y-103560000D01*
X99210000Y-103540000D02*
X98070000Y-103540000D01*
X97870000Y-106100000D02*
X97850000Y-106120000D01*
X99180000Y-106100000D02*
X97870000Y-106100000D01*
X97150000Y-107530000D02*
X96070000Y-107530000D01*
X128510000Y-104960000D02*
X128500000Y-104950000D01*
X129490000Y-104960000D02*
X128510000Y-104960000D01*
X138955000Y-107325000D02*
X140350000Y-107325000D01*
X141510000Y-106050000D02*
X141470000Y-106090000D01*
X142950000Y-106050000D02*
X141510000Y-106050000D01*
X142560000Y-103640000D02*
X142595000Y-103675000D01*
X141550000Y-103640000D02*
X142560000Y-103640000D01*
X166111907Y-103940000D02*
X167012470Y-103039437D01*
X166080000Y-103940000D02*
X166111907Y-103940000D01*
X170329000Y-104029000D02*
X170610000Y-104310000D01*
X170329000Y-103204000D02*
X170329000Y-104029000D01*
X171687334Y-102487334D02*
X172080000Y-102880000D01*
X171056562Y-102487334D02*
X171687334Y-102487334D01*
X179350000Y-98957947D02*
X178460528Y-98068475D01*
X179350000Y-99060000D02*
X179350000Y-98957947D01*
X179299411Y-97439411D02*
X180140000Y-98280000D01*
X179220589Y-97439411D02*
X179299411Y-97439411D01*
X182430000Y-96613935D02*
X181510654Y-95694589D01*
X182430000Y-96620000D02*
X182430000Y-96613935D01*
X195072000Y-85344000D02*
X196116000Y-85344000D01*
X199644000Y-87884000D02*
X198204000Y-87884000D01*
X202890000Y-88900000D02*
X203962000Y-88900000D01*
X203962000Y-82014000D02*
X203990000Y-82042000D01*
X203962000Y-81026000D02*
X203962000Y-82014000D01*
X179811102Y-85618898D02*
X181102000Y-84328000D01*
X179811102Y-85701178D02*
X179811102Y-85618898D01*
X183342001Y-89707999D02*
X181937020Y-89707999D01*
X181937020Y-89707999D02*
X181734433Y-89505412D01*
X183642000Y-89408000D02*
X183342001Y-89707999D01*
X175964441Y-86585620D02*
X175964441Y-86585621D01*
X176473679Y-85656478D02*
X176173680Y-85356479D01*
X175964441Y-86585620D02*
X176473679Y-86076382D01*
X176473679Y-86076382D02*
X176473679Y-85656478D01*
X175402727Y-87292727D02*
X176069875Y-87959875D01*
X175257335Y-87292727D02*
X175402727Y-87292727D01*
X173400000Y-81760000D02*
X173410000Y-81750000D01*
X172610000Y-81760000D02*
X173400000Y-81760000D01*
X158059000Y-79365000D02*
X158114000Y-79420000D01*
X158059000Y-77650000D02*
X158059000Y-79365000D01*
X157410000Y-86310000D02*
X157700000Y-86600000D01*
X156170000Y-86310000D02*
X157410000Y-86310000D01*
X195330000Y-97306000D02*
X195326000Y-97310000D01*
X195330000Y-96310000D02*
X195330000Y-97306000D01*
X193194000Y-104890000D02*
X193206000Y-104902000D01*
X192220000Y-104890000D02*
X193194000Y-104890000D01*
X196280000Y-104840000D02*
X196342000Y-104902000D01*
X195250000Y-104840000D02*
X196280000Y-104840000D01*
X195240000Y-102278000D02*
X195326000Y-102192000D01*
X195240000Y-103620000D02*
X195240000Y-102278000D01*
X167120000Y-84323784D02*
X167740790Y-84944574D01*
X167120000Y-84260000D02*
X167120000Y-84323784D01*
X126298000Y-80802000D02*
X126310000Y-80790000D01*
X125248000Y-80802000D02*
X126298000Y-80802000D01*
D41*
X117400000Y-83660000D02*
X117410000Y-83650000D01*
X116330000Y-83660000D02*
X117400000Y-83660000D01*
X117410000Y-86630000D02*
X117430000Y-86610000D01*
X116320000Y-86630000D02*
X117410000Y-86630000D01*
X104668000Y-91080000D02*
X104718000Y-91030000D01*
X103670000Y-91080000D02*
X104668000Y-91080000D01*
X104574000Y-92190000D02*
X104718000Y-92046000D01*
X103780000Y-92190000D02*
X104574000Y-92190000D01*
X105280000Y-83930000D02*
X105310000Y-83900000D01*
X104240000Y-83930000D02*
X105280000Y-83930000D01*
X106550000Y-81160000D02*
X106390000Y-81320000D01*
X106550000Y-80190000D02*
X106550000Y-81160000D01*
X103480000Y-79754500D02*
X103481500Y-79756000D01*
X103480000Y-78330000D02*
X103480000Y-79754500D01*
X91982500Y-91610000D02*
X91932500Y-91560000D01*
X93190000Y-91610000D02*
X91982500Y-91610000D01*
X86157500Y-91610000D02*
X86207500Y-91560000D01*
X84910000Y-91610000D02*
X86157500Y-91610000D01*
X73930000Y-83535000D02*
X73961000Y-83566000D01*
X73930000Y-82150000D02*
X73930000Y-83535000D01*
X73406000Y-90986000D02*
X73450000Y-91030000D01*
X73406000Y-90050000D02*
X73406000Y-90986000D01*
X71882000Y-92052000D02*
X72230000Y-92400000D01*
X71882000Y-91082500D02*
X71882000Y-92052000D01*
D40*
X140270750Y-79387737D02*
X140250856Y-79387737D01*
X140688487Y-78970000D02*
X140270750Y-79387737D01*
X141650000Y-78970000D02*
X140688487Y-78970000D01*
D39*
X106800000Y-104890000D02*
X107600000Y-104890000D01*
X124010000Y-103360000D02*
X124870000Y-103360000D01*
X160678155Y-91768155D02*
X161270763Y-91768155D01*
X159980000Y-91070000D02*
X160678155Y-91768155D01*
X178035964Y-93539999D02*
X178595988Y-92979975D01*
X176569999Y-93539999D02*
X178035964Y-93539999D01*
X176270000Y-93240000D02*
X176569999Y-93539999D01*
D38*
%TO.N,Net-(C1-Pad2)*%
X157271500Y-84862500D02*
X158114000Y-84020000D01*
X155804000Y-84862500D02*
X157271500Y-84862500D01*
X159600000Y-85506000D02*
X158114000Y-84020000D01*
X159600000Y-86600000D02*
X159600000Y-85506000D01*
D37*
%TO.N,+3V3*%
X178230719Y-95066807D02*
X179132280Y-95968369D01*
X177566039Y-95066807D02*
X178230719Y-95066807D01*
X179260668Y-92301153D02*
X179274810Y-92301153D01*
X167769074Y-86684057D02*
X167769074Y-86330503D01*
X168833270Y-87748252D02*
X167769074Y-86684057D01*
X163667855Y-92913667D02*
X163377941Y-92913667D01*
X164237076Y-92344446D02*
X163667855Y-92913667D01*
D38*
X167769074Y-86330503D02*
X167061967Y-85623396D01*
X162684976Y-92220703D02*
X162684976Y-92192418D01*
X163377941Y-92913667D02*
X162684976Y-92220703D01*
X179132280Y-95968369D02*
X179814638Y-95286011D01*
X157604000Y-81210000D02*
X158114000Y-81720000D01*
X155754000Y-81210000D02*
X157604000Y-81210000D01*
X164414000Y-81720000D02*
X158114000Y-81720000D01*
D39*
X113047900Y-84349811D02*
X113069711Y-84328000D01*
X115499937Y-84849937D02*
X116290000Y-85640000D01*
X113047900Y-84849937D02*
X115499937Y-84849937D01*
X116059811Y-84349811D02*
X116330000Y-84620000D01*
X113047900Y-84349811D02*
X116059811Y-84349811D01*
X106390000Y-82641584D02*
X106390000Y-82280000D01*
X107598101Y-83849685D02*
X106390000Y-82641584D01*
X108252100Y-83849685D02*
X107598101Y-83849685D01*
X179055607Y-92081950D02*
X177828534Y-92081950D01*
X177828534Y-92081950D02*
X177566038Y-92344446D01*
X179274810Y-92301153D02*
X179055607Y-92081950D01*
D40*
X188600000Y-109350000D02*
X188500000Y-109250000D01*
X191650000Y-109350000D02*
X188600000Y-109350000D01*
D39*
X180298847Y-92301153D02*
X180500000Y-92100000D01*
X179274810Y-92301153D02*
X180298847Y-92301153D01*
X162684976Y-92192419D02*
X162684976Y-92220703D01*
X161383900Y-89816100D02*
X161400000Y-89800000D01*
X161383900Y-89844823D02*
X161383900Y-89816100D01*
X78920000Y-106000000D02*
X79910000Y-106000000D01*
X78790000Y-105870000D02*
X78920000Y-106000000D01*
X78790000Y-103890000D02*
X78790000Y-105870000D01*
X78330000Y-103430000D02*
X78790000Y-103890000D01*
X122584998Y-106000000D02*
X123075000Y-106000000D01*
X121920000Y-105335002D02*
X122584998Y-106000000D01*
X121920000Y-103632000D02*
X121920000Y-105335002D01*
X122174000Y-103378000D02*
X121920000Y-103632000D01*
X197076000Y-87302002D02*
X196494002Y-87884000D01*
X196494002Y-87884000D02*
X196004000Y-87884000D01*
X197076000Y-85344000D02*
X197076000Y-87302002D01*
X195326000Y-98270000D02*
X195326000Y-99992000D01*
X116290000Y-85640000D02*
X116320000Y-85670000D01*
D37*
X170377740Y-101207471D02*
X170377740Y-101656260D01*
X169540377Y-100370108D02*
X170377740Y-101207471D01*
X170377740Y-101656260D02*
X170377740Y-101808512D01*
D38*
X179814638Y-95198573D02*
X180376605Y-94636605D01*
X179814638Y-95286011D02*
X179814638Y-95198573D01*
X180443911Y-97280000D02*
X179832316Y-96668405D01*
X180550000Y-97280000D02*
X180443911Y-97280000D01*
X180376605Y-94636605D02*
X180414638Y-94598573D01*
X179899411Y-96735500D02*
X179132280Y-95968369D01*
X179899411Y-96760589D02*
X179899411Y-96735500D01*
D37*
X167769074Y-86330503D02*
X167839785Y-86330503D01*
D39*
X144030000Y-103799979D02*
X143825011Y-103594990D01*
X144030000Y-105710000D02*
X144030000Y-103799979D01*
X144370000Y-106050000D02*
X144030000Y-105710000D01*
X145150000Y-106050000D02*
X144370000Y-106050000D01*
X59113998Y-98552000D02*
X59604000Y-98552000D01*
X58510000Y-97948002D02*
X59113998Y-98552000D01*
X58510000Y-96330000D02*
X58510000Y-97948002D01*
X58192000Y-96012000D02*
X58510000Y-96330000D01*
X57912000Y-96012000D02*
X58192000Y-96012000D01*
X58550000Y-95374000D02*
X57912000Y-96012000D01*
X58550000Y-95020000D02*
X58550000Y-95374000D01*
X78380000Y-103360000D02*
X78310000Y-103430000D01*
X79420000Y-103360000D02*
X78380000Y-103360000D01*
X101380000Y-103540000D02*
X101390000Y-103530000D01*
X100170000Y-103540000D02*
X101380000Y-103540000D01*
X100600000Y-106100000D02*
X101380000Y-106100000D01*
X100380000Y-105880000D02*
X100600000Y-106100000D01*
X100380000Y-103750000D02*
X100380000Y-105880000D01*
X100170000Y-103540000D02*
X100380000Y-103750000D01*
X143750000Y-103480000D02*
X143555000Y-103675000D01*
X144890000Y-103480000D02*
X143750000Y-103480000D01*
X168965356Y-103210000D02*
X169650178Y-102525178D01*
X168850000Y-103210000D02*
X168965356Y-103210000D01*
X170796252Y-101390000D02*
X170377740Y-101808512D01*
X171620000Y-101390000D02*
X170796252Y-101390000D01*
X180681427Y-94598573D02*
X181490000Y-93790000D01*
X180414638Y-94598573D02*
X180681427Y-94598573D01*
X198120000Y-85344000D02*
X197076000Y-85344000D01*
X175550784Y-83389216D02*
X176360000Y-82580000D01*
X175550784Y-83399545D02*
X175550784Y-83389216D01*
X166140000Y-77110000D02*
X166130000Y-77100000D01*
X166140000Y-78010000D02*
X166140000Y-77110000D01*
X155704000Y-81160000D02*
X155754000Y-81210000D01*
X154290000Y-81160000D02*
X155704000Y-81160000D01*
X166408572Y-84970000D02*
X167061968Y-85623396D01*
X166390000Y-84970000D02*
X166408572Y-84970000D01*
D41*
X117410000Y-84620000D02*
X117420000Y-84630000D01*
X116330000Y-84620000D02*
X117410000Y-84620000D01*
X117420000Y-85670000D02*
X117440000Y-85650000D01*
X116320000Y-85670000D02*
X117420000Y-85670000D01*
X103225000Y-89770000D02*
X103345000Y-89650000D01*
X102130000Y-89770000D02*
X103225000Y-89770000D01*
X105680000Y-82990000D02*
X106390000Y-82280000D01*
X105380000Y-82990000D02*
X105680000Y-82990000D01*
D39*
X160788723Y-90440000D02*
X161383900Y-89844823D01*
X160660000Y-90440000D02*
X160788723Y-90440000D01*
X163462793Y-87697207D02*
X164020000Y-87140000D01*
X163462793Y-87737646D02*
X163462793Y-87697207D01*
X123032000Y-103378000D02*
X123050000Y-103360000D01*
X122174000Y-103378000D02*
X123032000Y-103378000D01*
X163954273Y-93490000D02*
X163377941Y-92913668D01*
X165540000Y-93490000D02*
X163954273Y-93490000D01*
D37*
%TO.N,Net-(C15-Pad2)*%
X163271875Y-90672139D02*
X162366778Y-90672139D01*
X164590629Y-91990893D02*
X163271875Y-90672139D01*
%TO.N,HSE_IN*%
X181204102Y-87094177D02*
X181366738Y-87256813D01*
X179987881Y-87094177D02*
X181204102Y-87094177D01*
X181366738Y-87780072D02*
X181366738Y-87256813D01*
X182413256Y-88826590D02*
X181366738Y-87780072D01*
D39*
X177147405Y-89969991D02*
X177630009Y-89969991D01*
X176187163Y-90930233D02*
X177147405Y-89969991D01*
X176151825Y-90930233D02*
X176187163Y-90930233D01*
X178920407Y-88161651D02*
X179987881Y-87094177D01*
X178920407Y-88679593D02*
X178920407Y-88161651D01*
X177630009Y-89969991D02*
X178920407Y-88679593D01*
D38*
%TO.N,Net-(F1-Pad2)*%
X154201500Y-82737500D02*
X154044000Y-82895000D01*
X155804000Y-82737500D02*
X154201500Y-82737500D01*
D37*
%TO.N,BOOT0*%
X177018031Y-97347227D02*
X177739280Y-97347227D01*
X176151825Y-96481021D02*
X177018031Y-97347227D01*
%TO.N,HSE_OUT*%
X176417738Y-89957213D02*
X175798272Y-90576679D01*
X176422787Y-89957213D02*
X176417738Y-89957213D01*
D39*
X177129376Y-89250624D02*
X176422787Y-89957213D01*
D37*
%TO.N,I2C2_SCL*%
X165297736Y-91283786D02*
X162741545Y-88727595D01*
X162741545Y-88727595D02*
X162741545Y-88458895D01*
D39*
X114008441Y-83349559D02*
X114438000Y-82920000D01*
X113047900Y-83349559D02*
X114008441Y-83349559D01*
X121100000Y-82920000D02*
X121100000Y-82950000D01*
X114438000Y-82920000D02*
X121100000Y-82920000D01*
X121100000Y-82950000D02*
X125950000Y-87800000D01*
X162082651Y-87800000D02*
X162741545Y-88458894D01*
X125950000Y-87800000D02*
X162082651Y-87800000D01*
D37*
%TO.N,I2C2_SDA*%
X162430418Y-89123575D02*
X162105149Y-89123575D01*
X164944183Y-91637340D02*
X162430418Y-89123575D01*
D39*
X114019490Y-82702100D02*
X114526600Y-82194990D01*
X114526600Y-82194990D02*
X119880000Y-82194990D01*
X112400441Y-82702100D02*
X114019490Y-82702100D01*
X161767575Y-89123575D02*
X162105148Y-89123575D01*
X161034000Y-88390000D02*
X161767575Y-89123575D01*
X124580000Y-88390000D02*
X161034000Y-88390000D01*
X119920000Y-83730000D02*
X124580000Y-88390000D01*
%TO.N,NRST*%
X175444718Y-90223126D02*
X176312443Y-89355401D01*
X176312133Y-89355091D02*
X176312133Y-88677869D01*
X176312133Y-88677869D02*
X177360002Y-87630000D01*
%TO.N,FIRE_LED*%
X46282000Y-104902000D02*
X43800000Y-102420000D01*
X58420000Y-104902000D02*
X46282000Y-104902000D01*
X60960000Y-102362000D02*
X58420000Y-104902000D01*
X145034000Y-102362000D02*
X60960000Y-102362000D01*
X146558000Y-103886000D02*
X145034000Y-102362000D01*
X166358396Y-97188128D02*
X166323058Y-97188128D01*
X159625186Y-103886000D02*
X146558000Y-103886000D01*
X166323058Y-97188128D02*
X159625186Y-103886000D01*
%TO.N,FIRE_BTN*%
X145923000Y-101092000D02*
X161747418Y-101092000D01*
X145415000Y-101600000D02*
X145923000Y-101092000D01*
X61702000Y-101600000D02*
X145415000Y-101600000D01*
X161747418Y-101092000D02*
X166004843Y-96834575D01*
X59604000Y-99502000D02*
X61702000Y-101600000D01*
%TO.N,HOLD_SW*%
X158300000Y-90800000D02*
X158600000Y-90500000D01*
X148400000Y-90800000D02*
X158300000Y-90800000D01*
X164400000Y-89678944D02*
X165651289Y-90930233D01*
X163900000Y-86200000D02*
X164800000Y-87100000D01*
X164800000Y-88400000D02*
X164400000Y-88800000D01*
X164800000Y-87100000D02*
X164800000Y-88400000D01*
X164400000Y-88800000D02*
X164400000Y-89678944D01*
X162900000Y-86200000D02*
X163900000Y-86200000D01*
X59656000Y-97550000D02*
X59604000Y-97602000D01*
X60910000Y-97550000D02*
X59656000Y-97550000D01*
%TO.N,I2S2_MCK*%
X162882310Y-99250000D02*
X165651289Y-96481021D01*
X158725000Y-99250000D02*
X162882310Y-99250000D01*
X156580000Y-92170000D02*
X158730000Y-94320000D01*
X120497000Y-92170000D02*
X156580000Y-92170000D01*
X114177189Y-85850189D02*
X120497000Y-92170000D01*
X113047900Y-85850189D02*
X114177189Y-85850189D01*
%TO.N,SWDIO*%
X202374999Y-108374999D02*
X203550000Y-109550000D01*
X179513825Y-108374999D02*
X202374999Y-108374999D01*
X170542394Y-99403568D02*
X179513825Y-108374999D01*
X168833270Y-99663002D02*
X169427735Y-99068537D01*
X170542394Y-99321532D02*
X170542394Y-99403568D01*
X170289399Y-99068537D02*
X170542394Y-99321532D01*
X169427735Y-99068537D02*
X170289399Y-99068537D01*
%TO.N,SPI3_SCK*%
X170500000Y-92320000D02*
X170180000Y-92000000D01*
X170500000Y-97193158D02*
X170500000Y-92320000D01*
X172969844Y-99663002D02*
X170500000Y-97193158D01*
%TO.N,SPI3_MOSI*%
X171250000Y-96528944D02*
X171250000Y-92000000D01*
X173676951Y-98955895D02*
X171250000Y-96528944D01*
%TO.N,SWO*%
X174384058Y-98248788D02*
X174978523Y-98843253D01*
X206279990Y-107199990D02*
X208630000Y-109550000D01*
X183335260Y-107199990D02*
X206279990Y-107199990D01*
X174384058Y-98248788D02*
X183335260Y-107199990D01*
D37*
%TO.N,I2S2_WS*%
X164237068Y-95066800D02*
X164237060Y-95066808D01*
D39*
X118878347Y-95066808D02*
X164237076Y-95066808D01*
X111900315Y-88088776D02*
X118878347Y-95066808D01*
X111900315Y-87497900D02*
X111900315Y-88088776D01*
D37*
%TO.N,Net-(C16-Pad2)*%
X168182732Y-101020647D02*
X168182732Y-101826748D01*
X169186823Y-100016555D02*
X168182732Y-101020647D01*
D39*
%TO.N,Net-(C18-Pad1)*%
X178609021Y-87750979D02*
X178609021Y-86903259D01*
X178030624Y-88329376D02*
X178609021Y-87750979D01*
X178609021Y-86380000D02*
X177491793Y-85262772D01*
X178609021Y-86903259D02*
X178609021Y-86380000D01*
D40*
%TO.N,+5V*%
X143860000Y-78980000D02*
X143850000Y-78970000D01*
X145340000Y-78980000D02*
X143860000Y-78980000D01*
D39*
%TO.N,Net-(C24-Pad2)*%
X104704000Y-79153500D02*
X105306500Y-79756000D01*
X104704000Y-78232000D02*
X104704000Y-79153500D01*
X105306500Y-81383500D02*
X104902000Y-81788000D01*
X105306500Y-79756000D02*
X105306500Y-81383500D01*
%TO.N,HP_L*%
X107340000Y-82878808D02*
X107806867Y-83345675D01*
X107806867Y-83345675D02*
X108252100Y-83345675D01*
X107340000Y-79908000D02*
X107340000Y-82878808D01*
X105664000Y-78232000D02*
X107340000Y-79908000D01*
%TO.N,Net-(C25-Pad2)*%
X95250000Y-80875500D02*
X95400500Y-81026000D01*
X95250000Y-79474000D02*
X95250000Y-80875500D01*
X95203500Y-81223000D02*
X95400500Y-81026000D01*
X95203500Y-83058000D02*
X95203500Y-81223000D01*
%TO.N,HP_R*%
X96520000Y-77216000D02*
X95250000Y-78486000D01*
X106680000Y-77216000D02*
X96520000Y-77216000D01*
X109399685Y-79935685D02*
X106680000Y-77216000D01*
X95250000Y-78486000D02*
X95250000Y-78514000D01*
X109399685Y-82702100D02*
X109399685Y-79935685D01*
D37*
%TO.N,Net-(C26-Pad2)*%
X88032500Y-92607500D02*
X87580000Y-93060000D01*
X88032500Y-91560000D02*
X88032500Y-92607500D01*
X88032500Y-91560000D02*
X88032500Y-89710000D01*
D39*
%TO.N,OUT_L*%
X86620000Y-93370000D02*
X86620000Y-93060000D01*
X87230000Y-93980000D02*
X86620000Y-93370000D01*
X96550000Y-93980000D02*
X87230000Y-93980000D01*
X104679811Y-85850189D02*
X96550000Y-93980000D01*
X108252100Y-85850189D02*
X104679811Y-85850189D01*
D37*
%TO.N,Net-(C27-Pad2)*%
X89957500Y-91410000D02*
X90107500Y-91560000D01*
X89957500Y-89560000D02*
X89957500Y-91410000D01*
X90107500Y-92627500D02*
X90540000Y-93060000D01*
X90107500Y-91560000D02*
X90107500Y-92627500D01*
D39*
%TO.N,OUT_R*%
X96510000Y-93060000D02*
X91500000Y-93060000D01*
X104219937Y-85350063D02*
X96510000Y-93060000D01*
X108252100Y-85350063D02*
X104219937Y-85350063D01*
D41*
%TO.N,Net-(FB3-Pad1)*%
X102755000Y-81810000D02*
X102777000Y-81788000D01*
X101770000Y-81810000D02*
X102755000Y-81810000D01*
D39*
%TO.N,Net-(FB4-Pad1)*%
X97328500Y-81215000D02*
X96960500Y-80847000D01*
X97328500Y-83058000D02*
X97328500Y-81215000D01*
%TO.N,Net-(FB5-Pad1)*%
X86057500Y-89560000D02*
X87310000Y-88307500D01*
X91981667Y-85970000D02*
X91981667Y-86778333D01*
X90452500Y-88307500D02*
X87310000Y-88307500D01*
X91981667Y-86778333D02*
X90452500Y-88307500D01*
%TO.N,Net-(FB6-Pad1)*%
X93472000Y-85344000D02*
X89075000Y-80947000D01*
X89075000Y-80947000D02*
X87184667Y-80947000D01*
X93472000Y-88170500D02*
X93472000Y-85344000D01*
X92082500Y-89560000D02*
X93472000Y-88170500D01*
%TO.N,I2S2_SCLK*%
X163635990Y-96375000D02*
X164590629Y-95420361D01*
X154875000Y-96375000D02*
X163635990Y-96375000D01*
X118925552Y-94325010D02*
X154875000Y-94325010D01*
X112400441Y-87799899D02*
X118925552Y-94325010D01*
X112400441Y-87497900D02*
X112400441Y-87799899D01*
%TO.N,I2S2_SDI*%
X155500000Y-93600000D02*
X156210000Y-94310000D01*
X119797459Y-93600000D02*
X155500000Y-93600000D01*
X113047900Y-86850441D02*
X119797459Y-93600000D01*
X163343096Y-97375000D02*
X164944182Y-95773914D01*
X156200000Y-97375000D02*
X163343096Y-97375000D01*
%TO.N,I2S2_SDO*%
X113047900Y-86350315D02*
X113775315Y-86350315D01*
X113775315Y-86350315D02*
X120285000Y-92860000D01*
X156050000Y-92860000D02*
X157500000Y-94310000D01*
X120285000Y-92860000D02*
X156050000Y-92860000D01*
X163150204Y-98275000D02*
X165297736Y-96127468D01*
X157500000Y-98275000D02*
X163150204Y-98275000D01*
D41*
%TO.N,Net-(J1-Pad4)*%
X124198000Y-80772000D02*
X124228000Y-80802000D01*
X123190000Y-80772000D02*
X124198000Y-80772000D01*
D42*
%TO.N,USB_CONN_D+*%
X141445000Y-79920000D02*
X141650000Y-79920000D01*
D41*
%TO.N,USB_CONN_D-*%
X141335001Y-78104999D02*
X141660000Y-77780000D01*
D42*
X141445000Y-78020000D02*
X141650000Y-78020000D01*
D41*
%TO.N,USB_D+*%
X168444361Y-99309448D02*
X168479716Y-99309448D01*
X168479716Y-99309448D02*
X168479716Y-99274094D01*
D42*
X168479716Y-99281966D02*
X169190486Y-98571196D01*
X168479716Y-99309448D02*
X168479716Y-99281966D01*
X169190486Y-98571196D02*
X169190486Y-97234197D01*
X167270557Y-94807411D02*
X166671546Y-94208400D01*
X169190486Y-97234197D02*
X167270557Y-95314268D01*
X167270557Y-95314268D02*
X167270557Y-94807411D01*
X166671546Y-94208400D02*
X166247282Y-94208400D01*
D41*
X143850000Y-80122050D02*
X143850000Y-79920000D01*
%TO.N,USB_D-*%
X168126163Y-98991250D02*
X168126163Y-98955895D01*
X168126163Y-98955895D02*
X168161517Y-98955895D01*
D42*
X168126163Y-98955895D02*
X168726183Y-98355875D01*
X168726183Y-98355875D02*
X168726183Y-97490501D01*
X168726183Y-97490501D02*
X166247282Y-95011600D01*
D39*
%TO.N,SW1_A*%
X196276000Y-96200000D02*
X196276000Y-99992000D01*
X191022418Y-90946418D02*
X196276000Y-96200000D01*
X177585192Y-90946418D02*
X191022418Y-90946418D01*
X176894270Y-91637340D02*
X177585192Y-90946418D01*
X176858932Y-91637340D02*
X176894270Y-91637340D01*
%TO.N,SW1_B*%
X190146428Y-91396428D02*
X194376000Y-95626000D01*
X194376000Y-95626000D02*
X194376000Y-99992000D01*
X177806950Y-91396428D02*
X190146428Y-91396428D01*
X177212485Y-91990893D02*
X177806950Y-91396428D01*
%TO.N,SW1_BTN*%
X176505378Y-91283786D02*
X177369164Y-90420000D01*
X181717887Y-90420000D02*
X181721887Y-90424000D01*
X177369164Y-90420000D02*
X181717887Y-90420000D01*
X194414000Y-90424000D02*
X196004000Y-88834000D01*
X181721887Y-90424000D02*
X194414000Y-90424000D01*
%TO.N,Net-(D3-Pad2)*%
X43800000Y-100930000D02*
X42570000Y-99700000D01*
X43800000Y-101400000D02*
X43800000Y-100930000D01*
%TO.N,BACK_BTN*%
X195938000Y-86868000D02*
X196004000Y-86934000D01*
X193802000Y-86868000D02*
X195938000Y-86868000D01*
X179937313Y-93162687D02*
X189737313Y-93162687D01*
X179020000Y-94080000D02*
X179937313Y-93162687D01*
X176750000Y-94080000D02*
X179020000Y-94080000D01*
X189737313Y-93162687D02*
X189850000Y-93050000D01*
X175091165Y-97541681D02*
X175055825Y-97541681D01*
X174496700Y-96333300D02*
X176750000Y-94080000D01*
X174496700Y-96982556D02*
X174496700Y-96333300D01*
X175055825Y-97541681D02*
X174496700Y-96982556D01*
%TO.N,AVDD*%
X107644685Y-86350315D02*
X108252100Y-86350315D01*
D40*
X105678000Y-91030000D02*
X105678000Y-92046000D01*
X105700000Y-90120000D02*
X105446000Y-89866000D01*
X105678000Y-89858000D02*
X105470000Y-89650000D01*
X105678000Y-91030000D02*
X105678000Y-89858000D01*
D39*
X106715685Y-86350315D02*
X108252100Y-86350315D01*
X106456000Y-86610000D02*
X106715685Y-86350315D01*
X106456000Y-88664000D02*
X105470000Y-89650000D01*
X106456000Y-86610000D02*
X106456000Y-88664000D01*
%TO.N,MICBIAS*%
X108252100Y-86850441D02*
X108194559Y-86850441D01*
X83566000Y-82653500D02*
X83462500Y-82550000D01*
X83566000Y-85598000D02*
X83566000Y-82653500D01*
X108221559Y-86850441D02*
X107188000Y-87884000D01*
X108252100Y-86850441D02*
X108221559Y-86850441D01*
%TO.N,Net-(C33-Pad2)*%
X106719811Y-84349811D02*
X108252100Y-84349811D01*
X106270000Y-83900000D02*
X106719811Y-84349811D01*
%TO.N,Net-(C19-Pad2)*%
X71985500Y-89154000D02*
X71882000Y-89257500D01*
X74478000Y-89154000D02*
X71985500Y-89154000D01*
X71882000Y-88646000D02*
X70612000Y-87376000D01*
X71882000Y-89257500D02*
X71882000Y-88646000D01*
D40*
%TO.N,VCC*%
X195150000Y-109550000D02*
X194950000Y-109350000D01*
X197650000Y-109550000D02*
X195150000Y-109550000D01*
D38*
%TO.N,Net-(D2-Pad1)*%
X150514000Y-80940000D02*
X154044000Y-84470000D01*
X147860000Y-80940000D02*
X150514000Y-80940000D01*
X147800000Y-80880000D02*
X147860000Y-80940000D01*
D39*
%TO.N,TIM1_CH1*%
X160023398Y-104902000D02*
X145348000Y-104902000D01*
X167030163Y-97895235D02*
X160023398Y-104902000D01*
X145348000Y-104902000D02*
X145150000Y-105100000D01*
X167065503Y-97895235D02*
X167030163Y-97895235D01*
%TO.N,TIM1_CH2*%
X145930000Y-107000000D02*
X145150000Y-107000000D01*
X146504000Y-106426000D02*
X145930000Y-107000000D01*
X159241844Y-106426000D02*
X146504000Y-106426000D01*
X167419056Y-98248788D02*
X159241844Y-106426000D01*
%TO.N,TIM4_CH1*%
X175506590Y-97250000D02*
X175444718Y-97188128D01*
X175541928Y-97250000D02*
X175506590Y-97250000D01*
X176039183Y-97782593D02*
X175444718Y-97188128D01*
X176039183Y-98839183D02*
X176039183Y-97782593D01*
X178450000Y-101250000D02*
X176039183Y-98839183D01*
X126475000Y-110350000D02*
X123075000Y-106950000D01*
X169050000Y-110350000D02*
X126475000Y-110350000D01*
X169660000Y-110340000D02*
X169060000Y-110340000D01*
X172930000Y-107070000D02*
X169660000Y-110340000D01*
X169060000Y-110340000D02*
X169050000Y-110350000D01*
X172930000Y-106800000D02*
X172930000Y-107070000D01*
%TO.N,TIM4_CH2*%
X178200000Y-99236304D02*
X175798271Y-96834575D01*
X178200000Y-99300000D02*
X178200000Y-99236304D01*
X123115000Y-105090000D02*
X123075000Y-105050000D01*
X124450000Y-105090000D02*
X123115000Y-105090000D01*
X129190000Y-109830000D02*
X124450000Y-105090000D01*
X168420000Y-109830000D02*
X129190000Y-109830000D01*
X172050000Y-106200000D02*
X168420000Y-109830000D01*
%TO.N,TIM2_CH1*%
X172969844Y-87748252D02*
X172934506Y-87748252D01*
X172969844Y-87748252D02*
X172375380Y-88342716D01*
X172375380Y-88342716D02*
X172375380Y-91375380D01*
X172375380Y-91375380D02*
X175250000Y-94250000D01*
X101380000Y-107050000D02*
X102520000Y-108190000D01*
%TO.N,TIM2_CH2*%
X172616291Y-87394699D02*
X172616291Y-87359361D01*
X171925371Y-88085619D02*
X171925371Y-92175371D01*
X171925371Y-92175371D02*
X173475000Y-93725000D01*
X172616291Y-87394699D02*
X171925371Y-88085619D01*
X173475000Y-93725000D02*
X173500000Y-93750000D01*
X102850000Y-106032798D02*
X102850000Y-106640000D01*
X101967202Y-105150000D02*
X102850000Y-106032798D01*
X101380000Y-105150000D02*
X101967202Y-105150000D01*
%TO.N,TIM3_CH1*%
X169200000Y-90236304D02*
X169200000Y-96100000D01*
X167772609Y-88808913D02*
X169200000Y-90236304D01*
X81190000Y-106950000D02*
X79910000Y-106950000D01*
%TO.N,TIM3_CH2*%
X168300000Y-90043410D02*
X168300000Y-95200000D01*
X167419056Y-89162466D02*
X168300000Y-90043410D01*
X81030000Y-103930000D02*
X79910000Y-105050000D01*
X81030000Y-103910000D02*
X81030000Y-103930000D01*
%TO.N,LCD_DC*%
X169540376Y-82559624D02*
X170400000Y-81700000D01*
X169540376Y-87041146D02*
X169540376Y-82559624D01*
%TO.N,LCD_CS*%
X172262738Y-83462738D02*
X171500000Y-82700000D01*
X172262738Y-87041146D02*
X172262738Y-83462738D01*
%TO.N,Net-(C23-Pad1)*%
X174390000Y-80510000D02*
X174400000Y-80500000D01*
X174370000Y-80530000D02*
X174400000Y-80500000D01*
X174370000Y-81750000D02*
X174370000Y-80530000D01*
%TO.N,Net-(D4-Pad2)*%
X150010000Y-85385000D02*
X150325000Y-85070000D01*
X150010000Y-86300000D02*
X150010000Y-85385000D01*
%TO.N,Net-(D5-Pad2)*%
X185610998Y-88201000D02*
X185420000Y-88391998D01*
X186944000Y-88201000D02*
X185610998Y-88201000D01*
%TO.N,Net-(D6-Pad2)*%
X188395000Y-103325000D02*
X189410000Y-104340000D01*
X188300000Y-103325000D02*
X188395000Y-103325000D01*
%TO.N,Net-(D7-Pad2)*%
X154575000Y-98385000D02*
X154630000Y-98330000D01*
X154575000Y-99900000D02*
X154575000Y-98385000D01*
%TO.N,LCD_BL*%
X166897292Y-91469128D02*
X166897292Y-92756599D01*
X166004843Y-90576679D02*
X166897292Y-91469128D01*
X155956000Y-99631000D02*
X156225000Y-99900000D01*
X156225000Y-99900000D02*
X157480000Y-99900000D01*
X157480000Y-99900000D02*
X157760000Y-100180000D01*
X188300000Y-101432000D02*
X187198000Y-100330000D01*
X188300000Y-101675000D02*
X188300000Y-101432000D01*
X185737000Y-86551000D02*
X185674000Y-86614000D01*
X186944000Y-86551000D02*
X185737000Y-86551000D01*
X152650002Y-85070000D02*
X154380002Y-86800000D01*
X151975000Y-85070000D02*
X152650002Y-85070000D01*
D37*
%TO.N,Net-(C34-Pad2)*%
X69167558Y-105435000D02*
X68665560Y-105435000D01*
D39*
X65492000Y-103554000D02*
X65502000Y-103544000D01*
X65492000Y-104544000D02*
X65492000Y-103554000D01*
X68000560Y-106100000D02*
X68665560Y-105435000D01*
X65502000Y-103544000D02*
X65502000Y-103224000D01*
X66073000Y-105435000D02*
X68665560Y-105435000D01*
X65492000Y-104854000D02*
X66073000Y-105435000D01*
X65492000Y-104544000D02*
X65492000Y-104854000D01*
D37*
%TO.N,Net-(C35-Pad2)*%
X73243990Y-105747898D02*
X73243990Y-105435000D01*
X73528102Y-106032010D02*
X73243990Y-105747898D01*
D39*
X73270000Y-107680000D02*
X73350000Y-107600000D01*
X73270000Y-108600000D02*
X73270000Y-107680000D01*
X73665560Y-105884440D02*
X73665560Y-105435000D01*
X73350000Y-105750560D02*
X73665560Y-105435000D01*
X73350000Y-107600000D02*
X73350000Y-105750560D01*
%TO.N,Net-(R17-Pad1)*%
X75865562Y-105050000D02*
X77710000Y-105050000D01*
X74359562Y-103544000D02*
X75865562Y-105050000D01*
X66522000Y-103544000D02*
X74359562Y-103544000D01*
%TO.N,Net-(R18-Pad1)*%
X76060000Y-108600000D02*
X77710000Y-106950000D01*
X74350000Y-108600000D02*
X76060000Y-108600000D01*
%TO.N,Net-(C37-Pad2)*%
X130925000Y-105435000D02*
X130450000Y-104960000D01*
X133472640Y-105435000D02*
X130925000Y-105435000D01*
X130450000Y-103955000D02*
X130530000Y-103875000D01*
X130450000Y-104960000D02*
X130450000Y-103955000D01*
%TO.N,Net-(C38-Pad2)*%
X137995000Y-105912640D02*
X137995000Y-107325000D01*
X138472640Y-105435000D02*
X137995000Y-105912640D01*
X137995000Y-108320000D02*
X137965000Y-108350000D01*
X137995000Y-107325000D02*
X137995000Y-108320000D01*
%TO.N,Net-(R19-Pad1)*%
X140722642Y-105100000D02*
X142950000Y-105100000D01*
X139497642Y-103875000D02*
X140722642Y-105100000D01*
X131550000Y-103875000D02*
X139497642Y-103875000D01*
%TO.N,Net-(R20-Pad1)*%
X141600000Y-108350000D02*
X142950000Y-107000000D01*
X138985000Y-108350000D02*
X141600000Y-108350000D01*
%TO.N,Net-(C41-Pad2)*%
X87110000Y-103870000D02*
X87050000Y-103810000D01*
X87110000Y-104810000D02*
X87110000Y-103870000D01*
X89317921Y-106434999D02*
X90317920Y-105435000D01*
X88424999Y-106434999D02*
X89317921Y-106434999D01*
X87110000Y-105120000D02*
X88424999Y-106434999D01*
X87110000Y-104810000D02*
X87110000Y-105120000D01*
%TO.N,Net-(C42-Pad2)*%
X108620000Y-103695000D02*
X108620000Y-104695000D01*
X108620000Y-105005000D02*
X109050000Y-105435000D01*
X109050000Y-105435000D02*
X111970280Y-105435000D01*
X108620000Y-104695000D02*
X108620000Y-105005000D01*
%TO.N,Net-(C43-Pad2)*%
X95110000Y-108500000D02*
X95080000Y-108530000D01*
X95110000Y-107530000D02*
X95110000Y-108500000D01*
X95110000Y-105642920D02*
X95317920Y-105435000D01*
X95110000Y-107530000D02*
X95110000Y-105642920D01*
%TO.N,Net-(C44-Pad2)*%
X116570000Y-108555000D02*
X116540000Y-108585000D01*
X116570000Y-107535000D02*
X116570000Y-108555000D01*
X116540000Y-108585000D02*
X116554721Y-108599721D01*
X116570000Y-105835280D02*
X116970280Y-105435000D01*
X116570000Y-107535000D02*
X116570000Y-105835280D01*
%TO.N,Net-(R21-Pad1)*%
X97617922Y-105150000D02*
X99180000Y-105150000D01*
X96277922Y-103810000D02*
X97617922Y-105150000D01*
X88070000Y-103810000D02*
X96277922Y-103810000D01*
%TO.N,Net-(R22-Pad1)*%
X119520000Y-103695000D02*
X120875000Y-105050000D01*
X109640000Y-103695000D02*
X119520000Y-103695000D01*
%TO.N,Net-(R23-Pad1)*%
X97700000Y-108530000D02*
X99180000Y-107050000D01*
X96100000Y-108530000D02*
X97700000Y-108530000D01*
%TO.N,Net-(R24-Pad1)*%
X119240000Y-108585000D02*
X120875000Y-106950000D01*
X117560000Y-108585000D02*
X119240000Y-108585000D01*
%TO.N,Net-(C46-Pad2)*%
X54134000Y-80546000D02*
X54102000Y-80514000D01*
X55118000Y-80546000D02*
X54134000Y-80546000D01*
X51514000Y-80514000D02*
X51500000Y-80500000D01*
X54102000Y-80514000D02*
X51514000Y-80514000D01*
X56074000Y-80574000D02*
X56134000Y-80514000D01*
X55118000Y-80574000D02*
X56074000Y-80574000D01*
D37*
%TO.N,Net-(C47-Pad2)*%
X51512000Y-103722000D02*
X51512000Y-103052000D01*
D39*
X54580000Y-102842000D02*
X54610000Y-102872000D01*
X53622000Y-102842000D02*
X54580000Y-102842000D01*
X51722000Y-102842000D02*
X51512000Y-103052000D01*
X53622000Y-102842000D02*
X51722000Y-102842000D01*
%TO.N,Net-(R25-Pad1)*%
X56134000Y-96332000D02*
X57404000Y-97602000D01*
X56134000Y-81534000D02*
X56134000Y-96332000D01*
%TO.N,Net-(R26-Pad1)*%
X55054000Y-101852000D02*
X57404000Y-99502000D01*
X54610000Y-101852000D02*
X55054000Y-101852000D01*
%TO.N,GND*%
X201685000Y-90420000D02*
X202200000Y-90935000D01*
X162006154Y-92871241D02*
X160581241Y-92871241D01*
X160581241Y-92871241D02*
X159414999Y-91704999D01*
%TO.N,SWCLK*%
X172870175Y-101018573D02*
X172242224Y-100390622D01*
X173118573Y-101018573D02*
X172870175Y-101018573D01*
X179900000Y-107800000D02*
X173118573Y-101018573D01*
X204340000Y-107800000D02*
X179900000Y-107800000D01*
X206090000Y-109550000D02*
X204340000Y-107800000D01*
D42*
%TO.N,USB_CONN_D+*%
X135934685Y-81795315D02*
X138527844Y-79202156D01*
X138527844Y-79202156D02*
X139566299Y-79202156D01*
X139922268Y-80072294D02*
X140702705Y-80072294D01*
X139566299Y-79716325D02*
X139922268Y-80072294D01*
X139566299Y-79202156D02*
X139566299Y-79716325D01*
X140702705Y-80072294D02*
X140854999Y-79920000D01*
X140854999Y-79920000D02*
X141650000Y-79920000D01*
%TO.N,USB_CONN_D-*%
X140240014Y-78385434D02*
X140489565Y-78385434D01*
X139887604Y-78737844D02*
X140240014Y-78385434D01*
X136062604Y-81010758D02*
X138335518Y-78737844D01*
X135558097Y-81010758D02*
X136062604Y-81010758D01*
X135150128Y-82171903D02*
X135150128Y-81418727D01*
X140489565Y-78385434D02*
X140854999Y-78020000D01*
X135225315Y-82247090D02*
X135150128Y-82171903D01*
X140854999Y-78020000D02*
X141650000Y-78020000D01*
X135150128Y-81418727D02*
X135558097Y-81010758D01*
X135225315Y-82504685D02*
X135225315Y-82247090D01*
X138335518Y-78737844D02*
X139887604Y-78737844D01*
%TO.N,USB_D+*%
X143850000Y-79920000D02*
X143850000Y-80478297D01*
X146277997Y-82800335D02*
X146383687Y-82906025D01*
X146383687Y-82906025D02*
X146633975Y-82906025D01*
X146172038Y-82800335D02*
X146277997Y-82800335D01*
X143850000Y-80478297D02*
X146172038Y-82800335D01*
%TO.N,USB_D-*%
X143053420Y-80670623D02*
X143385688Y-80670623D01*
X142935443Y-80552646D02*
X143053420Y-80670623D01*
X142935443Y-78337354D02*
X142935443Y-80552646D01*
X143012354Y-78260443D02*
X142935443Y-78337354D01*
X143609557Y-78260443D02*
X143012354Y-78260443D01*
X145949409Y-83234344D02*
X145949409Y-83484892D01*
X143850000Y-78020000D02*
X143609557Y-78260443D01*
X143385688Y-80670623D02*
X145949409Y-83234344D01*
D39*
%TO.N,Net-(C49-Pad2)*%
X201930000Y-88900000D02*
X200916000Y-88900000D01*
X204475990Y-88210990D02*
X207200000Y-90935000D01*
X202309010Y-88210990D02*
X204475990Y-88210990D01*
X201930000Y-88590000D02*
X202309010Y-88210990D01*
X201930000Y-88900000D02*
X201930000Y-88590000D01*
X202200000Y-89170000D02*
X201930000Y-88900000D01*
D37*
%TO.N,Net-(C50-Pad2)*%
X201168000Y-80000000D02*
X207668000Y-80000000D01*
D39*
X206126000Y-82042000D02*
X204950000Y-82042000D01*
X207668000Y-80500000D02*
X206126000Y-82042000D01*
X204950000Y-83028000D02*
X204980000Y-83058000D01*
X204950000Y-82042000D02*
X204950000Y-83028000D01*
%TO.N,Net-(R27-Pad1)*%
X198270000Y-88900000D02*
X198204000Y-88834000D01*
X199896000Y-88900000D02*
X198270000Y-88900000D01*
%TO.N,Net-(R28-Pad1)*%
X202626000Y-86934000D02*
X198204000Y-86934000D01*
X203960000Y-85600000D02*
X202626000Y-86934000D01*
X203960000Y-83058000D02*
X203960000Y-85600000D01*
%TO.N,Net-(C51-Pad2)*%
X197264000Y-104864000D02*
X197302000Y-104902000D01*
X197264000Y-103896000D02*
X197264000Y-104864000D01*
X205874999Y-104109999D02*
X207200000Y-105435000D01*
X198094001Y-104109999D02*
X205874999Y-104109999D01*
X197302000Y-104902000D02*
X198094001Y-104109999D01*
%TO.N,Net-(C52-Pad2)*%
X194166000Y-104902000D02*
X194310000Y-104902000D01*
X201200001Y-106434999D02*
X202200000Y-105435000D01*
X195842999Y-106434999D02*
X201200001Y-106434999D01*
X194310000Y-104902000D02*
X195842999Y-106434999D01*
X194216000Y-104852000D02*
X194166000Y-104902000D01*
X194216000Y-103886000D02*
X194216000Y-104852000D01*
%TO.N,Net-(R29-Pad1)*%
X196276000Y-103864000D02*
X196244000Y-103896000D01*
X196276000Y-102192000D02*
X196276000Y-103864000D01*
%TO.N,Net-(R30-Pad1)*%
X193196000Y-103372000D02*
X194376000Y-102192000D01*
X193196000Y-103886000D02*
X193196000Y-103372000D01*
%TO.N,+3.3VA*%
X173323398Y-88101806D02*
X174557299Y-86867904D01*
D37*
X174048182Y-84923361D02*
X174048182Y-84902147D01*
D38*
X174597801Y-86594615D02*
X174578512Y-86613904D01*
X174597801Y-85197766D02*
X174597801Y-86594615D01*
X174048182Y-84648147D02*
X174597801Y-85197766D01*
D39*
X174578513Y-86613904D02*
X175285619Y-85906798D01*
X174578513Y-86613905D02*
X174578513Y-86613904D01*
D40*
%TO.N,Net-(D2-Pad2)*%
X147800000Y-76200000D02*
X147780000Y-76180000D01*
X147800000Y-77580000D02*
X147800000Y-76200000D01*
D39*
%TO.N,IN_L*%
X81026000Y-94742000D02*
X75438000Y-89154000D01*
X104902000Y-94742000D02*
X81026000Y-94742000D01*
X109899811Y-89744189D02*
X104902000Y-94742000D01*
X109899811Y-87497900D02*
X109899811Y-89744189D01*
D41*
%TO.N,MIC_+*%
X107635589Y-88853479D02*
X107395479Y-88853479D01*
X107684529Y-88804539D02*
X107635589Y-88853479D01*
X107727262Y-88804539D02*
X107684529Y-88804539D01*
X108924622Y-87522963D02*
X108924622Y-87607179D01*
X108924622Y-87607179D02*
X107727262Y-88804539D01*
X108899559Y-87497900D02*
X108924622Y-87522963D01*
D39*
X83140000Y-87630000D02*
X83610000Y-88100000D01*
X82296000Y-87630000D02*
X83140000Y-87630000D01*
%TO.N,Net-(C20-Pad1)*%
X81637500Y-85401666D02*
X82205834Y-85970000D01*
X81637500Y-82550000D02*
X81637500Y-85401666D01*
X81336000Y-86839834D02*
X82205834Y-85970000D01*
X81336000Y-87630000D02*
X81336000Y-86839834D01*
%TO.N,Net-(C32-Pad2)*%
X68552000Y-83820000D02*
X68552000Y-82804000D01*
X71524500Y-81889810D02*
X71524500Y-81026000D01*
X70610310Y-82804000D02*
X71524500Y-81889810D01*
X68552000Y-82804000D02*
X70610310Y-82804000D01*
X71372310Y-83566000D02*
X70610310Y-82804000D01*
X72136000Y-83566000D02*
X71372310Y-83566000D01*
%TO.N,IN_R*%
X111400189Y-89767811D02*
X105664000Y-95504000D01*
X105664000Y-95504000D02*
X73994000Y-95504000D01*
X111400189Y-87497900D02*
X111400189Y-89767811D01*
X73994000Y-95504000D02*
X67555000Y-89065000D01*
X67564000Y-89056000D02*
X67564000Y-83820000D01*
X67555000Y-89065000D02*
X67564000Y-89056000D01*
D41*
%TO.N,MIC_-*%
X109241560Y-88201901D02*
X108966298Y-88201901D01*
X109374622Y-88068839D02*
X109241560Y-88201901D01*
X109399685Y-87497900D02*
X109374622Y-87522963D01*
X109374622Y-87522963D02*
X109374622Y-88068839D01*
X107996521Y-89171678D02*
X107996521Y-89454521D01*
X108966298Y-88201901D02*
X107996521Y-89171678D01*
D39*
%TO.N,Net-(J4-PadT)*%
X72049010Y-86350990D02*
X72430000Y-85970000D01*
X70111320Y-86350990D02*
X72049010Y-86350990D01*
X69086310Y-87376000D02*
X70111320Y-86350990D01*
X68787000Y-87376000D02*
X69086310Y-87376000D01*
%TO.N,Net-(J4-PadR)*%
X67812000Y-81026000D02*
X67633000Y-80847000D01*
X69699500Y-81026000D02*
X67812000Y-81026000D01*
%TD*%
M02*
