%TF.GenerationSoftware,KiCad,Pcbnew,(5.1.8-0-10_14)*%
%TF.CreationDate,2021-02-07T09:13:31+01:00*%
%TF.ProjectId,PoundingSystem,506f756e-6469-46e6-9753-797374656d2e,rev?*%
%TF.SameCoordinates,Original*%
%TF.FileFunction,Legend,Bot*%
%TF.FilePolarity,Positive*%
%FSLAX46Y46*%
G04 Gerber Fmt 4.6, Leading zero omitted, Abs format (unit mm)*
G04 Created by KiCad (PCBNEW (5.1.8-0-10_14)) date 2021-02-07 09:13:31*
%MOMM*%
%LPD*%
G01*
G04 APERTURE LIST*
%ADD10C,0.010000*%
%ADD11C,0.120000*%
%ADD12C,0.100000*%
%ADD13C,0.150000*%
G04 APERTURE END LIST*
D10*
%TO.C,G\u002A\u002A\u002A*%
G36*
X143482000Y-85149030D02*
G01*
X143485515Y-85492663D01*
X143505336Y-85714945D01*
X143555378Y-85863844D01*
X143649559Y-85987325D01*
X143754883Y-86089638D01*
X143971081Y-86267395D01*
X144174300Y-86396928D01*
X144220550Y-86417845D01*
X144370454Y-86534048D01*
X144413334Y-86651153D01*
X144463812Y-86829107D01*
X144582369Y-87026057D01*
X144737890Y-87169772D01*
X144952785Y-87244664D01*
X145175088Y-87270308D01*
X145598772Y-87299666D01*
X145598750Y-86749333D01*
X145180393Y-86749333D01*
X144881530Y-86749333D01*
X144681204Y-86735278D01*
X144598596Y-86664931D01*
X144582667Y-86501767D01*
X144562810Y-86352326D01*
X144479584Y-86235181D01*
X144297510Y-86113506D01*
X144117000Y-86018413D01*
X143651334Y-85782624D01*
X143651334Y-84541407D01*
X145133000Y-84590333D01*
X145156697Y-85669833D01*
X145180393Y-86749333D01*
X145598750Y-86749333D01*
X145598720Y-86050833D01*
X145596870Y-85496668D01*
X145579739Y-85089257D01*
X145529875Y-84806034D01*
X145429828Y-84624434D01*
X145262145Y-84521890D01*
X145009376Y-84475838D01*
X144654067Y-84463711D01*
X144371000Y-84463333D01*
X143482000Y-84463333D01*
X143482000Y-85149030D01*
G37*
X143482000Y-85149030D02*
X143485515Y-85492663D01*
X143505336Y-85714945D01*
X143555378Y-85863844D01*
X143649559Y-85987325D01*
X143754883Y-86089638D01*
X143971081Y-86267395D01*
X144174300Y-86396928D01*
X144220550Y-86417845D01*
X144370454Y-86534048D01*
X144413334Y-86651153D01*
X144463812Y-86829107D01*
X144582369Y-87026057D01*
X144737890Y-87169772D01*
X144952785Y-87244664D01*
X145175088Y-87270308D01*
X145598772Y-87299666D01*
X145598750Y-86749333D01*
X145180393Y-86749333D01*
X144881530Y-86749333D01*
X144681204Y-86735278D01*
X144598596Y-86664931D01*
X144582667Y-86501767D01*
X144562810Y-86352326D01*
X144479584Y-86235181D01*
X144297510Y-86113506D01*
X144117000Y-86018413D01*
X143651334Y-85782624D01*
X143651334Y-84541407D01*
X145133000Y-84590333D01*
X145156697Y-85669833D01*
X145180393Y-86749333D01*
X145598750Y-86749333D01*
X145598720Y-86050833D01*
X145596870Y-85496668D01*
X145579739Y-85089257D01*
X145529875Y-84806034D01*
X145429828Y-84624434D01*
X145262145Y-84521890D01*
X145009376Y-84475838D01*
X144654067Y-84463711D01*
X144371000Y-84463333D01*
X143482000Y-84463333D01*
X143482000Y-85149030D01*
G36*
X141196000Y-85643945D02*
G01*
X141197555Y-86115898D01*
X141205245Y-86450301D01*
X141223611Y-86678929D01*
X141257195Y-86833557D01*
X141310537Y-86945960D01*
X141388177Y-87047914D01*
X141398324Y-87059772D01*
X141497640Y-87166114D01*
X141600541Y-87234468D01*
X141745208Y-87273351D01*
X141969823Y-87291282D01*
X142312568Y-87296776D01*
X142463238Y-87297326D01*
X142827082Y-87295055D01*
X143122535Y-87287067D01*
X143312098Y-87274736D01*
X143361581Y-87264388D01*
X143384641Y-87158278D01*
X143397533Y-86921923D01*
X143401204Y-86594051D01*
X143396599Y-86213385D01*
X143384664Y-85818651D01*
X143366346Y-85448573D01*
X143342590Y-85141876D01*
X143314343Y-84937286D01*
X143303762Y-84897513D01*
X143193782Y-84685860D01*
X143141577Y-84632666D01*
X142889334Y-84632666D01*
X142889334Y-86749333D01*
X141365334Y-86749333D01*
X141365334Y-84632666D01*
X142889334Y-84632666D01*
X143141577Y-84632666D01*
X143058362Y-84547877D01*
X143055328Y-84546212D01*
X142907414Y-84510869D01*
X142635106Y-84483034D01*
X142283299Y-84466400D01*
X142048233Y-84463333D01*
X141196000Y-84463333D01*
X141196000Y-85643945D01*
G37*
X141196000Y-85643945D02*
X141197555Y-86115898D01*
X141205245Y-86450301D01*
X141223611Y-86678929D01*
X141257195Y-86833557D01*
X141310537Y-86945960D01*
X141388177Y-87047914D01*
X141398324Y-87059772D01*
X141497640Y-87166114D01*
X141600541Y-87234468D01*
X141745208Y-87273351D01*
X141969823Y-87291282D01*
X142312568Y-87296776D01*
X142463238Y-87297326D01*
X142827082Y-87295055D01*
X143122535Y-87287067D01*
X143312098Y-87274736D01*
X143361581Y-87264388D01*
X143384641Y-87158278D01*
X143397533Y-86921923D01*
X143401204Y-86594051D01*
X143396599Y-86213385D01*
X143384664Y-85818651D01*
X143366346Y-85448573D01*
X143342590Y-85141876D01*
X143314343Y-84937286D01*
X143303762Y-84897513D01*
X143193782Y-84685860D01*
X143141577Y-84632666D01*
X142889334Y-84632666D01*
X142889334Y-86749333D01*
X141365334Y-86749333D01*
X141365334Y-84632666D01*
X142889334Y-84632666D01*
X143141577Y-84632666D01*
X143058362Y-84547877D01*
X143055328Y-84546212D01*
X142907414Y-84510869D01*
X142635106Y-84483034D01*
X142283299Y-84466400D01*
X142048233Y-84463333D01*
X141196000Y-84463333D01*
X141196000Y-85643945D01*
G36*
X138910000Y-85694276D02*
G01*
X138911941Y-86179490D01*
X138920145Y-86524815D01*
X138938188Y-86759673D01*
X138969644Y-86913487D01*
X139018088Y-87015679D01*
X139079334Y-87088000D01*
X139239215Y-87215047D01*
X139354500Y-87263112D01*
X139640122Y-87274412D01*
X139980816Y-87281627D01*
X140334837Y-87284725D01*
X140660440Y-87283676D01*
X140915882Y-87278449D01*
X141059419Y-87269011D01*
X141075867Y-87264388D01*
X141089160Y-87171209D01*
X141100184Y-86941656D01*
X141107899Y-86608685D01*
X141111268Y-86205252D01*
X141111334Y-86138351D01*
X141100074Y-85559579D01*
X141063034Y-85129086D01*
X140995325Y-84827111D01*
X140901675Y-84651885D01*
X140603334Y-84651885D01*
X140603334Y-86749333D01*
X139079334Y-86749333D01*
X139079334Y-84651885D01*
X139333816Y-84614535D01*
X139526251Y-84600457D01*
X139630149Y-84619037D01*
X139648376Y-84716639D01*
X139662587Y-84943798D01*
X139670781Y-85260751D01*
X139672000Y-85451111D01*
X139674643Y-85821046D01*
X139687098Y-86053353D01*
X139716151Y-86179707D01*
X139768592Y-86231786D01*
X139841334Y-86241333D01*
X139920606Y-86228999D01*
X139970386Y-86170879D01*
X139997462Y-86035296D01*
X140008621Y-85790574D01*
X140010667Y-85451111D01*
X140014871Y-85102748D01*
X140026149Y-84823150D01*
X140042501Y-84652081D01*
X140052519Y-84619037D01*
X140157245Y-84600445D01*
X140348852Y-84614535D01*
X140603334Y-84651885D01*
X140901675Y-84651885D01*
X140892059Y-84633893D01*
X140748347Y-84529671D01*
X140710096Y-84516512D01*
X140563820Y-84497541D01*
X140293790Y-84482407D01*
X139945578Y-84473216D01*
X139735500Y-84471455D01*
X138910000Y-84469886D01*
X138910000Y-85694276D01*
G37*
X138910000Y-85694276D02*
X138911941Y-86179490D01*
X138920145Y-86524815D01*
X138938188Y-86759673D01*
X138969644Y-86913487D01*
X139018088Y-87015679D01*
X139079334Y-87088000D01*
X139239215Y-87215047D01*
X139354500Y-87263112D01*
X139640122Y-87274412D01*
X139980816Y-87281627D01*
X140334837Y-87284725D01*
X140660440Y-87283676D01*
X140915882Y-87278449D01*
X141059419Y-87269011D01*
X141075867Y-87264388D01*
X141089160Y-87171209D01*
X141100184Y-86941656D01*
X141107899Y-86608685D01*
X141111268Y-86205252D01*
X141111334Y-86138351D01*
X141100074Y-85559579D01*
X141063034Y-85129086D01*
X140995325Y-84827111D01*
X140901675Y-84651885D01*
X140603334Y-84651885D01*
X140603334Y-86749333D01*
X139079334Y-86749333D01*
X139079334Y-84651885D01*
X139333816Y-84614535D01*
X139526251Y-84600457D01*
X139630149Y-84619037D01*
X139648376Y-84716639D01*
X139662587Y-84943798D01*
X139670781Y-85260751D01*
X139672000Y-85451111D01*
X139674643Y-85821046D01*
X139687098Y-86053353D01*
X139716151Y-86179707D01*
X139768592Y-86231786D01*
X139841334Y-86241333D01*
X139920606Y-86228999D01*
X139970386Y-86170879D01*
X139997462Y-86035296D01*
X140008621Y-85790574D01*
X140010667Y-85451111D01*
X140014871Y-85102748D01*
X140026149Y-84823150D01*
X140042501Y-84652081D01*
X140052519Y-84619037D01*
X140157245Y-84600445D01*
X140348852Y-84614535D01*
X140603334Y-84651885D01*
X140901675Y-84651885D01*
X140892059Y-84633893D01*
X140748347Y-84529671D01*
X140710096Y-84516512D01*
X140563820Y-84497541D01*
X140293790Y-84482407D01*
X139945578Y-84473216D01*
X139735500Y-84471455D01*
X138910000Y-84469886D01*
X138910000Y-85694276D01*
G36*
X137859980Y-84512905D02*
G01*
X137720408Y-84640625D01*
X137625524Y-84817917D01*
X137436805Y-84640625D01*
X137177802Y-84497268D01*
X136893710Y-84463333D01*
X136539334Y-84463333D01*
X136539334Y-85720211D01*
X136543541Y-86269875D01*
X136563272Y-86672695D01*
X136609194Y-86951092D01*
X136691970Y-87127485D01*
X136822266Y-87224294D01*
X137010749Y-87263939D01*
X137268082Y-87268841D01*
X137275963Y-87268703D01*
X137583500Y-87264053D01*
X137808937Y-87264425D01*
X138037046Y-87271090D01*
X138338500Y-87284652D01*
X138740667Y-87303761D01*
X138740667Y-86052880D01*
X138739288Y-85688342D01*
X138317334Y-85688342D01*
X138317334Y-86749333D01*
X137724667Y-86749333D01*
X137724667Y-85609358D01*
X137511274Y-85923394D01*
X137363882Y-86181755D01*
X137261202Y-86435985D01*
X137246691Y-86493382D01*
X137188788Y-86669437D01*
X137071786Y-86738998D01*
X136907221Y-86749333D01*
X136618941Y-86749333D01*
X136642638Y-85675489D01*
X136666334Y-84601644D01*
X136962667Y-84602039D01*
X137259000Y-84602433D01*
X137268066Y-85085227D01*
X137279480Y-85354207D01*
X137299527Y-85546306D01*
X137317209Y-85608097D01*
X137371255Y-85561162D01*
X137468990Y-85398129D01*
X137555429Y-85225129D01*
X137765593Y-84844984D01*
X137964007Y-84624235D01*
X138146866Y-84566785D01*
X138187180Y-84577407D01*
X138242728Y-84625840D01*
X138280383Y-84738665D01*
X138303277Y-84942619D01*
X138314545Y-85264441D01*
X138317334Y-85688342D01*
X138739288Y-85688342D01*
X138738809Y-85561998D01*
X138730928Y-85211400D01*
X138713562Y-84972058D01*
X138683250Y-84814944D01*
X138636531Y-84711027D01*
X138571334Y-84632666D01*
X138351793Y-84499776D01*
X138093951Y-84460049D01*
X137859980Y-84512905D01*
G37*
X137859980Y-84512905D02*
X137720408Y-84640625D01*
X137625524Y-84817917D01*
X137436805Y-84640625D01*
X137177802Y-84497268D01*
X136893710Y-84463333D01*
X136539334Y-84463333D01*
X136539334Y-85720211D01*
X136543541Y-86269875D01*
X136563272Y-86672695D01*
X136609194Y-86951092D01*
X136691970Y-87127485D01*
X136822266Y-87224294D01*
X137010749Y-87263939D01*
X137268082Y-87268841D01*
X137275963Y-87268703D01*
X137583500Y-87264053D01*
X137808937Y-87264425D01*
X138037046Y-87271090D01*
X138338500Y-87284652D01*
X138740667Y-87303761D01*
X138740667Y-86052880D01*
X138739288Y-85688342D01*
X138317334Y-85688342D01*
X138317334Y-86749333D01*
X137724667Y-86749333D01*
X137724667Y-85609358D01*
X137511274Y-85923394D01*
X137363882Y-86181755D01*
X137261202Y-86435985D01*
X137246691Y-86493382D01*
X137188788Y-86669437D01*
X137071786Y-86738998D01*
X136907221Y-86749333D01*
X136618941Y-86749333D01*
X136642638Y-85675489D01*
X136666334Y-84601644D01*
X136962667Y-84602039D01*
X137259000Y-84602433D01*
X137268066Y-85085227D01*
X137279480Y-85354207D01*
X137299527Y-85546306D01*
X137317209Y-85608097D01*
X137371255Y-85561162D01*
X137468990Y-85398129D01*
X137555429Y-85225129D01*
X137765593Y-84844984D01*
X137964007Y-84624235D01*
X138146866Y-84566785D01*
X138187180Y-84577407D01*
X138242728Y-84625840D01*
X138280383Y-84738665D01*
X138303277Y-84942619D01*
X138314545Y-85264441D01*
X138317334Y-85688342D01*
X138739288Y-85688342D01*
X138738809Y-85561998D01*
X138730928Y-85211400D01*
X138713562Y-84972058D01*
X138683250Y-84814944D01*
X138636531Y-84711027D01*
X138571334Y-84632666D01*
X138351793Y-84499776D01*
X138093951Y-84460049D01*
X137859980Y-84512905D01*
G36*
X135398435Y-84478515D02*
G01*
X135081597Y-84507487D01*
X134870415Y-84561367D01*
X134701210Y-84665268D01*
X134535730Y-84818759D01*
X134231016Y-85123473D01*
X134243329Y-86041039D01*
X134254495Y-86517517D01*
X134289772Y-86850886D01*
X134374248Y-87067365D01*
X134533007Y-87193175D01*
X134791135Y-87254538D01*
X135173720Y-87277672D01*
X135431862Y-87283331D01*
X135796729Y-87286909D01*
X136093238Y-87283613D01*
X136284068Y-87274225D01*
X136334846Y-87264388D01*
X136347453Y-87171586D01*
X136358056Y-86940769D01*
X136362428Y-86749333D01*
X135951726Y-86749333D01*
X134338000Y-86749333D01*
X134338000Y-85993829D01*
X134342389Y-85622347D01*
X134362101Y-85374395D01*
X134406956Y-85204262D01*
X134486772Y-85066232D01*
X134555907Y-84979358D01*
X134862739Y-84732831D01*
X135254152Y-84585329D01*
X135651864Y-84561648D01*
X135904334Y-84590333D01*
X135951726Y-86749333D01*
X136362428Y-86749333D01*
X136365765Y-86603256D01*
X136369687Y-86190362D01*
X136370000Y-86030314D01*
X136368764Y-85556346D01*
X136362049Y-85221322D01*
X136345344Y-84994857D01*
X136314139Y-84846564D01*
X136263923Y-84746056D01*
X136190185Y-84662947D01*
X136163214Y-84637251D01*
X136029157Y-84531612D01*
X135879382Y-84478408D01*
X135659370Y-84466325D01*
X135398435Y-84478515D01*
G37*
X135398435Y-84478515D02*
X135081597Y-84507487D01*
X134870415Y-84561367D01*
X134701210Y-84665268D01*
X134535730Y-84818759D01*
X134231016Y-85123473D01*
X134243329Y-86041039D01*
X134254495Y-86517517D01*
X134289772Y-86850886D01*
X134374248Y-87067365D01*
X134533007Y-87193175D01*
X134791135Y-87254538D01*
X135173720Y-87277672D01*
X135431862Y-87283331D01*
X135796729Y-87286909D01*
X136093238Y-87283613D01*
X136284068Y-87274225D01*
X136334846Y-87264388D01*
X136347453Y-87171586D01*
X136358056Y-86940769D01*
X136362428Y-86749333D01*
X135951726Y-86749333D01*
X134338000Y-86749333D01*
X134338000Y-85993829D01*
X134342389Y-85622347D01*
X134362101Y-85374395D01*
X134406956Y-85204262D01*
X134486772Y-85066232D01*
X134555907Y-84979358D01*
X134862739Y-84732831D01*
X135254152Y-84585329D01*
X135651864Y-84561648D01*
X135904334Y-84590333D01*
X135951726Y-86749333D01*
X136362428Y-86749333D01*
X136365765Y-86603256D01*
X136369687Y-86190362D01*
X136370000Y-86030314D01*
X136368764Y-85556346D01*
X136362049Y-85221322D01*
X136345344Y-84994857D01*
X136314139Y-84846564D01*
X136263923Y-84746056D01*
X136190185Y-84662947D01*
X136163214Y-84637251D01*
X136029157Y-84531612D01*
X135879382Y-84478408D01*
X135659370Y-84466325D01*
X135398435Y-84478515D01*
G36*
X132898667Y-85691000D02*
G01*
X132900597Y-86176917D01*
X132908760Y-86522896D01*
X132926717Y-86758309D01*
X132958028Y-86912528D01*
X133006253Y-87014927D01*
X133068000Y-87088000D01*
X133228131Y-87216583D01*
X133343167Y-87267313D01*
X133619712Y-87285239D01*
X133864848Y-87287604D01*
X134022113Y-87274643D01*
X134048687Y-87264388D01*
X134061470Y-87171507D01*
X134072191Y-86940952D01*
X134079926Y-86604377D01*
X134083753Y-86193440D01*
X134084000Y-86054040D01*
X134082665Y-85585064D01*
X134075541Y-85254292D01*
X134057950Y-85030600D01*
X134025216Y-84882862D01*
X133972660Y-84779953D01*
X133895605Y-84690748D01*
X133876182Y-84671151D01*
X133823428Y-84632666D01*
X133660667Y-84632666D01*
X133660667Y-86749333D01*
X133068000Y-86749333D01*
X133068000Y-84632666D01*
X133660667Y-84632666D01*
X133823428Y-84632666D01*
X133677153Y-84525956D01*
X133424700Y-84468058D01*
X133283516Y-84463333D01*
X132898667Y-84463333D01*
X132898667Y-85691000D01*
G37*
X132898667Y-85691000D02*
X132900597Y-86176917D01*
X132908760Y-86522896D01*
X132926717Y-86758309D01*
X132958028Y-86912528D01*
X133006253Y-87014927D01*
X133068000Y-87088000D01*
X133228131Y-87216583D01*
X133343167Y-87267313D01*
X133619712Y-87285239D01*
X133864848Y-87287604D01*
X134022113Y-87274643D01*
X134048687Y-87264388D01*
X134061470Y-87171507D01*
X134072191Y-86940952D01*
X134079926Y-86604377D01*
X134083753Y-86193440D01*
X134084000Y-86054040D01*
X134082665Y-85585064D01*
X134075541Y-85254292D01*
X134057950Y-85030600D01*
X134025216Y-84882862D01*
X133972660Y-84779953D01*
X133895605Y-84690748D01*
X133876182Y-84671151D01*
X133823428Y-84632666D01*
X133660667Y-84632666D01*
X133660667Y-86749333D01*
X133068000Y-86749333D01*
X133068000Y-84632666D01*
X133660667Y-84632666D01*
X133823428Y-84632666D01*
X133677153Y-84525956D01*
X133424700Y-84468058D01*
X133283516Y-84463333D01*
X132898667Y-84463333D01*
X132898667Y-85691000D01*
G36*
X130443334Y-85643945D02*
G01*
X130445042Y-86116994D01*
X130453071Y-86452309D01*
X130471776Y-86681477D01*
X130505513Y-86836084D01*
X130558637Y-86947718D01*
X130635505Y-87047967D01*
X130637216Y-87049958D01*
X130900733Y-87235067D01*
X131242702Y-87303034D01*
X131610197Y-87243556D01*
X131617799Y-87240869D01*
X131830686Y-87216410D01*
X131923833Y-87256364D01*
X132060135Y-87300775D01*
X132281146Y-87319910D01*
X132510281Y-87312972D01*
X132670953Y-87279161D01*
X132693633Y-87264388D01*
X132706556Y-87171507D01*
X132717395Y-86940952D01*
X132725215Y-86604378D01*
X132729083Y-86193440D01*
X132729334Y-86054040D01*
X132728315Y-85695996D01*
X132306000Y-85695996D01*
X132306000Y-86749333D01*
X131721071Y-86749333D01*
X131696036Y-86177833D01*
X131671000Y-85606333D01*
X131438167Y-85994771D01*
X131304643Y-86250850D01*
X131220418Y-86476448D01*
X131205334Y-86566271D01*
X131176756Y-86691355D01*
X131059515Y-86742228D01*
X130909000Y-86749333D01*
X130612667Y-86749333D01*
X130612667Y-84548000D01*
X131197597Y-84548000D01*
X131247667Y-85691000D01*
X131542708Y-85161230D01*
X131771129Y-84802648D01*
X131970147Y-84604102D01*
X132146233Y-84560138D01*
X132220576Y-84589865D01*
X132255901Y-84693777D01*
X132283304Y-84939628D01*
X132300679Y-85300123D01*
X132306000Y-85695996D01*
X132728315Y-85695996D01*
X132727999Y-85585064D01*
X132720874Y-85254292D01*
X132703284Y-85030600D01*
X132670549Y-84882862D01*
X132617993Y-84779953D01*
X132540939Y-84690748D01*
X132521516Y-84671151D01*
X132274673Y-84509271D01*
X132009600Y-84465592D01*
X131778971Y-84542545D01*
X131688965Y-84632712D01*
X131570327Y-84802090D01*
X131417042Y-84632712D01*
X131248137Y-84515518D01*
X130990044Y-84467046D01*
X130853545Y-84463333D01*
X130443334Y-84463333D01*
X130443334Y-85643945D01*
G37*
X130443334Y-85643945D02*
X130445042Y-86116994D01*
X130453071Y-86452309D01*
X130471776Y-86681477D01*
X130505513Y-86836084D01*
X130558637Y-86947718D01*
X130635505Y-87047967D01*
X130637216Y-87049958D01*
X130900733Y-87235067D01*
X131242702Y-87303034D01*
X131610197Y-87243556D01*
X131617799Y-87240869D01*
X131830686Y-87216410D01*
X131923833Y-87256364D01*
X132060135Y-87300775D01*
X132281146Y-87319910D01*
X132510281Y-87312972D01*
X132670953Y-87279161D01*
X132693633Y-87264388D01*
X132706556Y-87171507D01*
X132717395Y-86940952D01*
X132725215Y-86604378D01*
X132729083Y-86193440D01*
X132729334Y-86054040D01*
X132728315Y-85695996D01*
X132306000Y-85695996D01*
X132306000Y-86749333D01*
X131721071Y-86749333D01*
X131696036Y-86177833D01*
X131671000Y-85606333D01*
X131438167Y-85994771D01*
X131304643Y-86250850D01*
X131220418Y-86476448D01*
X131205334Y-86566271D01*
X131176756Y-86691355D01*
X131059515Y-86742228D01*
X130909000Y-86749333D01*
X130612667Y-86749333D01*
X130612667Y-84548000D01*
X131197597Y-84548000D01*
X131247667Y-85691000D01*
X131542708Y-85161230D01*
X131771129Y-84802648D01*
X131970147Y-84604102D01*
X132146233Y-84560138D01*
X132220576Y-84589865D01*
X132255901Y-84693777D01*
X132283304Y-84939628D01*
X132300679Y-85300123D01*
X132306000Y-85695996D01*
X132728315Y-85695996D01*
X132727999Y-85585064D01*
X132720874Y-85254292D01*
X132703284Y-85030600D01*
X132670549Y-84882862D01*
X132617993Y-84779953D01*
X132540939Y-84690748D01*
X132521516Y-84671151D01*
X132274673Y-84509271D01*
X132009600Y-84465592D01*
X131778971Y-84542545D01*
X131688965Y-84632712D01*
X131570327Y-84802090D01*
X131417042Y-84632712D01*
X131248137Y-84515518D01*
X130990044Y-84467046D01*
X130853545Y-84463333D01*
X130443334Y-84463333D01*
X130443334Y-85643945D01*
G36*
X128157334Y-84783161D02*
G01*
X128190557Y-85046588D01*
X128271688Y-85264933D01*
X128283117Y-85282569D01*
X128363479Y-85419976D01*
X128334975Y-85486538D01*
X128283117Y-85510417D01*
X128216671Y-85577737D01*
X128177230Y-85737040D01*
X128159607Y-86018368D01*
X128157334Y-86238676D01*
X128164352Y-86598807D01*
X128191182Y-86833433D01*
X128246489Y-86986013D01*
X128326667Y-87088000D01*
X128503314Y-87218122D01*
X128644167Y-87267742D01*
X128891892Y-87279226D01*
X129214166Y-87286404D01*
X129559792Y-87289128D01*
X129877568Y-87287250D01*
X130116297Y-87280622D01*
X130213497Y-87272291D01*
X130271515Y-87244811D01*
X130311820Y-87170574D01*
X130337542Y-87023465D01*
X130351815Y-86777371D01*
X130357770Y-86406176D01*
X130358667Y-86061943D01*
X130357355Y-85591210D01*
X130350331Y-85258823D01*
X130332965Y-85033797D01*
X130300628Y-84885149D01*
X130248691Y-84781893D01*
X130172522Y-84693046D01*
X130150849Y-84671151D01*
X130107612Y-84632666D01*
X129850667Y-84632666D01*
X129850667Y-86845410D01*
X129660167Y-86783638D01*
X129478288Y-86753010D01*
X129192435Y-86734258D01*
X128898167Y-86731272D01*
X128326667Y-86740678D01*
X128326667Y-85648666D01*
X128665334Y-85648666D01*
X128910105Y-85679691D01*
X129006320Y-85784368D01*
X128964166Y-85980104D01*
X128916355Y-86077566D01*
X128874929Y-86197780D01*
X128956585Y-86238427D01*
X129043355Y-86241333D01*
X129158721Y-86232040D01*
X129222976Y-86178647D01*
X129251048Y-86042877D01*
X129257867Y-85786456D01*
X129258000Y-85691000D01*
X129252367Y-85392387D01*
X129228181Y-85225872D01*
X129174513Y-85154392D01*
X129095723Y-85140666D01*
X128947156Y-85180042D01*
X128904334Y-85227998D01*
X128810261Y-85270028D01*
X128600946Y-85219715D01*
X128407021Y-85123240D01*
X128333431Y-84982127D01*
X128326667Y-84878384D01*
X128326667Y-84632666D01*
X129850667Y-84632666D01*
X130107612Y-84632666D01*
X130046124Y-84577937D01*
X129930907Y-84517691D01*
X129767411Y-84483276D01*
X129517848Y-84467559D01*
X129144432Y-84463404D01*
X129050182Y-84463333D01*
X128157334Y-84463333D01*
X128157334Y-84783161D01*
G37*
X128157334Y-84783161D02*
X128190557Y-85046588D01*
X128271688Y-85264933D01*
X128283117Y-85282569D01*
X128363479Y-85419976D01*
X128334975Y-85486538D01*
X128283117Y-85510417D01*
X128216671Y-85577737D01*
X128177230Y-85737040D01*
X128159607Y-86018368D01*
X128157334Y-86238676D01*
X128164352Y-86598807D01*
X128191182Y-86833433D01*
X128246489Y-86986013D01*
X128326667Y-87088000D01*
X128503314Y-87218122D01*
X128644167Y-87267742D01*
X128891892Y-87279226D01*
X129214166Y-87286404D01*
X129559792Y-87289128D01*
X129877568Y-87287250D01*
X130116297Y-87280622D01*
X130213497Y-87272291D01*
X130271515Y-87244811D01*
X130311820Y-87170574D01*
X130337542Y-87023465D01*
X130351815Y-86777371D01*
X130357770Y-86406176D01*
X130358667Y-86061943D01*
X130357355Y-85591210D01*
X130350331Y-85258823D01*
X130332965Y-85033797D01*
X130300628Y-84885149D01*
X130248691Y-84781893D01*
X130172522Y-84693046D01*
X130150849Y-84671151D01*
X130107612Y-84632666D01*
X129850667Y-84632666D01*
X129850667Y-86845410D01*
X129660167Y-86783638D01*
X129478288Y-86753010D01*
X129192435Y-86734258D01*
X128898167Y-86731272D01*
X128326667Y-86740678D01*
X128326667Y-85648666D01*
X128665334Y-85648666D01*
X128910105Y-85679691D01*
X129006320Y-85784368D01*
X128964166Y-85980104D01*
X128916355Y-86077566D01*
X128874929Y-86197780D01*
X128956585Y-86238427D01*
X129043355Y-86241333D01*
X129158721Y-86232040D01*
X129222976Y-86178647D01*
X129251048Y-86042877D01*
X129257867Y-85786456D01*
X129258000Y-85691000D01*
X129252367Y-85392387D01*
X129228181Y-85225872D01*
X129174513Y-85154392D01*
X129095723Y-85140666D01*
X128947156Y-85180042D01*
X128904334Y-85227998D01*
X128810261Y-85270028D01*
X128600946Y-85219715D01*
X128407021Y-85123240D01*
X128333431Y-84982127D01*
X128326667Y-84878384D01*
X128326667Y-84632666D01*
X129850667Y-84632666D01*
X130107612Y-84632666D01*
X130046124Y-84577937D01*
X129930907Y-84517691D01*
X129767411Y-84483276D01*
X129517848Y-84467559D01*
X129144432Y-84463404D01*
X129050182Y-84463333D01*
X128157334Y-84463333D01*
X128157334Y-84783161D01*
G36*
X122484667Y-85004273D02*
G01*
X122499514Y-85340048D01*
X122556011Y-85577113D01*
X122672095Y-85784424D01*
X122696334Y-85818000D01*
X122877603Y-86191676D01*
X122909249Y-86448282D01*
X122940464Y-86817993D01*
X123048265Y-87056070D01*
X123258739Y-87192509D01*
X123597974Y-87257306D01*
X123614192Y-87258796D01*
X123883948Y-87276555D01*
X124077010Y-87277397D01*
X124141260Y-87265851D01*
X124163593Y-87166284D01*
X124176625Y-86958776D01*
X124178000Y-86856573D01*
X124230789Y-86494950D01*
X124395922Y-86198325D01*
X124521108Y-86003034D01*
X124589623Y-85792156D01*
X124618293Y-85502285D01*
X124622455Y-85344725D01*
X124616612Y-85053967D01*
X124178000Y-85053967D01*
X124147870Y-85368078D01*
X124033904Y-85624493D01*
X123924000Y-85775666D01*
X123733623Y-86083742D01*
X123670391Y-86392377D01*
X123670000Y-86422308D01*
X123659833Y-86634292D01*
X123600489Y-86726628D01*
X123448710Y-86748900D01*
X123384678Y-86749333D01*
X123209132Y-86738789D01*
X123118848Y-86676868D01*
X123075147Y-86518138D01*
X123055818Y-86363061D01*
X122991595Y-86079963D01*
X122883808Y-85843323D01*
X122844827Y-85791561D01*
X122651239Y-85462864D01*
X122603003Y-85059062D01*
X122622009Y-84883429D01*
X122666815Y-84685493D01*
X122751422Y-84610919D01*
X122932857Y-84614615D01*
X122958288Y-84617526D01*
X123130411Y-84646276D01*
X123215296Y-84711666D01*
X123243776Y-84861568D01*
X123246667Y-85065263D01*
X123255995Y-85315774D01*
X123295413Y-85439383D01*
X123382070Y-85478026D01*
X123416000Y-85479333D01*
X123518918Y-85456238D01*
X123569406Y-85358881D01*
X123584890Y-85145155D01*
X123585334Y-85070111D01*
X123593282Y-84822947D01*
X123613491Y-84655364D01*
X123627185Y-84619037D01*
X123731911Y-84600445D01*
X123923519Y-84614535D01*
X124077428Y-84649287D01*
X124152142Y-84726719D01*
X124176122Y-84895978D01*
X124178000Y-85053967D01*
X124616612Y-85053967D01*
X124615729Y-85010080D01*
X124567292Y-84774303D01*
X124452489Y-84620280D01*
X124246666Y-84530897D01*
X123925167Y-84489040D01*
X123463339Y-84477596D01*
X123373001Y-84477444D01*
X122484667Y-84477444D01*
X122484667Y-85004273D01*
G37*
X122484667Y-85004273D02*
X122499514Y-85340048D01*
X122556011Y-85577113D01*
X122672095Y-85784424D01*
X122696334Y-85818000D01*
X122877603Y-86191676D01*
X122909249Y-86448282D01*
X122940464Y-86817993D01*
X123048265Y-87056070D01*
X123258739Y-87192509D01*
X123597974Y-87257306D01*
X123614192Y-87258796D01*
X123883948Y-87276555D01*
X124077010Y-87277397D01*
X124141260Y-87265851D01*
X124163593Y-87166284D01*
X124176625Y-86958776D01*
X124178000Y-86856573D01*
X124230789Y-86494950D01*
X124395922Y-86198325D01*
X124521108Y-86003034D01*
X124589623Y-85792156D01*
X124618293Y-85502285D01*
X124622455Y-85344725D01*
X124616612Y-85053967D01*
X124178000Y-85053967D01*
X124147870Y-85368078D01*
X124033904Y-85624493D01*
X123924000Y-85775666D01*
X123733623Y-86083742D01*
X123670391Y-86392377D01*
X123670000Y-86422308D01*
X123659833Y-86634292D01*
X123600489Y-86726628D01*
X123448710Y-86748900D01*
X123384678Y-86749333D01*
X123209132Y-86738789D01*
X123118848Y-86676868D01*
X123075147Y-86518138D01*
X123055818Y-86363061D01*
X122991595Y-86079963D01*
X122883808Y-85843323D01*
X122844827Y-85791561D01*
X122651239Y-85462864D01*
X122603003Y-85059062D01*
X122622009Y-84883429D01*
X122666815Y-84685493D01*
X122751422Y-84610919D01*
X122932857Y-84614615D01*
X122958288Y-84617526D01*
X123130411Y-84646276D01*
X123215296Y-84711666D01*
X123243776Y-84861568D01*
X123246667Y-85065263D01*
X123255995Y-85315774D01*
X123295413Y-85439383D01*
X123382070Y-85478026D01*
X123416000Y-85479333D01*
X123518918Y-85456238D01*
X123569406Y-85358881D01*
X123584890Y-85145155D01*
X123585334Y-85070111D01*
X123593282Y-84822947D01*
X123613491Y-84655364D01*
X123627185Y-84619037D01*
X123731911Y-84600445D01*
X123923519Y-84614535D01*
X124077428Y-84649287D01*
X124152142Y-84726719D01*
X124176122Y-84895978D01*
X124178000Y-85053967D01*
X124616612Y-85053967D01*
X124615729Y-85010080D01*
X124567292Y-84774303D01*
X124452489Y-84620280D01*
X124246666Y-84530897D01*
X123925167Y-84489040D01*
X123463339Y-84477596D01*
X123373001Y-84477444D01*
X122484667Y-84477444D01*
X122484667Y-85004273D01*
G36*
X113502782Y-80983949D02*
G01*
X113109851Y-81096081D01*
X113034764Y-81129856D01*
X112790475Y-81276416D01*
X112687100Y-81396846D01*
X112729970Y-81477433D01*
X112889112Y-81504440D01*
X113129000Y-81508881D01*
X112938500Y-81641767D01*
X112773019Y-81785780D01*
X112767701Y-81875088D01*
X112922418Y-81909578D01*
X113220042Y-81891168D01*
X113658710Y-81878570D01*
X114037265Y-81941679D01*
X114320224Y-82070751D01*
X114462518Y-82232348D01*
X114489355Y-82466617D01*
X114353324Y-82699352D01*
X114052114Y-82933271D01*
X113714538Y-83111999D01*
X113357062Y-83288560D01*
X112990179Y-83484579D01*
X112741317Y-83628823D01*
X112323050Y-83886186D01*
X111856351Y-83692750D01*
X111572489Y-83585414D01*
X111375835Y-83547183D01*
X111202779Y-83570178D01*
X111110315Y-83600323D01*
X110903097Y-83668457D01*
X110767472Y-83700895D01*
X110759609Y-83701333D01*
X110650900Y-83639739D01*
X110465284Y-83475234D01*
X110230249Y-83238228D01*
X109973283Y-82959134D01*
X109721876Y-82668364D01*
X109503515Y-82396329D01*
X109345689Y-82173442D01*
X109292503Y-82078197D01*
X109131901Y-81789279D01*
X108937723Y-81520515D01*
X108884047Y-81460386D01*
X108714842Y-81315451D01*
X108627061Y-81314215D01*
X108621453Y-81451494D01*
X108698767Y-81722105D01*
X108806404Y-81997079D01*
X108917937Y-82277977D01*
X108996029Y-82505037D01*
X109022667Y-82621195D01*
X108954317Y-82727313D01*
X108783735Y-82857495D01*
X108716925Y-82896145D01*
X108486662Y-83060103D01*
X108235162Y-83297602D01*
X108107327Y-83444565D01*
X107933748Y-83663739D01*
X107802577Y-83829262D01*
X107753882Y-83890620D01*
X107668832Y-83873797D01*
X107496026Y-83768312D01*
X107295928Y-83615453D01*
X107070895Y-83438786D01*
X106893809Y-83316630D01*
X106812115Y-83278000D01*
X106734263Y-83329526D01*
X106780442Y-83475307D01*
X106943809Y-83702146D01*
X107148967Y-83927663D01*
X107384000Y-84179829D01*
X107589739Y-84419412D01*
X107711204Y-84579779D01*
X107845342Y-84731164D01*
X108058294Y-84879948D01*
X108374913Y-85039728D01*
X108820050Y-85224104D01*
X109045890Y-85310121D01*
X109394135Y-85451634D01*
X109584263Y-85571598D01*
X109618289Y-85693530D01*
X109498226Y-85840945D01*
X109226090Y-86037362D01*
X109114402Y-86109802D01*
X108760423Y-86361834D01*
X108559752Y-86574159D01*
X108505982Y-86763319D01*
X108592701Y-86945856D01*
X108737752Y-87081854D01*
X108954291Y-87212382D01*
X109171541Y-87239589D01*
X109429949Y-87158877D01*
X109769959Y-86965647D01*
X109772184Y-86964229D01*
X110043448Y-86803808D01*
X110229133Y-86732942D01*
X110376809Y-86736570D01*
X110433863Y-86754730D01*
X110725864Y-86827414D01*
X111004761Y-86800411D01*
X111313466Y-86662981D01*
X111623597Y-86456974D01*
X111991895Y-86173417D01*
X112313830Y-85896379D01*
X112564207Y-85650065D01*
X112717832Y-85458680D01*
X112754292Y-85370677D01*
X112780936Y-85216218D01*
X112530701Y-85216218D01*
X112508562Y-85321413D01*
X112377964Y-85458558D01*
X112184897Y-85590183D01*
X111975348Y-85678815D01*
X111957362Y-85683376D01*
X111798384Y-85737900D01*
X111782374Y-85810620D01*
X111819562Y-85863821D01*
X111859801Y-85941078D01*
X111791404Y-85977587D01*
X111585357Y-85987296D01*
X111562667Y-85987333D01*
X111344188Y-85993929D01*
X111265106Y-86025248D01*
X111295648Y-86098585D01*
X111319467Y-86128612D01*
X111381474Y-86221442D01*
X111329695Y-86243445D01*
X111170496Y-86217395D01*
X110935096Y-86196706D01*
X110839853Y-86251456D01*
X110892550Y-86376975D01*
X110896435Y-86381709D01*
X110930253Y-86473924D01*
X110850278Y-86503908D01*
X110697251Y-86478668D01*
X110511911Y-86405212D01*
X110334997Y-86290546D01*
X110327003Y-86283770D01*
X110155380Y-86147265D01*
X110039829Y-86075366D01*
X110026559Y-86072103D01*
X109937679Y-86009546D01*
X109949259Y-85838206D01*
X110056291Y-85581776D01*
X110171736Y-85385246D01*
X110323844Y-85132923D01*
X110428932Y-84927577D01*
X110462000Y-84826021D01*
X110413389Y-84724848D01*
X110282283Y-84748357D01*
X110090773Y-84888054D01*
X109961060Y-85018602D01*
X109780817Y-85197619D01*
X109660854Y-85257551D01*
X109566456Y-85219901D01*
X109475360Y-85064533D01*
X109446000Y-84890410D01*
X109421446Y-84670243D01*
X109336364Y-84604717D01*
X109173626Y-84684798D01*
X109125404Y-84721292D01*
X108971214Y-84828454D01*
X108885427Y-84861625D01*
X108883302Y-84860190D01*
X108897334Y-84773376D01*
X108959441Y-84566049D01*
X109057861Y-84276104D01*
X109107004Y-84139337D01*
X109225669Y-83807115D01*
X109287905Y-83602435D01*
X109297803Y-83494692D01*
X109259452Y-83453278D01*
X109199488Y-83447333D01*
X109067640Y-83509348D01*
X108867385Y-83675518D01*
X108633888Y-83916032D01*
X108596672Y-83958405D01*
X108387261Y-84192089D01*
X108222490Y-84360917D01*
X108130494Y-84436545D01*
X108121517Y-84437071D01*
X108120803Y-84329322D01*
X108201346Y-84137317D01*
X108336836Y-83907573D01*
X108500958Y-83686611D01*
X108613883Y-83566600D01*
X108931503Y-83294456D01*
X109223989Y-83085338D01*
X109456721Y-82962290D01*
X109556078Y-82939333D01*
X109667009Y-83005875D01*
X109823312Y-83178001D01*
X109949825Y-83356158D01*
X110117187Y-83602189D01*
X110266640Y-83796992D01*
X110339651Y-83874525D01*
X110445687Y-84042433D01*
X110462000Y-84135033D01*
X110515848Y-84266899D01*
X110644336Y-84279878D01*
X110797880Y-84170161D01*
X110805300Y-84161417D01*
X110958471Y-84028192D01*
X111163029Y-83900746D01*
X111381849Y-83819991D01*
X111583408Y-83846551D01*
X111656028Y-83874268D01*
X111826957Y-83965769D01*
X111901236Y-84046551D01*
X111901334Y-84048658D01*
X111829650Y-84123262D01*
X111666523Y-84177730D01*
X111489835Y-84193286D01*
X111398146Y-84169974D01*
X111323712Y-84174836D01*
X111310834Y-84295265D01*
X111353807Y-84491422D01*
X111446927Y-84723472D01*
X111488798Y-84803110D01*
X111722154Y-85118825D01*
X111973419Y-85271939D01*
X112237065Y-85259377D01*
X112278587Y-85242445D01*
X112445479Y-85194788D01*
X112530701Y-85216218D01*
X112780936Y-85216218D01*
X112819187Y-84994474D01*
X112967979Y-84738700D01*
X113023858Y-84686275D01*
X113213667Y-84528217D01*
X113256000Y-85714924D01*
X113280976Y-86262233D01*
X113318662Y-86662835D01*
X113380426Y-86939352D01*
X113477637Y-87114407D01*
X113621662Y-87210620D01*
X113823872Y-87250613D01*
X114031123Y-87257333D01*
X114441334Y-87257333D01*
X114441334Y-86749333D01*
X114452781Y-86481411D01*
X114482536Y-86297336D01*
X114516942Y-86241333D01*
X114613311Y-86317395D01*
X114678533Y-86511981D01*
X114695334Y-86704544D01*
X114770958Y-86984654D01*
X114972679Y-87185828D01*
X115262769Y-87271971D01*
X115289321Y-87272821D01*
X115525556Y-87278058D01*
X115690702Y-87270012D01*
X115796614Y-87223411D01*
X115855148Y-87112984D01*
X115878156Y-86913456D01*
X115877494Y-86599556D01*
X115865015Y-86146011D01*
X115862511Y-86050833D01*
X115848284Y-85648666D01*
X115372667Y-85648666D01*
X115372667Y-86749333D01*
X114780000Y-86749333D01*
X114780000Y-85277101D01*
X114575502Y-85554284D01*
X114371003Y-85831467D01*
X114215668Y-85507233D01*
X114060334Y-85183000D01*
X114035990Y-85966166D01*
X114011646Y-86749333D01*
X113425334Y-86749333D01*
X113425334Y-84573245D01*
X113658167Y-84589703D01*
X113845960Y-84606390D01*
X113959742Y-84648311D01*
X114051512Y-84754599D01*
X114173270Y-84964391D01*
X114185894Y-84986871D01*
X114384968Y-85341077D01*
X114518984Y-85146865D01*
X114787185Y-84808421D01*
X115027607Y-84604897D01*
X115199485Y-84548000D01*
X115270153Y-84556575D01*
X115318430Y-84600317D01*
X115348568Y-84706249D01*
X115364819Y-84901392D01*
X115371434Y-85212770D01*
X115372667Y-85648666D01*
X115848284Y-85648666D01*
X115846744Y-85605163D01*
X115824551Y-85211938D01*
X115798526Y-84906297D01*
X115771261Y-84723381D01*
X115762540Y-84696166D01*
X115742397Y-84576152D01*
X115829275Y-84548000D01*
X115925087Y-84598598D01*
X115963110Y-84771597D01*
X115965334Y-84860867D01*
X116032551Y-85190605D01*
X116175496Y-85393096D01*
X116339038Y-85626335D01*
X116439527Y-85881839D01*
X116440080Y-85884562D01*
X116464883Y-86070336D01*
X116408818Y-86143715D01*
X116231747Y-86156666D01*
X116229917Y-86156666D01*
X116051475Y-86172529D01*
X115978918Y-86254671D01*
X115965334Y-86449016D01*
X116009486Y-86793398D01*
X116128934Y-87058626D01*
X116304169Y-87204764D01*
X116339682Y-87215242D01*
X116504884Y-87236052D01*
X116785544Y-87256775D01*
X117127824Y-87273625D01*
X117214366Y-87276712D01*
X117913065Y-87299666D01*
X117917845Y-86156666D01*
X117922400Y-85695063D01*
X117932857Y-85384152D01*
X117951217Y-85205337D01*
X117979484Y-85140021D01*
X118019659Y-85169608D01*
X118023480Y-85175570D01*
X118165927Y-85370370D01*
X118272500Y-85493070D01*
X118359283Y-85635578D01*
X118405909Y-85860464D01*
X118420619Y-86209086D01*
X118420667Y-86236612D01*
X118451870Y-86682973D01*
X118555591Y-86990344D01*
X118746994Y-87179059D01*
X119041246Y-87269452D01*
X119201119Y-87283072D01*
X119600571Y-87299666D01*
X119624452Y-86453000D01*
X119648334Y-85606333D01*
X119923500Y-85579802D01*
X120198667Y-85553271D01*
X120198667Y-85962256D01*
X120211631Y-86200699D01*
X120268375Y-86389125D01*
X120395680Y-86586823D01*
X120580619Y-86807870D01*
X120962571Y-87244498D01*
X121640183Y-87272082D01*
X121983390Y-87281392D01*
X122193709Y-87270955D01*
X122307032Y-87234706D01*
X122359251Y-87166583D01*
X122365207Y-87149597D01*
X122379729Y-86938624D01*
X122339802Y-86667964D01*
X122262563Y-86430346D01*
X122218729Y-86357054D01*
X122206164Y-86253329D01*
X122270840Y-86211544D01*
X122369513Y-86083569D01*
X122394050Y-85841823D01*
X122376654Y-85582249D01*
X122340728Y-85455838D01*
X121892000Y-85455838D01*
X121892000Y-85818000D01*
X121426334Y-85818000D01*
X121159637Y-85823494D01*
X121020770Y-85852534D01*
X120968296Y-85923956D01*
X120960667Y-86029666D01*
X120972755Y-86150892D01*
X121036644Y-86214013D01*
X121193771Y-86237865D01*
X121426334Y-86241333D01*
X121692548Y-86245598D01*
X121831111Y-86273549D01*
X121883702Y-86347922D01*
X121892000Y-86491449D01*
X121892000Y-86749333D01*
X121306860Y-86749333D01*
X120991708Y-86743908D01*
X120792825Y-86716031D01*
X120657224Y-86648297D01*
X120531917Y-86523301D01*
X120498226Y-86483725D01*
X120341599Y-86245338D01*
X120295544Y-85991826D01*
X120300200Y-85869892D01*
X120325667Y-85521666D01*
X120812500Y-85496274D01*
X121087164Y-85476198D01*
X121232912Y-85439870D01*
X121290132Y-85367975D01*
X121299334Y-85263441D01*
X121282898Y-85135348D01*
X121203420Y-85074659D01*
X121015640Y-85056732D01*
X120918334Y-85056000D01*
X120684051Y-85048636D01*
X120573087Y-85006123D01*
X120539488Y-84897824D01*
X120537334Y-84802000D01*
X120545771Y-84654318D01*
X120599515Y-84579153D01*
X120741214Y-84552260D01*
X120981834Y-84549296D01*
X121251209Y-84561198D01*
X121453289Y-84590217D01*
X121515908Y-84612796D01*
X121724305Y-84847321D01*
X121858126Y-85179577D01*
X121892000Y-85455838D01*
X122340728Y-85455838D01*
X122318613Y-85378028D01*
X122194146Y-85176573D01*
X121977476Y-84925296D01*
X121908506Y-84851323D01*
X121544011Y-84463333D01*
X120347032Y-84463333D01*
X120385149Y-84922969D01*
X120399336Y-85194448D01*
X120377441Y-85342080D01*
X120309334Y-85409350D01*
X120268633Y-85423043D01*
X120166188Y-85422637D01*
X120121971Y-85323176D01*
X120114000Y-85147498D01*
X120056301Y-84836621D01*
X119675124Y-84836621D01*
X119672855Y-84990411D01*
X119581937Y-85048549D01*
X119442291Y-85056000D01*
X119182667Y-85056000D01*
X119182667Y-86749333D01*
X118596132Y-86749333D01*
X118571900Y-85923833D01*
X118558442Y-85544133D01*
X118539595Y-85301476D01*
X118507234Y-85163597D01*
X118453231Y-85098227D01*
X118369459Y-85073100D01*
X118357167Y-85071278D01*
X118210068Y-85003253D01*
X118166705Y-84828181D01*
X118166637Y-84817278D01*
X118166608Y-84590333D01*
X118907471Y-84603788D01*
X119262468Y-84612247D01*
X119482404Y-84628790D01*
X119601535Y-84663807D01*
X119654120Y-84727689D01*
X119674413Y-84830824D01*
X119675124Y-84836621D01*
X120056301Y-84836621D01*
X120056299Y-84836612D01*
X119918044Y-84647425D01*
X119810566Y-84562712D01*
X119680241Y-84508628D01*
X119488697Y-84478500D01*
X119197563Y-84465654D01*
X118859710Y-84463333D01*
X117997334Y-84463333D01*
X117997334Y-84911393D01*
X117789710Y-84687363D01*
X117729670Y-84632666D01*
X117489334Y-84632666D01*
X117489334Y-86749333D01*
X116134667Y-86749333D01*
X116134667Y-86495333D01*
X116145712Y-86339144D01*
X116209482Y-86265168D01*
X116371931Y-86242769D01*
X116515667Y-86241333D01*
X116750774Y-86232560D01*
X116862166Y-86189436D01*
X116895212Y-86086757D01*
X116896667Y-86029666D01*
X116856980Y-85863685D01*
X116727334Y-85818000D01*
X116588230Y-85769266D01*
X116569389Y-85663581D01*
X116669359Y-85561716D01*
X116734032Y-85537716D01*
X116868809Y-85446611D01*
X116882198Y-85295008D01*
X116836729Y-85166296D01*
X116715946Y-85100836D01*
X116494500Y-85072298D01*
X116266551Y-85044039D01*
X116161991Y-84983581D01*
X116134895Y-84861205D01*
X116134667Y-84839465D01*
X116142459Y-84736886D01*
X116188857Y-84675461D01*
X116308394Y-84644647D01*
X116535607Y-84633901D01*
X116812000Y-84632666D01*
X117489334Y-84632666D01*
X117729670Y-84632666D01*
X117651134Y-84561121D01*
X117496091Y-84493393D01*
X117267169Y-84466797D01*
X117049742Y-84463333D01*
X116517397Y-84463333D01*
X116757715Y-84240498D01*
X116927866Y-84002013D01*
X116941649Y-83764575D01*
X116549019Y-83764575D01*
X116542458Y-83846151D01*
X116455287Y-84042440D01*
X116241982Y-84153544D01*
X115890563Y-84184848D01*
X115796000Y-84181684D01*
X115572945Y-84138677D01*
X115499667Y-84047308D01*
X115573927Y-83952433D01*
X115766865Y-83841678D01*
X115923000Y-83778703D01*
X116242847Y-83672415D01*
X116434527Y-83632533D01*
X116526948Y-83662204D01*
X116549019Y-83764575D01*
X116941649Y-83764575D01*
X116943217Y-83737568D01*
X116888403Y-83620872D01*
X115274220Y-83620872D01*
X115182637Y-83722707D01*
X115165638Y-83730171D01*
X115090062Y-83801056D01*
X115097173Y-83954958D01*
X115123305Y-84056170D01*
X115184544Y-84287736D01*
X115180107Y-84406247D01*
X115089979Y-84461709D01*
X114948398Y-84493153D01*
X114700110Y-84615975D01*
X114596141Y-84757737D01*
X114514478Y-84913230D01*
X114464611Y-84971333D01*
X114393696Y-84913113D01*
X114260430Y-84768627D01*
X114220987Y-84722457D01*
X113954257Y-84508858D01*
X113739620Y-84443236D01*
X113600309Y-84423673D01*
X113562126Y-84393768D01*
X113640459Y-84334853D01*
X113850695Y-84228256D01*
X113960613Y-84175106D01*
X114222903Y-84034780D01*
X114418048Y-83904654D01*
X114498040Y-83821408D01*
X114605548Y-83703971D01*
X114804697Y-83576707D01*
X115024989Y-83478627D01*
X115174009Y-83447333D01*
X115272101Y-83503505D01*
X115274220Y-83620872D01*
X116888403Y-83620872D01*
X116801923Y-83436765D01*
X116757489Y-83383499D01*
X116057640Y-83383499D01*
X116025875Y-83437592D01*
X115836355Y-83526653D01*
X115611554Y-83450116D01*
X115481692Y-83345779D01*
X115338022Y-83232292D01*
X115195795Y-83201224D01*
X114981309Y-83240481D01*
X114926893Y-83254735D01*
X114622370Y-83308116D01*
X114458607Y-83269130D01*
X114436738Y-83138981D01*
X114557900Y-82918873D01*
X114581121Y-82887761D01*
X114721078Y-82655419D01*
X114796781Y-82434665D01*
X114801167Y-82386715D01*
X114817139Y-82243798D01*
X114882454Y-82244539D01*
X114922464Y-82274833D01*
X115033335Y-82403888D01*
X115181973Y-82621763D01*
X115267649Y-82763250D01*
X115459633Y-83059403D01*
X115620350Y-83237993D01*
X115735949Y-83288944D01*
X115792580Y-83202181D01*
X115796000Y-83147627D01*
X115733954Y-82905675D01*
X115559454Y-82582592D01*
X115289957Y-82205859D01*
X114942922Y-81802957D01*
X114939317Y-81799100D01*
X114691577Y-81511931D01*
X114568294Y-81322836D01*
X114563879Y-81240383D01*
X114672740Y-81273138D01*
X114889286Y-81429669D01*
X115074472Y-81591990D01*
X115347094Y-81881854D01*
X115598182Y-82217826D01*
X115811258Y-82567941D01*
X115969845Y-82900235D01*
X116057465Y-83182742D01*
X116057640Y-83383499D01*
X116757489Y-83383499D01*
X116564636Y-83152316D01*
X116348302Y-82888345D01*
X116122477Y-82550886D01*
X115971339Y-82280662D01*
X115644364Y-81725785D01*
X115289732Y-81310744D01*
X114919001Y-81048099D01*
X114788184Y-80994700D01*
X114415433Y-80927594D01*
X113962470Y-80925899D01*
X113502782Y-80983949D01*
G37*
X113502782Y-80983949D02*
X113109851Y-81096081D01*
X113034764Y-81129856D01*
X112790475Y-81276416D01*
X112687100Y-81396846D01*
X112729970Y-81477433D01*
X112889112Y-81504440D01*
X113129000Y-81508881D01*
X112938500Y-81641767D01*
X112773019Y-81785780D01*
X112767701Y-81875088D01*
X112922418Y-81909578D01*
X113220042Y-81891168D01*
X113658710Y-81878570D01*
X114037265Y-81941679D01*
X114320224Y-82070751D01*
X114462518Y-82232348D01*
X114489355Y-82466617D01*
X114353324Y-82699352D01*
X114052114Y-82933271D01*
X113714538Y-83111999D01*
X113357062Y-83288560D01*
X112990179Y-83484579D01*
X112741317Y-83628823D01*
X112323050Y-83886186D01*
X111856351Y-83692750D01*
X111572489Y-83585414D01*
X111375835Y-83547183D01*
X111202779Y-83570178D01*
X111110315Y-83600323D01*
X110903097Y-83668457D01*
X110767472Y-83700895D01*
X110759609Y-83701333D01*
X110650900Y-83639739D01*
X110465284Y-83475234D01*
X110230249Y-83238228D01*
X109973283Y-82959134D01*
X109721876Y-82668364D01*
X109503515Y-82396329D01*
X109345689Y-82173442D01*
X109292503Y-82078197D01*
X109131901Y-81789279D01*
X108937723Y-81520515D01*
X108884047Y-81460386D01*
X108714842Y-81315451D01*
X108627061Y-81314215D01*
X108621453Y-81451494D01*
X108698767Y-81722105D01*
X108806404Y-81997079D01*
X108917937Y-82277977D01*
X108996029Y-82505037D01*
X109022667Y-82621195D01*
X108954317Y-82727313D01*
X108783735Y-82857495D01*
X108716925Y-82896145D01*
X108486662Y-83060103D01*
X108235162Y-83297602D01*
X108107327Y-83444565D01*
X107933748Y-83663739D01*
X107802577Y-83829262D01*
X107753882Y-83890620D01*
X107668832Y-83873797D01*
X107496026Y-83768312D01*
X107295928Y-83615453D01*
X107070895Y-83438786D01*
X106893809Y-83316630D01*
X106812115Y-83278000D01*
X106734263Y-83329526D01*
X106780442Y-83475307D01*
X106943809Y-83702146D01*
X107148967Y-83927663D01*
X107384000Y-84179829D01*
X107589739Y-84419412D01*
X107711204Y-84579779D01*
X107845342Y-84731164D01*
X108058294Y-84879948D01*
X108374913Y-85039728D01*
X108820050Y-85224104D01*
X109045890Y-85310121D01*
X109394135Y-85451634D01*
X109584263Y-85571598D01*
X109618289Y-85693530D01*
X109498226Y-85840945D01*
X109226090Y-86037362D01*
X109114402Y-86109802D01*
X108760423Y-86361834D01*
X108559752Y-86574159D01*
X108505982Y-86763319D01*
X108592701Y-86945856D01*
X108737752Y-87081854D01*
X108954291Y-87212382D01*
X109171541Y-87239589D01*
X109429949Y-87158877D01*
X109769959Y-86965647D01*
X109772184Y-86964229D01*
X110043448Y-86803808D01*
X110229133Y-86732942D01*
X110376809Y-86736570D01*
X110433863Y-86754730D01*
X110725864Y-86827414D01*
X111004761Y-86800411D01*
X111313466Y-86662981D01*
X111623597Y-86456974D01*
X111991895Y-86173417D01*
X112313830Y-85896379D01*
X112564207Y-85650065D01*
X112717832Y-85458680D01*
X112754292Y-85370677D01*
X112780936Y-85216218D01*
X112530701Y-85216218D01*
X112508562Y-85321413D01*
X112377964Y-85458558D01*
X112184897Y-85590183D01*
X111975348Y-85678815D01*
X111957362Y-85683376D01*
X111798384Y-85737900D01*
X111782374Y-85810620D01*
X111819562Y-85863821D01*
X111859801Y-85941078D01*
X111791404Y-85977587D01*
X111585357Y-85987296D01*
X111562667Y-85987333D01*
X111344188Y-85993929D01*
X111265106Y-86025248D01*
X111295648Y-86098585D01*
X111319467Y-86128612D01*
X111381474Y-86221442D01*
X111329695Y-86243445D01*
X111170496Y-86217395D01*
X110935096Y-86196706D01*
X110839853Y-86251456D01*
X110892550Y-86376975D01*
X110896435Y-86381709D01*
X110930253Y-86473924D01*
X110850278Y-86503908D01*
X110697251Y-86478668D01*
X110511911Y-86405212D01*
X110334997Y-86290546D01*
X110327003Y-86283770D01*
X110155380Y-86147265D01*
X110039829Y-86075366D01*
X110026559Y-86072103D01*
X109937679Y-86009546D01*
X109949259Y-85838206D01*
X110056291Y-85581776D01*
X110171736Y-85385246D01*
X110323844Y-85132923D01*
X110428932Y-84927577D01*
X110462000Y-84826021D01*
X110413389Y-84724848D01*
X110282283Y-84748357D01*
X110090773Y-84888054D01*
X109961060Y-85018602D01*
X109780817Y-85197619D01*
X109660854Y-85257551D01*
X109566456Y-85219901D01*
X109475360Y-85064533D01*
X109446000Y-84890410D01*
X109421446Y-84670243D01*
X109336364Y-84604717D01*
X109173626Y-84684798D01*
X109125404Y-84721292D01*
X108971214Y-84828454D01*
X108885427Y-84861625D01*
X108883302Y-84860190D01*
X108897334Y-84773376D01*
X108959441Y-84566049D01*
X109057861Y-84276104D01*
X109107004Y-84139337D01*
X109225669Y-83807115D01*
X109287905Y-83602435D01*
X109297803Y-83494692D01*
X109259452Y-83453278D01*
X109199488Y-83447333D01*
X109067640Y-83509348D01*
X108867385Y-83675518D01*
X108633888Y-83916032D01*
X108596672Y-83958405D01*
X108387261Y-84192089D01*
X108222490Y-84360917D01*
X108130494Y-84436545D01*
X108121517Y-84437071D01*
X108120803Y-84329322D01*
X108201346Y-84137317D01*
X108336836Y-83907573D01*
X108500958Y-83686611D01*
X108613883Y-83566600D01*
X108931503Y-83294456D01*
X109223989Y-83085338D01*
X109456721Y-82962290D01*
X109556078Y-82939333D01*
X109667009Y-83005875D01*
X109823312Y-83178001D01*
X109949825Y-83356158D01*
X110117187Y-83602189D01*
X110266640Y-83796992D01*
X110339651Y-83874525D01*
X110445687Y-84042433D01*
X110462000Y-84135033D01*
X110515848Y-84266899D01*
X110644336Y-84279878D01*
X110797880Y-84170161D01*
X110805300Y-84161417D01*
X110958471Y-84028192D01*
X111163029Y-83900746D01*
X111381849Y-83819991D01*
X111583408Y-83846551D01*
X111656028Y-83874268D01*
X111826957Y-83965769D01*
X111901236Y-84046551D01*
X111901334Y-84048658D01*
X111829650Y-84123262D01*
X111666523Y-84177730D01*
X111489835Y-84193286D01*
X111398146Y-84169974D01*
X111323712Y-84174836D01*
X111310834Y-84295265D01*
X111353807Y-84491422D01*
X111446927Y-84723472D01*
X111488798Y-84803110D01*
X111722154Y-85118825D01*
X111973419Y-85271939D01*
X112237065Y-85259377D01*
X112278587Y-85242445D01*
X112445479Y-85194788D01*
X112530701Y-85216218D01*
X112780936Y-85216218D01*
X112819187Y-84994474D01*
X112967979Y-84738700D01*
X113023858Y-84686275D01*
X113213667Y-84528217D01*
X113256000Y-85714924D01*
X113280976Y-86262233D01*
X113318662Y-86662835D01*
X113380426Y-86939352D01*
X113477637Y-87114407D01*
X113621662Y-87210620D01*
X113823872Y-87250613D01*
X114031123Y-87257333D01*
X114441334Y-87257333D01*
X114441334Y-86749333D01*
X114452781Y-86481411D01*
X114482536Y-86297336D01*
X114516942Y-86241333D01*
X114613311Y-86317395D01*
X114678533Y-86511981D01*
X114695334Y-86704544D01*
X114770958Y-86984654D01*
X114972679Y-87185828D01*
X115262769Y-87271971D01*
X115289321Y-87272821D01*
X115525556Y-87278058D01*
X115690702Y-87270012D01*
X115796614Y-87223411D01*
X115855148Y-87112984D01*
X115878156Y-86913456D01*
X115877494Y-86599556D01*
X115865015Y-86146011D01*
X115862511Y-86050833D01*
X115848284Y-85648666D01*
X115372667Y-85648666D01*
X115372667Y-86749333D01*
X114780000Y-86749333D01*
X114780000Y-85277101D01*
X114575502Y-85554284D01*
X114371003Y-85831467D01*
X114215668Y-85507233D01*
X114060334Y-85183000D01*
X114035990Y-85966166D01*
X114011646Y-86749333D01*
X113425334Y-86749333D01*
X113425334Y-84573245D01*
X113658167Y-84589703D01*
X113845960Y-84606390D01*
X113959742Y-84648311D01*
X114051512Y-84754599D01*
X114173270Y-84964391D01*
X114185894Y-84986871D01*
X114384968Y-85341077D01*
X114518984Y-85146865D01*
X114787185Y-84808421D01*
X115027607Y-84604897D01*
X115199485Y-84548000D01*
X115270153Y-84556575D01*
X115318430Y-84600317D01*
X115348568Y-84706249D01*
X115364819Y-84901392D01*
X115371434Y-85212770D01*
X115372667Y-85648666D01*
X115848284Y-85648666D01*
X115846744Y-85605163D01*
X115824551Y-85211938D01*
X115798526Y-84906297D01*
X115771261Y-84723381D01*
X115762540Y-84696166D01*
X115742397Y-84576152D01*
X115829275Y-84548000D01*
X115925087Y-84598598D01*
X115963110Y-84771597D01*
X115965334Y-84860867D01*
X116032551Y-85190605D01*
X116175496Y-85393096D01*
X116339038Y-85626335D01*
X116439527Y-85881839D01*
X116440080Y-85884562D01*
X116464883Y-86070336D01*
X116408818Y-86143715D01*
X116231747Y-86156666D01*
X116229917Y-86156666D01*
X116051475Y-86172529D01*
X115978918Y-86254671D01*
X115965334Y-86449016D01*
X116009486Y-86793398D01*
X116128934Y-87058626D01*
X116304169Y-87204764D01*
X116339682Y-87215242D01*
X116504884Y-87236052D01*
X116785544Y-87256775D01*
X117127824Y-87273625D01*
X117214366Y-87276712D01*
X117913065Y-87299666D01*
X117917845Y-86156666D01*
X117922400Y-85695063D01*
X117932857Y-85384152D01*
X117951217Y-85205337D01*
X117979484Y-85140021D01*
X118019659Y-85169608D01*
X118023480Y-85175570D01*
X118165927Y-85370370D01*
X118272500Y-85493070D01*
X118359283Y-85635578D01*
X118405909Y-85860464D01*
X118420619Y-86209086D01*
X118420667Y-86236612D01*
X118451870Y-86682973D01*
X118555591Y-86990344D01*
X118746994Y-87179059D01*
X119041246Y-87269452D01*
X119201119Y-87283072D01*
X119600571Y-87299666D01*
X119624452Y-86453000D01*
X119648334Y-85606333D01*
X119923500Y-85579802D01*
X120198667Y-85553271D01*
X120198667Y-85962256D01*
X120211631Y-86200699D01*
X120268375Y-86389125D01*
X120395680Y-86586823D01*
X120580619Y-86807870D01*
X120962571Y-87244498D01*
X121640183Y-87272082D01*
X121983390Y-87281392D01*
X122193709Y-87270955D01*
X122307032Y-87234706D01*
X122359251Y-87166583D01*
X122365207Y-87149597D01*
X122379729Y-86938624D01*
X122339802Y-86667964D01*
X122262563Y-86430346D01*
X122218729Y-86357054D01*
X122206164Y-86253329D01*
X122270840Y-86211544D01*
X122369513Y-86083569D01*
X122394050Y-85841823D01*
X122376654Y-85582249D01*
X122340728Y-85455838D01*
X121892000Y-85455838D01*
X121892000Y-85818000D01*
X121426334Y-85818000D01*
X121159637Y-85823494D01*
X121020770Y-85852534D01*
X120968296Y-85923956D01*
X120960667Y-86029666D01*
X120972755Y-86150892D01*
X121036644Y-86214013D01*
X121193771Y-86237865D01*
X121426334Y-86241333D01*
X121692548Y-86245598D01*
X121831111Y-86273549D01*
X121883702Y-86347922D01*
X121892000Y-86491449D01*
X121892000Y-86749333D01*
X121306860Y-86749333D01*
X120991708Y-86743908D01*
X120792825Y-86716031D01*
X120657224Y-86648297D01*
X120531917Y-86523301D01*
X120498226Y-86483725D01*
X120341599Y-86245338D01*
X120295544Y-85991826D01*
X120300200Y-85869892D01*
X120325667Y-85521666D01*
X120812500Y-85496274D01*
X121087164Y-85476198D01*
X121232912Y-85439870D01*
X121290132Y-85367975D01*
X121299334Y-85263441D01*
X121282898Y-85135348D01*
X121203420Y-85074659D01*
X121015640Y-85056732D01*
X120918334Y-85056000D01*
X120684051Y-85048636D01*
X120573087Y-85006123D01*
X120539488Y-84897824D01*
X120537334Y-84802000D01*
X120545771Y-84654318D01*
X120599515Y-84579153D01*
X120741214Y-84552260D01*
X120981834Y-84549296D01*
X121251209Y-84561198D01*
X121453289Y-84590217D01*
X121515908Y-84612796D01*
X121724305Y-84847321D01*
X121858126Y-85179577D01*
X121892000Y-85455838D01*
X122340728Y-85455838D01*
X122318613Y-85378028D01*
X122194146Y-85176573D01*
X121977476Y-84925296D01*
X121908506Y-84851323D01*
X121544011Y-84463333D01*
X120347032Y-84463333D01*
X120385149Y-84922969D01*
X120399336Y-85194448D01*
X120377441Y-85342080D01*
X120309334Y-85409350D01*
X120268633Y-85423043D01*
X120166188Y-85422637D01*
X120121971Y-85323176D01*
X120114000Y-85147498D01*
X120056301Y-84836621D01*
X119675124Y-84836621D01*
X119672855Y-84990411D01*
X119581937Y-85048549D01*
X119442291Y-85056000D01*
X119182667Y-85056000D01*
X119182667Y-86749333D01*
X118596132Y-86749333D01*
X118571900Y-85923833D01*
X118558442Y-85544133D01*
X118539595Y-85301476D01*
X118507234Y-85163597D01*
X118453231Y-85098227D01*
X118369459Y-85073100D01*
X118357167Y-85071278D01*
X118210068Y-85003253D01*
X118166705Y-84828181D01*
X118166637Y-84817278D01*
X118166608Y-84590333D01*
X118907471Y-84603788D01*
X119262468Y-84612247D01*
X119482404Y-84628790D01*
X119601535Y-84663807D01*
X119654120Y-84727689D01*
X119674413Y-84830824D01*
X119675124Y-84836621D01*
X120056301Y-84836621D01*
X120056299Y-84836612D01*
X119918044Y-84647425D01*
X119810566Y-84562712D01*
X119680241Y-84508628D01*
X119488697Y-84478500D01*
X119197563Y-84465654D01*
X118859710Y-84463333D01*
X117997334Y-84463333D01*
X117997334Y-84911393D01*
X117789710Y-84687363D01*
X117729670Y-84632666D01*
X117489334Y-84632666D01*
X117489334Y-86749333D01*
X116134667Y-86749333D01*
X116134667Y-86495333D01*
X116145712Y-86339144D01*
X116209482Y-86265168D01*
X116371931Y-86242769D01*
X116515667Y-86241333D01*
X116750774Y-86232560D01*
X116862166Y-86189436D01*
X116895212Y-86086757D01*
X116896667Y-86029666D01*
X116856980Y-85863685D01*
X116727334Y-85818000D01*
X116588230Y-85769266D01*
X116569389Y-85663581D01*
X116669359Y-85561716D01*
X116734032Y-85537716D01*
X116868809Y-85446611D01*
X116882198Y-85295008D01*
X116836729Y-85166296D01*
X116715946Y-85100836D01*
X116494500Y-85072298D01*
X116266551Y-85044039D01*
X116161991Y-84983581D01*
X116134895Y-84861205D01*
X116134667Y-84839465D01*
X116142459Y-84736886D01*
X116188857Y-84675461D01*
X116308394Y-84644647D01*
X116535607Y-84633901D01*
X116812000Y-84632666D01*
X117489334Y-84632666D01*
X117729670Y-84632666D01*
X117651134Y-84561121D01*
X117496091Y-84493393D01*
X117267169Y-84466797D01*
X117049742Y-84463333D01*
X116517397Y-84463333D01*
X116757715Y-84240498D01*
X116927866Y-84002013D01*
X116941649Y-83764575D01*
X116549019Y-83764575D01*
X116542458Y-83846151D01*
X116455287Y-84042440D01*
X116241982Y-84153544D01*
X115890563Y-84184848D01*
X115796000Y-84181684D01*
X115572945Y-84138677D01*
X115499667Y-84047308D01*
X115573927Y-83952433D01*
X115766865Y-83841678D01*
X115923000Y-83778703D01*
X116242847Y-83672415D01*
X116434527Y-83632533D01*
X116526948Y-83662204D01*
X116549019Y-83764575D01*
X116941649Y-83764575D01*
X116943217Y-83737568D01*
X116888403Y-83620872D01*
X115274220Y-83620872D01*
X115182637Y-83722707D01*
X115165638Y-83730171D01*
X115090062Y-83801056D01*
X115097173Y-83954958D01*
X115123305Y-84056170D01*
X115184544Y-84287736D01*
X115180107Y-84406247D01*
X115089979Y-84461709D01*
X114948398Y-84493153D01*
X114700110Y-84615975D01*
X114596141Y-84757737D01*
X114514478Y-84913230D01*
X114464611Y-84971333D01*
X114393696Y-84913113D01*
X114260430Y-84768627D01*
X114220987Y-84722457D01*
X113954257Y-84508858D01*
X113739620Y-84443236D01*
X113600309Y-84423673D01*
X113562126Y-84393768D01*
X113640459Y-84334853D01*
X113850695Y-84228256D01*
X113960613Y-84175106D01*
X114222903Y-84034780D01*
X114418048Y-83904654D01*
X114498040Y-83821408D01*
X114605548Y-83703971D01*
X114804697Y-83576707D01*
X115024989Y-83478627D01*
X115174009Y-83447333D01*
X115272101Y-83503505D01*
X115274220Y-83620872D01*
X116888403Y-83620872D01*
X116801923Y-83436765D01*
X116757489Y-83383499D01*
X116057640Y-83383499D01*
X116025875Y-83437592D01*
X115836355Y-83526653D01*
X115611554Y-83450116D01*
X115481692Y-83345779D01*
X115338022Y-83232292D01*
X115195795Y-83201224D01*
X114981309Y-83240481D01*
X114926893Y-83254735D01*
X114622370Y-83308116D01*
X114458607Y-83269130D01*
X114436738Y-83138981D01*
X114557900Y-82918873D01*
X114581121Y-82887761D01*
X114721078Y-82655419D01*
X114796781Y-82434665D01*
X114801167Y-82386715D01*
X114817139Y-82243798D01*
X114882454Y-82244539D01*
X114922464Y-82274833D01*
X115033335Y-82403888D01*
X115181973Y-82621763D01*
X115267649Y-82763250D01*
X115459633Y-83059403D01*
X115620350Y-83237993D01*
X115735949Y-83288944D01*
X115792580Y-83202181D01*
X115796000Y-83147627D01*
X115733954Y-82905675D01*
X115559454Y-82582592D01*
X115289957Y-82205859D01*
X114942922Y-81802957D01*
X114939317Y-81799100D01*
X114691577Y-81511931D01*
X114568294Y-81322836D01*
X114563879Y-81240383D01*
X114672740Y-81273138D01*
X114889286Y-81429669D01*
X115074472Y-81591990D01*
X115347094Y-81881854D01*
X115598182Y-82217826D01*
X115811258Y-82567941D01*
X115969845Y-82900235D01*
X116057465Y-83182742D01*
X116057640Y-83383499D01*
X116757489Y-83383499D01*
X116564636Y-83152316D01*
X116348302Y-82888345D01*
X116122477Y-82550886D01*
X115971339Y-82280662D01*
X115644364Y-81725785D01*
X115289732Y-81310744D01*
X114919001Y-81048099D01*
X114788184Y-80994700D01*
X114415433Y-80927594D01*
X113962470Y-80925899D01*
X113502782Y-80983949D01*
G36*
X124957649Y-84929000D02*
G01*
X124970082Y-85211276D01*
X124944509Y-85356693D01*
X124883466Y-85394666D01*
X124813973Y-85452561D01*
X124778477Y-85640459D01*
X124771209Y-85881500D01*
X124781543Y-86159704D01*
X124829025Y-86364640D01*
X124939504Y-86563193D01*
X125131043Y-86812631D01*
X125490334Y-87256929D01*
X126887334Y-87257333D01*
X126887334Y-86893266D01*
X126863911Y-86640669D01*
X126805382Y-86451740D01*
X126781500Y-86417016D01*
X126718125Y-86316540D01*
X126781500Y-86266027D01*
X126850242Y-86156398D01*
X126884577Y-85907487D01*
X126887334Y-85788323D01*
X126876636Y-85539670D01*
X126847458Y-85428635D01*
X126464000Y-85428635D01*
X126464000Y-85818000D01*
X125998334Y-85818000D01*
X125731519Y-85823648D01*
X125592581Y-85852871D01*
X125540143Y-85924082D01*
X125532667Y-86025242D01*
X125547985Y-86147285D01*
X125622021Y-86213304D01*
X125796897Y-86245402D01*
X125976374Y-86258075D01*
X126251203Y-86287056D01*
X126396086Y-86343117D01*
X126449201Y-86436778D01*
X126461167Y-86617576D01*
X126393184Y-86722272D01*
X126217259Y-86766412D01*
X125905396Y-86765539D01*
X125861092Y-86763336D01*
X125531167Y-86732949D01*
X125309963Y-86671296D01*
X125137284Y-86559010D01*
X125088167Y-86514663D01*
X124936805Y-86335859D01*
X124868845Y-86131566D01*
X124855334Y-85886826D01*
X124855334Y-85479333D01*
X125363334Y-85479333D01*
X125644874Y-85474851D01*
X125796878Y-85450361D01*
X125859106Y-85389295D01*
X125871323Y-85275085D01*
X125871334Y-85267666D01*
X125857847Y-85142660D01*
X125788692Y-85079913D01*
X125620823Y-85058186D01*
X125442377Y-85056000D01*
X125190371Y-85050850D01*
X125067111Y-85019745D01*
X125032028Y-84939196D01*
X125040210Y-84823166D01*
X125070390Y-84684706D01*
X125150181Y-84611452D01*
X125325479Y-84577555D01*
X125498300Y-84565199D01*
X125777633Y-84563055D01*
X125967600Y-84614027D01*
X126145806Y-84743054D01*
X126196800Y-84789668D01*
X126371827Y-84984568D01*
X126448772Y-85185682D01*
X126464000Y-85428635D01*
X126847458Y-85428635D01*
X126827014Y-85350837D01*
X126712176Y-85161994D01*
X126505831Y-84913313D01*
X126499768Y-84906379D01*
X126112202Y-84463333D01*
X124919032Y-84463333D01*
X124957649Y-84929000D01*
G37*
X124957649Y-84929000D02*
X124970082Y-85211276D01*
X124944509Y-85356693D01*
X124883466Y-85394666D01*
X124813973Y-85452561D01*
X124778477Y-85640459D01*
X124771209Y-85881500D01*
X124781543Y-86159704D01*
X124829025Y-86364640D01*
X124939504Y-86563193D01*
X125131043Y-86812631D01*
X125490334Y-87256929D01*
X126887334Y-87257333D01*
X126887334Y-86893266D01*
X126863911Y-86640669D01*
X126805382Y-86451740D01*
X126781500Y-86417016D01*
X126718125Y-86316540D01*
X126781500Y-86266027D01*
X126850242Y-86156398D01*
X126884577Y-85907487D01*
X126887334Y-85788323D01*
X126876636Y-85539670D01*
X126847458Y-85428635D01*
X126464000Y-85428635D01*
X126464000Y-85818000D01*
X125998334Y-85818000D01*
X125731519Y-85823648D01*
X125592581Y-85852871D01*
X125540143Y-85924082D01*
X125532667Y-86025242D01*
X125547985Y-86147285D01*
X125622021Y-86213304D01*
X125796897Y-86245402D01*
X125976374Y-86258075D01*
X126251203Y-86287056D01*
X126396086Y-86343117D01*
X126449201Y-86436778D01*
X126461167Y-86617576D01*
X126393184Y-86722272D01*
X126217259Y-86766412D01*
X125905396Y-86765539D01*
X125861092Y-86763336D01*
X125531167Y-86732949D01*
X125309963Y-86671296D01*
X125137284Y-86559010D01*
X125088167Y-86514663D01*
X124936805Y-86335859D01*
X124868845Y-86131566D01*
X124855334Y-85886826D01*
X124855334Y-85479333D01*
X125363334Y-85479333D01*
X125644874Y-85474851D01*
X125796878Y-85450361D01*
X125859106Y-85389295D01*
X125871323Y-85275085D01*
X125871334Y-85267666D01*
X125857847Y-85142660D01*
X125788692Y-85079913D01*
X125620823Y-85058186D01*
X125442377Y-85056000D01*
X125190371Y-85050850D01*
X125067111Y-85019745D01*
X125032028Y-84939196D01*
X125040210Y-84823166D01*
X125070390Y-84684706D01*
X125150181Y-84611452D01*
X125325479Y-84577555D01*
X125498300Y-84565199D01*
X125777633Y-84563055D01*
X125967600Y-84614027D01*
X126145806Y-84743054D01*
X126196800Y-84789668D01*
X126371827Y-84984568D01*
X126448772Y-85185682D01*
X126464000Y-85428635D01*
X126847458Y-85428635D01*
X126827014Y-85350837D01*
X126712176Y-85161994D01*
X126505831Y-84913313D01*
X126499768Y-84906379D01*
X126112202Y-84463333D01*
X124919032Y-84463333D01*
X124957649Y-84929000D01*
G36*
X144260414Y-85122399D02*
G01*
X144186966Y-85276399D01*
X144216605Y-85450200D01*
X144292140Y-85536382D01*
X144463290Y-85634710D01*
X144552289Y-85598648D01*
X144581874Y-85413792D01*
X144582667Y-85352333D01*
X144563068Y-85147121D01*
X144488223Y-85064754D01*
X144419039Y-85056000D01*
X144260414Y-85122399D01*
G37*
X144260414Y-85122399D02*
X144186966Y-85276399D01*
X144216605Y-85450200D01*
X144292140Y-85536382D01*
X144463290Y-85634710D01*
X144552289Y-85598648D01*
X144581874Y-85413792D01*
X144582667Y-85352333D01*
X144563068Y-85147121D01*
X144488223Y-85064754D01*
X144419039Y-85056000D01*
X144260414Y-85122399D01*
G36*
X142038344Y-85071989D02*
G01*
X141987363Y-85144096D01*
X141964046Y-85308527D01*
X141958048Y-85601490D01*
X141958000Y-85648666D01*
X141962569Y-85960131D01*
X141983171Y-86138564D01*
X142030151Y-86220174D01*
X142113855Y-86241168D01*
X142127334Y-86241333D01*
X142216324Y-86225343D01*
X142267305Y-86153236D01*
X142290622Y-85988805D01*
X142296620Y-85695842D01*
X142296667Y-85648666D01*
X142292099Y-85337202D01*
X142271497Y-85158768D01*
X142224516Y-85077158D01*
X142140813Y-85056165D01*
X142127334Y-85056000D01*
X142038344Y-85071989D01*
G37*
X142038344Y-85071989D02*
X141987363Y-85144096D01*
X141964046Y-85308527D01*
X141958048Y-85601490D01*
X141958000Y-85648666D01*
X141962569Y-85960131D01*
X141983171Y-86138564D01*
X142030151Y-86220174D01*
X142113855Y-86241168D01*
X142127334Y-86241333D01*
X142216324Y-86225343D01*
X142267305Y-86153236D01*
X142290622Y-85988805D01*
X142296620Y-85695842D01*
X142296667Y-85648666D01*
X142292099Y-85337202D01*
X142271497Y-85158768D01*
X142224516Y-85077158D01*
X142140813Y-85056165D01*
X142127334Y-85056000D01*
X142038344Y-85071989D01*
G36*
X135139525Y-85133031D02*
G01*
X135024452Y-85333588D01*
X134949064Y-85611862D01*
X134930667Y-85836838D01*
X134938298Y-86080991D01*
X134976609Y-86200177D01*
X135068731Y-86238598D01*
X135142334Y-86241333D01*
X135252918Y-86232618D01*
X135316208Y-86181873D01*
X135345381Y-86052200D01*
X135353615Y-85806702D01*
X135354000Y-85648666D01*
X135343558Y-85356569D01*
X135316076Y-85144898D01*
X135277325Y-85056470D01*
X135274135Y-85056000D01*
X135139525Y-85133031D01*
G37*
X135139525Y-85133031D02*
X135024452Y-85333588D01*
X134949064Y-85611862D01*
X134930667Y-85836838D01*
X134938298Y-86080991D01*
X134976609Y-86200177D01*
X135068731Y-86238598D01*
X135142334Y-86241333D01*
X135252918Y-86232618D01*
X135316208Y-86181873D01*
X135345381Y-86052200D01*
X135353615Y-85806702D01*
X135354000Y-85648666D01*
X135343558Y-85356569D01*
X135316076Y-85144898D01*
X135277325Y-85056470D01*
X135274135Y-85056000D01*
X135139525Y-85133031D01*
D11*
%TO.C,D8*%
X206385000Y-81335000D02*
X203700000Y-81335000D01*
X206385000Y-79415000D02*
X206385000Y-81335000D01*
X203700000Y-79415000D02*
X206385000Y-79415000D01*
%TO.C,SW4*%
X92817920Y-98435000D02*
X92817920Y-97435000D01*
X93317920Y-97935000D02*
X92317920Y-97935000D01*
X96917920Y-105135000D02*
X96617920Y-105435000D01*
X96917920Y-105735000D02*
X96917920Y-105135000D01*
X96617920Y-105435000D02*
X96917920Y-105735000D01*
X99117920Y-104635000D02*
X96617920Y-104635000D01*
X99117920Y-99835000D02*
X99117920Y-104635000D01*
X86517920Y-104635000D02*
X89317920Y-104635000D01*
X86517920Y-99735000D02*
X86517920Y-104635000D01*
X86517920Y-91235000D02*
X86517920Y-96135000D01*
X99117920Y-91235000D02*
X86517920Y-91235000D01*
X99117920Y-96135000D02*
X99117920Y-91235000D01*
X95817920Y-97935000D02*
G75*
G03*
X95817920Y-97935000I-3000000J0D01*
G01*
%TO.C,SW3*%
X114470280Y-98435000D02*
X114470280Y-97435000D01*
X114970280Y-97935000D02*
X113970280Y-97935000D01*
X118570280Y-105135000D02*
X118270280Y-105435000D01*
X118570280Y-105735000D02*
X118570280Y-105135000D01*
X118270280Y-105435000D02*
X118570280Y-105735000D01*
X120770280Y-104635000D02*
X118270280Y-104635000D01*
X120770280Y-99835000D02*
X120770280Y-104635000D01*
X108170280Y-104635000D02*
X110970280Y-104635000D01*
X108170280Y-99735000D02*
X108170280Y-104635000D01*
X108170280Y-91235000D02*
X108170280Y-96135000D01*
X120770280Y-91235000D02*
X108170280Y-91235000D01*
X120770280Y-96135000D02*
X120770280Y-91235000D01*
X117470280Y-97935000D02*
G75*
G03*
X117470280Y-97935000I-3000000J0D01*
G01*
%TO.C,SW1*%
X204725000Y-94625000D02*
X204725000Y-93625000D01*
X205225000Y-94125000D02*
X204225000Y-94125000D01*
X201225000Y-88025000D02*
X198825000Y-88025000D01*
X206025000Y-88025000D02*
X203425000Y-88025000D01*
X210625000Y-88025000D02*
X208225000Y-88025000D01*
X208825000Y-101325000D02*
X208525000Y-101625000D01*
X208825000Y-101925000D02*
X208825000Y-101325000D01*
X208525000Y-101625000D02*
X208825000Y-101925000D01*
X210625000Y-100225000D02*
X198825000Y-100225000D01*
X210625000Y-96125000D02*
X210625000Y-100225000D01*
X198825000Y-96125000D02*
X198825000Y-100225000D01*
X198825000Y-88025000D02*
X198825000Y-92125000D01*
X210625000Y-92125000D02*
X210625000Y-88025000D01*
X207725000Y-94125000D02*
G75*
G03*
X207725000Y-94125000I-3000000J0D01*
G01*
%TO.C,SW7*%
X46000000Y-79500000D02*
X50500000Y-79500000D01*
X44750000Y-83500000D02*
X44750000Y-82000000D01*
X50500000Y-86000000D02*
X46000000Y-86000000D01*
X51750000Y-82000000D02*
X51750000Y-83500000D01*
D12*
%TO.C,SW9*%
X139210000Y-76855000D02*
X138860000Y-77230000D01*
X138860000Y-77230000D02*
X138260000Y-77230000D01*
X138260000Y-77230000D02*
X138260000Y-77830000D01*
X138709999Y-74105000D02*
X139185001Y-74105000D01*
X139185001Y-74105000D02*
X139185000Y-74504999D01*
X132135000Y-76780000D02*
X132134999Y-77155000D01*
X132134999Y-77155000D02*
X132485000Y-77155000D01*
X132535000Y-74105000D02*
X132134999Y-74105000D01*
X132134999Y-74105000D02*
X132135000Y-74480000D01*
D11*
%TO.C,D7*%
X153660000Y-100700000D02*
X153660000Y-103385000D01*
X153660000Y-103385000D02*
X151740000Y-103385000D01*
X151740000Y-103385000D02*
X151740000Y-100700000D01*
%TO.C,D6*%
X189140000Y-102700000D02*
X189140000Y-100015000D01*
X189140000Y-100015000D02*
X191060000Y-100015000D01*
X191060000Y-100015000D02*
X191060000Y-102700000D01*
%TO.C,D5*%
X189240000Y-89500000D02*
X189240000Y-86815000D01*
X189240000Y-86815000D02*
X191160000Y-86815000D01*
X191160000Y-86815000D02*
X191160000Y-89500000D01*
%TO.C,D4*%
X151840000Y-90247500D02*
X151840000Y-87562500D01*
X153760000Y-90247500D02*
X151840000Y-90247500D01*
X153760000Y-87562500D02*
X153760000Y-90247500D01*
D13*
%TO.C,U5*%
X191450000Y-75600000D02*
X191450000Y-110350000D01*
X151450000Y-75600000D02*
X151450000Y-110350000D01*
X151450000Y-99600000D02*
X153950000Y-99600000D01*
X153950000Y-99600000D02*
X153950000Y-103600000D01*
X153950000Y-103600000D02*
X151450000Y-103600000D01*
X191450000Y-99600000D02*
X188950000Y-99600000D01*
X188950000Y-99600000D02*
X188950000Y-103600000D01*
X188950000Y-103600000D02*
X191450000Y-103600000D01*
X151450000Y-86600000D02*
X153950000Y-86600000D01*
X153950000Y-86600000D02*
X153950000Y-90600000D01*
X153950000Y-90600000D02*
X151450000Y-90600000D01*
X191450000Y-86600000D02*
X188950000Y-86600000D01*
X188950000Y-86600000D02*
X188950000Y-90600000D01*
X188950000Y-90600000D02*
X191450000Y-90600000D01*
X151450000Y-110350000D02*
X191450000Y-110350000D01*
X191450000Y-75600000D02*
X151450000Y-75600000D01*
D11*
%TO.C,SW8*%
X71165560Y-98435000D02*
X71165560Y-97435000D01*
X71665560Y-97935000D02*
X70665560Y-97935000D01*
X75265560Y-105135000D02*
X74965560Y-105435000D01*
X75265560Y-105735000D02*
X75265560Y-105135000D01*
X74965560Y-105435000D02*
X75265560Y-105735000D01*
X77465560Y-104635000D02*
X74965560Y-104635000D01*
X77465560Y-99835000D02*
X77465560Y-104635000D01*
X64865560Y-104635000D02*
X67665560Y-104635000D01*
X64865560Y-99735000D02*
X64865560Y-104635000D01*
X64865560Y-91235000D02*
X64865560Y-96135000D01*
X77465560Y-91235000D02*
X64865560Y-91235000D01*
X77465560Y-96135000D02*
X77465560Y-91235000D01*
X74165560Y-97935000D02*
G75*
G03*
X74165560Y-97935000I-3000000J0D01*
G01*
%TO.C,D3*%
X44567000Y-97402000D02*
X44567000Y-99687000D01*
X43097000Y-97402000D02*
X44567000Y-97402000D01*
X43097000Y-99687000D02*
X43097000Y-97402000D01*
%TO.C,J6*%
X213270000Y-84140000D02*
X215930000Y-84140000D01*
X213270000Y-94360000D02*
X213270000Y-84140000D01*
X215930000Y-94360000D02*
X215930000Y-84140000D01*
X213270000Y-94360000D02*
X215930000Y-94360000D01*
X213270000Y-95630000D02*
X213270000Y-96960000D01*
X213270000Y-96960000D02*
X214600000Y-96960000D01*
%TO.C,SW2*%
X138972640Y-97935000D02*
G75*
G03*
X138972640Y-97935000I-3000000J0D01*
G01*
X142272640Y-96135000D02*
X142272640Y-91235000D01*
X142272640Y-91235000D02*
X129672640Y-91235000D01*
X129672640Y-91235000D02*
X129672640Y-96135000D01*
X129672640Y-99735000D02*
X129672640Y-104635000D01*
X129672640Y-104635000D02*
X132472640Y-104635000D01*
X142272640Y-99835000D02*
X142272640Y-104635000D01*
X142272640Y-104635000D02*
X139772640Y-104635000D01*
X139772640Y-105435000D02*
X140072640Y-105735000D01*
X140072640Y-105735000D02*
X140072640Y-105135000D01*
X140072640Y-105135000D02*
X139772640Y-105435000D01*
X136472640Y-97935000D02*
X135472640Y-97935000D01*
X135972640Y-98435000D02*
X135972640Y-97435000D01*
%TO.C,J1*%
X118560000Y-78602500D02*
X119010000Y-78602500D01*
X118560000Y-76752500D02*
X118560000Y-78602500D01*
X126360000Y-74202500D02*
X126360000Y-74452500D01*
X118560000Y-74202500D02*
X118560000Y-74452500D01*
X126360000Y-76752500D02*
X126360000Y-78602500D01*
X126360000Y-78602500D02*
X125910000Y-78602500D01*
X120760000Y-79152500D02*
X121210000Y-79152500D01*
X120760000Y-79152500D02*
X120760000Y-78702500D01*
%TD*%
D12*
%TO.C,U5*%
X151900000Y-77350000D02*
G75*
G03*
X151900000Y-77350000I-700000J0D01*
G01*
X151900000Y-79350000D02*
G75*
G03*
X151900000Y-79350000I-700000J0D01*
G01*
X151900000Y-76850000D02*
G75*
G03*
X151900000Y-76850000I-700000J0D01*
G01*
X192650000Y-79350000D02*
X192650000Y-76850000D01*
X190750000Y-79350000D02*
X190750000Y-76850000D01*
X192650000Y-76850000D02*
G75*
G03*
X190750000Y-76850000I-950000J0D01*
G01*
X190750000Y-79350000D02*
G75*
G03*
X192650000Y-79350000I950000J0D01*
G01*
X152150000Y-79350000D02*
X152150000Y-76850000D01*
X150250000Y-79350000D02*
X150250000Y-76850000D01*
X152150000Y-76850000D02*
G75*
G03*
X150250000Y-76850000I-950000J0D01*
G01*
X150250000Y-79350000D02*
G75*
G03*
X152150000Y-79350000I950000J0D01*
G01*
X192650000Y-99350000D02*
X192650000Y-96850000D01*
X190750000Y-99350000D02*
X190750000Y-96850000D01*
X192650000Y-96850000D02*
G75*
G03*
X190750000Y-96850000I-950000J0D01*
G01*
X190750000Y-99350000D02*
G75*
G03*
X192650000Y-99350000I950000J0D01*
G01*
X152150000Y-99350000D02*
X152150000Y-96850000D01*
X150250000Y-99350000D02*
X150250000Y-96850000D01*
X152150000Y-96850000D02*
G75*
G03*
X150250000Y-96850000I-950000J0D01*
G01*
X150250000Y-99350000D02*
G75*
G03*
X152150000Y-99350000I950000J0D01*
G01*
X151900000Y-78600000D02*
G75*
G03*
X151900000Y-78600000I-700000J0D01*
G01*
X151900000Y-96850000D02*
G75*
G03*
X151900000Y-96850000I-700000J0D01*
G01*
X151900000Y-99350000D02*
G75*
G03*
X151900000Y-99350000I-700000J0D01*
G01*
X192400000Y-77350000D02*
G75*
G03*
X192400000Y-77350000I-700000J0D01*
G01*
X192400000Y-76850000D02*
G75*
G03*
X192400000Y-76850000I-700000J0D01*
G01*
X192400000Y-78850000D02*
G75*
G03*
X192400000Y-78850000I-700000J0D01*
G01*
X192400000Y-79350000D02*
G75*
G03*
X192400000Y-79350000I-700000J0D01*
G01*
X192400000Y-96850000D02*
G75*
G03*
X192400000Y-96850000I-700000J0D01*
G01*
X192400000Y-99350000D02*
G75*
G03*
X192400000Y-99350000I-700000J0D01*
G01*
X192400000Y-97600000D02*
G75*
G03*
X192400000Y-97600000I-700000J0D01*
G01*
X192400000Y-98850000D02*
G75*
G03*
X192400000Y-98850000I-700000J0D01*
G01*
X151900000Y-97350000D02*
G75*
G03*
X151900000Y-97350000I-700000J0D01*
G01*
X151900000Y-98600000D02*
G75*
G03*
X151900000Y-98600000I-700000J0D01*
G01*
%TD*%
%TO.C,J5*%
D13*
X95702380Y-78899333D02*
X94702380Y-78899333D01*
X95178571Y-78899333D02*
X95178571Y-79470761D01*
X95702380Y-79470761D02*
X94702380Y-79470761D01*
X95178571Y-79946952D02*
X95178571Y-80280285D01*
X95702380Y-80423142D02*
X95702380Y-79946952D01*
X94702380Y-79946952D01*
X94702380Y-80423142D01*
X95416666Y-80804095D02*
X95416666Y-81280285D01*
X95702380Y-80708857D02*
X94702380Y-81042190D01*
X95702380Y-81375523D01*
X95702380Y-81708857D02*
X94702380Y-81708857D01*
X94702380Y-81946952D01*
X94750000Y-82089809D01*
X94845238Y-82185047D01*
X94940476Y-82232666D01*
X95130952Y-82280285D01*
X95273809Y-82280285D01*
X95464285Y-82232666D01*
X95559523Y-82185047D01*
X95654761Y-82089809D01*
X95702380Y-81946952D01*
X95702380Y-81708857D01*
X95702380Y-82708857D02*
X94702380Y-82708857D01*
X94702380Y-83089809D01*
X94750000Y-83185047D01*
X94797619Y-83232666D01*
X94892857Y-83280285D01*
X95035714Y-83280285D01*
X95130952Y-83232666D01*
X95178571Y-83185047D01*
X95226190Y-83089809D01*
X95226190Y-82708857D01*
X95702380Y-83708857D02*
X94702380Y-83708857D01*
X95178571Y-83708857D02*
X95178571Y-84280285D01*
X95702380Y-84280285D02*
X94702380Y-84280285D01*
X94702380Y-84946952D02*
X94702380Y-85137428D01*
X94750000Y-85232666D01*
X94845238Y-85327904D01*
X95035714Y-85375523D01*
X95369047Y-85375523D01*
X95559523Y-85327904D01*
X95654761Y-85232666D01*
X95702380Y-85137428D01*
X95702380Y-84946952D01*
X95654761Y-84851714D01*
X95559523Y-84756476D01*
X95369047Y-84708857D01*
X95035714Y-84708857D01*
X94845238Y-84756476D01*
X94750000Y-84851714D01*
X94702380Y-84946952D01*
X95702380Y-85804095D02*
X94702380Y-85804095D01*
X95702380Y-86375523D01*
X94702380Y-86375523D01*
X95178571Y-86851714D02*
X95178571Y-87185047D01*
X95702380Y-87327904D02*
X95702380Y-86851714D01*
X94702380Y-86851714D01*
X94702380Y-87327904D01*
X95654761Y-87708857D02*
X95702380Y-87851714D01*
X95702380Y-88089809D01*
X95654761Y-88185047D01*
X95607142Y-88232666D01*
X95511904Y-88280285D01*
X95416666Y-88280285D01*
X95321428Y-88232666D01*
X95273809Y-88185047D01*
X95226190Y-88089809D01*
X95178571Y-87899333D01*
X95130952Y-87804095D01*
X95083333Y-87756476D01*
X94988095Y-87708857D01*
X94892857Y-87708857D01*
X94797619Y-87756476D01*
X94750000Y-87804095D01*
X94702380Y-87899333D01*
X94702380Y-88137428D01*
X94750000Y-88280285D01*
%TO.C,SW9*%
X136827904Y-74767045D02*
X136727904Y-74800378D01*
X136561237Y-74800378D01*
X136494571Y-74767045D01*
X136461237Y-74733712D01*
X136427904Y-74667045D01*
X136427904Y-74600378D01*
X136461237Y-74533712D01*
X136494571Y-74500378D01*
X136561237Y-74467045D01*
X136694571Y-74433712D01*
X136761237Y-74400378D01*
X136794571Y-74367045D01*
X136827904Y-74300378D01*
X136827904Y-74233712D01*
X136794571Y-74167045D01*
X136761237Y-74133712D01*
X136694571Y-74100378D01*
X136527904Y-74100378D01*
X136427904Y-74133712D01*
X136194571Y-74100378D02*
X136027904Y-74800378D01*
X135894571Y-74300378D01*
X135761237Y-74800378D01*
X135594571Y-74100378D01*
X135294571Y-74800378D02*
X135161237Y-74800378D01*
X135094571Y-74767045D01*
X135061237Y-74733712D01*
X134994571Y-74633712D01*
X134961237Y-74500378D01*
X134961237Y-74233712D01*
X134994571Y-74167045D01*
X135027904Y-74133712D01*
X135094571Y-74100378D01*
X135227904Y-74100378D01*
X135294571Y-74133712D01*
X135327904Y-74167045D01*
X135361237Y-74233712D01*
X135361237Y-74400378D01*
X135327904Y-74467045D01*
X135294571Y-74500378D01*
X135227904Y-74533712D01*
X135094571Y-74533712D01*
X135027904Y-74500378D01*
X134994571Y-74467045D01*
X134961237Y-74400378D01*
%TO.C,J2*%
X86050380Y-82121714D02*
X86050380Y-81645523D01*
X85050380Y-81645523D01*
X86050380Y-82455047D02*
X85050380Y-82455047D01*
X86050380Y-82931238D02*
X85050380Y-82931238D01*
X86050380Y-83502666D01*
X85050380Y-83502666D01*
X85526571Y-83978857D02*
X85526571Y-84312190D01*
X86050380Y-84455047D02*
X86050380Y-83978857D01*
X85050380Y-83978857D01*
X85050380Y-84455047D01*
X85050380Y-85836000D02*
X85050380Y-86026476D01*
X85098000Y-86121714D01*
X85193238Y-86216952D01*
X85383714Y-86264571D01*
X85717047Y-86264571D01*
X85907523Y-86216952D01*
X86002761Y-86121714D01*
X86050380Y-86026476D01*
X86050380Y-85836000D01*
X86002761Y-85740761D01*
X85907523Y-85645523D01*
X85717047Y-85597904D01*
X85383714Y-85597904D01*
X85193238Y-85645523D01*
X85098000Y-85740761D01*
X85050380Y-85836000D01*
X85050380Y-86693142D02*
X85859904Y-86693142D01*
X85955142Y-86740761D01*
X86002761Y-86788380D01*
X86050380Y-86883619D01*
X86050380Y-87074095D01*
X86002761Y-87169333D01*
X85955142Y-87216952D01*
X85859904Y-87264571D01*
X85050380Y-87264571D01*
X85050380Y-87597904D02*
X85050380Y-88169333D01*
X86050380Y-87883619D02*
X85050380Y-87883619D01*
%TO.C,J4*%
X66492380Y-83550380D02*
X66492380Y-83074190D01*
X65492380Y-83074190D01*
X66492380Y-83883714D02*
X65492380Y-83883714D01*
X66492380Y-84359904D02*
X65492380Y-84359904D01*
X66492380Y-84931333D01*
X65492380Y-84931333D01*
X65968571Y-85407523D02*
X65968571Y-85740857D01*
X66492380Y-85883714D02*
X66492380Y-85407523D01*
X65492380Y-85407523D01*
X65492380Y-85883714D01*
X66492380Y-87074190D02*
X65492380Y-87074190D01*
X66492380Y-87550380D02*
X65492380Y-87550380D01*
X66492380Y-88121809D01*
X65492380Y-88121809D01*
%TO.C,J3*%
X76144380Y-78946952D02*
X75144380Y-78946952D01*
X75858666Y-79280285D01*
X75144380Y-79613619D01*
X76144380Y-79613619D01*
X76144380Y-80089809D02*
X75144380Y-80089809D01*
X76049142Y-81137428D02*
X76096761Y-81089809D01*
X76144380Y-80946952D01*
X76144380Y-80851714D01*
X76096761Y-80708857D01*
X76001523Y-80613619D01*
X75906285Y-80566000D01*
X75715809Y-80518380D01*
X75572952Y-80518380D01*
X75382476Y-80566000D01*
X75287238Y-80613619D01*
X75192000Y-80708857D01*
X75144380Y-80851714D01*
X75144380Y-80946952D01*
X75192000Y-81089809D01*
X75239619Y-81137428D01*
X76144380Y-82137428D02*
X75668190Y-81804095D01*
X76144380Y-81566000D02*
X75144380Y-81566000D01*
X75144380Y-81946952D01*
X75192000Y-82042190D01*
X75239619Y-82089809D01*
X75334857Y-82137428D01*
X75477714Y-82137428D01*
X75572952Y-82089809D01*
X75620571Y-82042190D01*
X75668190Y-81946952D01*
X75668190Y-81566000D01*
X75144380Y-82756476D02*
X75144380Y-82946952D01*
X75192000Y-83042190D01*
X75287238Y-83137428D01*
X75477714Y-83185047D01*
X75811047Y-83185047D01*
X76001523Y-83137428D01*
X76096761Y-83042190D01*
X76144380Y-82946952D01*
X76144380Y-82756476D01*
X76096761Y-82661238D01*
X76001523Y-82566000D01*
X75811047Y-82518380D01*
X75477714Y-82518380D01*
X75287238Y-82566000D01*
X75192000Y-82661238D01*
X75144380Y-82756476D01*
X76144380Y-83613619D02*
X75144380Y-83613619D01*
X75144380Y-83994571D01*
X75192000Y-84089809D01*
X75239619Y-84137428D01*
X75334857Y-84185047D01*
X75477714Y-84185047D01*
X75572952Y-84137428D01*
X75620571Y-84089809D01*
X75668190Y-83994571D01*
X75668190Y-83613619D01*
X76144380Y-84613619D02*
X75144380Y-84613619D01*
X75620571Y-84613619D02*
X75620571Y-85185047D01*
X76144380Y-85185047D02*
X75144380Y-85185047D01*
X75144380Y-85851714D02*
X75144380Y-86042190D01*
X75192000Y-86137428D01*
X75287238Y-86232666D01*
X75477714Y-86280285D01*
X75811047Y-86280285D01*
X76001523Y-86232666D01*
X76096761Y-86137428D01*
X76144380Y-86042190D01*
X76144380Y-85851714D01*
X76096761Y-85756476D01*
X76001523Y-85661238D01*
X75811047Y-85613619D01*
X75477714Y-85613619D01*
X75287238Y-85661238D01*
X75192000Y-85756476D01*
X75144380Y-85851714D01*
X76144380Y-86708857D02*
X75144380Y-86708857D01*
X76144380Y-87280285D01*
X75144380Y-87280285D01*
X75620571Y-87756476D02*
X75620571Y-88089809D01*
X76144380Y-88232666D02*
X76144380Y-87756476D01*
X75144380Y-87756476D01*
X75144380Y-88232666D01*
%TD*%
M02*
