%TF.GenerationSoftware,KiCad,Pcbnew,(5.1.8-0-10_14)*%
%TF.CreationDate,2021-01-08T14:50:06+01:00*%
%TF.ProjectId,PoundingSystem,506f756e-6469-46e6-9753-797374656d2e,rev?*%
%TF.SameCoordinates,Original*%
%TF.FileFunction,Soldermask,Bot*%
%TF.FilePolarity,Negative*%
%FSLAX46Y46*%
G04 Gerber Fmt 4.6, Leading zero omitted, Abs format (unit mm)*
G04 Created by KiCad (PCBNEW (5.1.8-0-10_14)) date 2021-01-08 14:50:06*
%MOMM*%
%LPD*%
G01*
G04 APERTURE LIST*
%ADD10C,4.400000*%
%ADD11C,0.700000*%
%ADD12R,2.000000X2.000000*%
%ADD13C,2.000000*%
%ADD14R,2.000000X3.200000*%
%ADD15R,2.500000X3.000000*%
%ADD16C,1.800000*%
%ADD17O,0.900000X1.800000*%
%ADD18R,1.200000X1.000000*%
%ADD19C,0.900000*%
%ADD20R,0.800000X1.200000*%
%ADD21C,2.300000*%
%ADD22C,6.250000*%
%ADD23C,1.500000*%
%ADD24R,0.600000X3.000000*%
%ADD25O,2.000000X4.500000*%
%ADD26C,2.800000*%
%ADD27R,1.700000X1.700000*%
%ADD28O,1.700000X1.700000*%
%ADD29R,1.200000X1.900000*%
%ADD30O,1.200000X1.900000*%
%ADD31R,1.500000X1.900000*%
%ADD32C,1.450000*%
%ADD33R,0.400000X1.350000*%
G04 APERTURE END LIST*
D10*
%TO.C,H2*%
X36375000Y-76625000D03*
D11*
X38025000Y-76625000D03*
X37541726Y-77791726D03*
X36375000Y-78275000D03*
X35208274Y-77791726D03*
X34725000Y-76625000D03*
X35208274Y-75458274D03*
X36375000Y-74975000D03*
X37541726Y-75458274D03*
%TD*%
D12*
%TO.C,SW1*%
X207200000Y-105435000D03*
D13*
X204700000Y-105435000D03*
X202200000Y-105435000D03*
D14*
X210300000Y-97935000D03*
X199100000Y-97935000D03*
D13*
X207200000Y-90935000D03*
X202200000Y-90935000D03*
%TD*%
D12*
%TO.C,SW4*%
X95317920Y-105435000D03*
D13*
X92817920Y-105435000D03*
X90317920Y-105435000D03*
D15*
X98417920Y-97935000D03*
X87217920Y-97935000D03*
%TD*%
D12*
%TO.C,SW3*%
X116970280Y-105435000D03*
D13*
X114470280Y-105435000D03*
X111970280Y-105435000D03*
D15*
X120070280Y-97935000D03*
X108870280Y-97935000D03*
%TD*%
D13*
%TO.C,SW7*%
X51500000Y-85000000D03*
X51500000Y-80500000D03*
X45000000Y-85000000D03*
X45000000Y-80500000D03*
%TD*%
%TO.C,SW6*%
X207668000Y-85000000D03*
X207668000Y-80500000D03*
X201168000Y-85000000D03*
X201168000Y-80500000D03*
%TD*%
D16*
%TO.C,J5*%
X99357500Y-84970000D03*
X99357500Y-78870000D03*
D17*
X101757500Y-85970000D03*
X101757500Y-78914000D03*
X96960500Y-80847000D03*
%TD*%
D18*
%TO.C,SW9*%
X131960000Y-76780000D03*
X131960000Y-74480000D03*
X139360000Y-76780000D03*
X139360000Y-74480000D03*
D19*
X134210000Y-75630000D03*
X137110000Y-75630000D03*
D20*
X137860000Y-77480000D03*
X136360000Y-77480000D03*
X133460000Y-77480000D03*
%TD*%
%TO.C,D7*%
G36*
G01*
X153156250Y-101250000D02*
X152243750Y-101250000D01*
G75*
G02*
X152000000Y-101006250I0J243750D01*
G01*
X152000000Y-100518750D01*
G75*
G02*
X152243750Y-100275000I243750J0D01*
G01*
X153156250Y-100275000D01*
G75*
G02*
X153400000Y-100518750I0J-243750D01*
G01*
X153400000Y-101006250D01*
G75*
G02*
X153156250Y-101250000I-243750J0D01*
G01*
G37*
G36*
G01*
X153156250Y-103125000D02*
X152243750Y-103125000D01*
G75*
G02*
X152000000Y-102881250I0J243750D01*
G01*
X152000000Y-102393750D01*
G75*
G02*
X152243750Y-102150000I243750J0D01*
G01*
X153156250Y-102150000D01*
G75*
G02*
X153400000Y-102393750I0J-243750D01*
G01*
X153400000Y-102881250D01*
G75*
G02*
X153156250Y-103125000I-243750J0D01*
G01*
G37*
%TD*%
%TO.C,D6*%
G36*
G01*
X189643750Y-102150000D02*
X190556250Y-102150000D01*
G75*
G02*
X190800000Y-102393750I0J-243750D01*
G01*
X190800000Y-102881250D01*
G75*
G02*
X190556250Y-103125000I-243750J0D01*
G01*
X189643750Y-103125000D01*
G75*
G02*
X189400000Y-102881250I0J243750D01*
G01*
X189400000Y-102393750D01*
G75*
G02*
X189643750Y-102150000I243750J0D01*
G01*
G37*
G36*
G01*
X189643750Y-100275000D02*
X190556250Y-100275000D01*
G75*
G02*
X190800000Y-100518750I0J-243750D01*
G01*
X190800000Y-101006250D01*
G75*
G02*
X190556250Y-101250000I-243750J0D01*
G01*
X189643750Y-101250000D01*
G75*
G02*
X189400000Y-101006250I0J243750D01*
G01*
X189400000Y-100518750D01*
G75*
G02*
X189643750Y-100275000I243750J0D01*
G01*
G37*
%TD*%
%TO.C,D5*%
G36*
G01*
X189743750Y-88950000D02*
X190656250Y-88950000D01*
G75*
G02*
X190900000Y-89193750I0J-243750D01*
G01*
X190900000Y-89681250D01*
G75*
G02*
X190656250Y-89925000I-243750J0D01*
G01*
X189743750Y-89925000D01*
G75*
G02*
X189500000Y-89681250I0J243750D01*
G01*
X189500000Y-89193750D01*
G75*
G02*
X189743750Y-88950000I243750J0D01*
G01*
G37*
G36*
G01*
X189743750Y-87075000D02*
X190656250Y-87075000D01*
G75*
G02*
X190900000Y-87318750I0J-243750D01*
G01*
X190900000Y-87806250D01*
G75*
G02*
X190656250Y-88050000I-243750J0D01*
G01*
X189743750Y-88050000D01*
G75*
G02*
X189500000Y-87806250I0J243750D01*
G01*
X189500000Y-87318750D01*
G75*
G02*
X189743750Y-87075000I243750J0D01*
G01*
G37*
%TD*%
%TO.C,D4*%
G36*
G01*
X153156250Y-88050000D02*
X152243750Y-88050000D01*
G75*
G02*
X152000000Y-87806250I0J243750D01*
G01*
X152000000Y-87318750D01*
G75*
G02*
X152243750Y-87075000I243750J0D01*
G01*
X153156250Y-87075000D01*
G75*
G02*
X153400000Y-87318750I0J-243750D01*
G01*
X153400000Y-87806250D01*
G75*
G02*
X153156250Y-88050000I-243750J0D01*
G01*
G37*
G36*
G01*
X153156250Y-89925000D02*
X152243750Y-89925000D01*
G75*
G02*
X152000000Y-89681250I0J243750D01*
G01*
X152000000Y-89193750D01*
G75*
G02*
X152243750Y-88950000I243750J0D01*
G01*
X153156250Y-88950000D01*
G75*
G02*
X153400000Y-89193750I0J-243750D01*
G01*
X153400000Y-89681250D01*
G75*
G02*
X153156250Y-89925000I-243750J0D01*
G01*
G37*
%TD*%
D21*
%TO.C,SW5*%
X51912000Y-98922000D03*
D13*
X51512000Y-103052000D03*
X54262000Y-98922000D03*
D22*
X48212000Y-98922000D03*
%TD*%
D23*
%TO.C,U5*%
X151200000Y-77350000D03*
X151200000Y-79350000D03*
X151200000Y-76850000D03*
D24*
X173450000Y-78100000D03*
X172450000Y-78100000D03*
X171450000Y-78100000D03*
X174450000Y-78100000D03*
X175450000Y-78100000D03*
X170450000Y-78100000D03*
X169450000Y-78100000D03*
X168450000Y-78100000D03*
X167450000Y-78100000D03*
D25*
X191700000Y-78100000D03*
X151200000Y-78100000D03*
X191700000Y-98100000D03*
X151200000Y-98100000D03*
D23*
X151200000Y-78600000D03*
X151200000Y-96850000D03*
X151200000Y-99350000D03*
X191700000Y-77350000D03*
X191700000Y-76850000D03*
X191700000Y-78850000D03*
X191700000Y-79350000D03*
X191700000Y-96850000D03*
X191700000Y-99350000D03*
X191700000Y-97600000D03*
X191700000Y-98850000D03*
X151200000Y-97350000D03*
X151200000Y-98600000D03*
%TD*%
D12*
%TO.C,SW8*%
X73665560Y-105435000D03*
D13*
X71165560Y-105435000D03*
X68665560Y-105435000D03*
D26*
X76765560Y-97935000D03*
X65565560Y-97935000D03*
%TD*%
D11*
%TO.C,H4*%
X37541726Y-107783274D03*
X36375000Y-107300000D03*
X35208274Y-107783274D03*
X34725000Y-108950000D03*
X35208274Y-110116726D03*
X36375000Y-110600000D03*
X37541726Y-110116726D03*
X38025000Y-108950000D03*
D10*
X36375000Y-108950000D03*
%TD*%
D11*
%TO.C,H3*%
X216141726Y-75483274D03*
X214975000Y-75000000D03*
X213808274Y-75483274D03*
X213325000Y-76650000D03*
X213808274Y-77816726D03*
X214975000Y-78300000D03*
X216141726Y-77816726D03*
X216625000Y-76650000D03*
D10*
X214975000Y-76650000D03*
%TD*%
D11*
%TO.C,H2*%
X37541726Y-75458274D03*
X36375000Y-74975000D03*
X35208274Y-75458274D03*
X34725000Y-76625000D03*
X35208274Y-77791726D03*
X36375000Y-78275000D03*
X37541726Y-77791726D03*
X38025000Y-76625000D03*
D10*
X36375000Y-76625000D03*
%TD*%
D11*
%TO.C,H1*%
X216141726Y-107783274D03*
X214975000Y-107300000D03*
X213808274Y-107783274D03*
X213325000Y-108950000D03*
X213808274Y-110116726D03*
X214975000Y-110600000D03*
X216141726Y-110116726D03*
X216625000Y-108950000D03*
D10*
X214975000Y-108950000D03*
%TD*%
D16*
%TO.C,J2*%
X89581667Y-84970000D03*
X89581667Y-78870000D03*
D17*
X91981667Y-85970000D03*
X91981667Y-78914000D03*
X87184667Y-80847000D03*
%TD*%
%TO.C,D3*%
G36*
G01*
X43575750Y-99237000D02*
X44088250Y-99237000D01*
G75*
G02*
X44307000Y-99455750I0J-218750D01*
G01*
X44307000Y-99893250D01*
G75*
G02*
X44088250Y-100112000I-218750J0D01*
G01*
X43575750Y-100112000D01*
G75*
G02*
X43357000Y-99893250I0J218750D01*
G01*
X43357000Y-99455750D01*
G75*
G02*
X43575750Y-99237000I218750J0D01*
G01*
G37*
G36*
G01*
X43575750Y-97662000D02*
X44088250Y-97662000D01*
G75*
G02*
X44307000Y-97880750I0J-218750D01*
G01*
X44307000Y-98318250D01*
G75*
G02*
X44088250Y-98537000I-218750J0D01*
G01*
X43575750Y-98537000D01*
G75*
G02*
X43357000Y-98318250I0J218750D01*
G01*
X43357000Y-97880750D01*
G75*
G02*
X43575750Y-97662000I218750J0D01*
G01*
G37*
%TD*%
D27*
%TO.C,J6*%
X198470000Y-109550000D03*
D28*
X201010000Y-109550000D03*
X203550000Y-109550000D03*
X206090000Y-109550000D03*
X208630000Y-109550000D03*
%TD*%
D16*
%TO.C,J4*%
X70030000Y-84970000D03*
X70030000Y-78870000D03*
D17*
X72430000Y-85970000D03*
X72430000Y-78914000D03*
X67633000Y-80847000D03*
%TD*%
D12*
%TO.C,SW2*%
X138472640Y-105435000D03*
D13*
X135972640Y-105435000D03*
X133472640Y-105435000D03*
D15*
X141572640Y-97935000D03*
X130372640Y-97935000D03*
%TD*%
D16*
%TO.C,J3*%
X79805834Y-84970000D03*
X79805834Y-78870000D03*
D17*
X82205834Y-85970000D03*
X82205834Y-78914000D03*
X77408834Y-80847000D03*
%TD*%
D29*
%TO.C,J1*%
X119560000Y-75602500D03*
X125360000Y-75602500D03*
D30*
X125960000Y-75602500D03*
X118960000Y-75602500D03*
D31*
X121460000Y-75602500D03*
D32*
X124960000Y-78302500D03*
D33*
X122460000Y-78302500D03*
X123110000Y-78302500D03*
X123760000Y-78302500D03*
X121160000Y-78302500D03*
X121810000Y-78302500D03*
D32*
X119960000Y-78302500D03*
D31*
X123460000Y-75602500D03*
%TD*%
M02*
