%TF.GenerationSoftware,KiCad,Pcbnew,(5.1.8-0-10_14)*%
%TF.CreationDate,2021-02-06T10:55:23+01:00*%
%TF.ProjectId,PoundingSystem,506f756e-6469-46e6-9753-797374656d2e,rev?*%
%TF.SameCoordinates,Original*%
%TF.FileFunction,Soldermask,Top*%
%TF.FilePolarity,Negative*%
%FSLAX46Y46*%
G04 Gerber Fmt 4.6, Leading zero omitted, Abs format (unit mm)*
G04 Created by KiCad (PCBNEW (5.1.8-0-10_14)) date 2021-02-06 10:55:23*
%MOMM*%
%LPD*%
G01*
G04 APERTURE LIST*
%ADD10R,3.000000X2.290000*%
%ADD11R,2.000000X2.000000*%
%ADD12C,2.000000*%
%ADD13R,2.500000X3.000000*%
%ADD14C,4.400000*%
%ADD15C,0.700000*%
%ADD16R,2.000000X3.200000*%
%ADD17R,3.606800X3.606800*%
%ADD18R,0.807999X0.204000*%
%ADD19R,0.204000X0.807999*%
%ADD20C,1.800000*%
%ADD21O,0.900000X1.800000*%
%ADD22C,0.900000*%
%ADD23R,1.060000X0.650000*%
%ADD24R,1.200000X0.900000*%
%ADD25C,2.300000*%
%ADD26C,6.250000*%
%ADD27C,1.500000*%
%ADD28O,2.000000X4.500000*%
%ADD29R,1.500000X3.000000*%
%ADD30C,2.800000*%
%ADD31R,1.700000X1.700000*%
%ADD32O,1.700000X1.700000*%
%ADD33O,1.200000X1.900000*%
%ADD34C,1.450000*%
%ADD35R,0.650000X1.060000*%
%ADD36R,1.400000X1.200000*%
%ADD37R,2.000000X1.500000*%
%ADD38R,2.000000X3.800000*%
G04 APERTURE END LIST*
%TO.C,R6*%
G36*
G01*
X202350000Y-82529000D02*
X202350000Y-83079000D01*
G75*
G02*
X202150000Y-83279000I-200000J0D01*
G01*
X201750000Y-83279000D01*
G75*
G02*
X201550000Y-83079000I0J200000D01*
G01*
X201550000Y-82529000D01*
G75*
G02*
X201750000Y-82329000I200000J0D01*
G01*
X202150000Y-82329000D01*
G75*
G02*
X202350000Y-82529000I0J-200000D01*
G01*
G37*
G36*
G01*
X204000000Y-82529000D02*
X204000000Y-83079000D01*
G75*
G02*
X203800000Y-83279000I-200000J0D01*
G01*
X203400000Y-83279000D01*
G75*
G02*
X203200000Y-83079000I0J200000D01*
G01*
X203200000Y-82529000D01*
G75*
G02*
X203400000Y-82329000I200000J0D01*
G01*
X203800000Y-82329000D01*
G75*
G02*
X204000000Y-82529000I0J-200000D01*
G01*
G37*
%TD*%
D10*
%TO.C,U2*%
X196525000Y-79750000D03*
G36*
G01*
X198280000Y-81250000D02*
X198580000Y-81250000D01*
G75*
G02*
X198730000Y-81400000I0J-150000D01*
G01*
X198730000Y-83050000D01*
G75*
G02*
X198580000Y-83200000I-150000J0D01*
G01*
X198280000Y-83200000D01*
G75*
G02*
X198130000Y-83050000I0J150000D01*
G01*
X198130000Y-81400000D01*
G75*
G02*
X198280000Y-81250000I150000J0D01*
G01*
G37*
G36*
G01*
X197010000Y-81250000D02*
X197310000Y-81250000D01*
G75*
G02*
X197460000Y-81400000I0J-150000D01*
G01*
X197460000Y-83050000D01*
G75*
G02*
X197310000Y-83200000I-150000J0D01*
G01*
X197010000Y-83200000D01*
G75*
G02*
X196860000Y-83050000I0J150000D01*
G01*
X196860000Y-81400000D01*
G75*
G02*
X197010000Y-81250000I150000J0D01*
G01*
G37*
G36*
G01*
X195740000Y-81250000D02*
X196040000Y-81250000D01*
G75*
G02*
X196190000Y-81400000I0J-150000D01*
G01*
X196190000Y-83050000D01*
G75*
G02*
X196040000Y-83200000I-150000J0D01*
G01*
X195740000Y-83200000D01*
G75*
G02*
X195590000Y-83050000I0J150000D01*
G01*
X195590000Y-81400000D01*
G75*
G02*
X195740000Y-81250000I150000J0D01*
G01*
G37*
G36*
G01*
X194470000Y-81250000D02*
X194770000Y-81250000D01*
G75*
G02*
X194920000Y-81400000I0J-150000D01*
G01*
X194920000Y-83050000D01*
G75*
G02*
X194770000Y-83200000I-150000J0D01*
G01*
X194470000Y-83200000D01*
G75*
G02*
X194320000Y-83050000I0J150000D01*
G01*
X194320000Y-81400000D01*
G75*
G02*
X194470000Y-81250000I150000J0D01*
G01*
G37*
G36*
G01*
X194470000Y-76300000D02*
X194770000Y-76300000D01*
G75*
G02*
X194920000Y-76450000I0J-150000D01*
G01*
X194920000Y-78100000D01*
G75*
G02*
X194770000Y-78250000I-150000J0D01*
G01*
X194470000Y-78250000D01*
G75*
G02*
X194320000Y-78100000I0J150000D01*
G01*
X194320000Y-76450000D01*
G75*
G02*
X194470000Y-76300000I150000J0D01*
G01*
G37*
G36*
G01*
X195740000Y-76300000D02*
X196040000Y-76300000D01*
G75*
G02*
X196190000Y-76450000I0J-150000D01*
G01*
X196190000Y-78100000D01*
G75*
G02*
X196040000Y-78250000I-150000J0D01*
G01*
X195740000Y-78250000D01*
G75*
G02*
X195590000Y-78100000I0J150000D01*
G01*
X195590000Y-76450000D01*
G75*
G02*
X195740000Y-76300000I150000J0D01*
G01*
G37*
G36*
G01*
X197010000Y-76300000D02*
X197310000Y-76300000D01*
G75*
G02*
X197460000Y-76450000I0J-150000D01*
G01*
X197460000Y-78100000D01*
G75*
G02*
X197310000Y-78250000I-150000J0D01*
G01*
X197010000Y-78250000D01*
G75*
G02*
X196860000Y-78100000I0J150000D01*
G01*
X196860000Y-76450000D01*
G75*
G02*
X197010000Y-76300000I150000J0D01*
G01*
G37*
G36*
G01*
X198280000Y-76300000D02*
X198580000Y-76300000D01*
G75*
G02*
X198730000Y-76450000I0J-150000D01*
G01*
X198730000Y-78100000D01*
G75*
G02*
X198580000Y-78250000I-150000J0D01*
G01*
X198280000Y-78250000D01*
G75*
G02*
X198130000Y-78100000I0J150000D01*
G01*
X198130000Y-76450000D01*
G75*
G02*
X198280000Y-76300000I150000J0D01*
G01*
G37*
%TD*%
%TO.C,C9*%
G36*
G01*
X200322000Y-81588000D02*
X199982000Y-81588000D01*
G75*
G02*
X199842000Y-81448000I0J140000D01*
G01*
X199842000Y-81168000D01*
G75*
G02*
X199982000Y-81028000I140000J0D01*
G01*
X200322000Y-81028000D01*
G75*
G02*
X200462000Y-81168000I0J-140000D01*
G01*
X200462000Y-81448000D01*
G75*
G02*
X200322000Y-81588000I-140000J0D01*
G01*
G37*
G36*
G01*
X200322000Y-82548000D02*
X199982000Y-82548000D01*
G75*
G02*
X199842000Y-82408000I0J140000D01*
G01*
X199842000Y-82128000D01*
G75*
G02*
X199982000Y-81988000I140000J0D01*
G01*
X200322000Y-81988000D01*
G75*
G02*
X200462000Y-82128000I0J-140000D01*
G01*
X200462000Y-82408000D01*
G75*
G02*
X200322000Y-82548000I-140000J0D01*
G01*
G37*
%TD*%
%TO.C,R37*%
G36*
G01*
X183750000Y-76955000D02*
X183750000Y-76585000D01*
G75*
G02*
X183885000Y-76450000I135000J0D01*
G01*
X184155000Y-76450000D01*
G75*
G02*
X184290000Y-76585000I0J-135000D01*
G01*
X184290000Y-76955000D01*
G75*
G02*
X184155000Y-77090000I-135000J0D01*
G01*
X183885000Y-77090000D01*
G75*
G02*
X183750000Y-76955000I0J135000D01*
G01*
G37*
G36*
G01*
X182730000Y-76955000D02*
X182730000Y-76585000D01*
G75*
G02*
X182865000Y-76450000I135000J0D01*
G01*
X183135000Y-76450000D01*
G75*
G02*
X183270000Y-76585000I0J-135000D01*
G01*
X183270000Y-76955000D01*
G75*
G02*
X183135000Y-77090000I-135000J0D01*
G01*
X182865000Y-77090000D01*
G75*
G02*
X182730000Y-76955000I0J135000D01*
G01*
G37*
%TD*%
%TO.C,R36*%
G36*
G01*
X156002520Y-85813109D02*
X155740891Y-85551480D01*
G75*
G02*
X155740891Y-85360562I95459J95459D01*
G01*
X155931810Y-85169643D01*
G75*
G02*
X156122728Y-85169643I95459J-95459D01*
G01*
X156384357Y-85431272D01*
G75*
G02*
X156384357Y-85622190I-95459J-95459D01*
G01*
X156193438Y-85813109D01*
G75*
G02*
X156002520Y-85813109I-95459J95459D01*
G01*
G37*
G36*
G01*
X155281272Y-86534357D02*
X155019643Y-86272728D01*
G75*
G02*
X155019643Y-86081810I95459J95459D01*
G01*
X155210562Y-85890891D01*
G75*
G02*
X155401480Y-85890891I95459J-95459D01*
G01*
X155663109Y-86152520D01*
G75*
G02*
X155663109Y-86343438I-95459J-95459D01*
G01*
X155472190Y-86534357D01*
G75*
G02*
X155281272Y-86534357I-95459J95459D01*
G01*
G37*
%TD*%
D11*
%TO.C,SW4*%
X95317920Y-105435000D03*
D12*
X92817920Y-105435000D03*
X90317920Y-105435000D03*
D13*
X98417920Y-97935000D03*
X87217920Y-97935000D03*
%TD*%
D11*
%TO.C,SW3*%
X116970280Y-105435000D03*
D12*
X114470280Y-105435000D03*
X111970280Y-105435000D03*
D13*
X120070280Y-97935000D03*
X108870280Y-97935000D03*
%TD*%
%TO.C,R35*%
G36*
G01*
X48560000Y-103665000D02*
X48560000Y-104035000D01*
G75*
G02*
X48425000Y-104170000I-135000J0D01*
G01*
X48155000Y-104170000D01*
G75*
G02*
X48020000Y-104035000I0J135000D01*
G01*
X48020000Y-103665000D01*
G75*
G02*
X48155000Y-103530000I135000J0D01*
G01*
X48425000Y-103530000D01*
G75*
G02*
X48560000Y-103665000I0J-135000D01*
G01*
G37*
G36*
G01*
X49580000Y-103665000D02*
X49580000Y-104035000D01*
G75*
G02*
X49445000Y-104170000I-135000J0D01*
G01*
X49175000Y-104170000D01*
G75*
G02*
X49040000Y-104035000I0J135000D01*
G01*
X49040000Y-103665000D01*
G75*
G02*
X49175000Y-103530000I135000J0D01*
G01*
X49445000Y-103530000D01*
G75*
G02*
X49580000Y-103665000I0J-135000D01*
G01*
G37*
%TD*%
%TO.C,R34*%
G36*
G01*
X41375000Y-80315000D02*
X41375000Y-80685000D01*
G75*
G02*
X41240000Y-80820000I-135000J0D01*
G01*
X40970000Y-80820000D01*
G75*
G02*
X40835000Y-80685000I0J135000D01*
G01*
X40835000Y-80315000D01*
G75*
G02*
X40970000Y-80180000I135000J0D01*
G01*
X41240000Y-80180000D01*
G75*
G02*
X41375000Y-80315000I0J-135000D01*
G01*
G37*
G36*
G01*
X42395000Y-80315000D02*
X42395000Y-80685000D01*
G75*
G02*
X42260000Y-80820000I-135000J0D01*
G01*
X41990000Y-80820000D01*
G75*
G02*
X41855000Y-80685000I0J135000D01*
G01*
X41855000Y-80315000D01*
G75*
G02*
X41990000Y-80180000I135000J0D01*
G01*
X42260000Y-80180000D01*
G75*
G02*
X42395000Y-80315000I0J-135000D01*
G01*
G37*
%TD*%
%TO.C,R5*%
G36*
G01*
X206190000Y-90135000D02*
X206190000Y-89765000D01*
G75*
G02*
X206325000Y-89630000I135000J0D01*
G01*
X206595000Y-89630000D01*
G75*
G02*
X206730000Y-89765000I0J-135000D01*
G01*
X206730000Y-90135000D01*
G75*
G02*
X206595000Y-90270000I-135000J0D01*
G01*
X206325000Y-90270000D01*
G75*
G02*
X206190000Y-90135000I0J135000D01*
G01*
G37*
G36*
G01*
X205170000Y-90135000D02*
X205170000Y-89765000D01*
G75*
G02*
X205305000Y-89630000I135000J0D01*
G01*
X205575000Y-89630000D01*
G75*
G02*
X205710000Y-89765000I0J-135000D01*
G01*
X205710000Y-90135000D01*
G75*
G02*
X205575000Y-90270000I-135000J0D01*
G01*
X205305000Y-90270000D01*
G75*
G02*
X205170000Y-90135000I0J135000D01*
G01*
G37*
%TD*%
%TO.C,C12*%
G36*
G01*
X157233629Y-86846787D02*
X156993213Y-86606371D01*
G75*
G02*
X156993213Y-86408381I98995J98995D01*
G01*
X157191203Y-86210391D01*
G75*
G02*
X157389193Y-86210391I98995J-98995D01*
G01*
X157629609Y-86450807D01*
G75*
G02*
X157629609Y-86648797I-98995J-98995D01*
G01*
X157431619Y-86846787D01*
G75*
G02*
X157233629Y-86846787I-98995J98995D01*
G01*
G37*
G36*
G01*
X156554807Y-87525609D02*
X156314391Y-87285193D01*
G75*
G02*
X156314391Y-87087203I98995J98995D01*
G01*
X156512381Y-86889213D01*
G75*
G02*
X156710371Y-86889213I98995J-98995D01*
G01*
X156950787Y-87129629D01*
G75*
G02*
X156950787Y-87327619I-98995J-98995D01*
G01*
X156752797Y-87525609D01*
G75*
G02*
X156554807Y-87525609I-98995J98995D01*
G01*
G37*
%TD*%
%TO.C,C67*%
G36*
G01*
X184028787Y-84688371D02*
X183788371Y-84928787D01*
G75*
G02*
X183590381Y-84928787I-98995J98995D01*
G01*
X183392391Y-84730797D01*
G75*
G02*
X183392391Y-84532807I98995J98995D01*
G01*
X183632807Y-84292391D01*
G75*
G02*
X183830797Y-84292391I98995J-98995D01*
G01*
X184028787Y-84490381D01*
G75*
G02*
X184028787Y-84688371I-98995J-98995D01*
G01*
G37*
G36*
G01*
X184707609Y-85367193D02*
X184467193Y-85607609D01*
G75*
G02*
X184269203Y-85607609I-98995J98995D01*
G01*
X184071213Y-85409619D01*
G75*
G02*
X184071213Y-85211629I98995J98995D01*
G01*
X184311629Y-84971213D01*
G75*
G02*
X184509619Y-84971213I98995J-98995D01*
G01*
X184707609Y-85169203D01*
G75*
G02*
X184707609Y-85367193I-98995J-98995D01*
G01*
G37*
%TD*%
%TO.C,C66*%
G36*
G01*
X188578787Y-89338371D02*
X188338371Y-89578787D01*
G75*
G02*
X188140381Y-89578787I-98995J98995D01*
G01*
X187942391Y-89380797D01*
G75*
G02*
X187942391Y-89182807I98995J98995D01*
G01*
X188182807Y-88942391D01*
G75*
G02*
X188380797Y-88942391I98995J-98995D01*
G01*
X188578787Y-89140381D01*
G75*
G02*
X188578787Y-89338371I-98995J-98995D01*
G01*
G37*
G36*
G01*
X189257609Y-90017193D02*
X189017193Y-90257609D01*
G75*
G02*
X188819203Y-90257609I-98995J98995D01*
G01*
X188621213Y-90059619D01*
G75*
G02*
X188621213Y-89861629I98995J98995D01*
G01*
X188861629Y-89621213D01*
G75*
G02*
X189059619Y-89621213I98995J-98995D01*
G01*
X189257609Y-89819203D01*
G75*
G02*
X189257609Y-90017193I-98995J-98995D01*
G01*
G37*
%TD*%
%TO.C,C64*%
G36*
G01*
X180478787Y-81188371D02*
X180238371Y-81428787D01*
G75*
G02*
X180040381Y-81428787I-98995J98995D01*
G01*
X179842391Y-81230797D01*
G75*
G02*
X179842391Y-81032807I98995J98995D01*
G01*
X180082807Y-80792391D01*
G75*
G02*
X180280797Y-80792391I98995J-98995D01*
G01*
X180478787Y-80990381D01*
G75*
G02*
X180478787Y-81188371I-98995J-98995D01*
G01*
G37*
G36*
G01*
X181157609Y-81867193D02*
X180917193Y-82107609D01*
G75*
G02*
X180719203Y-82107609I-98995J98995D01*
G01*
X180521213Y-81909619D01*
G75*
G02*
X180521213Y-81711629I98995J98995D01*
G01*
X180761629Y-81471213D01*
G75*
G02*
X180959619Y-81471213I98995J-98995D01*
G01*
X181157609Y-81669203D01*
G75*
G02*
X181157609Y-81867193I-98995J-98995D01*
G01*
G37*
%TD*%
%TO.C,C61*%
G36*
G01*
X175360624Y-76601040D02*
X175601040Y-76360624D01*
G75*
G02*
X175799030Y-76360624I98995J-98995D01*
G01*
X175997020Y-76558614D01*
G75*
G02*
X175997020Y-76756604I-98995J-98995D01*
G01*
X175756604Y-76997020D01*
G75*
G02*
X175558614Y-76997020I-98995J98995D01*
G01*
X175360624Y-76799030D01*
G75*
G02*
X175360624Y-76601040I98995J98995D01*
G01*
G37*
G36*
G01*
X174681802Y-75922218D02*
X174922218Y-75681802D01*
G75*
G02*
X175120208Y-75681802I98995J-98995D01*
G01*
X175318198Y-75879792D01*
G75*
G02*
X175318198Y-76077782I-98995J-98995D01*
G01*
X175077782Y-76318198D01*
G75*
G02*
X174879792Y-76318198I-98995J98995D01*
G01*
X174681802Y-76120208D01*
G75*
G02*
X174681802Y-75922218I98995J98995D01*
G01*
G37*
%TD*%
%TO.C,C14*%
G36*
G01*
X153872622Y-87964639D02*
X154113038Y-88205055D01*
G75*
G02*
X154113038Y-88403045I-98995J-98995D01*
G01*
X153915048Y-88601035D01*
G75*
G02*
X153717058Y-88601035I-98995J98995D01*
G01*
X153476642Y-88360619D01*
G75*
G02*
X153476642Y-88162629I98995J98995D01*
G01*
X153674632Y-87964639D01*
G75*
G02*
X153872622Y-87964639I98995J-98995D01*
G01*
G37*
G36*
G01*
X154551444Y-87285817D02*
X154791860Y-87526233D01*
G75*
G02*
X154791860Y-87724223I-98995J-98995D01*
G01*
X154593870Y-87922213D01*
G75*
G02*
X154395880Y-87922213I-98995J98995D01*
G01*
X154155464Y-87681797D01*
G75*
G02*
X154155464Y-87483807I98995J98995D01*
G01*
X154353454Y-87285817D01*
G75*
G02*
X154551444Y-87285817I98995J-98995D01*
G01*
G37*
%TD*%
%TO.C,C8*%
G36*
G01*
X161088371Y-82871213D02*
X161328787Y-83111629D01*
G75*
G02*
X161328787Y-83309619I-98995J-98995D01*
G01*
X161130797Y-83507609D01*
G75*
G02*
X160932807Y-83507609I-98995J98995D01*
G01*
X160692391Y-83267193D01*
G75*
G02*
X160692391Y-83069203I98995J98995D01*
G01*
X160890381Y-82871213D01*
G75*
G02*
X161088371Y-82871213I98995J-98995D01*
G01*
G37*
G36*
G01*
X161767193Y-82192391D02*
X162007609Y-82432807D01*
G75*
G02*
X162007609Y-82630797I-98995J-98995D01*
G01*
X161809619Y-82828787D01*
G75*
G02*
X161611629Y-82828787I-98995J98995D01*
G01*
X161371213Y-82588371D01*
G75*
G02*
X161371213Y-82390381I98995J98995D01*
G01*
X161569203Y-82192391D01*
G75*
G02*
X161767193Y-82192391I98995J-98995D01*
G01*
G37*
%TD*%
%TO.C,C7*%
G36*
G01*
X163827782Y-79781802D02*
X164068198Y-80022218D01*
G75*
G02*
X164068198Y-80220208I-98995J-98995D01*
G01*
X163870208Y-80418198D01*
G75*
G02*
X163672218Y-80418198I-98995J98995D01*
G01*
X163431802Y-80177782D01*
G75*
G02*
X163431802Y-79979792I98995J98995D01*
G01*
X163629792Y-79781802D01*
G75*
G02*
X163827782Y-79781802I98995J-98995D01*
G01*
G37*
G36*
G01*
X164506604Y-79102980D02*
X164747020Y-79343396D01*
G75*
G02*
X164747020Y-79541386I-98995J-98995D01*
G01*
X164549030Y-79739376D01*
G75*
G02*
X164351040Y-79739376I-98995J98995D01*
G01*
X164110624Y-79498960D01*
G75*
G02*
X164110624Y-79300970I98995J98995D01*
G01*
X164308614Y-79102980D01*
G75*
G02*
X164506604Y-79102980I98995J-98995D01*
G01*
G37*
%TD*%
%TO.C,C6*%
G36*
G01*
X154871213Y-96811629D02*
X155111629Y-96571213D01*
G75*
G02*
X155309619Y-96571213I98995J-98995D01*
G01*
X155507609Y-96769203D01*
G75*
G02*
X155507609Y-96967193I-98995J-98995D01*
G01*
X155267193Y-97207609D01*
G75*
G02*
X155069203Y-97207609I-98995J98995D01*
G01*
X154871213Y-97009619D01*
G75*
G02*
X154871213Y-96811629I98995J98995D01*
G01*
G37*
G36*
G01*
X154192391Y-96132807D02*
X154432807Y-95892391D01*
G75*
G02*
X154630797Y-95892391I98995J-98995D01*
G01*
X154828787Y-96090381D01*
G75*
G02*
X154828787Y-96288371I-98995J-98995D01*
G01*
X154588371Y-96528787D01*
G75*
G02*
X154390381Y-96528787I-98995J98995D01*
G01*
X154192391Y-96330797D01*
G75*
G02*
X154192391Y-96132807I98995J98995D01*
G01*
G37*
%TD*%
%TO.C,C5*%
G36*
G01*
X162960624Y-105201040D02*
X163201040Y-104960624D01*
G75*
G02*
X163399030Y-104960624I98995J-98995D01*
G01*
X163597020Y-105158614D01*
G75*
G02*
X163597020Y-105356604I-98995J-98995D01*
G01*
X163356604Y-105597020D01*
G75*
G02*
X163158614Y-105597020I-98995J98995D01*
G01*
X162960624Y-105399030D01*
G75*
G02*
X162960624Y-105201040I98995J98995D01*
G01*
G37*
G36*
G01*
X162281802Y-104522218D02*
X162522218Y-104281802D01*
G75*
G02*
X162720208Y-104281802I98995J-98995D01*
G01*
X162918198Y-104479792D01*
G75*
G02*
X162918198Y-104677782I-98995J-98995D01*
G01*
X162677782Y-104918198D01*
G75*
G02*
X162479792Y-104918198I-98995J98995D01*
G01*
X162281802Y-104720208D01*
G75*
G02*
X162281802Y-104522218I98995J98995D01*
G01*
G37*
%TD*%
%TO.C,C4*%
G36*
G01*
X166722218Y-77368198D02*
X166481802Y-77127782D01*
G75*
G02*
X166481802Y-76929792I98995J98995D01*
G01*
X166679792Y-76731802D01*
G75*
G02*
X166877782Y-76731802I98995J-98995D01*
G01*
X167118198Y-76972218D01*
G75*
G02*
X167118198Y-77170208I-98995J-98995D01*
G01*
X166920208Y-77368198D01*
G75*
G02*
X166722218Y-77368198I-98995J98995D01*
G01*
G37*
G36*
G01*
X166043396Y-78047020D02*
X165802980Y-77806604D01*
G75*
G02*
X165802980Y-77608614I98995J98995D01*
G01*
X166000970Y-77410624D01*
G75*
G02*
X166198960Y-77410624I98995J-98995D01*
G01*
X166439376Y-77651040D01*
G75*
G02*
X166439376Y-77849030I-98995J-98995D01*
G01*
X166241386Y-78047020D01*
G75*
G02*
X166043396Y-78047020I-98995J98995D01*
G01*
G37*
%TD*%
%TO.C,C3*%
G36*
G01*
X159481802Y-101672218D02*
X159722218Y-101431802D01*
G75*
G02*
X159920208Y-101431802I98995J-98995D01*
G01*
X160118198Y-101629792D01*
G75*
G02*
X160118198Y-101827782I-98995J-98995D01*
G01*
X159877782Y-102068198D01*
G75*
G02*
X159679792Y-102068198I-98995J98995D01*
G01*
X159481802Y-101870208D01*
G75*
G02*
X159481802Y-101672218I98995J98995D01*
G01*
G37*
G36*
G01*
X158802980Y-100993396D02*
X159043396Y-100752980D01*
G75*
G02*
X159241386Y-100752980I98995J-98995D01*
G01*
X159439376Y-100950970D01*
G75*
G02*
X159439376Y-101148960I-98995J-98995D01*
G01*
X159198960Y-101389376D01*
G75*
G02*
X159000970Y-101389376I-98995J98995D01*
G01*
X158802980Y-101191386D01*
G75*
G02*
X158802980Y-100993396I98995J98995D01*
G01*
G37*
%TD*%
%TO.C,U13*%
G36*
G01*
X172377818Y-76807255D02*
X173332412Y-75852661D01*
G75*
G02*
X173438478Y-75852661I53033J-53033D01*
G01*
X173544544Y-75958727D01*
G75*
G02*
X173544544Y-76064793I-53033J-53033D01*
G01*
X172589950Y-77019387D01*
G75*
G02*
X172483884Y-77019387I-53033J53033D01*
G01*
X172377818Y-76913321D01*
G75*
G02*
X172377818Y-76807255I53033J53033D01*
G01*
G37*
G36*
G01*
X172731371Y-77160808D02*
X173685965Y-76206214D01*
G75*
G02*
X173792031Y-76206214I53033J-53033D01*
G01*
X173898097Y-76312280D01*
G75*
G02*
X173898097Y-76418346I-53033J-53033D01*
G01*
X172943503Y-77372940D01*
G75*
G02*
X172837437Y-77372940I-53033J53033D01*
G01*
X172731371Y-77266874D01*
G75*
G02*
X172731371Y-77160808I53033J53033D01*
G01*
G37*
G36*
G01*
X173084924Y-77514361D02*
X174039518Y-76559767D01*
G75*
G02*
X174145584Y-76559767I53033J-53033D01*
G01*
X174251650Y-76665833D01*
G75*
G02*
X174251650Y-76771899I-53033J-53033D01*
G01*
X173297056Y-77726493D01*
G75*
G02*
X173190990Y-77726493I-53033J53033D01*
G01*
X173084924Y-77620427D01*
G75*
G02*
X173084924Y-77514361I53033J53033D01*
G01*
G37*
G36*
G01*
X173438478Y-77867915D02*
X174393072Y-76913321D01*
G75*
G02*
X174499138Y-76913321I53033J-53033D01*
G01*
X174605204Y-77019387D01*
G75*
G02*
X174605204Y-77125453I-53033J-53033D01*
G01*
X173650610Y-78080047D01*
G75*
G02*
X173544544Y-78080047I-53033J53033D01*
G01*
X173438478Y-77973981D01*
G75*
G02*
X173438478Y-77867915I53033J53033D01*
G01*
G37*
G36*
G01*
X173792031Y-78221468D02*
X174746625Y-77266874D01*
G75*
G02*
X174852691Y-77266874I53033J-53033D01*
G01*
X174958757Y-77372940D01*
G75*
G02*
X174958757Y-77479006I-53033J-53033D01*
G01*
X174004163Y-78433600D01*
G75*
G02*
X173898097Y-78433600I-53033J53033D01*
G01*
X173792031Y-78327534D01*
G75*
G02*
X173792031Y-78221468I53033J53033D01*
G01*
G37*
G36*
G01*
X174145585Y-78575022D02*
X175100179Y-77620428D01*
G75*
G02*
X175206245Y-77620428I53033J-53033D01*
G01*
X175312311Y-77726494D01*
G75*
G02*
X175312311Y-77832560I-53033J-53033D01*
G01*
X174357717Y-78787154D01*
G75*
G02*
X174251651Y-78787154I-53033J53033D01*
G01*
X174145585Y-78681088D01*
G75*
G02*
X174145585Y-78575022I53033J53033D01*
G01*
G37*
G36*
G01*
X174499138Y-78928575D02*
X175453732Y-77973981D01*
G75*
G02*
X175559798Y-77973981I53033J-53033D01*
G01*
X175665864Y-78080047D01*
G75*
G02*
X175665864Y-78186113I-53033J-53033D01*
G01*
X174711270Y-79140707D01*
G75*
G02*
X174605204Y-79140707I-53033J53033D01*
G01*
X174499138Y-79034641D01*
G75*
G02*
X174499138Y-78928575I53033J53033D01*
G01*
G37*
G36*
G01*
X174852691Y-79282128D02*
X175807285Y-78327534D01*
G75*
G02*
X175913351Y-78327534I53033J-53033D01*
G01*
X176019417Y-78433600D01*
G75*
G02*
X176019417Y-78539666I-53033J-53033D01*
G01*
X175064823Y-79494260D01*
G75*
G02*
X174958757Y-79494260I-53033J53033D01*
G01*
X174852691Y-79388194D01*
G75*
G02*
X174852691Y-79282128I53033J53033D01*
G01*
G37*
G36*
G01*
X175206245Y-79635682D02*
X176160839Y-78681088D01*
G75*
G02*
X176266905Y-78681088I53033J-53033D01*
G01*
X176372971Y-78787154D01*
G75*
G02*
X176372971Y-78893220I-53033J-53033D01*
G01*
X175418377Y-79847814D01*
G75*
G02*
X175312311Y-79847814I-53033J53033D01*
G01*
X175206245Y-79741748D01*
G75*
G02*
X175206245Y-79635682I53033J53033D01*
G01*
G37*
G36*
G01*
X175559798Y-79989235D02*
X176514392Y-79034641D01*
G75*
G02*
X176620458Y-79034641I53033J-53033D01*
G01*
X176726524Y-79140707D01*
G75*
G02*
X176726524Y-79246773I-53033J-53033D01*
G01*
X175771930Y-80201367D01*
G75*
G02*
X175665864Y-80201367I-53033J53033D01*
G01*
X175559798Y-80095301D01*
G75*
G02*
X175559798Y-79989235I53033J53033D01*
G01*
G37*
G36*
G01*
X175913351Y-80342789D02*
X176867945Y-79388195D01*
G75*
G02*
X176974011Y-79388195I53033J-53033D01*
G01*
X177080077Y-79494261D01*
G75*
G02*
X177080077Y-79600327I-53033J-53033D01*
G01*
X176125483Y-80554921D01*
G75*
G02*
X176019417Y-80554921I-53033J53033D01*
G01*
X175913351Y-80448855D01*
G75*
G02*
X175913351Y-80342789I53033J53033D01*
G01*
G37*
G36*
G01*
X176266905Y-80696342D02*
X177221499Y-79741748D01*
G75*
G02*
X177327565Y-79741748I53033J-53033D01*
G01*
X177433631Y-79847814D01*
G75*
G02*
X177433631Y-79953880I-53033J-53033D01*
G01*
X176479037Y-80908474D01*
G75*
G02*
X176372971Y-80908474I-53033J53033D01*
G01*
X176266905Y-80802408D01*
G75*
G02*
X176266905Y-80696342I53033J53033D01*
G01*
G37*
G36*
G01*
X176620458Y-81049895D02*
X177575052Y-80095301D01*
G75*
G02*
X177681118Y-80095301I53033J-53033D01*
G01*
X177787184Y-80201367D01*
G75*
G02*
X177787184Y-80307433I-53033J-53033D01*
G01*
X176832590Y-81262027D01*
G75*
G02*
X176726524Y-81262027I-53033J53033D01*
G01*
X176620458Y-81155961D01*
G75*
G02*
X176620458Y-81049895I53033J53033D01*
G01*
G37*
G36*
G01*
X176974012Y-81403449D02*
X177928606Y-80448855D01*
G75*
G02*
X178034672Y-80448855I53033J-53033D01*
G01*
X178140738Y-80554921D01*
G75*
G02*
X178140738Y-80660987I-53033J-53033D01*
G01*
X177186144Y-81615581D01*
G75*
G02*
X177080078Y-81615581I-53033J53033D01*
G01*
X176974012Y-81509515D01*
G75*
G02*
X176974012Y-81403449I53033J53033D01*
G01*
G37*
G36*
G01*
X177327565Y-81757002D02*
X178282159Y-80802408D01*
G75*
G02*
X178388225Y-80802408I53033J-53033D01*
G01*
X178494291Y-80908474D01*
G75*
G02*
X178494291Y-81014540I-53033J-53033D01*
G01*
X177539697Y-81969134D01*
G75*
G02*
X177433631Y-81969134I-53033J53033D01*
G01*
X177327565Y-81863068D01*
G75*
G02*
X177327565Y-81757002I53033J53033D01*
G01*
G37*
G36*
G01*
X177681118Y-82110556D02*
X178635712Y-81155962D01*
G75*
G02*
X178741778Y-81155962I53033J-53033D01*
G01*
X178847844Y-81262028D01*
G75*
G02*
X178847844Y-81368094I-53033J-53033D01*
G01*
X177893250Y-82322688D01*
G75*
G02*
X177787184Y-82322688I-53033J53033D01*
G01*
X177681118Y-82216622D01*
G75*
G02*
X177681118Y-82110556I53033J53033D01*
G01*
G37*
G36*
G01*
X178034672Y-82464109D02*
X178989266Y-81509515D01*
G75*
G02*
X179095332Y-81509515I53033J-53033D01*
G01*
X179201398Y-81615581D01*
G75*
G02*
X179201398Y-81721647I-53033J-53033D01*
G01*
X178246804Y-82676241D01*
G75*
G02*
X178140738Y-82676241I-53033J53033D01*
G01*
X178034672Y-82570175D01*
G75*
G02*
X178034672Y-82464109I53033J53033D01*
G01*
G37*
G36*
G01*
X178388225Y-82817662D02*
X179342819Y-81863068D01*
G75*
G02*
X179448885Y-81863068I53033J-53033D01*
G01*
X179554951Y-81969134D01*
G75*
G02*
X179554951Y-82075200I-53033J-53033D01*
G01*
X178600357Y-83029794D01*
G75*
G02*
X178494291Y-83029794I-53033J53033D01*
G01*
X178388225Y-82923728D01*
G75*
G02*
X178388225Y-82817662I53033J53033D01*
G01*
G37*
G36*
G01*
X178741779Y-83171216D02*
X179696373Y-82216622D01*
G75*
G02*
X179802439Y-82216622I53033J-53033D01*
G01*
X179908505Y-82322688D01*
G75*
G02*
X179908505Y-82428754I-53033J-53033D01*
G01*
X178953911Y-83383348D01*
G75*
G02*
X178847845Y-83383348I-53033J53033D01*
G01*
X178741779Y-83277282D01*
G75*
G02*
X178741779Y-83171216I53033J53033D01*
G01*
G37*
G36*
G01*
X179095332Y-83524769D02*
X180049926Y-82570175D01*
G75*
G02*
X180155992Y-82570175I53033J-53033D01*
G01*
X180262058Y-82676241D01*
G75*
G02*
X180262058Y-82782307I-53033J-53033D01*
G01*
X179307464Y-83736901D01*
G75*
G02*
X179201398Y-83736901I-53033J53033D01*
G01*
X179095332Y-83630835D01*
G75*
G02*
X179095332Y-83524769I53033J53033D01*
G01*
G37*
G36*
G01*
X179448885Y-83878322D02*
X180403479Y-82923728D01*
G75*
G02*
X180509545Y-82923728I53033J-53033D01*
G01*
X180615611Y-83029794D01*
G75*
G02*
X180615611Y-83135860I-53033J-53033D01*
G01*
X179661017Y-84090454D01*
G75*
G02*
X179554951Y-84090454I-53033J53033D01*
G01*
X179448885Y-83984388D01*
G75*
G02*
X179448885Y-83878322I53033J53033D01*
G01*
G37*
G36*
G01*
X179802439Y-84231876D02*
X180757033Y-83277282D01*
G75*
G02*
X180863099Y-83277282I53033J-53033D01*
G01*
X180969165Y-83383348D01*
G75*
G02*
X180969165Y-83489414I-53033J-53033D01*
G01*
X180014571Y-84444008D01*
G75*
G02*
X179908505Y-84444008I-53033J53033D01*
G01*
X179802439Y-84337942D01*
G75*
G02*
X179802439Y-84231876I53033J53033D01*
G01*
G37*
G36*
G01*
X180155992Y-84585429D02*
X181110586Y-83630835D01*
G75*
G02*
X181216652Y-83630835I53033J-53033D01*
G01*
X181322718Y-83736901D01*
G75*
G02*
X181322718Y-83842967I-53033J-53033D01*
G01*
X180368124Y-84797561D01*
G75*
G02*
X180262058Y-84797561I-53033J53033D01*
G01*
X180155992Y-84691495D01*
G75*
G02*
X180155992Y-84585429I53033J53033D01*
G01*
G37*
G36*
G01*
X180509546Y-84938983D02*
X181464140Y-83984389D01*
G75*
G02*
X181570206Y-83984389I53033J-53033D01*
G01*
X181676272Y-84090455D01*
G75*
G02*
X181676272Y-84196521I-53033J-53033D01*
G01*
X180721678Y-85151115D01*
G75*
G02*
X180615612Y-85151115I-53033J53033D01*
G01*
X180509546Y-85045049D01*
G75*
G02*
X180509546Y-84938983I53033J53033D01*
G01*
G37*
G36*
G01*
X180863099Y-85292536D02*
X181817693Y-84337942D01*
G75*
G02*
X181923759Y-84337942I53033J-53033D01*
G01*
X182029825Y-84444008D01*
G75*
G02*
X182029825Y-84550074I-53033J-53033D01*
G01*
X181075231Y-85504668D01*
G75*
G02*
X180969165Y-85504668I-53033J53033D01*
G01*
X180863099Y-85398602D01*
G75*
G02*
X180863099Y-85292536I53033J53033D01*
G01*
G37*
G36*
G01*
X181216652Y-85646089D02*
X182171246Y-84691495D01*
G75*
G02*
X182277312Y-84691495I53033J-53033D01*
G01*
X182383378Y-84797561D01*
G75*
G02*
X182383378Y-84903627I-53033J-53033D01*
G01*
X181428784Y-85858221D01*
G75*
G02*
X181322718Y-85858221I-53033J53033D01*
G01*
X181216652Y-85752155D01*
G75*
G02*
X181216652Y-85646089I53033J53033D01*
G01*
G37*
G36*
G01*
X181570206Y-85999643D02*
X182524800Y-85045049D01*
G75*
G02*
X182630866Y-85045049I53033J-53033D01*
G01*
X182736932Y-85151115D01*
G75*
G02*
X182736932Y-85257181I-53033J-53033D01*
G01*
X181782338Y-86211775D01*
G75*
G02*
X181676272Y-86211775I-53033J53033D01*
G01*
X181570206Y-86105709D01*
G75*
G02*
X181570206Y-85999643I53033J53033D01*
G01*
G37*
G36*
G01*
X181923759Y-86353196D02*
X182878353Y-85398602D01*
G75*
G02*
X182984419Y-85398602I53033J-53033D01*
G01*
X183090485Y-85504668D01*
G75*
G02*
X183090485Y-85610734I-53033J-53033D01*
G01*
X182135891Y-86565328D01*
G75*
G02*
X182029825Y-86565328I-53033J53033D01*
G01*
X181923759Y-86459262D01*
G75*
G02*
X181923759Y-86353196I53033J53033D01*
G01*
G37*
G36*
G01*
X182277312Y-86706750D02*
X183231906Y-85752156D01*
G75*
G02*
X183337972Y-85752156I53033J-53033D01*
G01*
X183444038Y-85858222D01*
G75*
G02*
X183444038Y-85964288I-53033J-53033D01*
G01*
X182489444Y-86918882D01*
G75*
G02*
X182383378Y-86918882I-53033J53033D01*
G01*
X182277312Y-86812816D01*
G75*
G02*
X182277312Y-86706750I53033J53033D01*
G01*
G37*
G36*
G01*
X182630866Y-87060303D02*
X183585460Y-86105709D01*
G75*
G02*
X183691526Y-86105709I53033J-53033D01*
G01*
X183797592Y-86211775D01*
G75*
G02*
X183797592Y-86317841I-53033J-53033D01*
G01*
X182842998Y-87272435D01*
G75*
G02*
X182736932Y-87272435I-53033J53033D01*
G01*
X182630866Y-87166369D01*
G75*
G02*
X182630866Y-87060303I53033J53033D01*
G01*
G37*
G36*
G01*
X182984419Y-87413856D02*
X183939013Y-86459262D01*
G75*
G02*
X184045079Y-86459262I53033J-53033D01*
G01*
X184151145Y-86565328D01*
G75*
G02*
X184151145Y-86671394I-53033J-53033D01*
G01*
X183196551Y-87625988D01*
G75*
G02*
X183090485Y-87625988I-53033J53033D01*
G01*
X182984419Y-87519922D01*
G75*
G02*
X182984419Y-87413856I53033J53033D01*
G01*
G37*
G36*
G01*
X183337973Y-87767410D02*
X184292567Y-86812816D01*
G75*
G02*
X184398633Y-86812816I53033J-53033D01*
G01*
X184504699Y-86918882D01*
G75*
G02*
X184504699Y-87024948I-53033J-53033D01*
G01*
X183550105Y-87979542D01*
G75*
G02*
X183444039Y-87979542I-53033J53033D01*
G01*
X183337973Y-87873476D01*
G75*
G02*
X183337973Y-87767410I53033J53033D01*
G01*
G37*
G36*
G01*
X183691526Y-88120963D02*
X184646120Y-87166369D01*
G75*
G02*
X184752186Y-87166369I53033J-53033D01*
G01*
X184858252Y-87272435D01*
G75*
G02*
X184858252Y-87378501I-53033J-53033D01*
G01*
X183903658Y-88333095D01*
G75*
G02*
X183797592Y-88333095I-53033J53033D01*
G01*
X183691526Y-88227029D01*
G75*
G02*
X183691526Y-88120963I53033J53033D01*
G01*
G37*
G36*
G01*
X184045079Y-88474517D02*
X184999673Y-87519923D01*
G75*
G02*
X185105739Y-87519923I53033J-53033D01*
G01*
X185211805Y-87625989D01*
G75*
G02*
X185211805Y-87732055I-53033J-53033D01*
G01*
X184257211Y-88686649D01*
G75*
G02*
X184151145Y-88686649I-53033J53033D01*
G01*
X184045079Y-88580583D01*
G75*
G02*
X184045079Y-88474517I53033J53033D01*
G01*
G37*
G36*
G01*
X184398633Y-88828070D02*
X185353227Y-87873476D01*
G75*
G02*
X185459293Y-87873476I53033J-53033D01*
G01*
X185565359Y-87979542D01*
G75*
G02*
X185565359Y-88085608I-53033J-53033D01*
G01*
X184610765Y-89040202D01*
G75*
G02*
X184504699Y-89040202I-53033J53033D01*
G01*
X184398633Y-88934136D01*
G75*
G02*
X184398633Y-88828070I53033J53033D01*
G01*
G37*
G36*
G01*
X184752186Y-89181623D02*
X185706780Y-88227029D01*
G75*
G02*
X185812846Y-88227029I53033J-53033D01*
G01*
X185918912Y-88333095D01*
G75*
G02*
X185918912Y-88439161I-53033J-53033D01*
G01*
X184964318Y-89393755D01*
G75*
G02*
X184858252Y-89393755I-53033J53033D01*
G01*
X184752186Y-89287689D01*
G75*
G02*
X184752186Y-89181623I53033J53033D01*
G01*
G37*
G36*
G01*
X185105740Y-89535177D02*
X186060334Y-88580583D01*
G75*
G02*
X186166400Y-88580583I53033J-53033D01*
G01*
X186272466Y-88686649D01*
G75*
G02*
X186272466Y-88792715I-53033J-53033D01*
G01*
X185317872Y-89747309D01*
G75*
G02*
X185211806Y-89747309I-53033J53033D01*
G01*
X185105740Y-89641243D01*
G75*
G02*
X185105740Y-89535177I53033J53033D01*
G01*
G37*
G36*
G01*
X185459293Y-89888730D02*
X186413887Y-88934136D01*
G75*
G02*
X186519953Y-88934136I53033J-53033D01*
G01*
X186626019Y-89040202D01*
G75*
G02*
X186626019Y-89146268I-53033J-53033D01*
G01*
X185671425Y-90100862D01*
G75*
G02*
X185565359Y-90100862I-53033J53033D01*
G01*
X185459293Y-89994796D01*
G75*
G02*
X185459293Y-89888730I53033J53033D01*
G01*
G37*
G36*
G01*
X185812846Y-90242283D02*
X186767440Y-89287689D01*
G75*
G02*
X186873506Y-89287689I53033J-53033D01*
G01*
X186979572Y-89393755D01*
G75*
G02*
X186979572Y-89499821I-53033J-53033D01*
G01*
X186024978Y-90454415D01*
G75*
G02*
X185918912Y-90454415I-53033J53033D01*
G01*
X185812846Y-90348349D01*
G75*
G02*
X185812846Y-90242283I53033J53033D01*
G01*
G37*
G36*
G01*
X186166400Y-90595837D02*
X187120994Y-89641243D01*
G75*
G02*
X187227060Y-89641243I53033J-53033D01*
G01*
X187333126Y-89747309D01*
G75*
G02*
X187333126Y-89853375I-53033J-53033D01*
G01*
X186378532Y-90807969D01*
G75*
G02*
X186272466Y-90807969I-53033J53033D01*
G01*
X186166400Y-90701903D01*
G75*
G02*
X186166400Y-90595837I53033J53033D01*
G01*
G37*
G36*
G01*
X186519953Y-90949390D02*
X187474547Y-89994796D01*
G75*
G02*
X187580613Y-89994796I53033J-53033D01*
G01*
X187686679Y-90100862D01*
G75*
G02*
X187686679Y-90206928I-53033J-53033D01*
G01*
X186732085Y-91161522D01*
G75*
G02*
X186626019Y-91161522I-53033J53033D01*
G01*
X186519953Y-91055456D01*
G75*
G02*
X186519953Y-90949390I53033J53033D01*
G01*
G37*
G36*
G01*
X186873507Y-91302944D02*
X187828101Y-90348350D01*
G75*
G02*
X187934167Y-90348350I53033J-53033D01*
G01*
X188040233Y-90454416D01*
G75*
G02*
X188040233Y-90560482I-53033J-53033D01*
G01*
X187085639Y-91515076D01*
G75*
G02*
X186979573Y-91515076I-53033J53033D01*
G01*
X186873507Y-91409010D01*
G75*
G02*
X186873507Y-91302944I53033J53033D01*
G01*
G37*
G36*
G01*
X187227060Y-91656497D02*
X188181654Y-90701903D01*
G75*
G02*
X188287720Y-90701903I53033J-53033D01*
G01*
X188393786Y-90807969D01*
G75*
G02*
X188393786Y-90914035I-53033J-53033D01*
G01*
X187439192Y-91868629D01*
G75*
G02*
X187333126Y-91868629I-53033J53033D01*
G01*
X187227060Y-91762563D01*
G75*
G02*
X187227060Y-91656497I53033J53033D01*
G01*
G37*
G36*
G01*
X187580613Y-92010050D02*
X188535207Y-91055456D01*
G75*
G02*
X188641273Y-91055456I53033J-53033D01*
G01*
X188747339Y-91161522D01*
G75*
G02*
X188747339Y-91267588I-53033J-53033D01*
G01*
X187792745Y-92222182D01*
G75*
G02*
X187686679Y-92222182I-53033J53033D01*
G01*
X187580613Y-92116116D01*
G75*
G02*
X187580613Y-92010050I53033J53033D01*
G01*
G37*
G36*
G01*
X187580613Y-93883884D02*
X187686679Y-93777818D01*
G75*
G02*
X187792745Y-93777818I53033J-53033D01*
G01*
X188747339Y-94732412D01*
G75*
G02*
X188747339Y-94838478I-53033J-53033D01*
G01*
X188641273Y-94944544D01*
G75*
G02*
X188535207Y-94944544I-53033J53033D01*
G01*
X187580613Y-93989950D01*
G75*
G02*
X187580613Y-93883884I53033J53033D01*
G01*
G37*
G36*
G01*
X187227060Y-94237437D02*
X187333126Y-94131371D01*
G75*
G02*
X187439192Y-94131371I53033J-53033D01*
G01*
X188393786Y-95085965D01*
G75*
G02*
X188393786Y-95192031I-53033J-53033D01*
G01*
X188287720Y-95298097D01*
G75*
G02*
X188181654Y-95298097I-53033J53033D01*
G01*
X187227060Y-94343503D01*
G75*
G02*
X187227060Y-94237437I53033J53033D01*
G01*
G37*
G36*
G01*
X186873507Y-94590990D02*
X186979573Y-94484924D01*
G75*
G02*
X187085639Y-94484924I53033J-53033D01*
G01*
X188040233Y-95439518D01*
G75*
G02*
X188040233Y-95545584I-53033J-53033D01*
G01*
X187934167Y-95651650D01*
G75*
G02*
X187828101Y-95651650I-53033J53033D01*
G01*
X186873507Y-94697056D01*
G75*
G02*
X186873507Y-94590990I53033J53033D01*
G01*
G37*
G36*
G01*
X186519953Y-94944544D02*
X186626019Y-94838478D01*
G75*
G02*
X186732085Y-94838478I53033J-53033D01*
G01*
X187686679Y-95793072D01*
G75*
G02*
X187686679Y-95899138I-53033J-53033D01*
G01*
X187580613Y-96005204D01*
G75*
G02*
X187474547Y-96005204I-53033J53033D01*
G01*
X186519953Y-95050610D01*
G75*
G02*
X186519953Y-94944544I53033J53033D01*
G01*
G37*
G36*
G01*
X186166400Y-95298097D02*
X186272466Y-95192031D01*
G75*
G02*
X186378532Y-95192031I53033J-53033D01*
G01*
X187333126Y-96146625D01*
G75*
G02*
X187333126Y-96252691I-53033J-53033D01*
G01*
X187227060Y-96358757D01*
G75*
G02*
X187120994Y-96358757I-53033J53033D01*
G01*
X186166400Y-95404163D01*
G75*
G02*
X186166400Y-95298097I53033J53033D01*
G01*
G37*
G36*
G01*
X185812846Y-95651651D02*
X185918912Y-95545585D01*
G75*
G02*
X186024978Y-95545585I53033J-53033D01*
G01*
X186979572Y-96500179D01*
G75*
G02*
X186979572Y-96606245I-53033J-53033D01*
G01*
X186873506Y-96712311D01*
G75*
G02*
X186767440Y-96712311I-53033J53033D01*
G01*
X185812846Y-95757717D01*
G75*
G02*
X185812846Y-95651651I53033J53033D01*
G01*
G37*
G36*
G01*
X185459293Y-96005204D02*
X185565359Y-95899138D01*
G75*
G02*
X185671425Y-95899138I53033J-53033D01*
G01*
X186626019Y-96853732D01*
G75*
G02*
X186626019Y-96959798I-53033J-53033D01*
G01*
X186519953Y-97065864D01*
G75*
G02*
X186413887Y-97065864I-53033J53033D01*
G01*
X185459293Y-96111270D01*
G75*
G02*
X185459293Y-96005204I53033J53033D01*
G01*
G37*
G36*
G01*
X185105740Y-96358757D02*
X185211806Y-96252691D01*
G75*
G02*
X185317872Y-96252691I53033J-53033D01*
G01*
X186272466Y-97207285D01*
G75*
G02*
X186272466Y-97313351I-53033J-53033D01*
G01*
X186166400Y-97419417D01*
G75*
G02*
X186060334Y-97419417I-53033J53033D01*
G01*
X185105740Y-96464823D01*
G75*
G02*
X185105740Y-96358757I53033J53033D01*
G01*
G37*
G36*
G01*
X184752186Y-96712311D02*
X184858252Y-96606245D01*
G75*
G02*
X184964318Y-96606245I53033J-53033D01*
G01*
X185918912Y-97560839D01*
G75*
G02*
X185918912Y-97666905I-53033J-53033D01*
G01*
X185812846Y-97772971D01*
G75*
G02*
X185706780Y-97772971I-53033J53033D01*
G01*
X184752186Y-96818377D01*
G75*
G02*
X184752186Y-96712311I53033J53033D01*
G01*
G37*
G36*
G01*
X184398633Y-97065864D02*
X184504699Y-96959798D01*
G75*
G02*
X184610765Y-96959798I53033J-53033D01*
G01*
X185565359Y-97914392D01*
G75*
G02*
X185565359Y-98020458I-53033J-53033D01*
G01*
X185459293Y-98126524D01*
G75*
G02*
X185353227Y-98126524I-53033J53033D01*
G01*
X184398633Y-97171930D01*
G75*
G02*
X184398633Y-97065864I53033J53033D01*
G01*
G37*
G36*
G01*
X184045079Y-97419417D02*
X184151145Y-97313351D01*
G75*
G02*
X184257211Y-97313351I53033J-53033D01*
G01*
X185211805Y-98267945D01*
G75*
G02*
X185211805Y-98374011I-53033J-53033D01*
G01*
X185105739Y-98480077D01*
G75*
G02*
X184999673Y-98480077I-53033J53033D01*
G01*
X184045079Y-97525483D01*
G75*
G02*
X184045079Y-97419417I53033J53033D01*
G01*
G37*
G36*
G01*
X183691526Y-97772971D02*
X183797592Y-97666905D01*
G75*
G02*
X183903658Y-97666905I53033J-53033D01*
G01*
X184858252Y-98621499D01*
G75*
G02*
X184858252Y-98727565I-53033J-53033D01*
G01*
X184752186Y-98833631D01*
G75*
G02*
X184646120Y-98833631I-53033J53033D01*
G01*
X183691526Y-97879037D01*
G75*
G02*
X183691526Y-97772971I53033J53033D01*
G01*
G37*
G36*
G01*
X183337973Y-98126524D02*
X183444039Y-98020458D01*
G75*
G02*
X183550105Y-98020458I53033J-53033D01*
G01*
X184504699Y-98975052D01*
G75*
G02*
X184504699Y-99081118I-53033J-53033D01*
G01*
X184398633Y-99187184D01*
G75*
G02*
X184292567Y-99187184I-53033J53033D01*
G01*
X183337973Y-98232590D01*
G75*
G02*
X183337973Y-98126524I53033J53033D01*
G01*
G37*
G36*
G01*
X182984419Y-98480078D02*
X183090485Y-98374012D01*
G75*
G02*
X183196551Y-98374012I53033J-53033D01*
G01*
X184151145Y-99328606D01*
G75*
G02*
X184151145Y-99434672I-53033J-53033D01*
G01*
X184045079Y-99540738D01*
G75*
G02*
X183939013Y-99540738I-53033J53033D01*
G01*
X182984419Y-98586144D01*
G75*
G02*
X182984419Y-98480078I53033J53033D01*
G01*
G37*
G36*
G01*
X182630866Y-98833631D02*
X182736932Y-98727565D01*
G75*
G02*
X182842998Y-98727565I53033J-53033D01*
G01*
X183797592Y-99682159D01*
G75*
G02*
X183797592Y-99788225I-53033J-53033D01*
G01*
X183691526Y-99894291D01*
G75*
G02*
X183585460Y-99894291I-53033J53033D01*
G01*
X182630866Y-98939697D01*
G75*
G02*
X182630866Y-98833631I53033J53033D01*
G01*
G37*
G36*
G01*
X182277312Y-99187184D02*
X182383378Y-99081118D01*
G75*
G02*
X182489444Y-99081118I53033J-53033D01*
G01*
X183444038Y-100035712D01*
G75*
G02*
X183444038Y-100141778I-53033J-53033D01*
G01*
X183337972Y-100247844D01*
G75*
G02*
X183231906Y-100247844I-53033J53033D01*
G01*
X182277312Y-99293250D01*
G75*
G02*
X182277312Y-99187184I53033J53033D01*
G01*
G37*
G36*
G01*
X181923759Y-99540738D02*
X182029825Y-99434672D01*
G75*
G02*
X182135891Y-99434672I53033J-53033D01*
G01*
X183090485Y-100389266D01*
G75*
G02*
X183090485Y-100495332I-53033J-53033D01*
G01*
X182984419Y-100601398D01*
G75*
G02*
X182878353Y-100601398I-53033J53033D01*
G01*
X181923759Y-99646804D01*
G75*
G02*
X181923759Y-99540738I53033J53033D01*
G01*
G37*
G36*
G01*
X181570206Y-99894291D02*
X181676272Y-99788225D01*
G75*
G02*
X181782338Y-99788225I53033J-53033D01*
G01*
X182736932Y-100742819D01*
G75*
G02*
X182736932Y-100848885I-53033J-53033D01*
G01*
X182630866Y-100954951D01*
G75*
G02*
X182524800Y-100954951I-53033J53033D01*
G01*
X181570206Y-100000357D01*
G75*
G02*
X181570206Y-99894291I53033J53033D01*
G01*
G37*
G36*
G01*
X181216652Y-100247845D02*
X181322718Y-100141779D01*
G75*
G02*
X181428784Y-100141779I53033J-53033D01*
G01*
X182383378Y-101096373D01*
G75*
G02*
X182383378Y-101202439I-53033J-53033D01*
G01*
X182277312Y-101308505D01*
G75*
G02*
X182171246Y-101308505I-53033J53033D01*
G01*
X181216652Y-100353911D01*
G75*
G02*
X181216652Y-100247845I53033J53033D01*
G01*
G37*
G36*
G01*
X180863099Y-100601398D02*
X180969165Y-100495332D01*
G75*
G02*
X181075231Y-100495332I53033J-53033D01*
G01*
X182029825Y-101449926D01*
G75*
G02*
X182029825Y-101555992I-53033J-53033D01*
G01*
X181923759Y-101662058D01*
G75*
G02*
X181817693Y-101662058I-53033J53033D01*
G01*
X180863099Y-100707464D01*
G75*
G02*
X180863099Y-100601398I53033J53033D01*
G01*
G37*
G36*
G01*
X180509546Y-100954951D02*
X180615612Y-100848885D01*
G75*
G02*
X180721678Y-100848885I53033J-53033D01*
G01*
X181676272Y-101803479D01*
G75*
G02*
X181676272Y-101909545I-53033J-53033D01*
G01*
X181570206Y-102015611D01*
G75*
G02*
X181464140Y-102015611I-53033J53033D01*
G01*
X180509546Y-101061017D01*
G75*
G02*
X180509546Y-100954951I53033J53033D01*
G01*
G37*
G36*
G01*
X180155992Y-101308505D02*
X180262058Y-101202439D01*
G75*
G02*
X180368124Y-101202439I53033J-53033D01*
G01*
X181322718Y-102157033D01*
G75*
G02*
X181322718Y-102263099I-53033J-53033D01*
G01*
X181216652Y-102369165D01*
G75*
G02*
X181110586Y-102369165I-53033J53033D01*
G01*
X180155992Y-101414571D01*
G75*
G02*
X180155992Y-101308505I53033J53033D01*
G01*
G37*
G36*
G01*
X179802439Y-101662058D02*
X179908505Y-101555992D01*
G75*
G02*
X180014571Y-101555992I53033J-53033D01*
G01*
X180969165Y-102510586D01*
G75*
G02*
X180969165Y-102616652I-53033J-53033D01*
G01*
X180863099Y-102722718D01*
G75*
G02*
X180757033Y-102722718I-53033J53033D01*
G01*
X179802439Y-101768124D01*
G75*
G02*
X179802439Y-101662058I53033J53033D01*
G01*
G37*
G36*
G01*
X179448885Y-102015612D02*
X179554951Y-101909546D01*
G75*
G02*
X179661017Y-101909546I53033J-53033D01*
G01*
X180615611Y-102864140D01*
G75*
G02*
X180615611Y-102970206I-53033J-53033D01*
G01*
X180509545Y-103076272D01*
G75*
G02*
X180403479Y-103076272I-53033J53033D01*
G01*
X179448885Y-102121678D01*
G75*
G02*
X179448885Y-102015612I53033J53033D01*
G01*
G37*
G36*
G01*
X179095332Y-102369165D02*
X179201398Y-102263099D01*
G75*
G02*
X179307464Y-102263099I53033J-53033D01*
G01*
X180262058Y-103217693D01*
G75*
G02*
X180262058Y-103323759I-53033J-53033D01*
G01*
X180155992Y-103429825D01*
G75*
G02*
X180049926Y-103429825I-53033J53033D01*
G01*
X179095332Y-102475231D01*
G75*
G02*
X179095332Y-102369165I53033J53033D01*
G01*
G37*
G36*
G01*
X178741779Y-102722718D02*
X178847845Y-102616652D01*
G75*
G02*
X178953911Y-102616652I53033J-53033D01*
G01*
X179908505Y-103571246D01*
G75*
G02*
X179908505Y-103677312I-53033J-53033D01*
G01*
X179802439Y-103783378D01*
G75*
G02*
X179696373Y-103783378I-53033J53033D01*
G01*
X178741779Y-102828784D01*
G75*
G02*
X178741779Y-102722718I53033J53033D01*
G01*
G37*
G36*
G01*
X178388225Y-103076272D02*
X178494291Y-102970206D01*
G75*
G02*
X178600357Y-102970206I53033J-53033D01*
G01*
X179554951Y-103924800D01*
G75*
G02*
X179554951Y-104030866I-53033J-53033D01*
G01*
X179448885Y-104136932D01*
G75*
G02*
X179342819Y-104136932I-53033J53033D01*
G01*
X178388225Y-103182338D01*
G75*
G02*
X178388225Y-103076272I53033J53033D01*
G01*
G37*
G36*
G01*
X178034672Y-103429825D02*
X178140738Y-103323759D01*
G75*
G02*
X178246804Y-103323759I53033J-53033D01*
G01*
X179201398Y-104278353D01*
G75*
G02*
X179201398Y-104384419I-53033J-53033D01*
G01*
X179095332Y-104490485D01*
G75*
G02*
X178989266Y-104490485I-53033J53033D01*
G01*
X178034672Y-103535891D01*
G75*
G02*
X178034672Y-103429825I53033J53033D01*
G01*
G37*
G36*
G01*
X177681118Y-103783378D02*
X177787184Y-103677312D01*
G75*
G02*
X177893250Y-103677312I53033J-53033D01*
G01*
X178847844Y-104631906D01*
G75*
G02*
X178847844Y-104737972I-53033J-53033D01*
G01*
X178741778Y-104844038D01*
G75*
G02*
X178635712Y-104844038I-53033J53033D01*
G01*
X177681118Y-103889444D01*
G75*
G02*
X177681118Y-103783378I53033J53033D01*
G01*
G37*
G36*
G01*
X177327565Y-104136932D02*
X177433631Y-104030866D01*
G75*
G02*
X177539697Y-104030866I53033J-53033D01*
G01*
X178494291Y-104985460D01*
G75*
G02*
X178494291Y-105091526I-53033J-53033D01*
G01*
X178388225Y-105197592D01*
G75*
G02*
X178282159Y-105197592I-53033J53033D01*
G01*
X177327565Y-104242998D01*
G75*
G02*
X177327565Y-104136932I53033J53033D01*
G01*
G37*
G36*
G01*
X176974012Y-104490485D02*
X177080078Y-104384419D01*
G75*
G02*
X177186144Y-104384419I53033J-53033D01*
G01*
X178140738Y-105339013D01*
G75*
G02*
X178140738Y-105445079I-53033J-53033D01*
G01*
X178034672Y-105551145D01*
G75*
G02*
X177928606Y-105551145I-53033J53033D01*
G01*
X176974012Y-104596551D01*
G75*
G02*
X176974012Y-104490485I53033J53033D01*
G01*
G37*
G36*
G01*
X176620458Y-104844039D02*
X176726524Y-104737973D01*
G75*
G02*
X176832590Y-104737973I53033J-53033D01*
G01*
X177787184Y-105692567D01*
G75*
G02*
X177787184Y-105798633I-53033J-53033D01*
G01*
X177681118Y-105904699D01*
G75*
G02*
X177575052Y-105904699I-53033J53033D01*
G01*
X176620458Y-104950105D01*
G75*
G02*
X176620458Y-104844039I53033J53033D01*
G01*
G37*
G36*
G01*
X176266905Y-105197592D02*
X176372971Y-105091526D01*
G75*
G02*
X176479037Y-105091526I53033J-53033D01*
G01*
X177433631Y-106046120D01*
G75*
G02*
X177433631Y-106152186I-53033J-53033D01*
G01*
X177327565Y-106258252D01*
G75*
G02*
X177221499Y-106258252I-53033J53033D01*
G01*
X176266905Y-105303658D01*
G75*
G02*
X176266905Y-105197592I53033J53033D01*
G01*
G37*
G36*
G01*
X175913351Y-105551145D02*
X176019417Y-105445079D01*
G75*
G02*
X176125483Y-105445079I53033J-53033D01*
G01*
X177080077Y-106399673D01*
G75*
G02*
X177080077Y-106505739I-53033J-53033D01*
G01*
X176974011Y-106611805D01*
G75*
G02*
X176867945Y-106611805I-53033J53033D01*
G01*
X175913351Y-105657211D01*
G75*
G02*
X175913351Y-105551145I53033J53033D01*
G01*
G37*
G36*
G01*
X175559798Y-105904699D02*
X175665864Y-105798633D01*
G75*
G02*
X175771930Y-105798633I53033J-53033D01*
G01*
X176726524Y-106753227D01*
G75*
G02*
X176726524Y-106859293I-53033J-53033D01*
G01*
X176620458Y-106965359D01*
G75*
G02*
X176514392Y-106965359I-53033J53033D01*
G01*
X175559798Y-106010765D01*
G75*
G02*
X175559798Y-105904699I53033J53033D01*
G01*
G37*
G36*
G01*
X175206245Y-106258252D02*
X175312311Y-106152186D01*
G75*
G02*
X175418377Y-106152186I53033J-53033D01*
G01*
X176372971Y-107106780D01*
G75*
G02*
X176372971Y-107212846I-53033J-53033D01*
G01*
X176266905Y-107318912D01*
G75*
G02*
X176160839Y-107318912I-53033J53033D01*
G01*
X175206245Y-106364318D01*
G75*
G02*
X175206245Y-106258252I53033J53033D01*
G01*
G37*
G36*
G01*
X174852691Y-106611806D02*
X174958757Y-106505740D01*
G75*
G02*
X175064823Y-106505740I53033J-53033D01*
G01*
X176019417Y-107460334D01*
G75*
G02*
X176019417Y-107566400I-53033J-53033D01*
G01*
X175913351Y-107672466D01*
G75*
G02*
X175807285Y-107672466I-53033J53033D01*
G01*
X174852691Y-106717872D01*
G75*
G02*
X174852691Y-106611806I53033J53033D01*
G01*
G37*
G36*
G01*
X174499138Y-106965359D02*
X174605204Y-106859293D01*
G75*
G02*
X174711270Y-106859293I53033J-53033D01*
G01*
X175665864Y-107813887D01*
G75*
G02*
X175665864Y-107919953I-53033J-53033D01*
G01*
X175559798Y-108026019D01*
G75*
G02*
X175453732Y-108026019I-53033J53033D01*
G01*
X174499138Y-107071425D01*
G75*
G02*
X174499138Y-106965359I53033J53033D01*
G01*
G37*
G36*
G01*
X174145585Y-107318912D02*
X174251651Y-107212846D01*
G75*
G02*
X174357717Y-107212846I53033J-53033D01*
G01*
X175312311Y-108167440D01*
G75*
G02*
X175312311Y-108273506I-53033J-53033D01*
G01*
X175206245Y-108379572D01*
G75*
G02*
X175100179Y-108379572I-53033J53033D01*
G01*
X174145585Y-107424978D01*
G75*
G02*
X174145585Y-107318912I53033J53033D01*
G01*
G37*
G36*
G01*
X173792031Y-107672466D02*
X173898097Y-107566400D01*
G75*
G02*
X174004163Y-107566400I53033J-53033D01*
G01*
X174958757Y-108520994D01*
G75*
G02*
X174958757Y-108627060I-53033J-53033D01*
G01*
X174852691Y-108733126D01*
G75*
G02*
X174746625Y-108733126I-53033J53033D01*
G01*
X173792031Y-107778532D01*
G75*
G02*
X173792031Y-107672466I53033J53033D01*
G01*
G37*
G36*
G01*
X173438478Y-108026019D02*
X173544544Y-107919953D01*
G75*
G02*
X173650610Y-107919953I53033J-53033D01*
G01*
X174605204Y-108874547D01*
G75*
G02*
X174605204Y-108980613I-53033J-53033D01*
G01*
X174499138Y-109086679D01*
G75*
G02*
X174393072Y-109086679I-53033J53033D01*
G01*
X173438478Y-108132085D01*
G75*
G02*
X173438478Y-108026019I53033J53033D01*
G01*
G37*
G36*
G01*
X173084924Y-108379573D02*
X173190990Y-108273507D01*
G75*
G02*
X173297056Y-108273507I53033J-53033D01*
G01*
X174251650Y-109228101D01*
G75*
G02*
X174251650Y-109334167I-53033J-53033D01*
G01*
X174145584Y-109440233D01*
G75*
G02*
X174039518Y-109440233I-53033J53033D01*
G01*
X173084924Y-108485639D01*
G75*
G02*
X173084924Y-108379573I53033J53033D01*
G01*
G37*
G36*
G01*
X172731371Y-108733126D02*
X172837437Y-108627060D01*
G75*
G02*
X172943503Y-108627060I53033J-53033D01*
G01*
X173898097Y-109581654D01*
G75*
G02*
X173898097Y-109687720I-53033J-53033D01*
G01*
X173792031Y-109793786D01*
G75*
G02*
X173685965Y-109793786I-53033J53033D01*
G01*
X172731371Y-108839192D01*
G75*
G02*
X172731371Y-108733126I53033J53033D01*
G01*
G37*
G36*
G01*
X172377818Y-109086679D02*
X172483884Y-108980613D01*
G75*
G02*
X172589950Y-108980613I53033J-53033D01*
G01*
X173544544Y-109935207D01*
G75*
G02*
X173544544Y-110041273I-53033J-53033D01*
G01*
X173438478Y-110147339D01*
G75*
G02*
X173332412Y-110147339I-53033J53033D01*
G01*
X172377818Y-109192745D01*
G75*
G02*
X172377818Y-109086679I53033J53033D01*
G01*
G37*
G36*
G01*
X169655456Y-109935207D02*
X170610050Y-108980613D01*
G75*
G02*
X170716116Y-108980613I53033J-53033D01*
G01*
X170822182Y-109086679D01*
G75*
G02*
X170822182Y-109192745I-53033J-53033D01*
G01*
X169867588Y-110147339D01*
G75*
G02*
X169761522Y-110147339I-53033J53033D01*
G01*
X169655456Y-110041273D01*
G75*
G02*
X169655456Y-109935207I53033J53033D01*
G01*
G37*
G36*
G01*
X169301903Y-109581654D02*
X170256497Y-108627060D01*
G75*
G02*
X170362563Y-108627060I53033J-53033D01*
G01*
X170468629Y-108733126D01*
G75*
G02*
X170468629Y-108839192I-53033J-53033D01*
G01*
X169514035Y-109793786D01*
G75*
G02*
X169407969Y-109793786I-53033J53033D01*
G01*
X169301903Y-109687720D01*
G75*
G02*
X169301903Y-109581654I53033J53033D01*
G01*
G37*
G36*
G01*
X168948350Y-109228101D02*
X169902944Y-108273507D01*
G75*
G02*
X170009010Y-108273507I53033J-53033D01*
G01*
X170115076Y-108379573D01*
G75*
G02*
X170115076Y-108485639I-53033J-53033D01*
G01*
X169160482Y-109440233D01*
G75*
G02*
X169054416Y-109440233I-53033J53033D01*
G01*
X168948350Y-109334167D01*
G75*
G02*
X168948350Y-109228101I53033J53033D01*
G01*
G37*
G36*
G01*
X168594796Y-108874547D02*
X169549390Y-107919953D01*
G75*
G02*
X169655456Y-107919953I53033J-53033D01*
G01*
X169761522Y-108026019D01*
G75*
G02*
X169761522Y-108132085I-53033J-53033D01*
G01*
X168806928Y-109086679D01*
G75*
G02*
X168700862Y-109086679I-53033J53033D01*
G01*
X168594796Y-108980613D01*
G75*
G02*
X168594796Y-108874547I53033J53033D01*
G01*
G37*
G36*
G01*
X168241243Y-108520994D02*
X169195837Y-107566400D01*
G75*
G02*
X169301903Y-107566400I53033J-53033D01*
G01*
X169407969Y-107672466D01*
G75*
G02*
X169407969Y-107778532I-53033J-53033D01*
G01*
X168453375Y-108733126D01*
G75*
G02*
X168347309Y-108733126I-53033J53033D01*
G01*
X168241243Y-108627060D01*
G75*
G02*
X168241243Y-108520994I53033J53033D01*
G01*
G37*
G36*
G01*
X167887689Y-108167440D02*
X168842283Y-107212846D01*
G75*
G02*
X168948349Y-107212846I53033J-53033D01*
G01*
X169054415Y-107318912D01*
G75*
G02*
X169054415Y-107424978I-53033J-53033D01*
G01*
X168099821Y-108379572D01*
G75*
G02*
X167993755Y-108379572I-53033J53033D01*
G01*
X167887689Y-108273506D01*
G75*
G02*
X167887689Y-108167440I53033J53033D01*
G01*
G37*
G36*
G01*
X167534136Y-107813887D02*
X168488730Y-106859293D01*
G75*
G02*
X168594796Y-106859293I53033J-53033D01*
G01*
X168700862Y-106965359D01*
G75*
G02*
X168700862Y-107071425I-53033J-53033D01*
G01*
X167746268Y-108026019D01*
G75*
G02*
X167640202Y-108026019I-53033J53033D01*
G01*
X167534136Y-107919953D01*
G75*
G02*
X167534136Y-107813887I53033J53033D01*
G01*
G37*
G36*
G01*
X167180583Y-107460334D02*
X168135177Y-106505740D01*
G75*
G02*
X168241243Y-106505740I53033J-53033D01*
G01*
X168347309Y-106611806D01*
G75*
G02*
X168347309Y-106717872I-53033J-53033D01*
G01*
X167392715Y-107672466D01*
G75*
G02*
X167286649Y-107672466I-53033J53033D01*
G01*
X167180583Y-107566400D01*
G75*
G02*
X167180583Y-107460334I53033J53033D01*
G01*
G37*
G36*
G01*
X166827029Y-107106780D02*
X167781623Y-106152186D01*
G75*
G02*
X167887689Y-106152186I53033J-53033D01*
G01*
X167993755Y-106258252D01*
G75*
G02*
X167993755Y-106364318I-53033J-53033D01*
G01*
X167039161Y-107318912D01*
G75*
G02*
X166933095Y-107318912I-53033J53033D01*
G01*
X166827029Y-107212846D01*
G75*
G02*
X166827029Y-107106780I53033J53033D01*
G01*
G37*
G36*
G01*
X166473476Y-106753227D02*
X167428070Y-105798633D01*
G75*
G02*
X167534136Y-105798633I53033J-53033D01*
G01*
X167640202Y-105904699D01*
G75*
G02*
X167640202Y-106010765I-53033J-53033D01*
G01*
X166685608Y-106965359D01*
G75*
G02*
X166579542Y-106965359I-53033J53033D01*
G01*
X166473476Y-106859293D01*
G75*
G02*
X166473476Y-106753227I53033J53033D01*
G01*
G37*
G36*
G01*
X166119923Y-106399673D02*
X167074517Y-105445079D01*
G75*
G02*
X167180583Y-105445079I53033J-53033D01*
G01*
X167286649Y-105551145D01*
G75*
G02*
X167286649Y-105657211I-53033J-53033D01*
G01*
X166332055Y-106611805D01*
G75*
G02*
X166225989Y-106611805I-53033J53033D01*
G01*
X166119923Y-106505739D01*
G75*
G02*
X166119923Y-106399673I53033J53033D01*
G01*
G37*
G36*
G01*
X165766369Y-106046120D02*
X166720963Y-105091526D01*
G75*
G02*
X166827029Y-105091526I53033J-53033D01*
G01*
X166933095Y-105197592D01*
G75*
G02*
X166933095Y-105303658I-53033J-53033D01*
G01*
X165978501Y-106258252D01*
G75*
G02*
X165872435Y-106258252I-53033J53033D01*
G01*
X165766369Y-106152186D01*
G75*
G02*
X165766369Y-106046120I53033J53033D01*
G01*
G37*
G36*
G01*
X165412816Y-105692567D02*
X166367410Y-104737973D01*
G75*
G02*
X166473476Y-104737973I53033J-53033D01*
G01*
X166579542Y-104844039D01*
G75*
G02*
X166579542Y-104950105I-53033J-53033D01*
G01*
X165624948Y-105904699D01*
G75*
G02*
X165518882Y-105904699I-53033J53033D01*
G01*
X165412816Y-105798633D01*
G75*
G02*
X165412816Y-105692567I53033J53033D01*
G01*
G37*
G36*
G01*
X165059262Y-105339013D02*
X166013856Y-104384419D01*
G75*
G02*
X166119922Y-104384419I53033J-53033D01*
G01*
X166225988Y-104490485D01*
G75*
G02*
X166225988Y-104596551I-53033J-53033D01*
G01*
X165271394Y-105551145D01*
G75*
G02*
X165165328Y-105551145I-53033J53033D01*
G01*
X165059262Y-105445079D01*
G75*
G02*
X165059262Y-105339013I53033J53033D01*
G01*
G37*
G36*
G01*
X164705709Y-104985460D02*
X165660303Y-104030866D01*
G75*
G02*
X165766369Y-104030866I53033J-53033D01*
G01*
X165872435Y-104136932D01*
G75*
G02*
X165872435Y-104242998I-53033J-53033D01*
G01*
X164917841Y-105197592D01*
G75*
G02*
X164811775Y-105197592I-53033J53033D01*
G01*
X164705709Y-105091526D01*
G75*
G02*
X164705709Y-104985460I53033J53033D01*
G01*
G37*
G36*
G01*
X164352156Y-104631906D02*
X165306750Y-103677312D01*
G75*
G02*
X165412816Y-103677312I53033J-53033D01*
G01*
X165518882Y-103783378D01*
G75*
G02*
X165518882Y-103889444I-53033J-53033D01*
G01*
X164564288Y-104844038D01*
G75*
G02*
X164458222Y-104844038I-53033J53033D01*
G01*
X164352156Y-104737972D01*
G75*
G02*
X164352156Y-104631906I53033J53033D01*
G01*
G37*
G36*
G01*
X163998602Y-104278353D02*
X164953196Y-103323759D01*
G75*
G02*
X165059262Y-103323759I53033J-53033D01*
G01*
X165165328Y-103429825D01*
G75*
G02*
X165165328Y-103535891I-53033J-53033D01*
G01*
X164210734Y-104490485D01*
G75*
G02*
X164104668Y-104490485I-53033J53033D01*
G01*
X163998602Y-104384419D01*
G75*
G02*
X163998602Y-104278353I53033J53033D01*
G01*
G37*
G36*
G01*
X163645049Y-103924800D02*
X164599643Y-102970206D01*
G75*
G02*
X164705709Y-102970206I53033J-53033D01*
G01*
X164811775Y-103076272D01*
G75*
G02*
X164811775Y-103182338I-53033J-53033D01*
G01*
X163857181Y-104136932D01*
G75*
G02*
X163751115Y-104136932I-53033J53033D01*
G01*
X163645049Y-104030866D01*
G75*
G02*
X163645049Y-103924800I53033J53033D01*
G01*
G37*
G36*
G01*
X163291495Y-103571246D02*
X164246089Y-102616652D01*
G75*
G02*
X164352155Y-102616652I53033J-53033D01*
G01*
X164458221Y-102722718D01*
G75*
G02*
X164458221Y-102828784I-53033J-53033D01*
G01*
X163503627Y-103783378D01*
G75*
G02*
X163397561Y-103783378I-53033J53033D01*
G01*
X163291495Y-103677312D01*
G75*
G02*
X163291495Y-103571246I53033J53033D01*
G01*
G37*
G36*
G01*
X162937942Y-103217693D02*
X163892536Y-102263099D01*
G75*
G02*
X163998602Y-102263099I53033J-53033D01*
G01*
X164104668Y-102369165D01*
G75*
G02*
X164104668Y-102475231I-53033J-53033D01*
G01*
X163150074Y-103429825D01*
G75*
G02*
X163044008Y-103429825I-53033J53033D01*
G01*
X162937942Y-103323759D01*
G75*
G02*
X162937942Y-103217693I53033J53033D01*
G01*
G37*
G36*
G01*
X162584389Y-102864140D02*
X163538983Y-101909546D01*
G75*
G02*
X163645049Y-101909546I53033J-53033D01*
G01*
X163751115Y-102015612D01*
G75*
G02*
X163751115Y-102121678I-53033J-53033D01*
G01*
X162796521Y-103076272D01*
G75*
G02*
X162690455Y-103076272I-53033J53033D01*
G01*
X162584389Y-102970206D01*
G75*
G02*
X162584389Y-102864140I53033J53033D01*
G01*
G37*
G36*
G01*
X162230835Y-102510586D02*
X163185429Y-101555992D01*
G75*
G02*
X163291495Y-101555992I53033J-53033D01*
G01*
X163397561Y-101662058D01*
G75*
G02*
X163397561Y-101768124I-53033J-53033D01*
G01*
X162442967Y-102722718D01*
G75*
G02*
X162336901Y-102722718I-53033J53033D01*
G01*
X162230835Y-102616652D01*
G75*
G02*
X162230835Y-102510586I53033J53033D01*
G01*
G37*
G36*
G01*
X161877282Y-102157033D02*
X162831876Y-101202439D01*
G75*
G02*
X162937942Y-101202439I53033J-53033D01*
G01*
X163044008Y-101308505D01*
G75*
G02*
X163044008Y-101414571I-53033J-53033D01*
G01*
X162089414Y-102369165D01*
G75*
G02*
X161983348Y-102369165I-53033J53033D01*
G01*
X161877282Y-102263099D01*
G75*
G02*
X161877282Y-102157033I53033J53033D01*
G01*
G37*
G36*
G01*
X161523728Y-101803479D02*
X162478322Y-100848885D01*
G75*
G02*
X162584388Y-100848885I53033J-53033D01*
G01*
X162690454Y-100954951D01*
G75*
G02*
X162690454Y-101061017I-53033J-53033D01*
G01*
X161735860Y-102015611D01*
G75*
G02*
X161629794Y-102015611I-53033J53033D01*
G01*
X161523728Y-101909545D01*
G75*
G02*
X161523728Y-101803479I53033J53033D01*
G01*
G37*
G36*
G01*
X161170175Y-101449926D02*
X162124769Y-100495332D01*
G75*
G02*
X162230835Y-100495332I53033J-53033D01*
G01*
X162336901Y-100601398D01*
G75*
G02*
X162336901Y-100707464I-53033J-53033D01*
G01*
X161382307Y-101662058D01*
G75*
G02*
X161276241Y-101662058I-53033J53033D01*
G01*
X161170175Y-101555992D01*
G75*
G02*
X161170175Y-101449926I53033J53033D01*
G01*
G37*
G36*
G01*
X160816622Y-101096373D02*
X161771216Y-100141779D01*
G75*
G02*
X161877282Y-100141779I53033J-53033D01*
G01*
X161983348Y-100247845D01*
G75*
G02*
X161983348Y-100353911I-53033J-53033D01*
G01*
X161028754Y-101308505D01*
G75*
G02*
X160922688Y-101308505I-53033J53033D01*
G01*
X160816622Y-101202439D01*
G75*
G02*
X160816622Y-101096373I53033J53033D01*
G01*
G37*
G36*
G01*
X160463068Y-100742819D02*
X161417662Y-99788225D01*
G75*
G02*
X161523728Y-99788225I53033J-53033D01*
G01*
X161629794Y-99894291D01*
G75*
G02*
X161629794Y-100000357I-53033J-53033D01*
G01*
X160675200Y-100954951D01*
G75*
G02*
X160569134Y-100954951I-53033J53033D01*
G01*
X160463068Y-100848885D01*
G75*
G02*
X160463068Y-100742819I53033J53033D01*
G01*
G37*
G36*
G01*
X160109515Y-100389266D02*
X161064109Y-99434672D01*
G75*
G02*
X161170175Y-99434672I53033J-53033D01*
G01*
X161276241Y-99540738D01*
G75*
G02*
X161276241Y-99646804I-53033J-53033D01*
G01*
X160321647Y-100601398D01*
G75*
G02*
X160215581Y-100601398I-53033J53033D01*
G01*
X160109515Y-100495332D01*
G75*
G02*
X160109515Y-100389266I53033J53033D01*
G01*
G37*
G36*
G01*
X159755962Y-100035712D02*
X160710556Y-99081118D01*
G75*
G02*
X160816622Y-99081118I53033J-53033D01*
G01*
X160922688Y-99187184D01*
G75*
G02*
X160922688Y-99293250I-53033J-53033D01*
G01*
X159968094Y-100247844D01*
G75*
G02*
X159862028Y-100247844I-53033J53033D01*
G01*
X159755962Y-100141778D01*
G75*
G02*
X159755962Y-100035712I53033J53033D01*
G01*
G37*
G36*
G01*
X159402408Y-99682159D02*
X160357002Y-98727565D01*
G75*
G02*
X160463068Y-98727565I53033J-53033D01*
G01*
X160569134Y-98833631D01*
G75*
G02*
X160569134Y-98939697I-53033J-53033D01*
G01*
X159614540Y-99894291D01*
G75*
G02*
X159508474Y-99894291I-53033J53033D01*
G01*
X159402408Y-99788225D01*
G75*
G02*
X159402408Y-99682159I53033J53033D01*
G01*
G37*
G36*
G01*
X159048855Y-99328606D02*
X160003449Y-98374012D01*
G75*
G02*
X160109515Y-98374012I53033J-53033D01*
G01*
X160215581Y-98480078D01*
G75*
G02*
X160215581Y-98586144I-53033J-53033D01*
G01*
X159260987Y-99540738D01*
G75*
G02*
X159154921Y-99540738I-53033J53033D01*
G01*
X159048855Y-99434672D01*
G75*
G02*
X159048855Y-99328606I53033J53033D01*
G01*
G37*
G36*
G01*
X158695301Y-98975052D02*
X159649895Y-98020458D01*
G75*
G02*
X159755961Y-98020458I53033J-53033D01*
G01*
X159862027Y-98126524D01*
G75*
G02*
X159862027Y-98232590I-53033J-53033D01*
G01*
X158907433Y-99187184D01*
G75*
G02*
X158801367Y-99187184I-53033J53033D01*
G01*
X158695301Y-99081118D01*
G75*
G02*
X158695301Y-98975052I53033J53033D01*
G01*
G37*
G36*
G01*
X158341748Y-98621499D02*
X159296342Y-97666905D01*
G75*
G02*
X159402408Y-97666905I53033J-53033D01*
G01*
X159508474Y-97772971D01*
G75*
G02*
X159508474Y-97879037I-53033J-53033D01*
G01*
X158553880Y-98833631D01*
G75*
G02*
X158447814Y-98833631I-53033J53033D01*
G01*
X158341748Y-98727565D01*
G75*
G02*
X158341748Y-98621499I53033J53033D01*
G01*
G37*
G36*
G01*
X157988195Y-98267945D02*
X158942789Y-97313351D01*
G75*
G02*
X159048855Y-97313351I53033J-53033D01*
G01*
X159154921Y-97419417D01*
G75*
G02*
X159154921Y-97525483I-53033J-53033D01*
G01*
X158200327Y-98480077D01*
G75*
G02*
X158094261Y-98480077I-53033J53033D01*
G01*
X157988195Y-98374011D01*
G75*
G02*
X157988195Y-98267945I53033J53033D01*
G01*
G37*
G36*
G01*
X157634641Y-97914392D02*
X158589235Y-96959798D01*
G75*
G02*
X158695301Y-96959798I53033J-53033D01*
G01*
X158801367Y-97065864D01*
G75*
G02*
X158801367Y-97171930I-53033J-53033D01*
G01*
X157846773Y-98126524D01*
G75*
G02*
X157740707Y-98126524I-53033J53033D01*
G01*
X157634641Y-98020458D01*
G75*
G02*
X157634641Y-97914392I53033J53033D01*
G01*
G37*
G36*
G01*
X157281088Y-97560839D02*
X158235682Y-96606245D01*
G75*
G02*
X158341748Y-96606245I53033J-53033D01*
G01*
X158447814Y-96712311D01*
G75*
G02*
X158447814Y-96818377I-53033J-53033D01*
G01*
X157493220Y-97772971D01*
G75*
G02*
X157387154Y-97772971I-53033J53033D01*
G01*
X157281088Y-97666905D01*
G75*
G02*
X157281088Y-97560839I53033J53033D01*
G01*
G37*
G36*
G01*
X156927534Y-97207285D02*
X157882128Y-96252691D01*
G75*
G02*
X157988194Y-96252691I53033J-53033D01*
G01*
X158094260Y-96358757D01*
G75*
G02*
X158094260Y-96464823I-53033J-53033D01*
G01*
X157139666Y-97419417D01*
G75*
G02*
X157033600Y-97419417I-53033J53033D01*
G01*
X156927534Y-97313351D01*
G75*
G02*
X156927534Y-97207285I53033J53033D01*
G01*
G37*
G36*
G01*
X156573981Y-96853732D02*
X157528575Y-95899138D01*
G75*
G02*
X157634641Y-95899138I53033J-53033D01*
G01*
X157740707Y-96005204D01*
G75*
G02*
X157740707Y-96111270I-53033J-53033D01*
G01*
X156786113Y-97065864D01*
G75*
G02*
X156680047Y-97065864I-53033J53033D01*
G01*
X156573981Y-96959798D01*
G75*
G02*
X156573981Y-96853732I53033J53033D01*
G01*
G37*
G36*
G01*
X156220428Y-96500179D02*
X157175022Y-95545585D01*
G75*
G02*
X157281088Y-95545585I53033J-53033D01*
G01*
X157387154Y-95651651D01*
G75*
G02*
X157387154Y-95757717I-53033J-53033D01*
G01*
X156432560Y-96712311D01*
G75*
G02*
X156326494Y-96712311I-53033J53033D01*
G01*
X156220428Y-96606245D01*
G75*
G02*
X156220428Y-96500179I53033J53033D01*
G01*
G37*
G36*
G01*
X155866874Y-96146625D02*
X156821468Y-95192031D01*
G75*
G02*
X156927534Y-95192031I53033J-53033D01*
G01*
X157033600Y-95298097D01*
G75*
G02*
X157033600Y-95404163I-53033J-53033D01*
G01*
X156079006Y-96358757D01*
G75*
G02*
X155972940Y-96358757I-53033J53033D01*
G01*
X155866874Y-96252691D01*
G75*
G02*
X155866874Y-96146625I53033J53033D01*
G01*
G37*
G36*
G01*
X155513321Y-95793072D02*
X156467915Y-94838478D01*
G75*
G02*
X156573981Y-94838478I53033J-53033D01*
G01*
X156680047Y-94944544D01*
G75*
G02*
X156680047Y-95050610I-53033J-53033D01*
G01*
X155725453Y-96005204D01*
G75*
G02*
X155619387Y-96005204I-53033J53033D01*
G01*
X155513321Y-95899138D01*
G75*
G02*
X155513321Y-95793072I53033J53033D01*
G01*
G37*
G36*
G01*
X155159767Y-95439518D02*
X156114361Y-94484924D01*
G75*
G02*
X156220427Y-94484924I53033J-53033D01*
G01*
X156326493Y-94590990D01*
G75*
G02*
X156326493Y-94697056I-53033J-53033D01*
G01*
X155371899Y-95651650D01*
G75*
G02*
X155265833Y-95651650I-53033J53033D01*
G01*
X155159767Y-95545584D01*
G75*
G02*
X155159767Y-95439518I53033J53033D01*
G01*
G37*
G36*
G01*
X154806214Y-95085965D02*
X155760808Y-94131371D01*
G75*
G02*
X155866874Y-94131371I53033J-53033D01*
G01*
X155972940Y-94237437D01*
G75*
G02*
X155972940Y-94343503I-53033J-53033D01*
G01*
X155018346Y-95298097D01*
G75*
G02*
X154912280Y-95298097I-53033J53033D01*
G01*
X154806214Y-95192031D01*
G75*
G02*
X154806214Y-95085965I53033J53033D01*
G01*
G37*
G36*
G01*
X154452661Y-94732412D02*
X155407255Y-93777818D01*
G75*
G02*
X155513321Y-93777818I53033J-53033D01*
G01*
X155619387Y-93883884D01*
G75*
G02*
X155619387Y-93989950I-53033J-53033D01*
G01*
X154664793Y-94944544D01*
G75*
G02*
X154558727Y-94944544I-53033J53033D01*
G01*
X154452661Y-94838478D01*
G75*
G02*
X154452661Y-94732412I53033J53033D01*
G01*
G37*
G36*
G01*
X154452661Y-91161522D02*
X154558727Y-91055456D01*
G75*
G02*
X154664793Y-91055456I53033J-53033D01*
G01*
X155619387Y-92010050D01*
G75*
G02*
X155619387Y-92116116I-53033J-53033D01*
G01*
X155513321Y-92222182D01*
G75*
G02*
X155407255Y-92222182I-53033J53033D01*
G01*
X154452661Y-91267588D01*
G75*
G02*
X154452661Y-91161522I53033J53033D01*
G01*
G37*
G36*
G01*
X154806214Y-90807969D02*
X154912280Y-90701903D01*
G75*
G02*
X155018346Y-90701903I53033J-53033D01*
G01*
X155972940Y-91656497D01*
G75*
G02*
X155972940Y-91762563I-53033J-53033D01*
G01*
X155866874Y-91868629D01*
G75*
G02*
X155760808Y-91868629I-53033J53033D01*
G01*
X154806214Y-90914035D01*
G75*
G02*
X154806214Y-90807969I53033J53033D01*
G01*
G37*
G36*
G01*
X155159767Y-90454416D02*
X155265833Y-90348350D01*
G75*
G02*
X155371899Y-90348350I53033J-53033D01*
G01*
X156326493Y-91302944D01*
G75*
G02*
X156326493Y-91409010I-53033J-53033D01*
G01*
X156220427Y-91515076D01*
G75*
G02*
X156114361Y-91515076I-53033J53033D01*
G01*
X155159767Y-90560482D01*
G75*
G02*
X155159767Y-90454416I53033J53033D01*
G01*
G37*
G36*
G01*
X155513321Y-90100862D02*
X155619387Y-89994796D01*
G75*
G02*
X155725453Y-89994796I53033J-53033D01*
G01*
X156680047Y-90949390D01*
G75*
G02*
X156680047Y-91055456I-53033J-53033D01*
G01*
X156573981Y-91161522D01*
G75*
G02*
X156467915Y-91161522I-53033J53033D01*
G01*
X155513321Y-90206928D01*
G75*
G02*
X155513321Y-90100862I53033J53033D01*
G01*
G37*
G36*
G01*
X155866874Y-89747309D02*
X155972940Y-89641243D01*
G75*
G02*
X156079006Y-89641243I53033J-53033D01*
G01*
X157033600Y-90595837D01*
G75*
G02*
X157033600Y-90701903I-53033J-53033D01*
G01*
X156927534Y-90807969D01*
G75*
G02*
X156821468Y-90807969I-53033J53033D01*
G01*
X155866874Y-89853375D01*
G75*
G02*
X155866874Y-89747309I53033J53033D01*
G01*
G37*
G36*
G01*
X156220428Y-89393755D02*
X156326494Y-89287689D01*
G75*
G02*
X156432560Y-89287689I53033J-53033D01*
G01*
X157387154Y-90242283D01*
G75*
G02*
X157387154Y-90348349I-53033J-53033D01*
G01*
X157281088Y-90454415D01*
G75*
G02*
X157175022Y-90454415I-53033J53033D01*
G01*
X156220428Y-89499821D01*
G75*
G02*
X156220428Y-89393755I53033J53033D01*
G01*
G37*
G36*
G01*
X156573981Y-89040202D02*
X156680047Y-88934136D01*
G75*
G02*
X156786113Y-88934136I53033J-53033D01*
G01*
X157740707Y-89888730D01*
G75*
G02*
X157740707Y-89994796I-53033J-53033D01*
G01*
X157634641Y-90100862D01*
G75*
G02*
X157528575Y-90100862I-53033J53033D01*
G01*
X156573981Y-89146268D01*
G75*
G02*
X156573981Y-89040202I53033J53033D01*
G01*
G37*
G36*
G01*
X156927534Y-88686649D02*
X157033600Y-88580583D01*
G75*
G02*
X157139666Y-88580583I53033J-53033D01*
G01*
X158094260Y-89535177D01*
G75*
G02*
X158094260Y-89641243I-53033J-53033D01*
G01*
X157988194Y-89747309D01*
G75*
G02*
X157882128Y-89747309I-53033J53033D01*
G01*
X156927534Y-88792715D01*
G75*
G02*
X156927534Y-88686649I53033J53033D01*
G01*
G37*
G36*
G01*
X157281088Y-88333095D02*
X157387154Y-88227029D01*
G75*
G02*
X157493220Y-88227029I53033J-53033D01*
G01*
X158447814Y-89181623D01*
G75*
G02*
X158447814Y-89287689I-53033J-53033D01*
G01*
X158341748Y-89393755D01*
G75*
G02*
X158235682Y-89393755I-53033J53033D01*
G01*
X157281088Y-88439161D01*
G75*
G02*
X157281088Y-88333095I53033J53033D01*
G01*
G37*
G36*
G01*
X157634641Y-87979542D02*
X157740707Y-87873476D01*
G75*
G02*
X157846773Y-87873476I53033J-53033D01*
G01*
X158801367Y-88828070D01*
G75*
G02*
X158801367Y-88934136I-53033J-53033D01*
G01*
X158695301Y-89040202D01*
G75*
G02*
X158589235Y-89040202I-53033J53033D01*
G01*
X157634641Y-88085608D01*
G75*
G02*
X157634641Y-87979542I53033J53033D01*
G01*
G37*
G36*
G01*
X157988195Y-87625989D02*
X158094261Y-87519923D01*
G75*
G02*
X158200327Y-87519923I53033J-53033D01*
G01*
X159154921Y-88474517D01*
G75*
G02*
X159154921Y-88580583I-53033J-53033D01*
G01*
X159048855Y-88686649D01*
G75*
G02*
X158942789Y-88686649I-53033J53033D01*
G01*
X157988195Y-87732055D01*
G75*
G02*
X157988195Y-87625989I53033J53033D01*
G01*
G37*
G36*
G01*
X158341748Y-87272435D02*
X158447814Y-87166369D01*
G75*
G02*
X158553880Y-87166369I53033J-53033D01*
G01*
X159508474Y-88120963D01*
G75*
G02*
X159508474Y-88227029I-53033J-53033D01*
G01*
X159402408Y-88333095D01*
G75*
G02*
X159296342Y-88333095I-53033J53033D01*
G01*
X158341748Y-87378501D01*
G75*
G02*
X158341748Y-87272435I53033J53033D01*
G01*
G37*
G36*
G01*
X158695301Y-86918882D02*
X158801367Y-86812816D01*
G75*
G02*
X158907433Y-86812816I53033J-53033D01*
G01*
X159862027Y-87767410D01*
G75*
G02*
X159862027Y-87873476I-53033J-53033D01*
G01*
X159755961Y-87979542D01*
G75*
G02*
X159649895Y-87979542I-53033J53033D01*
G01*
X158695301Y-87024948D01*
G75*
G02*
X158695301Y-86918882I53033J53033D01*
G01*
G37*
G36*
G01*
X159048855Y-86565328D02*
X159154921Y-86459262D01*
G75*
G02*
X159260987Y-86459262I53033J-53033D01*
G01*
X160215581Y-87413856D01*
G75*
G02*
X160215581Y-87519922I-53033J-53033D01*
G01*
X160109515Y-87625988D01*
G75*
G02*
X160003449Y-87625988I-53033J53033D01*
G01*
X159048855Y-86671394D01*
G75*
G02*
X159048855Y-86565328I53033J53033D01*
G01*
G37*
G36*
G01*
X159402408Y-86211775D02*
X159508474Y-86105709D01*
G75*
G02*
X159614540Y-86105709I53033J-53033D01*
G01*
X160569134Y-87060303D01*
G75*
G02*
X160569134Y-87166369I-53033J-53033D01*
G01*
X160463068Y-87272435D01*
G75*
G02*
X160357002Y-87272435I-53033J53033D01*
G01*
X159402408Y-86317841D01*
G75*
G02*
X159402408Y-86211775I53033J53033D01*
G01*
G37*
G36*
G01*
X159755962Y-85858222D02*
X159862028Y-85752156D01*
G75*
G02*
X159968094Y-85752156I53033J-53033D01*
G01*
X160922688Y-86706750D01*
G75*
G02*
X160922688Y-86812816I-53033J-53033D01*
G01*
X160816622Y-86918882D01*
G75*
G02*
X160710556Y-86918882I-53033J53033D01*
G01*
X159755962Y-85964288D01*
G75*
G02*
X159755962Y-85858222I53033J53033D01*
G01*
G37*
G36*
G01*
X160109515Y-85504668D02*
X160215581Y-85398602D01*
G75*
G02*
X160321647Y-85398602I53033J-53033D01*
G01*
X161276241Y-86353196D01*
G75*
G02*
X161276241Y-86459262I-53033J-53033D01*
G01*
X161170175Y-86565328D01*
G75*
G02*
X161064109Y-86565328I-53033J53033D01*
G01*
X160109515Y-85610734D01*
G75*
G02*
X160109515Y-85504668I53033J53033D01*
G01*
G37*
G36*
G01*
X160463068Y-85151115D02*
X160569134Y-85045049D01*
G75*
G02*
X160675200Y-85045049I53033J-53033D01*
G01*
X161629794Y-85999643D01*
G75*
G02*
X161629794Y-86105709I-53033J-53033D01*
G01*
X161523728Y-86211775D01*
G75*
G02*
X161417662Y-86211775I-53033J53033D01*
G01*
X160463068Y-85257181D01*
G75*
G02*
X160463068Y-85151115I53033J53033D01*
G01*
G37*
G36*
G01*
X160816622Y-84797561D02*
X160922688Y-84691495D01*
G75*
G02*
X161028754Y-84691495I53033J-53033D01*
G01*
X161983348Y-85646089D01*
G75*
G02*
X161983348Y-85752155I-53033J-53033D01*
G01*
X161877282Y-85858221D01*
G75*
G02*
X161771216Y-85858221I-53033J53033D01*
G01*
X160816622Y-84903627D01*
G75*
G02*
X160816622Y-84797561I53033J53033D01*
G01*
G37*
G36*
G01*
X161170175Y-84444008D02*
X161276241Y-84337942D01*
G75*
G02*
X161382307Y-84337942I53033J-53033D01*
G01*
X162336901Y-85292536D01*
G75*
G02*
X162336901Y-85398602I-53033J-53033D01*
G01*
X162230835Y-85504668D01*
G75*
G02*
X162124769Y-85504668I-53033J53033D01*
G01*
X161170175Y-84550074D01*
G75*
G02*
X161170175Y-84444008I53033J53033D01*
G01*
G37*
G36*
G01*
X161523728Y-84090455D02*
X161629794Y-83984389D01*
G75*
G02*
X161735860Y-83984389I53033J-53033D01*
G01*
X162690454Y-84938983D01*
G75*
G02*
X162690454Y-85045049I-53033J-53033D01*
G01*
X162584388Y-85151115D01*
G75*
G02*
X162478322Y-85151115I-53033J53033D01*
G01*
X161523728Y-84196521D01*
G75*
G02*
X161523728Y-84090455I53033J53033D01*
G01*
G37*
G36*
G01*
X161877282Y-83736901D02*
X161983348Y-83630835D01*
G75*
G02*
X162089414Y-83630835I53033J-53033D01*
G01*
X163044008Y-84585429D01*
G75*
G02*
X163044008Y-84691495I-53033J-53033D01*
G01*
X162937942Y-84797561D01*
G75*
G02*
X162831876Y-84797561I-53033J53033D01*
G01*
X161877282Y-83842967D01*
G75*
G02*
X161877282Y-83736901I53033J53033D01*
G01*
G37*
G36*
G01*
X162230835Y-83383348D02*
X162336901Y-83277282D01*
G75*
G02*
X162442967Y-83277282I53033J-53033D01*
G01*
X163397561Y-84231876D01*
G75*
G02*
X163397561Y-84337942I-53033J-53033D01*
G01*
X163291495Y-84444008D01*
G75*
G02*
X163185429Y-84444008I-53033J53033D01*
G01*
X162230835Y-83489414D01*
G75*
G02*
X162230835Y-83383348I53033J53033D01*
G01*
G37*
G36*
G01*
X162584389Y-83029794D02*
X162690455Y-82923728D01*
G75*
G02*
X162796521Y-82923728I53033J-53033D01*
G01*
X163751115Y-83878322D01*
G75*
G02*
X163751115Y-83984388I-53033J-53033D01*
G01*
X163645049Y-84090454D01*
G75*
G02*
X163538983Y-84090454I-53033J53033D01*
G01*
X162584389Y-83135860D01*
G75*
G02*
X162584389Y-83029794I53033J53033D01*
G01*
G37*
G36*
G01*
X162937942Y-82676241D02*
X163044008Y-82570175D01*
G75*
G02*
X163150074Y-82570175I53033J-53033D01*
G01*
X164104668Y-83524769D01*
G75*
G02*
X164104668Y-83630835I-53033J-53033D01*
G01*
X163998602Y-83736901D01*
G75*
G02*
X163892536Y-83736901I-53033J53033D01*
G01*
X162937942Y-82782307D01*
G75*
G02*
X162937942Y-82676241I53033J53033D01*
G01*
G37*
G36*
G01*
X163291495Y-82322688D02*
X163397561Y-82216622D01*
G75*
G02*
X163503627Y-82216622I53033J-53033D01*
G01*
X164458221Y-83171216D01*
G75*
G02*
X164458221Y-83277282I-53033J-53033D01*
G01*
X164352155Y-83383348D01*
G75*
G02*
X164246089Y-83383348I-53033J53033D01*
G01*
X163291495Y-82428754D01*
G75*
G02*
X163291495Y-82322688I53033J53033D01*
G01*
G37*
G36*
G01*
X163645049Y-81969134D02*
X163751115Y-81863068D01*
G75*
G02*
X163857181Y-81863068I53033J-53033D01*
G01*
X164811775Y-82817662D01*
G75*
G02*
X164811775Y-82923728I-53033J-53033D01*
G01*
X164705709Y-83029794D01*
G75*
G02*
X164599643Y-83029794I-53033J53033D01*
G01*
X163645049Y-82075200D01*
G75*
G02*
X163645049Y-81969134I53033J53033D01*
G01*
G37*
G36*
G01*
X163998602Y-81615581D02*
X164104668Y-81509515D01*
G75*
G02*
X164210734Y-81509515I53033J-53033D01*
G01*
X165165328Y-82464109D01*
G75*
G02*
X165165328Y-82570175I-53033J-53033D01*
G01*
X165059262Y-82676241D01*
G75*
G02*
X164953196Y-82676241I-53033J53033D01*
G01*
X163998602Y-81721647D01*
G75*
G02*
X163998602Y-81615581I53033J53033D01*
G01*
G37*
G36*
G01*
X164352156Y-81262028D02*
X164458222Y-81155962D01*
G75*
G02*
X164564288Y-81155962I53033J-53033D01*
G01*
X165518882Y-82110556D01*
G75*
G02*
X165518882Y-82216622I-53033J-53033D01*
G01*
X165412816Y-82322688D01*
G75*
G02*
X165306750Y-82322688I-53033J53033D01*
G01*
X164352156Y-81368094D01*
G75*
G02*
X164352156Y-81262028I53033J53033D01*
G01*
G37*
G36*
G01*
X164705709Y-80908474D02*
X164811775Y-80802408D01*
G75*
G02*
X164917841Y-80802408I53033J-53033D01*
G01*
X165872435Y-81757002D01*
G75*
G02*
X165872435Y-81863068I-53033J-53033D01*
G01*
X165766369Y-81969134D01*
G75*
G02*
X165660303Y-81969134I-53033J53033D01*
G01*
X164705709Y-81014540D01*
G75*
G02*
X164705709Y-80908474I53033J53033D01*
G01*
G37*
G36*
G01*
X165059262Y-80554921D02*
X165165328Y-80448855D01*
G75*
G02*
X165271394Y-80448855I53033J-53033D01*
G01*
X166225988Y-81403449D01*
G75*
G02*
X166225988Y-81509515I-53033J-53033D01*
G01*
X166119922Y-81615581D01*
G75*
G02*
X166013856Y-81615581I-53033J53033D01*
G01*
X165059262Y-80660987D01*
G75*
G02*
X165059262Y-80554921I53033J53033D01*
G01*
G37*
G36*
G01*
X165412816Y-80201367D02*
X165518882Y-80095301D01*
G75*
G02*
X165624948Y-80095301I53033J-53033D01*
G01*
X166579542Y-81049895D01*
G75*
G02*
X166579542Y-81155961I-53033J-53033D01*
G01*
X166473476Y-81262027D01*
G75*
G02*
X166367410Y-81262027I-53033J53033D01*
G01*
X165412816Y-80307433D01*
G75*
G02*
X165412816Y-80201367I53033J53033D01*
G01*
G37*
G36*
G01*
X165766369Y-79847814D02*
X165872435Y-79741748D01*
G75*
G02*
X165978501Y-79741748I53033J-53033D01*
G01*
X166933095Y-80696342D01*
G75*
G02*
X166933095Y-80802408I-53033J-53033D01*
G01*
X166827029Y-80908474D01*
G75*
G02*
X166720963Y-80908474I-53033J53033D01*
G01*
X165766369Y-79953880D01*
G75*
G02*
X165766369Y-79847814I53033J53033D01*
G01*
G37*
G36*
G01*
X166119923Y-79494261D02*
X166225989Y-79388195D01*
G75*
G02*
X166332055Y-79388195I53033J-53033D01*
G01*
X167286649Y-80342789D01*
G75*
G02*
X167286649Y-80448855I-53033J-53033D01*
G01*
X167180583Y-80554921D01*
G75*
G02*
X167074517Y-80554921I-53033J53033D01*
G01*
X166119923Y-79600327D01*
G75*
G02*
X166119923Y-79494261I53033J53033D01*
G01*
G37*
G36*
G01*
X166473476Y-79140707D02*
X166579542Y-79034641D01*
G75*
G02*
X166685608Y-79034641I53033J-53033D01*
G01*
X167640202Y-79989235D01*
G75*
G02*
X167640202Y-80095301I-53033J-53033D01*
G01*
X167534136Y-80201367D01*
G75*
G02*
X167428070Y-80201367I-53033J53033D01*
G01*
X166473476Y-79246773D01*
G75*
G02*
X166473476Y-79140707I53033J53033D01*
G01*
G37*
G36*
G01*
X166827029Y-78787154D02*
X166933095Y-78681088D01*
G75*
G02*
X167039161Y-78681088I53033J-53033D01*
G01*
X167993755Y-79635682D01*
G75*
G02*
X167993755Y-79741748I-53033J-53033D01*
G01*
X167887689Y-79847814D01*
G75*
G02*
X167781623Y-79847814I-53033J53033D01*
G01*
X166827029Y-78893220D01*
G75*
G02*
X166827029Y-78787154I53033J53033D01*
G01*
G37*
G36*
G01*
X167180583Y-78433600D02*
X167286649Y-78327534D01*
G75*
G02*
X167392715Y-78327534I53033J-53033D01*
G01*
X168347309Y-79282128D01*
G75*
G02*
X168347309Y-79388194I-53033J-53033D01*
G01*
X168241243Y-79494260D01*
G75*
G02*
X168135177Y-79494260I-53033J53033D01*
G01*
X167180583Y-78539666D01*
G75*
G02*
X167180583Y-78433600I53033J53033D01*
G01*
G37*
G36*
G01*
X167534136Y-78080047D02*
X167640202Y-77973981D01*
G75*
G02*
X167746268Y-77973981I53033J-53033D01*
G01*
X168700862Y-78928575D01*
G75*
G02*
X168700862Y-79034641I-53033J-53033D01*
G01*
X168594796Y-79140707D01*
G75*
G02*
X168488730Y-79140707I-53033J53033D01*
G01*
X167534136Y-78186113D01*
G75*
G02*
X167534136Y-78080047I53033J53033D01*
G01*
G37*
G36*
G01*
X167887689Y-77726494D02*
X167993755Y-77620428D01*
G75*
G02*
X168099821Y-77620428I53033J-53033D01*
G01*
X169054415Y-78575022D01*
G75*
G02*
X169054415Y-78681088I-53033J-53033D01*
G01*
X168948349Y-78787154D01*
G75*
G02*
X168842283Y-78787154I-53033J53033D01*
G01*
X167887689Y-77832560D01*
G75*
G02*
X167887689Y-77726494I53033J53033D01*
G01*
G37*
G36*
G01*
X168241243Y-77372940D02*
X168347309Y-77266874D01*
G75*
G02*
X168453375Y-77266874I53033J-53033D01*
G01*
X169407969Y-78221468D01*
G75*
G02*
X169407969Y-78327534I-53033J-53033D01*
G01*
X169301903Y-78433600D01*
G75*
G02*
X169195837Y-78433600I-53033J53033D01*
G01*
X168241243Y-77479006D01*
G75*
G02*
X168241243Y-77372940I53033J53033D01*
G01*
G37*
G36*
G01*
X168594796Y-77019387D02*
X168700862Y-76913321D01*
G75*
G02*
X168806928Y-76913321I53033J-53033D01*
G01*
X169761522Y-77867915D01*
G75*
G02*
X169761522Y-77973981I-53033J-53033D01*
G01*
X169655456Y-78080047D01*
G75*
G02*
X169549390Y-78080047I-53033J53033D01*
G01*
X168594796Y-77125453D01*
G75*
G02*
X168594796Y-77019387I53033J53033D01*
G01*
G37*
G36*
G01*
X168948350Y-76665833D02*
X169054416Y-76559767D01*
G75*
G02*
X169160482Y-76559767I53033J-53033D01*
G01*
X170115076Y-77514361D01*
G75*
G02*
X170115076Y-77620427I-53033J-53033D01*
G01*
X170009010Y-77726493D01*
G75*
G02*
X169902944Y-77726493I-53033J53033D01*
G01*
X168948350Y-76771899D01*
G75*
G02*
X168948350Y-76665833I53033J53033D01*
G01*
G37*
G36*
G01*
X169301903Y-76312280D02*
X169407969Y-76206214D01*
G75*
G02*
X169514035Y-76206214I53033J-53033D01*
G01*
X170468629Y-77160808D01*
G75*
G02*
X170468629Y-77266874I-53033J-53033D01*
G01*
X170362563Y-77372940D01*
G75*
G02*
X170256497Y-77372940I-53033J53033D01*
G01*
X169301903Y-76418346D01*
G75*
G02*
X169301903Y-76312280I53033J53033D01*
G01*
G37*
G36*
G01*
X169655456Y-75958727D02*
X169761522Y-75852661D01*
G75*
G02*
X169867588Y-75852661I53033J-53033D01*
G01*
X170822182Y-76807255D01*
G75*
G02*
X170822182Y-76913321I-53033J-53033D01*
G01*
X170716116Y-77019387D01*
G75*
G02*
X170610050Y-77019387I-53033J53033D01*
G01*
X169655456Y-76064793D01*
G75*
G02*
X169655456Y-75958727I53033J53033D01*
G01*
G37*
%TD*%
%TO.C,R16*%
G36*
G01*
X147975000Y-100125000D02*
X147975000Y-100675000D01*
G75*
G02*
X147775000Y-100875000I-200000J0D01*
G01*
X147375000Y-100875000D01*
G75*
G02*
X147175000Y-100675000I0J200000D01*
G01*
X147175000Y-100125000D01*
G75*
G02*
X147375000Y-99925000I200000J0D01*
G01*
X147775000Y-99925000D01*
G75*
G02*
X147975000Y-100125000I0J-200000D01*
G01*
G37*
G36*
G01*
X149625000Y-100125000D02*
X149625000Y-100675000D01*
G75*
G02*
X149425000Y-100875000I-200000J0D01*
G01*
X149025000Y-100875000D01*
G75*
G02*
X148825000Y-100675000I0J200000D01*
G01*
X148825000Y-100125000D01*
G75*
G02*
X149025000Y-99925000I200000J0D01*
G01*
X149425000Y-99925000D01*
G75*
G02*
X149625000Y-100125000I0J-200000D01*
G01*
G37*
%TD*%
%TO.C,C65*%
G36*
G01*
X179117453Y-106052111D02*
X178877037Y-105811695D01*
G75*
G02*
X178877037Y-105613705I98995J98995D01*
G01*
X179075027Y-105415715D01*
G75*
G02*
X179273017Y-105415715I98995J-98995D01*
G01*
X179513433Y-105656131D01*
G75*
G02*
X179513433Y-105854121I-98995J-98995D01*
G01*
X179315443Y-106052111D01*
G75*
G02*
X179117453Y-106052111I-98995J98995D01*
G01*
G37*
G36*
G01*
X178438631Y-106730933D02*
X178198215Y-106490517D01*
G75*
G02*
X178198215Y-106292527I98995J98995D01*
G01*
X178396205Y-106094537D01*
G75*
G02*
X178594195Y-106094537I98995J-98995D01*
G01*
X178834611Y-106334953D01*
G75*
G02*
X178834611Y-106532943I-98995J-98995D01*
G01*
X178636621Y-106730933D01*
G75*
G02*
X178438631Y-106730933I-98995J98995D01*
G01*
G37*
%TD*%
%TO.C,C63*%
G36*
G01*
X176124991Y-109909649D02*
X175884575Y-109669233D01*
G75*
G02*
X175884575Y-109471243I98995J98995D01*
G01*
X176082565Y-109273253D01*
G75*
G02*
X176280555Y-109273253I98995J-98995D01*
G01*
X176520971Y-109513669D01*
G75*
G02*
X176520971Y-109711659I-98995J-98995D01*
G01*
X176322981Y-109909649D01*
G75*
G02*
X176124991Y-109909649I-98995J98995D01*
G01*
G37*
G36*
G01*
X175446169Y-110588471D02*
X175205753Y-110348055D01*
G75*
G02*
X175205753Y-110150065I98995J98995D01*
G01*
X175403743Y-109952075D01*
G75*
G02*
X175601733Y-109952075I98995J-98995D01*
G01*
X175842149Y-110192491D01*
G75*
G02*
X175842149Y-110390481I-98995J-98995D01*
G01*
X175644159Y-110588471D01*
G75*
G02*
X175446169Y-110588471I-98995J98995D01*
G01*
G37*
%TD*%
%TO.C,C62*%
G36*
G01*
X183200211Y-102278492D02*
X182959795Y-102038076D01*
G75*
G02*
X182959795Y-101840086I98995J98995D01*
G01*
X183157785Y-101642096D01*
G75*
G02*
X183355775Y-101642096I98995J-98995D01*
G01*
X183596191Y-101882512D01*
G75*
G02*
X183596191Y-102080502I-98995J-98995D01*
G01*
X183398201Y-102278492D01*
G75*
G02*
X183200211Y-102278492I-98995J98995D01*
G01*
G37*
G36*
G01*
X182521389Y-102957314D02*
X182280973Y-102716898D01*
G75*
G02*
X182280973Y-102518908I98995J98995D01*
G01*
X182478963Y-102320918D01*
G75*
G02*
X182676953Y-102320918I98995J-98995D01*
G01*
X182917369Y-102561334D01*
G75*
G02*
X182917369Y-102759324I-98995J-98995D01*
G01*
X182719379Y-102957314D01*
G75*
G02*
X182521389Y-102957314I-98995J98995D01*
G01*
G37*
%TD*%
%TO.C,C60*%
G36*
G01*
X166811629Y-108878787D02*
X166571213Y-108638371D01*
G75*
G02*
X166571213Y-108440381I98995J98995D01*
G01*
X166769203Y-108242391D01*
G75*
G02*
X166967193Y-108242391I98995J-98995D01*
G01*
X167207609Y-108482807D01*
G75*
G02*
X167207609Y-108680797I-98995J-98995D01*
G01*
X167009619Y-108878787D01*
G75*
G02*
X166811629Y-108878787I-98995J98995D01*
G01*
G37*
G36*
G01*
X166132807Y-109557609D02*
X165892391Y-109317193D01*
G75*
G02*
X165892391Y-109119203I98995J98995D01*
G01*
X166090381Y-108921213D01*
G75*
G02*
X166288371Y-108921213I98995J-98995D01*
G01*
X166528787Y-109161629D01*
G75*
G02*
X166528787Y-109359619I-98995J-98995D01*
G01*
X166330797Y-109557609D01*
G75*
G02*
X166132807Y-109557609I-98995J98995D01*
G01*
G37*
%TD*%
%TO.C,C59*%
G36*
G01*
X188138734Y-97362534D02*
X187898318Y-97122118D01*
G75*
G02*
X187898318Y-96924128I98995J98995D01*
G01*
X188096308Y-96726138D01*
G75*
G02*
X188294298Y-96726138I98995J-98995D01*
G01*
X188534714Y-96966554D01*
G75*
G02*
X188534714Y-97164544I-98995J-98995D01*
G01*
X188336724Y-97362534D01*
G75*
G02*
X188138734Y-97362534I-98995J98995D01*
G01*
G37*
G36*
G01*
X187459912Y-98041356D02*
X187219496Y-97800940D01*
G75*
G02*
X187219496Y-97602950I98995J98995D01*
G01*
X187417486Y-97404960D01*
G75*
G02*
X187615476Y-97404960I98995J-98995D01*
G01*
X187855892Y-97645376D01*
G75*
G02*
X187855892Y-97843366I-98995J-98995D01*
G01*
X187657902Y-98041356D01*
G75*
G02*
X187459912Y-98041356I-98995J98995D01*
G01*
G37*
%TD*%
%TO.C,C58*%
G36*
G01*
X181496967Y-79993413D02*
X181143413Y-80346967D01*
G75*
G02*
X180825215Y-80346967I-159099J159099D01*
G01*
X180507017Y-80028769D01*
G75*
G02*
X180507017Y-79710571I159099J159099D01*
G01*
X180860571Y-79357017D01*
G75*
G02*
X181178769Y-79357017I159099J-159099D01*
G01*
X181496967Y-79675215D01*
G75*
G02*
X181496967Y-79993413I-159099J-159099D01*
G01*
G37*
G36*
G01*
X182592983Y-81089429D02*
X182239429Y-81442983D01*
G75*
G02*
X181921231Y-81442983I-159099J159099D01*
G01*
X181603033Y-81124785D01*
G75*
G02*
X181603033Y-80806587I159099J159099D01*
G01*
X181956587Y-80453033D01*
G75*
G02*
X182274785Y-80453033I159099J-159099D01*
G01*
X182592983Y-80771231D01*
G75*
G02*
X182592983Y-81089429I-159099J-159099D01*
G01*
G37*
%TD*%
%TO.C,C21*%
G36*
G01*
X165000000Y-75830000D02*
X165000000Y-76170000D01*
G75*
G02*
X164860000Y-76310000I-140000J0D01*
G01*
X164580000Y-76310000D01*
G75*
G02*
X164440000Y-76170000I0J140000D01*
G01*
X164440000Y-75830000D01*
G75*
G02*
X164580000Y-75690000I140000J0D01*
G01*
X164860000Y-75690000D01*
G75*
G02*
X165000000Y-75830000I0J-140000D01*
G01*
G37*
G36*
G01*
X165960000Y-75830000D02*
X165960000Y-76170000D01*
G75*
G02*
X165820000Y-76310000I-140000J0D01*
G01*
X165540000Y-76310000D01*
G75*
G02*
X165400000Y-76170000I0J140000D01*
G01*
X165400000Y-75830000D01*
G75*
G02*
X165540000Y-75690000I140000J0D01*
G01*
X165820000Y-75690000D01*
G75*
G02*
X165960000Y-75830000I0J-140000D01*
G01*
G37*
%TD*%
%TO.C,C15*%
G36*
G01*
X164406587Y-107446967D02*
X164053033Y-107093413D01*
G75*
G02*
X164053033Y-106775215I159099J159099D01*
G01*
X164371231Y-106457017D01*
G75*
G02*
X164689429Y-106457017I159099J-159099D01*
G01*
X165042983Y-106810571D01*
G75*
G02*
X165042983Y-107128769I-159099J-159099D01*
G01*
X164724785Y-107446967D01*
G75*
G02*
X164406587Y-107446967I-159099J159099D01*
G01*
G37*
G36*
G01*
X163310571Y-108542983D02*
X162957017Y-108189429D01*
G75*
G02*
X162957017Y-107871231I159099J159099D01*
G01*
X163275215Y-107553033D01*
G75*
G02*
X163593413Y-107553033I159099J-159099D01*
G01*
X163946967Y-107906587D01*
G75*
G02*
X163946967Y-108224785I-159099J-159099D01*
G01*
X163628769Y-108542983D01*
G75*
G02*
X163310571Y-108542983I-159099J159099D01*
G01*
G37*
%TD*%
D14*
%TO.C,H2*%
X36375000Y-76625000D03*
D15*
X38025000Y-76625000D03*
X37541726Y-77791726D03*
X36375000Y-78275000D03*
X35208274Y-77791726D03*
X34725000Y-76625000D03*
X35208274Y-75458274D03*
X36375000Y-74975000D03*
X37541726Y-75458274D03*
%TD*%
D11*
%TO.C,SW1*%
X207225000Y-101625000D03*
D12*
X204725000Y-101625000D03*
X202225000Y-101625000D03*
D16*
X210325000Y-94125000D03*
X199125000Y-94125000D03*
D12*
X207225000Y-87125000D03*
X202225000Y-87125000D03*
%TD*%
%TO.C,SW7*%
X51500000Y-85000000D03*
X51500000Y-80500000D03*
X45000000Y-85000000D03*
X45000000Y-80500000D03*
%TD*%
%TO.C,C1*%
G36*
G01*
X141900000Y-85875000D02*
X141900000Y-84925000D01*
G75*
G02*
X142150000Y-84675000I250000J0D01*
G01*
X142650000Y-84675000D01*
G75*
G02*
X142900000Y-84925000I0J-250000D01*
G01*
X142900000Y-85875000D01*
G75*
G02*
X142650000Y-86125000I-250000J0D01*
G01*
X142150000Y-86125000D01*
G75*
G02*
X141900000Y-85875000I0J250000D01*
G01*
G37*
G36*
G01*
X140000000Y-85875000D02*
X140000000Y-84925000D01*
G75*
G02*
X140250000Y-84675000I250000J0D01*
G01*
X140750000Y-84675000D01*
G75*
G02*
X141000000Y-84925000I0J-250000D01*
G01*
X141000000Y-85875000D01*
G75*
G02*
X140750000Y-86125000I-250000J0D01*
G01*
X140250000Y-86125000D01*
G75*
G02*
X140000000Y-85875000I0J250000D01*
G01*
G37*
%TD*%
%TO.C,R15*%
G36*
G01*
X192025000Y-102000000D02*
X191475000Y-102000000D01*
G75*
G02*
X191275000Y-101800000I0J200000D01*
G01*
X191275000Y-101400000D01*
G75*
G02*
X191475000Y-101200000I200000J0D01*
G01*
X192025000Y-101200000D01*
G75*
G02*
X192225000Y-101400000I0J-200000D01*
G01*
X192225000Y-101800000D01*
G75*
G02*
X192025000Y-102000000I-200000J0D01*
G01*
G37*
G36*
G01*
X192025000Y-103650000D02*
X191475000Y-103650000D01*
G75*
G02*
X191275000Y-103450000I0J200000D01*
G01*
X191275000Y-103050000D01*
G75*
G02*
X191475000Y-102850000I200000J0D01*
G01*
X192025000Y-102850000D01*
G75*
G02*
X192225000Y-103050000I0J-200000D01*
G01*
X192225000Y-103450000D01*
G75*
G02*
X192025000Y-103650000I-200000J0D01*
G01*
G37*
%TD*%
%TO.C,R4*%
G36*
G01*
X192525000Y-90050000D02*
X193075000Y-90050000D01*
G75*
G02*
X193275000Y-90250000I0J-200000D01*
G01*
X193275000Y-90650000D01*
G75*
G02*
X193075000Y-90850000I-200000J0D01*
G01*
X192525000Y-90850000D01*
G75*
G02*
X192325000Y-90650000I0J200000D01*
G01*
X192325000Y-90250000D01*
G75*
G02*
X192525000Y-90050000I200000J0D01*
G01*
G37*
G36*
G01*
X192525000Y-88400000D02*
X193075000Y-88400000D01*
G75*
G02*
X193275000Y-88600000I0J-200000D01*
G01*
X193275000Y-89000000D01*
G75*
G02*
X193075000Y-89200000I-200000J0D01*
G01*
X192525000Y-89200000D01*
G75*
G02*
X192325000Y-89000000I0J200000D01*
G01*
X192325000Y-88600000D01*
G75*
G02*
X192525000Y-88400000I200000J0D01*
G01*
G37*
%TD*%
%TO.C,R3*%
G36*
G01*
X147975000Y-86025000D02*
X147975000Y-86575000D01*
G75*
G02*
X147775000Y-86775000I-200000J0D01*
G01*
X147375000Y-86775000D01*
G75*
G02*
X147175000Y-86575000I0J200000D01*
G01*
X147175000Y-86025000D01*
G75*
G02*
X147375000Y-85825000I200000J0D01*
G01*
X147775000Y-85825000D01*
G75*
G02*
X147975000Y-86025000I0J-200000D01*
G01*
G37*
G36*
G01*
X149625000Y-86025000D02*
X149625000Y-86575000D01*
G75*
G02*
X149425000Y-86775000I-200000J0D01*
G01*
X149025000Y-86775000D01*
G75*
G02*
X148825000Y-86575000I0J200000D01*
G01*
X148825000Y-86025000D01*
G75*
G02*
X149025000Y-85825000I200000J0D01*
G01*
X149425000Y-85825000D01*
G75*
G02*
X149625000Y-86025000I0J-200000D01*
G01*
G37*
%TD*%
D17*
%TO.C,U7*%
X110650000Y-85100000D03*
D18*
X108252100Y-86850441D03*
X108252100Y-86350315D03*
X108252100Y-85850189D03*
X108252100Y-85350063D03*
X108252100Y-84849937D03*
X108252100Y-84349811D03*
X108252100Y-83849685D03*
X108252100Y-83349559D03*
D19*
X108899559Y-82702100D03*
X109399685Y-82702100D03*
X109899811Y-82702100D03*
X110399937Y-82702100D03*
X110900063Y-82702100D03*
X111400189Y-82702100D03*
X111900315Y-82702100D03*
X112400441Y-82702100D03*
D18*
X113047900Y-83349559D03*
X113047900Y-83849685D03*
X113047900Y-84349811D03*
X113047900Y-84849937D03*
X113047900Y-85350063D03*
X113047900Y-85850189D03*
X113047900Y-86350315D03*
X113047900Y-86850441D03*
D19*
X112400441Y-87497900D03*
X111900315Y-87497900D03*
X111400189Y-87497900D03*
X110900063Y-87497900D03*
X110399937Y-87497900D03*
X109899811Y-87497900D03*
X109399685Y-87497900D03*
X108899559Y-87497900D03*
%TD*%
%TO.C,R33*%
G36*
G01*
X124498000Y-80617000D02*
X124498000Y-80987000D01*
G75*
G02*
X124363000Y-81122000I-135000J0D01*
G01*
X124093000Y-81122000D01*
G75*
G02*
X123958000Y-80987000I0J135000D01*
G01*
X123958000Y-80617000D01*
G75*
G02*
X124093000Y-80482000I135000J0D01*
G01*
X124363000Y-80482000D01*
G75*
G02*
X124498000Y-80617000I0J-135000D01*
G01*
G37*
G36*
G01*
X125518000Y-80617000D02*
X125518000Y-80987000D01*
G75*
G02*
X125383000Y-81122000I-135000J0D01*
G01*
X125113000Y-81122000D01*
G75*
G02*
X124978000Y-80987000I0J135000D01*
G01*
X124978000Y-80617000D01*
G75*
G02*
X125113000Y-80482000I135000J0D01*
G01*
X125383000Y-80482000D01*
G75*
G02*
X125518000Y-80617000I0J-135000D01*
G01*
G37*
%TD*%
D20*
%TO.C,J5*%
X99357500Y-84970000D03*
X99357500Y-78870000D03*
D21*
X101757500Y-85970000D03*
X101757500Y-78914000D03*
X96960500Y-80847000D03*
%TD*%
%TO.C,R32*%
G36*
G01*
X71431998Y-90570000D02*
X72332002Y-90570000D01*
G75*
G02*
X72582000Y-90819998I0J-249998D01*
G01*
X72582000Y-91345002D01*
G75*
G02*
X72332002Y-91595000I-249998J0D01*
G01*
X71431998Y-91595000D01*
G75*
G02*
X71182000Y-91345002I0J249998D01*
G01*
X71182000Y-90819998D01*
G75*
G02*
X71431998Y-90570000I249998J0D01*
G01*
G37*
G36*
G01*
X71431998Y-88745000D02*
X72332002Y-88745000D01*
G75*
G02*
X72582000Y-88994998I0J-249998D01*
G01*
X72582000Y-89520002D01*
G75*
G02*
X72332002Y-89770000I-249998J0D01*
G01*
X71431998Y-89770000D01*
G75*
G02*
X71182000Y-89520002I0J249998D01*
G01*
X71182000Y-88994998D01*
G75*
G02*
X71431998Y-88745000I249998J0D01*
G01*
G37*
%TD*%
%TO.C,R31*%
G36*
G01*
X73448500Y-84016002D02*
X73448500Y-83115998D01*
G75*
G02*
X73698498Y-82866000I249998J0D01*
G01*
X74223502Y-82866000D01*
G75*
G02*
X74473500Y-83115998I0J-249998D01*
G01*
X74473500Y-84016002D01*
G75*
G02*
X74223502Y-84266000I-249998J0D01*
G01*
X73698498Y-84266000D01*
G75*
G02*
X73448500Y-84016002I0J249998D01*
G01*
G37*
G36*
G01*
X71623500Y-84016002D02*
X71623500Y-83115998D01*
G75*
G02*
X71873498Y-82866000I249998J0D01*
G01*
X72398502Y-82866000D01*
G75*
G02*
X72648500Y-83115998I0J-249998D01*
G01*
X72648500Y-84016002D01*
G75*
G02*
X72398502Y-84266000I-249998J0D01*
G01*
X71873498Y-84266000D01*
G75*
G02*
X71623500Y-84016002I0J249998D01*
G01*
G37*
%TD*%
%TO.C,R13*%
G36*
G01*
X71012000Y-81476002D02*
X71012000Y-80575998D01*
G75*
G02*
X71261998Y-80326000I249998J0D01*
G01*
X71787002Y-80326000D01*
G75*
G02*
X72037000Y-80575998I0J-249998D01*
G01*
X72037000Y-81476002D01*
G75*
G02*
X71787002Y-81726000I-249998J0D01*
G01*
X71261998Y-81726000D01*
G75*
G02*
X71012000Y-81476002I0J249998D01*
G01*
G37*
G36*
G01*
X69187000Y-81476002D02*
X69187000Y-80575998D01*
G75*
G02*
X69436998Y-80326000I249998J0D01*
G01*
X69962002Y-80326000D01*
G75*
G02*
X70212000Y-80575998I0J-249998D01*
G01*
X70212000Y-81476002D01*
G75*
G02*
X69962002Y-81726000I-249998J0D01*
G01*
X69436998Y-81726000D01*
G75*
G02*
X69187000Y-81476002I0J249998D01*
G01*
G37*
%TD*%
%TO.C,R12*%
G36*
G01*
X69299500Y-86925998D02*
X69299500Y-87826002D01*
G75*
G02*
X69049502Y-88076000I-249998J0D01*
G01*
X68524498Y-88076000D01*
G75*
G02*
X68274500Y-87826002I0J249998D01*
G01*
X68274500Y-86925998D01*
G75*
G02*
X68524498Y-86676000I249998J0D01*
G01*
X69049502Y-86676000D01*
G75*
G02*
X69299500Y-86925998I0J-249998D01*
G01*
G37*
G36*
G01*
X71124500Y-86925998D02*
X71124500Y-87826002D01*
G75*
G02*
X70874502Y-88076000I-249998J0D01*
G01*
X70349498Y-88076000D01*
G75*
G02*
X70099500Y-87826002I0J249998D01*
G01*
X70099500Y-86925998D01*
G75*
G02*
X70349498Y-86676000I249998J0D01*
G01*
X70874502Y-86676000D01*
G75*
G02*
X71124500Y-86925998I0J-249998D01*
G01*
G37*
%TD*%
%TO.C,C57*%
G36*
G01*
X73236000Y-89770000D02*
X73576000Y-89770000D01*
G75*
G02*
X73716000Y-89910000I0J-140000D01*
G01*
X73716000Y-90190000D01*
G75*
G02*
X73576000Y-90330000I-140000J0D01*
G01*
X73236000Y-90330000D01*
G75*
G02*
X73096000Y-90190000I0J140000D01*
G01*
X73096000Y-89910000D01*
G75*
G02*
X73236000Y-89770000I140000J0D01*
G01*
G37*
G36*
G01*
X73236000Y-88810000D02*
X73576000Y-88810000D01*
G75*
G02*
X73716000Y-88950000I0J-140000D01*
G01*
X73716000Y-89230000D01*
G75*
G02*
X73576000Y-89370000I-140000J0D01*
G01*
X73236000Y-89370000D01*
G75*
G02*
X73096000Y-89230000I0J140000D01*
G01*
X73096000Y-88950000D01*
G75*
G02*
X73236000Y-88810000I140000J0D01*
G01*
G37*
%TD*%
%TO.C,C56*%
G36*
G01*
X67872000Y-82634000D02*
X67872000Y-82974000D01*
G75*
G02*
X67732000Y-83114000I-140000J0D01*
G01*
X67452000Y-83114000D01*
G75*
G02*
X67312000Y-82974000I0J140000D01*
G01*
X67312000Y-82634000D01*
G75*
G02*
X67452000Y-82494000I140000J0D01*
G01*
X67732000Y-82494000D01*
G75*
G02*
X67872000Y-82634000I0J-140000D01*
G01*
G37*
G36*
G01*
X68832000Y-82634000D02*
X68832000Y-82974000D01*
G75*
G02*
X68692000Y-83114000I-140000J0D01*
G01*
X68412000Y-83114000D01*
G75*
G02*
X68272000Y-82974000I0J140000D01*
G01*
X68272000Y-82634000D01*
G75*
G02*
X68412000Y-82494000I140000J0D01*
G01*
X68692000Y-82494000D01*
G75*
G02*
X68832000Y-82634000I0J-140000D01*
G01*
G37*
%TD*%
%TO.C,C32*%
G36*
G01*
X68272000Y-83990000D02*
X68272000Y-83650000D01*
G75*
G02*
X68412000Y-83510000I140000J0D01*
G01*
X68692000Y-83510000D01*
G75*
G02*
X68832000Y-83650000I0J-140000D01*
G01*
X68832000Y-83990000D01*
G75*
G02*
X68692000Y-84130000I-140000J0D01*
G01*
X68412000Y-84130000D01*
G75*
G02*
X68272000Y-83990000I0J140000D01*
G01*
G37*
G36*
G01*
X67312000Y-83990000D02*
X67312000Y-83650000D01*
G75*
G02*
X67452000Y-83510000I140000J0D01*
G01*
X67732000Y-83510000D01*
G75*
G02*
X67872000Y-83650000I0J-140000D01*
G01*
X67872000Y-83990000D01*
G75*
G02*
X67732000Y-84130000I-140000J0D01*
G01*
X67452000Y-84130000D01*
G75*
G02*
X67312000Y-83990000I0J140000D01*
G01*
G37*
%TD*%
%TO.C,C19*%
G36*
G01*
X74758000Y-88984000D02*
X74758000Y-89324000D01*
G75*
G02*
X74618000Y-89464000I-140000J0D01*
G01*
X74338000Y-89464000D01*
G75*
G02*
X74198000Y-89324000I0J140000D01*
G01*
X74198000Y-88984000D01*
G75*
G02*
X74338000Y-88844000I140000J0D01*
G01*
X74618000Y-88844000D01*
G75*
G02*
X74758000Y-88984000I0J-140000D01*
G01*
G37*
G36*
G01*
X75718000Y-88984000D02*
X75718000Y-89324000D01*
G75*
G02*
X75578000Y-89464000I-140000J0D01*
G01*
X75298000Y-89464000D01*
G75*
G02*
X75158000Y-89324000I0J140000D01*
G01*
X75158000Y-88984000D01*
G75*
G02*
X75298000Y-88844000I140000J0D01*
G01*
X75578000Y-88844000D01*
G75*
G02*
X75718000Y-88984000I0J-140000D01*
G01*
G37*
%TD*%
D22*
%TO.C,SW9*%
X134210000Y-75630000D03*
X137110000Y-75630000D03*
%TD*%
%TO.C,FB7*%
G36*
G01*
X103782500Y-89268750D02*
X103782500Y-90031250D01*
G75*
G02*
X103563750Y-90250000I-218750J0D01*
G01*
X103126250Y-90250000D01*
G75*
G02*
X102907500Y-90031250I0J218750D01*
G01*
X102907500Y-89268750D01*
G75*
G02*
X103126250Y-89050000I218750J0D01*
G01*
X103563750Y-89050000D01*
G75*
G02*
X103782500Y-89268750I0J-218750D01*
G01*
G37*
G36*
G01*
X105907500Y-89268750D02*
X105907500Y-90031250D01*
G75*
G02*
X105688750Y-90250000I-218750J0D01*
G01*
X105251250Y-90250000D01*
G75*
G02*
X105032500Y-90031250I0J218750D01*
G01*
X105032500Y-89268750D01*
G75*
G02*
X105251250Y-89050000I218750J0D01*
G01*
X105688750Y-89050000D01*
G75*
G02*
X105907500Y-89268750I0J-218750D01*
G01*
G37*
%TD*%
%TO.C,C55*%
G36*
G01*
X104998000Y-91876000D02*
X104998000Y-92216000D01*
G75*
G02*
X104858000Y-92356000I-140000J0D01*
G01*
X104578000Y-92356000D01*
G75*
G02*
X104438000Y-92216000I0J140000D01*
G01*
X104438000Y-91876000D01*
G75*
G02*
X104578000Y-91736000I140000J0D01*
G01*
X104858000Y-91736000D01*
G75*
G02*
X104998000Y-91876000I0J-140000D01*
G01*
G37*
G36*
G01*
X105958000Y-91876000D02*
X105958000Y-92216000D01*
G75*
G02*
X105818000Y-92356000I-140000J0D01*
G01*
X105538000Y-92356000D01*
G75*
G02*
X105398000Y-92216000I0J140000D01*
G01*
X105398000Y-91876000D01*
G75*
G02*
X105538000Y-91736000I140000J0D01*
G01*
X105818000Y-91736000D01*
G75*
G02*
X105958000Y-91876000I0J-140000D01*
G01*
G37*
%TD*%
%TO.C,C54*%
G36*
G01*
X104998000Y-90860000D02*
X104998000Y-91200000D01*
G75*
G02*
X104858000Y-91340000I-140000J0D01*
G01*
X104578000Y-91340000D01*
G75*
G02*
X104438000Y-91200000I0J140000D01*
G01*
X104438000Y-90860000D01*
G75*
G02*
X104578000Y-90720000I140000J0D01*
G01*
X104858000Y-90720000D01*
G75*
G02*
X104998000Y-90860000I0J-140000D01*
G01*
G37*
G36*
G01*
X105958000Y-90860000D02*
X105958000Y-91200000D01*
G75*
G02*
X105818000Y-91340000I-140000J0D01*
G01*
X105538000Y-91340000D01*
G75*
G02*
X105398000Y-91200000I0J140000D01*
G01*
X105398000Y-90860000D01*
G75*
G02*
X105538000Y-90720000I140000J0D01*
G01*
X105818000Y-90720000D01*
G75*
G02*
X105958000Y-90860000I0J-140000D01*
G01*
G37*
%TD*%
%TO.C,R30*%
G36*
G01*
X201721000Y-104185000D02*
X201351000Y-104185000D01*
G75*
G02*
X201216000Y-104050000I0J135000D01*
G01*
X201216000Y-103780000D01*
G75*
G02*
X201351000Y-103645000I135000J0D01*
G01*
X201721000Y-103645000D01*
G75*
G02*
X201856000Y-103780000I0J-135000D01*
G01*
X201856000Y-104050000D01*
G75*
G02*
X201721000Y-104185000I-135000J0D01*
G01*
G37*
G36*
G01*
X201721000Y-105205000D02*
X201351000Y-105205000D01*
G75*
G02*
X201216000Y-105070000I0J135000D01*
G01*
X201216000Y-104800000D01*
G75*
G02*
X201351000Y-104665000I135000J0D01*
G01*
X201721000Y-104665000D01*
G75*
G02*
X201856000Y-104800000I0J-135000D01*
G01*
X201856000Y-105070000D01*
G75*
G02*
X201721000Y-105205000I-135000J0D01*
G01*
G37*
%TD*%
%TO.C,R29*%
G36*
G01*
X206885000Y-104160000D02*
X206515000Y-104160000D01*
G75*
G02*
X206380000Y-104025000I0J135000D01*
G01*
X206380000Y-103755000D01*
G75*
G02*
X206515000Y-103620000I135000J0D01*
G01*
X206885000Y-103620000D01*
G75*
G02*
X207020000Y-103755000I0J-135000D01*
G01*
X207020000Y-104025000D01*
G75*
G02*
X206885000Y-104160000I-135000J0D01*
G01*
G37*
G36*
G01*
X206885000Y-105180000D02*
X206515000Y-105180000D01*
G75*
G02*
X206380000Y-105045000I0J135000D01*
G01*
X206380000Y-104775000D01*
G75*
G02*
X206515000Y-104640000I135000J0D01*
G01*
X206885000Y-104640000D01*
G75*
G02*
X207020000Y-104775000I0J-135000D01*
G01*
X207020000Y-105045000D01*
G75*
G02*
X206885000Y-105180000I-135000J0D01*
G01*
G37*
%TD*%
%TO.C,C52*%
G36*
G01*
X202722000Y-104214000D02*
X202382000Y-104214000D01*
G75*
G02*
X202242000Y-104074000I0J140000D01*
G01*
X202242000Y-103794000D01*
G75*
G02*
X202382000Y-103654000I140000J0D01*
G01*
X202722000Y-103654000D01*
G75*
G02*
X202862000Y-103794000I0J-140000D01*
G01*
X202862000Y-104074000D01*
G75*
G02*
X202722000Y-104214000I-140000J0D01*
G01*
G37*
G36*
G01*
X202722000Y-105174000D02*
X202382000Y-105174000D01*
G75*
G02*
X202242000Y-105034000I0J140000D01*
G01*
X202242000Y-104754000D01*
G75*
G02*
X202382000Y-104614000I140000J0D01*
G01*
X202722000Y-104614000D01*
G75*
G02*
X202862000Y-104754000I0J-140000D01*
G01*
X202862000Y-105034000D01*
G75*
G02*
X202722000Y-105174000I-140000J0D01*
G01*
G37*
%TD*%
%TO.C,C51*%
G36*
G01*
X207897000Y-104178000D02*
X207557000Y-104178000D01*
G75*
G02*
X207417000Y-104038000I0J140000D01*
G01*
X207417000Y-103758000D01*
G75*
G02*
X207557000Y-103618000I140000J0D01*
G01*
X207897000Y-103618000D01*
G75*
G02*
X208037000Y-103758000I0J-140000D01*
G01*
X208037000Y-104038000D01*
G75*
G02*
X207897000Y-104178000I-140000J0D01*
G01*
G37*
G36*
G01*
X207897000Y-105138000D02*
X207557000Y-105138000D01*
G75*
G02*
X207417000Y-104998000I0J140000D01*
G01*
X207417000Y-104718000D01*
G75*
G02*
X207557000Y-104578000I140000J0D01*
G01*
X207897000Y-104578000D01*
G75*
G02*
X208037000Y-104718000I0J-140000D01*
G01*
X208037000Y-104998000D01*
G75*
G02*
X207897000Y-105138000I-140000J0D01*
G01*
G37*
%TD*%
D23*
%TO.C,U11*%
X196004000Y-87884000D03*
X196004000Y-88834000D03*
X196004000Y-86934000D03*
X198204000Y-86934000D03*
X198204000Y-87884000D03*
X198204000Y-88834000D03*
%TD*%
%TO.C,R27*%
G36*
G01*
X200540000Y-89960000D02*
X200540000Y-89590000D01*
G75*
G02*
X200675000Y-89455000I135000J0D01*
G01*
X200945000Y-89455000D01*
G75*
G02*
X201080000Y-89590000I0J-135000D01*
G01*
X201080000Y-89960000D01*
G75*
G02*
X200945000Y-90095000I-135000J0D01*
G01*
X200675000Y-90095000D01*
G75*
G02*
X200540000Y-89960000I0J135000D01*
G01*
G37*
G36*
G01*
X199520000Y-89960000D02*
X199520000Y-89590000D01*
G75*
G02*
X199655000Y-89455000I135000J0D01*
G01*
X199925000Y-89455000D01*
G75*
G02*
X200060000Y-89590000I0J-135000D01*
G01*
X200060000Y-89960000D01*
G75*
G02*
X199925000Y-90095000I-135000J0D01*
G01*
X199655000Y-90095000D01*
G75*
G02*
X199520000Y-89960000I0J135000D01*
G01*
G37*
%TD*%
%TO.C,C49*%
G36*
G01*
X202125000Y-89580000D02*
X202125000Y-89920000D01*
G75*
G02*
X201985000Y-90060000I-140000J0D01*
G01*
X201705000Y-90060000D01*
G75*
G02*
X201565000Y-89920000I0J140000D01*
G01*
X201565000Y-89580000D01*
G75*
G02*
X201705000Y-89440000I140000J0D01*
G01*
X201985000Y-89440000D01*
G75*
G02*
X202125000Y-89580000I0J-140000D01*
G01*
G37*
G36*
G01*
X203085000Y-89580000D02*
X203085000Y-89920000D01*
G75*
G02*
X202945000Y-90060000I-140000J0D01*
G01*
X202665000Y-90060000D01*
G75*
G02*
X202525000Y-89920000I0J140000D01*
G01*
X202525000Y-89580000D01*
G75*
G02*
X202665000Y-89440000I140000J0D01*
G01*
X202945000Y-89440000D01*
G75*
G02*
X203085000Y-89580000I0J-140000D01*
G01*
G37*
%TD*%
%TO.C,C48*%
G36*
G01*
X194734000Y-86414000D02*
X194394000Y-86414000D01*
G75*
G02*
X194254000Y-86274000I0J140000D01*
G01*
X194254000Y-85994000D01*
G75*
G02*
X194394000Y-85854000I140000J0D01*
G01*
X194734000Y-85854000D01*
G75*
G02*
X194874000Y-85994000I0J-140000D01*
G01*
X194874000Y-86274000D01*
G75*
G02*
X194734000Y-86414000I-140000J0D01*
G01*
G37*
G36*
G01*
X194734000Y-87374000D02*
X194394000Y-87374000D01*
G75*
G02*
X194254000Y-87234000I0J140000D01*
G01*
X194254000Y-86954000D01*
G75*
G02*
X194394000Y-86814000I140000J0D01*
G01*
X194734000Y-86814000D01*
G75*
G02*
X194874000Y-86954000I0J-140000D01*
G01*
X194874000Y-87234000D01*
G75*
G02*
X194734000Y-87374000I-140000J0D01*
G01*
G37*
%TD*%
%TO.C,U10*%
X59604000Y-98552000D03*
X59604000Y-97602000D03*
X59604000Y-99502000D03*
X57404000Y-99502000D03*
X57404000Y-98552000D03*
X57404000Y-97602000D03*
%TD*%
%TO.C,R26*%
G36*
G01*
X54425000Y-102602000D02*
X54795000Y-102602000D01*
G75*
G02*
X54930000Y-102737000I0J-135000D01*
G01*
X54930000Y-103007000D01*
G75*
G02*
X54795000Y-103142000I-135000J0D01*
G01*
X54425000Y-103142000D01*
G75*
G02*
X54290000Y-103007000I0J135000D01*
G01*
X54290000Y-102737000D01*
G75*
G02*
X54425000Y-102602000I135000J0D01*
G01*
G37*
G36*
G01*
X54425000Y-101582000D02*
X54795000Y-101582000D01*
G75*
G02*
X54930000Y-101717000I0J-135000D01*
G01*
X54930000Y-101987000D01*
G75*
G02*
X54795000Y-102122000I-135000J0D01*
G01*
X54425000Y-102122000D01*
G75*
G02*
X54290000Y-101987000I0J135000D01*
G01*
X54290000Y-101717000D01*
G75*
G02*
X54425000Y-101582000I135000J0D01*
G01*
G37*
%TD*%
%TO.C,R25*%
G36*
G01*
X56319000Y-80784000D02*
X55949000Y-80784000D01*
G75*
G02*
X55814000Y-80649000I0J135000D01*
G01*
X55814000Y-80379000D01*
G75*
G02*
X55949000Y-80244000I135000J0D01*
G01*
X56319000Y-80244000D01*
G75*
G02*
X56454000Y-80379000I0J-135000D01*
G01*
X56454000Y-80649000D01*
G75*
G02*
X56319000Y-80784000I-135000J0D01*
G01*
G37*
G36*
G01*
X56319000Y-81804000D02*
X55949000Y-81804000D01*
G75*
G02*
X55814000Y-81669000I0J135000D01*
G01*
X55814000Y-81399000D01*
G75*
G02*
X55949000Y-81264000I135000J0D01*
G01*
X56319000Y-81264000D01*
G75*
G02*
X56454000Y-81399000I0J-135000D01*
G01*
X56454000Y-81669000D01*
G75*
G02*
X56319000Y-81804000I-135000J0D01*
G01*
G37*
%TD*%
%TO.C,C47*%
G36*
G01*
X53452000Y-102562000D02*
X53792000Y-102562000D01*
G75*
G02*
X53932000Y-102702000I0J-140000D01*
G01*
X53932000Y-102982000D01*
G75*
G02*
X53792000Y-103122000I-140000J0D01*
G01*
X53452000Y-103122000D01*
G75*
G02*
X53312000Y-102982000I0J140000D01*
G01*
X53312000Y-102702000D01*
G75*
G02*
X53452000Y-102562000I140000J0D01*
G01*
G37*
G36*
G01*
X53452000Y-101602000D02*
X53792000Y-101602000D01*
G75*
G02*
X53932000Y-101742000I0J-140000D01*
G01*
X53932000Y-102022000D01*
G75*
G02*
X53792000Y-102162000I-140000J0D01*
G01*
X53452000Y-102162000D01*
G75*
G02*
X53312000Y-102022000I0J140000D01*
G01*
X53312000Y-101742000D01*
G75*
G02*
X53452000Y-101602000I140000J0D01*
G01*
G37*
%TD*%
%TO.C,C46*%
G36*
G01*
X55288000Y-80854000D02*
X54948000Y-80854000D01*
G75*
G02*
X54808000Y-80714000I0J140000D01*
G01*
X54808000Y-80434000D01*
G75*
G02*
X54948000Y-80294000I140000J0D01*
G01*
X55288000Y-80294000D01*
G75*
G02*
X55428000Y-80434000I0J-140000D01*
G01*
X55428000Y-80714000D01*
G75*
G02*
X55288000Y-80854000I-140000J0D01*
G01*
G37*
G36*
G01*
X55288000Y-81814000D02*
X54948000Y-81814000D01*
G75*
G02*
X54808000Y-81674000I0J140000D01*
G01*
X54808000Y-81394000D01*
G75*
G02*
X54948000Y-81254000I140000J0D01*
G01*
X55288000Y-81254000D01*
G75*
G02*
X55428000Y-81394000I0J-140000D01*
G01*
X55428000Y-81674000D01*
G75*
G02*
X55288000Y-81814000I-140000J0D01*
G01*
G37*
%TD*%
%TO.C,C45*%
G36*
G01*
X57232000Y-95842000D02*
X57232000Y-96182000D01*
G75*
G02*
X57092000Y-96322000I-140000J0D01*
G01*
X56812000Y-96322000D01*
G75*
G02*
X56672000Y-96182000I0J140000D01*
G01*
X56672000Y-95842000D01*
G75*
G02*
X56812000Y-95702000I140000J0D01*
G01*
X57092000Y-95702000D01*
G75*
G02*
X57232000Y-95842000I0J-140000D01*
G01*
G37*
G36*
G01*
X58192000Y-95842000D02*
X58192000Y-96182000D01*
G75*
G02*
X58052000Y-96322000I-140000J0D01*
G01*
X57772000Y-96322000D01*
G75*
G02*
X57632000Y-96182000I0J140000D01*
G01*
X57632000Y-95842000D01*
G75*
G02*
X57772000Y-95702000I140000J0D01*
G01*
X58052000Y-95702000D01*
G75*
G02*
X58192000Y-95842000I0J-140000D01*
G01*
G37*
%TD*%
%TO.C,C38*%
G36*
G01*
X138275000Y-107155000D02*
X138275000Y-107495000D01*
G75*
G02*
X138135000Y-107635000I-140000J0D01*
G01*
X137855000Y-107635000D01*
G75*
G02*
X137715000Y-107495000I0J140000D01*
G01*
X137715000Y-107155000D01*
G75*
G02*
X137855000Y-107015000I140000J0D01*
G01*
X138135000Y-107015000D01*
G75*
G02*
X138275000Y-107155000I0J-140000D01*
G01*
G37*
G36*
G01*
X139235000Y-107155000D02*
X139235000Y-107495000D01*
G75*
G02*
X139095000Y-107635000I-140000J0D01*
G01*
X138815000Y-107635000D01*
G75*
G02*
X138675000Y-107495000I0J140000D01*
G01*
X138675000Y-107155000D01*
G75*
G02*
X138815000Y-107015000I140000J0D01*
G01*
X139095000Y-107015000D01*
G75*
G02*
X139235000Y-107155000I0J-140000D01*
G01*
G37*
%TD*%
%TO.C,R24*%
G36*
G01*
X116810000Y-108400000D02*
X116810000Y-108770000D01*
G75*
G02*
X116675000Y-108905000I-135000J0D01*
G01*
X116405000Y-108905000D01*
G75*
G02*
X116270000Y-108770000I0J135000D01*
G01*
X116270000Y-108400000D01*
G75*
G02*
X116405000Y-108265000I135000J0D01*
G01*
X116675000Y-108265000D01*
G75*
G02*
X116810000Y-108400000I0J-135000D01*
G01*
G37*
G36*
G01*
X117830000Y-108400000D02*
X117830000Y-108770000D01*
G75*
G02*
X117695000Y-108905000I-135000J0D01*
G01*
X117425000Y-108905000D01*
G75*
G02*
X117290000Y-108770000I0J135000D01*
G01*
X117290000Y-108400000D01*
G75*
G02*
X117425000Y-108265000I135000J0D01*
G01*
X117695000Y-108265000D01*
G75*
G02*
X117830000Y-108400000I0J-135000D01*
G01*
G37*
%TD*%
%TO.C,R23*%
G36*
G01*
X95350000Y-108345000D02*
X95350000Y-108715000D01*
G75*
G02*
X95215000Y-108850000I-135000J0D01*
G01*
X94945000Y-108850000D01*
G75*
G02*
X94810000Y-108715000I0J135000D01*
G01*
X94810000Y-108345000D01*
G75*
G02*
X94945000Y-108210000I135000J0D01*
G01*
X95215000Y-108210000D01*
G75*
G02*
X95350000Y-108345000I0J-135000D01*
G01*
G37*
G36*
G01*
X96370000Y-108345000D02*
X96370000Y-108715000D01*
G75*
G02*
X96235000Y-108850000I-135000J0D01*
G01*
X95965000Y-108850000D01*
G75*
G02*
X95830000Y-108715000I0J135000D01*
G01*
X95830000Y-108345000D01*
G75*
G02*
X95965000Y-108210000I135000J0D01*
G01*
X96235000Y-108210000D01*
G75*
G02*
X96370000Y-108345000I0J-135000D01*
G01*
G37*
%TD*%
%TO.C,R22*%
G36*
G01*
X108890000Y-103510000D02*
X108890000Y-103880000D01*
G75*
G02*
X108755000Y-104015000I-135000J0D01*
G01*
X108485000Y-104015000D01*
G75*
G02*
X108350000Y-103880000I0J135000D01*
G01*
X108350000Y-103510000D01*
G75*
G02*
X108485000Y-103375000I135000J0D01*
G01*
X108755000Y-103375000D01*
G75*
G02*
X108890000Y-103510000I0J-135000D01*
G01*
G37*
G36*
G01*
X109910000Y-103510000D02*
X109910000Y-103880000D01*
G75*
G02*
X109775000Y-104015000I-135000J0D01*
G01*
X109505000Y-104015000D01*
G75*
G02*
X109370000Y-103880000I0J135000D01*
G01*
X109370000Y-103510000D01*
G75*
G02*
X109505000Y-103375000I135000J0D01*
G01*
X109775000Y-103375000D01*
G75*
G02*
X109910000Y-103510000I0J-135000D01*
G01*
G37*
%TD*%
%TO.C,R21*%
G36*
G01*
X87320000Y-103625000D02*
X87320000Y-103995000D01*
G75*
G02*
X87185000Y-104130000I-135000J0D01*
G01*
X86915000Y-104130000D01*
G75*
G02*
X86780000Y-103995000I0J135000D01*
G01*
X86780000Y-103625000D01*
G75*
G02*
X86915000Y-103490000I135000J0D01*
G01*
X87185000Y-103490000D01*
G75*
G02*
X87320000Y-103625000I0J-135000D01*
G01*
G37*
G36*
G01*
X88340000Y-103625000D02*
X88340000Y-103995000D01*
G75*
G02*
X88205000Y-104130000I-135000J0D01*
G01*
X87935000Y-104130000D01*
G75*
G02*
X87800000Y-103995000I0J135000D01*
G01*
X87800000Y-103625000D01*
G75*
G02*
X87935000Y-103490000I135000J0D01*
G01*
X88205000Y-103490000D01*
G75*
G02*
X88340000Y-103625000I0J-135000D01*
G01*
G37*
%TD*%
%TO.C,C44*%
G36*
G01*
X116850000Y-107365000D02*
X116850000Y-107705000D01*
G75*
G02*
X116710000Y-107845000I-140000J0D01*
G01*
X116430000Y-107845000D01*
G75*
G02*
X116290000Y-107705000I0J140000D01*
G01*
X116290000Y-107365000D01*
G75*
G02*
X116430000Y-107225000I140000J0D01*
G01*
X116710000Y-107225000D01*
G75*
G02*
X116850000Y-107365000I0J-140000D01*
G01*
G37*
G36*
G01*
X117810000Y-107365000D02*
X117810000Y-107705000D01*
G75*
G02*
X117670000Y-107845000I-140000J0D01*
G01*
X117390000Y-107845000D01*
G75*
G02*
X117250000Y-107705000I0J140000D01*
G01*
X117250000Y-107365000D01*
G75*
G02*
X117390000Y-107225000I140000J0D01*
G01*
X117670000Y-107225000D01*
G75*
G02*
X117810000Y-107365000I0J-140000D01*
G01*
G37*
%TD*%
%TO.C,C43*%
G36*
G01*
X95390000Y-107360000D02*
X95390000Y-107700000D01*
G75*
G02*
X95250000Y-107840000I-140000J0D01*
G01*
X94970000Y-107840000D01*
G75*
G02*
X94830000Y-107700000I0J140000D01*
G01*
X94830000Y-107360000D01*
G75*
G02*
X94970000Y-107220000I140000J0D01*
G01*
X95250000Y-107220000D01*
G75*
G02*
X95390000Y-107360000I0J-140000D01*
G01*
G37*
G36*
G01*
X96350000Y-107360000D02*
X96350000Y-107700000D01*
G75*
G02*
X96210000Y-107840000I-140000J0D01*
G01*
X95930000Y-107840000D01*
G75*
G02*
X95790000Y-107700000I0J140000D01*
G01*
X95790000Y-107360000D01*
G75*
G02*
X95930000Y-107220000I140000J0D01*
G01*
X96210000Y-107220000D01*
G75*
G02*
X96350000Y-107360000I0J-140000D01*
G01*
G37*
%TD*%
%TO.C,C42*%
G36*
G01*
X108280000Y-105060000D02*
X108280000Y-104720000D01*
G75*
G02*
X108420000Y-104580000I140000J0D01*
G01*
X108700000Y-104580000D01*
G75*
G02*
X108840000Y-104720000I0J-140000D01*
G01*
X108840000Y-105060000D01*
G75*
G02*
X108700000Y-105200000I-140000J0D01*
G01*
X108420000Y-105200000D01*
G75*
G02*
X108280000Y-105060000I0J140000D01*
G01*
G37*
G36*
G01*
X107320000Y-105060000D02*
X107320000Y-104720000D01*
G75*
G02*
X107460000Y-104580000I140000J0D01*
G01*
X107740000Y-104580000D01*
G75*
G02*
X107880000Y-104720000I0J-140000D01*
G01*
X107880000Y-105060000D01*
G75*
G02*
X107740000Y-105200000I-140000J0D01*
G01*
X107460000Y-105200000D01*
G75*
G02*
X107320000Y-105060000I0J140000D01*
G01*
G37*
%TD*%
%TO.C,C41*%
G36*
G01*
X85870000Y-105290000D02*
X85870000Y-104950000D01*
G75*
G02*
X86010000Y-104810000I140000J0D01*
G01*
X86290000Y-104810000D01*
G75*
G02*
X86430000Y-104950000I0J-140000D01*
G01*
X86430000Y-105290000D01*
G75*
G02*
X86290000Y-105430000I-140000J0D01*
G01*
X86010000Y-105430000D01*
G75*
G02*
X85870000Y-105290000I0J140000D01*
G01*
G37*
G36*
G01*
X86830000Y-105290000D02*
X86830000Y-104950000D01*
G75*
G02*
X86970000Y-104810000I140000J0D01*
G01*
X87250000Y-104810000D01*
G75*
G02*
X87390000Y-104950000I0J-140000D01*
G01*
X87390000Y-105290000D01*
G75*
G02*
X87250000Y-105430000I-140000J0D01*
G01*
X86970000Y-105430000D01*
G75*
G02*
X86830000Y-105290000I0J140000D01*
G01*
G37*
%TD*%
%TO.C,R20*%
G36*
G01*
X138235000Y-108165000D02*
X138235000Y-108535000D01*
G75*
G02*
X138100000Y-108670000I-135000J0D01*
G01*
X137830000Y-108670000D01*
G75*
G02*
X137695000Y-108535000I0J135000D01*
G01*
X137695000Y-108165000D01*
G75*
G02*
X137830000Y-108030000I135000J0D01*
G01*
X138100000Y-108030000D01*
G75*
G02*
X138235000Y-108165000I0J-135000D01*
G01*
G37*
G36*
G01*
X139255000Y-108165000D02*
X139255000Y-108535000D01*
G75*
G02*
X139120000Y-108670000I-135000J0D01*
G01*
X138850000Y-108670000D01*
G75*
G02*
X138715000Y-108535000I0J135000D01*
G01*
X138715000Y-108165000D01*
G75*
G02*
X138850000Y-108030000I135000J0D01*
G01*
X139120000Y-108030000D01*
G75*
G02*
X139255000Y-108165000I0J-135000D01*
G01*
G37*
%TD*%
%TO.C,R19*%
G36*
G01*
X130800000Y-103690000D02*
X130800000Y-104060000D01*
G75*
G02*
X130665000Y-104195000I-135000J0D01*
G01*
X130395000Y-104195000D01*
G75*
G02*
X130260000Y-104060000I0J135000D01*
G01*
X130260000Y-103690000D01*
G75*
G02*
X130395000Y-103555000I135000J0D01*
G01*
X130665000Y-103555000D01*
G75*
G02*
X130800000Y-103690000I0J-135000D01*
G01*
G37*
G36*
G01*
X131820000Y-103690000D02*
X131820000Y-104060000D01*
G75*
G02*
X131685000Y-104195000I-135000J0D01*
G01*
X131415000Y-104195000D01*
G75*
G02*
X131280000Y-104060000I0J135000D01*
G01*
X131280000Y-103690000D01*
G75*
G02*
X131415000Y-103555000I135000J0D01*
G01*
X131685000Y-103555000D01*
G75*
G02*
X131820000Y-103690000I0J-135000D01*
G01*
G37*
%TD*%
%TO.C,C37*%
G36*
G01*
X130170000Y-105130000D02*
X130170000Y-104790000D01*
G75*
G02*
X130310000Y-104650000I140000J0D01*
G01*
X130590000Y-104650000D01*
G75*
G02*
X130730000Y-104790000I0J-140000D01*
G01*
X130730000Y-105130000D01*
G75*
G02*
X130590000Y-105270000I-140000J0D01*
G01*
X130310000Y-105270000D01*
G75*
G02*
X130170000Y-105130000I0J140000D01*
G01*
G37*
G36*
G01*
X129210000Y-105130000D02*
X129210000Y-104790000D01*
G75*
G02*
X129350000Y-104650000I140000J0D01*
G01*
X129630000Y-104650000D01*
G75*
G02*
X129770000Y-104790000I0J-140000D01*
G01*
X129770000Y-105130000D01*
G75*
G02*
X129630000Y-105270000I-140000J0D01*
G01*
X129350000Y-105270000D01*
G75*
G02*
X129210000Y-105130000I0J140000D01*
G01*
G37*
%TD*%
%TO.C,R18*%
G36*
G01*
X73600000Y-108415000D02*
X73600000Y-108785000D01*
G75*
G02*
X73465000Y-108920000I-135000J0D01*
G01*
X73195000Y-108920000D01*
G75*
G02*
X73060000Y-108785000I0J135000D01*
G01*
X73060000Y-108415000D01*
G75*
G02*
X73195000Y-108280000I135000J0D01*
G01*
X73465000Y-108280000D01*
G75*
G02*
X73600000Y-108415000I0J-135000D01*
G01*
G37*
G36*
G01*
X74620000Y-108415000D02*
X74620000Y-108785000D01*
G75*
G02*
X74485000Y-108920000I-135000J0D01*
G01*
X74215000Y-108920000D01*
G75*
G02*
X74080000Y-108785000I0J135000D01*
G01*
X74080000Y-108415000D01*
G75*
G02*
X74215000Y-108280000I135000J0D01*
G01*
X74485000Y-108280000D01*
G75*
G02*
X74620000Y-108415000I0J-135000D01*
G01*
G37*
%TD*%
%TO.C,R17*%
G36*
G01*
X65772000Y-103359000D02*
X65772000Y-103729000D01*
G75*
G02*
X65637000Y-103864000I-135000J0D01*
G01*
X65367000Y-103864000D01*
G75*
G02*
X65232000Y-103729000I0J135000D01*
G01*
X65232000Y-103359000D01*
G75*
G02*
X65367000Y-103224000I135000J0D01*
G01*
X65637000Y-103224000D01*
G75*
G02*
X65772000Y-103359000I0J-135000D01*
G01*
G37*
G36*
G01*
X66792000Y-103359000D02*
X66792000Y-103729000D01*
G75*
G02*
X66657000Y-103864000I-135000J0D01*
G01*
X66387000Y-103864000D01*
G75*
G02*
X66252000Y-103729000I0J135000D01*
G01*
X66252000Y-103359000D01*
G75*
G02*
X66387000Y-103224000I135000J0D01*
G01*
X66657000Y-103224000D01*
G75*
G02*
X66792000Y-103359000I0J-135000D01*
G01*
G37*
%TD*%
%TO.C,C35*%
G36*
G01*
X73630000Y-107430000D02*
X73630000Y-107770000D01*
G75*
G02*
X73490000Y-107910000I-140000J0D01*
G01*
X73210000Y-107910000D01*
G75*
G02*
X73070000Y-107770000I0J140000D01*
G01*
X73070000Y-107430000D01*
G75*
G02*
X73210000Y-107290000I140000J0D01*
G01*
X73490000Y-107290000D01*
G75*
G02*
X73630000Y-107430000I0J-140000D01*
G01*
G37*
G36*
G01*
X74590000Y-107430000D02*
X74590000Y-107770000D01*
G75*
G02*
X74450000Y-107910000I-140000J0D01*
G01*
X74170000Y-107910000D01*
G75*
G02*
X74030000Y-107770000I0J140000D01*
G01*
X74030000Y-107430000D01*
G75*
G02*
X74170000Y-107290000I140000J0D01*
G01*
X74450000Y-107290000D01*
G75*
G02*
X74590000Y-107430000I0J-140000D01*
G01*
G37*
%TD*%
%TO.C,C34*%
G36*
G01*
X65190000Y-104840000D02*
X65190000Y-104500000D01*
G75*
G02*
X65330000Y-104360000I140000J0D01*
G01*
X65610000Y-104360000D01*
G75*
G02*
X65750000Y-104500000I0J-140000D01*
G01*
X65750000Y-104840000D01*
G75*
G02*
X65610000Y-104980000I-140000J0D01*
G01*
X65330000Y-104980000D01*
G75*
G02*
X65190000Y-104840000I0J140000D01*
G01*
G37*
G36*
G01*
X64230000Y-104840000D02*
X64230000Y-104500000D01*
G75*
G02*
X64370000Y-104360000I140000J0D01*
G01*
X64650000Y-104360000D01*
G75*
G02*
X64790000Y-104500000I0J-140000D01*
G01*
X64790000Y-104840000D01*
G75*
G02*
X64650000Y-104980000I-140000J0D01*
G01*
X64370000Y-104980000D01*
G75*
G02*
X64230000Y-104840000I0J140000D01*
G01*
G37*
%TD*%
%TO.C,C23*%
G36*
G01*
X177050000Y-75570000D02*
X177050000Y-75230000D01*
G75*
G02*
X177190000Y-75090000I140000J0D01*
G01*
X177470000Y-75090000D01*
G75*
G02*
X177610000Y-75230000I0J-140000D01*
G01*
X177610000Y-75570000D01*
G75*
G02*
X177470000Y-75710000I-140000J0D01*
G01*
X177190000Y-75710000D01*
G75*
G02*
X177050000Y-75570000I0J140000D01*
G01*
G37*
G36*
G01*
X178010000Y-75570000D02*
X178010000Y-75230000D01*
G75*
G02*
X178150000Y-75090000I140000J0D01*
G01*
X178430000Y-75090000D01*
G75*
G02*
X178570000Y-75230000I0J-140000D01*
G01*
X178570000Y-75570000D01*
G75*
G02*
X178430000Y-75710000I-140000J0D01*
G01*
X178150000Y-75710000D01*
G75*
G02*
X178010000Y-75570000I0J140000D01*
G01*
G37*
%TD*%
%TO.C,R14*%
G36*
G01*
X82150000Y-82099998D02*
X82150000Y-83000002D01*
G75*
G02*
X81900002Y-83250000I-249998J0D01*
G01*
X81374998Y-83250000D01*
G75*
G02*
X81125000Y-83000002I0J249998D01*
G01*
X81125000Y-82099998D01*
G75*
G02*
X81374998Y-81850000I249998J0D01*
G01*
X81900002Y-81850000D01*
G75*
G02*
X82150000Y-82099998I0J-249998D01*
G01*
G37*
G36*
G01*
X83975000Y-82099998D02*
X83975000Y-83000002D01*
G75*
G02*
X83725002Y-83250000I-249998J0D01*
G01*
X83199998Y-83250000D01*
G75*
G02*
X82950000Y-83000002I0J249998D01*
G01*
X82950000Y-82099998D01*
G75*
G02*
X83199998Y-81850000I249998J0D01*
G01*
X83725002Y-81850000D01*
G75*
G02*
X83975000Y-82099998I0J-249998D01*
G01*
G37*
%TD*%
D24*
%TO.C,D1*%
X214600000Y-99150000D03*
X214600000Y-102450000D03*
%TD*%
%TO.C,C20*%
G36*
G01*
X82016000Y-87800000D02*
X82016000Y-87460000D01*
G75*
G02*
X82156000Y-87320000I140000J0D01*
G01*
X82436000Y-87320000D01*
G75*
G02*
X82576000Y-87460000I0J-140000D01*
G01*
X82576000Y-87800000D01*
G75*
G02*
X82436000Y-87940000I-140000J0D01*
G01*
X82156000Y-87940000D01*
G75*
G02*
X82016000Y-87800000I0J140000D01*
G01*
G37*
G36*
G01*
X81056000Y-87800000D02*
X81056000Y-87460000D01*
G75*
G02*
X81196000Y-87320000I140000J0D01*
G01*
X81476000Y-87320000D01*
G75*
G02*
X81616000Y-87460000I0J-140000D01*
G01*
X81616000Y-87800000D01*
G75*
G02*
X81476000Y-87940000I-140000J0D01*
G01*
X81196000Y-87940000D01*
G75*
G02*
X81056000Y-87800000I0J140000D01*
G01*
G37*
%TD*%
D25*
%TO.C,SW5*%
X51912000Y-98922000D03*
D12*
X51512000Y-103052000D03*
X54262000Y-98922000D03*
D26*
X48212000Y-98922000D03*
%TD*%
D27*
%TO.C,U5*%
X151200000Y-77350000D03*
X151200000Y-79350000D03*
X151200000Y-76850000D03*
D28*
X191700000Y-78100000D03*
X151200000Y-78100000D03*
X191700000Y-98100000D03*
X151200000Y-98100000D03*
D29*
X190450000Y-78100000D03*
X190450000Y-98100000D03*
X152450000Y-98100000D03*
X152450000Y-78100000D03*
D27*
X151200000Y-78600000D03*
X151200000Y-96850000D03*
X151200000Y-99350000D03*
X191700000Y-77350000D03*
X191700000Y-76850000D03*
X191700000Y-78850000D03*
X191700000Y-79350000D03*
X191700000Y-96850000D03*
X191700000Y-99350000D03*
X191700000Y-97600000D03*
X191700000Y-98850000D03*
X151200000Y-97350000D03*
X151200000Y-98600000D03*
%TD*%
%TO.C,C33*%
G36*
G01*
X105990000Y-84070000D02*
X105990000Y-83730000D01*
G75*
G02*
X106130000Y-83590000I140000J0D01*
G01*
X106410000Y-83590000D01*
G75*
G02*
X106550000Y-83730000I0J-140000D01*
G01*
X106550000Y-84070000D01*
G75*
G02*
X106410000Y-84210000I-140000J0D01*
G01*
X106130000Y-84210000D01*
G75*
G02*
X105990000Y-84070000I0J140000D01*
G01*
G37*
G36*
G01*
X105030000Y-84070000D02*
X105030000Y-83730000D01*
G75*
G02*
X105170000Y-83590000I140000J0D01*
G01*
X105450000Y-83590000D01*
G75*
G02*
X105590000Y-83730000I0J-140000D01*
G01*
X105590000Y-84070000D01*
G75*
G02*
X105450000Y-84210000I-140000J0D01*
G01*
X105170000Y-84210000D01*
G75*
G02*
X105030000Y-84070000I0J140000D01*
G01*
G37*
%TD*%
%TO.C,C31*%
G36*
G01*
X116150000Y-86350000D02*
X116490000Y-86350000D01*
G75*
G02*
X116630000Y-86490000I0J-140000D01*
G01*
X116630000Y-86770000D01*
G75*
G02*
X116490000Y-86910000I-140000J0D01*
G01*
X116150000Y-86910000D01*
G75*
G02*
X116010000Y-86770000I0J140000D01*
G01*
X116010000Y-86490000D01*
G75*
G02*
X116150000Y-86350000I140000J0D01*
G01*
G37*
G36*
G01*
X116150000Y-85390000D02*
X116490000Y-85390000D01*
G75*
G02*
X116630000Y-85530000I0J-140000D01*
G01*
X116630000Y-85810000D01*
G75*
G02*
X116490000Y-85950000I-140000J0D01*
G01*
X116150000Y-85950000D01*
G75*
G02*
X116010000Y-85810000I0J140000D01*
G01*
X116010000Y-85530000D01*
G75*
G02*
X116150000Y-85390000I140000J0D01*
G01*
G37*
%TD*%
%TO.C,C30*%
G36*
G01*
X106560000Y-81600000D02*
X106220000Y-81600000D01*
G75*
G02*
X106080000Y-81460000I0J140000D01*
G01*
X106080000Y-81180000D01*
G75*
G02*
X106220000Y-81040000I140000J0D01*
G01*
X106560000Y-81040000D01*
G75*
G02*
X106700000Y-81180000I0J-140000D01*
G01*
X106700000Y-81460000D01*
G75*
G02*
X106560000Y-81600000I-140000J0D01*
G01*
G37*
G36*
G01*
X106560000Y-82560000D02*
X106220000Y-82560000D01*
G75*
G02*
X106080000Y-82420000I0J140000D01*
G01*
X106080000Y-82140000D01*
G75*
G02*
X106220000Y-82000000I140000J0D01*
G01*
X106560000Y-82000000D01*
G75*
G02*
X106700000Y-82140000I0J-140000D01*
G01*
X106700000Y-82420000D01*
G75*
G02*
X106560000Y-82560000I-140000J0D01*
G01*
G37*
%TD*%
%TO.C,C29*%
G36*
G01*
X116500000Y-83940000D02*
X116160000Y-83940000D01*
G75*
G02*
X116020000Y-83800000I0J140000D01*
G01*
X116020000Y-83520000D01*
G75*
G02*
X116160000Y-83380000I140000J0D01*
G01*
X116500000Y-83380000D01*
G75*
G02*
X116640000Y-83520000I0J-140000D01*
G01*
X116640000Y-83800000D01*
G75*
G02*
X116500000Y-83940000I-140000J0D01*
G01*
G37*
G36*
G01*
X116500000Y-84900000D02*
X116160000Y-84900000D01*
G75*
G02*
X116020000Y-84760000I0J140000D01*
G01*
X116020000Y-84480000D01*
G75*
G02*
X116160000Y-84340000I140000J0D01*
G01*
X116500000Y-84340000D01*
G75*
G02*
X116640000Y-84480000I0J-140000D01*
G01*
X116640000Y-84760000D01*
G75*
G02*
X116500000Y-84900000I-140000J0D01*
G01*
G37*
%TD*%
%TO.C,C22*%
G36*
G01*
X105776000Y-86440000D02*
X105776000Y-86780000D01*
G75*
G02*
X105636000Y-86920000I-140000J0D01*
G01*
X105356000Y-86920000D01*
G75*
G02*
X105216000Y-86780000I0J140000D01*
G01*
X105216000Y-86440000D01*
G75*
G02*
X105356000Y-86300000I140000J0D01*
G01*
X105636000Y-86300000D01*
G75*
G02*
X105776000Y-86440000I0J-140000D01*
G01*
G37*
G36*
G01*
X106736000Y-86440000D02*
X106736000Y-86780000D01*
G75*
G02*
X106596000Y-86920000I-140000J0D01*
G01*
X106316000Y-86920000D01*
G75*
G02*
X106176000Y-86780000I0J140000D01*
G01*
X106176000Y-86440000D01*
G75*
G02*
X106316000Y-86300000I140000J0D01*
G01*
X106596000Y-86300000D01*
G75*
G02*
X106736000Y-86440000I0J-140000D01*
G01*
G37*
%TD*%
D11*
%TO.C,SW8*%
X73665560Y-105435000D03*
D12*
X71165560Y-105435000D03*
X68665560Y-105435000D03*
D30*
X76765560Y-97935000D03*
X65565560Y-97935000D03*
%TD*%
D15*
%TO.C,H4*%
X37541726Y-107783274D03*
X36375000Y-107300000D03*
X35208274Y-107783274D03*
X34725000Y-108950000D03*
X35208274Y-110116726D03*
X36375000Y-110600000D03*
X37541726Y-110116726D03*
X38025000Y-108950000D03*
D14*
X36375000Y-108950000D03*
%TD*%
D15*
%TO.C,H3*%
X216141726Y-75483274D03*
X214975000Y-75000000D03*
X213808274Y-75483274D03*
X213325000Y-76650000D03*
X213808274Y-77816726D03*
X214975000Y-78300000D03*
X216141726Y-77816726D03*
X216625000Y-76650000D03*
D14*
X214975000Y-76650000D03*
%TD*%
D15*
%TO.C,H2*%
X37541726Y-75458274D03*
X36375000Y-74975000D03*
X35208274Y-75458274D03*
X34725000Y-76625000D03*
X35208274Y-77791726D03*
X36375000Y-78275000D03*
X37541726Y-77791726D03*
X38025000Y-76625000D03*
D14*
X36375000Y-76625000D03*
%TD*%
D15*
%TO.C,H1*%
X216141726Y-107783274D03*
X214975000Y-107300000D03*
X213808274Y-107783274D03*
X213325000Y-108950000D03*
X213808274Y-110116726D03*
X214975000Y-110600000D03*
X216141726Y-110116726D03*
X216625000Y-108950000D03*
D14*
X214975000Y-108950000D03*
%TD*%
D20*
%TO.C,J2*%
X89581667Y-84970000D03*
X89581667Y-78870000D03*
D21*
X91981667Y-85970000D03*
X91981667Y-78914000D03*
X87184667Y-80847000D03*
%TD*%
%TO.C,R11*%
G36*
G01*
X43985000Y-101670000D02*
X43615000Y-101670000D01*
G75*
G02*
X43480000Y-101535000I0J135000D01*
G01*
X43480000Y-101265000D01*
G75*
G02*
X43615000Y-101130000I135000J0D01*
G01*
X43985000Y-101130000D01*
G75*
G02*
X44120000Y-101265000I0J-135000D01*
G01*
X44120000Y-101535000D01*
G75*
G02*
X43985000Y-101670000I-135000J0D01*
G01*
G37*
G36*
G01*
X43985000Y-102690000D02*
X43615000Y-102690000D01*
G75*
G02*
X43480000Y-102555000I0J135000D01*
G01*
X43480000Y-102285000D01*
G75*
G02*
X43615000Y-102150000I135000J0D01*
G01*
X43985000Y-102150000D01*
G75*
G02*
X44120000Y-102285000I0J-135000D01*
G01*
X44120000Y-102555000D01*
G75*
G02*
X43985000Y-102690000I-135000J0D01*
G01*
G37*
%TD*%
D31*
%TO.C,J6*%
X214600000Y-95630000D03*
D32*
X214600000Y-93090000D03*
X214600000Y-90550000D03*
X214600000Y-88010000D03*
X214600000Y-85470000D03*
%TD*%
D20*
%TO.C,J4*%
X70030000Y-84970000D03*
X70030000Y-78870000D03*
D21*
X72430000Y-85970000D03*
X72430000Y-78914000D03*
X67633000Y-80847000D03*
%TD*%
D11*
%TO.C,SW2*%
X138472640Y-105435000D03*
D12*
X135972640Y-105435000D03*
X133472640Y-105435000D03*
D13*
X141572640Y-97935000D03*
X130372640Y-97935000D03*
%TD*%
D20*
%TO.C,J3*%
X79805834Y-84970000D03*
X79805834Y-78870000D03*
D21*
X82205834Y-85970000D03*
X82205834Y-78914000D03*
X77408834Y-80847000D03*
%TD*%
D33*
%TO.C,J1*%
X125960000Y-75602500D03*
X118960000Y-75602500D03*
D34*
X124960000Y-78302500D03*
X119960000Y-78302500D03*
%TD*%
%TO.C,R10*%
G36*
G01*
X86720000Y-91109998D02*
X86720000Y-92010002D01*
G75*
G02*
X86470002Y-92260000I-249998J0D01*
G01*
X85944998Y-92260000D01*
G75*
G02*
X85695000Y-92010002I0J249998D01*
G01*
X85695000Y-91109998D01*
G75*
G02*
X85944998Y-90860000I249998J0D01*
G01*
X86470002Y-90860000D01*
G75*
G02*
X86720000Y-91109998I0J-249998D01*
G01*
G37*
G36*
G01*
X88545000Y-91109998D02*
X88545000Y-92010002D01*
G75*
G02*
X88295002Y-92260000I-249998J0D01*
G01*
X87769998Y-92260000D01*
G75*
G02*
X87520000Y-92010002I0J249998D01*
G01*
X87520000Y-91109998D01*
G75*
G02*
X87769998Y-90860000I249998J0D01*
G01*
X88295002Y-90860000D01*
G75*
G02*
X88545000Y-91109998I0J-249998D01*
G01*
G37*
%TD*%
%TO.C,R9*%
G36*
G01*
X91420000Y-92010002D02*
X91420000Y-91109998D01*
G75*
G02*
X91669998Y-90860000I249998J0D01*
G01*
X92195002Y-90860000D01*
G75*
G02*
X92445000Y-91109998I0J-249998D01*
G01*
X92445000Y-92010002D01*
G75*
G02*
X92195002Y-92260000I-249998J0D01*
G01*
X91669998Y-92260000D01*
G75*
G02*
X91420000Y-92010002I0J249998D01*
G01*
G37*
G36*
G01*
X89595000Y-92010002D02*
X89595000Y-91109998D01*
G75*
G02*
X89844998Y-90860000I249998J0D01*
G01*
X90370002Y-90860000D01*
G75*
G02*
X90620000Y-91109998I0J-249998D01*
G01*
X90620000Y-92010002D01*
G75*
G02*
X90370002Y-92260000I-249998J0D01*
G01*
X89844998Y-92260000D01*
G75*
G02*
X89595000Y-92010002I0J249998D01*
G01*
G37*
%TD*%
%TO.C,R8*%
G36*
G01*
X103994000Y-79305998D02*
X103994000Y-80206002D01*
G75*
G02*
X103744002Y-80456000I-249998J0D01*
G01*
X103218998Y-80456000D01*
G75*
G02*
X102969000Y-80206002I0J249998D01*
G01*
X102969000Y-79305998D01*
G75*
G02*
X103218998Y-79056000I249998J0D01*
G01*
X103744002Y-79056000D01*
G75*
G02*
X103994000Y-79305998I0J-249998D01*
G01*
G37*
G36*
G01*
X105819000Y-79305998D02*
X105819000Y-80206002D01*
G75*
G02*
X105569002Y-80456000I-249998J0D01*
G01*
X105043998Y-80456000D01*
G75*
G02*
X104794000Y-80206002I0J249998D01*
G01*
X104794000Y-79305998D01*
G75*
G02*
X105043998Y-79056000I249998J0D01*
G01*
X105569002Y-79056000D01*
G75*
G02*
X105819000Y-79305998I0J-249998D01*
G01*
G37*
%TD*%
%TO.C,R7*%
G36*
G01*
X95913000Y-80575998D02*
X95913000Y-81476002D01*
G75*
G02*
X95663002Y-81726000I-249998J0D01*
G01*
X95137998Y-81726000D01*
G75*
G02*
X94888000Y-81476002I0J249998D01*
G01*
X94888000Y-80575998D01*
G75*
G02*
X95137998Y-80326000I249998J0D01*
G01*
X95663002Y-80326000D01*
G75*
G02*
X95913000Y-80575998I0J-249998D01*
G01*
G37*
G36*
G01*
X94088000Y-80575998D02*
X94088000Y-81476002D01*
G75*
G02*
X93838002Y-81726000I-249998J0D01*
G01*
X93312998Y-81726000D01*
G75*
G02*
X93063000Y-81476002I0J249998D01*
G01*
X93063000Y-80575998D01*
G75*
G02*
X93312998Y-80326000I249998J0D01*
G01*
X93838002Y-80326000D01*
G75*
G02*
X94088000Y-80575998I0J-249998D01*
G01*
G37*
%TD*%
%TO.C,FB6*%
G36*
G01*
X90395000Y-89178750D02*
X90395000Y-89941250D01*
G75*
G02*
X90176250Y-90160000I-218750J0D01*
G01*
X89738750Y-90160000D01*
G75*
G02*
X89520000Y-89941250I0J218750D01*
G01*
X89520000Y-89178750D01*
G75*
G02*
X89738750Y-88960000I218750J0D01*
G01*
X90176250Y-88960000D01*
G75*
G02*
X90395000Y-89178750I0J-218750D01*
G01*
G37*
G36*
G01*
X92520000Y-89178750D02*
X92520000Y-89941250D01*
G75*
G02*
X92301250Y-90160000I-218750J0D01*
G01*
X91863750Y-90160000D01*
G75*
G02*
X91645000Y-89941250I0J218750D01*
G01*
X91645000Y-89178750D01*
G75*
G02*
X91863750Y-88960000I218750J0D01*
G01*
X92301250Y-88960000D01*
G75*
G02*
X92520000Y-89178750I0J-218750D01*
G01*
G37*
%TD*%
%TO.C,FB5*%
G36*
G01*
X87745000Y-89941250D02*
X87745000Y-89178750D01*
G75*
G02*
X87963750Y-88960000I218750J0D01*
G01*
X88401250Y-88960000D01*
G75*
G02*
X88620000Y-89178750I0J-218750D01*
G01*
X88620000Y-89941250D01*
G75*
G02*
X88401250Y-90160000I-218750J0D01*
G01*
X87963750Y-90160000D01*
G75*
G02*
X87745000Y-89941250I0J218750D01*
G01*
G37*
G36*
G01*
X85620000Y-89941250D02*
X85620000Y-89178750D01*
G75*
G02*
X85838750Y-88960000I218750J0D01*
G01*
X86276250Y-88960000D01*
G75*
G02*
X86495000Y-89178750I0J-218750D01*
G01*
X86495000Y-89941250D01*
G75*
G02*
X86276250Y-90160000I-218750J0D01*
G01*
X85838750Y-90160000D01*
G75*
G02*
X85620000Y-89941250I0J218750D01*
G01*
G37*
%TD*%
%TO.C,FB4*%
G36*
G01*
X97766000Y-82676750D02*
X97766000Y-83439250D01*
G75*
G02*
X97547250Y-83658000I-218750J0D01*
G01*
X97109750Y-83658000D01*
G75*
G02*
X96891000Y-83439250I0J218750D01*
G01*
X96891000Y-82676750D01*
G75*
G02*
X97109750Y-82458000I218750J0D01*
G01*
X97547250Y-82458000D01*
G75*
G02*
X97766000Y-82676750I0J-218750D01*
G01*
G37*
G36*
G01*
X95641000Y-82676750D02*
X95641000Y-83439250D01*
G75*
G02*
X95422250Y-83658000I-218750J0D01*
G01*
X94984750Y-83658000D01*
G75*
G02*
X94766000Y-83439250I0J218750D01*
G01*
X94766000Y-82676750D01*
G75*
G02*
X94984750Y-82458000I218750J0D01*
G01*
X95422250Y-82458000D01*
G75*
G02*
X95641000Y-82676750I0J-218750D01*
G01*
G37*
%TD*%
%TO.C,FB3*%
G36*
G01*
X104464500Y-82169250D02*
X104464500Y-81406750D01*
G75*
G02*
X104683250Y-81188000I218750J0D01*
G01*
X105120750Y-81188000D01*
G75*
G02*
X105339500Y-81406750I0J-218750D01*
G01*
X105339500Y-82169250D01*
G75*
G02*
X105120750Y-82388000I-218750J0D01*
G01*
X104683250Y-82388000D01*
G75*
G02*
X104464500Y-82169250I0J218750D01*
G01*
G37*
G36*
G01*
X102339500Y-82169250D02*
X102339500Y-81406750D01*
G75*
G02*
X102558250Y-81188000I218750J0D01*
G01*
X102995750Y-81188000D01*
G75*
G02*
X103214500Y-81406750I0J-218750D01*
G01*
X103214500Y-82169250D01*
G75*
G02*
X102995750Y-82388000I-218750J0D01*
G01*
X102558250Y-82388000D01*
G75*
G02*
X102339500Y-82169250I0J218750D01*
G01*
G37*
%TD*%
%TO.C,C27*%
G36*
G01*
X90820000Y-92890000D02*
X90820000Y-93230000D01*
G75*
G02*
X90680000Y-93370000I-140000J0D01*
G01*
X90400000Y-93370000D01*
G75*
G02*
X90260000Y-93230000I0J140000D01*
G01*
X90260000Y-92890000D01*
G75*
G02*
X90400000Y-92750000I140000J0D01*
G01*
X90680000Y-92750000D01*
G75*
G02*
X90820000Y-92890000I0J-140000D01*
G01*
G37*
G36*
G01*
X91780000Y-92890000D02*
X91780000Y-93230000D01*
G75*
G02*
X91640000Y-93370000I-140000J0D01*
G01*
X91360000Y-93370000D01*
G75*
G02*
X91220000Y-93230000I0J140000D01*
G01*
X91220000Y-92890000D01*
G75*
G02*
X91360000Y-92750000I140000J0D01*
G01*
X91640000Y-92750000D01*
G75*
G02*
X91780000Y-92890000I0J-140000D01*
G01*
G37*
%TD*%
%TO.C,C26*%
G36*
G01*
X87300000Y-93230000D02*
X87300000Y-92890000D01*
G75*
G02*
X87440000Y-92750000I140000J0D01*
G01*
X87720000Y-92750000D01*
G75*
G02*
X87860000Y-92890000I0J-140000D01*
G01*
X87860000Y-93230000D01*
G75*
G02*
X87720000Y-93370000I-140000J0D01*
G01*
X87440000Y-93370000D01*
G75*
G02*
X87300000Y-93230000I0J140000D01*
G01*
G37*
G36*
G01*
X86340000Y-93230000D02*
X86340000Y-92890000D01*
G75*
G02*
X86480000Y-92750000I140000J0D01*
G01*
X86760000Y-92750000D01*
G75*
G02*
X86900000Y-92890000I0J-140000D01*
G01*
X86900000Y-93230000D01*
G75*
G02*
X86760000Y-93370000I-140000J0D01*
G01*
X86480000Y-93370000D01*
G75*
G02*
X86340000Y-93230000I0J140000D01*
G01*
G37*
%TD*%
%TO.C,C25*%
G36*
G01*
X95080000Y-79194000D02*
X95420000Y-79194000D01*
G75*
G02*
X95560000Y-79334000I0J-140000D01*
G01*
X95560000Y-79614000D01*
G75*
G02*
X95420000Y-79754000I-140000J0D01*
G01*
X95080000Y-79754000D01*
G75*
G02*
X94940000Y-79614000I0J140000D01*
G01*
X94940000Y-79334000D01*
G75*
G02*
X95080000Y-79194000I140000J0D01*
G01*
G37*
G36*
G01*
X95080000Y-78234000D02*
X95420000Y-78234000D01*
G75*
G02*
X95560000Y-78374000I0J-140000D01*
G01*
X95560000Y-78654000D01*
G75*
G02*
X95420000Y-78794000I-140000J0D01*
G01*
X95080000Y-78794000D01*
G75*
G02*
X94940000Y-78654000I0J140000D01*
G01*
X94940000Y-78374000D01*
G75*
G02*
X95080000Y-78234000I140000J0D01*
G01*
G37*
%TD*%
%TO.C,C24*%
G36*
G01*
X104984000Y-78062000D02*
X104984000Y-78402000D01*
G75*
G02*
X104844000Y-78542000I-140000J0D01*
G01*
X104564000Y-78542000D01*
G75*
G02*
X104424000Y-78402000I0J140000D01*
G01*
X104424000Y-78062000D01*
G75*
G02*
X104564000Y-77922000I140000J0D01*
G01*
X104844000Y-77922000D01*
G75*
G02*
X104984000Y-78062000I0J-140000D01*
G01*
G37*
G36*
G01*
X105944000Y-78062000D02*
X105944000Y-78402000D01*
G75*
G02*
X105804000Y-78542000I-140000J0D01*
G01*
X105524000Y-78542000D01*
G75*
G02*
X105384000Y-78402000I0J140000D01*
G01*
X105384000Y-78062000D01*
G75*
G02*
X105524000Y-77922000I140000J0D01*
G01*
X105804000Y-77922000D01*
G75*
G02*
X105944000Y-78062000I0J-140000D01*
G01*
G37*
%TD*%
D35*
%TO.C,U3*%
X128750000Y-81600000D03*
X129700000Y-81600000D03*
X130650000Y-81600000D03*
X130650000Y-79400000D03*
X128750000Y-79400000D03*
X129700000Y-79400000D03*
%TD*%
D24*
%TO.C,D2*%
X134600000Y-77680000D03*
X134600000Y-80980000D03*
%TD*%
%TO.C,C2*%
G36*
G01*
X139029000Y-78610000D02*
X138079000Y-78610000D01*
G75*
G02*
X137829000Y-78360000I0J250000D01*
G01*
X137829000Y-77860000D01*
G75*
G02*
X138079000Y-77610000I250000J0D01*
G01*
X139029000Y-77610000D01*
G75*
G02*
X139279000Y-77860000I0J-250000D01*
G01*
X139279000Y-78360000D01*
G75*
G02*
X139029000Y-78610000I-250000J0D01*
G01*
G37*
G36*
G01*
X139029000Y-80510000D02*
X138079000Y-80510000D01*
G75*
G02*
X137829000Y-80260000I0J250000D01*
G01*
X137829000Y-79760000D01*
G75*
G02*
X138079000Y-79510000I250000J0D01*
G01*
X139029000Y-79510000D01*
G75*
G02*
X139279000Y-79760000I0J-250000D01*
G01*
X139279000Y-80260000D01*
G75*
G02*
X139029000Y-80510000I-250000J0D01*
G01*
G37*
%TD*%
%TO.C,C13*%
G36*
G01*
X154579729Y-88671744D02*
X154820145Y-88912160D01*
G75*
G02*
X154820145Y-89110150I-98995J-98995D01*
G01*
X154622155Y-89308140D01*
G75*
G02*
X154424165Y-89308140I-98995J98995D01*
G01*
X154183749Y-89067724D01*
G75*
G02*
X154183749Y-88869734I98995J98995D01*
G01*
X154381739Y-88671744D01*
G75*
G02*
X154579729Y-88671744I98995J-98995D01*
G01*
G37*
G36*
G01*
X155258551Y-87992922D02*
X155498967Y-88233338D01*
G75*
G02*
X155498967Y-88431328I-98995J-98995D01*
G01*
X155300977Y-88629318D01*
G75*
G02*
X155102987Y-88629318I-98995J98995D01*
G01*
X154862571Y-88388902D01*
G75*
G02*
X154862571Y-88190912I98995J98995D01*
G01*
X155060561Y-87992922D01*
G75*
G02*
X155258551Y-87992922I98995J-98995D01*
G01*
G37*
%TD*%
%TO.C,C16*%
G36*
G01*
X186506587Y-99346967D02*
X186153033Y-98993413D01*
G75*
G02*
X186153033Y-98675215I159099J159099D01*
G01*
X186471231Y-98357017D01*
G75*
G02*
X186789429Y-98357017I159099J-159099D01*
G01*
X187142983Y-98710571D01*
G75*
G02*
X187142983Y-99028769I-159099J-159099D01*
G01*
X186824785Y-99346967D01*
G75*
G02*
X186506587Y-99346967I-159099J159099D01*
G01*
G37*
G36*
G01*
X185410571Y-100442983D02*
X185057017Y-100089429D01*
G75*
G02*
X185057017Y-99771231I159099J159099D01*
G01*
X185375215Y-99453033D01*
G75*
G02*
X185693413Y-99453033I159099J-159099D01*
G01*
X186046967Y-99806587D01*
G75*
G02*
X186046967Y-100124785I-159099J-159099D01*
G01*
X185728769Y-100442983D01*
G75*
G02*
X185410571Y-100442983I-159099J159099D01*
G01*
G37*
%TD*%
%TO.C,C17*%
G36*
G01*
X160662754Y-79392410D02*
X161002754Y-79392410D01*
G75*
G02*
X161142754Y-79532410I0J-140000D01*
G01*
X161142754Y-79812410D01*
G75*
G02*
X161002754Y-79952410I-140000J0D01*
G01*
X160662754Y-79952410D01*
G75*
G02*
X160522754Y-79812410I0J140000D01*
G01*
X160522754Y-79532410D01*
G75*
G02*
X160662754Y-79392410I140000J0D01*
G01*
G37*
G36*
G01*
X160662754Y-78432410D02*
X161002754Y-78432410D01*
G75*
G02*
X161142754Y-78572410I0J-140000D01*
G01*
X161142754Y-78852410D01*
G75*
G02*
X161002754Y-78992410I-140000J0D01*
G01*
X160662754Y-78992410D01*
G75*
G02*
X160522754Y-78852410I0J140000D01*
G01*
X160522754Y-78572410D01*
G75*
G02*
X160662754Y-78432410I140000J0D01*
G01*
G37*
%TD*%
%TO.C,C18*%
G36*
G01*
X155002754Y-78992410D02*
X154662754Y-78992410D01*
G75*
G02*
X154522754Y-78852410I0J140000D01*
G01*
X154522754Y-78572410D01*
G75*
G02*
X154662754Y-78432410I140000J0D01*
G01*
X155002754Y-78432410D01*
G75*
G02*
X155142754Y-78572410I0J-140000D01*
G01*
X155142754Y-78852410D01*
G75*
G02*
X155002754Y-78992410I-140000J0D01*
G01*
G37*
G36*
G01*
X155002754Y-79952410D02*
X154662754Y-79952410D01*
G75*
G02*
X154522754Y-79812410I0J140000D01*
G01*
X154522754Y-79532410D01*
G75*
G02*
X154662754Y-79392410I140000J0D01*
G01*
X155002754Y-79392410D01*
G75*
G02*
X155142754Y-79532410I0J-140000D01*
G01*
X155142754Y-79812410D01*
G75*
G02*
X155002754Y-79952410I-140000J0D01*
G01*
G37*
%TD*%
%TO.C,F1*%
G36*
G01*
X137100250Y-82132500D02*
X136587750Y-82132500D01*
G75*
G02*
X136369000Y-81913750I0J218750D01*
G01*
X136369000Y-81476250D01*
G75*
G02*
X136587750Y-81257500I218750J0D01*
G01*
X137100250Y-81257500D01*
G75*
G02*
X137319000Y-81476250I0J-218750D01*
G01*
X137319000Y-81913750D01*
G75*
G02*
X137100250Y-82132500I-218750J0D01*
G01*
G37*
G36*
G01*
X137100250Y-83707500D02*
X136587750Y-83707500D01*
G75*
G02*
X136369000Y-83488750I0J218750D01*
G01*
X136369000Y-83051250D01*
G75*
G02*
X136587750Y-82832500I218750J0D01*
G01*
X137100250Y-82832500D01*
G75*
G02*
X137319000Y-83051250I0J-218750D01*
G01*
X137319000Y-83488750D01*
G75*
G02*
X137100250Y-83707500I-218750J0D01*
G01*
G37*
%TD*%
%TO.C,FB1*%
G36*
G01*
X138985250Y-81975000D02*
X138222750Y-81975000D01*
G75*
G02*
X138004000Y-81756250I0J218750D01*
G01*
X138004000Y-81318750D01*
G75*
G02*
X138222750Y-81100000I218750J0D01*
G01*
X138985250Y-81100000D01*
G75*
G02*
X139204000Y-81318750I0J-218750D01*
G01*
X139204000Y-81756250D01*
G75*
G02*
X138985250Y-81975000I-218750J0D01*
G01*
G37*
G36*
G01*
X138985250Y-84100000D02*
X138222750Y-84100000D01*
G75*
G02*
X138004000Y-83881250I0J218750D01*
G01*
X138004000Y-83443750D01*
G75*
G02*
X138222750Y-83225000I218750J0D01*
G01*
X138985250Y-83225000D01*
G75*
G02*
X139204000Y-83443750I0J-218750D01*
G01*
X139204000Y-83881250D01*
G75*
G02*
X138985250Y-84100000I-218750J0D01*
G01*
G37*
%TD*%
%TO.C,FB2*%
G36*
G01*
X154281250Y-83575000D02*
X153518750Y-83575000D01*
G75*
G02*
X153300000Y-83356250I0J218750D01*
G01*
X153300000Y-82918750D01*
G75*
G02*
X153518750Y-82700000I218750J0D01*
G01*
X154281250Y-82700000D01*
G75*
G02*
X154500000Y-82918750I0J-218750D01*
G01*
X154500000Y-83356250D01*
G75*
G02*
X154281250Y-83575000I-218750J0D01*
G01*
G37*
G36*
G01*
X154281250Y-85700000D02*
X153518750Y-85700000D01*
G75*
G02*
X153300000Y-85481250I0J218750D01*
G01*
X153300000Y-85043750D01*
G75*
G02*
X153518750Y-84825000I218750J0D01*
G01*
X154281250Y-84825000D01*
G75*
G02*
X154500000Y-85043750I0J-218750D01*
G01*
X154500000Y-85481250D01*
G75*
G02*
X154281250Y-85700000I-218750J0D01*
G01*
G37*
%TD*%
D36*
%TO.C,HSE1*%
X158982754Y-80042410D03*
X156782754Y-80042410D03*
X156782754Y-78342410D03*
X158982754Y-78342410D03*
%TD*%
%TO.C,R1*%
G36*
G01*
X180108371Y-77161205D02*
X179846742Y-76899576D01*
G75*
G02*
X179846742Y-76708658I95459J95459D01*
G01*
X180037661Y-76517739D01*
G75*
G02*
X180228579Y-76517739I95459J-95459D01*
G01*
X180490208Y-76779368D01*
G75*
G02*
X180490208Y-76970286I-95459J-95459D01*
G01*
X180299289Y-77161205D01*
G75*
G02*
X180108371Y-77161205I-95459J95459D01*
G01*
G37*
G36*
G01*
X179387123Y-77882453D02*
X179125494Y-77620824D01*
G75*
G02*
X179125494Y-77429906I95459J95459D01*
G01*
X179316413Y-77238987D01*
G75*
G02*
X179507331Y-77238987I95459J-95459D01*
G01*
X179768960Y-77500616D01*
G75*
G02*
X179768960Y-77691534I-95459J-95459D01*
G01*
X179578041Y-77882453D01*
G75*
G02*
X179387123Y-77882453I-95459J95459D01*
G01*
G37*
%TD*%
%TO.C,R2*%
G36*
G01*
X157567182Y-81729814D02*
X157197182Y-81729814D01*
G75*
G02*
X157062182Y-81594814I0J135000D01*
G01*
X157062182Y-81324814D01*
G75*
G02*
X157197182Y-81189814I135000J0D01*
G01*
X157567182Y-81189814D01*
G75*
G02*
X157702182Y-81324814I0J-135000D01*
G01*
X157702182Y-81594814D01*
G75*
G02*
X157567182Y-81729814I-135000J0D01*
G01*
G37*
G36*
G01*
X157567182Y-82749814D02*
X157197182Y-82749814D01*
G75*
G02*
X157062182Y-82614814I0J135000D01*
G01*
X157062182Y-82344814D01*
G75*
G02*
X157197182Y-82209814I135000J0D01*
G01*
X157567182Y-82209814D01*
G75*
G02*
X157702182Y-82344814I0J-135000D01*
G01*
X157702182Y-82614814D01*
G75*
G02*
X157567182Y-82749814I-135000J0D01*
G01*
G37*
%TD*%
D37*
%TO.C,U1*%
X140914000Y-78220000D03*
X140914000Y-82820000D03*
X140914000Y-80520000D03*
D38*
X147214000Y-80520000D03*
%TD*%
M02*
