%TF.GenerationSoftware,KiCad,Pcbnew,(5.1.8-0-10_14)*%
%TF.CreationDate,2021-01-08T14:50:06+01:00*%
%TF.ProjectId,PoundingSystem,506f756e-6469-46e6-9753-797374656d2e,rev?*%
%TF.SameCoordinates,Original*%
%TF.FileFunction,Copper,L4,Bot*%
%TF.FilePolarity,Positive*%
%FSLAX46Y46*%
G04 Gerber Fmt 4.6, Leading zero omitted, Abs format (unit mm)*
G04 Created by KiCad (PCBNEW (5.1.8-0-10_14)) date 2021-01-08 14:50:06*
%MOMM*%
%LPD*%
G01*
G04 APERTURE LIST*
%TA.AperFunction,ComponentPad*%
%ADD10C,4.400000*%
%TD*%
%TA.AperFunction,ComponentPad*%
%ADD11C,0.700000*%
%TD*%
%TA.AperFunction,ComponentPad*%
%ADD12R,2.000000X2.000000*%
%TD*%
%TA.AperFunction,ComponentPad*%
%ADD13C,2.000000*%
%TD*%
%TA.AperFunction,ComponentPad*%
%ADD14R,2.000000X3.200000*%
%TD*%
%TA.AperFunction,ComponentPad*%
%ADD15R,2.500000X3.000000*%
%TD*%
%TA.AperFunction,ComponentPad*%
%ADD16C,1.800000*%
%TD*%
%TA.AperFunction,ComponentPad*%
%ADD17O,0.900000X1.800000*%
%TD*%
%TA.AperFunction,SMDPad,CuDef*%
%ADD18R,1.200000X1.000000*%
%TD*%
%TA.AperFunction,SMDPad,CuDef*%
%ADD19R,0.800000X1.200000*%
%TD*%
%TA.AperFunction,SMDPad,CuDef*%
%ADD20R,0.600000X3.000000*%
%TD*%
%TA.AperFunction,ComponentPad*%
%ADD21C,2.800000*%
%TD*%
%TA.AperFunction,ComponentPad*%
%ADD22R,1.700000X1.700000*%
%TD*%
%TA.AperFunction,ComponentPad*%
%ADD23O,1.700000X1.700000*%
%TD*%
%TA.AperFunction,SMDPad,CuDef*%
%ADD24R,1.200000X1.900000*%
%TD*%
%TA.AperFunction,ComponentPad*%
%ADD25O,1.200000X1.900000*%
%TD*%
%TA.AperFunction,SMDPad,CuDef*%
%ADD26R,1.500000X1.900000*%
%TD*%
%TA.AperFunction,ComponentPad*%
%ADD27C,1.450000*%
%TD*%
%TA.AperFunction,SMDPad,CuDef*%
%ADD28R,0.400000X1.350000*%
%TD*%
%TA.AperFunction,ViaPad*%
%ADD29C,0.600000*%
%TD*%
%TA.AperFunction,ViaPad*%
%ADD30C,0.800000*%
%TD*%
%TA.AperFunction,Conductor*%
%ADD31C,0.250000*%
%TD*%
%TA.AperFunction,Conductor*%
%ADD32C,0.400000*%
%TD*%
%TA.AperFunction,Conductor*%
%ADD33C,0.300000*%
%TD*%
%TA.AperFunction,Conductor*%
%ADD34C,0.200000*%
%TD*%
%TA.AperFunction,Conductor*%
%ADD35C,0.261112*%
%TD*%
G04 APERTURE END LIST*
D10*
%TO.P,H2,1*%
%TO.N,Net-(H2-Pad1)*%
X36375000Y-76625000D03*
D11*
X38025000Y-76625000D03*
X37541726Y-77791726D03*
X36375000Y-78275000D03*
X35208274Y-77791726D03*
X34725000Y-76625000D03*
X35208274Y-75458274D03*
X36375000Y-74975000D03*
X37541726Y-75458274D03*
%TD*%
D12*
%TO.P,SW1,A*%
%TO.N,Net-(C51-Pad2)*%
X207200000Y-105435000D03*
D13*
%TO.P,SW1,C*%
%TO.N,GND*%
X204700000Y-105435000D03*
%TO.P,SW1,B*%
%TO.N,Net-(C52-Pad2)*%
X202200000Y-105435000D03*
D14*
%TO.P,SW1,MP*%
%TO.N,N/C*%
X210300000Y-97935000D03*
X199100000Y-97935000D03*
D13*
%TO.P,SW1,S2*%
%TO.N,Net-(C49-Pad2)*%
X207200000Y-90935000D03*
%TO.P,SW1,S1*%
%TO.N,GND*%
X202200000Y-90935000D03*
%TD*%
D12*
%TO.P,SW4,A*%
%TO.N,Net-(C43-Pad2)*%
X95317920Y-105435000D03*
D13*
%TO.P,SW4,C*%
%TO.N,GND*%
X92817920Y-105435000D03*
%TO.P,SW4,B*%
%TO.N,Net-(C41-Pad2)*%
X90317920Y-105435000D03*
D15*
%TO.P,SW4,MP*%
%TO.N,N/C*%
X98417920Y-97935000D03*
X87217920Y-97935000D03*
%TD*%
D12*
%TO.P,SW3,A*%
%TO.N,Net-(C44-Pad2)*%
X116970280Y-105435000D03*
D13*
%TO.P,SW3,C*%
%TO.N,GND*%
X114470280Y-105435000D03*
%TO.P,SW3,B*%
%TO.N,Net-(C42-Pad2)*%
X111970280Y-105435000D03*
D15*
%TO.P,SW3,MP*%
%TO.N,N/C*%
X120070280Y-97935000D03*
X108870280Y-97935000D03*
%TD*%
D13*
%TO.P,SW7,1*%
%TO.N,GND*%
X51500000Y-85000000D03*
%TO.P,SW7,2*%
%TO.N,Net-(C46-Pad2)*%
X51500000Y-80500000D03*
%TO.P,SW7,1*%
%TO.N,GND*%
X45000000Y-85000000D03*
%TO.P,SW7,2*%
%TO.N,Net-(C46-Pad2)*%
X45000000Y-80500000D03*
%TD*%
%TO.P,SW6,1*%
%TO.N,GND*%
X207668000Y-85000000D03*
%TO.P,SW6,2*%
%TO.N,Net-(C50-Pad2)*%
X207668000Y-80500000D03*
%TO.P,SW6,1*%
%TO.N,GND*%
X201168000Y-85000000D03*
%TO.P,SW6,2*%
%TO.N,Net-(C50-Pad2)*%
X201168000Y-80500000D03*
%TD*%
D16*
%TO.P,J5,*%
%TO.N,*%
X99357500Y-84970000D03*
X99357500Y-78870000D03*
D17*
%TO.P,J5,T*%
%TO.N,Net-(FB3-Pad1)*%
X101757500Y-85970000D03*
%TO.P,J5,S*%
%TO.N,GND*%
X101757500Y-78914000D03*
%TO.P,J5,R*%
%TO.N,Net-(FB4-Pad1)*%
X96960500Y-80847000D03*
%TD*%
D18*
%TO.P,SW9,0*%
%TO.N,N/C*%
X131960000Y-76780000D03*
X131960000Y-74480000D03*
X139360000Y-76780000D03*
X139360000Y-74480000D03*
D19*
%TO.P,SW9,1*%
%TO.N,Net-(D2-Pad2)*%
X137860000Y-77480000D03*
%TO.P,SW9,2*%
%TO.N,+5V*%
X136360000Y-77480000D03*
%TO.P,SW9,3*%
%TO.N,Net-(SW9-Pad3)*%
X133460000Y-77480000D03*
%TD*%
%TO.P,D7,2*%
%TO.N,Net-(D7-Pad2)*%
%TA.AperFunction,SMDPad,CuDef*%
G36*
G01*
X153156250Y-101250000D02*
X152243750Y-101250000D01*
G75*
G02*
X152000000Y-101006250I0J243750D01*
G01*
X152000000Y-100518750D01*
G75*
G02*
X152243750Y-100275000I243750J0D01*
G01*
X153156250Y-100275000D01*
G75*
G02*
X153400000Y-100518750I0J-243750D01*
G01*
X153400000Y-101006250D01*
G75*
G02*
X153156250Y-101250000I-243750J0D01*
G01*
G37*
%TD.AperFunction*%
%TO.P,D7,1*%
%TO.N,GND*%
%TA.AperFunction,SMDPad,CuDef*%
G36*
G01*
X153156250Y-103125000D02*
X152243750Y-103125000D01*
G75*
G02*
X152000000Y-102881250I0J243750D01*
G01*
X152000000Y-102393750D01*
G75*
G02*
X152243750Y-102150000I243750J0D01*
G01*
X153156250Y-102150000D01*
G75*
G02*
X153400000Y-102393750I0J-243750D01*
G01*
X153400000Y-102881250D01*
G75*
G02*
X153156250Y-103125000I-243750J0D01*
G01*
G37*
%TD.AperFunction*%
%TD*%
%TO.P,D6,2*%
%TO.N,Net-(D6-Pad2)*%
%TA.AperFunction,SMDPad,CuDef*%
G36*
G01*
X189643750Y-102150000D02*
X190556250Y-102150000D01*
G75*
G02*
X190800000Y-102393750I0J-243750D01*
G01*
X190800000Y-102881250D01*
G75*
G02*
X190556250Y-103125000I-243750J0D01*
G01*
X189643750Y-103125000D01*
G75*
G02*
X189400000Y-102881250I0J243750D01*
G01*
X189400000Y-102393750D01*
G75*
G02*
X189643750Y-102150000I243750J0D01*
G01*
G37*
%TD.AperFunction*%
%TO.P,D6,1*%
%TO.N,GND*%
%TA.AperFunction,SMDPad,CuDef*%
G36*
G01*
X189643750Y-100275000D02*
X190556250Y-100275000D01*
G75*
G02*
X190800000Y-100518750I0J-243750D01*
G01*
X190800000Y-101006250D01*
G75*
G02*
X190556250Y-101250000I-243750J0D01*
G01*
X189643750Y-101250000D01*
G75*
G02*
X189400000Y-101006250I0J243750D01*
G01*
X189400000Y-100518750D01*
G75*
G02*
X189643750Y-100275000I243750J0D01*
G01*
G37*
%TD.AperFunction*%
%TD*%
%TO.P,D5,2*%
%TO.N,Net-(D5-Pad2)*%
%TA.AperFunction,SMDPad,CuDef*%
G36*
G01*
X189743750Y-88950000D02*
X190656250Y-88950000D01*
G75*
G02*
X190900000Y-89193750I0J-243750D01*
G01*
X190900000Y-89681250D01*
G75*
G02*
X190656250Y-89925000I-243750J0D01*
G01*
X189743750Y-89925000D01*
G75*
G02*
X189500000Y-89681250I0J243750D01*
G01*
X189500000Y-89193750D01*
G75*
G02*
X189743750Y-88950000I243750J0D01*
G01*
G37*
%TD.AperFunction*%
%TO.P,D5,1*%
%TO.N,GND*%
%TA.AperFunction,SMDPad,CuDef*%
G36*
G01*
X189743750Y-87075000D02*
X190656250Y-87075000D01*
G75*
G02*
X190900000Y-87318750I0J-243750D01*
G01*
X190900000Y-87806250D01*
G75*
G02*
X190656250Y-88050000I-243750J0D01*
G01*
X189743750Y-88050000D01*
G75*
G02*
X189500000Y-87806250I0J243750D01*
G01*
X189500000Y-87318750D01*
G75*
G02*
X189743750Y-87075000I243750J0D01*
G01*
G37*
%TD.AperFunction*%
%TD*%
%TO.P,D4,2*%
%TO.N,Net-(D4-Pad2)*%
%TA.AperFunction,SMDPad,CuDef*%
G36*
G01*
X153156250Y-88050000D02*
X152243750Y-88050000D01*
G75*
G02*
X152000000Y-87806250I0J243750D01*
G01*
X152000000Y-87318750D01*
G75*
G02*
X152243750Y-87075000I243750J0D01*
G01*
X153156250Y-87075000D01*
G75*
G02*
X153400000Y-87318750I0J-243750D01*
G01*
X153400000Y-87806250D01*
G75*
G02*
X153156250Y-88050000I-243750J0D01*
G01*
G37*
%TD.AperFunction*%
%TO.P,D4,1*%
%TO.N,GND*%
%TA.AperFunction,SMDPad,CuDef*%
G36*
G01*
X153156250Y-89925000D02*
X152243750Y-89925000D01*
G75*
G02*
X152000000Y-89681250I0J243750D01*
G01*
X152000000Y-89193750D01*
G75*
G02*
X152243750Y-88950000I243750J0D01*
G01*
X153156250Y-88950000D01*
G75*
G02*
X153400000Y-89193750I0J-243750D01*
G01*
X153400000Y-89681250D01*
G75*
G02*
X153156250Y-89925000I-243750J0D01*
G01*
G37*
%TD.AperFunction*%
%TD*%
D13*
%TO.P,SW5,2*%
%TO.N,Net-(C47-Pad2)*%
X51512000Y-103052000D03*
%TO.P,SW5,1*%
%TO.N,GND*%
X54262000Y-98922000D03*
%TD*%
%TO.P,U5,*%
%TO.N,*%
X188700000Y-81600000D03*
D20*
%TO.P,U5,3*%
%TO.N,GND*%
X173450000Y-78100000D03*
%TO.P,U5,4*%
%TO.N,+3V3*%
X172450000Y-78100000D03*
%TO.P,U5,5*%
%TO.N,LCD_CS*%
X171450000Y-78100000D03*
%TO.P,U5,2*%
%TO.N,Net-(C23-Pad1)*%
X174450000Y-78100000D03*
%TO.P,U5,1*%
%TO.N,NRST*%
X175450000Y-78100000D03*
%TO.P,U5,6*%
%TO.N,LCD_DC*%
X170450000Y-78100000D03*
%TO.P,U5,7*%
%TO.N,SPI3_MOSI*%
X169450000Y-78100000D03*
%TO.P,U5,8*%
%TO.N,SPI3_SCK*%
X168450000Y-78100000D03*
%TO.P,U5,9*%
%TO.N,+3V3*%
X167450000Y-78100000D03*
D13*
%TO.P,U5,*%
%TO.N,*%
X154200000Y-108100000D03*
%TD*%
D12*
%TO.P,SW8,A*%
%TO.N,Net-(C35-Pad2)*%
X73665560Y-105435000D03*
D13*
%TO.P,SW8,C*%
%TO.N,GND*%
X71165560Y-105435000D03*
%TO.P,SW8,B*%
%TO.N,Net-(C34-Pad2)*%
X68665560Y-105435000D03*
D21*
%TO.P,SW8,MP*%
%TO.N,N/C*%
X76765560Y-97935000D03*
X65565560Y-97935000D03*
%TD*%
D11*
%TO.P,H4,1*%
%TO.N,Net-(H4-Pad1)*%
X37541726Y-107783274D03*
X36375000Y-107300000D03*
X35208274Y-107783274D03*
X34725000Y-108950000D03*
X35208274Y-110116726D03*
X36375000Y-110600000D03*
X37541726Y-110116726D03*
X38025000Y-108950000D03*
D10*
X36375000Y-108950000D03*
%TD*%
D11*
%TO.P,H3,1*%
%TO.N,Net-(H3-Pad1)*%
X216141726Y-75483274D03*
X214975000Y-75000000D03*
X213808274Y-75483274D03*
X213325000Y-76650000D03*
X213808274Y-77816726D03*
X214975000Y-78300000D03*
X216141726Y-77816726D03*
X216625000Y-76650000D03*
D10*
X214975000Y-76650000D03*
%TD*%
D11*
%TO.P,H2,1*%
%TO.N,Net-(H2-Pad1)*%
X37541726Y-75458274D03*
X36375000Y-74975000D03*
X35208274Y-75458274D03*
X34725000Y-76625000D03*
X35208274Y-77791726D03*
X36375000Y-78275000D03*
X37541726Y-77791726D03*
X38025000Y-76625000D03*
D10*
X36375000Y-76625000D03*
%TD*%
D11*
%TO.P,H1,1*%
%TO.N,Net-(H1-Pad1)*%
X216141726Y-107783274D03*
X214975000Y-107300000D03*
X213808274Y-107783274D03*
X213325000Y-108950000D03*
X213808274Y-110116726D03*
X214975000Y-110600000D03*
X216141726Y-110116726D03*
X216625000Y-108950000D03*
D10*
X214975000Y-108950000D03*
%TD*%
D16*
%TO.P,J2,*%
%TO.N,*%
X89581667Y-84970000D03*
X89581667Y-78870000D03*
D17*
%TO.P,J2,T*%
%TO.N,Net-(FB5-Pad1)*%
X91981667Y-85970000D03*
%TO.P,J2,S*%
%TO.N,GND*%
X91981667Y-78914000D03*
%TO.P,J2,R*%
%TO.N,Net-(FB6-Pad1)*%
X87184667Y-80847000D03*
%TD*%
%TO.P,D3,2*%
%TO.N,Net-(D3-Pad2)*%
%TA.AperFunction,SMDPad,CuDef*%
G36*
G01*
X43575750Y-99237000D02*
X44088250Y-99237000D01*
G75*
G02*
X44307000Y-99455750I0J-218750D01*
G01*
X44307000Y-99893250D01*
G75*
G02*
X44088250Y-100112000I-218750J0D01*
G01*
X43575750Y-100112000D01*
G75*
G02*
X43357000Y-99893250I0J218750D01*
G01*
X43357000Y-99455750D01*
G75*
G02*
X43575750Y-99237000I218750J0D01*
G01*
G37*
%TD.AperFunction*%
%TO.P,D3,1*%
%TO.N,GND*%
%TA.AperFunction,SMDPad,CuDef*%
G36*
G01*
X43575750Y-97662000D02*
X44088250Y-97662000D01*
G75*
G02*
X44307000Y-97880750I0J-218750D01*
G01*
X44307000Y-98318250D01*
G75*
G02*
X44088250Y-98537000I-218750J0D01*
G01*
X43575750Y-98537000D01*
G75*
G02*
X43357000Y-98318250I0J218750D01*
G01*
X43357000Y-97880750D01*
G75*
G02*
X43575750Y-97662000I218750J0D01*
G01*
G37*
%TD.AperFunction*%
%TD*%
D22*
%TO.P,J6,1*%
%TO.N,VCC*%
X198470000Y-109550000D03*
D23*
%TO.P,J6,2*%
%TO.N,GND*%
X201010000Y-109550000D03*
%TO.P,J6,3*%
%TO.N,SWDIO*%
X203550000Y-109550000D03*
%TO.P,J6,4*%
%TO.N,SWCLK*%
X206090000Y-109550000D03*
%TO.P,J6,5*%
%TO.N,SWO*%
X208630000Y-109550000D03*
%TD*%
D16*
%TO.P,J4,*%
%TO.N,*%
X70030000Y-84970000D03*
X70030000Y-78870000D03*
D17*
%TO.P,J4,T*%
%TO.N,Net-(J4-PadT)*%
X72430000Y-85970000D03*
%TO.P,J4,S*%
%TO.N,GND*%
X72430000Y-78914000D03*
%TO.P,J4,R*%
%TO.N,Net-(J4-PadR)*%
X67633000Y-80847000D03*
%TD*%
D12*
%TO.P,SW2,A*%
%TO.N,Net-(C38-Pad2)*%
X138472640Y-105435000D03*
D13*
%TO.P,SW2,C*%
%TO.N,GND*%
X135972640Y-105435000D03*
%TO.P,SW2,B*%
%TO.N,Net-(C37-Pad2)*%
X133472640Y-105435000D03*
D15*
%TO.P,SW2,MP*%
%TO.N,N/C*%
X141572640Y-97935000D03*
X130372640Y-97935000D03*
%TD*%
D16*
%TO.P,J3,*%
%TO.N,*%
X79805834Y-84970000D03*
X79805834Y-78870000D03*
D17*
%TO.P,J3,T*%
%TO.N,Net-(C20-Pad1)*%
X82205834Y-85970000D03*
%TO.P,J3,S*%
%TO.N,GND*%
X82205834Y-78914000D03*
%TO.P,J3,R*%
%TO.N,MIC_-*%
X77408834Y-80847000D03*
%TD*%
D24*
%TO.P,J1,6*%
%TO.N,Net-(J1-Pad6)*%
X119560000Y-75602500D03*
X125360000Y-75602500D03*
D25*
X125960000Y-75602500D03*
X118960000Y-75602500D03*
D26*
X121460000Y-75602500D03*
D27*
X124960000Y-78302500D03*
D28*
%TO.P,J1,3*%
%TO.N,USB_CONN_D+*%
X122460000Y-78302500D03*
%TO.P,J1,4*%
%TO.N,Net-(J1-Pad4)*%
X123110000Y-78302500D03*
%TO.P,J1,5*%
%TO.N,GND*%
X123760000Y-78302500D03*
%TO.P,J1,1*%
%TO.N,+5V*%
X121160000Y-78302500D03*
%TO.P,J1,2*%
%TO.N,USB_CONN_D-*%
X121810000Y-78302500D03*
D27*
%TO.P,J1,6*%
%TO.N,Net-(J1-Pad6)*%
X119960000Y-78302500D03*
D26*
X123460000Y-75602500D03*
%TD*%
D29*
%TO.N,GND*%
X179350000Y-99060000D03*
X126310000Y-80790000D03*
X93550000Y-79640000D03*
X103480000Y-78330000D03*
X72230000Y-92400000D03*
X73450000Y-91030000D03*
X66450000Y-82530000D03*
X73930000Y-82150000D03*
X104620000Y-87280000D03*
X103780000Y-92190000D03*
X103670000Y-91080000D03*
X192220000Y-104890000D03*
X195250000Y-104840000D03*
X195330000Y-96310000D03*
X195240000Y-103620000D03*
X203962000Y-88900000D03*
X203962000Y-81026000D03*
X195072000Y-85344000D03*
X199644000Y-87884000D03*
X53600000Y-100880000D03*
X56910000Y-94920000D03*
X56230000Y-98540000D03*
X141470000Y-106090000D03*
X140350000Y-107325000D03*
X128500000Y-104950000D03*
X124870000Y-103360000D03*
X106800000Y-104890000D03*
X117500000Y-107535000D03*
X120875000Y-105950000D03*
X97150000Y-107530000D03*
X97850000Y-106120000D03*
X98050000Y-103560000D03*
X75400000Y-107600000D03*
X64010000Y-105720000D03*
X76430000Y-106030000D03*
X76390000Y-103430000D03*
X176270000Y-93240000D03*
X190100000Y-87500000D03*
X152700000Y-102600000D03*
X154550000Y-89420000D03*
X104240000Y-83930000D03*
X166080000Y-103940000D03*
X110744000Y-85090000D03*
X43750000Y-96810000D03*
X156170000Y-86310000D03*
X182430000Y-96620000D03*
X84910000Y-91610000D03*
X159980000Y-91070000D03*
X183642000Y-89408000D03*
X181102000Y-84328000D03*
X158059000Y-77650000D03*
X112522000Y-81026000D03*
X173450000Y-75510000D03*
X106550000Y-80190000D03*
X93190000Y-91610000D03*
X172610000Y-81760000D03*
X141550000Y-103640000D03*
X38100000Y-104648000D03*
X117410000Y-83650000D03*
X117430000Y-86610000D03*
X108350000Y-81460000D03*
X180140000Y-98280000D03*
X154084000Y-77840000D03*
X163960000Y-76560000D03*
X167120000Y-84260000D03*
X85040000Y-105070000D03*
X170610000Y-104310000D03*
X172080000Y-102880000D03*
X188468000Y-99822000D03*
X176173680Y-85356479D03*
X176069875Y-87959875D03*
X140250856Y-79387737D03*
%TO.N,+3V3*%
X102130000Y-89770000D03*
X195326000Y-98298000D03*
X58550000Y-95020000D03*
X166140000Y-78010000D03*
X154290000Y-81160000D03*
X176360000Y-82580000D03*
X168850000Y-103210000D03*
X105380000Y-82990000D03*
X188500000Y-109250000D03*
X180500000Y-92100000D03*
X165540000Y-93490000D03*
X160660000Y-90440000D03*
X164020000Y-87140000D03*
X79420000Y-103360000D03*
X144890000Y-103480000D03*
X122174000Y-103378000D03*
X101390000Y-103530000D03*
X198120000Y-85344000D03*
X117420000Y-84630000D03*
X117440000Y-85650000D03*
X171620000Y-101390000D03*
X180550000Y-97280000D03*
X181490000Y-93790000D03*
X166390000Y-84970000D03*
%TO.N,I2C2_SDA*%
X119920000Y-83730000D03*
X119880000Y-82194990D03*
%TO.N,NRST*%
X177360002Y-87630000D03*
%TO.N,HOLD_SW*%
X148400000Y-90800000D03*
X158600000Y-90500000D03*
X162900000Y-86200000D03*
X60910000Y-97550000D03*
%TO.N,I2S2_MCK*%
X158730000Y-94320000D03*
X158725000Y-99250000D03*
%TO.N,SPI3_SCK*%
X170180000Y-92000000D03*
%TO.N,SPI3_MOSI*%
X171250000Y-92000000D03*
%TO.N,+5V*%
X145340000Y-78980000D03*
%TO.N,Net-(FB3-Pad1)*%
X101770000Y-81810000D03*
%TO.N,I2S2_SCLK*%
X154875000Y-96375000D03*
X154875000Y-94325010D03*
%TO.N,I2S2_SDI*%
X156210000Y-94310000D03*
X156200000Y-97375000D03*
%TO.N,I2S2_SDO*%
X157500000Y-94310000D03*
X157500000Y-98275000D03*
%TO.N,Net-(J1-Pad4)*%
X123190000Y-80772000D03*
%TO.N,USB_D+*%
X146633975Y-82906025D03*
X166247282Y-94208400D03*
%TO.N,USB_D-*%
X166247282Y-95011600D03*
X145949409Y-83484892D03*
%TO.N,Net-(D3-Pad2)*%
X42570000Y-99700000D03*
%TO.N,BACK_BTN*%
X189850000Y-93050000D03*
X193802000Y-86868000D03*
%TO.N,MICBIAS*%
X107188000Y-87884000D03*
X83566000Y-85598000D03*
%TO.N,TIM4_CH1*%
X172930000Y-106800000D03*
X178450000Y-101250000D03*
%TO.N,TIM4_CH2*%
X172050000Y-106200000D03*
X178200000Y-99300000D03*
%TO.N,TIM2_CH1*%
X175250000Y-94250000D03*
X102520000Y-108190000D03*
%TO.N,TIM2_CH2*%
X173475000Y-93725000D03*
X102850000Y-106640000D03*
%TO.N,TIM3_CH1*%
X81190000Y-106950000D03*
X169200000Y-96100000D03*
%TO.N,TIM3_CH2*%
X168300000Y-95200000D03*
X81030000Y-103910000D03*
%TO.N,LCD_DC*%
X170400000Y-81700000D03*
%TO.N,LCD_CS*%
X171500000Y-82700000D03*
%TO.N,Net-(C23-Pad1)*%
X174400000Y-80500000D03*
%TO.N,Net-(D4-Pad2)*%
X150010000Y-86300000D03*
%TO.N,Net-(D5-Pad2)*%
X185420000Y-88391998D03*
%TO.N,Net-(D6-Pad2)*%
X189410000Y-104340000D03*
%TO.N,Net-(D7-Pad2)*%
X154630000Y-98330000D03*
%TO.N,LCD_BL*%
X166897292Y-92756599D03*
X157760000Y-100180000D03*
X187198000Y-100330000D03*
X185674000Y-86614000D03*
X154380002Y-86800000D03*
%TO.N,GND*%
X159414999Y-91704999D03*
D30*
%TO.N,USB_CONN_D+*%
X135934685Y-81795315D03*
%TO.N,USB_CONN_D-*%
X135225315Y-82504685D03*
D29*
%TO.N,Net-(D2-Pad2)*%
X147780000Y-76180000D03*
%TO.N,MIC_+*%
X107395479Y-88853479D03*
X83610000Y-88100000D03*
%TO.N,MIC_-*%
X107996521Y-89454521D03*
%TD*%
D31*
%TO.N,GND*%
X173450000Y-78100000D02*
X173450000Y-75510000D01*
D32*
X123760000Y-78302500D02*
X123760000Y-79377500D01*
X123760000Y-79377500D02*
X124402500Y-80020000D01*
D31*
X43832000Y-96892000D02*
X43750000Y-96810000D01*
X43832000Y-98099500D02*
X43832000Y-96892000D01*
X190100000Y-100762500D02*
X189159500Y-99822000D01*
X189159500Y-99822000D02*
X188468000Y-99822000D01*
X154532500Y-89437500D02*
X154550000Y-89420000D01*
X152700000Y-89437500D02*
X154532500Y-89437500D01*
D32*
X139378845Y-80020000D02*
X124402500Y-80020000D01*
X140011108Y-79387737D02*
X139378845Y-80020000D01*
X140250856Y-79387737D02*
X140011108Y-79387737D01*
D33*
%TO.N,+3V3*%
X167430000Y-77660000D02*
X167430000Y-79460000D01*
X167450000Y-76650000D02*
X167450000Y-78100000D01*
X168340000Y-75760000D02*
X167450000Y-76650000D01*
X171540002Y-75760000D02*
X168340000Y-75760000D01*
X172450000Y-76669998D02*
X171540002Y-75760000D01*
X172450000Y-78100000D02*
X172450000Y-76669998D01*
D31*
X167360000Y-78010000D02*
X167450000Y-78100000D01*
X166130000Y-78000000D02*
X166140000Y-78010000D01*
X166140000Y-78010000D02*
X167360000Y-78010000D01*
%TO.N,I2C2_SDA*%
X119880000Y-83690000D02*
X119920000Y-83730000D01*
X119880000Y-82194990D02*
X119880000Y-83690000D01*
%TO.N,NRST*%
X177360002Y-79460002D02*
X177360002Y-87630000D01*
X175450000Y-78100000D02*
X176000000Y-78100000D01*
X176000000Y-78100000D02*
X177360002Y-79460002D01*
%TO.N,HOLD_SW*%
X158600000Y-90500000D02*
X162900000Y-86200000D01*
X60910000Y-98908000D02*
X60910000Y-97550000D01*
X62332000Y-100330000D02*
X60910000Y-98908000D01*
X148400000Y-98600000D02*
X146670000Y-100330000D01*
X146670000Y-100330000D02*
X62332000Y-100330000D01*
X148400000Y-90800000D02*
X148400000Y-98600000D01*
%TO.N,I2S2_MCK*%
X158730000Y-99245000D02*
X158725000Y-99250000D01*
X158730000Y-94320000D02*
X158730000Y-99245000D01*
%TO.N,SPI3_SCK*%
X170500000Y-91680000D02*
X170180000Y-92000000D01*
X170500000Y-84200000D02*
X170500000Y-91680000D01*
X168465791Y-82165791D02*
X170500000Y-84200000D01*
X168450000Y-79850000D02*
X168465791Y-79865791D01*
X168465791Y-79865791D02*
X168465791Y-82165791D01*
X168450000Y-78100000D02*
X168450000Y-79850000D01*
%TO.N,SPI3_MOSI*%
X169450000Y-79476998D02*
X169450000Y-78100000D01*
X171250000Y-83850000D02*
X171250000Y-92000000D01*
X169450000Y-82050000D02*
X171250000Y-83850000D01*
X169450000Y-78100000D02*
X169450000Y-82050000D01*
D32*
%TO.N,+5V*%
X135012509Y-78827491D02*
X136360000Y-77480000D01*
X121160000Y-78302500D02*
X121160000Y-77357498D01*
X121440000Y-77077498D02*
X121160000Y-77357498D01*
X121440000Y-77050000D02*
X121440000Y-77077498D01*
X121440000Y-77050000D02*
X130280000Y-77050000D01*
X132037491Y-78827491D02*
X135012509Y-78827491D01*
X130270000Y-77060000D02*
X132037491Y-78827491D01*
X144765001Y-78405001D02*
X145340000Y-78980000D01*
X140175001Y-78405001D02*
X144765001Y-78405001D01*
X139752511Y-78827491D02*
X140175001Y-78405001D01*
X135012509Y-78827491D02*
X139752511Y-78827491D01*
D31*
%TO.N,Net-(FB3-Pad1)*%
X102870000Y-84857500D02*
X101757500Y-85970000D01*
X102870000Y-82910000D02*
X102870000Y-84857500D01*
X101770000Y-81810000D02*
X102870000Y-82910000D01*
%TO.N,I2S2_SCLK*%
X154875000Y-94325010D02*
X154875000Y-96375000D01*
%TO.N,I2S2_SDI*%
X156210000Y-97365000D02*
X156200000Y-97375000D01*
X156210000Y-94310000D02*
X156210000Y-97365000D01*
%TO.N,I2S2_SDO*%
X157500000Y-94310000D02*
X157500000Y-98275000D01*
%TO.N,Net-(J1-Pad4)*%
X123110000Y-80692000D02*
X123190000Y-80772000D01*
X123110000Y-78302500D02*
X123110000Y-80692000D01*
D34*
%TO.N,USB_CONN_D+*%
X122460000Y-78302500D02*
X122555999Y-78302500D01*
%TO.N,USB_CONN_D-*%
X121810000Y-78302500D02*
X121905999Y-78398499D01*
D35*
%TO.N,USB_D+*%
X153800000Y-92590000D02*
X160118320Y-92590000D01*
X146633975Y-85423975D02*
X153800000Y-92590000D01*
X161736720Y-94208400D02*
X166247282Y-94208400D01*
X160118320Y-92590000D02*
X161736720Y-94208400D01*
X146633975Y-82906025D02*
X146633975Y-85423975D01*
%TO.N,USB_D-*%
X153342967Y-93442967D02*
X145949409Y-86049409D01*
X161331600Y-95011600D02*
X159762967Y-93442967D01*
X145949409Y-86049409D02*
X145949409Y-83484892D01*
X159762967Y-93442967D02*
X153342967Y-93442967D01*
X166247282Y-95011600D02*
X161331600Y-95011600D01*
D33*
%TO.N,Net-(D3-Pad2)*%
X43832000Y-99674500D02*
X43832000Y-99662000D01*
D31*
X42595500Y-99674500D02*
X42570000Y-99700000D01*
X43832000Y-99674500D02*
X42595500Y-99674500D01*
%TO.N,BACK_BTN*%
X193802000Y-89098000D02*
X193802000Y-86868000D01*
X189850000Y-93050000D02*
X193802000Y-89098000D01*
%TO.N,MICBIAS*%
X107188000Y-87884000D02*
X107012000Y-88060000D01*
X107012000Y-88060000D02*
X86028000Y-88060000D01*
X86028000Y-88060000D02*
X83566000Y-85598000D01*
%TO.N,TIM4_CH1*%
X178450000Y-101300000D02*
X178450000Y-101250000D01*
X172950000Y-106800000D02*
X178450000Y-101300000D01*
X172930000Y-106800000D02*
X172950000Y-106800000D01*
%TO.N,TIM4_CH2*%
X172050000Y-106200000D02*
X178200000Y-100050000D01*
X178200000Y-100050000D02*
X178200000Y-99300000D01*
%TO.N,TIM2_CH1*%
X104630011Y-110300011D02*
X102520000Y-108190000D01*
X146224991Y-110300011D02*
X104630011Y-110300011D01*
X174500000Y-94250000D02*
X162832000Y-105918000D01*
X150607002Y-105918000D02*
X146224991Y-110300011D01*
X162832000Y-105918000D02*
X150607002Y-105918000D01*
X175250000Y-94250000D02*
X174500000Y-94250000D01*
%TO.N,TIM2_CH2*%
X105700000Y-109470000D02*
X102870000Y-106640000D01*
X145130042Y-109470000D02*
X105700000Y-109470000D01*
X149444042Y-105156000D02*
X145130042Y-109470000D01*
X102870000Y-106640000D02*
X102850000Y-106640000D01*
X162094000Y-105156000D02*
X149444042Y-105156000D01*
X173500000Y-93750000D02*
X162094000Y-105156000D01*
%TO.N,TIM3_CH1*%
X102005002Y-102300000D02*
X123698000Y-102300000D01*
X160652000Y-104648000D02*
X169200000Y-96100000D01*
X149098000Y-104648000D02*
X160652000Y-104648000D01*
X146750000Y-102300000D02*
X149098000Y-104648000D01*
X123700002Y-102300000D02*
X146750000Y-102300000D01*
X84560000Y-102300000D02*
X102108000Y-102300000D01*
X81190000Y-105670000D02*
X84560000Y-102300000D01*
X81190000Y-106950000D02*
X81190000Y-105670000D01*
%TO.N,TIM3_CH2*%
X168300000Y-96000000D02*
X168300000Y-95200000D01*
X147574000Y-101600000D02*
X149860000Y-103886000D01*
X160414000Y-103886000D02*
X168300000Y-96000000D01*
X81050000Y-103910000D02*
X83360000Y-101600000D01*
X149860000Y-103886000D02*
X160414000Y-103886000D01*
X83360000Y-101600000D02*
X147574000Y-101600000D01*
X81030000Y-103910000D02*
X81050000Y-103910000D01*
%TO.N,LCD_DC*%
X170400000Y-78150000D02*
X170450000Y-78100000D01*
X170400000Y-81700000D02*
X170400000Y-78150000D01*
%TO.N,LCD_CS*%
X171500000Y-78150000D02*
X171450000Y-78100000D01*
X171500000Y-82700000D02*
X171500000Y-78150000D01*
D33*
%TO.N,Net-(C23-Pad1)*%
X174400000Y-78150000D02*
X174450000Y-78100000D01*
X174400000Y-80500000D02*
X174400000Y-78150000D01*
%TO.N,Net-(D4-Pad2)*%
X152700000Y-87562500D02*
X151437500Y-86300000D01*
D31*
X151437500Y-86300000D02*
X150010000Y-86300000D01*
D33*
%TO.N,Net-(D5-Pad2)*%
X186465502Y-89437500D02*
X185420000Y-88391998D01*
X190200000Y-89437500D02*
X186465502Y-89437500D01*
%TO.N,Net-(D6-Pad2)*%
X189410000Y-103327500D02*
X190100000Y-102637500D01*
X189410000Y-104340000D02*
X189410000Y-103327500D01*
%TO.N,Net-(D7-Pad2)*%
X154630000Y-98832500D02*
X154630000Y-98330000D01*
X152700000Y-100762500D02*
X154630000Y-98832500D01*
%TO.N,LCD_BL*%
X166897292Y-89087290D02*
X166897292Y-92756599D01*
X163260001Y-85449999D02*
X166897292Y-89087290D01*
X162539999Y-85449999D02*
X163260001Y-85449999D01*
X160869997Y-87120001D02*
X162539999Y-85449999D01*
X167640693Y-93500000D02*
X166897292Y-92756599D01*
X170900000Y-93500000D02*
X167640693Y-93500000D01*
X175191104Y-89208896D02*
X170900000Y-93500000D01*
X181491104Y-89208896D02*
X175191104Y-89208896D01*
X156170000Y-87480000D02*
X160520000Y-87480000D01*
X160520000Y-87480000D02*
X160880000Y-87120000D01*
X156100000Y-87410000D02*
X156170000Y-87480000D01*
X167595999Y-95204001D02*
X162620000Y-100180000D01*
X162620000Y-100180000D02*
X157760000Y-100180000D01*
X167595999Y-93544694D02*
X167595999Y-95204001D01*
X167640693Y-93500000D02*
X167595999Y-93544694D01*
X187198000Y-94915792D02*
X187198000Y-100330000D01*
X181491104Y-89208896D02*
X187198000Y-94915792D01*
X184086000Y-86614000D02*
X185674000Y-86614000D01*
X181491104Y-89208896D02*
X184086000Y-86614000D01*
X155500000Y-86800000D02*
X156150000Y-87450000D01*
X154380002Y-86800000D02*
X155500000Y-86800000D01*
%TO.N,Net-(C46-Pad2)*%
X51500000Y-80500000D02*
X45000000Y-80500000D01*
D35*
%TO.N,USB_CONN_D+*%
X122879412Y-81474557D02*
X135281120Y-81474557D01*
X122505443Y-80443412D02*
X122505443Y-81100588D01*
X122525443Y-80423412D02*
X122505443Y-80443412D01*
X122505443Y-81100588D02*
X122879412Y-81474557D01*
X135601878Y-81795315D02*
X135934685Y-81795315D01*
X122525443Y-78302500D02*
X122525443Y-80423412D01*
X135281120Y-81474557D02*
X135601878Y-81795315D01*
X122460000Y-78302500D02*
X122525443Y-78302500D01*
%TO.N,USB_CONN_D-*%
X135225315Y-82171878D02*
X135225315Y-82504685D01*
X134992297Y-81938860D02*
X135225315Y-82171878D01*
X121810000Y-78302500D02*
X121875443Y-78367943D01*
X121875443Y-81127211D02*
X122687092Y-81938860D01*
X122687092Y-81938860D02*
X134992297Y-81938860D01*
X121875443Y-78367943D02*
X121875443Y-81127211D01*
D32*
%TO.N,Net-(D2-Pad2)*%
X138660000Y-75650000D02*
X147250000Y-75650000D01*
X137860000Y-76450000D02*
X138660000Y-75650000D01*
X147250000Y-75650000D02*
X147780000Y-76180000D01*
X137860000Y-77480000D02*
X137860000Y-76450000D01*
D34*
%TO.N,MIC_+*%
X85390577Y-88100000D02*
X83610000Y-88100000D01*
X85829588Y-88539011D02*
X85390577Y-88100000D01*
X107395479Y-88853479D02*
X107081011Y-88539011D01*
X107081011Y-88539011D02*
X85829588Y-88539011D01*
%TO.N,MIC_-*%
X107996521Y-89454521D02*
X107696522Y-89754520D01*
X107696522Y-89754520D02*
X105354520Y-89754520D01*
X105354520Y-89754520D02*
X104593022Y-88993022D01*
X104593022Y-88993022D02*
X85641530Y-88993021D01*
X85412520Y-88764011D02*
X80141943Y-88764010D01*
X85641530Y-88993021D02*
X85412520Y-88764011D01*
X80141943Y-88764010D02*
X77408834Y-86030901D01*
X77408834Y-86030901D02*
X77408834Y-80847000D01*
%TD*%
M02*
