M48
; DRILL file {KiCad (5.1.8-0-10_14)} date Friday, January 08, 2021 at 02:50:12 PM
; FORMAT={-:-/ absolute / inch / decimal}
; #@! TF.CreationDate,2021-01-08T14:50:12+01:00
; #@! TF.GenerationSoftware,Kicad,Pcbnew,(5.1.8-0-10_14)
; #@! TF.FileFunction,Plated,1,4,PTH
FMAT,2
INCH
T1C0.0118
T2C0.0157
T3C0.0236
T4C0.0335
T5C0.0394
T6C0.0433
T7C0.0472
T8C0.0591
T9C0.0787
T10C0.0866
%
G90
G05
T1
X1.5Y-4.12
X1.676Y-3.9252
X1.7224Y-3.8114
X2.1102Y-3.9717
X2.2138Y-3.8795
X2.2406Y-3.737
X2.3051Y-3.7409
X2.398Y-3.8406
X2.5201Y-4.1622
X2.6161Y-3.2492
X2.8437Y-3.6378
X2.8917Y-3.5839
X2.9106Y-3.2343
X2.9685Y-4.2362
X3.0075Y-4.072
X3.0091Y-4.1744
X3.1268Y-4.0693
X3.1902Y-4.0909
X3.1965Y-4.2106
X3.29Y-3.37
X3.2917Y-3.4685
X3.3429Y-3.6067
X3.348Y-4.1366
X3.6689Y-3.6067
X3.6831Y-3.1354
X3.8248Y-4.2335
X3.8524Y-4.178
X3.8602Y-4.0772
X3.9917Y-4.076
X4.0067Y-3.2209
X4.0209Y-3.5343
X4.0362Y-4.2594
X4.0492Y-4.1984
X4.074Y-3.0839
X4.0815Y-3.5858
X4.0858Y-3.6295
X4.1039Y-3.3043
X4.1189Y-3.4362
X4.1488Y-3.2673
X4.1949Y-3.1571
X4.2047Y-4.1295
X4.22Y-3.46
X4.2282Y-3.4982
X4.2518Y-3.5218
X4.2657Y-3.2071
X4.36Y-3.35
X4.43Y-3.19
X4.6224Y-3.2933
X4.6228Y-3.3319
X4.6232Y-3.4098
X4.6236Y-3.372
X4.626Y-4.2337
X4.7197Y-3.236
X4.7213Y-3.2965
X4.7589Y-4.1713
X4.81Y-4.07
X4.85Y-3.18
X4.9161Y-4.0693
X4.9728Y-3.1807
X5.0591Y-4.1319
X5.5217Y-3.1255
X5.5256Y-4.2254
X5.5697Y-4.1768
X5.5728Y-4.0803
X5.7043Y-4.074
X5.722Y-3.1094
X5.746Y-3.2868
X5.773Y-3.264
X5.8181Y-2.9992
X5.8425Y-3.5748
X5.9059Y-3.3976
X6.0118Y-4.0394
X6.0663Y-3.0646
X6.0744Y-3.1953
X6.078Y-3.4173
X6.0846Y-3.5205
X6.0878Y-3.8713
X6.0974Y-3.7136
X6.0974Y-3.7943
X6.1484Y-3.398
X6.1496Y-3.8337
X6.15Y-3.713
X6.2008Y-3.713
X6.2008Y-3.8691
X6.211Y-3.9441
X6.2228Y-3.0571
X6.2441Y-3.563
X6.249Y-3.9075
X6.2492Y-3.7134
X6.2762Y-3.6104
X6.2984Y-3.5854
X6.3252Y-3.5606
X6.4134Y-3.3937
X6.4551Y-3.0142
X6.4575Y-3.4307
X6.5173Y-3.6807
X6.5386Y-4.0921
X6.5409Y-3.0713
X6.5452Y-3.709
X6.5452Y-3.7406
X6.5508Y-3.3453
X6.5708Y-3.6518
X6.5795Y-3.3173
X6.626Y-3.748
X6.6476Y-4.0634
X6.6614Y-3.7835
X6.7Y-3.622
X6.7087Y-3.2165
X6.7169Y-4.1067
X6.7421Y-3.622
X6.752Y-3.2559
X6.7567Y-3.9917
X6.7736Y-4.1811
X6.7748Y-4.0504
X6.7957Y-3.2189
X6.8083Y-4.2047
X6.8287Y-2.9728
X6.8297Y-3.69
X6.8661Y-3.1693
X6.8996Y-3.7106
X6.9319Y-3.463
X6.936Y-3.3605
X6.9398Y-3.6709
X6.9433Y-3.2512
X6.9827Y-3.45
X7.0157Y-3.9094
X7.0256Y-3.9862
X7.061Y-3.9
X7.0921Y-3.8693
X7.1063Y-3.626
X7.1083Y-3.8299
X7.13Y-3.32
X7.1453Y-3.6925
X7.1823Y-3.8039
X7.23Y-3.52
X7.3Y-3.48
X7.31Y-3.41
X7.37Y-3.95
X7.42Y-3.93
X7.4213Y-4.3012
X7.4571Y-4.1079
X7.4744Y-3.6634
X7.4843Y-3.4449
X7.5677Y-4.1295
X7.63Y-3.42
X7.68Y-3.36
X7.6866Y-4.0795
X7.687Y-4.1276
X7.69Y-3.87
X7.6902Y-3.7917
X7.8Y-3.36
X7.86Y-3.46
X8.03Y-3.19
X8.03Y-3.5
T2
X5.3238Y-3.2482
X5.3518Y-3.2203
X8.3986Y-3.0177
X8.4176Y-2.9718
X8.4176Y-3.0637
X8.4636Y-2.9528
X8.4636Y-3.0827
X8.5095Y-2.9718
X8.5095Y-3.0637
X8.5285Y-3.0177
X1.3671Y-3.0167
X1.3862Y-2.9708
X1.3862Y-3.0627
X1.4321Y-2.9518
X1.4321Y-3.0817
X1.478Y-2.9708
X1.478Y-3.0627
X1.497Y-3.0167
X1.3671Y-4.2894
X1.3862Y-4.2434
X1.3862Y-4.3353
X1.4321Y-4.2244
X1.4321Y-4.3543
X1.478Y-4.2434
X1.478Y-4.3353
X1.497Y-4.2894
X1.3671Y-3.0167
X1.3862Y-2.9708
X1.3862Y-3.0627
X1.4321Y-2.9518
X1.4321Y-3.0817
X1.478Y-2.9708
X1.478Y-3.0627
X1.497Y-3.0167
X8.3986Y-4.2894
X8.4176Y-4.2434
X8.4176Y-4.3353
X8.4636Y-4.2244
X8.4636Y-4.3543
X8.5095Y-4.2434
X8.5095Y-4.3353
X8.5285Y-4.2894
T4
X4.7228Y-3.0828
X4.9197Y-3.0828
T5
X3.5558Y-4.151
X3.6542Y-4.151
X3.7527Y-4.151
X4.4083Y-4.151
X4.5067Y-4.151
X4.6051Y-4.151
X7.9606Y-3.5801
X7.9606Y-4.151
X8.0591Y-4.151
X8.1575Y-3.5801
X8.1575Y-4.151
X7.8138Y-4.313
X7.9138Y-4.313
X8.0138Y-4.313
X8.1138Y-4.313
X8.2138Y-4.313
X5.2548Y-4.151
X5.3533Y-4.151
X5.4517Y-4.151
X2.7034Y-4.151
X2.8018Y-4.151
X2.9002Y-4.151
T6
X1.7717Y-3.1693
X1.7717Y-3.3465
X2.0276Y-3.1693
X2.0276Y-3.3465
X7.92Y-3.1693
X7.92Y-3.3465
X8.1759Y-3.1693
X8.1759Y-3.3465
T7
X2.028Y-4.0572
X2.1363Y-3.8946
X3.9117Y-3.1051
X3.9117Y-3.3453
X3.5268Y-3.1051
X3.5268Y-3.3453
X2.7571Y-3.1051
X2.7571Y-3.3453
X3.142Y-3.1051
X3.142Y-3.3453
T9
X6.0709Y-4.2559
X7.4291Y-3.2126
T10
X8.4636Y-3.0177
X1.4321Y-3.0167
X1.4321Y-3.0167
X8.4636Y-4.2894
X2.5813Y-3.8557
X3.0223Y-3.8557
X1.4321Y-4.2894
T3
G00X3.8173Y-3.1948
M15
G01X3.8173Y-3.1711
M16
G05
G00X4.0062Y-3.1187
M15
G01X4.0062Y-3.095
M16
G05
G00X4.0062Y-3.3965
M15
G01X4.0062Y-3.3728
M16
G05
G00X3.4325Y-3.1948
M15
G01X3.4325Y-3.1711
M16
G05
G00X3.6213Y-3.1187
M15
G01X3.6213Y-3.095
M16
G05
G00X3.6213Y-3.3965
M15
G01X3.6213Y-3.3728
M16
G05
G00X2.6627Y-3.1948
M15
G01X2.6627Y-3.1711
M16
G05
G00X2.8516Y-3.1187
M15
G01X2.8516Y-3.095
M16
G05
G00X2.8516Y-3.3965
M15
G01X2.8516Y-3.3728
M16
G05
G00X4.6835Y-2.9903
M15
G01X4.6835Y-2.9627
M16
G05
G00X4.9591Y-2.9627
M15
G01X4.9591Y-2.9903
M16
G05
G00X3.0476Y-3.1948
M15
G01X3.0476Y-3.1711
M16
G05
G00X3.2365Y-3.1187
M15
G01X3.2365Y-3.095
M16
G05
G00X3.2365Y-3.3965
M15
G01X3.2365Y-3.3728
M16
G05
T8
G00X7.8386Y-3.8813
M15
G01X7.8386Y-3.8301
M16
G05
G00X8.2795Y-3.8813
M15
G01X8.2795Y-3.8301
M16
G05
T9
G00X3.4338Y-3.8656
M15
G01X3.4338Y-3.8459
M16
G05
G00X3.8747Y-3.8656
M15
G01X3.8747Y-3.8459
M16
G05
G00X4.2862Y-3.8656
M15
G01X4.2862Y-3.8459
M16
G05
G00X4.7272Y-3.8656
M15
G01X4.7272Y-3.8459
M16
G05
G00X5.1328Y-3.8656
M15
G01X5.1328Y-3.8459
M16
G05
G00X5.5737Y-3.8656
M15
G01X5.5737Y-3.8459
M16
G05
T0
M30
